<svg xmlns="http://www.w3.org/2000/svg" style="display:block" viewBox="0 0 2048 2048"><path fill="currentColor" d="M1009.59 898.538c179.4-9.625 332.64 127.992 342.28 307.392 9.64 179.39-127.96 332.64-307.36 342.3-179.416 9.66-332.69-127.97-342.334-307.38-9.643-179.42 127.997-332.685 307.414-342.312m33.06 551.622c125.04-9.07 219.1-117.72 210.16-242.77s-117.48-219.216-242.54-210.415c-125.25 8.815-219.596 117.565-210.646 242.805s117.801 219.46 243.026 210.38"/><path fill="currentColor" d="M1020.61 1036.53c20.13-1.53 33.44.93 53.15 3.87-.11 11.77-.77 22.77-.71 34.84 15.7 5.48 44.77 20.64 58.99 29.49-2.49 5.54-6.22 11.71-9.38 17-10.14 16.97-19.38 34.52-29.39 51.54-1.9-1.13-3.83-2.22-5.78-3.25-14.3-7.57-55.15-27.45-66.02-6.32-.2 9.31 9.53 12.48 17.18 15.32 30.3 11.28 60.19 26.44 79.69 53.2 27.26 37.41 14.02 91.63-20.7 119.36-6.82 5.42-16.49 10.23-24.09 15.54.49 12.16.53 25.04.77 37.25-17.01 4.22-31.48 4.66-48.8 4.59-15.5-.84-24.76-2.41-39.741-5.42-.675-8.57-.498-19.63-.596-28.4-29.083-10.6-43.827-16.82-70.04-33.97 9.596-19.61 25.562-55.24 35.567-72.43 16.682 9.83 65.04 37.8 81.76 16.7 2.85-3.59-2.82-10.28-6.75-11.88-22.58-9.22-49.714-18.1-69.422-32.85a82.5 82.5 0 0 1-21.53-24.59c-11.681-20.14-14.085-43.81-8.109-66.14 9.145-34.17 30.935-47.22 59.466-63.63-.557-14.61-1.086-28.13-.771-42.73 9.322-4.17 25.146-6.22 35.256-7.09"/><path fill="currentColor" d="M345.341 828.346c15.535-.773 26.428 2.567 38.331 12.8 18.549 15.948 16.486 35.892 16.376 57.743-.06 11.864-.077 23.774-.09 35.616l-.191 133.285.115 336.36.134 121.48c.036 22.22.504 44.26.418 67-.149 39.29 29.7 70.62 68.301 74.8 17.335 1.88 39.527.67 57.475.64h102.586l339.789.31 411.105.02 126.52-.01c21.02.04 42.2-.17 63.21-.03 35.98.24 66.51-18.43 79.15-53.2a70.5 70.5 0 0 0 3.87-16.64c1.27-13.02.65-34.98.65-48.62l-.08-84.75-.01-417.75-.1-114.371c-.06-19.471-.9-41.174.45-60.5 1.84-26.394 23.48-44.042 49.73-44.487a47.33 47.33 0 0 1 34.25 13.622c17.74 17.612 14.38 42.342 14.43 65.23l.08 63.606.01 442.96v125.36c-.01 20.18.07 40.37-.41 60.41-1.91 78.67-64.21 149.44-140.92 164.48-21.92 4.29-43.09 3.63-65.3 3.89l-78.83.57-307.61-.11-464.433-.07q-76.426.165-152.848-.63c-22.501-.1-58.627 1.18-80.09-.83a175.25 175.25 0 0 1-82.273-30.28 174.5 174.5 0 0 1-73.954-111.64c-4.9-26.64-3.295-87.65-3.288-117.02l-.054-197.09-.022-291.7-.152-90.963c-.106-40.784-9.517-90.884 43.675-99.491m1239.249-403.92c26.26-.406 52.12 6.694 74.94 19.622 59.63 33.786 94.12 94.584 92.34 163.117-.9 34.951.78 70.949.03 106.013-.24 10.875.48 22.09-.79 32.884a38.3 38.3 0 0 1-5.07 15.263c-13.94 23.468-42.42 20.001-65.64 19.931l-59.22-.162-260.46.04-617.725.011-240.166.113c-50.833.051-102.389.08-152.586-.141-57.792 1.766-48.572-53.756-48.342-94.013.22-38.265-2.498-83.132 3.572-120.944 3.373-21.015 17.829-51.086 29.786-68.632 4.391-5.789 8.845-11.47 13.754-16.833 28.906-31.572 67.514-54.089 111.026-55.706 13.904-.516 28.677 2.931 39.029 12.79 9.504 9.052 15.112 21.033 15.416 34.162.542 23.48-11.619 42.968-34.444 50.346-7.396 2.391-15.412 3.202-23.006 4.875-14.458 3.186-28.599 11.267-38.696 22.103-6.842 7.342-11.876 15.918-14.569 25.609-5.769 20.761-3.61 82.915-2.868 107.223 26.193.964 55.909.381 82.353.374l152.026-.258 446.85-.038 362.51.113 132.88.184c22 .045 54.1 1.073 75.45-.329l-.04-49.767c.1-16.066 1.18-35.976-1.97-51.429-5.59-27.52-25.55-46.57-52.42-53.556-14.26-3.087-25.56-3.547-38.3-11.869-23.29-15.198-26.6-50.507-10.47-72.023 9.28-12.359 19.96-16.599 34.82-19.073"/><path fill="currentColor" d="M652.648 283.292c65.306-9.119 125.99 41.945 133.475 105.759 2.359 20.112 1.749 49.585 1.287 70.487-1.097 49.649 9.369 103.172-25.402 144.163-21.495 25.34-45.805 41.201-78.763 45.118-66.456 7.058-126.719-36.557-135.892-103.792-2.771-20.309-2.325-47.33-1.836-68.336.671-28.832-2.807-66.301 2.689-93.98a122.7 122.7 0 0 1 21.624-49.277c20.761-27.9 48.428-45.09 82.818-50.142m17.063 268.457c14.388-3.753 19.052-11.045 19.349-25.496.78-38.057-.173-76.189-.034-114.257.07-19.02-3.342-31.641-25.357-30.85-6.731 2.021-13.179 4.699-16.611 11.28-2.159 4.142-2.44 9.324-2.741 13.923-1.122 17.113-1.592 121.3 1.952 131.02 2.143 5.878 6.852 10.049 12.535 12.433 3.585 1.504 7.065 1.855 10.907 1.947m702.209-268.391c29.03-3.859 60.78 6.092 84.02 23.559a124.54 124.54 0 0 1 48.05 82.318c2.52 18.13 1.32 52.983 1.25 72.333-.21 52.471 9.46 95.425-25.49 139.966-20.85 26.576-48.88 43.751-82.5 48.099-29.36 3.612-60.33-5.477-83.63-23.532a123.76 123.76 0 0 1-47.79-83.147c-1.72-14.228-1.33-50.731-.95-66.356.71-29.037-2.68-72.583 3.27-99.326a118.5 118.5 0 0 1 23.28-48.223c20.87-25.997 47.29-41.994 80.49-45.691m19.05 267.694c5.07-2.678 13.26-7.601 14.57-14.294 3.04-15.551 2.01-32.743 2.05-48.663.07-26.874.21-53.802-.14-80.67-.23-17.56-8.49-27.578-26.87-26.306-9.9 3.307-17.1 8.731-17.32 20.247-.81 42.947-1.06 86.423.06 129.347.37 14.111 13.63 23.083 27.65 20.339m-248.02-126.543c22.03-.529 47-4.176 64.24 11.258a52.2 52.2 0 0 1 17.38 36.74c.98 22.64-13.55 46.544-37.07 50.819-12.49 2.27-27.12 1.453-39.96 1.395l-56.34-.285a18202 18202 0 0 0-183.7.115c-22.174.388-49.055 4.025-66.665-11.96-29.219-26.521-18.771-78.443 21.66-86.362 11.146-2.183 25.037-1.378 36.495-1.37l50.602.051c64.448.197 128.908.063 193.358-.401"/></svg>