<svg xmlns="http://www.w3.org/2000/svg" style="display:block" viewBox="0 0 2048 2048"><path fill="currentColor" d="M1102.28 234.477c29.55-1.243 63.8 8.164 92.11 16.615a556.95 556.95 0 0 1 277.42 188.982 503.98 503.98 0 0 1 103.83 373.097c17.66 31.857 39.8 62.896 58.55 94.308 10.32 17.302 23.7 35.508 30.86 54.45 13.42 35.534 3.33 78.291-23.16 105.191-26.3 26.24-51.73 26.92-86.34 26.89-4.64 14.91-9.32 45.29-11.53 60.96 3.6.35 8.89.48 12.58.46 24.44-.16 41.17 19.88 42.18 43.51a46.68 46.68 0 0 1-13.44 34.75c-16.25 16.36-34.17 14.04-55.28 13.94-23.29 114.35-122.56 170.74-234.2 136.8-35.68-10.85-60.89.43-60.35 41.02.14 10.35.22 21.24.37 31.57 9.09 4.34 27.99 17.01 37.23 23.32 82.37 56.06 148.74 128.82 203.33 211.79 19.01 28.9 14.22 62.52-15.16 82.24-18.07 12.12-47.11 11.2-64.31-2.11-15.15-11.71-25.32-32.96-36.33-48.31-8.17-11.82-15.49-21.49-24.45-32.73a565.9 565.9 0 0 0-307.74-195.71c-198.037-44.91-404.616 24.01-536.013 178.83-11.987 14.01-21.943 27.74-32.697 42.75-12.738 17.77-24.169 47.54-43.135 58.59-13.314 7.76-31.415 9.46-46.126 5.11a57.82 57.82 0 0 1-34.592-28.96c-12.036-23.48-5.137-42.9 7.902-63.12 67.086-104.05 156.969-194.93 268.837-250.15 17.852-8.82 35.975-16.64 53.818-25.38 9.741-60.62 34.185-102.88 31.551-168.74-3.625-90.6-56.288-102.98-99.912-166.71-146.208-213.587-94.328-499.424 108.345-657.678a488.3 488.3 0 0 1 282.555-105.085c23.627-50.405 57.827-75.276 113.297-80.49M789.205 1379.38c123.763-18.35 215.235-11.76 333.475 27.41 4.82-38.67 12.97-62.58 40.92-91.52 42.28-40.63 96.57-55.27 153.3-40.89 31.07 7.87 57.42 15.96 83.24-8.2 18.34-16.33 16.74-40.91 21.62-63.06-95.34-7.24-189.65-18.39-258.63-95.56-12.54-14.03-37.36-48.7-46.55-64.96-57.88 25.16-110.1 34.07-171.313 10.2a202.42 202.42 0 0 1-114.368-109.768c-22.389-51.096-22.227-106.037-1.7-157.631a201.7 201.7 0 0 1 108.244-110.022 219.5 219.5 0 0 1 49.189-14.454c-1.621-16.406-.91-38.252-.807-54.92.37-59.615-.641-119.485.183-179.073-2.556.097-7.488.135-9.864.471a372.65 372.65 0 0 0-256.013 131.084 378.63 378.63 0 0 0-90.947 273.352c4.586 60.327 20.292 115.829 52.755 167.86 17.621 28.241 37.772 45.521 59.193 69.741 45.201 51.12 69.497 122.77 68.789 190.77-.433 41.63-12.775 78.83-20.716 119.17m223.975-611.817c-52.116 4.641-90.556 50.727-85.769 102.831s50.981 90.415 103.069 85.481c51.89-4.913 90.01-50.884 85.24-102.782-4.76-51.898-50.63-90.152-102.54-85.53m89.62-422.819c-1.97 2.263-4.52 4.847-4.65 7.795-.48 10.911-.5 22.495-.61 33.377l-.28 79.567q-.39 67.908-.06 135.815c.05 21.332-1.66 51.687.9 72.176 107.84 45.207 156.32 160.185 110.79 268.816-13.45 32.093-30.14 50.289-55.16 73.4 35.31 62.86 73.44 102.91 145.13 122.94 40.33 11.26 87.39 16.24 129.05 18.35 2.88-16.56 6.34-33.31 8.51-49.98 4.85-24.09 8.05-48.84 12.23-73.06 1.38-8.04 3.51-25.72 5.76-32.71 20.37-.17 40.74-.08 61.1.29 10.13.17 20.48.98 30.59.47 2.44-.13 5.92-.07 7.76-1.84 1.97-1.882 3.37-3.896 2.98-6.67-1.31-9.298-64.55-106.489-74.1-121.912-6.07-9.796-14.09-19.98-17.89-30.879-6.52-18.649.61-39.438 2.22-58.406.96-11.309.76-22.995.37-34.336-3.69-106.901-47.99-211.503-126.66-284.798-26.26-24.471-56.6-45.036-87.76-62.737-39.84-22.636-84.42-41.326-129.15-51.648-6.66-1.537-14.23-3.748-21.07-4.02"/></svg>