<svg xmlns="http://www.w3.org/2000/svg" style="display:block" viewBox="0 0 2048 2048"><path fill="currentColor" d="M1040.53 312.316c60.21-7.18 93.4 26.592 134.57 62.509l100.05 88.53q60.975 52.83 121.35 106.37c40.27 35.957 89.89 73.943 97.5 131.496 1.7 12.866 1.08 28.629 1.08 41.738v70.074l.18 240.067.03 430.04-.06 135.37c.03 70.61 8.11 125.1-50.77 177-51.45 45.36-109.73 37.42-172.38 37.48l-176.73.25-264.404-.08-87.615.11c-16.955.03-34.511.53-51.368-.46-49.026-3.37-88.684-29.65-115.742-69.82-23.643-35.11-21.215-64.62-21.121-104.53l.002-72.83-.073-261.23.329-433.9q.222-56.446-.298-112.889c-.104-20.736-.858-46.533.619-66.948a133.64 133.64 0 0 1 24.214-66.583c14.162-19.852 42.596-44.505 60.87-60.77a5223 5223 0 0 1 53.881-48.088c6.414-5.672 13.592-11.621 19.664-17.59 30.988-30.462 63.755-57.945 96.626-86.309 28.991-27.004 70.016-56.535 97.132-84.443-.936 32.965.058 54.843.932 87.605-20.362 20.541-48.684 44.931-70.451 64.42L718.414 606.15c-7.165 6.396-14.468 12.894-21.533 19.198-31.928 28.486-69.484 53.488-69.983 100.938-.215 20.413-.21 41.395-.177 62.114l.002 101.266.137 333.524-.229 321.57.11 90.67c-.031 17.58-.376 35.19.022 52.78.99 43.69 35.42 70.27 77.488 70.3 36.167.02 72.093-.48 108.114-.48 78.862.5 157.725.58 236.585.25l199.18.05c31.88.03 64.1 1.15 95.91.24 14.24-.41 28.74-3.52 41.66-9.75a69.02 69.02 0 0 0 34.83-39.73c5.79-16.67 3.48-81.97 3.45-104.58l-.04-122.04.15-454.98-.03-198.084c.03-34.874.75-70.222-.21-105.024-1.21-43.731-39.05-70.252-68.01-96.398l-103.2-92.17-107.57-96.867c-17.9-16.156-35.74-33.159-54.15-48.708-4.87-4.112-13.31-7.714-19.48-9.627-23.74-7.371-35.22-4.396-56.39 6.369-.34-20.818 4.14-52.028 10.83-71.24 5.92-2.059 8.61-2.445 14.65-3.425"/><path fill="currentColor" d="M1021.05 843.177c41.32-2.843 38.52 33.907 39.01 62.144 6 1.356 12.15 2.545 18.14 4 48.06 11.668 97.86 41.575 119.83 87.45 6 12.509 11.69 30.609 9.56 44.389a33.2 33.2 0 0 1-13.64 22.2 35.9 35.9 0 0 1-27.83 6c-28.01-5.27-26.63-32.95-39.22-51.46-15.73-23.11-40.33-34.869-66.95-40.251-.9 19.706-.14 44.751-.15 65.041-.23 33.61-.22 67.23.04 100.84 73.13 13.61 139.49 53.58 153.61 132.4 6.01 33.52-6.28 74.01-25.95 101.29-20.18 27.98-52.36 49.47-84.74 60.79-12.59 4.33-30.18 7.02-43.55 9.17.44 10.09.61 20.29.96 30.33 1.05 29.7-16.84 48.17-47.7 39.96-29.109-13.79-20.172-43.71-22.012-70.74a249 249 0 0 1-26.779-5.1 179.74 179.74 0 0 1-110.815-83.26c-9.764-16.29-21.452-43.4-16.432-62.75 5.421-19.05 27.524-30.17 46.06-24.3 17.968 5.32 23.089 18.96 27.595 35.37 10.478 38.13 44.498 60.39 80.778 70.41 1.532-16.73.596-45.21.522-63.16l-.39-111.84c-71.239-17.71-132.379-41.74-148.461-122.09a135.9 135.9 0 0 1 21.167-103.24c31.833-46.875 75.124-61.793 127.363-71.835.892-27.305-6.346-54.774 29.984-61.758m39.19 533.543c23.24-5.26 40.07-9.94 58.72-26.18 58.14-60.25 10.62-120.54-58.91-136.06-1.32 51.43-.11 110.45.19 162.24m-119.205-268.53c17.245 11.82 29.588 17.28 49.9 22.22 1.33-33.58-.396-69.55.251-103.5.14-7.34.367-45.729-.445-49.526l-1.174-.318c-16.289 4.982-27.744 8.082-42.205 17.6-38.769 25.514-48.069 84.514-6.327 113.524m87.815-635.779a82.3 82.3 0 0 1 21.98.997c27.6 4.79 54.02 23.259 69.65 46.136a101 101 0 0 1 15.6 76.405c-5.5 29.053-22.84 53.446-47.33 69.724a116.84 116.84 0 0 1-88.03 16.699c-32.495-6.907-56.125-26.16-73.83-53.556-17.449-31.884-21.838-78.162 2.273-107.86 11.893 21.76 19.425 44.319 38.547 62.927 17.364 16.513 30.072 40.047 57.4 39.201 30.58-.947 51.6-24.624 51.05-54.922-.5-27.622-7.76-31.882-26.84-49.329-6.38-5.834-22.11-38.431-20.47-46.422"/><path fill="currentColor" d="M1024.24 216.362c43.35-.93 70.47 35.874 77.51 75.301-21.46-4.186-30.88-6.41-53.09-7.482-4.61-11.838-16.97-34.333-32.16-19.238-22.045 21.912-28.129 63.068-30.594 93.179-4.114 50.261.337 106.826 22.284 152.986 5.89 12.247 15.31 24.133 23.89 34.27 7.61 5.363 11.72 7.315 15.56 16.493 10.45 24.904-19.14 40.078-37.27 24.942-62.109-51.845-74.598-138.811-72.118-214.967 1.871-57.449 16.688-145.561 85.988-155.484"/></svg>