<svg xmlns="http://www.w3.org/2000/svg" style="display:block" viewBox="0 0 2048 2048"><path fill="currentColor" d="M1022.35 235.408c24.21.135 33.01 5.867 49.52 23.211 29.77 31.555 67.53 58.019 104.36 80.075 140.32 84.054 309.21 114.04 466.68 62.987 26.67-8.643 55.48-28.238 82.91-10.081 17.63 11.679 22.37 30.735 26.69 49.972a1319.4 1319.4 0 0 1 32.19 316.054c-5.42 189.096-62.57 386.154-154.87 551.004-118.44 209.43-302.52 376.79-511.3 493.73-17.52 9.82-65.78 38.71-83.06 42.57-5.91.15-18.9.73-24.08-1.82-296.314-145.62-532.757-369.27-656.455-678.59a1136.7 1136.7 0 0 1-74.645-290.714c-15.697-131.147-11.751-260.122 13.047-389.932 9.168-47.99 13.27-122.995 85.873-93.83 200.236 80.435 427.24 23.173 586.263-116.313 19.846-17.408 27.863-35.934 56.877-38.323M388.68 496.194c-57.335 288.554.764 588.086 161.822 834.276a1166.5 1166.5 0 0 0 275.321 286.63c55.689 41.14 117.408 78.88 178.297 112.13 6.18 3.37 17 9.46 23.43 11.88 5.16-2.9 10.33-5.73 15.54-8.54 72.56-39.08 142.05-83.58 207.36-133.88a1104.6 1104.6 0 0 0 390.99-572.27c34.1-121.423 53.59-247.702 43.06-373.803-4.31-51.62-9.72-105.421-20.47-155.963-104.64 34.398-233.51 35.263-340.06 8.596a751 751 0 0 1-153.8-58.457c-56.39-28.503-96.26-56.451-144.25-97.964-128.174 117.693-315.196 184.302-488.451 174.794-43.266-2.374-109.035-11.593-148.789-27.429"/><path fill="currentColor" d="M953.793 651.384c7.328-1.012 17.572-.898 25.151-.911 32.936-.056 65.876.544 98.816.24 10.78-.099 23.01-.253 33.48 2.383a88.2 88.2 0 0 1 40.11 22.844 84.17 84.17 0 0 1 22.27 38.834c4.81 18.574 2.95 53.623 2.84 74.232l-.06 80.666q43.845-.638 87.69-.668c17.37.014 46.66-.764 62.42 3.183a93 93 0 0 1 41.59 23.231c22.3 21.866 25.46 45.489 25.61 75.062l-.05 77.41c-.03 38.18 4.57 72.93-25.13 102.4a83.75 83.75 0 0 1-38.28 21.6c-17.23 4.28-46.22 3.02-64.89 3l-88.42-.3-.27 92.38c-.03 15.34.61 44.33-2 58.4a88 88 0 0 1-14.97 35.54c-14.83 20.48-35.82 31.05-60.45 34.85-13.63.9-31.46.55-45.21.58l-72.395.01c-33.014-.11-56.885-2.12-81.834-27.59a79.37 79.37 0 0 1-20.515-36.58c-4.358-17.11-3.258-48.08-3.217-66.99-.008-30.06.275-60.13.85-90.19-24.476-1.76-55.625.6-80.962-.32-42.1-1.49-79.43 7.21-111.838-26.21-31.053-32.03-24.746-65.04-24.573-105.96l.277-80.592c.186-26.472 6.672-48.507 26.142-67.439a86.44 86.44 0 0 1 38.91-21.744c15.32-3.937 40.343-3.418 56.879-3.593q47.482-.196 94.962.386-.874-43.617-.547-87.242c.008-18.631-.971-50.031 2.852-67.092a80.56 80.56 0 0 1 17.014-34.595c14.744-17.698 35.077-27.066 57.748-29.215M752.534 963.23c-1.051 37.74-.598 77.06-.566 114.9l117.123-.03c21.612-.08 44.199-1.11 65.6 1.33 8.115.92 16.175 7.01 21.858 12.51 19.556 18.92 14.066 53.52 14.137 79.51l-.211 128.21c37.025.24 75.655.82 112.555-.09.69-14.42.03-30.36.05-45.03l.24-82.51c-.16-49.16-8.58-95.42 60.35-93.87 52.16 1.18 106.16-2.1 158.32.44.42-25.59-.56-51.18-.68-76.74-.05-10.252-.84-29.172.38-38.986-40.98.4-81.96.535-122.95.407-50.23-.024-96.33 8.902-95.52-59.813.2-16.881-.03-35.191.01-52.194l-.46-106.236c-36.21-1.454-75.01-.092-111.753-.895l-.313 121.07c-.03 36.621 9.742 95.858-44.536 97.889-49.387 1.848-99.416-1.008-148.886.206-8.208.202-16.53-.205-24.748-.078"/></svg>