<svg xmlns="http://www.w3.org/2000/svg" id="Layer_2" data-name="Layer 2" viewBox="0 0 141 84.7"><defs><style>.cls-1{fill:#172d35}</style></defs><g id="_Ñëîé_1" data-name="Ñëîé 1"><path d="M62 59.2v.2zm77 6.8h.2l.1-.2z" class="cls-1"/><path d="M53.4 77v.3l-.2.1-.1-.5-.1-.3h-.4l-.3-.1h-.4l-.3.2h-.2l-.4.2h-.3l-.4-.1-.3.4-.3.5-.4.4q-.3 0-.4.2c-.1.2.2.7.2.7l.1.1h.7q0 .2.3 0l.3-.2v-.2l.6-.3h.7l.8.1h.3l.1-.1v-.2l.2-.1v-.4h.5l.2-.3q.3 0 .3-.3-.1-.3-.2-.2-.3 0-.1-.2l.3-.2q.2 0 .2.2v.3l.2.2v.2h.5l.1-.2.3.1v-1l-.2-.2q-.1-.2.1-.2l.3-.2v.3l.1.3.3.3v.1h-.4l.2.4h.5q.3 0 .2-.2v-.2l.2.1.1.2.2-.1v-.7l.3.2.4-.5.3-.4v-.6l.3-.2.2-.1h.4l-.1.3-.3.4v.4q-.1.1 0 .1h.4l.2.1.3-.1.3-.2.2-.2.4-.2v.2q0 .2.2.2l.3-.2-.3-.2.2-.1.2-.1.1.3.1.2.2-.3.2-.2v-.3l.4.2.3-.1v-.4l.2.1.1-.1v-.2h.5V74h.5v1l-.3.1v.2h.4l.1-.4q.3 0 .2-.2v-.8l.1-.1v.3q.1.3.2.1V74h.7l.3-.1h.3l.2-.2.2-.2h.2v.3l.1-.4v-.5l.3-.2h.2l-.3.5v.2l.2.3.3-.1V73l.1-.2h.3l.2-.2q.3-.2.1-.2-.3.3-.5.2-.1-.1 0-.2l.3-.2-.1-.1-.2-.1H67l-.1-.1.2-.4.4-.1h.4l.1-.2.4.2q.3-.1.2-.2V71h-.3l-.5.2.2-.3.3-.1.1-.2h.3v-.1l.3.2h.4q.3.2.2 0l-.2-.2V70h.3v-.4q0-.3.2-.1l.4.4h.1s.1-.4.2-.3l.3-.3.2-.1v-.1l.2.2.1-.2.1-.2q-.2-.2 0-.2l.3.2h.2v-.2l.3-.3.3-.2V68l-.2-.1.2-.2v-.2h-.4q-.1.2-.2 0l.4-.3.4-.2.2-.2.3.1.1-.1v-.5h.5l.2.1q.2-.2.1-.3s-.3-.1 0-.1.3-.2.3-.2v-.5l.4.2.1.1h.2V65h.3q-.2 0 0-.2h.3v-.4l.2-.3h.3q.2.2.2 0l.2-.2.2.1.3-.1v-.1l.2-.4.2.3h.1l.2-.2v-.1s-.2-.2 0-.2 0 .2.1 0V63l.2-.3H78l-.4.2.4-.3.4-.3V62l.2-.1v-.4l.4-.2h.4l.2-.3q.2 0 .3-.3t.2-.5l.2-.1-.3-.3-.2-.2h-.1l-.4-.3-.2-.1h-.8l-.2.2V59l-.2-.2.2-.2v-.5l.4-.2-.2-.2h-.1l.5-.2.2-.1h.3l-.2-.5.4-.1.1-.2s-.5-.1-.4-.2h.5l.2-.3v-.4l.1.6.2.2q0-.2.2-.2h.2l.3-.3v-.5h-.6l.3-.2h.6q.3 0 .4-.3l.1-.4.2-.3v-.6h-.3l-.6-.2v-.3l.4.2.3.2.3-.2.2-.2.1-.3.2-.1v-.3s-.3 0 0-.3l.3-.4.3-.4.2-.2h.3l.2-.1-.2-.6.2-.3.2-.3.3-.2h.3v-.1q.4 0 .5-.4l.3-.4.5-.3.2-.3s.1-.4.2-.3v.5h1.2l.2-.1V48q0-.3.3-.5l.4-.4h.5q.1 0 0 0l-.3.2-.3.3H88l-.1.4-.5.7.4.4.3.3h.2l.4.1.2.1h.5l.2.2.2.2q0 .2-.1.1l-.3-.2h-.6l-.3-.2h-.1l-.3-.2-.3.2-.2.2h-.3l-.3.1-.1-.3-.1-.1q-.2 0-.5.3-.3 0-.4.2l-.3.4-.2.2-.2.1h-.3l-.2.3-.2.1v.3l.2.4.1.3v.6h-.2v.9l-.3.3-.2.3-.2.2v.5l-.2.3v.3l-.1.2.1.3.3.2.3.1.3.2v-.3l.4-.2.4-.3.1-.1h.1l-.1.2-.2.2v.6h-.5l-.2.3v.2l-.1-.1h-.2v.2H84v.3l-.2-.2q-.2.2 0 .4v.1l-.2-.1-.1.1q-.2 0-.2.2l.3.3.2.2h.1q.1.3.4.1v-.2h.3s-.2-.1 0-.1h.9l-.2-.3H85h.7v.4q.1 0 0-.2l.3-.1.1-.4.3-.4-.1.3.2.3.2-.5-.2-.2.1-.1v-.5l.3-.2v.6l.3-.7.2-.5v.4l-.2.3v.4l-.2.5q.2.3.2 0l.2-.4v-.2l.2-.2v-.1h.2l-.1-.3V56l.2.2.2-.1v-.4s-.4-.1-.2-.2l.3.1.2.2.1.3.2-.1-.2-.5-.2-.3h.2v-.5q.2 0 .2.2v.3l.1.4c0 .1.4.3.3.1l-.2-.5.2-.4.2-.2v-.7l.2.3v.3s-.3.6-.2.7l.3-.5v.2l.2-.4.1-.3h.1v.3h.4l.2.1h.6l.1-.4.3.2V54l.2-.5v.6l.3-.1.1-.1v.2l-.2.5.4-.2h.3l.2-.5h-.1l-.2.2s-.2 0 0-.2l.2-.2v-.2h-.2l-.2.3v-.5h-.1l-.2.2V53v.2q0-.3-.2-.2l-.3.2.3-.4.2-.2q.2.3.3.2l.1-.4-.2-.1.2-.2v-.2l-.1-.3-.2-.1v-.2l-.3.4v.2h-.3l-.1-.1-.2-.1-.5.4c0-.2.5-.6.5-.6h.3l.2-.2q.4-.3.3-.4l-.2-.4-.3.2-.2.4v-.5H91l-.4.3q-.2 0 0-.1l.3-.4h-.4l.5-.1.3-.2v-.5l.3-.2V49h-.3l-.3.4.2-.3.3-.2q.2-.2.2 0l.1.2h.2v-.3l.3-.5.1-.3.2-.1-.1.2-.2.5-.1.3-.1.3v.1l-.1.2-.1.2v.1l-.1.3.2.2.2-.1.1-.3.3.2.1-.2v-.3q0-.2 0 0l.1.2h.2v-1.4l.2.4v.5h.2v.3l.4-.2V49v.2q.2.2.2 0 0-.4.3-.3v.3q.3 0 .4-.3 0-.3.2-.3v-.1l.1-.2.2-.1h.7l-.2.1h-.5v.4H95v.1l.1.2-.2.1v.2l-.1.3q.2.3.2 0v-.2l.2.1.1.1h.4q.3 0 .3-.3t.2 0l.2.1H96l-.3.4h-.2l-.2.1-.1.1v.3h.4l.4-.5v.3l.2-.2h.2l.2-.2c0 .2-.5.5-.5.5l.1.3.6-.3q.2-.1.2 0h.5l-.4.3-.4.2-.3.3h-.3q-.2.3 0 .3l.6-.1.5-.5.4-.4-.3.5-.2.2s-.4 0-.2.2l.5-.1h.4l.3.3.4.2.3-.4.3-.6c.1 0 .2-.6.3-.3q.2.4 0 .7c0 .2-.2 0-.1.3l.1.5h.4l.3.2.3.1h.8q.3.2.3.4l-.4.2h.9l1.1-.4h.5q.4-.1.5-.4h2.2l.5.1h.4l.4-.4-.2-.3.2-.2.2.3q.1 0 0 .2l.1.4-.2.3.4.2.7.1.8.1 1-.1.3-.4.4-.3.2-.5.2-.3.2-.3v-.2l.3.2.4.4h.7l.2.2h-.5l-.3.2v.4l.2.4.1.3h-.2v-.5l-.3-.5v-.4l-.3-.2-.3-.2v.7q0 .2.2.3l.2.3v.3l-.1.3-.3.2s-.5 0-.3.1l.5.3.6.2 1.4.4.7.4h.7q.3.3.5.2l.5.2.3.5v.2l.3.2.5.3.3.2.4.2.4.3.5.2h.7q0 .3.3.3h.3v.2l.2.1V57l.3.2.1-.3.2-.1s-.2.2.1.1l.4-.2V56l-.3-.2h-.2s.1 0 0-.2l-.1-.4h-.2l-.2.1-.3.3.2-.4-.2-.2s-.5 0-.3-.1q.2-.2 0-.3h-.8l-.5.3h-.2c.1-.1.6-.6.5-.7l-.4-.2v-.2l.4.4.6.1-.2-.5.4.4s0-.4.1-.3v.5l.3.2.5.1q.3-.1.2-.5t-.2-.5s-.2-.5 0-.4q0 .3.3.5v.3l.1.2.4.7.4.4v.7l.6-.2h.5l-.1-.5.4.8q.2.4.5.4h.4V56l-.6-.9-.2-.4-.5-.8-.2-.3-.3-.4v-.6l-.4-.1c0-.1-.4-.2-.3-.3l.2-.3-.3-.1.2-1s.1.9.3 1.1l.6.7.3.7.3.5.3.3v-.4l.2.5.2.5.4.4.2.3h.3l.4.1q.1 0 0 .2-.3 0-.3.2l.4.2h.7l.2-.4v-.6l.1-.2q.3.2.2.4c0 .2-.3 0 0 .4l.2.6.3.3h.2v-.8l.3.3v.2l.2.2v.3l-.2-.1s-.2 0 0 .2q0 .2.2.3t.3 0v-.3q0-.3.3-.2h.8l-.8.2-.2.2.1.2.4.2.3.2.4.1.3.3h.3v.2l-.4-.1-.6-.2q-.5 0-.5-.2h-.2v.4l.3.2.3-.2v.7h.2v.3h1l-.6.4h-.3v.3q0 .2.2.3h.4l.2-.1.1-.2v.3q.2.1.4 0h.4l.1-.1h.2v.6l.2.2.4.2h.5q.1-.4.2-.3v1h.2s.3-.4.3-.2l.1.5.4.1.4.3.4.2.2.3h.5l.4-.1.3-.2-.5.5q-.3.1-.4.4v1.3l.1.2q-.1.3-.2.2v.4l.2.4.4.2.2.1V66l.2-.4-.3-.3h.2v-.4l-.4-.1.3-.2.3-.5q.1-.2.4-.3l.3-.1.4-.6s-.2.5 0 .6l.6.4q.5.3.5.5l.1.4.2.1.2-.1v1l.2.2.2-.1.3-.3-.2.2-.2.3q-.2 0-.3.2l-.1.4v.3l.3.2.3-.4.2.1v-.3l.2-.2v-.2l.2-.4-.3 1.1-.3.1v.2q-.2 0-.2.2v.2l.2.3.3.4.2.2.2-.1v-.2l.1.1h.2l.2-.2q.2 0 .3-.2l.2-1.2v-.6l.2-.8-.4-.4q0-.3-.3-.5l-.3-.5-.2-.4v-.3l.1-.7-.5-.7h-.1l-.5.1-.4-.2-.3-.2h-.5l-.4-.3h-.7l-.8-.1-.7-.2-.5.2-.3-.3-.2-.3q.2-.1-.1-.3h-.7l-.1-.8-.8-.1v-.7l-.5-.6-.8-.5-.5-.5q-.3-.5-.7-.7l-.6-.7-.7-.7-.7-.6q.2 0 0-.3l-1-.6-.5-.4-.7-.2-.6-.3-.2-.4-.2-.3-.3-.1-.4-.2v-.2l-.8-.1q-.3-.2-.4-.6 0-.6-.2-.7l-.5-.2v-.1l-.7-.4c-.1 0-.8.8-1 .8l-.6.5.2.5v.3l-.4.1.1.6v.8q-.4.1-.7.5l-.6.5-.2.4-.3.4-.2-.1q0-.6-.5-1l-.7-.8-1.2-.7-1.1-.8c-.2-.1 0-.2-.3-.3q-.1-.2-.4-.3-.5 0-.6-.3l-.3-.3V49l-1.3.3c-.1.1-.3.9-.5.9l-1.3-.3q.2.3-.1.5c-.3.2-1 0-1-.2-.2-.2-1.7-8.3-1.7-8.3l-1.7-9.1-1-5.3-1.5-7.6-1.5-7.8-1.2-6h-.2s0-.2-.1 0q0 .2-.2.2l-.2-.3q-.3-.4-.7-.3h-.2l-.2-.1h-.3l-.2-.3q-.1-.2-.5-.3l-.5-.3h-1.3L95 5l-.2.1h-.2l-.4.2-.3.2-.2.2-.4.1-.2.1-.4-.2-.3-.2-.4-.2-.4-.3-.2.2s-.6-.2-.7-.1l-.4.1h-.4l-.4.2q0-.2-.3-.2h-.4q-.3-.1-.4-.4H88l-.2-.2q-.1.3-.2.2h-.3v-.3l-.6-.1-.3-.1L86 4h-1l-.4.5h-.3l-.6.4.4-.6q.2-.1 0-.2l-.5.1-.3.1-.3.1v.3l-.4-.2h-.8q.2 0 .3-.4l-.1-.3-.5.1h-.8l.3.1h.3l-.3-.2q-.2-.2 0-.3.2-.2 0-.3l.2-.2s.2-.1 0-.2l-.4-.1h-.3.1V3l-.2-.4v.2l-.3-.2-.2-.1h-.5l-.2.1h-.6v.3l-.4.2h-.1l-.2-.2h-.3l-.2-.4v-.7l-.2-.2q-.1-.2-.2 0v.2l-.4-.2-.1.2.1.2h-.3l-.2.3v.3l-.1.2h-.3l-.3.1v.3-.6l-.2-.2h-.1l.3-.2h.1l.2-.2.3-.3v-.3l-.1-.2-.4-.2-.2.1-.1-.2-.2-.1h-.2l-.2-.2.1-.4-.2.2-.4.4q-.3.1-.4.5t-.4.6l-.7.6-.6.2h-.3l-.4-.2.3.2v.1h-.7l-.4-.2.2.2h-.1l-.2.1h-.2l-.2-.2.3-.1v-.2l.6-.2-.9.3-.4.2-.3.2q-.2.4-.4.4l-.1.2.2-.1s.2-.1.2 0v.4q0 .2.2.2h.7-.2v.2h-.7l-.1.3v1.1V5l-.1-.3v-.2l-.3.2.2-.3v-.2L69 4h-.4l.3-.2h.2v-.2h-.2l-.2-.1-.3.3-.4.2-.2.2-.4.4H67l-.4.2h-.5q-.1.3-.4.4c-.3.1 0-.2 0-.2l.1-.1q-.2-.2 0-.2h.2l-.2-.2-.1-.1-.3.5-.2.1v.2H65v.2h-.2v.2h-.2V6q-.1.2-.3.2l-.2.2-.2.2-.3.2.1.2-.1.2v.3h-.2v.4l-.1.2v.3q0 .3-.2.4h-.2l-.6.8-.1.2-.3.1-.2.1-.2.2h-.4l-.2.2h-2.3l-.3-.1-.6-.2s0-.3 0 0v.5l-.3.4v.4l-.2.2v.3l-.2.2h-.3l-.2.2h-.4l.4.2.8.7.1.3.1.2.2.1h.2q0 .3.3.3l.2.2.2.2v.1l.3.3.3.5.2.3v-.3l.2.3.1.4.2.2q.2 0 .4.3l.2.5v.3l.1.3v1.4c0 .2.6.3.7.3l.4.2.4.3h.2q-.2-.1-.1-.2h.2l.1.1.2.2h1.5l.2.1.2.2v.2h-.4l-.1.2v.3s-.2-.1-.2 0v.5l.2.4q0 .2.2.2l.1.3h.4q.2 0 .2-.2l.1-.1h.4l.3-.1.2.2.2.2.1-.1.2-.1h.2v1.1h-.5l-.1.2h-.3l-.2-.1v-.1l-.2-.2-.1-.2-.2-.2-.1-.2-.3.2-.2.1h-.3l-.3-.3-.3-.4-.2-.3v-.3l.1-.3-.1-.1-.1-.3-.1-.2-.1-.3H63l-.4.2.1.3v.4h.1l.4.3.2.1v.3l.3.6v1.2-.5l.3-.1h.5l.3.2.3.2.1.2.1.2v.3l-.1.2-.1.2h-.2l.1-.2.1-.2v-.3l-.2.1-.2-.1-.1-.2-.3.1-.2.3v.2l-.2.1-.2.2v.3l-.1.2v-.2l-.2-.2-.1-.2H63l-.4.1h-.1l-.2-.1H62v-.2h-1.2l-.2-.2h-.2l-.2.1-.3-.3v-.3l-.1-.1h-.2l-.2-.1h.3v-.1l.3-.1v-.8l.2-.2.1-.3v-.3l.3.2-.3-.2h-.8l-.4-.1h-.4l-.1.1-.2.2-.2.1-.2.2-.1.1-.1-.2H57l-.4.3-.3.1-.2.2.1.2.3.2.1.2-.4.1-.3-.1h-.3l-.2-.2v-.2l-.6.2q-.3 0-.4.2l-.2.1v.1H54v.3l-.1.1-.3.2-.3-.2-.5.1v.2h-.3q.3 0 .2.3h-.6l-.2.2h-.3l.2-.3h-.2l-.1.2v.4q-.2 0 0 0l.3.3.2.2.3.2v.2l.3.2.8.2.3.3.2.1h.3l.2.2v.2l-.2.2v.3l-.4.2-.5-.2.2-.5v-.3l-.2.2-.1.4.1.4.2.2v.4l.3.3.2.2v.4h-.2v.8l.2.3.3.2.3.1.5.2.4.2q.3 0 .4.3l.5.2h.3v-.2l.2-.1h.2v.1l-.2.2.4-.2.3-.1.3-.1h.4l.2.2h.9l.2.3.2.2.1.3v.1h.2l.1-.2.1-.1v-.2H60l-.2-.2-.1-.2.1-.2h.3v.2h.1l.1.2v.2h.1l.2.2v.8l.2-.1v-.1q.3 0 .2-.2v-.1l.1-.2v-.2l.2-.1h.2l.1-.2h.2l.1-.2.2-.2h.5l.2-.3h.9q0-.2.2-.3l.1-.1.2-.3.1.1v.2l.1.2.2.2v.3l.2.2v.5l-.2.1-.2.1h-.2v.3H64l-.3-.1-.2-.2-.2.2v.2l-.1.1v.2-.1h.5v.2l.2.2v.3l.2.1.1.2v1.2l.2.6v.5l-.2.2-.2.3-.1.1h-.1v.2l-.2.1v.2h-.3v.1h-.2l-.3.1v-.1l-.2.1-.2-.1h-.3l-.2.1h-.5l.3-.4h-.2v-.1h-.1l-.2-.1h-.1v.2l-.2.2-.2.2-.2.4-.2.3-.3.2h-.2l-.2.2h-.2l-.2.3h-.6v-.2q-.3 0-.2-.2H58v-.4l-.3-.1-.2-.2h-1.1l-.3.2v.3l-.2.1q0 .2-.2.2l-.1.3-.2.4-.1.2.2.2-.3-.1v.5H55l.2.4-.1.2v.1l.1.1v.2l.2.2h.2s.1.3 0 .2l-.5-.3-.2-.2v-.2h-.2q-.3 0-.3.2l-.2.2-.2.2-.2.2-.3.2q0 .2-.2.3 0 .2-.2.2l-.1.2v.1l-.3.1v.7l.1.2.1.2H52l.2.4.1.2h.3v.1l-.2.1h-.6V44l-.2.6.2.5q0 .2 0 0t.2-.2h.3l.2.2v.3l-.2.1q-.2-.2-.2 0v.5l.3.1.2.1v1.1h.2l.1.1h.2v-.5l.1-.1v-.1.2l.2.2.2-.2.1.1v.2l-.2.1.1.1.2.2v-.2h.5l-.1.2H54v.2h-.5l-.1.3.2.2h.5v.3h-.2l-.1-.1.2.2-.3-.2-.1.3h.2l-.2.2q0-.1 0 0v.4s-.1-.2-.3 0l-.1.1-.2.2-.2.2h-.3l.1.3h.6l.3-.1v.2l-.2.2H53l.2.4.2.3.2.1.3.2.2-.4h.2v-.4l.3-.4v-.1l.3-.3.3-.1v-.5l-.3-.2h-.2l-.3-.2v-.1l.2-.4v.2q-.2.2 0 .2h.5l.3.1h.2l.3.1.3.1h.2l.3.2.2.1.2.2v.3l-.2.3-.4.2H56v-.5l.1-.2v-.1l-.1-.1h-.4l-.2.3v.2H55l-.2.1-.3.3v.1l-.3.2v.3l-.2.3q-.3 0-.2.2l.1.3.1.4.2.4.3.3q.2 0 .3.2v.1s-.4-.1-.3.2q0 .4.3.6l1 .2h.6l.7-.1.4-.1.3-.2.3-.2.2.1q.2 0 .3-.2V53l.2-.3-.2-.2-.2-.1h.2V52l.2-.2v-.1h.2v-.2l.1-.2.3-.3v-.1l.1-.2.3-.1-.2.6-.2.3-.2.2q0 .2-.2.3l-.2.2.2.1.1.3v.2l.1.2v-.3l.3-.2-.1.2v.2l-.1.5v.3l.2.5.2.6.1.5.2.4v.6l-.1.2-.2.1h-.1v.6h-.2v.4l.2.5h.4l.2-.2q.3 0 .1.2t-.4.3l-.2-.1v1.3q0 .2-.2.2v.3h-.8l.3.2h.6v.3h.3s-.1 0 0 0l.3-.2.2-.1.4-.1-.1-.3.4-.2.3-.1.4-.2q.3-.2.2 0l.2-.2.5-.2.4-.3h.2l.2.2-.2.3h.2v.2h.1v.2h.4l.1.3.1.2.3-.1v-.2q0-.2.2-.2v-.2h.3l-.1.4h.2l.3.5.4.7.3.8q0 .3.2.2h.4q.3 0 .2-.2.1 0 0-.2v-.3l-.1-.2-.1-.4v-.3.1l.3-.1-.1-.2.1-.3h.1l.4-.5.2-.3v-.3l.3.3h.4l.3.3.1.3v.2l-.1-.2-.2-.3-.3-.1q-.1-.3-.4-.1v.2q-.2 0-.2.2v.4l-.1.1q-.1.1.1.2t.4.5q0 .2.2.3h.5l.8-.4.4-.1.4-.3h.2q.5 0 .5-.2l.1-.3.2-.2.2-.2V59v.4l-.1.4h-.1v.3l-.1.3-.1.2v.2h.3l-.6.2-.2.2q-.2 0-.3.2t-.3.5l-.2.5v.5l.2.3h.2l.2.1h-.2l-.2.1h-.3l-.2.9-.2.9-.1.7v.1l.2.1v.6l-.2-.2q.1-.1 0-.2l-.4.2-.2.2-.2.2-.3.2-.4.3-.2.2-.4.4-.4.6-.2.4v.4l.1.3v.3l-.2-.2-.2.1-.4-.3.2-.2-.3.3-.6.3-.1.1-.2.2-.3.1h-.3c-.1.2-.6.4-.7.4l-.4.3-.3.3-.4.1-.4.4-.3.5-.1.3-.2.4q-.1.3-.2.2h.2l-.1.3h.2l.3.3.3.2h-.2v.3l-.3-.2h-.2v-.3l-.7-.2v.5l.2.2q0 .2-.1.1l-.2-.1h-.1l-.2-.4v-.3q0-.3 0 0c-.1 0-.5 0-.3-.1l.4-.2q.1-.1 0-.2l-.3.1h-.6q-.2-.1 0-.2l.3-.1-.6.2H59l-.6.1c-.3.1 0-.2-.4.1l-.6.5-.3.1-.4.4-.2.2-.3.2-.2.3-.3.2h.1s.2-.2.2 0v.2l-.1.2h-.4l-.3.2-.2.1v.3h-.6l.4-.5-.5.4-.3.1-.4.3v.2l-.1.5Zm-.3-30.6v.1M93 48.3v.1M59.4 57v-.1M41.7 32.6v.2q-.1.3 0 .4 0 .2.2.3l.3.2h.3l.2-.2h.5l.9.5.3.5.1.5.4.1.4.4v.9h.3l.1-.3.2-.3c.2-.3.3 0 .3 0l.2-.2h.7q.3.3.4.1l.4-.5-.4-.3-.7-.2-.5-.2-.2-.2-.2-.3-.6-.3V33l-.2-.3-.2-.2h-.7l-.5.2-.3.1-.7-.6-.4-.4v-.4h-.1v.2l-.1.2v.2h-.2v.1zm-6.3 12.3v.4l.1-.2zm.3.5h-.3v.5l.3.6.3.4.3.1h.3l.2.3.1-.2-.4-.5q-.1.1-.4 0l-.1-.3-.4-.5v-.3z" class="cls-1"/><path d="M48.5 50.5h-.2l-.3-.1h-.5l.1.4v.3l.4.3.1.2q.3.1.5.4t.4.3l.2.2.5.3.2.3h.3v-.3l.4-.1h.5l.4-.2v-.2h-.2v-.6h.1v-.3l.1-.2v-.6l-.4-.2h-.3l-.2-.2V50h-.3q-.1.2-.3.1l-.3-.2-.2.3h-.3l-.4.1.1.2zm12.3-14.1q.3.2.2 0l.2-.3-.2-.2-.1.1h-.3q-.1-.1-.2 0 0 .3.2.4zm.4 24v.3h.5l.2-.4.2-.4.2-.4-.4.2h-.3l-.2.3-.4-.1zm1.8-.6-.2.3v.2l.1-.2zm.3.6v-.3l-.2.2v.1q.2.2.2 0M48 80.5l.4.1.2-.1v-.2h-.8zm-.3 0q0-.2-.2-.2h-.4l.2.2.3.1zm-.7-.1h-.3q.1.3.3.2zm-.3-.4s-.1 0 0 0h.3l.2-.2h.2q.1-.1 0-.2H47l.1-.3h.1-.5v.2q0-.1.1 0l-.1.1v.3m-.4-.3-.2.1v-.3h-.3l-.2.2-.2.1v.4h.4l.1.2.1-.2.3.2.3-.2V80h-.3zm-1 .9-.2-.1H45l.2.2zm-4.1 1.8H41l-.1.2h-.5l-.4.2v.1l.3.3h.2l.2-.1h.2l.3-.2.2.1.1-.2h.4l.1-.1.2-.2.2.1h.2l.2.1s0-.1 0 0h.3V82s0 .4.2.4v-.3h.4v-.2l.3-.2h.5v-.2h.3v-.2h.2l.2-.2v-.2l-.3.3h-.1l-.2.1v.1l-.2-.2-.1.2-.1-.1-.2.1-.2-.1.4-.2.2-.2.2-.1h.2v-.3l-.1-.2-.2.1s.3-.2.1-.2l-.2.2-.1.1-.3.2-.2.1v-.4l.1-.2V80l-.1-.1h-.2l-.3.1h-.6l-.1.2-.1.1-.1.1v.2l.2.3v.1h.3l.4.2h.1-.2v.3h-.3l-.1-.3h-.3q-.2 0 0 0v.3H42v.2l.2.4-.2-.1-.1.2h-.4v.2zm-5 1.7-.2.1h1v-.3h.5l.4-.3.2-.1.4-.4c.2-.1 0-.2.3-.2l.4-.2.8-.2v-.3l.2-.2v-.2H40l-.2-.2-.2-.1h-.3l-.5.1-.3.3v.1l-.2.3.1.1v.2h-.5l-.1-.2-.1.2-.4.2-.3.2.1.3-.2.2h-.2v.3h-.2v.2zm-1.7-1v-.2l-.2.2v.2zm-.2-.5h.1v.2h-.1zm-.8.9V83h-.2v.2h.2m-.5.8.2-.1-.1-.2-.2-.1v.4m.8-.3h.5l.1-.1q0-.2-.2-.2zv-.2h-.3v.3zm-2.3.4.3-.1v-.2s-.1-.3-.2-.2h-.2q0 .2-.2.2H31l-.1.4h.4Zm-1.6.2-.1-.3-.2.3v.1zm.3-.3v-.2l-.2.1zm-4.1.3h.2l.4-.2V84h-.1l-.2-.2h-.5l-.2.2q-.1.2 0 .2h.3Zm-4.2-.7h-.3l.2.3v.1l.3.1.4.1h.2l.1.2.2.1h.8l.4.2h.3-.1l-.2-.2h-.3l-.2-.2h-.3l-.3-.1-.1-.2-.1-.1h-.4l-.2-.1-.1.1v-.1h-.2s.1-.1 0-.1ZM18 83l-.2-.1.6.2.4.2h.3l.2.1.1.1.2-.2.1.1h.2l.1.2.1-.3.1.2v.3l.3-.4h.2l.2.1h.1l.3.1v-.3l-.1-.3h.5q.2-.1.2-.3l-.2-.4-.2-.2H21v.2h-.4l.2.2.2.2v.2h-.3l-.2-.1v.3l-.2-.1-.1-.1v.2h-.5l-.2-.1h-.4l-.1-.2-.1.2-.2-.1zm-2.6-.5h.3v-.4l.1-.1v-.3l-.3-.1-.2.1-.1.3.3.2zm1 .1H16s0 .2.1.1zm.1.5-.1-.3h-.2v.2z" class="cls-1"/><path d="M17 82.8h-.5s-.2.1 0 .1zm-1.1.2-.2-.3h-.2v.1l.2.2zm-.9-.1.2.2q.1.2.2 0v-.3zm-.5.3h.3V83l.1-.3h-.4zm-1.6-.4v.3l.4-.4-.1.4.1.1h.2l.1-.3.2.2.2-.1h.4v-.6h-.1l-.2-.1.2-.3v-.3h-.7v.8l-.2-.1-.1-.3-.1.3v.1zm-1.3-.9h-.4l-.1-.2H11l-.2.1v.2h.5l.6.3h.5l.1-.3h.3v-.2q.2 0 0-.2l-.2-.1-.2.3v.2c-.2.1-.8 0-.8 0m.3-.8-.2.2h.2zm-2.1.4h-.2q.2 0 .3.2v.4l.3-.4h.3v-.1l.2-.3h.4q.1 0 0 0l-.3-.2h-.2l-.2-.2q.2-.1 0-.3h-.3l-.3-.2-.2.2.2.3.1.1.3.2v.3zm-1.7-1.4v.3l.1.1zm-.4 1.2-.1-.2-.2.1.2.3zm-1.5 1-.2.2.1.1zm.8-.1V82h-.3v.2q.1.3.2 0m1.3-.8H8l.2.2q.1-.1 0-.2m-4-3.8h-.5v.2l-.1.1v.2l.3.1h.4V78h.2l-.2-.2zm-3 .7L.8 78v.2l.2.4.3.1q0 .3.3.4l.1.6.2.3v.2h.6l-.1-.3H2v-.3l-.3-.3v-.5l-.3-.1v-.2zm.1-1.7-.2-.1H.9l.1.4.2-.1zm-1 .7V77l-.1-.3H0l.2.3zm54-2.1v-.3h-.2v.1zM49 80.1v-.2h-.2l-.2.2.1.2zm4.8-1.5h.2v-.2h-.1V78l-.2-.1h-.4v.3l.2.1h.3zm1.5 1.7h.4l-.2-.3h-.2l-.2-.2-.4-.3h-.2v.3l.2.3h.6zm.9-2.4q.2 0 .2-.3l-.1-.2h-.4l-.1.2.1.3.1.2zm1.4-1.1v-.2l-.2.1v.1zm.7-.3v-.2H58q-.2 0 0 .2.1.2.1 0zm.5 0h-.2l.1.2q0 .2.1.1zm-1.1.5.3-.2v-.2h-.3v.1zm2.7-.1.1-.2q0-.2.1 0v.2h.3l.1.1.2-.3-.2-.1v-.3l-.1-.1v-.1l-.2.1v-.4h-.3l-.2.4v.8zm.7-1h-.2v.2h.2zm.7 0h.3v-.2H62v-.1h-.2zm-.7.5h.3l.2.3v-.5H61zm1.3-.1h-.2l.1.1.1.1zm-4.3 1h.2L58 77v.3m4.9-.4v-.3h-.1l-.2.1v.2zm-.9.9v.2l-.2.2h-.1v.4l.1-.2.1-.3h.1l.1-.1.2-.2.1-.2h.2v-.3l.1.2.1-.2v-.2.2q-.2 0-.1-.2V77h-.1v.2l-.2-.2v.3h-.1s-.2-.3-.2-.1l.1.2v.1l-.3-.2.1.2v.1zm.9-.1h.2l-.1-.2h-.1l-.2.2.1.3zm.6.1s-.1-.1 0 0h.2v-1l-.1.2v.2h-.2v.2h-.1v.4zm-.5 1h-.3l.1.1h.3zm.3.4h.3V79h-.1l-.1-.2zm.7-1.4h-.3q-.2.1 0 .2v.3h.3zm.1 1 .2-.2q.2-.1 0-.1l-.2-.1zm0-4.2.3-.1v-.2l-.1-.2v.3zm.8-.6.1.2zm.7.1h.3q0 .2-.1 0l-.2-.2-.1.1-.1.4v-.2zm2.8-2-.1-.3-.2.1.1.2h.1Zm1.7-.9h.3l-.2-.2H70l-.2.2zm1 1.6v.3zm.2 1v-.5s-.3.1-.2.2zm2.7.4-.1.3-.1.1v.3h.2l.1-.1v-.5Zm3.2-2.9v-.2H77l-.3.1-.2.2-.1.2v.3h.1l.3-.3.2-.1v-.4h.2zm.6.2.1-.2.1-.1v-.3l-.3.1h-.3v.5zm.5 0 .2-.2v-.1h-.3l-.2.2zm-.1-.9-.1-.2-.1.1v.2zm1.8-7-.1.4h.4l.3.3h.6l.3-.1v-.3h.2l.2-.6v.4l.3-.2.3.1q.2 0 .1-.2V63q.2 0 .2.2v.1h.2q0 .2.2 0 .2 0 0-.1.2 0 .2-.2v-.5l-.1.2-.2.1v.2-.6q0-.1 0 0h-.5v-.2l-.2.1v.4l-.1-.3H82v-.3l.1-.3.2-.2v-.5l-.2.2v-.1l-.2.2-.1-.1v.2h-.2v.2l.2.2h-.2v.3l-.2-.2-.1.2h-.1v.2l.2.1h-.2l.2.4-.2-.2-.3-.1v.1l.2.2-.4-.1-.1.1s-.2 0 0 0c0 .2.4.5.4.5l-.3-.1h-.5l.1.3.2.1h.2v.1l.1.2-.4-.1zm3.7-.6q-.1-.1-.2 0v.3s0 .2 0 0zm-1.3-3.4v.2l.2-.1zm-6.1 7.8v.2l.1.2h.3l.2.4v.9l.2.2.3.2.1.3.1-.1v-.3h.2v-.2l.2-.3v.3h.1l.2-.5.3-.2.2-.2v.1l-.2.3-.2.2v.3q0 .1 0 0c.1 0 .2-.4.2-.2v.3l-.1.2-.3.2-.2.2-.1.4h.4l.3-.1V70l.1-.1h.2l.1-.2q-.2.1-.2 0l.2-.2v-.1h.3v-.5H79v-.2h.5v-.4.1q0 .2.2.1v-.1q.2 0 .1-.2h.2v.2l-.2.2v.2l.1.1v.2h.3v-.3l.2-.1.2-.1.2-.1.3-.1v-.1H81q-.1.1-.2 0v-.1l-.3.2v-.2q-.1 0 0-.1h.3l.3-.2q0-.2-.2-.2h-.3v-.2h.6l.1.2q0 .2.1 0l.2-.1q0 .2 0 0l.3-.2V67h-.3v-.2H81l.2-.2h.4l.1.1h.2l.3.1v.1h.5v-.5l.4-.3V66h-.5l-.3.2V66l.1-.2-.3.2.1-.4h-.1l.2-.4.2.1s.4.2.3 0q0-.2-.2-.3h-.3l.2-.2v-.2h-.2v-.2l-.2.2-.2.2v.2q0-.2-.3-.2v.3l-.2-.1v.3l-.2.2v-.3l.2-.3v-.3h.1v-.2h-.2v.2h-.5l-.6-.2v.1l.3.2.2.2h-.3q0 .1-.2 0-.1-.5-.4-.5-.2 0-.2.2l.4.4.2.2-.4-.2.2.4.1.3-.1-.2-.2-.2-.1.3c0 .1.1.6 0 .4q-.2-.2-.1-.6 0-.3-.3-.4 0-.2-.2-.1-.2 0-.3.2l-.2.2v.4l.3.1q.4 0 .5.2l.1.3-.2-.2-.3-.1h-.3l.3.5.2.1H79l-.1-.1v.4l.2.6.3.2-.5-.3-.1-.4v-.3l-.2-.1h-.3q.3 0 .3-.2l-.1-.4h-.9v.1l-.2.2h-.2v.2l-.2.1-.1.2-.2.3v.3z" class="cls-1"/><path d="M79.6 69.5h-.2v.2zm4-11-.1.2h.2zm.4.4v-.2h-.1zm.5-.1v-.1Zm-4.6-.9v-.5l-.3.2v.3zm3.1-5.3v.2l-.2.1.2-.1.1-.1v-.2l.2-.2v-.1l-.1-.1-.1.2v.3M87 49v-.3q0-.2 0 0l-.2.2zm6.8 3.4-.2.1-.1.2v.1l.2-.2zm-1.1 2.3v.2l.1.2.4-.2.2-.2.1-.1h.2V54l.2-.1q0-.4.3-.8l.4-.4.2-.4-.2.1-.2.1.2-.4h-.3V52l-.1.2v.5l-.3.2v.2l-.1.3-.3.3-.2.1-.2.2v.4h-.2l.1.2-.2.2m-.3-1.8.2-.2q.2 0 .1.2v.1l.2-.2V52l-.1.1.3-.3-.1-.2v-.5l-.2.3v.3l-.1.1v-.1l-.2.2.1.2v.2l-.2.2zm.9-2.1.2-.1.2-.2-.3-.1v-.3l-.2.1v.4zm-1.1-.1.1-.1v-.2l-.2-.1zm1.8-1.2v-.2h-.3q-.2.2 0 .2zm2.1 1.7-.2.1h-.2l-.2-.1-.1.3v.3l.1.2.1-.2h.3l-.3.3-.2.2.2.2.3-.5.4-.2h.2v-.2q.2-.1 0-.2h-.1l-.3.1zm2.9 0-.3.3v.2h.1zm2.2 1.6-.4.5-.2.3v.4l.3-.6q.1-.4.3-.5zm21.6-.2-.2-.5-.3-.2.2.4zm.2.3h-.2l.2.4zm4.1 4.3.3.3.3.4.4.3.2.2-.2-.4-.2-.3-.4-.5-.2-.2-.2-.3-.2-.2-.2-.3-.1-.2h-.2l-.3.1h-.3l-.3.1q-.2 0-.3-.2l-.4-.4-.4-.2.2.4.2.5.4.4.1.2.5.8.1.7.3.4.4.3.3-.1-.2.2v.3l.2.2v.7l-.1.2v.1l.1.2c0 .1.2.7.3.6l.3-.4V61h.2v-.3h.2v-.8h.4l.2-.4-.2-.3-.2.1-.1-.1h-.3l.4-.2h.2l-.3-.4-.1-.2-.4-.1v-.2l-.3-.3-.2-.3h-.2l-.2-.4-.2-.1q.3 0 .2-.1v-.2q-.2-.2 0-.1zm-4.1-1 .2-.1-.2-.1h-.2v.2zm-.9.6v-.3l-.2.2v.2zm-.6.1-.2.1v.2zm-.1.6v.2l-.2.3v.6l.3.3.3.2q.3 0 .3.2h.1v.2l.3.3h.2l.2.2.4.2h-.2l.2.2.3.2.2.2h.3l.1.2h-.2s-.4-.1-.2.1l.2.5.1.2h.2l-.1.3v.4h.2q.2 0 .3-.2v-.6l-.2-.2v-.2q0 .2.2.3h.2l.2.2h.2l.2.3v.1q-.2 0-.1.2l.2.3-.2.1v.3h.5q.1-.2.2-.1v.7l.4-.6-.2.6.2.2.2-.2h.1v.1q-.2 0-.1.2l.3.4.2.3.2.3h.1l.2.3h.2l.2.2v-.7h-.2v-.3l-.1-.4-.2-.3v-.5l-.2-.6-.2-.2-.2-.5-.3-.4-.1-.2v-.3l-.2-.2-.1-.2h-.3l-.1-.3.3-.2-.1-.2h-.9l-.2-.1-.4.3.2-.5h-.3l-.2.3-.2-.2v-.3h-.3l-.2-.1-.3-.4 1.2.5.7.2q0 .2.3.1l.5-.2-.3-.6-.1-.3-.2-.3-.4.1-.1.2h-.4q-.2.1-.2 0l-.1-.2-.4-.1-.3-.2-.5-.1 1 .1.5.3.4-.1.3-.2-.4-.2-.3-.3q.5.3.6 0v-.4l-.5-.2h-.8l-.2.3-.1.2v.3h-.2l-.3-.1h.4V57l-.2-.1h-.4l-.2-.2-.2.3-.1.3-.4-.1v.2l.2.4-.2-.1-.3-.4h-.1zh-.2Zm6.5 4.6.1.5.2.4.3.1v.3h.2l.3.2.1-.2v.2l.2.3h.1-.6l.1.3v.3h.2v.7h.2v.3l.2.2.1.1v-.5l-.1-.1V65s-.2-.7 0-.5l.2.6q.2.6.3.4v-.7l-.1-.3h-.3v-.3l.3.2v-.3l-.2-.1v-.3l-.2-.2.1-.3V63h.4l.1.3.4.2.3-.3h.4l.3-.1v-.5h.8l.1-.3q.2 0 .3-.2V62l-.2-.2h-.3l-.2-.3h-.2l-.3-.1-.2-.4-.4-.3h-.5q0 .2-.4.2h-1.3l-.2.3.3.3.3.2h.2l-.1.2.1.1.2.1v.1h-.3l.1.4-.2-.3q-.2-.3-.4-.3h-.1l-.5-.1.4.3h-.5l.1.2h.1zm5.4.7.1-.2-.3-.2v.5z" class="cls-1"/><path d="M132.4 62.8h-.2l-.3.1-.1.4v.3h.3l.2.2.3-.1q.2 0 .3-.2l-.3-.4.1-.3zm-.2 1.5q.5.3.4.1l-.4-.4-.1-.2z" class="cls-1"/><path d="M131 63.9h-.3l-.3.1.1.4.1.3.2.1-.2.2.1.2-.2.4v.4h.4l.1-.3.3-.3h.2l-.2.3h.2c.1 0 0-.3.1 0q.2.2.4 0l.2.4V66l-.3-.1v.2l-.1.2h-.4l-.3.3.2.2.1.4.2-.1v-.4l-.1-.1.3-.1.1-.2q.1-.2.2-.1v.3l-.3.3q0 .2.3.3.2.2.4 0l.4-.1-.1.3c0 .1-.3.1 0 .3l.5.2.2.2h-.7l-.2.3.2.2h-.2l-.1-.2-.2.3v.1l.1.3h.2q.1.1.2-.1.1-.4.2-.3v.4l.1.2.3.1-.2.1q.2 0 .3.3v.3h.3l.2.1.2.3.4.3h.1l.3.1v-.2l-.1-.3-.4-.2-.3-.2-.3-.4-.2-.1V69q-.3 0-.3-.2l-.1-.3.2-.2v.2q0 .2.1.1c.1 0 .3-.4.3-.2l.2.2h.5l-.2-.5.2.5.3.2v.3l.1.4c.2 0 .2-.4.2-.2l.1.3q.2 0 .2-.2v-.3l.1.5.1.1.1.2.2.3h.7l.1-.4-.1-.4h-.2v-.5l-.1-.3-.2.2-.2.1h-.2l.3-.2v-1.1l-.1-.1-.1.3h-.2l-.3.1s-.3-.1 0-.1.3 0 .3-.2q0-.3-.3-.4h-.8l.2-.2.1-.1h-.5c-.2.1-.3.6-.3.3l.1-.5q0-.1.4 0h.8l-.3-.1-.3-.1q0-.4-.3-.4t-.1 0q0 .2-.2 0l-.1-.5h-.1l-.6-.5-.5-.3h-.8l-.2-.2.1-.3-.1-.3-.2-.1-.1-.2h-.1l-.3.1v.3l-.2-.3Zm-1.5 2.8.2-.4V66l-.2.4h-.3v.2l.1.2zm.9-.3s.2 0 .1-.2l-.2-.2v.2zm3.1-3.5h-.3v.2l-.2.3v.6q0 .3.2.5h.2l.2-.3h.1l.2.4q.2 0 .2.2v.3q.3 0 .2-.3l.2-.2q.2 0 0-.2t-.2-.5h.2v-.2l.1-.1v-.8l-.3-.3h-.3l-.3-.1-.4-.3.2.5zl.1.3zM135 64l-.3-.3v.4l.2.3z" class="cls-1"/><path d="m132.3 67.8.1-.2v-.3h-.3l-.2.2zm.3.2v-.2l-.3.2.1.1zm-1.4.2.2-.1.1-.3v-.2h-.2l-.2.1.1.2zq0 .1.1 0m.5-.5-.1.2-.1.2v.5q0 .2.2.3.1.2.1 0v-.4l.1-.2.2-.2h-.2v-.2zm2.3 1.7h.5v-.3l-.2-.2q-.3-.3-.5-.3v.4q.3 0 .2.1-.2.2 0 .2Zm.8.4-.3-.1-.2.1.2.3.2.1.4.2-.3-.4zm1-4.9.4-.2-.2.3q-.2 0-.2.2l.2.3.1.3q.1-.1.1 0l-.1.6v.4l.1.6.3.4h.2v-.6l.2-.3h.2l-.2.3v.4h.3v.3l-.1.4h.1l.2-.1h.2l.2-.3-.1-.2-.1-.3-.2-.2V67l.2-.4v-.3.6q0 .4.3.3t.2-.5v-1.1l-.1-.5-.3-.5-.6-.6-.4-.2h-.6l-.3.4.1.1h-.1v.2h.2l-.4.2zm2.3 2.6v.3zm-.3 1.2.4.1v-.1l.3-.2-.2-.2-.1-.2-.1-.1v.2h-.3l-.2.3z" class="cls-1"/></g></svg>