<?xml version="1.0" encoding="UTF-8"?>
<svg id="Layer_2" data-name="Layer 2" xmlns="http://www.w3.org/2000/svg" viewBox="0 0 141.03 84.66">
  <defs>
    <style>
      .cls-1 {
        fill: #172d35;
      }
    </style>
  </defs>
  <g id="_Ñëîé_1" data-name="Ñëîé 1">
    <g>
      <path class="cls-1" d="M54.71,75.62s0,0,0,0c0,0,0,0,0,0Z"/>
      <path class="cls-1" d="M61.97,59.23c-.03.11-.04.22-.04.22,0,0,.03-.1.04-.22Z"/>
      <path class="cls-1" d="M59.35,56.95s0,0,0,0c0-.01,0-.02,0-.03,0,0,0,.02,0,.02Z"/>
      <path class="cls-1" d="M93.37,49.57s0-.01,0-.02c-.03.03-.04.05,0,.02Z"/>
      <path class="cls-1" d="M93.12,49.25h0s-.01.03,0,0Z"/>
      <path class="cls-1" d="M53.55,76.38h.01s-.01,0-.01,0Z"/>
      <path class="cls-1" d="M59.42,52.57s.01-.01.03-.03c-.01.01-.03.03-.03.03Z"/>
      <path class="cls-1" d="M139.09,66.08c.06-.03.11-.05.11-.05l.13-.24s-.13.16-.24.3Z"/>
      <path class="cls-1" d="M53.4,77.09l-.05.21-.19.1-.07-.45-.12-.35h-.37s-.24-.1-.3-.1-.15.03-.2.03-.1-.12-.2-.02c-.1.1-.25.14-.32.19-.07.05-.05.02-.19.03-.13.02-.29.09-.44.16-.15.07-.22.05-.3,0s-.25-.16-.34-.1c-.08.05-.22.17-.34.4-.12.22-.25.45-.32.55-.07.1-.3.26-.4.31-.1.05-.4.03-.4.21s.2.69.2.69c0,0,.07.17.19.17s.12-.1.24,0c.12.1.29-.03.37,0,.08.03.27.17.37.04.1-.13.27-.3.27-.3,0,0-.13-.14.05-.21.18-.07.22-.17.59-.23s.22-.14.71-.05c.49.09.66.14.74.14s.2-.07.27-.09c.07-.02.15.03.17-.03.02-.07-.02-.14.02-.19.03-.05.19-.14.19-.14.03-.19-.02-.33.03-.33s.24,0,.39-.07c.15-.07.05-.1.25-.22.2-.12.27-.28.27-.33s-.17-.17-.22-.22c-.05-.05-.22-.07-.08-.19.13-.12.25-.19.34-.19s.17.02.19.16c.02.14.07.29.07.29,0,0,.07.19.08.26.02.07.02.19.13.19s.2-.02.2-.02c0,0,.17.05.19,0,.02-.05.1-.22.15-.22s.32.17.32.17c0,0,.03-.24-.02-.38-.05-.14-.08-.24-.08-.31s.05-.23.03-.31c-.02-.09-.17-.12-.17-.21s.05-.17.1-.26c.05-.09.25-.16.25-.16,0,0-.05.16.02.28.07.12.08.19.15.29.07.1.22.19.24.28s.1.17.05.17-.29-.07-.29-.07c0,0-.19-.07-.12.09.07.16.22.31.22.31l.32-.02s.03.12.15.12.22-.16.18-.24c-.03-.09-.08-.16.02-.22s-.02-.1.1-.07c.12.03.1.14.13.21.03.07.12.16.12.16,0,0,.08-.1.19-.14.1-.03.1-.24.05-.26-.05-.02-.08-.21-.08-.21,0,0-.05-.16,0-.16s.29.19.34.14c.05-.05.34-.43.39-.52.05-.09.27-.21.27-.35s-.05-.31-.02-.38c.03-.07.05-.16.08-.21s.15-.21.22-.26c.07-.05.03-.07.25-.09.22-.02.4.09.4.09,0,0-.07.16-.17.28-.1.12-.22.17-.22.35s-.07.31-.1.4c-.03.09-.12.21.1.16s.29-.12.35-.05c.07.07.05.19.2.12.15-.07.18-.09.34-.12s.2-.07.27-.16c.07-.09.19-.24.24-.28.05-.03.27-.17.32-.14.05.03-.07.09-.02.19.05.1.15.19.27.17.12-.02.24-.21.24-.21l-.22-.19.15-.09.22-.1.12.35.1.19s.22-.24.22-.31.15-.16.15-.21-.1-.29-.05-.29.34.17.44.16.35-.12.35-.12c0,0-.05-.35,0-.35s.2.12.2.12c0,0,.07-.09.07-.14s.02-.19.02-.19l.2-.02c.1-.03.32-.03.32-.03,0,0-.13-.17,0-.19s.34.09.44.1c.1.02.1.14.1.14l-.13.28.02.17s-.02.1-.05.16-.02.12.05.17c.07.05-.03.12-.03.12,0,0-.22-.07-.25.02-.03.09.02.19.02.19l.17.03s.13.02.19-.1c.05-.12-.02-.24.13-.29.15-.05.19-.17.17-.24-.02-.07-.1.09-.02-.07.08-.16.1-.31.1-.4s-.13-.29-.13-.29l.22-.17s-.05.21,0,.36c.05.16.17.16.17.09s-.02-.28.07-.31c.08-.03.22.07.22.07,0,0,.08-.09.15-.1.07-.02.27-.02.27-.02,0,0,.24-.14.25-.09.02.05.1.17.13.1.03-.07.19-.12.19-.12,0,0,.12-.12.17-.19.05-.07.22-.17.25-.12.03.05.18-.12.17.02-.02.14,0,.42.07.24.07-.17.08-.38.08-.38l-.1-.1s.12-.17.1-.23c-.02-.05,0-.26.05-.22.05.03.25-.19.25-.19,0,0,.2-.1.19.02-.02.12-.32.5-.32.5,0,0-.03.07.02.19.05.12.03.22.13.26.1.03.25.19.3-.09.05-.28,0-.38.02-.47.02-.09.13-.21.13-.21,0,0,.24.05.25-.02.02-.07.13-.1.25-.17.12-.07.27-.31.13-.16-.13.16-.54.17-.54.17,0,0-.19-.17-.03-.17s.37-.14.37-.22-.07-.12-.13-.16c-.07-.03-.13-.14-.18-.09-.05.05-.08.16-.13.09-.05-.07-.13-.16-.13-.16,0,0-.1-.05-.1-.12s.27-.42.27-.42c0,0,.25-.16.32-.1s.07.14.22.1c.15-.03.2-.12.2-.12,0,0,.02-.16.17-.1.15.05.2.14.37.16.17.02.2-.17.2-.17v-.24s-.15-.12-.29-.05-.5.24-.5.24c0,0,.08-.24.22-.31.13-.07.25-.05.29-.1s-.05-.14.07-.17.13.09.25-.02c.12-.1-.02-.17.12-.1.13.07.08.21.24.26s.05.05.34.02c.29-.03.37.12.29-.03-.08-.16-.22-.21-.24-.26s.07-.29.07-.29l.22-.05.1-.16s-.19-.12-.13-.19c.05-.07.12-.28.24-.12.12.16.24.35.35.42.12.07.19.02.19-.03s.07-.35.12-.28c.05.07-.05.12.05.07.1-.05.19-.28.27-.31s.19-.1.19-.17.07-.12.1-.07c.03.05.17.21.17.21,0,0,.07-.14.08-.22.02-.09.08-.14.08-.19s-.17-.26-.03-.22c.13.03.17.19.3.24.13.05.24.05.24.05l-.1-.28.37-.31s.25-.14.3-.19c.05-.05.03-.21-.02-.24-.05-.03-.17-.09-.12-.16s.19-.16.19-.21.03-.12-.02-.14c-.05-.02-.34.05-.39.07-.05.02-.22.09-.17-.02.05-.1.19-.19.35-.33.17-.14.27-.21.4-.26.13-.05.17-.19.17-.19,0,0,.25.1.3.12.05.02.17-.07.13-.16-.03-.09.03-.45.03-.45,0,0,.12.03.17.07.05.03.29,0,.29,0,0,0,.07.05.17.05s.15-.28.15-.28c0,0-.34-.17-.03-.17s.35-.21.35-.21c0,0-.15-.07-.1-.19.05-.12.03-.33.13-.29s.3.14.37.17c.07.03.08.17.08.17,0,0,.12-.03.19-.07.07-.03,0-.14,0-.14,0,0,0-.07.03-.12.02-.05-.12-.22,0-.22s.27-.03.27-.03c0,0-.24-.09,0-.1.24-.02.3-.1.3-.1v-.19c0-.05-.1-.1,0-.14s.2-.28.2-.28c0,0,.1-.07.25-.05.15.02.2.17.29.1s.13-.35.2-.31c.07.03.08.17.18.17s.27-.14.27-.14c0,0,.05-.17.1-.14.05.03.08-.33.08-.33l.22.28.15-.09.13-.1v-.14s-.15-.14,0-.14.1.17.15,0c.05-.17-.03-.26,0-.29.03-.03.22-.21.17-.24-.05-.03-.1-.05-.22.03-.12.09-.35.22-.34.16s0-.1.37-.29c.37-.19.39-.26.44-.28.05-.02-.07-.16-.08-.21-.02-.05-.05-.26-.05-.26,0,0,.27.07.32-.07.05-.14-.1-.38,0-.43s.19-.12.32-.12.42-.07.42-.07c0,0,.15-.29.25-.31.1-.02.13-.05.27-.24.13-.19.08-.45.17-.48s.27-.12.2-.17c-.07-.05-.17-.17-.22-.24-.05-.07-.2-.17-.22-.24-.02-.07-.07-.1-.17-.05-.1.05-.32-.17-.37-.26-.05-.09-.07-.12-.15-.12s-.32.03-.32.03c0,0-.05-.03-.24-.05-.19-.02-.29.07-.32.12-.03.05-.2.19-.2.09v-.4s-.24-.07-.2-.12.2-.14.25-.22c.05-.09.03-.38.08-.47.05-.09.29-.29.29-.29,0,0-.02-.16-.13-.12-.12.03-.45-.07-.17-.05.29.02.4-.16.49-.17.08-.02.08-.14.19-.16s.3.1.3-.03-.19-.42-.13-.43c.05-.02.25-.05.35-.1.1-.05.13-.22.13-.22,0,0-.52-.07-.37-.14.15-.07.32.02.42.02s.2-.24.2-.36-.07-.5.07-.35c.13.16.19.52.13.57-.05.05.13.19.19.19s.11-.26.13-.24c.02.02.09.14.19.03.1-.1.34-.16.37-.28.03-.12-.05-.55-.1-.54-.05.02-.22.09-.27.09s-.24,0-.24-.05.13-.19.3-.22c.17-.03.49-.03.62-.05.13-.02.4-.16.4-.21s.02-.31.08-.4.13-.35.13-.35v-.54s-.07.1-.29,0c-.22-.1-.52-.26-.52-.26v-.24s.25.12.35.19c.1.07.17.19.3.14.13-.05.13-.03.29-.17.15-.14.19-.14.25-.19.07-.05.1-.29.1-.29,0,0,.1-.07.15-.16.05-.09,0-.29,0-.29,0,0-.24-.05-.05-.29.19-.24.24-.17.39-.4.15-.22.17-.26.24-.38s.2-.22.27-.24c.07-.02.25-.05.25-.05,0,0,.19.1.19-.02s-.17-.54-.19-.59c-.02-.05.2-.26.19-.29-.02-.03.13-.22.2-.28s.13-.19.29-.21c.15-.02.25-.03.3-.05.05-.02-.03-.05.13-.1.17-.05.34-.22.37-.36.03-.14.22-.35.34-.45.12-.1.37-.16.45-.23.08-.07.27-.26.29-.33.02-.07.08-.4.12-.33.03.07.1.5.1.5,0,0,.24.07.3.07s.34-.07.44-.09c.1-.02.3.1.4.03.05-.03.11-.07.15-.11.04-.05.07-.1.06-.18-.03-.16.15-.36.25-.48.1-.12.3-.38.47-.43.17-.05.37-.05.5-.05s.08.1,0,.14c-.08.03-.05-.13-.29.09s-.39.31-.39.31c0,0-.12,0-.13.1-.02.1-.13.29-.13.29,0,0-.54.73-.52.78.02.05.35.21.47.36.12.16.18.31.29.31s.2.02.2.02c.08.09.32.07.32.07l.08.03s.15.03.18.09c.03.05-.07,0,.03.05.1.05.47-.03.47-.03,0,0,.02.09.19.17.17.09.12.09.2.21.08.12-.05.17-.1.1-.05-.07-.2-.23-.35-.23s-.25.05-.34.02c-.08-.03-.19-.05-.25-.1-.07-.05-.2-.14-.29-.1l-.08.03-.3-.21s-.27.05-.34.16c-.07.1-.05.17-.17.21-.12.03-.15.03-.24.02-.08-.02-.44-.17-.44-.17,0,0-.07-.16-.1-.21-.03-.05-.03-.28-.15-.17s-.32.17-.49.28c-.17.1-.25.1-.35.22-.1.12-.27.36-.34.4-.07.03-.19.14-.22.21-.03.07-.03.12-.2.16-.17.03-.15-.05-.3.05-.15.1-.2.23-.2.23,0,0-.25.07-.2.12.05.05.07.26.07.26,0,0,.13.26.13.35s.15.31.15.31v.47l-.03.17-.19.09s-.03.29-.03.43.07.31-.02.36c-.08.05-.19.19-.22.29-.03.1-.22.22-.25.28-.03.05-.13.26-.13.26,0,0-.1.16-.1.21s.05.19,0,.29c-.05.1-.13.23-.13.31s-.03.24-.03.24c0,0-.07.12-.08.22-.02.1.08.29.13.35.05.05.19.12.27.17.08.05.24.1.3.14.07.03.32.14.32.14,0,0,.02-.21.02-.26s.35-.21.4-.24c.05-.03.25-.22.32-.29.07-.07.12-.12.18-.12s.03-.1.07,0c.03.1-.12.24-.12.24,0,0-.13.1-.15.17s-.02.1,0,.17c.02.07-.12.1-.12.1-.03.14,0,.31,0,.31l-.18-.02-.1.1s-.15-.03-.17.02c-.02.05-.2.19-.2.19l.1.24-.2-.12-.2.1.03.1h-.29s.1.33.05.29c-.05-.03-.17-.21-.25-.19s.02-.09-.08.02c-.1.1.13.43.13.43v.12s-.18-.17-.24-.17-.05.03-.13.14-.17.07-.13.22c.03.16.22.21.24.26.05.12.19.21.25.17.07-.03-.02,0,.07.1.08.1.3.09.39.07.08-.02.05-.19.05-.19l.22-.07s-.2-.07-.05-.1c.15-.03.24-.09.32-.05.08.03.13.12.19.14s.1-.05.17-.02c.07.03.3,0,.3,0l-.19-.31-.27-.12s.29.05.35.07c.07.02.24,0,.24,0,0,0,.12-.02.12.09s-.15.29-.02.36c.13.07-.07-.24.02-.26.08-.02.25.03.25-.09s.15-.42.15-.42c0,0,.24-.4.24-.35s-.1.16-.1.31.12.31.17.26c.05-.05.25-.42.2-.48-.05-.07-.17-.16-.17-.16,0,0,.17-.1.15-.19-.02-.09,0,.07-.02-.09-.02-.16-.08-.33-.08-.33l.32-.26.02.54v.1c0-.1.32-.66.34-.74.02-.09.2-.52.2-.52,0,0,.05.26-.03.42-.08.16-.15.23-.15.33s-.05.24-.07.38-.17.38-.12.54c.05.16.12.17.17.02.05-.16.08-.45.15-.48.07-.03.12-.16.12-.16l-.02-.09.12-.1s-.07-.16-.02-.16.2-.03.2-.03l-.07-.21.08-.1-.08-.21s.15.09.22.17c.07.09.15-.1.15-.1,0,0,.1-.05.1-.16s-.07-.21-.12-.24-.32-.12-.2-.16c.12-.03.25.02.32.09.07.07.2.12.24.21.03.09.1.31.1.31,0,0,.22-.02.17-.16-.05-.14-.22-.5-.22-.5l-.12-.28.2-.02.03-.16s-.03-.33.02-.31c.05.02.15.05.15.17s-.03.21-.03.38.07.33.12.4c.05.07.34.22.27.07-.07-.16-.2-.42-.22-.47-.02-.05.02-.03.07-.12s.12-.36.12-.36l.19-.19.02-.28.03-.42s.13.17.15.29c.02.12.1.31.1.31,0,0-.34.67-.25.69.08.02.3-.45.3-.45l.05.17s.13-.35.13-.43.14-.21.16-.24c.02-.03.07.07.07.07,0,0-.1.12,0,.17.1.05.22.09.22.09l.2-.1s.1.16.19.17c.08.02.2-.02.3-.05.1-.03.27-.03.27-.03,0,0,.12-.35.15-.29.03.05.29.26.29.16s-.15-.31-.1-.4c.05-.09.22-.5.22-.5,0,0,.12.1.12.22v.33s.25-.02.27-.07c.02-.05.1-.1.1-.1,0,0,.07.16,0,.24-.07.09-.37.54-.2.45s.27-.21.35-.21.24.1.3-.02c.07-.12.24-.47.24-.47l-.17-.03-.15.26s-.17-.05-.08-.16c.08-.1.24-.28.24-.28l-.05-.17s-.1-.05-.15,0c-.05.05-.22.28-.22.28l-.02-.26.12-.26s-.13-.1-.17,0c-.03.1-.2.28-.17.22.03-.05.13-.52.07-.48-.07.03-.13.42-.1.22.03-.19-.03-.35-.17-.26-.13.09-.37.33-.3.22.07-.1.22-.29.29-.4.07-.1.1-.21.15-.22s.02.02.1.12c.08.1.22.26.24.14.02-.12.13-.38.1-.43-.03-.05-.13-.14-.2-.09-.07.05.22-.24.22-.24l-.03-.19c-.02-.12-.05-.24-.1-.26-.05-.02-.15-.05-.15-.12s-.08.03-.08.03c0,0,.07-.33,0-.24s-.22.33-.27.4c-.05.07-.08.14-.07.21.02.07-.17-.03-.17-.03,0,0-.1,0-.17-.07-.07-.07-.1-.14-.2-.1-.1.03-.57.5-.5.38.07-.12.49-.57.49-.57,0,0,.27.03.35.02s.08-.14.17-.19c.08-.05-.03.09.08-.05.12-.14.3-.26.27-.36-.03-.1-.2-.4-.2-.4,0,0-.29.02-.32.17-.03.16-.19.47-.22.42s-.13-.1-.07-.19c.07-.09.1-.28.1-.28l-.07-.12s-.13.02-.19.03c-.05.02-.34.35-.34.35,0,0-.24,0-.1-.12.13-.12.35-.35.35-.35,0,0-.49.05-.39.03.1-.02.27-.14.47-.19.2-.05.35-.12.35-.12,0,0-.03-.05-.02-.12.02-.07-.02.03.02-.07.03-.1-.02-.33-.02-.33,0,0,.27-.12.27-.19s-.03-.31-.03-.31c0,0-.1-.03-.19.02s-.27.26-.29.31c-.02.05-.2.1-.15.03.05-.07.15-.22.22-.31.07-.09.25-.14.32-.17.07-.03.12-.17.17-.07.05.1.05.19.12.24.07.05.2.05.2,0s-.08-.1-.02-.24c.07-.14.27-.48.3-.57s.12-.28.12-.28l.17-.12s-.22.26-.12.28c.1.02.15-.14.1.02-.05.16-.24.36-.27.45-.03.09-.15.28-.15.28,0,0,.03.05.02.1-.02.05-.07.1-.08.17-.02.07-.02.09-.05.16s-.02.09-.05.16c-.03.07-.13.17-.13.17l.05.16s-.12.14-.12.24.19.23.19.23l.2-.12.08-.03.05-.24.29.17s.15-.1.1-.21c-.05-.1-.08-.26-.08-.26,0,0,.08-.19.1-.05.02.14.12.24.12.24,0,0,.15.12.19.03.03-.09.07-.23,0-.33s-.13-.22-.13-.28.21-.43.17-.5c-.02-.04,0-.16,0-.24-.01-.03-.02-.06,0-.07.02-.02.01.02,0,.07.03.09.12.24.09.38-.05.19.03.4,0,.47,0-.03.03-.07.03-.07,0,0,.22.02.22.07,0,.05.04.24,0,.31.01-.01.02-.02.04-.03.08-.03.3-.21.3-.21v-.26s.1.1.12.16c.02.05.12.19.12.05s.22-.4.27-.31c.05.09-.05.26.08.24.13-.02.32-.19.35-.31.03-.12.15-.24.2-.26.03,0,.06-.06.09-.12.03-.06.06-.12.06-.16,0-.07.07-.16.2-.14.13.02.49-.05.54-.02.05.03.15.12.15.12,0,0-.17.07-.22.05-.05-.02-.17-.03-.22-.02-.05.02-.27.05-.32.09-.05.03.05.33.05.33,0,0-.17-.12-.18-.07-.02.05.02.14-.02.19-.03.05.1.14.1.19s-.2.09-.2.09c0,0-.08.09-.07.16.02.07-.07.03.02.07.08.03-.08.02-.1.24-.02.22.32.17.25.07-.07-.1-.12-.38.03-.31s.15.19.15.19c0,0-.03.16.12.1.15-.05.13,0,.34,0s.34-.26.37-.31.03-.16.13-.09.22.17.22.17c0,0-.3,0-.34.07-.03.07-.34.33-.34.33,0,0-.22-.02-.22.03v.05l-.17.05s-.07.09-.13.09-.03.22.05.22-.03-.05.08,0c.12.05.24.09.32.09s.32-.54.32-.54c0,0-.08.28.03.26.12-.02.13-.24.22-.21.08.03.1.14.17.1.07-.03.3-.33.25-.21-.05.12-.5.42-.52.5-.02.09-.07.29.13.21.2-.09.35-.17.52-.26.17-.09.24-.09.25,0,.02.09.57-.07.49,0-.08.07-.39.29-.39.29,0,0-.27.1-.4.22-.13.12-.25.26-.3.26s-.27.05-.29.12c-.02.07-.2.17-.02.19s.32.02.56-.12c.24-.14.37-.36.54-.48.17-.12.4-.48.4-.42s-.25.4-.32.52c-.07.12-.17.19-.22.24-.05.05-.34.07-.12.14.22.07.44-.05.5-.05s.27.02.39.09c.12.07.24.09.24.16s.39.28.39.28c0,0,.24-.31.3-.48.07-.17.32-.4.39-.52.07-.12.17-.62.24-.36.07.26.22.59.08.76-.13.17-.29-.09-.19.26s.17.48.17.48c0,0,.32-.1.37-.02s.24.21.29.29c.05.09.25.1.25.1,0,0,.2-.14.25-.1.05.03.25-.02.37-.02s.1.02.18.14.32.33.39.35c.07.02-.47.21-.47.21,0,0,.49-.03.57-.03s.15.09.34.07,1.01-.45,1.16-.45.12.03.44-.09.4-.24.54-.31c.13-.07,1.24-.03,1.41-.07.17-.03.69.1.79.1s.2,0,.44.07c.24.07.37,0,.47-.1.1-.1.37-.24.4-.29.03-.05-.24-.28-.24-.36s.22-.31.24-.19c.01.12.05.26.13.31.08.05.19.05.12.22-.07.17.02.35.02.35l-.22.38s.29.09.44.12c.15.03.54.19.71.19s.47.12.77.09c.3-.03.91-.1.98-.16.07-.05.24-.28.3-.36.07-.09.39-.23.42-.28.03-.05.15-.35.22-.5.07-.16.08-.24.15-.31.07-.07.19-.28.19-.28l.08-.26s.24.1.27.19c.03.09.35.38.42.43.07.05.19.05.3.03.12-.02.34-.1.37-.05.03.05.24.21.24.21l-.3-.07s-.17-.03-.29.05c-.12.09-.29.19-.29.19,0,0,.08.05.08.16s-.07.17,0,.28c.07.1.15.21.2.35.05.14.1.26.05.35-.05.09-.22,0-.22-.09s.03-.16,0-.38c-.03-.22-.24-.45-.25-.57s-.02-.26-.03-.35c-.02-.09-.25-.17-.3-.21-.05-.03-.25-.17-.25-.17,0,0,.05.19-.02.29-.07.1-.15.16-.05.35.1.19.08.22.19.35s.2.26.2.31-.03.14-.03.26-.02.21-.08.29-.22.19-.22.19c0,0-.5.07-.29.16.22.09.29.07.49.22.2.16.5.26.56.28.05.02,1.11.26,1.36.36.25.1.59.31.72.36.13.05.34.16.42.14.08-.02.13-.09.29,0,.15.09.42.09.56.14s.4.16.44.21c.03.05.34.42.34.42,0,0-.07.14,0,.24.07.1.05.12.24.23.19.1.47.21.56.29s.24.17.32.22.39.19.39.19c0,0,.17.16.37.24.2.09.39.16.47.21.08.05.4.09.4.09,0,0,.24-.1.3.02.07.12.24.24.29.24s.3-.02.3-.02v.21l.27.09s.1-.24,0-.36c-.1-.12,0-.35.05-.31.04.03.21.21.22.14.02-.07.12-.24.12-.24l.19-.17s-.17.21.08.14c.25-.07.39-.16.42-.22.03-.07.02-.42-.1-.5s-.22-.24-.22-.24l-.19.12s.12-.14.03-.29c-.08-.16-.18-.38-.18-.38l-.2-.05s-.1.1-.17.19c-.04.06-.2.18-.28.24-.01.01-.03.03-.04.04-.03.02,0,0,.04-.04.1-.09.27-.32.23-.41-.05-.1-.17-.21-.22-.21s-.49-.02-.32-.09c.17-.07.15-.21.05-.26-.1-.05-.47-.03-.47-.03l-.22-.05s-.08.12-.17.09c-.08-.03-.45.23-.52.29-.07.07-.27.12-.15-.02.12-.14.59-.55.44-.66-.15-.1-.39-.24-.39-.24,0,0-.08-.21-.02-.19.07.02.27.26.5.36.24.1.54.14.54.14,0,0-.15-.45-.17-.52-.02-.07.37.33.37.38,0,0,.1-.36.12-.26.02.1-.02.36.05.47.07.1.07.17.27.22.2.05.44.17.52.12.08-.05.25-.29.19-.47s-.22-.48-.25-.55c-.03-.07-.19-.48-.07-.35.12.14.29.38.34.45.05.07.07.24.1.31.03.07.08.09.07.22-.02.14.27.55.35.67.08.12.34.24.39.38.05.14.1.29.1.4s-.18.36,0,.33c.19-.03.52-.17.57-.19.05-.02.32-.07.32-.07,0,0,.19.17.19.05s-.25-.57-.19-.48c.07.09.29.62.4.81.12.19.4.35.52.33.12-.02.34.03.39-.02.05-.05.07-.38,0-.59-.07-.21-.44-.71-.56-.92-.12-.21-.12-.24-.2-.43-.08-.19-.44-.74-.47-.8-.03-.05-.19-.21-.25-.31-.07-.1-.19-.21-.29-.4-.1-.19-.07-.54-.07-.54,0,0-.29-.07-.32-.17s-.45-.19-.27-.31c.19-.12.15-.29.15-.29,0,0-.29-.07-.24-.1.05-.03.15-.99.18-.93.03.05.1.85.3,1.07s.34.31.54.64c.2.33.24.55.35.74.12.19.1.31.27.5.17.19.32.29.32.29,0,0-.05-.48.03-.36.08.12.13.38.17.45.03.07.07-.1.03.07-.03.17.12.28.2.43.08.16.3.36.39.42.08.05.17.21.2.29.03.09.25.09.32.1.07.02.37.05.37.05,0,0,.15.1,0,.17-.15.07-.39.05-.27.19.12.14.25.21.34.19.08-.02.25-.1.37-.07.12.03.29.07.37,0,.08-.07.19-.29.19-.29l-.08-.29s0-.28.08-.35c.08-.07.02-.33.13-.16.12.17.27.21.2.38-.07.17-.3-.07-.12.4.19.47.24.57.27.62.03.05.24.28.32.31.08.03.22-.02.22-.02,0,0-.05-.19,0-.31.05-.12-.1-.47,0-.47s.25.09.22.22c-.03.14-.07.24,0,.28s.25.09.25.16v.28l-.25-.1s-.12.09-.03.21c.08.12.15.21.29.36.13.16.34,0,.29-.05-.05-.05-.12-.17-.1-.31.02-.14.24-.16.35-.17.12-.02.32-.1.44-.1s.4.02.39.07c-.02.05-.64.16-.77.21s-.2.1-.17.19c.03.09.03.16.1.23.07.07.25.16.35.21s.35.21.35.21c0,0,.2.02.32.1.12.09.34.19.37.26.03.07.24.03.24.03,0,0,.12.17,0,.16-.12-.02-.27-.05-.4-.12-.13-.07-.39-.19-.61-.21-.22-.02-.42-.1-.49-.14-.07-.03-.1-.09-.17-.05-.07.03-.05.02-.07.14-.02.12.07.22.12.31.05.09.19.17.24.14.05-.03.29-.23.29-.16s-.02.22-.02.31.02.29.08.35c.07.05.13.09.18.1.05.02.02.14.02.23s.34.03.42.05c.08.02.15.02.2.02s.49-.1.35-.02c-.13.09-.52.36-.57.36s-.3-.02-.34.03-.03.21,0,.31c.03.1.05.19.17.24.12.05.37.07.42.09.05.02.17-.1.17-.17s.15-.26.18-.17-.16.22,0,.29.29.1.38.07c.08-.03.3.02.35,0,.05-.02.15-.16.17-.21.02-.05.25-.09.2.07-.05.16-.03.24-.07.29-.03.05-.15.16-.05.23.1.07.27.22.27.22,0,0,.32.21.4.22.08.02.24.09.29.05.05-.03.13-.03.2-.14.07-.1.22-.28.24-.22.02.05-.08.38-.1.45-.02.07.1.1.1.22,0,.12-.22.24-.1.29.12.05.25.12.3.05.05-.07.3-.43.29-.23-.02.21.07.45.12.52.05.07.35.14.35.14,0,0,.35.29.4.29s.32,0,.42.17c.1.17.19.33.24.33s.37-.05.49-.07.27-.05.34-.1c.07-.05.35-.22.32-.12-.03.1-.32.36-.5.43-.18.07-.42.35-.44.4-.02.05.02.21.05.33.03.12.02.26.02.35s.05.21.05.21c0,0-.22.1-.17.23.05.12.12.24.12.24,0,0,.19.05.1.19-.08.14-.19.14-.22.22-.03.09-.1.31-.1.31,0,0-.05-.05.05.1.1.16.22.33.27.4.05.07.32.12.39.17.07.05.17.1.22.09s0-.33,0-.4.19-.26.17-.38c-.02-.12-.27-.29-.27-.29,0,0,.17.02.17-.12s.07-.35-.05-.36c-.12-.02-.4-.07-.4-.07,0,0,.22-.12.32-.23.1-.1.24-.38.32-.48s.22-.26.39-.29c.17-.03.2.05.32-.1.12-.16.4-.64.44-.59.03.05-.29.5-.13.61.15.1.37.23.66.43.29.21.52.31.54.45.02.14.1.28.13.38.03.1.07.19.15.16.08-.03.24-.22.24-.17s-.07.33-.08.4l-.02.07s-.07.14,0,.28c.07.14.02.24.1.35.08.1.07.24.13.23.04-.01.17-.07.26-.12.11-.14.24-.3.24-.3l-.13.24s-.05.02-.11.05c-.08.1-.15.18-.16.21-.03.05-.24.12-.25.23-.02.1-.07.33-.12.4-.05.07-.07.21-.02.29.05.09.25.22.3.22s.37-.4.37-.4c0,0,.02.14.12.1.1-.03.07-.17.1-.31.02-.07.06-.13.1-.2.04-.07.08-.14.08-.2,0-.12.15-.36.15-.36,0,0-.2,1.04-.25,1.11-.05.07-.32.09-.32.09,0,0-.07.07-.1.12-.03.05-.08.12-.12.21-.03.09-.03.23.03.28.07.05.1.05.15.21.05.16.22.42.29.47.07.05.15.16.24.16s.22-.12.22-.12v-.19s.03.09.08.14c.05.05.22.12.22.02s.05-.14.19-.21.13-.1.24-.26c.1-.16.25-1.14.25-1.19s.07-.36,0-.57c-.07-.21.19-.69.15-.81-.03-.12-.29-.24-.34-.42-.05-.17-.17-.38-.29-.48-.12-.1-.29-.35-.3-.48-.02-.14-.13-.31-.19-.38-.05-.07-.19-.16-.08-.35.1-.19.13-.59.13-.66s-.39-.64-.45-.69-.12-.17-.19-.09-.34.17-.5.16c-.17-.02-.3-.17-.32-.23-.02-.05-.13-.17-.34-.17s-.4.1-.47-.02c-.07-.12-.32-.33-.44-.29-.12.03-.62.1-.69.1s-.57-.17-.82-.24c-.25-.07-.4-.16-.64-.12-.24.03-.44.12-.52.14-.08.02-.29-.17-.32-.29-.03-.12-.22-.24-.22-.33s.18-.21-.1-.24c-.29-.03-.71.05-.71-.1s.05-.69-.08-.73c-.13-.03-.72-.03-.76-.12-.03-.09.22-.57,0-.69s-.5-.61-.57-.62c-.07-.02-.59-.29-.72-.48-.13-.19-.44-.38-.54-.52-.1-.14-.54-.62-.66-.69-.12-.07-.52-.48-.67-.71-.15-.23-.47-.59-.66-.69-.18-.1-.69-.57-.69-.57,0,0,.2-.16.05-.28-.15-.12-.94-.52-1.03-.59-.08-.07-.32-.4-.54-.47-.22-.07-.52-.1-.74-.19-.22-.09-.49-.24-.52-.29-.03-.05-.25-.36-.25-.36,0,0-.05-.24-.15-.29-.1-.05-.19-.16-.29-.16s-.37-.03-.44-.17c-.07-.14.12-.22-.1-.22s-.56.1-.71-.1c-.15-.21-.32-.22-.4-.59-.08-.36-.12-.59-.2-.64s-.49-.17-.52-.26c-.03-.09.17,0-.03-.09-.2-.09-.52-.45-.66-.38-.13.07-.82.8-.91.83-.08.03-.67.35-.71.48-.03.14.17.33.2.45.03.12,0,.22-.05.33-.05.1-.34.14-.34.14,0,0,.07.31.12.54.05.22.08.29.07.43-.02.14-.03.36-.13.42-.1.05-.54.29-.67.43-.13.14-.49.43-.57.55s-.17.19-.22.35c-.05.16-.15.38-.24.43s-.15.1-.2-.14c-.05-.24-.27-.74-.5-1.04-.24-.29-.67-.59-.77-.67-.1-.09-.87-.59-1.21-.78-.34-.19-.94-.66-1.08-.78-.13-.12-.07-.16-.24-.33-.17-.17-.24-.19-.42-.24s-.47-.17-.59-.28c-.12-.1-.3-.14-.32-.33-.02-.19.03-1.23-.02-1.23s-1.23.21-1.33.35-.25.87-.45.88c-.2.02-1.26-.42-1.26-.29s.13.42-.15.45-.98.02-1.08-.19c-.1-.21-1.61-8.32-1.61-8.32l-1.75-9.1-1.04-5.24-1.41-7.58-1.51-7.87-1.19-5.97-.17-.03s-.08-.16-.15,0c-.07.16-.05.26-.15.24s-.05-.1-.27-.26-.47-.33-.62-.35c-.15-.02-.15-.03-.24-.02-.08.02-.2.02-.24-.1-.03-.12-.13-.1-.24-.05-.1.05-.27-.19-.27-.19,0,0-.3-.29-.44-.35s-.44-.24-.52-.24-.07.03-.2.03-.4-.09-.4-.09c0,0-.1-.03-.19,0-.08.03-.08.05-.18.09-.1.03-.27-.03-.27-.03,0,0-.03-.02-.1.05-.07.07-.08.05-.18.07-.09.02-.09.14-.14.14s-.05-.02-.24.07-.27.12-.4.17-.22.09-.29.16c-.07.07-.12.19-.19.21-.07.02-.29.02-.39.09-.1.07-.19.19-.25.1-.07-.09-.42-.16-.42-.16l-.3-.21s-.27-.17-.37-.21c-.1-.03-.3-.29-.35-.33-.05-.03-.22.19-.27.19s-.56-.17-.69-.12c-.13.05-.3.14-.39.14s-.27-.03-.39.05c-.12.09-.39.21-.42.16-.03-.05-.17-.28-.27-.23-.1.05-.34.03-.45-.02-.12-.05-.22-.28-.35-.33-.13-.05-.39-.1-.45-.12s-.05-.14-.17-.07c-.12.07-.1.21-.2.19-.1-.02-.24.09-.25-.02-.02-.1-.02-.29-.12-.35s-.34-.12-.47-.09c-.13.03-.3-.12-.39-.12s-.19-.1-.27-.12c-.08-.02-.13-.07-.22-.07s-.22-.02-.32-.02-.32.07-.32.07l-.2-.03-.45.48s-.2-.07-.3,0c-.1.07-.59.4-.59.4,0,0,.39-.42.42-.52.03-.1.19-.29-.07-.26-.25.03-.4.05-.45.12-.05.07-.1.07-.24.14-.13.07-.34.1-.34.1l-.05.28s-.24-.23-.4-.26c-.17-.03-.25-.05-.4-.02-.15.03-.44.02-.4-.03s.37-.16.34-.31c-.03-.16.07-.31-.1-.26-.17.05-.35.02-.49.07-.13.05-.44.05-.54.05h-.29s.2-.16.29-.17c.08-.02.61.12.3-.03-.3-.16-.19-.03-.3-.16-.12-.12,0-.21,0-.31s.1-.33.1-.33l.17-.17s.13-.12,0-.19c-.13-.07-.39-.1-.47-.14-.08-.03-.22-.05-.22-.05,0,0,.13.09.1.17-.03.09,0,.29-.08.21-.08-.09-.19-.4-.19-.4l-.05.19s-.18-.19-.24-.21c-.05-.02-.07-.1-.2-.09-.13.02-.13-.02-.24.02s-.15.09-.22.09-.12.02-.2.05c-.08.03-.12-.03-.22-.03s-.32-.02-.39.03-.03.19-.1.26c-.07.07-.13.19-.27.22-.13.03-.19-.07-.19-.07,0,0-.02-.12-.13-.16-.12-.03-.15.09-.32,0-.17-.09-.17-.29-.19-.35-.02-.05.07-.43.07-.43,0,0-.03-.22-.07-.28-.03-.05-.2-.23-.2-.23,0,0-.18-.17-.22-.07-.03.1.03.31-.07.28-.1-.03-.27-.31-.3-.24-.03.07-.13.19-.13.19,0,0,.18.16.15.26-.03.1-.08.07-.13.07s-.13-.12-.24,0-.17.22-.17.22v.28c0,.1-.12.16-.15.21-.03.05-.13.03-.22,0-.08-.03-.3.07-.29.14s.02.29-.05.29-.07-.19-.07-.28.05-.29.05-.35-.05-.14-.17-.16c-.12-.02-.32.05-.12-.02.2-.07.29-.19.29-.19,0,0,0-.03.13-.05.13-.02.1-.12.22-.21.12-.09.27-.14.3-.24.03-.1.03-.24-.03-.36-.07-.12-.02-.16-.13-.21-.12-.05-.39-.17-.39-.17l-.13.14-.13.05s.05-.22-.02-.29c-.07-.07-.02-.12-.15-.14-.13-.02-.22-.02-.22-.02l-.2-.14.07-.4s-.09.08-.2.17c-.17.15-.39.35-.44.4-.08.09-.32.38-.4.54-.08.16-.19.45-.37.59-.19.14-.61.55-.66.57-.05.02-.52.23-.59.23h-.32l-.37-.16.24.16-.05.12c-.12-.07-.19,0-.19,0,0,0,0,.02-.08,0-.08-.02-.29-.05-.39-.07-.1-.02-.37-.14-.37-.14l.17.22s-.02-.03-.1,0-.19.1-.19.1l-.17-.09-.08.09s-.13-.12-.1-.19.25-.17.25-.17c0,0,.02-.12.07-.16.05-.03.66-.21.59-.21s-.77.19-.91.26c-.15.07-.42.16-.47.22-.05.07-.1.09-.22.24-.12.16-.49.42-.49.42l-.08.14.24-.09s.17-.09.19.09c.02.17.05.26.07.36.02.1-.05.21.08.21s.5-.1.5-.1l.12.05.12.03-.24.07-.05.12h-.59c-.1.14-.19.1-.13.26.05.16.05.28.05.33s-.02.21-.02.21v.21l.05.33s-.13-.4-.15-.5c-.02-.1-.03-.28-.03-.28l-.05-.16s-.3.21-.27.16c.03-.05.18-.24.2-.29.02-.05.02-.1.07-.19.05-.09.1-.21.1-.21l-.25.05-.2-.02.34-.19s.17.02.17-.05v-.16s.02-.09-.03-.1c-.05-.02-.19,0-.19,0l-.19-.05s-.17.26-.27.33c-.1.07-.42.24-.42.24,0,0-.13.12-.19.19-.05.07-.25.24-.42.33-.17.09-.2.02-.3.1s-.2.16-.34.17c-.13.02-.34-.03-.39-.03s-.08-.05-.17.07c-.08.12-.3.35-.35.35s0-.26,0-.26l.07-.09c-.02-.09-.16-.22-.09-.16.07.07.34.05.26,0-.08-.05-.17-.12-.19-.17-.02-.05-.04-.26-.09-.14-.06.12-.19.38-.26.47-.07.09-.15.09-.19.14-.03.05-.08.12-.12.17-.03.05-.08,0-.13.03-.05.03-.02-.09-.05.03l-.03.12-.08.09v.12h-.2s.05.17,0,.22c-.05.05.03-.1-.05.05-.08.16.05.02-.08.16s-.17.14-.24.21c-.07.07-.15.19-.2.24-.05.05-.08.05-.18.14-.1.09-.24.19-.29.24-.05.05.07.16.1.21.03.05-.13.17-.11.19.01.02-.07,0-.07,0v.26h-.15s-.03.16,0,.21c.03.05-.03.16-.01.23.01.07-.09.05-.09.16s.05.22,0,.35c-.05.12-.03.28-.19.36-.15.09.03-.14-.15.09-.19.22-.59.64-.59.69s-.12.14-.17.19c-.05.05-.17.09-.24.14-.07.05-.24.1-.24.1,0,0,.02.1-.19.17-.2.07-.39.12-.39.12,0,0-.05.09-.2.09h-.39c-.05,0-.17-.03-.34,0-.17.03-.72.09-.77.09s-.13.05-.27,0c-.13-.05-.32-.09-.49-.1-.17-.02-.17-.03-.39-.09s-.44-.16-.54-.19-.05-.26-.1-.03c-.05.22.13.38,0,.55-.13.17-.15.26-.19.38-.03.12-.05.12-.08.21-.03.09.07.17,0,.22-.07.05-.08.12-.12.19-.03.07-.07.17-.08.28-.02.1-.08.21-.17.24-.08.03-.25-.09-.3,0-.05.09-.12.1-.2.14-.08.03-.34.1-.34.1,0,0,.22.07.34.1.12.03.81.73.81.73,0,0,.12.19.12.28s.08.17.12.24c.03.07.2.12.2.12,0,0,.12-.14.19,0,.07.14.22.24.29.28.07.03.2.12.24.19.03.07.17.17.17.17,0,0,.05.1.07.16.02.05.1.16.19.28.08.12.3.33.34.45.03.12.22.31.22.31l-.05-.24s.08.03.17.24c.08.21.07.28.17.42s.12.14.22.22c.1.09.25.07.32.23.07.16.13.4.19.5.05.1.02.22.08.36.07.14.08.17.08.28s.02.21.02.29.03.4.03.47-.03.36-.03.42-.18.14.02.22.56.26.66.33c.1.07.2.12.35.17.15.05.45.26.45.26,0,0,.22.16.17.09-.05-.07-.27-.21-.13-.24.13-.03.24-.03.29-.03s.02.1.08.17c.07.07.13.14.22.12l.08-.02s.05-.05.13.02.05-.08.17,0c.12.08.25-.05.34.02.08.07.03.04.17.01.13-.03.3.11.37.03.07-.08.1-.15.17-.08.07.07.17.12.24.19.07.07.15.07.2.14.05.07.08.17.03.21-.05.03-.1.05-.17,0-.07-.05-.1-.09-.15-.07-.05.02-.15.1-.15.1l-.12.16v.17l-.03.14s-.15-.12-.15,0,.03.21-.02.31-.08.16-.05.21c.03.05.27.35.3.43.03.09.08.17.15.21l.07.03.07.19s.18.07.27.1c.08.03.1.05.17,0,.07-.05.12-.14.15-.22.03-.09.07-.16.15-.17.08-.02.24-.02.35-.03.12-.02.22-.12.27-.07.05.05.13.17.2.24.07.07.15.16.24.16s.08-.02.12-.09c.03-.07.17-.1.17-.1l.13.02s.13-.05.13.02-.08-.09-.05.17c.03.26.07.43.08.48.02.05-.03.31-.03.31l-.05.16s-.02-.02-.08,0c-.07.02-.13-.05-.22,0-.08.05-.19,0-.19,0l-.12.12h-.25l-.19-.09s-.07-.05-.07-.1-.13-.12-.18-.17c-.04-.05-.11-.14-.13-.19l-.02-.05-.1-.16-.12-.02-.07-.17s-.18.12-.22.17c-.03.05-.13.1-.22.14-.08.03-.32.05-.32.05,0,0-.2-.28-.3-.36s-.3-.42-.3-.42l-.17-.29s-.03-.09-.03-.14-.07-.09,0-.16c.07-.07.13-.16.15-.26l.02-.1-.2-.09s-.02-.1-.07-.24c-.05-.14-.1-.16-.12-.26-.02-.1-.1-.28-.1-.28l-.13.1-.08-.12c-.18.09-.35.24-.35.24,0,0,.07.19.08.26.02.07.03.16.05.21.02.05.02.23.02.23,0,0,.03.09.08.09s.34.17.34.17l.19.16s.05.26.05.31.13.19.19.28c.05.09.12.22.13.31.02.09.02.28.02.36s-.1.21-.13.33c-.03.12,0,.26,0,.26,0,0-.08.21-.02.21s.18,0,.1-.1c-.08-.1.02-.38.02-.38,0,0,.25-.09.3-.1.05-.02.17-.07.24-.03.07.03.12,0,.19.05.07.05-.07-.03.07.05.13.09.2.05.29.12.08.07.17.12.25.17s.08.17.12.22c.03.05.12.17.12.24s.02.24-.02.29c-.03.05-.13.16-.13.21s-.02.12-.07.14c-.05.02-.24,0-.24,0l.17-.19s.07-.12.08-.21c.02-.09.02-.22.02-.22l-.25.07s-.2-.03-.2-.1-.03-.17-.12-.16c-.08.02-.27-.02-.29.09-.02.1-.17.24-.17.24,0,0-.07.12-.08.19-.02.07-.07.1-.12.17-.05.07-.2.14-.2.21s-.03.28-.03.28l-.1.14v-.19s-.02-.1-.12-.17c-.1-.07-.17-.19-.17-.19l-.15.02-.1-.03-.32.14h-.15l-.15-.14-.17.07s-.19-.05-.2-.1c-.02-.05-.07-.19-.07-.19,0,0-.05-.07-.12-.05-.07.02-.13.05-.19.03-.05-.02.12-.03-.05-.02-.17.02-.24.07-.39.07s-.34-.03-.37-.1c-.03-.07-.29-.1-.29-.1,0,0-.08-.03-.17.02-.08.05-.19.12-.22.07s-.27-.28-.27-.28l-.08-.35-.03-.1s-.08-.02-.15-.02-.29-.05-.24-.07c.05-.02.19-.05.29-.07l.1-.02s.24-.07.24-.14v-.26s-.07-.03-.05-.14-.03-.22.07-.33c.1-.1.15-.17.19-.22.03-.05.1-.29.1-.29l-.07-.16-.05-.12.4.16s-.25-.21-.34-.24c-.08-.03-.57-.03-.74-.03s-.27-.03-.45-.03-.39.05-.39.05l-.12.1s-.17.1-.22.12c-.05.02-.13.07-.19.14-.05.07-.18.21-.18.21,0,0-.13.16-.13.09s.03-.22-.1-.24c-.13-.02-.18,0-.3.02s-.13-.02-.34.09c-.2.1-.25.1-.4.19-.15.09-.25.03-.32.14-.07.1-.22.16-.22.22s0,.14.12.19c.12.05.22.14.29.19s.22.14.15.19c-.07.05-.35.1-.4.14-.05.03-.25-.17-.34-.17s-.13.09-.27.02c-.13-.07-.25-.16-.24-.21s.15-.21,0-.14c-.15.07-.44.07-.6.16-.17.09-.27.1-.42.21-.15.1-.07,0-.15.1l-.08.1s-.17.03-.25.07c-.08.03-.12-.09-.08.03.03.12.17.16.12.22-.05.07,0,0-.13.09-.14.09-.19.16-.31.19s-.22-.17-.29-.21c-.07-.03.1-.12-.07-.03-.17.09-.42.17-.42.17,0,0-.03.1,0,.17.03.07-.02.1-.08.09-.04-.01-.13-.02-.18-.03.12.02.24.09.16.19-.08.1-.13.14-.3.12s-.3-.1-.3-.1c0,0,.02.1-.19.21-.2.1-.3.1-.3.1v-.16l.15-.21-.15-.03s-.03.03-.12.19c-.08.16,0,.4,0,.4,0,0-.21.05-.04.1.17.05.37.21.37.21,0,0,.12.16.17.19.05.03.27.16.27.21s-.05.19.07.22c.12.03.07.17.25.22.18.05.77.17.82.22.05.05.25.28.3.29.05.02.24.09.24.09,0,0,.13-.07.22,0,.08.07.15.1.2.19.05.09.13.19.08.22-.05.03-.18,0-.24.12-.05.12.02.21-.1.33-.12.12-.2.17-.29.19-.08.02-.54-.17-.54-.17,0,0,.12-.48.19-.5.07-.02.1-.29.05-.26-.05.03-.12.03-.19.16-.07.12-.13.28-.13.38s.08.33.1.4c.02.07.22.26.22.26l.05.17s-.1.07-.02.16c.08.09.22.22.27.31.05.09.13.17.15.24.02.07.02.28.02.28l-.05.1h-.12l-.05.17s-.05.09-.03.19c.02.1.1.35.13.42.03.07.12.24.18.31.07.07.17.12.27.17.1.05.17.07.3.14s.35.12.44.16c.08.03.34.09.47.21.13.12.27.19.4.28.13.09.49.28.49.28,0,0,.25.05.3,0l.05-.05-.12-.14s.08-.05.13-.07c.05-.02.15-.09.15-.09h.2s0,.09-.05.14c-.05.05-.19.14-.19.14,0,0,.3-.12.4-.17.1-.05.17-.09.29-.12.12-.03.25-.09.3-.07.05.02.17.02.24.03.07.02.2.05.2.05l.2.09s.03-.05.1-.05h.07l.35.02s.12.05.18.07c.07.02.15.03.15.03,0,0,.12.05.22.21s.25.29.25.29l.07.21.05.16h.12l.1-.1s-.05-.14.02-.16c.07-.02.12-.1.12-.1l-.03-.14-.22-.03-.12-.14-.12-.1-.05-.16.17-.17.24-.09s.02.07.03.12c.02.05.02.12.05.17l.03.05.1.16v.16s.08.05.13.1c.05.05.2.1.2.16s-.05.1-.03.17c.02.07.03.29.03.29,0,0-.02.07-.02.12s.03.17.03.17l.13-.14s.05-.05.12-.09c.07-.03.07-.07.1-.12.03-.05-.03-.09.03-.16s.08-.21.08-.21c0,0,.03-.14.08-.16.05-.02.08-.12.15-.12s.13.02.19-.03c.05-.05.03-.1.1-.14.07-.03.22-.07.22-.07,0,0,.08-.09.1-.16.02-.07.08-.12.17-.16.08-.03.08-.09.22-.09s.24.03.24.03l.08-.05s.1-.17.17-.19c.07-.02.17-.05.25-.07.08-.02.12.03.22.09.1.05.3.02.3.02,0,0,.1-.07.15-.14.05-.07.05-.19.15-.22.1-.03.13-.1.15-.16.02-.05.15-.22.15-.22,0,0,.13.02.12.07-.02.05-.05.16-.03.21.02.05.08.16.13.19.05.03.24.17.24.17,0,0-.02.22,0,.28.02.05.17.17.19.26.02.09-.02.19-.03.26s-.02.23-.02.23l-.22.12-.15.1-.25.05s.12.03.12.1-.1.16-.1.16l-.19-.05-.29-.1-.22-.14s-.13.12-.15.17c-.02.05-.02.09-.02.14s-.12.14-.12.19-.02.14-.02.14c0,0-.02-.07.1-.09.12-.02.2.05.29.09.08.03.13,0,.13,0l.02.12s.12.14.15.22c.03.09.08.17.12.24.03.07.08.1.13.17.05.07.08.05.1.16.02.1.02.24.02.29s-.03.16-.03.26v.24c0,.1,0,.21.05.42.05.21.15.5.15.59v.29c0,.05.03.09-.03.21-.07.12-.15.12-.17.21-.02.09-.2.29-.2.29l-.12.12h-.12v.14s.05.02-.05.09l-.1.07-.08.19s-.1-.1-.19,0l-.08.1h-.13s-.03-.03-.12,0-.2.1-.2.1l-.08-.12-.15.12s-.07-.12-.15-.12h-.08s-.17,0-.24.03c-.07.03-.22.09-.22.09,0,0-.03.07-.13,0-.1-.07-.32-.09-.32-.09,0,0,.35-.28.3-.28s-.2-.05-.2-.05l-.05-.09s-.08,0-.13-.02c-.05-.02-.05-.12-.12-.1-.07.02-.17-.05-.17.03s.05.21.05.21c0,0-.08.05-.19.16-.1.1-.22.15-.25.26s-.17.3-.22.37c-.05.07-.15.21-.19.26-.03.05-.32.19-.32.19,0,0-.1-.02-.1,0s-.07.14-.07.14l-.19.14s-.13-.12-.17,0c-.03.12-.19.29-.19.29,0,0-.05-.07-.2,0-.15.07-.32,0-.32,0,0,0-.12.04-.13.03-.02-.01,0-.15-.08-.22-.08-.07-.08-.16-.15-.19-.07-.03.05.02-.07-.03-.12-.05-.27,0-.24-.05.03-.05.07-.21.02-.24s-.17-.07-.15-.14c.02-.07.12-.02.02-.07s-.24-.03-.24-.03c-.08-.03-.08-.17-.24-.21-.15-.03-.2-.03-.34-.03s-.27-.02-.39.03c-.12.05-.27-.02-.35.07-.08.09-.2.09-.25.17-.05.09-.12.19-.12.24s.02.09-.07.19c-.08.1-.13.14-.19.17-.05.03-.12.16-.15.24-.03.09-.24.45-.24.45l-.08.16.24.21-.29-.09-.03.17.03.14-.03.17-.02.12s-.15-.12-.19,0c-.03.12.17.29.17.29l.07.12-.17.09.13.14s.05.05.02.1.05.1.08.17c.03.07.15.19.15.19h.19s.1.29-.08.19c-.19-.1-.4-.23-.45-.24-.05-.02-.17-.12-.17-.19s-.05-.23-.05-.23c0,0,0-.09-.13-.03s-.32.1-.37.17c-.05.07-.15.17-.2.22s-.17.09-.2.19c-.03.1-.07.14-.15.24-.08.1-.25.17-.29.24-.03.07-.13.19-.2.28-.07.09-.13.14-.19.17-.05.03-.15.16-.15.16l-.08.16-.17.12-.08.36s.07.19.08.28c.02.09.1.19.1.24s.07.16.07.16c0,0-.07-.05-.12,0-.05.05-.15,0-.15,0,0,0-.1.12-.15.1-.05-.02.05,0-.05-.02s-.32-.1-.32-.1h-.13s-.17.09-.17.12.13.24.15.33c.02.09.1.21.17.22s.24-.09.25,0l.02.09s-.08.03-.25.09c-.17.05-.37-.05-.42,0-.05.05-.22.13-.19.01s.13-.4.13-.4c0,0-.15-.02-.15.07s-.08.31-.1.54c-.02.22.12.5.12.5,0,0,.07.16.1,0s.03-.22.17-.22.22-.07.29.02c.07.09.19.12.2.19.02.07.02.17-.05.26-.07.09-.19.16-.19.16,0,0-.24-.21-.2,0,.03.21.03.45.07.5s.1.03.2.1c.1.07.08.02.2.1.12.09.13-.1.12.09-.02.19-.07.38-.07.38,0,0-.08.07-.08.16s.07.26.07.26l.08.16s.03-.07.08,0c.05.07.12.12.17.12s.19.03.19,0-.05-.12-.02-.21c.03-.09.07-.22.07-.22l-.05-.1.09-.12c.03-.06.08-.1.08-.1l-.08.1s-.03.08,0,.12c.07.09.13.14.18.19.05.05-.08.09.05.05.13-.03.13-.29.2-.24.07.05.08.1.08.16s-.08.12-.08.12c0,0-.13.1-.12.16.02.05.13.12.13.12l.19.21s.05-.03.05-.12-.19-.05,0-.09c.19-.03.22,0,.32.02l.1.02-.13.17-.2-.12s.03.17,0,.24c-.03.07-.1-.07-.19,0-.08.07-.25.02-.3.12-.05.1-.17.16-.12.21.05.05.25.24.25.24,0,0,.4-.16.45-.12.05.03.1.17.1.17,0,0,.05.23,0,.25-.05.02-.15,0-.15,0,0,0-.06-.05-.12-.09-.07-.05-.14-.11-.12-.08.05.05.25.21.22.28s-.27-.29-.32-.21c-.05.09-.13.17-.08.22.05.04.19.08.19.08,0,0,.1-.05.1,0s-.24.14-.24.14c0,0-.18-.14-.12,0,.07.14.07.4.07.4h-.08s-.02-.16-.17,0l-.15.16-.17.16c-.1.03-.17.16-.22.16s.02-.03-.12,0c-.13.03-.15.14-.15.14l.07.21s.25-.03.34,0,.15.1.25,0,.27-.12.27-.12c0,0,.08.11.05.18-.03.07-.17.19-.17.19,0,0-.08-.05-.13,0-.05.05-.22.12-.22.12,0,0,.13.17.2.29.07.12.15.28.18.33.03.05.12.09.2.14.08.05.29.14.29.14,0,0,.22-.29.25-.35.03-.05.22.02.22-.07s-.07-.4-.02-.4.25-.36.25-.36c0,0-.08-.09.05-.09s.32-.31.32-.31c0,0,.22-.05.27-.09.05-.03.03-.17.02-.29-.02-.12,0-.22,0-.22,0,0,.03-.07-.08-.07s-.24-.14-.24-.14c0,0-.08,0-.22-.05-.13-.05-.24-.12-.24-.12l-.08-.12.2-.36s.12.09.1.17-.22.24-.03.24.32-.05.47,0c.15.05.13.09.27.09s.15-.07.24-.03c.08.03.25.12.25.12,0,0,.05,0,.13.02s.2.07.2.07c0,0,.1.05.2.05h.1s.18.09.25.12c.07.03.13.07.19.14.05.07.12.09.12.17s.05.26.07.31c.02.05.08.1-.19.26-.27.16-.35.22-.45.28-.1.05-.27-.1-.27-.1l-.07-.17s.1-.03.08-.1c-.02-.07-.1-.14-.03-.21.07-.07.15-.17.15-.17,0,0-.1-.07-.13-.14-.03-.07.17-.07-.03-.07s-.27-.02-.34.02c-.07.03-.17.19-.2.26s-.05.17-.13.21c-.08.03-.3-.03-.35,0-.05.03-.12.09-.17.16-.05.07-.27.22-.27.22,0,0,0,.12-.02.19-.02.07-.34.14-.34.14,0,0,.1.19.03.29-.07.1-.07.25-.24.29-.17.05-.15.09-.15.23s.02.14.12.31c.1.17.05.21.12.35.07.14.15.35.2.45.05.1.15.16.3.26.15.1.19.14.24.19.05.05.1.16.02.17-.08.02-.37-.14-.29.16.08.29.02.5.29.59.27.09.67.17.93.22.25.05.29.03.67,0s.61-.02.74-.09c.13-.07.08-.05.34-.14s.24-.12.35-.16c.12-.03.15-.22.22-.19s.13.09.27.09.22-.05.27-.19c.05-.14.07-.35.07-.35,0,0,0-.07.03-.16.03-.09.13-.24.12-.29-.02-.05-.22-.19-.22-.19,0,0-.27-.17-.22-.17s.27.1.27,0v-.28l.13-.14.1-.16s.1.14.12.09c.02-.05.02-.24.02-.24,0,0,.1-.14.12-.19.02-.05.2-.26.25-.33.03-.04.06-.09.09-.15.02-.05.05-.1.06-.14.03-.09.22-.14.22-.14,0,0-.13.55-.19.64-.05.09-.1.12-.19.26-.08.14-.08.16-.15.26-.07.1-.07.19-.18.26-.12.07-.22.16-.22.16,0,0,.12.09.17.17.05.09.17.16.12.24-.05.09-.15.12-.1.24.05.12.2.36.19.17-.02-.19-.05-.28.05-.31s.25-.17.27-.12c.01.04-.09.15-.14.2.03-.03.07-.03-.01.2-.12.35-.13.4-.12.47s.08.17.12.26c.03.09.08.23.08.23,0,0,.05.14.07.33.02.19.17.45.18.59.02.14.08.42.1.48.02.07.08.21.15.43.07.22.13.28.13.36s-.08.21-.08.21l-.1-.09-.1.24s-.08-.02-.08,0-.02.17-.1.17-.15-.1-.15,0,.02.26,0,.36c-.02.1-.03.17-.05.26-.02.08-.14-.04-.13-.1-.06.17-.05.32-.02.48.03.17.18.43.18.43h.13s.22.03.3,0,.19-.16.25-.12c.07.03.24-.06.1.14-.13.19-.34.3-.4.31-.07.02-.15-.09-.2-.1-.05-.02,0-.1-.05-.02-.05.09.1.35.1.52s-.05.33-.05.43.07.26,0,.35-.15.24-.2.26c-.05.02-.03-.09-.05.02-.02.1-.03.28-.03.28h-.15l-.1-.09s-.24-.03-.3-.02c-.07.02-.32.02-.22.1s.07.12.27.16c.2.03.15.02.3,0,.15-.02.29-.1.34.02.05.12.05.31.05.31l.25.09s-.1-.05.05-.16c.15-.1.15-.09.25-.1s-.05-.05.22-.14c.27-.09.4-.14.4-.14,0,0-.2-.21-.15-.24.05-.03.22-.12.42-.19.2-.07.17-.1.35-.17s.2-.14.34-.19.24-.16.24,0c0,.03,0,.04,0,.07.03-.1.08-.19.16-.22.19-.07.27-.1.49-.24.22-.14.47-.28.47-.28,0,0,.13-.09.19,0,.05.09.17.16.13.23s-.2.21-.18.28c.02.07.18.03.18.03l.03.19s.08-.05.13-.03c.05.02.07.1.07.16v.05l.29-.02s.08.23.13.33c.05.1.07.21.12.21s.24-.07.25-.12c.02-.05-.03-.16.05-.23.08-.07.07-.16.13-.22.07-.07.02-.19.1-.19s.25,0,.24.1c-.02.1-.19.29-.12.36.07.07.15-.02.25.03s.2.19.32.4c.12.21.3.5.37.71.07.21.19.64.24.8s.13.26.27.28c.13.02.22.03.34,0s.2-.12.27-.23c.07-.1.08-.16.02-.19s.02-.26-.03-.31c-.05-.05-.12-.09-.15-.24s-.03-.33-.07-.4c-.03-.07-.07-.28-.07-.28,0,0,.08.14.13.14s.2-.12.19-.17c-.02-.05-.07-.21-.07-.21l.12-.24s.03-.03.12-.1c.08-.07.39-.4.42-.45.03-.05.08-.22.13-.22s.08-.35.08-.35c0,0,.17.24.25.28.08.03.29.12.4.12s.19.03.25.17c.07.14.15.33.15.33l.03.21s-.17-.1-.17-.16-.05-.24-.13-.31c-.08-.07-.28-.02-.32-.16-.04-.14-.29-.14-.37-.09-.08.05-.08-.07-.08.05s.07-.03,0,.12c-.07.16-.12.14-.12.28s-.02.28-.05.33c-.03.05-.12.05-.12.14s-.08.1.13.19c.22.09.3.31.35.47.05.16.12.36.27.38.15.02.22.02.5-.09.29-.1.67-.28.79-.31.12-.03.22-.07.39-.16.17-.09.15-.21.37-.24.22-.03-.05.07.22-.03.27-.1.47-.09.52-.22.05-.14.03-.14.1-.26.07-.12.07-.22.17-.26.1-.03.17-.1.2-.21.03-.1.1-.4.1-.4,0,0,.03.28,0,.4-.03.12-.2.43-.2.43,0,0-.12.05-.12.1s.03.17-.03.22c-.07.05-.07.1-.08.24-.02.14-.08.17-.1.24-.02.07,0,.16,0,.16,0,0,.4-.09.32-.02-.08.07-.49.23-.57.29-.08.07-.05.1-.19.21-.13.1-.17.03-.27.21s-.15.29-.3.42c-.15.12-.18.35-.24.52-.05.17-.05.45-.03.55.02.1.13.26.19.26h.25l.2.12h-.2s-.17.02-.22.09c-.05.07-.13.09-.19.09s-.12-.12-.12-.12c0,0-.17.64-.19.93-.02.29-.12.45-.2.85-.08.4-.13.64-.12.71.02.07.02.14.08.17s.13.02.15.09c.02.07-.03.61-.03.61,0,0-.05-.12-.13-.19-.08-.07.12-.28-.07-.22s-.25.09-.35.19c-.1.1-.2.14-.27.14s-.19.21-.19.21c0,0-.05.03-.25.24-.2.21-.34.22-.42.26-.08.03-.2.16-.24.21-.03.05-.22.33-.35.45-.13.12-.29.42-.37.57s-.25.22-.25.4-.02.31.02.43c.03.12.13.14.12.28-.02.14-.03.29-.03.29,0,0-.12-.19-.2-.16-.08.03-.12.12-.24.07-.12-.05-.32-.33-.32-.33,0,0,.29-.24.18-.21-.1.03-.27.24-.29.29-.02.05.08.02-.02.05s-.49.23-.57.28-.15.03-.17.12c-.02.09-.02.1-.19.19-.17.09-.29.12-.29.12,0,0-.08-.16-.25,0-.17.16-.66.35-.72.4s-.25.16-.37.29c-.12.14-.32.26-.37.28-.05.02-.19-.1-.34.12-.15.22-.3.24-.42.38-.12.14-.24.43-.3.55-.07.12-.08.16-.12.26-.03.1-.17.22-.24.36s-.12.26-.12.26h.13l-.1.29s.15-.09.22,0c.07.09.22.22.32.29s.25.16.25.16c0,0-.25.09-.2.12.05.03.17.21.1.23-.07.02-.34-.23-.34-.23,0,0-.17.12-.17,0s.05-.28-.12-.29c-.17-.02-.62-.14-.62-.14,0,.26-.03.4,0,.47.03.07.22.05.2.19-.02.14-.08.17-.12.12-.03-.05-.2-.17-.2-.17,0,0-.07.07-.13-.02-.07-.09-.13-.29-.19-.35-.05-.05-.03.09-.05-.05-.02-.14.05-.16.12-.28.07-.12-.1-.14-.12,0-.02.14-.37-.02-.22-.1.15-.09.29-.12.42-.17.13-.05.13-.23.02-.23s-.24.14-.34.16c-.1.02-.15-.03-.29-.07-.13-.03-.25-.03-.35-.03s-.1-.09.1-.12c.2-.03.44-.16.25-.14-.19.02-.37.21-.56.23-.19.02-.05-.02-.32.02-.27.03-.35.03-.61.14s.03-.24-.44.09-.45.42-.54.43c-.08.02-.19-.02-.35.16-.17.17-.34.38-.34.38,0,0-.15.08-.25.16-.1.08-.2.15-.25.24-.05.09-.2.22-.22.29-.02.07-.35.17-.35.17h.17s.13-.16.13,0,.03.21.03.26-.08.16-.13.19c-.05.03-.2-.09-.2-.09,0,0-.05,0-.17.09-.12.1-.22.1-.29.15-.07.05-.22.09-.24.17-.02.09-.02.24-.02.24,0,0-.05-.1-.24,0-.19.1-.35,0-.35,0,0,0,.35-.39.4-.45-.15.17-.32.21-.47.33-.15.12-.12.02-.34.17-.21.14-.33.25-.34.26.01,0,.03,0-.03.23-.08.31-.13.48-.13.48Z"/>
      <path class="cls-1" d="M120.43,55.63s.03-.03.04-.04c-.04.03-.07.06-.04.04Z"/>
      <path class="cls-1" d="M53.14,46.41s-.05.05-.08.1l.08-.1Z"/>
      <path class="cls-1" d="M52.44,24s0,0,0,0c-.05,0-.03,0,0,0Z"/>
      <path class="cls-1" d="M93.02,48.33s0,.04,0,.07c0-.05.01-.09,0-.07Z"/>
      <path class="cls-1" d="M59.36,56.92c.03-.07.1-.2,0-.03,0,0,0,.02,0,.03Z"/>
      <path class="cls-1" d="M41.74,32.55c-.03.1-.07.09-.08.26-.02.17-.15.28,0,.4.15.12.1.21.23.28.13.07.3.21.3.21,0,0,.25-.09.32-.09s.19-.1.19-.1c0,0,.24-.05.3-.03.07.02.05-.03.22-.02.17.02.77.42.86.5.08.09.34.47.35.57.02.1.08.38.08.45s.32.07.4.16c.08.09.34.26.37.36.03.1.08.59.08.64s-.12.26,0,.28c.12.02.26,0,.26,0,0,0,.15-.26.13-.33-.02-.07-.02-.19.12-.24s.29-.12.29-.12c0,0,.07-.16.25-.16s.59,0,.72.1c.13.1.3.1.34.05.03-.05.39-.52.39-.52,0,0-.3-.21-.39-.28s-.49-.1-.62-.17c-.13-.07-.49-.23-.57-.28-.08-.05-.13-.07-.17-.16s-.07-.19-.24-.28c-.17-.09-.5-.31-.54-.36-.03-.05-.07-.67-.07-.67,0,0-.15-.19-.19-.28-.03-.09-.15-.21-.2-.21s-.27-.07-.27-.07l-.17.07s-.07-.07-.22,0c-.15.07-.39.14-.47.19-.08.05-.24.17-.29.1-.05-.07-.72-.52-.79-.59-.07-.07-.35-.38-.35-.43s.05-.4.05-.4h-.19v.23c0,.07-.1.14-.1.21s.08.16,0,.19c-.08.03-.1-.14-.15,0-.05.14.03-.02-.05.14-.08.16-.1.29-.13.4Z"/>
      <path class="cls-1" d="M35.43,44.87s-.1.09-.1.17.05.23.05.23c0,0,.13-.12.13-.2s-.08-.2-.08-.2Z"/>
      <path class="cls-1" d="M35.73,45.39h-.13l-.18.1s-.04-.05-.09.1c-.05.16-.03.24.09.35s.21.38.33.54c.12.16.17.33.29.42.12.09.15.12.27.12h.34s.02.23.12.26c.1.03.27-.02.15-.16-.12-.14-.29-.52-.37-.48-.08.03-.39.12-.41,0-.02-.12-.11-.21-.18-.3-.07-.08-.32-.43-.34-.52-.02-.09-.08-.26,0-.31.08-.05.12-.12.12-.12Z"/>
      <path class="cls-1" d="M48.5,50.51s-.12.02-.2-.02c-.08-.03-.34-.1-.34-.1,0,0-.13-.05-.24-.05s-.24.05-.24.05c0,0,.13.28.13.4s.02.26.08.36c.07.1.2.14.27.29.07.16.07.17.19.21.12.03.34.23.47.38.13.16.3.24.37.31.07.07.2.16.25.16s.37.21.47.28c.1.07.13.23.22.28s.24.05.24,0-.13-.21,0-.24c.13-.03.35-.16.47-.14.12.02.3.03.3.03,0,0,.12-.07.18-.07s.42-.1.42-.1v-.21l-.2-.12s.05-.09.05-.14-.08-.33-.08-.33c0,0,.1-.02.12-.11.02-.09-.05-.22-.05-.22,0,0,.22-.1.17-.19-.05-.09-.1-.28-.1-.28,0,0,.2-.26.11-.31-.09-.05-.43-.24-.43-.24l-.35.1s-.15-.14-.15-.28.03-.31-.07-.24c-.1.07-.2.09-.3.12-.1.03-.19.14-.25.05-.07-.09-.32-.19-.32-.19,0,0-.15.14-.15.22,0,.09-.34,0-.34,0,0,0-.37.09-.35.16.02.07.1.22.1.22,0,0-.24.03-.29.03s-.17-.09-.17-.09Z"/>
      <path class="cls-1" d="M60.83,36.41c.12-.02.13.15.18,0,.05-.15.19-.25.15-.3-.03-.05-.15-.17-.15-.17l-.12.09s-.15-.03-.2-.09c-.05-.05-.13.04-.13.04,0,0-.13-.22-.13.04s.05.38.15.38.13.02.25,0Z"/>
      <path class="cls-1" d="M61.24,60.37c0,.07-.15.26.02.31.17.05.32.05.39,0s.2-.42.2-.42c0,0,.2-.31.25-.4.05-.09.19-.4.19-.4,0,0-.29.21-.37.24-.08.03-.17-.12-.3,0-.13.12-.22.21-.27.26-.05.05,0,.12,0,.12l-.34-.19s.24.4.24.47Z"/>
      <path class="cls-1" d="M62.93,59.84s-.08.19-.1.26c-.02.07,0,.19,0,.19l.1-.19v-.26Z"/>
      <path class="cls-1" d="M63.3,60.44c0-.14-.07-.38-.07-.38-.05-.03-.15.22-.13.22s.01.07.07.16c.05.09.14.14.14,0Z"/>
      <path class="cls-1" d="M48.03,80.53c.07.05.22.09.34.09s.22-.16.22-.16v-.16c-.15.02-.25,0-.25,0h-.2s-.29,0-.29,0c0,0,.02-.02,0,.09-.02.1.12.1.19.16Z"/>
      <path class="cls-1" d="M47.66,80.45c-.05-.06-.03-.2-.12-.16-.08.04-.15-.05-.24,0-.08.05-.25,0-.25,0,0,0,.22.09.3.16.08.08.15.15.24.16.08.02.07-.16.07-.16Z"/>
      <path class="cls-1" d="M46.97,80.44s-.05-.09-.1-.07c-.05.02-.2-.04-.18.08.02.11.29.11.29.11v-.12Z"/>
      <path class="cls-1" d="M46.68,79.92s-.1,0,0,.1c.1.1.29,0,.29,0l.24-.17s.2.07.15.02c-.05-.05.24-.27,0-.23-.24.04-.42,0-.39-.1.03-.1.17-.19.17-.19l.07-.13c-.05.01-.24,0-.24,0,0,0-.29-.03-.29,0,0,.03,0,.24,0,.24,0,0,.17-.12.14,0s-.14.17-.14.17c0,0,.02.12.07.16.05.03-.07.14-.07.14Z"/>
      <path class="cls-1" d="M46.33,79.64s-.1.06-.2.08c0,0-.02-.31-.08-.29-.07.02-.29,0-.29,0l-.15.14h-.1s-.15.07-.15.17-.08.16,0,.21c.08.05.08.04.1.13.02.09.13.13.16.11.03-.02.15,0,.15,0,0,0,.07-.08.08,0,.02.08.08.1.08.1,0,0,0-.32.12-.21.12.11.13.26.22.2.08-.07.29-.2.29-.2,0,0,.13-.08,0-.08s-.27-.02-.27-.02l-.08-.12h.18l-.05-.21Z"/>
      <path class="cls-1" d="M45.32,80.47s-.11-.1-.18-.1c-.07,0-.17.02-.15.07.02.05.17.19.25.17.08-.02.08-.15.08-.15Z"/>
      <path class="cls-1" d="M41.18,82.33s-.1-.09-.15-.05c-.05.03-.15.26-.15.26,0,0-.13-.09-.2-.09s-.2-.03-.25-.03-.29.17-.39.23c-.1.05-.08.19-.08.19,0,0,.29.14.32.21.03.07.24,0,.24,0,0,0,.08-.14.15-.09.07.05.15.17.22.12.07-.05.34-.26.34-.26,0,0,.1.09.15.09s.02-.14.15-.17c.13-.03.34-.05.34-.05,0,0,.1-.1.17-.09.07.02.2-.16.2-.16l.15.07.19.05.08-.05.12.14s-.02-.16.07-.09c.08.07.24.09.24.03s-.1-.17-.08-.26c.02-.09.08-.21.08-.21,0,0,.08.36.19.38.1.02.05-.26.05-.26,0,0,.22.1.18.02l-.03-.09s.24.07.24.02-.12-.16,0-.17c.12-.02.18-.19.24-.19h.27c.07,0,.1-.03.22-.03h.12v-.19s.15.05.24.05.08-.29.08-.29c0,0,.06.03.13.02.07-.02.17-.19.17-.19,0,0,.15-.22,0-.19-.15.03-.32.26-.32.26,0,0-.02.07-.08.02-.07-.05.05-.07-.07-.05-.12.02-.15.07-.15.16v.09s0,.04,0,.04c0,0,0-.01,0-.04,0-.09-.07-.21-.15-.17-.08.03-.12.14-.12.14,0,0-.1-.07-.15-.07s0,.16-.13.16c-.13,0-.3-.09-.2-.16.1-.07.12-.07.34-.16s.17-.17.27-.19c.1-.02.15-.17.15-.17,0,0,.19.05.22-.02.03-.07.07-.17.07-.26s-.17-.19-.17-.19l-.17.1s.24-.23.07-.2c-.17.04-.19.17-.22.23s-.08.09-.13.12c-.05.03-.25.14-.27.19-.02.05-.2.16-.2.1s.07-.29.07-.29c0,0-.07-.09-.05-.15.02-.06.12-.15.13-.18.02-.03-.03-.21-.03-.21,0,0,.03-.17-.1-.12s-.25,0-.25,0c-.08.03-.27.12-.27.12,0,0-.08-.12-.15-.06-.07.06-.24.06-.24.06,0,0-.12,0-.15.07s-.17.14-.17.14c0,0-.02.03-.07.09-.05.05-.17.02-.15.12.02.1.13.1.13.21s.05.16.08.24c.03.09.07.14.13.12.07-.02.15-.1.24,0,.09.1.23.12.33.17.06.03.15.08.18.1,0,0,0,0,0,0,.03.02.02.01,0,0-.08-.05-.2.01-.2.01,0,0-.12.09-.13.19-.02.1-.19.1-.18,0,0-.1-.13-.29-.13-.29,0,0-.22-.03-.3.02-.08.05-.19-.09-.08.05.1.14.19.24.13.3-.05.06-.3,0-.3,0,0,0-.1-.1-.12-.04-.02.05,0,.16,0,.24s.15.33.15.33l-.16-.09s-.24-.14-.21-.07c.03.07.07.02.05.16-.02.14-.12.14-.19.12-.07-.02-.22,0-.22,0,0,0-.15-.13-.15,0s.1.27,0,.25c-.1-.02-.19-.21-.19-.21Z"/>
      <path class="cls-1" d="M43.4,81.34s.03.02,0,0c0,0,0,0,0,0Z"/>
      <path class="cls-1" d="M36.2,83.99c-.05.02-.25.14-.25.14h.37s.2.1.35,0c.15-.1.37-.12.37-.12,0,0-.19-.19.02-.22.2-.03.3.02.47-.05.17-.07.29-.19.37-.19s.07-.07.19-.17c.12-.1.17-.24.37-.38.2-.14.13-.17.35-.23.22-.06.13-.08.44-.15.3-.07.69-.14.71-.19.02-.05.1-.26.1-.31s.12-.16.17-.21,0-.23,0-.23c0,0-.2-.07-.27-.07s-.18-.09-.18-.09c0,0-.07-.19-.15-.15s-.19-.06-.35,0c-.17.06-.3.02-.45.16-.15.14-.25.16-.29.24-.03.09.05.12,0,.17-.05.05-.19.29-.19.29,0,0,.03.03.08.12.05.09.05.19.05.19,0,0-.02.02-.13,0-.12-.02-.19-.14-.25-.1s-.15.11-.15.11c0,0-.13-.23-.19-.2-.05.03-.1.2-.1.2,0,0-.25,0-.32.11-.07.1-.3.21-.29.26.02.05.12.22.1.28-.02.05-.08.14-.2.19-.12.05-.22,0-.22,0v.29s-.25-.09-.27,0,.08.16,0,.21c-.08.05-.2.09-.25.1Z"/>
      <path class="cls-1" d="M34.54,82.98v-.15l-.08-.07c-.05.11-.12.18-.13.25-.02.07-.1.19,0,.21s.22-.23.22-.23Z"/>
      <rect class="cls-1" x="34.27" y="82.45" width=".13" height=".16"/>
      <path class="cls-1" d="M33.54,83.35c.05-.09.05-.26,0-.27-.05,0-.25,0-.25,0-.05.04-.05-.08-.05.04s.13.22.13.22c0,0,.12.09.17,0Z"/>
      <path class="cls-1" d="M32.98,83.96c.12.02.26-.1.26-.1l-.18-.17-.12-.09s.1.14,0,.21c-.1.07-.08.14.04.16Z"/>
      <path class="cls-1" d="M33.73,83.68c.05.02.05-.01.13.01.08.02.22.09.32.08s.17-.1.15-.21c-.02-.11-.14-.28-.25-.21-.12.07-.25.2-.25.2l-.1-.17-.18-.04s-.03.29,0,.33c.03.03.13-.02.18,0Z"/>
      <path class="cls-1" d="M31.37,84.11c.1.05.34-.15.34-.15v-.18s-.12-.25-.2-.18c-.08.07-.17.09-.17.09,0,0-.07-.07-.1,0-.03.07-.07.04-.12.1-.05.06-.15.08-.15.08l-.1.32.1.09s.24-.03.32-.09c.08-.06-.02-.12.08-.06Z"/>
      <path class="cls-1" d="M29.78,84.27c.03-.1-.12-.23-.12-.23,0,0-.17.19-.17.23s0,.14.08.14.17-.03.2-.14Z"/>
      <path class="cls-1" d="M29.93,83.92s0,0,0,0c0,0,0,0,0,0Z"/>
      <path class="cls-1" d="M30.13,83.92l-.08-.15s-.11.14-.12.15c0,0,.02.01.06.04.08.05.14-.03.14-.03Z"/>
      <path class="cls-1" d="M25.94,84.27c.05,0,.11-.04.11-.04,0,0,.07.08.17.04s.37-.14.37-.14v-.16l-.13-.05-.15-.15s-.05,0-.13,0c-.08,0-.15-.02-.2,0-.05.02-.17.02-.22.09-.05.07-.17.07-.19.17-.02.1-.13.16,0,.18.13.03.24.04.24.04h.13Z"/>
      <path class="cls-1" d="M21.84,83.63h-.32s.22.24.22.25-.02.13.05.17c.07.03.1.03.22.1.12.06.22.1.35.09.13,0,.15-.11.24,0,.08.11.12.13.15.18.03.05.19.12.19.12,0,0,.02-.17.07-.12s.13.12.22.14c.08.02.1,0,.22,0s.25-.03.3.02c.05.05.25.07.32.09.07.02.29,0,.29,0,0,0-.03-.02-.08-.04-.06-.03-.14-.08-.19-.1-.08-.03-.19-.1-.19-.1,0,0-.02.05-.12,0s-.19-.13-.19-.13c-.17.08-.29-.05-.29-.05l-.27-.08-.15-.17-.08-.1s-.12.02-.17,0-.25,0-.25,0l-.13-.1-.15.1-.07-.1h-.08s.05-.15-.1-.15Z"/>
      <path class="cls-1" d="M17.95,82.92s-.27-.07-.19-.02c.08.05.49.03.62.18.13.15.34.22.4.2.07-.02.2,0,.32,0s.17,0,.25.12l.08.12.19-.24s.05.16.13.16.19-.05.2,0c.02.05.03.19.08.19s0-.35.08-.29c.08.05.19-.03.13.17-.05.21.05.27.05.27,0,0,.13-.29.2-.34.07-.05.17-.12.2-.07.03.05.12.16.19.17.07.02.08-.09.17-.07.08.02.19.19.24.16.05-.03.05-.26-.03-.35-.08-.09-.1-.28-.1-.28,0,0,.25.03.34.03s.1-.06.19-.11c.08-.05.3-.13.25-.27-.05-.14-.17-.33-.22-.4-.05-.07-.22-.17-.22-.17h-.22l-.18.1-.13-.05s.02.07,0,.14c-.02.07-.13.1-.13.1h-.24s.12.07.2.16.25.21.25.21v.14h-.37l-.2-.1c.03.14,0,.29,0,.29l-.22-.12-.1-.07s.05.19,0,.19-.19-.02-.25,0c-.07.02-.24,0-.24,0l-.13-.09-.15.09-.29-.11s-.07-.24-.12-.17c-.05.07-.08.16-.08.16l-.19-.09s-.07.02-.13.07c-.07.05-.29.05-.29.05v-.1l-.35.03Z"/>
      <path class="cls-1" d="M15.61,82.56s.06-.06.06-.06c0,0-.06.03-.06.06Z"/>
      <path class="cls-1" d="M15.38,82.36l.14.14s-.07.1,0,.1c.03,0,.06-.02.09-.05,0-.03.06-.06.06-.06,0,0-.02.03-.06.06,0,.01.01.03.06.05.13.05.22,0,.22,0,0,0,.02-.16,0-.21-.02-.05-.04-.16,0-.17s.16-.03.14-.14c-.02-.1.02-.17-.08-.26s-.29-.16-.29-.16c-.05.03-.19.1-.2.16-.02.05-.12.19-.07.26.05.07.27.17.27.17v.1h-.28Z"/>
      <path class="cls-1" d="M16.39,82.54l-.15-.09h-.2s-.03.22.1.18c.13-.04.25-.09.25-.09Z"/>
      <path class="cls-1" d="M16.45,82.93c0-.08-.07-.2-.07-.2h-.18l.09.2s.16.08.16,0Z"/>
      <path class="cls-1" d="M16.96,82.83l-.3-.1-.13.12s-.27.08-.07.08c.2,0,.22-.1.32-.08.1.02.19-.02.19-.02Z"/>
      <path class="cls-1" d="M15.9,82.93c-.05-.07-.19-.2-.19-.2h-.18s-.07.01,0,.1c.07.09.09.05.18.14.09.09.24.03.19-.04Z"/>
      <path class="cls-1" d="M15.04,82.87c0,.07.02.15.12.22.1.07.21.21.22.1.01-.1,0-.35,0-.35l-.22-.12s0,.14,0,.14c0,0-.12-.06-.12,0Z"/>
      <path class="cls-1" d="M14.52,83.23c.08.05.24.12.27,0,.03-.12.08-.31.08-.31l.08-.29h-.19l-.22-.09s-.08.25-.08.29.05.19,0,.28c-.05.09-.03.07.05.12Z"/>
      <path class="cls-1" d="M12.9,82.85s-.07-.05-.15.12c-.08.17-.07.3,0,.26.07-.04.42-.4.42-.4,0,0-.07.35-.07.41s.05.08.12.06c.07-.02.19-.05.2-.07.02-.02.13-.22.13-.22l.13.15.25-.07s.15-.07.2-.08c.05,0,.13,0,.13,0l.08-.18s.05-.25,0-.29c-.05-.04-.17-.01-.17-.01,0,0-.32-.08-.22-.17s.3-.17.3-.21-.1-.17-.02-.2c.08-.03.02-.17.02-.17h-.17l-.12.09s-.17-.09-.24-.09-.19-.09-.19.09v.77s-.15-.16-.2-.18-.15-.26-.15-.26c0,0-.1.14-.08.26.02.12.08.07,0,.18-.08.11-.23.21-.23.21Z"/>
      <path class="cls-1" d="M11.61,82s-.1-.1-.18-.07-.2.07-.2.07l-.18-.16-.1.05-.13.03v.22l.19-.06s.13.04.25.06.66.3.66.3h.15c.1,0,.27.03.3,0,.03-.03.17-.3.17-.3,0,0-.05-.2.02-.21.07,0,.22,0,.22,0,0,0,0-.14.08-.19.08-.05.08-.17,0-.24-.08-.07-.24-.1-.24-.1,0,0-.17.18-.22.34-.05.16.1.04-.05.16-.15.12-.72.09-.72.09Z"/>
      <path class="cls-1" d="M11.85,81.22s-.12.21-.11.19c.02-.02.11,0,.11,0v-.19Z"/>
      <path class="cls-1" d="M9.84,81.57c-.07,0-.21.02-.21.02,0,0,.32.1.3.22-.02.12-.05.05,0,.21l.05.16s.19-.33.25-.33.22.07.23.02c.02-.05-.02-.1.07-.19.08-.09.08-.29.13-.26.05.03.32-.07.44,0,.12.07.12-.12,0-.1-.12.03-.25-.08-.32-.1-.07-.02-.18.1-.22,0-.03-.1-.16-.26-.16-.26,0,0,.23-.28.09-.29-.13-.02-.32.02-.4-.02-.08-.03-.29-.12-.29-.12,0,0-.22.09-.19.16.03.07.19.33.19.33,0,0,.07,0,.12.1.05.1.2.12.25.2.05.08.08.2,0,.25-.08.05-.29,0-.35,0Z"/>
      <path class="cls-1" d="M8.13,80.17c-.07.03-.25,0-.25,0-.08.03,0,.31,0,.36s.13.09.13.09c0,0,.19-.48.12-.45Z"/>
      <path class="cls-1" d="M7.74,81.41c-.1-.1-.15-.19-.15-.19l-.19.13s.18.2.24.22c.05.02.2-.05.1-.15Z"/>
      <path class="cls-1" d="M6.24,82.38v-.09s-.19.08-.2.17c-.02.09.1.17.1.17l.1-.25Z"/>
      <path class="cls-1" d="M6.91,82.3v-.28l-.17-.08s.02.15,0,.23.17.19.17.12Z"/>
      <path class="cls-1" d="M8.24,81.35c-.12-.03-.26-.03-.26-.03-.03.03.02.01.07.1.05.09.19.16.19.16,0,0,.12-.19,0-.22Z"/>
      <path class="cls-1" d="M4.19,77.64c-.1-.07-.18-.07-.18-.07h-.21l-.13.07v.16s-.12,0-.08.1c.03.1-.02.16.08.21.1.05.18.12.24.12s.05.02.19,0c.13-.02.17-.1.17-.1v-.1s.22-.1.19-.08c-.03.01-.19-.11-.19-.18s.03-.05-.07-.12Z"/>
      <path class="cls-1" d="M1.18,78.33c-.1-.05-.37-.29-.37-.29,0,0-.07.1,0,.2s.15.25.22.34c.07.09.15,0,.24.14.08.14.25.31.29.43.03.12.08.4.18.55.1.16.17.29.17.29,0,0-.12.17,0,.17.12,0,.29,0,.29,0,0,0,.03.11.13.12s.13-.12.13-.12l-.1-.22-.32.02s-.02-.09-.03-.14c-.02-.05-.03-.14-.05-.21-.02-.07-.24-.26-.24-.35s-.1-.33-.1-.33v-.17l-.19-.1s.07-.07.03-.12c-.03-.05-.19-.16-.29-.21Z"/>
      <path class="cls-1" d="M1.26,76.59c-.05-.05-.13-.1-.13-.1h-.2s-.19,0-.15.1.15.26.15.26c0,0,.1-.05.18-.09.08-.03.2-.12.15-.17Z"/>
      <path class="cls-1" d="M.27,77.28s.05-.07,0-.22c-.05-.15-.12-.22-.12-.22h-.15s.13.19.17.26c.03.07.1.17.1.17Z"/>
      <path class="cls-1" d="M54.25,75.17s.11-.18.09-.24-.2-.07-.2-.07c0,0-.02.1,0,.18.02.08.08.17.11.13Z"/>
      <path class="cls-1" d="M48.91,80.1c.08,0,.19-.03.19-.03v-.13s-.07-.02-.15,0l-.08.02s-.16.09-.16.1.13.2.13.2c0,0-.02-.16.06-.17Z"/>
      <path class="cls-1" d="M53.82,78.56c.05.06.15-.02.18,0,.03.02.05-.1,0-.12-.04-.01-.11-.02-.11-.06s0-.25-.03-.3c-.03-.05-.09-.12-.21-.08s-.34.08-.34.08c-.02.03-.08.14,0,.2.08.06.12.12.16.13.03.01.06.07.11.06.06-.01.25,0,.25,0,0,0-.04.03,0,.09Z"/>
      <path class="cls-1" d="M55.32,80.29c.09.04.33.1.34-.02.01-.11-.12-.32-.12-.32h-.26s-.2-.12-.22-.17-.36-.28-.4-.27c-.03.01-.2,0-.2,0v.27c0,.06.18.3.22.3s.09,0,.21.03.25-.02.29,0c.04.02.13.01.13.01,0,0-.09.13,0,.17Z"/>
      <path class="cls-1" d="M56.24,77.86c.09-.06.16-.01.12-.21-.03-.2-.03-.23-.07-.25-.03-.02-.19-.06-.19-.06l-.22.14s-.12-.06-.1.09c.02.15.09.18.16.31.07.13.05.24.1.22.05-.02.11-.18.2-.24Z"/>
      <path class="cls-1" d="M57.64,76.8c.02-.06.01-.21,0-.21h-.11s-.15.08-.16.13,0,.13.08.13.17.01.19-.05Z"/>
      <path class="cls-1" d="M58.26,76.49c.06-.03.12-.21.12-.21-.05.02-.22.06-.22.06,0,0-.12-.05-.17,0-.05.05-.17.1-.08.16s.22.09.22.09c0,0,.07-.07.13-.1Z"/>
      <path class="cls-1" d="M58.75,76.5s-.15.06-.15.09.02.02.1.13c.08.1.07.17.13.13s.06-.25.06-.25v-.09h-.15Z"/>
      <path class="cls-1" d="M57.65,77.13c.03.09.01.16.11.07.09-.09.23-.17.23-.17,0,0,.08-.17,0-.18-.08-.01-.26-.13-.26-.13,0,.08.07.18,0,.23-.07.05-.11.09-.08.18Z"/>
      <path class="cls-1" d="M60.38,76.91c.03-.06.16-.12.16-.12,0,0,.07-.2.09-.08.02.11-.09.23,0,.26.09.04.22.08.22.08l.18.07s.21-.25.17-.27c-.04-.03-.19-.12-.2-.18-.01-.07-.02-.23-.05-.24-.02-.02-.06-.16-.06-.16,0,0,.02-.09-.04-.07-.07.02-.14.14-.14.14,0,0-.14-.1-.08-.16.06-.06.17-.1.16-.18-.01-.08-.08-.15-.08-.15h-.17s-.1-.02-.17.07c-.07.09-.13.33-.15.36-.01.02.01.12,0,.16-.01.04.02.1,0,.16-.02.06,0,.15,0,.2,0,.05,0,.35,0,.35,0,0,.13-.16.16-.22Z"/>
      <path class="cls-1" d="M61.13,75.98l-.12-.06c-.06.03-.12.16-.12.16,0,0,.02.09.06.12.04.02.19-.08.19-.08v-.14Z"/>
      <path class="cls-1" d="M61.82,75.99l.12-.07s.12.09.16.08c.03,0,.08-.15.05-.17-.03-.02-.23-.08-.23-.08l-.09-.09s-.1.05-.13.08c-.03.03,0,.22,0,.25s.13,0,.13,0Z"/>
      <path class="cls-1" d="M61.13,76.36c.06.08.13.13.13.13,0,0,.09-.1.15,0,.06.1.16.25.16.22s.02-.22.04-.28,0-.18,0-.23-.04-.1-.09-.08c-.04.01-.16.08-.16.08l-.1-.08s-.17.03-.13.08c.03.05-.06.08,0,.16Z"/>
      <polygon class="cls-1" points="62.37 76.33 62.21 76.28 62.26 76.44 62.42 76.49 62.37 76.33"/>
      <path class="cls-1" d="M58.13,77.25s.14.12.14,0-.14-.26-.14-.26c0,.06.03.1,0,.15-.03.05-.03.11,0,.11Z"/>
      <path class="cls-1" d="M62.88,76.86v-.27h-.09l-.19.13s-.08.08.05.14c.12.05.24.1.24,0Z"/>
      <path class="cls-1" d="M62.07,77.8c-.1.08-.07.1-.16.2-.08.1-.09.19-.09.19,0,0-.12-.13-.15,0-.03.13-.03.39,0,.39.03,0,.18-.06.17-.14-.01-.08.07-.3.07-.3,0,0,.13-.04.13-.04s.04-.12.1-.15c.06-.03.12-.13.12-.13,0,0,.08,0,.1-.05.02-.04.06-.15.06-.15,0,0,.23.08.16,0-.08-.08-.06-.35,0-.29.06.06.09.16.15.14.06-.02.07-.09.11-.14.03-.05.07-.21,0-.21s-.07.21-.11.17c-.04-.04-.11-.12-.08-.16.02-.04-.01-.16-.01-.16h-.06v.22s-.14-.14-.16-.17c-.01-.03-.09-.08-.11-.05-.02.04.13.3.11.36-.02.06-.17,0-.17,0,0,0-.17-.29-.17-.17s.12.29.12.29c0,0-.04.05-.06.05s-.24-.16-.24-.16c0,0-.03.16.11.16s.08.1.08.1l-.19.06.19.06s.07,0-.03.08Z"/>
      <path class="cls-1" d="M62.88,77.74s.19.05.19-.02-.07-.2-.07-.2h-.11s-.15.08-.15.2c0,.11,0,.24.08.24s.07-.22.07-.22Z"/>
      <path class="cls-1" d="M63.5,77.83s-.11-.16,0-.08c.11.08.21.03.21.03,0,0,.03-.3,0-.25s-.13.07-.08,0c.06-.07.09-.28.09-.28,0,0-.06-.02-.05-.11.01-.09.05-.22.05-.22v-.16s-.12.23-.12.23h-.08s.03.1,0,.16c-.03.06-.11.04-.11.1v.2h-.12s.07,0,.04.08c-.02.08-.07.22-.04.25.02.04.2.05.2.05Z"/>
      <path class="cls-1" d="M63.06,78.77h-.33s.06.15.1.16c.03.01.3-.08.3-.08l-.07-.08Z"/>
      <path class="cls-1" d="M63.34,79.22c.07.02.24,0,.24,0,0,0,.06-.14,0-.18-.06-.04-.12-.11-.12-.11l-.07-.08-.05.08s.03.11.02.15-.09.12-.02.14Z"/>
      <path class="cls-1" d="M64.1,77.78s-.26,0-.26,0c0,0-.23.18-.11.22.12.04.18.07.16.1-.01.03-.1.02-.1.08,0,.06,0,.06,0,.11v.05s.12.05.18,0c.06-.05.16-.06.17-.1.01-.05-.12-.24-.12-.24.06-.07.1-.07.12-.11.02-.03,0-.11-.05-.12Z"/>
      <path class="cls-1" d="M64.24,78.77c.09-.06.21-.13.21-.19s.11-.15,0-.13c-.11.02-.13-.03-.13-.03l-.13-.05s-.02.11-.05.15c-.03.05.02.16,0,.2-.02.03,0,.12.09.06Z"/>
      <path class="cls-1" d="M64.24,74.63c.06-.01.19-.15.22-.15s.15-.13.13-.16c-.01-.03-.1-.1-.1-.1l-.13-.12s.01.12,0,.15c-.01.03.07.12,0,.16-.07.05-.18.23-.12.22Z"/>
      <path class="cls-1" d="M65.09,74.05l-.07-.14s-.17.12-.17.18.12.09.17.09.07-.14.07-.14Z"/>
      <path class="cls-1" d="M65.83,74.1c.05.07.21.03.26.09.04.06-.03-.15-.09-.18-.06-.03-.16-.14-.2-.09-.04.05-.15.09-.15.09-.03.05-.08.36-.08.36l.12-.17s.09-.16.13-.09Z"/>
      <path class="cls-1" d="M68.56,72.14c.01-.06-.06-.3-.06-.3-.07.01-.16-.01-.17.07-.01.08.02.18.08.23.06.05.13.06.14,0Z"/>
      <path class="cls-1" d="M70.27,71.15c.11-.02.15-.08.18-.08s.29.03.29.03c-.03-.02-.19-.18-.27-.2-.08-.01-.2.03-.26,0-.06-.03-.2-.06-.25,0-.04.06-.26.15-.15.2.11.05.34.07.44.05Z"/>
      <path class="cls-1" d="M71.28,72.83l-.1-.1s-.08.16-.07.21c.01.05.08.15.12.12s.04-.22.04-.22Z"/>
      <path class="cls-1" d="M71.5,73.75v-.42s-.28.1-.21.21c.07.1.21.3.21.21Z"/>
      <path class="cls-1" d="M74.24,74.23s-.11.16-.16.23c-.04.07-.08.13-.12.15-.04.02-.01-.09-.04.02-.03.12-.01.14,0,.2.01.06.04.09.08.09s.2.06.25.05.07-.1.08-.2c.01-.09.01-.18,0-.25-.01-.07,0-.18,0-.18l-.09-.1Z"/>
      <path class="cls-1" d="M77.41,71.34c.02-.12.11-.24,0-.29-.11-.05-.35-.04-.35-.04-.03.04-.25.24-.25.24,0,0-.15.06-.19.12-.05.06-.09.15-.12.27-.03.12-.09.17-.06.23s.12.15.17.07c.04-.08.18-.3.25-.33.07-.03.27-.11.27-.11,0,0-.05-.24-.05-.28s-.01-.13.05-.14c.06-.01.16.03.16.09s-.13.16-.1.21c.03.05.2.09.22-.02Z"/>
      <path class="cls-1" d="M77.92,71.49s.22-.16.22-.16l.06-.18s.12-.23,0-.21c-.12.02-.35.06-.35.06-.07-.03-.21.04-.24.09-.02.05-.11.08-.1.21.01.13.09.15.17.18.08.03.19.03.24,0Z"/>
      <path class="cls-1" d="M78.53,71.49s.13-.11.18-.16c.04-.05,0-.18,0-.18-.03.04-.07.05-.15.07-.08.02-.1-.1-.18,0-.08.1-.2.16-.2.19s-.03.06.08.06c.1,0,.23.04.27,0Z"/>
      <path class="cls-1" d="M78.39,70.64s-.09-.25-.09-.25l-.13.12s-.1.02-.1.08.07.06.11.06.19.05.2,0Z"/>
      <path class="cls-1" d="M80.2,63.57s-.13-.01-.18.1c-.04.12-.15.24-.13.3.01.06.3.06.38.08.08.02.29.17.37.21.08.03.39.09.39.09,0,0,.16-.05.19-.06.03-.01.22-.06.27-.13.05-.07.02-.28.02-.28,0,0,.18.09.22.01.05-.08.21-.58.21-.58l.04.44s.18-.23.26-.22c.08.01.25.09.3.07.06-.02.12-.13.07-.16-.06-.03-.07-.12-.07-.12,0,0,.04-.16.02-.2-.02-.03-.05-.15.07-.13.11.02.18.1.18.17s0,.13.05.14c.04.01.09.03.11.08.02.05.13.06.21,0s.02-.16.08-.2c.06-.03.12-.05.12-.15v-.55s-.07.23-.11.24c-.05.01-.09.02-.13.08-.04.06-.1.28-.13.24-.03-.03-.03-.29,0-.32.03-.03.11-.3.1-.33-.01-.03-.03-.16-.1-.08-.07.08-.12.13-.16.14-.03.01-.21.01-.21-.03s.01-.17-.03-.21c-.05-.03-.17.06-.17.1s.01.35-.03.35-.1-.27-.15-.24c-.05.02-.16.03-.16,0s.03-.14,0-.16c-.03-.02-.05-.06.01-.17.06-.12.06-.21.1-.25.05-.05.12-.08.15-.2.02-.12.04-.23.07-.3.02-.07,0-.21,0-.21l-.18.13-.1-.06-.11.17s-.15-.17-.18-.12c-.03.06.05.22,0,.25s-.18-.01-.18.08.02.12.06.16c.03.05.19.18.19.18,0,0-.04-.03-.09,0-.04.03-.16,0-.16,0,0,0-.01.23-.04.24-.03.01-.09-.18-.11-.15-.02.03-.1.13-.15.15-.04.02-.12.09-.12.09v.13s.07.05.12.06c.06.01.09.07.09.07,0,0-.21,0-.13.07.08.07.16.36.16.36,0,0-.22-.24-.24-.27-.01-.02-.19-.13-.22-.1-.03.02-.07.13,0,.15.07.02.19.16.19.16l-.43-.08-.1.14s-.16-.05-.07.05c.09.09.49.39.49.39,0,0-.28-.14-.35-.13-.07.01-.27,0-.27,0l-.15.03s.01.24.06.29c.04.05.2.13.2.13h.15v.14l.16.2s-.38-.16-.44-.18c-.06-.02-.28-.3-.28-.3Z"/>
      <path class="cls-1" d="M83.86,63.08s.04-.12,0-.17c-.05-.06-.12,0-.12,0-.01.03-.06.12-.06.15v.22s.01.2.06.09c.04-.1.12-.29.12-.29Z"/>
      <path class="cls-1" d="M82.64,59.59h-.13c-.04.08,0,.23,0,.23l.28-.12-.15-.12Z"/>
      <path class="cls-1" d="M82.07,65.6h0s-.03,0,0,0Z"/>
      <path class="cls-1" d="M76.47,67.35c-.01.07.04.18.07.25.02.07.07.16.1.16s.27-.07.31.06c.04.13.12.22.13.36.01.14,0,.33-.01.5-.01.16-.01.37.01.42.02.05.22.07.27.15.05.08.22.15.27.27.04.12.09.23.08.28-.01.05.08-.05.08-.05l.06-.1.05-.06v-.18s.1.15.14.08c.03-.07.08-.21.06-.29-.02-.08,0-.33.07-.31.07.02,0,.24.02.29.02.05.16.01.16-.06s.12-.32.2-.38c.08-.06.18-.22.22-.23.05-.01.25-.22.25-.22,0,0,.04.09,0,.15-.04.06-.2.16-.25.24-.06.08-.09.09-.12.23-.03.14-.11.28-.09.33.02.06.08.08.13.05.06-.03.12-.45.16-.32.03.13.03.3.01.36-.02.06-.09.09-.18.15-.09.06-.23.13-.27.24-.03.12-.12.08-.16.16-.03.08-.16.43-.16.43h.16s.16-.1.16-.06c0,.05.06.07.12.06.07-.01.24-.06.24-.15s.07-.18.1-.2c.03-.01.03-.14.09-.1.06.03.17.06.17.06,0,0,.21-.24.13-.25-.08-.01-.36.27-.24.06.12-.21.24-.21.24-.24s-.08-.09,0-.09.13.01.18.01.01-.02.07-.09c.06-.07.12-.18.09-.2-.03-.01-.15-.05-.15-.09s.08-.15.03-.17c-.04-.02-.19-.02-.24-.03-.05-.01-.1-.12-.02-.12s.18-.05.29-.02c.11.02.21.15.24.08.02-.07-.03-.17-.05-.22-.01-.05.01-.22.01-.22l-.02-.07s.09.12.09.15.08.18.11.13c.03-.06.07-.15.1-.18.03-.03.09-.1.07-.14-.02-.03-.03-.09.04-.07.08.02.17-.09.16.01-.01.1-.06.18-.11.24-.06.06-.18.14-.15.21.03.07.04.08.06.14.01.06.08.1.08.18s-.07.14.03.16c.1.02.12.03.2-.01.08-.05.07-.33.07-.33,0,0,.12-.1.18-.1s.07,0,.15-.05c.08-.05.18-.09.27-.1.09-.01.25-.03.25-.1s.03-.13-.02-.13-.19-.09-.26-.06c-.07.03-.18.24-.21.17-.03-.07.01-.22-.03-.18-.04.03-.26.16-.26.16,0,0,.04-.18,0-.2-.04-.01-.16-.1-.09-.1s.2.07.38.02c.18-.05.33-.15.29-.23-.03-.08-.07-.27-.16-.2-.09.07-.2.12-.3.06-.1-.06-.07-.23-.07-.23,0,0,.2.13.28.07.08-.06.19-.08.3-.08s.12,0,.11.07c-.01.07.04.14.08.17.03.03.03.15.11.08.08-.07.19-.27.21-.22.02.05-.16.23.05.12s.21-.31.24-.34c.02-.02-.09-.23-.09-.23,0,0-.17-.02-.2-.07-.03-.05,0-.12-.09-.15s-.16-.08-.24-.09c-.08-.01-.35.07-.35.07,0,0,.2-.18.26-.21.06-.02.17-.01.21.01.04.02.09-.01.13-.01s.11.12.17.13c.06.01.17-.01.19.02.02.03.27.08.27.08,0,0,.1-.1.1-.07v.17s.15-.03.22-.03.16.08.16-.05.07-.37.09-.4c.02-.03.29-.24.3-.32.01-.08.09-.2,0-.17-.09.02-.26.06-.29.05-.03-.01-.08-.1-.17-.03-.09.07-.27.2-.27.2,0,0,.06-.22.06-.25s.15-.25.03-.18c-.11.07-.35.29-.28.17.07-.12.2-.37.1-.35-.06.01-.14.01-.18,0h0s-.02,0,0,0c.08,0,.29-.46.29-.46,0,0,.06.05.15.13.09.08.37.17.29.03-.08-.14-.07-.3-.15-.29-.08.01-.35.06-.29-.05s.16-.18.16-.24.08-.14-.01-.14-.22.08-.2,0c.02-.08.11-.23-.01-.25s-.2.18-.2.25-.13.06-.16.15c-.02.09-.07.21-.07.21,0,0-.17-.23-.23-.13-.06.1-.07.27-.07.27,0,0-.09-.17-.13-.14-.05.03-.15.18-.12.29s-.03.27-.08.22c-.04-.05-.12-.17-.07-.29s.19-.23.2-.31c.01-.08.03-.22.06-.24.02-.02.1-.1.1-.1l.02-.15s-.21.02-.24.06c-.02.03-.08.07-.07.1.01.03.14.07,0,.07s-.28-.12-.32-.12.01-.02-.13,0c-.15.02-.55-.12-.55-.12,0,0-.08.09,0,.12.08.02.26.13.3.17.05.05.16.21.16.21l-.19-.05s-.17.03-.13.05c.03.01.01.22-.12,0-.13-.22-.39-.6-.47-.5-.08.1-.26.15-.21.22.04.07.39.29.46.38.07.08.29.29.19.26-.1-.03-.46-.3-.44-.21.02.09.12.24.18.32.06.08.17.31.17.31,0,0-.11-.09-.17-.15-.06-.06-.18-.21-.2-.17-.02.03-.11.13-.1.24.01.12.16.59.02.43-.13-.16-.08-.46-.12-.65-.04-.18-.14-.3-.22-.39-.08-.09-.08-.16-.25-.1s-.19.17-.27.22c-.08.05-.18.14-.21.2-.03.06-.07.31,0,.37.07.06.15.14.3.15.16.01.45.05.5.17.06.13.1.31.1.31,0,0-.13-.1-.2-.18-.07-.08-.2-.13-.27-.12-.07.01-.36-.07-.33.05.03.12.26.39.29.42.03.02.22.13.22.13,0,0-.22-.03-.28-.07-.06-.03-.22-.2-.15-.06.08.14.06.32.07.46.01.14.09.45.17.57.08.12.25.24.25.24,0,0-.39-.21-.43-.32s-.08-.27-.15-.37c-.07-.1-.03-.23-.09-.32-.06-.09.03-.13-.06-.13s-.54-.01-.38-.05.31-.07.31-.18-.08-.36-.08-.36c0,0-.15,0-.34-.02-.19-.02-.3-.09-.37-.02s-.1.13-.16.1c-.06-.03-.06,0-.1.07-.04.07-.11.12-.13.15-.02.03-.16-.01-.19.05-.03.06-.05.16-.08.2-.03.03-.07.03-.12.07-.06.03-.08.09-.13.17-.06.08-.17.22-.17.28s-.03.08,0,.14c.03.06-.01.18-.01.18,0,0-.14-.03-.15.03Z"/>
      <path class="cls-1" d="M79.58,69.51s-.11-.03-.16.05c-.04.08-.08.13,0,.14.08.01.16-.18.16-.18Z"/>
      <path class="cls-1" d="M83.6,58.5s-.13.15-.13.15l.13.07s.09-.1.1-.11c.01,0-.1-.11-.1-.11Z"/>
      <path class="cls-1" d="M84.08,58.86l-.12-.14s-.16-.09-.1,0c.06.09.1.14.1.14h.12Z"/>
      <path class="cls-1" d="M84.52,58.77l.04-.09-.15-.07s0,.16,0,.16.1,0,.1,0Z"/>
      <path class="cls-1" d="M79.85,57.85s.13-.15.13-.15l-.07-.12-.07-.16s-.18.12-.21.13c-.03.01-.12.01-.12.12s-.01.16.05.18c.06.02.25.01.29,0Z"/>
      <path class="cls-1" d="M83.02,52.61c-.01.07-.04.12-.11.16-.07.05-.07.13-.07.13,0,0,.09-.08.17-.1s.11-.1.11-.1c0,0,.1-.15.06-.2-.05-.05.1-.07.12-.15.02-.08,0-.18,0-.18l-.12-.07s-.1.07-.09.17c.01.1.1.12.04.18-.06.07-.1.09-.11.16Z"/>
      <path class="cls-1" d="M86.95,48.93s.11-.24.11-.24c0,0-.1-.15-.13,0-.03.15-.06.23-.09.24-.03.01.1.02.11,0Z"/>
      <path class="cls-1" d="M93.76,52.37s-.08.01-.15.13c-.07.12-.15.15-.15.22s-.09.16,0,.13.25-.18.29-.23c.05-.06,0-.24,0-.24Z"/>
      <path class="cls-1" d="M92.73,54.67c.01.09-.01.2,0,.28.01.08,0,.17.11.15.11-.02.27-.22.34-.22s.12-.09.17-.15c.05-.06.09-.18.17-.14.09.05.15.08.18-.02s0-.3,0-.3c0,0-.14-.06-.09-.12.05-.06.04-.16.18-.15.14.01.15.05.13-.13-.02-.17.08-.57.29-.73.21-.16.31-.38.42-.47s.19-.42.19-.42c0,0-.18.14-.22.16-.04.02-.26.17-.24.09.02-.08.27-.43.2-.42-.07.01-.29.14-.27.07.02-.07.03-.23.03-.23-.1.05-.11.16-.16.2-.04.03-.02.1,0,.14.02.03-.03.09-.03.09,0,0-.03.01,0,.12.03.1.09.1-.01.17-.1.07-.18.1-.21.19q-.03.1-.08.18c-.04.08.04.14-.05.27-.09.13-.14.28-.26.32-.11.05-.1.01-.2.1-.1.09-.22.18-.22.22s.13.05.09.13c-.04.08-.13.01-.15.06-.01.05.09.12,0,.14s-.19-.02-.17.05c.02.07.16.18.16.18,0,0-.11.03-.16.06-.05.02-.15.03-.14.13Z"/>
      <path class="cls-1" d="M92.51,52.91s.13-.05.21-.06c.08,0,.16.07.11.17-.05.09-.16.08-.05.09.11.01.16-.09.19-.21.03-.12-.02-.15-.01-.23.01-.08.1-.12.11-.3.01-.18.01-.35.01-.35,0,0-.24.15-.18.08.06-.08.29-.23.27-.26-.02-.03-.12-.17-.11-.24.01-.07.09-.16.11-.25.02-.09,0-.25,0-.25-.06.06-.22.18-.26.32s.03.24,0,.31c-.03.07-.11.15-.13.07-.02-.08.01-.22-.06-.13-.07.09-.12.24-.11.28.01.03.15.09.11.13-.04.03-.1.05-.11.1,0,.06-.01.1,0,.14.01.03-.1.1-.1.14s.05.18,0,.25c-.04.07,0,.21,0,.21Z"/>
      <path class="cls-1" d="M93.43,50.88s.11-.07.18-.08c.07-.01.23-.25.16-.25-.07,0-.23,0-.24-.06,0-.07-.09-.27-.09-.27,0,0-.18.02-.16.12.02.09.08.17.08.17,0,0,.02.14,0,.23-.02.09.08.15.08.14Z"/>
      <path class="cls-1" d="M92.27,50.79c.06,0,.15-.08.18-.1.03-.02.03-.14,0-.17s-.27-.15-.27-.15c-.03.05-.01.18,0,.25.01.07.03.17.09.17Z"/>
      <path class="cls-1" d="M93.93,49.64c.09-.01.16-.12.16-.12v-.12h-.17s-.12-.01-.2.06c-.08.07-.22.18-.11.17.11-.01.28-.12.28-.12,0,0-.04.13.04.12Z"/>
      <path class="cls-1" d="M95.95,51.3c-.11.05-.13.1-.19.1-.06,0-.13-.04-.19-.05-.06-.01-.11-.18-.16-.05-.04.13-.09.22-.11.27-.02.05-.06.14-.06.18s-.05.12,0,.18c.04.07.17.16.17.16,0,0,.03-.17.12-.16.09.01.25-.13.22-.06-.02.07-.15.23-.22.29-.08.06-.19.14-.19.2s.11.32.13.24.26-.46.37-.51c.11-.05.25-.21.33-.21s.21-.01.21-.01c0,0,.08-.16.11-.21s.08-.16,0-.17c-.08-.01-.13.02-.22.07-.09.05-.24.08-.24.08l-.03-.13s.06-.25-.06-.21Z"/>
      <path class="cls-1" d="M98.85,51.34c-.06.12-.26.22-.26.3s-.07.17,0,.16c.07-.01.05,0,.11-.07.07-.07.14-.39.14-.39Z"/>
      <path class="cls-1" d="M101.12,52.9s-.34.38-.38.45c-.04.07-.17.28-.21.38-.04.1-.06.32-.06.32,0,0,.24-.3.33-.53.09-.23.33-.52.33-.52v-.1Z"/>
      <path class="cls-1" d="M122.69,52.65c-.01-.06-.1-.37-.19-.44-.09-.07-.31-.16-.31-.16,0,.03.18.21.24.3.06.09.28.36.27.3Z"/>
      <path class="cls-1" d="M122.86,53.07s-.17-.09-.17-.09c.02.14.11.35.17.39.06.05.05-.28,0-.3Z"/>
      <path class="cls-1" d="M126.99,57.27c.08.13.22.22.31.31.09.09.18.24.34.43.16.18.27.18.34.25.07.07.22.23.22.23,0,0-.12-.38-.17-.42-.04-.03-.15-.03-.26-.25-.11-.22-.29-.54-.35-.57-.06-.02-.12-.03-.19-.15-.07-.12-.21-.22-.26-.28-.04-.06-.13-.18-.17-.27-.03-.08-.22-.24-.22-.24l-.08-.2s-.11.05-.22.08c-.11.03-.18.05-.31.03-.13-.01-.24-.09-.3-.02-.07.07-.11.14-.24.14s-.16-.09-.29-.22c-.13-.13-.37-.33-.43-.38-.06-.05-.37-.24-.37-.24,0,.05.11.3.15.43.03.13.18.28.25.43.07.15.28.33.34.42.06.08.09.02.16.23.07.21.33.63.44.84.11.21.11.52.13.62.02.1.2.37.28.45.08.08.39.33.39.33l.35-.18s-.2.18-.27.28c-.07.09-.1.15-.05.23.06.08.25.13.31.2s-.11.15-.11.25.13.21.13.21c0,0-.12.13-.13.22-.01.09-.05.18-.01.21.03.02-.03.01.03.15.07.14.07.15.1.23.03.08.12.67.23.6.11-.07.36-.36.38-.4s0-.23,0-.23c0,0,.11-.06.15-.1.03-.05.07-.2.07-.2,0,0,.11.03.16-.07.04-.1.06-.43.06-.43v-.17s-.19-.12-.15-.18c.04-.07.24-.06.33-.05.09.01.18.14.18.01s.11-.24.12-.33c.01-.09-.15-.35-.2-.3-.06.05-.17.16-.18.13-.01-.03-.01-.16-.09-.15-.08.01-.29.01-.26-.03.03-.05.31-.08.36-.1.04-.02.19-.05.19-.05,0,0-.22-.27-.27-.35-.04-.08-.09-.24-.15-.28-.06-.03-.34-.07-.34-.07,0,0,.01-.22-.04-.23-.06-.01-.24-.18-.26-.22-.02-.03-.16-.29-.24-.32-.08-.03-.18.03-.22-.03-.04-.07-.11-.37-.15-.39s-.31-.09-.17-.12c.15-.02.25-.07.19-.12-.06-.05-.09-.08-.09-.13s-.15-.31-.01-.17c.13.14.47.58.55.7Z"/>
      <path class="cls-1" d="M122.89,56.33c.12,0,.19-.13.19-.13,0,0-.13-.1-.19-.1s-.11-.01-.21.05c-.1.06-.04.14,0,.18.05.03.09,0,.21,0Z"/>
      <path class="cls-1" d="M121.98,56.87c.05-.06,0-.22,0-.22-.06.03-.22.06-.22.17s-.06.22.06.17c.11-.05.12-.07.17-.13Z"/>
      <path class="cls-1" d="M121.42,57s-.18.01-.2.12c-.02.1-.12.25,0,.21s.2-.32.2-.32Z"/>
      <path class="cls-1" d="M121.28,57.63c-.08.06-.06.12-.07.2-.01.08-.08.15-.11.28-.03.13-.1.18-.04.29.06.1.05.2.1.33.05.14.21.21.27.27.06.06.08.17.26.23.18.06.29.08.31.13.02.04.08.09.12.11.01,0,.02.01.01,0,.01,0,0,0-.01,0-.02,0-.04,0,.01.11.08.17.21.28.26.31.04.03.13-.08.24,0,.1.08.08.1.19.18.11.08.2.13.33.2.12.07-.11.09-.11.09,0,0,.07.12.15.17.08.06.19.14.28.2.09.06.2.12.27.13.07.01.21-.02.25,0,.03.02.13.2.13.2h-.2c-.11,0-.37-.06-.26.16.11.22.21.37.21.46s.1.21.15.21.16-.13.16,0-.04.24-.09.3c-.05.06,0,.45,0,.45,0,0,.16.06.24,0,.08-.06.34-.07.31-.23s-.02-.54-.06-.6c-.03-.06-.21-.14-.21-.23s-.03-.17,0-.18c.03-.01.06-.14.11-.02.06.12.01.24.12.31.11.06.13-.14.2-.07.07.07.11.17.17.23.06.06.2.13.2.13,0,0,.27.14.28.17.01.03-.06.08-.1.17-.05.09-.19.06-.1.18.09.13.24.22.2.25s-.12.1-.14.16c-.01.06,0,.31,0,.31,0,0,.22,0,.3.06s.1.06.16,0c.06-.06.19-.35.2-.22.01.13.02.43,0,.51-.02.08.06.2.09.18.03-.01.31-.67.3-.55-.01.12-.16.59-.14.62s.1.15.14.16c.03.01.2-.2.2-.2l.18-.06s.01.12-.07.18c-.08.07-.13.12-.11.22.02.1.27.39.3.42.03.02.12.16.2.25.08.09.26.28.26.28,0,0,.11-.07.11,0s.13.23.18.28c.04.05.12.14.16.14h.12s.02.05.08.08c.06.03.08-.18.06-.24-.02-.06-.07-.18-.07-.18l-.03-.21h-.12s.03-.12.03-.31-.07-.23-.16-.45c-.09-.22-.13-.21-.17-.27-.03-.06-.04-.21-.04-.21,0,0,.15-.12.09-.27-.06-.15-.25-.53-.29-.59s-.16-.25-.16-.25c0,0-.12-.36-.22-.48s-.26-.4-.26-.43-.15-.12-.15-.16-.02-.25-.04-.3c-.02-.05-.13-.22-.17-.25-.03-.03-.09-.15-.11-.18s-.21-.01-.24-.08c-.02-.07-.15-.21-.15-.21,0,0,.07-.09.11-.08.04.01.27-.13.24-.17-.03-.05-.17-.2-.17-.2,0,0-.13.13-.29.13s-.52-.06-.55-.07c-.03-.01-.15-.16-.18-.14-.03.02-.38.36-.39.28-.01-.08.21-.37.14-.42-.08-.05-.17-.13-.25-.07-.08.06-.13.36-.26.31s-.2-.15-.2-.21.15-.29.06-.27c-.09.02-.13.12-.29.01s-.21-.03-.26-.15-.29-.33-.24-.31c.06.02,1.01.39,1.18.42.17.02.55.18.67.24s.16.15.29.12c.13-.03.56-.17.56-.21s-.24-.51-.29-.59c-.06-.08-.09-.2-.19-.3-.1-.1-.09-.36-.18-.31-.09.05-.24.09-.34.1s-.07.1-.15.16c-.08.06-.13.1-.13.1,0,0-.13-.07-.26-.02s-.15.13-.17.03-.02-.21-.15-.27-.26-.13-.35-.16c-.09-.03-.1-.05-.33-.13-.22-.08-.78-.16-.48-.15.3.01.92.08,1.05.15.13.07.26.32.44.29.18-.03.17-.05.43-.13.26-.08.38-.14.27-.21-.11-.07-.3-.17-.42-.22-.11-.05-.53-.31-.3-.23.22.08.61.23.63,0,.02-.23-.06-.47-.08-.46-.02,0-.42-.17-.42-.17,0,0-.06-.12-.19-.06-.13.06-.24.03-.34.06-.1.03-.17-.07-.24-.08-.07,0-.11-.03-.13.08-.02.11-.01.1-.08.26-.07.16-.16.14-.16.28s.06.17-.01.22c-.07.05-.08.13-.18.08s-.37-.12-.24-.15c.13-.03.35.02.33-.06-.02-.08.03-.24.04-.39.01-.15.08-.32.04-.4-.03-.08-.15-.22-.26-.18-.11.04-.33.05-.39,0-.07-.05-.19-.24-.21-.18-.02.06-.17.2-.24.36-.07.16-.01.29-.1.24-.09-.05-.29-.18-.32-.08-.04.1-.1-.02-.06.17.04.19.14.37.19.4.05.02.17.08.09.1-.08.02-.21-.1-.29-.18-.08-.08-.29-.37-.29-.37h-.09s-.1.13-.05.2c.06.07.07.06.01.15-.06.09-.02-.06-.1,0Z"/>
      <path class="cls-1" d="M122.11,59.45s0,0,.01,0c.01,0,0,0-.01,0Z"/>
      <path class="cls-1" d="M127.81,62.24s.08.22.13.43c.06.21.07.38.17.43.1.05.21-.03.25.12.03.15.1.3.1.3,0,0,.02-.03.17.05.15.08.18.15.27.15s.07-.24.1-.21c.03.03.1.1.09.21-.01.1.09.24.09.24,0,0,.2.13.13.12-.07-.01-.21.04-.28,0-.07-.04-.3-.22-.3-.16s.08.28.07.39c-.01.12-.02.27.03.29.06.02.26-.03.2.08-.06.12-.13.18-.08.31.06.13.11.32.11.32,0,0,.11-.03.12.05.01.08-.11.09-.02.21.09.12.2.25.2.25l.15.08s.12-.16.07-.23c-.06-.07.01-.16-.04-.25-.06-.09-.11-.16-.15-.16s.04-.13.03-.23-.17-.68-.09-.54c.08.14.13.39.26.62s.24.46.28.38c.04-.08-.05-.48-.06-.53-.01-.05.1-.01.11-.12.01-.1-.06-.25-.13-.29-.08-.03-.26.07-.26-.05s-.03-.3.03-.25c.07.05.24.22.29.15.06-.07-.05-.23-.09-.28-.05-.05-.19-.1-.13-.16.06-.06-.02-.14-.02-.24s-.22-.24-.22-.24c0,0,.17-.09.16-.24-.01-.15-.17-.3-.05-.27s.4.03.4.03c0,0,.11.25.13.33.02.08.17.22.33.16.16-.06.33-.25.34-.26.01-.01-.06-.15.08-.08.13.07.26.18.34.08.08-.1.29-.05.3-.14.01-.09.01-.46.01-.46,0,0,.07.03.21.03s.21-.05.28-.02c.07.02.24,0,.33-.07.09-.07.06-.2.09-.22.03-.02.24-.1.29-.21.06-.1.03-.23,0-.25-.03-.02-.19-.16-.19-.16-.03-.01-.25,0-.31-.06-.07-.06-.21-.21-.25-.22-.03-.01-.1-.08-.19-.1-.09-.02-.2.01-.28-.09-.08-.1-.13-.2-.22-.33-.09-.14-.24-.31-.38-.33-.15-.02-.28.03-.46.09-.18.06-.19.12-.4.12s-.82-.06-.91-.06-.31-.05-.4.05c-.09.09-.31.26-.27.33s.19.17.32.25c.13.08.25.15.36.22s.13.01.11.07c-.02.06-.12.06-.07.15.06.09.06.08.15.12.09.03.17.01.19.06.02.05.03.1-.08.1s-.28-.14-.24,0,.12.32.11.36c-.01.03-.1-.2-.22-.3s-.34-.16-.37-.24c-.03-.08.04-.1-.15-.1s-.51-.14-.45-.02c.06.12.39.28.41.31.01.03-.1-.02-.22-.05-.12-.02-.33-.09-.34-.03-.01.06.11.17.15.23.05.06.17.08.11.13-.06.05-.3-.12-.34-.09Z"/>
      <path class="cls-1" d="M133.21,62.86c.06-.07.15-.14.1-.17-.05-.03-.26-.14-.26-.14,0,0-.09.22-.09.28s.04.22.09.21c.04-.01.1-.1.16-.17Z"/>
      <path class="cls-1" d="M132.43,62.79c-.1.02-.13.03-.24.06-.1.02-.2.02-.27.09-.07.07-.15.22-.15.35s-.08.29.04.29.28.01.29.08c.01.07.15.16.2.18.06.02.16-.09.27-.15.11-.06.33-.08.31-.2-.01-.12-.28-.25-.23-.36.04-.1.07-.29.07-.29-.08-.05-.2-.08-.3-.06Z"/>
      <path class="cls-1" d="M132.22,64.32c.25.09.48.29.37.08-.11-.21-.33-.28-.35-.38-.02-.1-.19-.22-.19-.22-.01.15.09.4.11.44.02.03-.19-.01.06.08Z"/>
      <path class="cls-1" d="M131.06,63.85c-.15.03-.28.04-.37.05-.09,0-.25-.03-.27.11-.02.14.08.27.09.37.01.1.05.24.12.27s.2.07.16.16c-.05.09-.25.13-.16.22.09.09.15.14.09.18-.06.05-.19.3-.22.4-.03.1-.03.35.06.4.09.06.24.13.29.06.06-.07.15-.24.2-.37.06-.13.12-.32.21-.31.09.01.28-.07.25-.03-.03.03-.22.32-.19.38.03.06.1,0,.19-.05.1-.05-.02-.33.1-.05.11.29.33.1.44.13.1.02.16.28.16.33s-.02-.06-.1-.12-.16-.14-.22-.09c-.07.05-.01.15.02.23.03.07-.08.17-.15.21-.07.05-.26.07-.35,0-.09-.07-.37.22-.35.28.02.06.16.05.25.23.09.18.14.3.14.33s.13-.03.13-.07.03-.3.02-.37c-.01-.07-.21-.13-.11-.15s.26-.03.31-.09c.06-.06.13-.18.13-.18,0,0,.15-.29.2-.13.06.16.07.23-.1.37-.17.14-.18.2-.18.3s.07.25.22.28c.16.02.31.13.44.06.12-.08.35-.31.37-.24.02.07-.12.25-.12.36s-.27.09,0,.24c.27.15.49.24.5.28.01.03.26.03.21.12-.05.08-.01.12-.19.1-.18-.01-.45-.08-.5,0-.06.08-.2.18-.13.25.07.07.18.2.18.24s-.18,0-.18,0c0,0-.11-.2-.16-.2s-.15.22-.15.22c0,0-.18,0-.09.08.09.08.11.03.13.09.02.06-.05.27.03.31.08.05.21.08.23,0,.01-.08.16.09.2-.14.04-.23.18-.42.18-.29s.07.36.07.39-.03.17.02.21c.06.03.3.07.25.09-.06.02-.22-.01-.17.12.06.13.3.12.29.25-.02.14,0,.24.07.3s.24.08.27.09c.03.01.11.02.15.09.03.07.07.08.2.23.13.15.31.28.39.31.08.03.08.05.18.1s.24.06.27.06.13-.12.06-.21c-.08-.09-.16-.3-.19-.32-.03-.02-.17-.18-.33-.23-.16-.05-.11-.02-.31-.2-.2-.17-.27-.36-.3-.39-.03-.03-.24-.05-.26-.13-.02-.08-.07-.07-.01-.15.06-.08.08-.13-.03-.22-.11-.09-.22-.06-.28-.2-.06-.14-.08-.28-.08-.28l.26-.21s-.09.12-.09.23.11.13.18.09c.07-.03.24-.39.29-.28.06.12.05.18.2.24.16.06.45.07.45,0,0-.05-.1-.35-.14-.5,0-.02-.02-.05-.02-.07-.01-.04,0,0,.02.07.06.15.18.44.22.46.05.02.19.14.25.2.06.06,0,.18.02.33.02.15-.07.44.09.4.16-.03.16-.35.21-.22.06.13.06.33.09.33s.16,0,.16-.15-.09-.54,0-.32c.09.22.1.43.16.46.06.03.06.01.12.13.07.12.09.1.07.18-.02.08.17.27.21.28.04.01.06.01.19,0,.13-.01.45-.02.45-.02,0,0,.16-.35.13-.4-.02-.06-.03-.25-.1-.32-.07-.07-.16-.01-.16-.12s.03-.32,0-.43c-.03-.1-.12-.38-.17-.32-.04.06-.17.22-.19.28-.02.06-.06.1-.16.1s-.2.09-.18.01c.02-.08.2-.15.25-.29.04-.14-.01-.12.04-.27.06-.15.01-.18.04-.32.03-.14-.01-.4-.07-.44-.06-.03-.07-.18-.12-.13-.06.06-.11.22-.12.29-.01.07-.16.07-.2.06-.04-.01-.19.1-.24.07-.05-.03-.34-.13-.09-.14s.4.01.36-.17c-.04-.18-.18-.33-.24-.37-.06-.04.17-.06-.17-.09-.34-.02-.43.09-.43.09,0,0-.12,0-.18,0-.06,0-.12.02-.11,0s.17-.2.24-.24c.07-.03.22-.15.12-.13-.1.02-.25-.01-.25-.01l-.1-.05s-.1.01-.21.12c-.11.1-.26.58-.24.31.02-.27.18-.42.12-.57-.06-.15.19-.06.33-.05.13.01.37-.03.47.03.1.07.35.12.35.12,0,0-.12-.14-.25-.21-.12-.07-.19.01-.3-.1-.11-.12-.2-.33-.3-.4s-.16-.06-.17.02c-.01.08-.08.24-.13.03-.06-.21-.11-.43-.16-.47-.04-.05,0,0-.1-.12-.1-.13-.43-.37-.54-.43-.11-.06-.46-.27-.5-.28-.04-.01-.26-.03-.3-.03s-.14-.09-.23-.07c-.09.02-.22.15-.29.07-.07-.08-.22-.02-.2-.17s.11-.17.1-.3c-.01-.13-.12-.29-.14-.33-.02-.05-.08-.06-.15-.09-.07-.03-.14-.17-.14-.17l-.1-.05c-.06.03-.22.02-.25.15-.02.14-.08.32-.08.23s.02-.26-.12-.23Z"/>
      <path class="cls-1" d="M134.41,68.05s.02.04.02.07c-.02-.07-.03-.1-.02-.07Z"/>
      <path class="cls-1" d="M129.52,66.76c.07-.15.2-.28.21-.39.01-.12-.08-.28-.08-.28-.06.1-.1.38-.15.42-.05.03-.1.01-.16,0-.06-.01-.18-.08-.17.02.01.1.09.13.11.2.02.07-.02.15.05.16.07.01.11.02.18-.13Z"/>
      <path class="cls-1" d="M130.42,66.49s.18.03.08-.15c-.1-.17-.21-.25-.21-.25-.04.03-.1.09-.05.17.04.08.16.24.18.23Z"/>
      <path class="cls-1" d="M133.47,63.04c-.08-.01-.18-.13-.22-.06-.05.07-.04.17-.1.25-.06.08-.12.19-.12.3s-.09.18-.12.23c-.03.05,0,.25.07.39.07.14.1.4.18.43.08.02.22.14.23,0,.01-.14.23-.25.23-.25,0,0,.09-.07.1.06.01.13.25.18.22.26-.02.08.22.19.21.28-.01.09-.08.22,0,.23.08.01.21-.16.18-.23-.03-.07.2-.18.22-.22s.12-.09,0-.21c-.12-.12-.3-.43-.25-.46.06-.03.16-.13.16-.13l.02-.1s.11.01.13-.13c.02-.14,0-.18,0-.28,0-.09-.04-.42-.1-.51s-.18-.28-.24-.33c-.06-.06-.18.03-.26.05s-.29-.06-.31-.12c-.02-.06-.38-.29-.38-.29-.02.1.16.38.16.47s-.04.16,0,.24c.04.08.13.25.13.25,0,0-.07-.11-.15-.13Z"/>
      <path class="cls-1" d="M135,64.14c-.12-.17-.31-.3-.31-.3-.03.12.06.33.09.37.03.03.09.28.09.28,0,0,.25-.17.13-.35Z"/>
      <path class="cls-1" d="M132.33,67.81c.08-.12.1-.12.09-.24-.01-.12-.02-.21-.09-.25-.07-.03-.21-.05-.21-.05,0,0-.24.16-.18.24.06.08.21.25.28.3.07.05.04.12.11,0Z"/>
      <path class="cls-1" d="M132.67,67.95s-.05-.14-.05-.14c-.06,0-.24.09-.19.14.04.05.04.16.09.15.05-.01.14-.1.15-.14Z"/>
      <path class="cls-1" d="M131.32,68.18c.07-.03.18,0,.2-.09.02-.09.08-.29.08-.29v-.16c-.07.01-.08-.03-.2,0-.12.03-.21.06-.2.1.01.05.15.03.11.13-.03.1-.11.16-.11.26,0,.1.06.08.12.05Z"/>
      <path class="cls-1" d="M131.85,67.67c-.06.09-.06.19-.09.24-.03.06-.08.14-.09.23-.01.09-.06.05-.01.09.04.05.09.17.09.17,0,0-.04-.05,0,.15s.05.24.11.31.13.2.15.1c.01-.09-.06-.45-.06-.45,0,0,.15-.14.19-.19.03-.05.15-.2.13-.25-.01-.05-.11.02-.15,0-.03-.02-.01-.11-.01-.17s-.25-.24-.25-.24Z"/>
      <path class="cls-1" d="M134.15,69.36c.11.06.21.13.25.1s.13,0,.17,0c.03,0,.16.02.13-.06-.04-.08-.02-.22-.06-.27s-.08-.17-.17-.28c-.09-.1-.47-.2-.47-.2-.04.08-.02.16,0,.24.02.08.03.13.09.15.06.02.17.02.12.1-.05.08-.17.14-.06.2Z"/>
      <path class="cls-1" d="M134.99,69.77c-.08-.06-.3-.09-.3-.09,0,0-.18.01-.15.12.03.1.04.24.15.28.11.03.07.02.25.16.18.14.34.3.33.21-.01-.09-.23-.48-.23-.48,0,0,.03-.13-.05-.18Z"/>
      <path class="cls-1" d="M136.09,64.86s.31-.17.33-.13c.01.05-.12.15-.21.23-.09.08-.28.08-.19.19.09.1.21.24.2.33-.01.09.07.24.12.28.06.03.1-.17.06.03-.04.21-.15.48-.15.6s-.01.27-.01.44.07.43.17.54c.1.12.19.36.27.43.08.07.21.1.21,0s-.16-.17-.07-.32c.1-.15,0-.25.05-.31.04-.06.16-.28.21-.27.06,0,.2-.12.18,0-.02.12-.2.21-.2.31s.06.33.13.37c.08.04.2,0,.2.1s-.07.18-.08.24c-.01.07-.06.36-.06.36,0,0,.16.02.18.07.02.05.18-.19.18-.19,0,0,.13.03.2.01.07-.02.19-.12.17-.24-.02-.12-.1-.15-.1-.24s-.08-.27-.12-.32c-.05-.06-.21-.16-.21-.21s.03-.1.1-.18c.07-.08.16-.16.16-.37s-.06-.42.01-.3c.07.12-.01.45.01.6.02.16.07.36.27.26.2-.1.24-.36.24-.48s.02-.55.03-.58c.01-.02-.07-.42-.12-.54-.06-.13-.02-.32-.05-.46s-.24-.43-.33-.54c-.09-.12-.41-.47-.55-.53-.13-.06-.38-.2-.41-.22,0,0-.13-.15-.19-.1-.06.05-.12.12-.21.1-.09-.01-.22,0-.22,0-.06.09-.25.32-.24.35.01.02.08.17.08.17l-.16-.02-.06.2h.29s-.34.08-.35.15c-.01.07.18.22.22.22Z"/>
      <path class="cls-1" d="M138.29,67.51s-.1.08-.08.16c.02.08.14.09.16.13.02.03-.04-.05,0-.08.04-.03-.08-.21-.08-.21Z"/>
      <path class="cls-1" d="M138.07,68.67s.31.14.31.14c0,0,.02-.06.11-.14.09-.08.24-.12.18-.21-.06-.09-.13-.16-.19-.2s-.07-.09-.1-.13c-.03-.03-.08-.13-.08-.13-.05.07-.09.2-.09.2,0,0-.12,0-.17.05-.06.06-.22.15-.2.24.02.09.19.2.23.16Z"/>
    </g>
  </g>
</svg>