<svg xmlns="http://www.w3.org/2000/svg" id="Layer_2" data-name="Layer 2" viewBox="0 0 57.9 95.3"><defs><style>.cls-1{fill:#172d35}</style></defs><g id="_Ñëîé_1" data-name="Ñëîé 1"><path d="m3.2 33.4-1 9L1 52l-1 9.5.4 13 .3 12.4v4.3H1l.2-.1v.2l.2-.3h.4l.3.2v.4l.3-.2v-.3l.2.1q-.1.1 0 .1H3l.8.5s.4-.2.4 0v.3l-.2.1.2.2-.1.2.6-.1v-.3h.4l-.2.4.1.2.5-1.1.1-1.1v-.7h-.1l.2-.2V89l.3-.7-.1-.4-.3-.2-.2-.3h-.2v-.3h.2V87l.2-.1v.7l.3.2.2-.2q.2 0 .3-.4V86l.4-.2v-.5l.5.2.5.2h.7v.6h.2v1l.2.7v.4l-.5 1 .2.3s0 1 .2 1c0 .2.5.6.6.7l.4.1h.1v-.3s0-.5.2-.4.3.4.2.5l-.2.1-.1.3.2.4q0 .2.2.3l.7.5.2.3.3-.1v.2l.3.3v.1l-.3.1v-.3l-.1-.2-.4.6-.5.1h-.4l-.5.2H9l-.4-.1-.2-.2h-.2l-.3.2H8v.2H7l-.3.2v.1l1-.2h2.4l2-.2 1.6-.3.8-.2v-.1h-.2q.2 0 .3-.2v-.2h.3l.4-.2h-.2l-.4.2-.2-.1-.3.1h-.5V93l.3-.3-.2-.1v-.2l-.1-.1.1-.2h-.1v-.2h.2l.2.4v-.2h.3l-.2.6.1.3.1-.2h.2v-.2h.1l.1.3.2-.3h.2l.1-.3h-.1V92l.1-.3.1.1.1.4v-.5h.1s.1.5.2.4l.6-.7V91q0-.2.3-.3l.5-.1v-.4l-.5-.5-.1-.3.1-.1-.2-.5v-.4l.3-.5.2-.2.2-.7.1-.2V86l-.2-.5-.6-.4H16l-.2-.4h-.3l-.5-.5-.3-.7-1.2-1.4-.2-.3.8-1.9-.2-.7h29.7l8.2-.3h4.8l-.3-1-.2-.6V77l-.9-1.2H55v-.4l-.2-.2.2-.8-.3-.8.4-.5v-.6l-.1-.7.2-.7v-.5l.2-.2-.1-.8.3-.8.1-.6-.3-.6v-.9l-.4-.4V66l-.7-.8.1-.7-.2-.7-.2-.3.1-.4v-.7l.1-.7v-.3l.3-.1V61l.4-.6V60l.3-.3v-.4l.1-.5v-1.1l.1-.3-.2-.8.8-1s.8-.2.7-.3l-.2-.2.1-.2.7-.1.2-.4-.1-.1h.2l.3-.4-.8-.7-1-.5v-.3l.2-.3.1-.2.1-.2-.2-.2h.2v-.3l.1-.5-.4-.5L56 49l-1.1-1.4-.3-.7v-.3h-.2l.2-.5-.4-.6-.1-.5v-.3l-.3-.2-.1-.2.3-.4-.7-.6v-.5l.1-.3-.1-.1H53l-.1-.2-1-5.2-.5-3.5-.6-3.4-1-6.1-1.3-7-1.2-6.6-1.6-9.2-.2-.9H26.1L5 0s.7 1.7 1.1 2l.6.2-1.6 13.4z" class="cls-1"/><path d="m1.8 91.3-.3-.2v.2zm1.4 1-.2-.6v.8zm.5.3h-.2l.1.1zm.2 0v.2zm1.5 1.1.3.2-.1-.3-.2-.1h-.1zm-1 .3-2.3.4h.2l1.9-.2H6V94h-.3l-.4-.1h-.1q.2 0 0 0zm1.2.7-.2-.2v.2zm.8.4h-.2v.1zM7 86v-.4.2zm9.3 7h-.1l-.5.2h-.2l-.4.2 1-.2zm-1.3.5h-.2v.2h.3z" class="cls-1"/></g></svg>