<?xml version="1.0" encoding="UTF-8"?>
<svg id="Layer_2" data-name="Layer 2" xmlns="http://www.w3.org/2000/svg" viewBox="0 0 57.85 95.25">
  <defs>
    <style>
      .cls-1 {
        fill: #172d35;
      }
    </style>
  </defs>
  <g id="_Ñëîé_1" data-name="Ñëîé 1">
    <g>
      <path class="cls-1" d="M3.2,33.41l-1.02,8.93-1.13,9.77-1.05,9.39.37,12.91.28,12.47.11,4.36s.22.09.27.05c.05-.04-.03-.08.01-.14.04-.06.12-.15.16-.09.04.06.08.24.08.24,0,0,.07-.33.14-.33s.35.01.35.01l.31.24s.08.13.07.2c-.01.07-.14.19-.04.19s.22-.14.24-.2c.02-.06.03-.28.09-.29.06,0,.14.05.14.11s-.17.09,0,.12c.17.03.44,0,.46.01.02,0,.62.43.72.44.1,0,.39-.15.42-.08.03.07.04.37-.01.42-.06.05-.12.03-.13.09-.01.06.11.11.11.16s-.09.22-.06.25c.03.03.57-.09.62-.14.05-.05-.02-.21-.01-.25,0-.04.08-.11.12-.09.04.02.06.11.09.12.03,0,.1-.16.14-.15.04.01.13.05.06.15-.07.1-.23.2-.22.29.01.09.06.35.11.25.05-.1.48-1.04.5-1.12.02-.08.1-1.11.1-1.11,0,0-.01-.62-.03-.65-.02-.03-.1-.03-.08-.07.02-.04.16-.11.19-.16s-.08-.65-.06-.73c.03-.08.35-.68.35-.71s-.07-.36-.1-.4c-.03-.04-.27-.15-.31-.21-.04-.06-.07-.25-.12-.27-.06-.02-.24.08-.26.05-.02-.03-.06-.27.03-.31.08-.04.12,0,.17-.02.05-.01.05-.16.06-.19.01-.03.1-.14.12-.14s.04,0,.08.04c.03.04-.07.21-.11.28-.04.06.06.33.13.38.07.05.17.19.24.21.06.02.14-.05.2-.14.06-.09.25-.28.28-.43.03-.15-.05-.71,0-.83.04-.12.02-.18.09-.26.07-.08.3-.2.33-.26.03-.06-.1-.44-.03-.42.07.01.28.11.5.19.22.07.35.14.53.16.19.02.69.06.69.06,0,0-.08.08-.08.19s.12.21.15.25c.03.04.02.11.02.11,0,0,.11.04.12.08,0,.04-.03.84.02,1,.05.16.2.56.21.66,0,.09.01.16-.05.35-.06.19-.47.93-.5,1-.03.07.13.19.19.29.06.1.12.95.22,1.09.1.14.49.53.61.59.12.06.31.17.4.17s.11.01.1-.09-.09-.11-.07-.23c.02-.11.16-.48.24-.39s.31.39.26.44c-.05.05-.23.1-.26.14-.03.04-.08.21-.09.29,0,.08.14.31.21.42.07.11.1.19.24.31.15.12.57.44.62.5.06.06.17.27.2.3.03.03.05-.06.1-.1.06-.04.17-.06.24-.03.07.03,0,.14.06.22s.22.19.22.24c0,.05.02.14-.05.17s-.22.12-.24.07c-.02-.05.02-.31.01-.34,0-.04-.04-.2-.1-.16-.06.04-.34.56-.41.58-.07.01-.39.13-.48.13s-.36-.04-.43,0c-.07.04-.35.18-.47.2-.12.02-.62.05-.74.04-.12,0-.28-.14-.32-.16-.03-.02-.15-.2-.24-.23-.09-.03-.19-.01-.23,0-.04.01-.28.15-.27.2.01.05.1.09.1.13s.02.13-.06.11c-.08-.02-.05-.09-.16-.08s-.78.09-.82.11c-.03.02-.24.14-.23.19,0,.04,0,.12.05.12s.85-.19,1.01-.19c.16,0,2.14.04,2.27.04s1.98-.26,2.05-.27c.07,0,1.51-.26,1.64-.3.13-.04.77-.23.8-.25.03-.02.08-.08.03-.11-.05-.03-.22.04-.23.01,0-.02.24-.06.24-.14s.03-.19.03-.19c0,0,.16.07.25.04.09-.04.45-.23.44-.26-.01-.03-.16-.11-.19-.1-.03.01-.28.27-.37.24-.08-.04-.22-.1-.24-.09-.02,0-.23.17-.33.17s-.44-.06-.47-.09c-.03-.02-.06-.06-.02-.14.04-.07.32-.28.3-.31-.02-.04-.16-.11-.16-.14v-.17s-.18-.07-.15-.11c.03-.04.21-.12.17-.14-.04-.02-.18-.07-.18-.09s.03-.13.05-.14c.02,0,.12-.1.15-.07.03.03.2.49.2.49,0,0,.03-.24.12-.23.08,0,.17,0,.17.01s-.16.51-.16.55.06.39.11.34c.05-.05.04-.24.13-.22.08.02.12.1.14.08.01-.02-.01-.21,0-.21s.13,0,.15.03c.03.04.09.25.12.21.03-.04.02-.29.12-.28.1.01.27.1.28.04,0-.06.09-.37.09-.37,0,0-.16.02-.17,0,0-.02,0-.06,0-.09s.1-.05.1-.1c0-.05-.01-.27.03-.24.04.03.13.01.13.07s.08.43.08.35-.03-.49.03-.51c.06-.03.06-.1.1-.04.03.06.1.56.14.53.04-.03.6-.7.61-.76.01-.06.05-.36.05-.36,0,0,.1-.28.25-.33.15-.05.44-.06.52-.14.07-.08.13-.27.07-.34-.06-.07-.53-.42-.57-.47-.03-.05-.14-.26-.13-.3,0-.04.13-.12.15-.17.01-.05-.18-.39-.22-.46-.04-.07-.04-.3,0-.37.03-.07.24-.55.3-.59s.1-.08.15-.14c.05-.06.14-.61.21-.7s.17-.17.17-.24.01-.74,0-.79-.17-.41-.22-.44c-.05-.04-.55-.47-.66-.48-.11,0-.31,0-.34-.04-.03-.04-.13-.26-.2-.29-.07-.03-.32-.08-.35-.09-.03-.01-.4-.34-.42-.42-.02-.08-.27-.68-.31-.74-.03-.06-1.26-1.31-1.27-1.35-.01-.04-.15-.38-.15-.38,0,0,.78-1.77.78-1.82s-.27-.76-.17-.76c.1,0,3.85,0,3.85,0h4.79s6.07.03,6.07.03l6.64.02s6.32-.02,8.32-.09c2-.06,8.16-.2,8.16-.2l4.79-.13s-.22-.85-.2-.96-.26-.49-.28-.56c-.02-.07-.03-.3-.04-.36-.01-.06-.77-1.16-.79-1.18s-.28-.04-.31-.09c-.03-.05-.01-.34-.04-.38-.03-.04-.17-.15-.17-.22s.16-.66.14-.74c-.02-.07-.28-.8-.26-.86.01-.06.34-.4.36-.49.02-.09.13-.43.08-.59-.04-.16-.18-.61-.17-.65,0-.04.27-.64.27-.7s0-.5,0-.5c0,0,.12-.19.12-.23s-.06-.79-.06-.84c0-.05.3-.73.31-.77.01-.04.11-.49.12-.55.01-.06-.28-.59-.28-.59,0,0-.01-.84-.08-.91-.07-.06-.42-.39-.4-.42s.08-.26.07-.29c-.01-.02-.7-.84-.7-.86s.06-.64.06-.68-.16-.67-.16-.67c0,0-.2-.23-.19-.27,0-.04.1-.43.1-.43,0,0-.15-.66-.14-.71.01-.05.19-.7.19-.73s-.12-.23-.04-.26c.08-.03.29-.08.31-.14.01-.06-.05-.25-.03-.29.02-.04.46-.54.47-.58.01-.04-.03-.34,0-.36.03-.03.26-.27.27-.32.01-.05-.06-.36-.06-.42s.2-.44.21-.46c0-.03-.01-1.16-.01-1.19s.11-.17.11-.24-.23-.77-.19-.84c.04-.06.69-.94.77-.96.08-.01.76-.2.69-.31-.06-.11-.18-.14-.18-.21s.05-.16.12-.16c.08,0,.6-.07.67-.14.07-.06.16-.3.15-.37-.01-.07-.12-.14-.08-.16.04-.03.13,0,.24-.06.1-.05.27-.22.25-.27-.02-.05-.65-.59-.79-.69s-1.01-.48-1.03-.56-.03-.26,0-.29c.04-.04.22-.24.26-.31.04-.06.08-.22.1-.23.02,0,.15-.09.11-.12-.03-.03-.27-.15-.18-.19.09-.04.22-.07.2-.13s-.12-.17-.11-.23c0-.06.21-.42.2-.46,0-.04-.47-.45-.48-.55,0-.1-.15-1.12-.17-1.17-.03-.05-1.12-1.41-1.13-1.43,0-.02-.25-.63-.25-.68s.06-.25.06-.25c0,0-.32-.06-.3-.11.02-.05.19-.37.19-.4,0-.03-.31-.6-.37-.68-.06-.08-.1-.44-.09-.46.01-.03.08-.29.06-.3-.02-.01-.3-.09-.37-.19-.07-.11-.09-.23-.09-.25s.35-.31.27-.39-.67-.52-.69-.61c-.03-.09-.02-.42-.02-.42,0,0,.19-.26.19-.31s-.11-.16-.15-.17c-.03-.01-.15.1-.22.02-.06-.08-.09-.11-.09-.14s-.9-5.2-.9-5.2l-.62-3.58-.58-3.35-1.05-6.13-1.23-7.05-1.17-6.53-1.59-9.2-.2-.88h-19.55L5.13,0s.65,1.66,1.09,1.92c.44.27.57.3.57.3l-1.57,13.35-2.02,17.84Z"/>
      <path class="cls-1" d="M1.84,91.28s-.3-.15-.3-.15c0,0-.15.15,0,.15s.3.04.3,0Z"/>
      <path class="cls-1" d="M3.16,92.27c0-.09-.16-.61-.16-.61-.03.04-.1.29-.09.44,0,.14.03.43.09.41s.16-.15.16-.24Z"/>
      <path class="cls-1" d="M3.66,92.55c0-.08-.11-.04-.11-.04-.02.04-.07.09-.06.14,0,.04.08.11.11.07.03-.04.06-.09.06-.17Z"/>
      <path class="cls-1" d="M3.88,92.62s-.08-.1-.08-.1c0,0-.05.09-.06.16,0,.06.03.11.06.09.03-.02.08-.11.08-.15Z"/>
      <path class="cls-1" d="M5.44,93.68c.04.06.24.26.25.18s-.1-.23-.13-.26c-.03-.03-.11-.11-.16-.11-.05,0-.11,0-.11,0,0,0-.08.07-.06.11.02.04.04.09.06.09s.11-.06.15,0Z"/>
      <path class="cls-1" d="M4.4,93.96c-.12,0-2.35.42-2.33.43.02,0,.22.09.27.09s1.77-.28,1.86-.32c.09-.03.78-.07.89-.05.11.02.46.13.55.13s.27-.05.33-.08c.06-.03.04-.08.04-.14s-.1-.09-.1-.09c-.02,0-.22.05-.26.06-.04,0-.27-.09-.33-.12-.06-.02-.15-.06-.16,0-.01.06.25.12,0,.12-.25,0-.63-.03-.76-.03Z"/>
      <path class="cls-1" d="M5.61,94.69s-.26-.21-.26-.21c.04.05.03.24.12.24.08,0,.17.02.15-.03Z"/>
      <path class="cls-1" d="M6.42,95.13s-.04-.11-.04-.11c-.04,0-.2.06-.18.11s0,.13.09.1c.08-.03.11-.08.13-.1Z"/>
      <path class="cls-1" d="M7.09,85.91s.03-.15,0-.19c-.03-.04-.12-.13-.12-.13,0,0-.08.08-.06.16.01.09.04.16.06.21.02.04.1-.02.12-.05Z"/>
      <path class="cls-1" d="M16.25,93.08h-.06s-.42.1-.48.1-.19-.01-.25,0c-.06.01-.52.22-.4.25.12.03,1.11-.23,1.12-.24.01,0,.06-.11.06-.11Z"/>
      <path class="cls-1" d="M15.05,93.54h-.29l-.04.11s.26,0,.33,0c.08,0,0-.11,0-.11Z"/>
    </g>
  </g>
</svg>