<svg xmlns="http://www.w3.org/2000/svg" data-name="Layer 2" viewBox="0 0 94 85.7"><path d="M54.4.7H33L0 0l2.3 21.9.6 5.4-1.3 26.1-.8 16.4h.4s.3-.1.4 0l-.1.2v.3l-.3.3.1.3.3.1h.3l.4.6.6-.4v.4l-.3.2.3.4h.5l.1-.4.1-.1q.3 0 .4.3 0 .1.2 0s.1-.3.2-.4.4-.4.4-.2l-.1.4.1.2.5-.6.3-.1.1.1-.2.5.3.1.4-.1q0-.2.2 0t.2 0v-.2l-.1-.2h-.2l-.1-.1h.2l.3-.2h.5l.1.3h.3s-.3.3-.1.2h.3v.5l.3-.4q.2-.2.6-.2l.4.1q.2 0 .1.1L9 72l.1.2h.4l-.2 10.6v2.3l9.3.2 12 .1 16.5.3H66v-.5q.4 0 .5-.2.3-.2.2-.5l-.2-.4s-1.1-.6-1.2-.8l-.2-.5.3-.4h.3q.4 0 .8.3c.4.3.3 0 .6 0q.3-.2.2-.3c0-.1-.2-1.8 0-2l.5-.3q.4-.3.4-.8L68 79h-.5l-.2.3-.1.5q-.3 0-.4-.2l-.3-.4-.3-1v-.8l.4-.3.5-.8.7-.7V75q0-.2-.3-.3h-.3l-.2.8-.1.5-.6.4-.7.1-.5-.3q-.3 0-.1-.4l.7-.3.6-.3q.2-.1.3-.4t0-.8l-.6-.3h-.3l-.2.2v.7q.1.2-.1.3-.2.3-.5.3-.4 0-.6-.2s-.3 0 0-.2l.8-.7c0-.2.4-.5.2-.7l-.6-.5q-.4-.3-.4-.6v-.7q0-.2.4 0 .3.2.7.2.5 0 .5-.3l.1-.6q0-.2-.3-.5l-1-1q-.2-.4 0-.7t.6-.2.5.2c0 .2.5.5.6.7l.7.3.9-.2q.2-.2.2-.5l-.2-.5-.4-.3-.2.1-.4.2h-.6l-.2-.4c-.1-.2-.2-.8-.1-1 0 0 0-.4.2-.4s.2.2.4.3l.5-.4h.4l.4.4q.3.3.5.2l.5-.3v-.5l-.7-.4-.7-1.1v-.6l.7-.7v-.9l-1.2-.8q-.2-.3 0-.4l.3-.2s.4.4.6.4h.5s.2.5.4.6h.5l.1-.4-.3-.7.3-.2h.3q.1-.3.4-.3l.6-.2.4-1.2s.2-.2 0-.2h-.7l-.7-.5-.3-.5v-.4l.7-.4.7.2q.2.3.6.4.5.1.6-.2.3-.2.4-.5-.1-.4-.4-.4H71l-.5-.1-.6-.7.2-.4.3-.1.6.6q.2.2.5 0 .3 0 .3-.3l.2-1q.1-.4.4-.5l.7.2.3-.2c0-.1.3-.8.2-1l-.4-.6q0-.3.2-.4l.6.2.7-.2s-.2.7 0 1l.3.3.3-.2-.2-.7.2-.5s-.3 0 0-.2l.8-.3q.7-.4.7-.6l-.1-.9-.1-.7c0-.1.1-.7.3-.8l.6-.6c.1 0 .2-.5.1-.6l-.6-.4-.4-.9v-.8l.3-.6.2-.4q.2 0 .3.3t-.2.4v.6q.2.3.4.2c.2 0 .8-.4.8-.5l.5-.8q.1-.2-.2-.4h-1.2c-.1-.1-.6-.3-.6-.5l.1-.5.4-.3-.1-.9.2-.2h.3l.3.4v.5s-.4.3-.3.5q0 .2.6.3.8 0 .8-.3v-.4l-.5-1v-.3q.2-.2.2-.5l-.4-1.2.5-.3.4.4s.1 1 .3 1q.2.2.4 0l.4-.4s.5-.4.6-.3l.6.4.2-.3.1-.4.9-.6.2-.6-.2-.6-.8-.7q-.3-.2-.3-.5v-.8l.6-.2h.9l.6-.3q.3-.2.3-.5V34l.4-.4h.4s.5.4.8.3q.3-.1.5-.4v-.7L86 32l-.2-.8-.3-.5-.5-.2h-.3l-.3-.5.1-.4q.4 0 .9-.3.2-.2.1-.4v-.5l.1-.3.3-.6-.8-.8s-.3 0-.4.2c0 .2.3.8.1.8h-.5q-.2 0-.2-.3l.1-.7.7-.7.3-.6q.2-.2.5-.2t.3.2v.8l.2.4v.4l1.1-.7q.1-.3 0-.8l-.5-.6-.3-.6.1-.7.5-.4h.6l.4.4q0 .3.3.4h.4l.2-.6-.4-.2-.3-.7q0-.3.3-.4l1.4-.8.1-.5q0-.4-.2-.4t-.3.2-.5.2l-.6-.3-.3-.7q-.2-.5 0-.7l.4-.7.4-.1h1.3l.7-.4s0-.5.2-.6q.3-.4.5-.4l.6.1.6-.5-.1-.5-1-.4-.2-.4q0-.3.3-.5.4-.2.6-.1l.7.3h.6q.2-.1 0-.5l-.3-.6-1-.8v-.8l-12.4.4.7-1.2v-.5l.3-.2v-.4l.4-.2v-.3l.5-.2.6-.5v-.5q0-.3.3-.5l.3-.3.4-.4.4-.2.4-.3q.3 0 .2-.2v-.3l.3-.4.5-.3.3-.5q.1-.2 0-.4c0-.1-.4-.2-.2-.3V4l.1-.4q.2-.3.1-.6c-.2-.2 0-.4-.3-.4l-.8-.1-.2-.2v-.5l-.2-.7q0-.2-.2-.3V.3z" data-name="Ñëîé 1" style="fill:#172d35"/></svg>