<?xml version="1.0" encoding="UTF-8"?>
<svg id="Layer_2" data-name="Layer 2" xmlns="http://www.w3.org/2000/svg" viewBox="0 0 93.96 85.72">
  <defs>
    <style>
      .cls-1 {
        fill: #172d35;
      }
    </style>
  </defs>
  <g id="_Ñëîé_1" data-name="Ñëîé 1">
    <path class="cls-1" d="M54.35.69h-21.32L0,0l2.33,21.85.53,5.4-1.28,26.17-.75,16.37.41.1s.21-.23.32-.14c.11.1-.11.1-.11.27s.09.21.06.31c-.04.1-.26.19-.28.29s0,.27.11.29c.11.02.11.08.24.1.13.02.23-.04.28,0,.06.04.34.48.43.54.09.06.51-.35.6-.31.09.04.06.31.06.31,0,0-.34.13-.38.25-.04.12.13.33.3.37.17.04.47,0,.53,0s.11-.35.11-.35c0,0-.06-.17.13-.15.19.02.23.15.32.31.09.15.17.12.24.08l.08-.04s.06-.31.15-.42.38-.37.41-.25c.04.12-.19.48-.19.48,0,0,.08.21.17.15.09-.06.36-.44.47-.54.11-.1.17-.17.28-.17s.24.04.17.15c-.07.12-.3.33-.26.44.04.12.23.15.32.17s.32-.08.38-.14c.06-.06.02-.15.17-.08.15.08.23.25.28.15.06-.1.06-.25.02-.31-.04-.06-.13-.14-.19-.14s-.21.02-.21.02c0,0-.13-.06-.09-.14.04-.08.02-.04.26-.06s.08-.14.28-.15c.21-.02.41,0,.47.04.06.04.13.17.15.23s.26-.04.26-.04c0,0-.28.39-.13.33.15-.06.32-.08.32-.02s0,.5.11.44c.11-.06.13-.27.23-.36.09-.1.38-.27.6-.23.23.04.32.1.41.17.09.08.15-.08.09.08-.06.15-.26.08-.26.17s.09.16.15.18c.06.02.39,0,.39,0l-.19,10.63-.04,2.28,9.33.17,12.09.19,16.46.25h18.82s-.04-.5.13-.52c.17-.02.3,0,.41-.14.11-.14.3-.33.24-.52-.06-.19-.11-.31-.19-.39-.07-.08-1.18-.64-1.28-.81-.09-.17-.17-.35-.13-.5.04-.15.15-.39.21-.41.06-.02-.06-.15.32-.08.38.08.53.29.79.33s.38.1.62-.02c.24-.12.26-.08.26-.27s-.21-1.72-.06-1.87c.15-.15.24-.19.47-.41.23-.21.45-.5.43-.75-.02-.25.02-.41-.11-.46-.13-.06-.39-.12-.47-.06-.08.06-.21.21-.23.35-.02.14-.02.52-.11.58-.09.06-.32-.14-.41-.25-.09-.12-.26-.25-.3-.42-.04-.17-.28-.75-.28-.91s.02-.46.02-.56-.11-.21.04-.33c.15-.12.26-.14.39-.31.13-.17.32-.66.51-.79.19-.14.56-.44.62-.64.06-.19.06-.39.02-.52-.04-.14-.11-.31-.32-.31s-.24-.1-.3.02c-.06.12-.13.52-.15.73-.02.21.04.37-.11.54-.15.17-.38.31-.58.37-.21.06-.47.21-.69.14-.23-.08-.43-.17-.56-.27-.13-.1-.17-.27-.11-.39.06-.12.41-.31.75-.39.34-.08.54-.17.64-.27.09-.1.21-.19.26-.41.06-.21.17-.62.02-.73-.15-.12-.53-.29-.66-.35-.13-.06-.24-.14-.28-.08-.04.06-.19.14-.19.25s.08.64.04.75c-.04.12.08.15-.13.33-.21.17-.3.25-.49.25s-.54-.08-.62-.15c-.08-.08-.28-.1-.08-.25.21-.15.79-.5.88-.69.09-.19.36-.46.23-.69-.13-.23-.39-.31-.6-.56-.21-.25-.38-.21-.39-.58-.02-.37,0-.6.06-.64s.04-.27.26-.12c.22.15.43.37.73.33.3-.04.49-.23.54-.33.06-.1.11-.42.09-.58-.02-.15-.13-.42-.28-.58-.15-.15-1.01-.81-1.11-1.04-.09-.23-.06-.46.06-.58.11-.12.39-.31.58-.25.19.06.39.08.51.23.11.15.51.5.66.64.15.14.43.35.69.39s.68-.15.84-.25c.17-.1.3-.29.24-.48-.06-.19-.15-.41-.24-.5-.09-.1-.24-.31-.34-.31s-.17.04-.24.1c-.08.06-.17.19-.43.23s-.45.04-.56-.08c-.11-.12-.17-.12-.23-.33-.06-.21-.13-.85-.11-.97.02-.12.06-.42.23-.42s.24.21.45.27c.21.06.21-.31.47-.37.26-.06.28-.15.39-.02.11.14.23.27.41.39.19.12.26.25.45.21.19-.04.49-.25.53-.31.04-.06.09-.35,0-.46-.09-.12-.6-.39-.69-.42l-.71-1.14.11-.54s.56-.69.58-.75.13-.31.11-.46c-.02-.15-.13-.35-.17-.41-.04-.06-1.03-.75-1.11-.87-.08-.12-.23-.25-.09-.37.13-.12.34-.21.34-.21,0,0,.49.39.62.41.13.02.51-.04.51-.04,0,0,.17.6.38.66s.45.12.49.04c.04-.08.19-.33.17-.42s-.36-.6-.28-.69c.08-.1.08-.19.23-.21.15-.02.23,0,.36-.1.13-.1.11-.25.36-.27.24-.02.64-.17.64-.17l.39-1.18s.19-.21-.04-.23c-.23-.02-.53.08-.69-.02-.17-.1-.62-.35-.71-.5-.09-.15-.3-.19-.32-.41-.02-.21.02-.44.09-.46.07-.02.39-.31.64-.35.24-.04.53.1.69.17s.3.44.66.44.41-.1.6-.21c.19-.12.32-.44.32-.56s-.28-.33-.34-.37c-.06-.04-.38-.12-.49-.08-.11.04-.47.14-.66.1-.19-.04-.36.04-.51-.17-.15-.21-.53-.69-.53-.69l.15-.41.28-.08s.54.58.66.66c.11.08.24.15.51.02.26-.14.21-.14.3-.37.09-.23.09-.75.19-1.02.09-.27.15-.41.39-.46.24-.06.54.17.64.21.09.04.21.02.32-.17.11-.19.28-.85.24-.98-.04-.14-.43-.6-.43-.69s-.02-.33.24-.35.49.14.62.14.68-.19.68-.19c0,0-.21.75-.11,1.02s.43.33.43.33c0,0,.24-.17.21-.27-.04-.1-.13-.6-.11-.68.02-.08.13-.5.13-.5,0,0-.26-.06,0-.14.26-.08.43-.17.83-.37.39-.19.69-.44.69-.58s-.11-.64-.13-.85c-.02-.21-.09-.62-.09-.75s.15-.69.28-.79c.13-.1.62-.52.69-.6.08-.08.11-.54.08-.6-.04-.06-.53-.27-.64-.44s-.38-.71-.36-.83-.09-.71-.02-.81c.07-.1.23-.46.28-.6.06-.14.17-.46.17-.46,0,0,.34.12.34.33s-.13.31-.17.46c-.04.15-.15.46,0,.58s.23.25.39.21.77-.48.83-.58c.06-.1.47-.66.47-.79s.09-.27-.17-.33c-.26-.06-1.2-.08-1.29-.12-.09-.04-.58-.25-.58-.41s.06-.35.17-.5c.11-.15.38-.27.38-.27l-.15-.89s.02-.19.21-.21c.19-.02.36-.04.36-.04,0,0,.24.39.26.44.02.06,0,.5,0,.5,0,0-.36.29-.3.44.06.15.23.31.56.31s.73-.19.79-.31c.06-.12.11-.14.06-.34-.06-.2-.51-1.01-.51-1.01,0,0-.04-.19.08-.37s.23-.31.15-.46c-.08-.15-.47-1.12-.43-1.18.04-.06.39-.35.47-.29.08.06.39.33.41.41s.15.97.3,1.02c.15.06.34.14.39,0,.06-.14.28-.41.39-.44.11-.04.58-.37.68-.27.09.1.56.33.56.33,0,0,.11-.14.17-.31.06-.17.13-.35.13-.35l.86-.58.19-.62s-.04-.5-.11-.62c-.08-.12-.73-.52-.84-.66s-.38-.27-.32-.5c.06-.23-.04-.75.11-.87.15-.12.47-.21.53-.21s.73.04.83.04.47-.21.62-.25.28-.41.3-.52c0,0,.08-.42,0-.64-.07-.21-.08-.42.03-.54.12-.12.34-.39.44-.42.09-.04.24-.14.32-.1.08.04.58.44.79.39.21-.06.43-.29.51-.44.07-.15-.02-.48,0-.66s-.28-.64-.28-.81-.09-.6-.17-.81c-.07-.21-.36-.5-.36-.5l-.43-.19s-.3.14-.36,0c-.06-.14-.24-.42-.26-.54-.02-.12-.08-.33.11-.41.19-.08.66-.08.86-.21.21-.14.17-.33.17-.44s-.11-.39-.09-.46c.02-.08.19-.39.19-.39l.28-.6-.79-.71s-.38-.02-.41.17c-.04.19.3.75.09.75s-.45.02-.53,0c-.08-.02-.26-.17-.23-.27.04-.1,0-.64.15-.73.15-.1.66-.64.71-.68.06-.04.23-.54.32-.62.09-.08.24-.23.43-.19.19.04.32,0,.36.25.04.25-.06.62.02.81.08.19.15.33.15.39s-.06.21-.06.21l.14.21s1.02-.68,1.06-.77c.04-.1.15-.6,0-.81-.15-.21-.51-.46-.58-.58-.08-.12-.24-.39-.24-.56s.09-.6.13-.69c.04-.1.21-.35.45-.39s.32-.14.56-.04c.24.1.34.25.41.41.07.15.23.37.36.42.13.06.38.06.41,0,.04-.06.21-.62.21-.62,0,0-.38-.14-.47-.25-.09-.12-.32-.5-.32-.64s.13-.33.3-.44c.17-.12,1.35-.81,1.41-.83.06-.02.17-.29.15-.46-.02-.17,0-.35-.17-.39s-.23.12-.38.21-.3.17-.43.15c-.13-.02-.53-.15-.62-.29-.09-.14-.36-.35-.36-.64s-.06-.58,0-.73c.06-.15.32-.58.47-.66.15-.08.3-.17.36-.14.06.04.32.1.38.08.06-.02.11-.1.36-.1s.47.02.53.02.66-.29.73-.39c.07-.1.04-.48.21-.64.17-.15.3-.33.47-.35.17-.02.56.1.66.08.09-.02.58-.37.58-.46s-.06-.52-.13-.56c-.08-.04-.99-.29-1.03-.35-.04-.06-.17-.21-.13-.41.04-.19.15-.41.32-.52.17-.12.47-.17.58-.15.11.02.39.19.68.31.28.12.47.17.58.12s.21-.37.11-.56c-.09-.19-.24-.41-.39-.58-.15-.17-1.01-.83-1.01-.83v-.81l-12.4.39.68-1.22.02-.44.32-.21.08-.42.28-.23.11-.31.39-.12.6-.54s.08-.29.13-.48c.06-.19.06-.41.21-.52.15-.12.13-.15.32-.33.19-.17.23-.31.36-.35.13-.04.32-.14.45-.23.13-.1.23-.25.36-.29.13-.04.28-.02.26-.17-.02-.15-.13-.21-.04-.33.09-.12.24-.37.32-.42.08-.06.45-.17.51-.31.06-.14.08-.27.23-.44.15-.17.13-.29.04-.42-.09-.14-.38-.21-.24-.35.13-.14.02-.41.04-.5.02-.1.11-.15.13-.33.02-.17.26-.56.06-.68-.21-.12-.09-.31-.34-.31s-.53-.14-.71-.19c-.19-.06-.21-.1-.28-.19-.08-.1-.02-.23-.02-.46s-.11-.54-.17-.69-.11-.25-.19-.31l-.08-.06v-.27l-29.58.31Z"/>
  </g>
</svg>