<?xml version="1.0" encoding="UTF-8"?>
<svg id="Layer_2" data-name="Layer 2" xmlns="http://www.w3.org/2000/svg" viewBox="0 0 70.76 85.72">
  <defs>
    <style>
      .cls-1 {
        fill: #172d35;
      }
    </style>
  </defs>
  <g id="_Ñëîé_1" data-name="Ñëîé 1">
    <path class="cls-1" d="M3.67,63.07l-.03.57s-.03-.23-.25,0c-.23.23-.6.36-.78.36h-.7l-.43-.28-.28.54s-.15.34-.25.6c-.1.26-.4.65-.48.67-.08.03-.3.13-.3.13v1.53l-.18.16,2.52,1.11,17.11,7.07,16.23,6.32,6.77,2.61,3.15,1.27,12.28-.18,12.71-.23-.33-14.75-.25-11.36-.28-11.08-.2-10.74-.23-9.32-.2-9.27-.38-15.97-.11-2.48h-32.81l-24.83-.35-.34,12.01s.09.1,0,.21c-.09.1.06-.16-.09.1-.15.26-.3.72-.43.85-.13.13-.33.21-.33.21v.36l-.33.88h-.35l-.48.23-.4-.16-.2-.36-.45-.18v-.44l-.68-.85-.43-.05-.35.28-.33-.26-.4.18v-.34l-.33.05-.55-.03-.38.18-.23-.13-.55.41-.75.18-.15.23s.18.23.18.36v.13l.15.36-.15.23s-.28.34-.18.41c.1.08.2.16.2.28v.28l.2.26.1.39.4.49-.45.36s.1.18.08.28c-.03.1-.2.34-.2.34l.18.72s-.2.67-.1.85c.1.18.2.28.2.36s-.1.31-.08.44.38.65.38.65l-.05.23-.23.16s.25.54.2.7-.28.28-.28.39.83,2.48.83,2.48c0,0,.15,1.86.18,1.94.03.08.13.41.13.49s-.13.8-.13.8c0,0-.53.05-.6.13-.08.08-.2.08-.2.18s.25.28.25.28c0,0,.2.1.2.23s-.35.62-.35.62l-.03,2.41.53.57s.4.96.43,1.04c.03.08.88.91.88.91l.2.6-.05.16.15.26.03.26s.23.1.18.18c-.05.08-.1.31-.1.31l.3.31.28.67s-.13.91-.1,1.01c.03.1.2.16.2.16h.38s.38.31.4.39c.03.08.15.26.15.26l.38.21.33.44s.35.16.5.23c.15.08.48.54.48.62s.1.75.1.75h-.35l-.7.85-.13.23-.53.19h-.15l-.35.4-.43.16s-.05.23-.2.23-.6.13-.6.13l-.25.41s0,.88-.08.91c-.08.03-.33.16-.33.16l.13.21-.5.47-.33.13-.1.39.23.34-.1.13s.2.28.2.36v.08l-.35.21.1.41s-.02.16-.02.23.2.8.2.8l-.03.28.13.57-.45.28s-.1.16.03.23l.13.08s-.15.41-.15.52-.05.41-.05.41l-.08.16s.18.36.05.52c-.13.16-.3.34-.3.34l-.15.31s-.28.13-.38.21c-.1.08-.43.91-.45.98-.03.08-.38.23-.38.23h-.73l.2.6.05.41-.38.67.18.28.38.13.13.23-.18.21s.13.36.13.44-.03.78-.08.85c-.05.08-.38.6-.38.67s.03.36.03.36h.18l.3.83.23-.18.33.18s.13.16.28.13.3,0,.3,0h.63s.2.88.28.88.23-.16.25,0c.03.16.03.39.03.39l-.18.23.23.36-.13.96-.73.7Z"/>
  </g>
</svg>