<svg xmlns="http://www.w3.org/2000/svg" data-name="Layer 2" viewBox="0 0 70.8 85.7"><path d="M3.7 63v.6s0-.2-.3 0q-.4.4-.8.4H2l-.4-.3-.3.6-.2.6-.5.6-.3.2v1.5l-.2.1 2.5 1.2 17.1 7L36 82l6.7 2.6 3.2 1.2 12.3-.2 12.7-.2-.4-14.7-.2-11.4-.3-11-.2-10.8-.2-9.3-.2-9.3-.4-16-.1-2.5H36L11 0l-.3 12v.3l-.5.9-.3.2v.3l-.4 1h-.3l-.5.1-.4-.1-.2-.4-.5-.2v-.4l-.6-.8h-.5l-.3.2-.3-.3-.4.2v-.3h-.9l-.4.2-.2-.2-.6.4-.7.2-.2.3.2.3v.1l.1.4-.1.2-.2.4.2.3v.3l.2.3.1.4.4.4-.4.4v.3l-.2.3.2.7s-.2.7 0 .9l.1.4v.4l.3.6v.3l-.3.1.2.7-.2.4.8 2.5.2 3.2s-.6 0-.6.2l-.2.1.2.3.2.3c.1.3-.3.6-.3.6v2.4l.5.6.4 1 .9 1 .2.5v.4l.1.3.2.2-.1.3.3.3.3.7-.1 1 .2.1h.4l.4.4.1.3.4.2.3.4.5.3c.2 0 .5.5.5.6v.7h-.3L8 42v.2l-.6.2h-.2l-.3.4-.4.2-.2.2-.6.1-.3.4v1l-.4.1.1.2-.5.5-.3.1-.1.4.2.3v.2l.1.3v.1l-.3.2v.7l.3.8v.8l-.4.3s-.1.1 0 .2l.2.1-.2.5v.4l-.1.2s.2.3 0 .5l-.3.3-.1.4-.4.2-.4 1-.4.2h-.8l.2.6v.4l-.3.7.2.2.4.2.1.2-.2.2.2.4-.1.9-.4.7v.3H2l.3.9.2-.2.4.2H4l.3 1q.1-.2.2 0v.4l-.1.2.2.3-.1 1z" data-name="Ñëîé 1" style="fill:#172d35"/></svg>