<svg xmlns="http://www.w3.org/2000/svg" id="Layer_2" data-name="Layer 2" viewBox="0 0 81.5 95.2"><defs><style>.cls-1{fill:#172d35}</style></defs><g id="_Ñëîé_1" data-name="Ñëîé 1"><path d="M.9 14H.6L0 15.8l.2.5.2.7-.1.6L1.5 19q.3 0 .6.3l.2.4.1.4h.2s.8 1 .8 1.2l.2.5.4.2c.2.2 0 1 .1 1.2l.3.4v.8l.2.5-.4 1v.3l-.1.7.2.4v.4l.1.3v.5l.4.4.3 1-.1.6-.2.4h-.1l.1.5.5.5.4.5.2.2.5.7.5.3c.1.1.6 1.2.8 1.3l.7.8.8.5.5.8v.7l.3-.1.3.2.2.3v.4h.3v.3l.7 1-.7-.8-.5-.7.2.5v.4l-.3 1.2-.1.3.4.1-.1-.1.3-.3-.2-.2h.1V40l.2-.2-.1.2h.2l-.2.3h.1l.3.3q.3 0 .4.2l.3.3.2.3.3.3v.1h.6l.5.5.4.3q.1.2.3 0l.2-.3-.3-.3h.5c0-.2-.4-.3-.4-.4q-.2-.1-.1-.3h.2v-.2l.2-.2-.3-.4V40q-.1-.2 0-.4h.5l.2-.4c.2-.2.6.3.7.4q0 .4.3.4h.1l-.3-.7V39l-.2-.2.1-.4.1-.1v.5l.1.1v.3l.1.1.1.4.2.4h.3l.3.2.2-.1.3-.4.3-.5.2-.3-.2.4h.3l.2.1-.3.3h.1l.3.1h.4v.2h.7l.4-.1.3-.3.3-.4.2-.4-.1.7-.2.3-.5.2v.2h.3l.4-.3.1-.2.5-.1h.3l.1.2.2.1.4.3h.3-.7l.2.2q0 .1-.2 0l-.2-.3h-.2v.3h-.3v-.3l.3-.2h-.7l-.1.3-.2.2h.1l-.1.2-.9-.1-.7-.2-1-.2-.5.2-.3.2-.3-.2-.4-.1-.3.2-.2.2H15v.2l-.3.3h-.2l.2.3.2.2h.1l.4.2v.6l-.1.2q-.1.1 0 .2l.1.2.4.2h.2l-.1.3.2.3q0-.2.1-.1.2.1.3.4l.1.7.2.6q0 .3.2.3t.4.2v.2h.4l-.5.2-.4-.2-.2-.4h-.3l-.1-.1v-.2H16v-.1h-.2v-.2q-.1-.1-.2 0l-.2-.1-.2-.2H15l-.1-.3-.1-.1v-.8h.1v-.2l.1-.5-.1-.4-.6-.1-.1.2q0-.1-.1 0v1.9l-.1.4.2.6.2.1.2.6.3.7v.7q-.1.4 0 .8l.1.4.2.2.2.4.4.3.7.8q.3.5.6.5l.5.1h.7l.2-.2.4.1c0 .2.6 1 .6 1l.2.6-.3 1.3-.2.5-.2.2-.3-.2h-.2q-.2.1-.2.4l.2.4.1.2-.2.1.5 1.8-.1.3.5.5q0 .2.3.4.4 0 .8.4t.5.8l.4.7.6.4.4.8q0 .4.2.6c.2.2.8.6.8.8l.4 1.2 1 .3.7 1q.1.3.6.7l.8.2.3.5v.2h.1l.1.3v.1l-.2.2v-.4l-.2.5v.5l.3.4.6.4h.6q.4.1.5.4V71l-.1.8.1.2.2.2.1.3-.2.8.3.6c0 .3-.4 1.2-.3 1.3l.3.3h.3q.2 0 .4.3l.4.5.1.3 1.1-.3H34q.5 0 .8.3l.5.2h.7l.6.2.2-.3q.5-.2 1 0l1.3.8.5.4q.3 0 .5.3l.3.9.3.3.6.3h.3l1.1.6h.6l.4.2.3.2.4-.2 1.4-.2.5.1.6.6.3.8.2.5v.4l-.2.3.2.2h.4l.4.3.2-.1.1-.2.3-.1.2-.2.6.1.3.2.5.6s.4.4.6.4l.3.2q.2-.1.3-.4v.4l.5.4.5.4.5.6h.3l.5.5.5.4 2 2.4c0 .2.5 1 .5 1.3l.3.8v.5q-.2 0-.2.2l.1.4.3.2q.1-.2.2 0 .1.1 0 .1l-.3.3v.4l.4-.2h.3l.4.2v.6q.1.3.2.2l-.1.2-.3-.5q0-.3-.3-.5h-.2l-.2.1.4.2.3.4.2 1 9-1.5L78 91.8l.2-.2h.6l.8-.3v-.4l.4-.5v-.7l-.2-.2v-.4h-.2l-.1-.5-.5-.1-.4.1-.3-.1v.1l-.3-.5h-.2L78 87v-.3l-.1-.2v-.2l-.5-.4.3-.4-.2-.6.6-.2.3-.9.5-.6-.1-.3.1-.2V82l.2-.3-.2-.3V81l-.2-.8.1-.3-.1-.3h.1l-.2-.3v-.2l.6-.5-.2-.2h.2v-.7l.2-.2.3-.2.4-.2.3-.3.4-.3.4-.7.3-.1-.2-.5-.3-.4-.4-.1-1-.8h-.3v-.7l-.3-.5-.2-.1.1-.2-.3-.5-.2-.5-.7-.5-.3-.7-.4-.3v-1.3L68.3 61l-9-7.7-8-7-8.5-7.6-8.5-7.5-1.2-1V26l-.3-8.3-.1-6.7-.2-7.1-.1-4H1.8V1l-.3.7V2q0 .2.2.3l.3.1.2.4.3 1.5.2.1.2.2h-.3l.1.8-.1 1.2L2.3 8l-.2.7-.2.1v.8h.2l.2.3v.5l-.3 1-.2.4-.2.4-.2.3v.1l.3-.3.3-.7h.4l.1.2-.3.3h-.3l-.4.8v.5L1 13l.3-.4v-.2l-.7 1.2.2-.2v.4Zm30.4 67.2h.5l-.3-.4h-.2v-.2l-.6.4h.2zm1.2.2.3.6q0 .3.3.2l.3.1.9-.4h.2l-.1-.5H34l-.2-.1v-.4l-.4.2-.4-.1-.2.2h-.6z" class="cls-1"/><path d="m35.2 81.3.2.2 1 .1.5-.2.5-.2h.4l.3-.4-.4-.2-.3.4h-.5l-.7-.4h-.4l-.4-.1h-.5v.1l.3.3zm3.9 7.7-.2-.3-.5-.2h-.6l.2.4.7.2zm3.2-2.8H42q.1.1.2 0m5.4.5-.8-.3h-.2l-.4-.2h-.4s.1.4.3.4h.5l.1.2v.7l.4.3h.6l.4.1v-.3l-.4-.7zm-.7 5.9.4.2.2.2.3-.2h.3c-.2-.2-1-1-1.2-1l-.5-.7q0-.3-.3-.4H46l.5 1 .3.5z" class="cls-1"/></g></svg>