<?xml version="1.0" encoding="UTF-8"?>
<svg id="Layer_2" data-name="Layer 2" xmlns="http://www.w3.org/2000/svg" viewBox="0 0 111.17 84.44">
  <defs>
    <style>
      .cls-1 {
        fill: #172d35;
      }
    </style>
  </defs>
  <g id="_Ñëîé_1" data-name="Ñëîé 1">
    <g>
      <path class="cls-1" d="M4.07,82.17s-.34.88-.31,1.07c.03.19-.03.82.03.91.06.09.18.28.18.28,0,0,0-.59.06-.69.06-.1.37-.4.43-.52.06-.13.14-.55.22-.55s.73.23.82.23.29-.15.33-.21c.04-.06.08-.34.08-.34l-.02-.17s.55.06.73,0c.18-.06.24-.21.24-.21l.16-.25s.18-.17.2-.23.16-.5.24-.5.12.08.18.19c.06.1.08.4.08.4l.22.31s.24.04.35-.06c.1-.1.14-.4.2-.44.06-.04.14-.15.24-.1.1.04.22.21.22.29s.04.36.04.36l-.24.36s-.45.23-.49.29c-.04.06-.22.36-.14.4.08.04.31.02.55-.02.24-.04.49-.25.51-.31.02-.06.51-.8.51-.8,0,0,.16-.42.22-.44.06-.02.51-.17.51-.17,0,0,.14-.42.14-.5s-.08-.38-.08-.38c0,0,.45-.08.53.04.08.13.29.92.49.96.2.04.29.02.35,0s.16-.59.16-.59c0,0-.2-.27-.2-.36s-.12-.34-.02-.34.69,0,.75-.02c.06-.02.18-.4.18-.4,0,0-.14-.88-.02-.92.12-.04.63.27.63.27l.24.63s-.1.29.04.17c.14-.13.33-.5.39-.42s.16.61.24.61.33-.08.31-.15.2-1.17.37-1.22c.16-.04.37-.04.37-.04l.02.36.53-.19s.04-.38.14-.36c.1.02.33.06.35.13s.12.21.18.25c.06.04.26.08.26.02s-.02-.82.04-.8c.06.02.06.23.18.21.12-.02.45-.38.45-.38l.18-.67.57.19.24-.27-.1-.17v-.34l-.2-.23s-.14-.73-.06-.73.22.08.22.08l.16-.06.12.4s.08.21.16.19c.08-.02.12-.34.2-.27.08.06.12.17.12.29s-.02.4-.02.4l.24-.13.47-.69.94-.21.06-.29-.55-.25s.02-.5.1-.5.98.55,1.08.48c.1-.06.45-.31.45-.31,0,0,.06-.44.16-.42.1.02.94.23.94.23l.1-.19s.24-.17.39-.21c.14-.04.47.02.55-.04.08-.06.49-.31.61-.38.12-.06.22-.4.29-.42.06-.02.35-.23.45-.23s.84.73.84.73c0,0,.27.13.33.13s.53-.15.59-.25c.06-.1.73-.63.75-.69.02-.06.47-1.09.47-1.09,0,0,.16.08.31.08s.37-.27.47-.34c.1-.06.37-.59.37-.59,0,0,.43-.34.55-.4.12-.06.35-.31.37-.21.02.1.08.21.02.36-.06.15-.53.88-.53.88,0,0-.04.19.02.27.06.08.12.19.16.13.04-.06.39-.67.49-.76s.35-.34.51-.42c.16-.08.47-.21.47-.21l.02-.46-.24-.34s-.1-.23.06-.27c.16-.04.18-.13.24-.1.06.02.33.34.33.34,0,0,.2.06.31.06s.29-.1.29-.1c0,0,.1.5.14.57.04.06.12.23.24.29.12.06.29.08.35.08s.06-.04.29-.04.14-.13.22,0c.08.13.12.23.1.29-.02.06-.14.15-.22.15h-.29l-.06.15s.06.13.27.25.77.13.94.1c.16-.02.63-.13.77-.17.14-.04.8-.25.8-.25l.06-.23-.35-.31-.18-.17s0-.42.06-.5c.06-.08.2-.19.37-.27.16-.08.73-1.15.86-1.32.12-.17.33-.36.51-.42.18-.06.47-.15.59-.23.12-.08.59-.94.59-.94l.35-.1s.67.69.71.63c.04-.06-.02-.17.12-.21.14-.04.82-.1.82-.1,0,0-.02.15.1.15s.41-.08.43-.15c.02-.06.39-.57.41-.63.02-.06-.06-.36.14-.44.2-.08.51-.21.59-.34.08-.13.29-.8.43-.82.14-.02.57,0,.57,0,0,0,.14-.15.24-.27.1-.13.37-.71.47-.8.1-.08.53-.46.61-.48.08-.02.9-.36,1-.4.1-.04.73-.78.73-.84s-.04-.31-.16-.29c-.12.02-.57.06-.53-.08s.06-.46.12-.48c.06-.02.71-.48.71-.48,0,0,.33-.61.39-.65.06-.04.45-.42.73-.48.29-.06.41-.13.51-.19.1-.06.2-.19.2-.19,0,0-.08.63-.22.73-.14.1-.45.21-.47.29-.02.08-.12.73-.12.8s.04.84.04.9.43.84.43.84l-.04.29s-.31.21-.33.29c-.02.08-.12.31-.08.38s.57.42.67.4c.1-.02.24-.06.39-.02.14.04.35.1.47.06.12-.04.59-.1.82-.23.22-.13.65-.84.71-.84s.45-.21.45-.1.16.46.16.46l.22.13.14-.17s.22-.9.29-.9.1.13.31.13.59-.1.59-.1c0,0,.08.13.08.19s.02.21-.04.25c-.06.04-.41.4-.41.4l.06.21s.06.15.16.08c.1-.06.22-.06.37-.15.14-.08.16-.38.16-.38,0,0,.77-.27.86-.34.08-.06.29-.29.29-.29,0,0,.22-.17.31-.15.08.02.49.15.53.15s.67-.29.77-.29.33.06.35.19c.02.13.04.36.04.36,0,0,.12.15.24.13.12-.02.35-.15.43-.13.08.02.04.13.16.27.12.15.24.13.39.04.14-.08.12-.15.29-.13.16.02.18.23.41.21.22-.02.65-.44.67-.29.02.15.04.27.04.38s-.16.29-.16.29l-.16.17s.14.36.24.31c.1-.04.47-.19.53-.19s.37.13.43.04c.06-.08.27-.71.37-.69.1.02.14.08.2.08s.16-.06.18-.17c.02-.1-.04-.44.12-.61.16-.17.39-.17.39-.17,0,0,.02-.25.12-.23.1.02.33.23.41.25.08.02.39.06.63.02.24-.04.65-.19.77-.23.12-.04.27-.15.37-.15s1.14.1,1.35.1h.96c.24,0,.41-.02.47-.02s.41.13.47.15c.06.02.45.38.53.48.08.1.65,1.11.88,1.03s.47-.21.47-.21c0,0,.1-.71.16-.76.06-.04.49-.29.55-.36.06-.06.14-.38.22-.27.08.1.1.23.12.29s.04.55.04.55l.53.23s.16-.46.26-.52c.1-.06.22-.27.35-.31.12-.04.71-.38.8-.38s.84.29.9.25c.06-.04.77-.8.84-.8s.53-.13.53-.13c0,0,.98.23,1.08.23s.37-.13.61-.13.69-.02.77.02c.08.04.35.25.39.34.04.08.24,1.03.41.99.16-.04.53-.27.63-.27s.2.08.37.06c.16-.02.24.02.45-.13s.39-.23.57-.25c.18-.02.45-.13.45-.13,0,0,0-.34-.1-.34s-.33-.02-.47-.02-.41.1-.47.13-.14.08-.2.04c-.06-.04-.16-.13-.16-.19s.08-.46.2-.46.31.08.47.06c.16-.02.26-.06.41-.13.14-.06.04-.34-.04-.42-.08-.08-.1-.17-.22-.17s-.55.17-.57.08c-.02-.08-.1-.19-.1-.25s-.02-.36.14-.36.31.06.35,0,.24-1.09.24-1.09v-.88c0-.27-.45-1.15-.53-1.24-.08-.08-.29-.27-.29-.27,0,0-.04-.08-.18-.06-.14.02-.51.15-.51.15,0,0-.33-.29-.33-.36s0-.63-.04-.78c-.04-.15-.14-.31-.16-.38-.02-.06-.16-.21-.16-.27s.04-.31.04-.31l.16-.25s.08.25.12.36c.04.1.2.29.2.29,0,0,.18.13.2,0,.02-.13.04-.34.04-.34l.35-.38s-.12.42-.08.55c.04.13.45.94.45.94,0,0,.06.1.27.19.2.08.31.06.47.23.16.17.53.38.57.55.04.17.16.48.12.69-.04.21-.04.57-.1.78,0,0-.14.48-.14.65s0,.38.08.5c.08.13.2.15.24.29.04.15.1.21.14.27.04.06.2.08.24.15.04.06.35.42.39.52.04.1.02.71.14.8.12.08.69.13.84.08.14-.04.92-.17,1.04-.21.12-.04.77-.31.9-.31s.65.06.77.04c.12-.02.67-.69.73-.76.06-.06.1-.36.1-.36,0,0,.63-.17.71-.15.08.02.16.17.22.17s.33-.17.39-.15c.06.02.33.42.33.42,0,0,.31.1.35.21.04.1-.12.34.12.34s.43-.02.49-.13c.06-.1-.06-.73-.06-1.01s.04-.99.04-1.05.41-.44.55-.44.94-.02.94-.02c0,0,.2.23.22.42.02.19.06.36.12.48.06.13.31.31.31.31l.18-.25s-.06-.13.02-.21c.08-.08.08-.25.24-.25s.33,0,.39.13c.06.13.16.5.35.63.18.13.16.23.51.23s1.2.04,1.33-.02c.12-.06.86-.46.94-.57.08-.1.18-.5.18-.5l.02-.8s-.55-.92-.55-.99,0-.29.04-.38c.04-.08.24-.73.27-.82s.02-.48.04-.71-.22-1.07-.2-1.2c.02-.13-.02-.73,0-.82.02-.08.29-.52.29-.52,0,0,.18.29.2.46.02.17-.02.8.04.9.06.1.41.86.41.94s.16,1.8.16,1.99.06.52.1.73c.04.21.16.57.22.65.06.08.51.42.57.42s.86-.59.86-.59c0,0,.06.13.06.19s-.14.17-.04.23c.1.06.39.04.49.1.1.06.39.31.49.29.1-.02.18-.02.27-.1.08-.08.31-.36.33-.42s-.02-.25.02-.31.14-.23.14-.23c0,0,.22.06.22.31s0,.44.08.65c.08.21.08.4.16.5.08.1.18.13.24.1.06-.02.24-.17.24-.27s-.14-.23-.06-.4c.08-.17.24-.34.35-.36.1-.02.24-.06.31.02.06.08-.04.13.06.08.1-.04.98-2.14,1.04-2.2.06-.06.53-.23.59-.1.06.13.26.8.26.8,0,0,.18-.13.22-.06.04.06.08.23.18.19.1-.04.49-.04.67,0,.18.04.55.63.69.63s.24.04.33-.06c.08-.1.08-.63.1-.69.02-.06.2-.19.29-.1.08.08.22.52.27.63s.18-.1.26-.13c.08-.02.37-.08.51-.15.14-.06.45-.57.55-.52.1.04.22,0,.24.13.02.13.08.38.08.38,0,0,.12-.1.29-.1s.43.17.47.27c.04.1.04.75.2.71.16-.04.63-.27.69-.31.06-.04.88-.61.9-.67s.18-.5.18-.5c0,0-.51-1.32-.43-1.55.08-.23.22-1.64.22-1.64,0,0-.47-.8-.47-.9s-.04-.76.06-.94c.1-.19.2-.4.33-.46.12-.06.82-.57,1.02-.63.2-.06,1,.21,1,.21,0,0,.12-.08.18-.21.06-.13.29-9.67.29-9.67l.16-7.05-.08-3.82-.1-2.06-.16-8.03-.24-9.42-.16-6.48-.18-1.38-9.54-.31h-9.91l-17.01-.38h-4.77l-2.57.35-.67.35h-1.22l-.21-.35s-1.68-.31-2.2-.35c-.52-.03-3.27-.28-3.46-.28s-2.69.16-2.69.16v.5l-.28.31-.37,1.57-2.78.5.15-3.05s-7.25.09-7.31,0c-.06-.09-8.69-.53-8.69-.53l-9.66-.41-8.99-.28h-3.52l-.67,10.98-.89,12.58-.73,11.14-.92,12.21-1.04,12.99,3.88,6.35L0,75.03l4.07,7.14Z"/>
      <path class="cls-1" d="M100.58,57.28c.02.1.1.25.2.31.1.06.31.15.31.15,0,0,.1-.76.16-.94.06-.19,0-.38,0-.38,0,0-.18.06-.26.08-.08.02-.16-.08-.18,0-.02.08.14.21,0,.42-.14.21-.24.25-.22.36Z"/>
    </g>
  </g>
</svg>