<svg xmlns="http://www.w3.org/2000/svg" id="Layer_2" data-name="Layer 2" viewBox="0 0 111.2 84.4"><defs><style>.cls-1{fill:#172d35}</style></defs><g id="_Ñëîé_1" data-name="Ñëîé 1"><path d="m4 82.2-.2 1v1l.2.2v-.7l.5-.5.2-.5.8.2.3-.2.1-.3v-.2h.7L7 82l.1-.3.2-.2.3-.5.1.2.1.4.2.3h.4l.2-.5.2-.1.3.3v.3l-.2.4-.5.3-.2.4h.6q.4-.1.5-.3l.5-.8.2-.5.5-.1.2-.5-.1-.4h.5c0 .1.3 1 .5 1h.4l.1-.6-.2-.4v-.3h.7l.2-.4v-1l.6.3.3.6s-.1.3 0 .2c.2-.1.3-.5.4-.4l.2.6.4-.1.3-1.3h.4v.4l.5-.2s0-.4.2-.4l.3.1.2.3h.3V78l.2.2.4-.4.2-.6.6.2.2-.3v-.5l-.3-.3v-.7h.3l.2.4.1.2.2-.3.2.3v.4h.2l.4-.8 1-.2v-.3l-.5-.2v-.5l1.2.5.4-.4s0-.4.2-.4l1 .3v-.2l.4-.2h.6l.6-.5.3-.4.4-.2.8.7.4.1.6-.2.7-.7.5-1h.3l.5-.3.3-.6.6-.4.4-.2v.3c0 .2-.6.9-.6.9v.3q.2.2.2 0l.5-.7.5-.4.5-.2v-.5l-.2-.3v-.3h.3l.3.3h.6l.1.5.3.3h.8l.1.3-.2.2h-.3v.1l.2.3h1l.8-.1.8-.2V71l-.3-.3-.2-.2V70l.4-.2c.2-.1.7-1.2.9-1.3l.5-.5.6-.2.6-1h.3l.7.6.2-.2.8-.1v.1l.5-.1.4-.6.1-.5.6-.3c.1-.2.3-.8.5-.8h.5l.3-.3.5-.8.6-.5 1-.4.7-.8-.2-.3-.5-.1.1-.5.7-.5.4-.6.8-.5.5-.2.2-.2s-.1.7-.3.8l-.4.2-.2.8v1l.5.8v.3l-.3.3-.1.3s.5.5.6.4h.9l.8-.1.7-.9s.5-.2.5 0l.1.4.3.1.1-.2.3-.9.3.2.6-.1v.4l-.4.4v.2s.1.2.2 0h.4q.3-.3.2-.4l.8-.4.3-.3.3-.1.6.1.7-.3.4.2v.4l.3.1.4-.1.2.3h.3l.3-.1.4.2c.3 0 .7-.5.7-.3v.4l-.1.3-.2.1s.2.4.3.3l.5-.1h.4l.4-.7h.4l.1-.7.4-.2.1-.2.4.3h.7l.7-.3.4-.1H66l.4.2.6.5c0 .1.6 1.1.9 1l.4-.2.2-.7.5-.4s.2-.4.3-.3v.3l.1.6.5.2.3-.5.4-.3.8-.4s.8.3.9.2l.8-.8h.5l1.1.1h1.4l.4.3s.2 1 .4 1l.6-.3h.8l.6-.3.5-.2-.1-.3h-.5l-.5.1h-.2l-.1-.1q0-.3.2-.5.3-.1.4 0h.4q.2-.2 0-.5l-.2-.2-.6.1-.1-.2.1-.4h.4l.2-1v-1l-.5-1.2-.3-.3-.5.1-.3-.3v-.8l-.2-.4-.2-.3v-.3l.2-.2.1.3.2.3q.1.2.2 0v-.3l.4-.4v.6l.4.9.3.2q.3 0 .5.2t.5.6l.1.7v.7l-.2.7v.5q.3 0 .3.3l.2.2.2.2.4.5.1.8h.9l1-.1 1-.3h.7l.7-.7.1-.4.7-.2.2.2.4-.1.4.4q.2 0 .3.2-.1.1.1.3.4.2.5-.1v-2s.4-.5.6-.5h.9l.2.4.1.5.3.3.2-.3v-.2l.3-.2q.3-.1.4.1 0 .3.3.6t.5.3h1.4l.9-.6.2-.5v-.8l-.6-1v-.4l.4-.8v-.7l-.2-1.2v-.8l.3-.6.2.5v.9l.4 1 .2 2 .1.7.2.6.6.4.8-.6.1.2v.3h.5q.1.3.4.3h.3l.3-.5v-.3l.2-.2.2.3.1.6q0 .4.2.5 0 .2.2.1l.2-.2v-.4q0-.4.3-.4h.3q0 .2.1.1l1-2.2c.1 0 .6-.2.6 0l.3.7h.2l.2.1h.7c.1 0 .5.7.7.7h.3v-.8q.2-.1.4 0l.2.6.3-.2.5-.1c.2 0 .5-.6.6-.5h.2v.5l.4-.1.4.2c0 .1 0 .8.2.7l.7-.3 1-.6.1-.5s-.5-1.4-.4-1.6l.2-1.6-.5-1 .1-.9.3-.4 1-.7 1 .3.2-.3.3-9.6.2-7-.1-3.9-.1-2-.2-8-.2-9.5-.2-6.5-.1-1.4-9.6-.3h-9.9l-17-.4H69l-2.5.4-.7.3h-1.2l-.2-.3-2.2-.4-3.5-.2-2.7.1v.5l-.3.3-.3 1.6-2.8.5.1-3h-7.3L36.6.6 27 .2 18 0h-3.5l-.7 11-.9 12.6-.7 11.1-1 12.2-1 13 3.9 6.4L0 75z" class="cls-1"/><path d="m100.6 57.3.2.3.3.1s0-.7.2-.9v-.4l-.3.1h-.2v.4z" class="cls-1"/></g></svg>