<?xml version="1.0" encoding="UTF-8"?>
<svg id="Layer_2" data-name="Layer 2" xmlns="http://www.w3.org/2000/svg" viewBox="0 0 37.81 95.24">
  <defs>
    <style>
      .cls-1 {
        fill: #172d35;
      }
    </style>
  </defs>
  <g id="_Ñëîé_1" data-name="Ñëîé 1">
    <path class="cls-1" d="M12.39,13.29s.37-.24.37-.24c0,0,.74-1.11.87-1.25.13-.14.22-.97.28-1.13.06-.15.12-.64.21-.81.09-.17.38-.49.47-.61.09-.12.31-.76.31-.76,0,0,.46.05.49-.06.03-.11.09-.96.18-1.14.09-.18.78-1.89.86-2.01.07-.12,1.33-1.46,1.45-1.55.12-.09,1.34-.75,1.34-.75,0,0-.43-.57-.67-.65-.24-.08-2.13-1.14-2.41-1.26-.28-.12-1.74-.65-2.01-.77-.28-.12-3.16-.45-4.3-.24-1.14.2-3.24.83-4.34,1.43-1.26.93-2.72,2.63-3.08,3-.36.37-1.07,1.7-1.26,2.23-.2.53-.39,1.26-.39,1.26h-.75v5.32l.36,8,.91,16.03.75,14.61.83,14.17.71,15.83.28,4.46.24,3.65.24,4.51,16.14.53,12.35.16h4.77s.28-.65.24-.93c-.04-.28-.36-1.58-.32-1.95.04-.37-.08-1.22-.04-1.5.04-.28.2-.85.12-1.1-.08-.24-.36-1.75-.32-1.87.04-.12-.24-3.17-.24-3.17,0,0,.16-1.1-.08-.97-.24.12-.75.24-.75.24,0,0,0,.16.08.28.08.12.16.37.12.53-.04.16-.04.53-.04.53,0,0,.24.41.12.53-.12.12.08.2-.12.12-.2-.08-.43-.28-.43-.28l-.28.08s.08.24,0,.37c-.08.12-.24.28-.24.28v.69l.04.32s.08.37-.16.24c-.24-.12-.24-.32-.32-.45l-.08-.12s-.39.24-.32,0c.08-.24.28-.89.12-.89s-.28.28-.39.2-.28-.24-.24-.41c.04-.16.16-.57.16-.57,0,0,.04-.2-.24-.16-.28.04-.75,0-.91,0s-.24.12-.36.2c-.12.08-.2-.04-.32.16-.12.2,0,.32-.28.53-.28.2-.55.16-.67.16s-.36.08-.47.2c-.12.12-.08.24-.16.41-.08.16-.24.32-.36.32s-.28.12-.28.28-.16.69-.16.81-.12.41-.12.41c0,0-.28.12-.28-.2s.12-1.1.12-1.1c0,0-.24-.12-.16-.32.08-.2.24-.41.24-.41l.43-.04s.28-.08.28-.24-.12-.65-.12-.65h-.36s-.28.12-.47.12h-.55l-.36-.28s-.43-.12-.71,0c-.28.12-.51.16-.71.16h-.43l-.2.24s-.2-.16-.43-.2c-.24-.04-.51-.12-.51-.12,0,0-.39-.57-.12-.53.28.04.67.24.91.2.24-.04.28-.08.51-.08s.28.04.51.04h1.58c.16,0,.2-.12.36-.16.16-.04.59,0,.59,0,0,0,.28.04.55.04s.39-.16.51-.24c.12-.08.04-.49.28-.49h.24l.16.08s.12-.37.12-.49-.08-.37.12-.32c.2.04.16.2.36.2s1.1-.37,1.1-.37c0,0,.16,0,.47.08s.36-.24.36-.24c0,0,.2.08.32.12.12.04.28-.04.2-.16l-.08-.12s.79-.04.63-.2c-.16-.16-.39-.41-.63-.53-.24-.12-.32-.2-.47-.16l-.3.13s-.01.18-.07.21c-.06.03-.21.14-.22.03-.01-.11.06-.32-.07-.33-.13-.02-.19,0-.24-.03-.04-.03-.19-.18-.3-.18s-.28.14-.33.12c-.04-.02-.13-.06-.13-.14s.18-.21.1-.29c-.07-.08-.31-.14-.31-.21s0-.29-.09-.33c-.09-.05-1.49-.3-1.45-.38s.13-.27.15-.38c.01-.11-.34-.44-.19-.43.15.02.25-.12.28-.06s.19.32.24.35c.04.03.37.15.53.18.16.03.33.26.38.3.06.05.15.08.22.09s.52-.23.56-.18c.04.05.03.52.1.62.07.11.3.15.41.17.12.02.15.05.12-.12-.03-.17-.12-.35-.12-.44s.12-.14.15-.18c.03-.05-.37-.32-.4-.46-.03-.14.04-.96-.09-1.11-.13-.15-.58-.3-.62-.38-.04-.08-.21-.18-.18-.26s-.07-.15.09-.18c.16-.03.19,0,.31-.03.12-.03.21-.26.24-.18.03.08-.01.43.07.46.09.03.53.18.64.14.1-.05.03-.56.15-.47.12.09.35.38.43.35.07-.03.1-.2.24-.21.13-.02.18-.09.25-.02s.34.35.46.35.16-.15.16-.15c0,0-.15-.5-.04-.49.1.02.22,0,.34.12.12.12.28.43.28.5v.84c0,.14.13.91.13,1.02s-.24.46-.25.61c-.01.15-.07.59-.06.7.01.11,0,.4.06.47.06.08.12.06.21.08.09.02.18.02.19.08.01.06.1.26.04.26s-.34.03-.37.15c-.03.12-.09.2-.03.21.06.02.58-.02.67-.06.09-.05.22-.21.25-.32.03-.11-.21-1.75-.19-1.81.01-.06.1-.4.1-.53s-.03-.56-.03-.56l-.43-2.37-.21-1.07-.13-3.39-.03-.78s-.09-.7-.16-.84c-.07-.14-.12-.35-.16-.37-.04-.02-.25-.2-.31-.14-.06.06-.34,1.19-.41,1.22-.07.03-.18.05-.3-.02s-.27-.24-.38-.21c-.12.03-.67.24-.81.26-.15.02-.92-.23-.99-.27s-1.6-1.26-1.72-1.29c-.12-.03-.41-.09-.53-.14-.12-.05-.7-1.16-.77-1.23-.07-.08-.37-.18-.44-.3-.07-.12-.34-.65-.34-.65,0,0-.19-.05-.31-.12s-1.23-2.53-1.33-2.68c-.1-.15-1.2-1.35-1.39-1.49-.19-.14-1.01-.65-1.07-.78-.06-.12-.56-1.43-.53-1.52.03-.09.52-1.92.52-1.99s-.09-.62-.13-.79c-.04-.17-.12-.27-.25-.43-.13-.15-.67-.84-.74-.96s.07-.75-.04-.99c-.12-.24-.59-.99-.71-1.16s-.87-.97-1.02-1.11c-.15-.14-1.57-1.02-1.61-1.16-.04-.14-.41-.37-.38-.61.03-.24-.12-1.37-.13-1.54-.01-.17.12-.91.09-1.05-.03-.14-.24-.23-.18-.33.06-.11.15-.27.15-.38s-.06-.35-.16-.49c-.1-.14-.25-.24-.24-.37.01-.12.03-.37,0-.52-.03-.15-.19-.96-.21-1.05-.02-.09.23-1.35.28-1.45.04-.09.38-.75.49-1.02.1-.27.33-.94.3-1.14-.03-.2-.15-.55-.19-.64-.04-.09-.41-.37-.44-.44-.03-.08-.04-.2-.03-.24v-.05s.37-.4.41-.53c.04-.14.06-.14-.01-.29s-.28-.26-.3-.33c-.01-.08-.07-.21-.07-.32s.01-.53,0-.59c-.01-.06-1.09-1.6-1.14-1.77-.04-.17-.52-1.31-.55-1.43-.03-.12-.18-.81-.24-.87-.06-.06-.19-.21-.33-.23-.13-.02-.19,0-.3-.06-.1-.06-.37-.78-.49-.85-.12-.08-.47-.08-.58-.17-.1-.09-.4-.38-.4-.38,0,0-.13-.06-.15.02-.01.08.07.47.07.53s-.07.29-.07.29c0,0-.15.06-.16,0-.01-.06-.22-.47-.31-.49s-.5.02-.5-.05.21-.38.19-.49c-.01-.11-.27-.44-.16-.44s.5.09.46,0c-.04-.09-.07-.29-.22-.47-.15-.18-.28-.47-.33-.49-.04-.02-.34.05-.46-.05s-.18-.17-.13-.32c.04-.15.22-.4.22-.46s.01-.15-.09-.37c-.1-.21-.4-.75-.47-.79-.07-.05-.12-.06-.24-.06s-.19.08-.3.05c-.1-.03-.37-.24-.37-.24,0,0,.1-.09.21-.11.1-.02.27.08.38.03.12-.05.22-.11.25-.2.03-.09-.03-.32-.07-.37-.04-.05-.49-.27-.5-.43-.01-.15-.07-.47-.1-.58-.03-.11-.21-.35-.28-.44-.07-.09-.46-.18-.49-.24-.03-.06-.22-.26-.22-.35v-.33l.81-.65-.95-1.29s-.36-.53-.36-.75.25-.75.28-.84c.03-.09.04-.26.12-.26s.44-.06.62-.06.78-.08.83-.09c.04-.02.21-.17.21-.17,0,0-.16-.49-.15-.58.01-.09.1-.43.15-.62.04-.2.07-1.05.03-1.13-.04-.08-.37-.24-.28-.46.09-.21.16-.41.36-.55.19-.14.33-.37.43-.61.1-.24.31-.78.31-.91s-.22-.62-.22-.62c0,0-.67-.27-.71-.32s-.38-.59-.43-.62c-.04-.03-.7-.44-.73-.5s-.4-1.45-.38-1.52c.01-.08.25-.78.37-.87.12-.09.56-.53.61-.58Z"/>
  </g>
</svg>