<svg xmlns="http://www.w3.org/2000/svg" data-name="Layer 2" viewBox="0 0 37.8 95.2"><path d="m12.4 13.3.4-.3.8-1.2c.2-.1.2-1 .3-1.1l.2-.8.5-.7.3-.7h.5c0-.2 0-1 .2-1.2l.8-2L18 3.7l1.3-.7s-.4-.6-.7-.7l-2.4-1.2c-.2-.2-1.7-.7-2-.8S11-.2 9.8.1 6.6.9 5.5 1.5c-1.3 1-2.7 2.6-3 3A10 10 0 0 0 .7 8H0v5.3l.4 8 .9 16L2 52l1 14.1.6 15.9.2 4.5.3 3.6.2 4.6 16.2.5 12.3.2h4.8s.3-.7.2-1l-.3-2V91q.2-.6 0-1.1c0-.3-.3-1.8-.2-1.9l-.3-3.2s.2-1 0-1l-.8.3v.3q.3.2.2.5v.5q.2.2 0 .6.2.1 0 0l-.5-.2h-.2v.5l-.3.2v1.1s.1.3-.1.2l-.3-.5h-.1s-.4.2-.3 0c0-.3.2-1 0-1s-.2.3-.3.2-.3-.2-.2-.4l.1-.6-.2-.1h-1l-.3.2-.3.1q0 .3-.3.6-.4.2-.7.1-.4 0-.4.2l-.2.4q0 .3-.4.4-.4 0-.2.2c.2.2-.2.7-.2.9l-.1.4-.3-.2c-.2-.2.1-1.1.1-1.1l-.1-.4.2-.4h.4s.3 0 .3-.2l-.1-.7H30l-.4.1H29l-.3-.3h-.8q-.3.2-.7.2h-.4l-.2.2-.4-.2h-.5s-.4-.6-.2-.6l1 .2H29l.3-.2h1.2q.3 0 .5-.2s0-.5.2-.5h.4l.2-.4v-.3l.4.2 1.1-.4h.5l.4-.1h.5v-.2s.7 0 .6-.2l-.7-.5q-.2-.2-.5-.2l-.3.1v.2q-.1.2-.2 0l-.1-.3h-.2l-.3-.2-.4.2-.1-.2q.2 0 0-.3l-.2-.2-.1-.3-1.5-.4.2-.4s-.4-.4-.2-.4h.3l.2.3.5.2q.4 0 .4.3h.2l.6-.1.1.6.4.2q.2 0 .1-.2V81l-.3-.4-.1-1.1-.6-.4q-.2-.1-.2-.3v-.2h.4l.2-.2v.5l.7.1c.1 0 0-.5.2-.5l.4.4.3-.2h.2l.5.3q.2.2.1-.1v-.5l.3.1.3.5v.8l.1 1-.2.7v1.1l.2.1.2.1v.3l-.3.1v.2h.6l.2-.4s-.2-1.7-.1-1.8V80l-.4-2.3-.2-1.1-.1-3.4v-.8l-.2-.8-.2-.4-.3-.1-.4 1.2h-.3l-.4-.2-.8.2-1-.2-1.7-1.3-.5-.2c-.2 0-.7-1.1-.8-1.2l-.5-.3-.3-.6-.3-.2-1.3-2.7-1.4-1.4-1.1-.8-.5-1.5.5-2-.1-.8-.3-.5c-.1-.1-.7-.8-.7-1v-.9l-.8-1.2c0-.2-.8-1-1-1-.1-.2-1.6-1-1.6-1.2l-.4-.6-.1-1.6v-1l-.1-.4.1-.3-.1-.5-.3-.4V48l-.2-1 .3-1.5.5-1 .3-1.2-.2-.6-.4-.5V42l.4-.6v-.3q-.1-.2-.4-.3v-.9L18.2 38l-.5-1.4-.3-.9-.3-.2h-.3l-.5-1h-.6c0-.2-.4-.5-.4-.5h-.1v.9H15l-.3-.5h-.5l.2-.6s-.3-.4-.1-.4h.4l-.2-.5-.3-.5h-.5q-.2 0-.1-.3l.2-.5-.1-.4-.5-.8h-.5l-.4-.2.2-.1h.4l.3-.2-.1-.4s-.5-.2-.5-.4l-.1-.6-.3-.4-.5-.2-.2-.4v-.3l.8-.7-1-1.3-.3-.7.3-.9.1-.2h.6l.9-.2.2-.1-.2-.6.2-.6v-1.2s-.4-.2-.3-.4l.4-.6q.3-.2.4-.6l.3-.9-.2-.6-.7-.3-.4-.7-.8-.5-.4-1.5.4-.8z" data-name="Ñëîé 1" style="fill:#172d35"/></svg>