<?xml version="1.0" encoding="UTF-8"?>
<svg id="Layer_2" data-name="Layer 2" xmlns="http://www.w3.org/2000/svg" viewBox="0 0 95.16 95.24">
  <defs>
    <style>
      .cls-1 {
        fill: #172d35;
      }
    </style>
  </defs>
  <g id="_Ñëîé_1" data-name="Ñëîé 1">
    <g>
      <path class="cls-1" d="M56.27,27.59s-.05,0-.09,0c.05,0,.1,0,.09,0Z"/>
      <path class="cls-1" d="M.11,2.26c.06.08.84.91.89.99.05.07.18.57.24.62.06.05.54.38.56.42.02.04.03.13.13.2.1.07.66.4.7.43.04.03.13.22.15.29.02.07-.02.57-.04.64-.02.07-.12.12-.14.17-.02.05-.1.45-.13.51-.04.07-.4.49-.4.54s-.04.14.05.28c.08.14.16.25.16.25,0,0,.05.27.08.32.04.05.3.27.35.27s.34-.06.37,0c.04.05.2.33.18.38s-.51.19-.54.21c-.02.02-.12.15-.12.15,0,0-.28-.07-.3,0-.01.07-.05.33-.06.35,0,.02-.17.1-.15.12.01.02.05.17.08.17s.11-.18.17-.17c.06.01.13.03.11.05-.03.02-.13.02-.13.09,0,.07.04.2.01.22-.02.02-.27.19-.24.22s.19.08.11.1c-.08.02-.85.02-.85.02,0,0-.04.05,0,.06.04,0,.5.1.51.12.01.02.04.16.02.16s-1.17.27-1.15.28c.02,0,.2-.02.22,0,.02.02,2.42-.47,2.47-.49.05-.01.16-.07.16-.09s.05-.08-.06-.07c-.11.01-.93.25-.99.25s-.18.02-.15-.03c.04-.05.29-.2.35-.22.06-.02.75-.07.79-.07.04,0,.14-.18.19-.18s.47.04.49,0c.02-.04.02-.29,0-.3-.03-.01-.68-.01-.67-.04,0-.03.17-.19.26-.17.09.01.19.09.2.07.01-.02,0-.16.03-.12.04.04.06.16.14.14.08-.02.58-.49.62-.44.04.05-.06.02.04.05.1.03.18-.01.21-.07.03-.06.07-.09.11-.17.04-.08.04-.33.03-.36,0-.02-.13-.17-.13-.17,0,0,.2.12.2.17,0,.04,0,.3,0,.32,0,.02.04.08.1,0,.06-.09.38-.84.36-.94-.02-.09-.21-.67-.24-.7-.03-.04-.2-.18-.17-.2.04-.02.08,0,.08-.07s-.09-.43-.04-.43.35.07.39.1c.04.03.13.2.13.22s-.03.14-.03.14c0,0,.13.07.15.05s.12-.17.13-.14c.01.04-.01.19-.01.19,0,0-.13.04-.15.07-.02.03,0,.16,0,.16,0,0,.39.04.4.08,0,.04.01.91.03.95.01.04,0,.15.04.18.04.03-.01.07.13.04.15-.03.23-.05.23-.1,0-.05.28-1.18.33-1.2.05-.02.2-.09.27-.12.06-.03.18-.28.16-.32-.01-.04-.26-.37-.27-.41,0-.04-.04-.18,0-.15.05.04.5.46.5.49s-.13.26-.13.26c0,0,.06.02.06.04,0,.02-.12.12-.12.12l.12.04s-.11.03-.11.09c0,.06.1.15.05.17-.05.02-.19,0-.19,0v.2s-.11.12-.11.12c0,0,.8.56.86.59.06.04.25.06.27.1.02.04.03.14.11.17.08.03.47.14.44.14-.02,0-.45,0-.45,0l-.04-.04s-.18-.2-.22-.18c-.04.01-.56.5-.61.52-.04.02-.45.16-.5.17-.05,0-.72-.01-.78,0-.06.01-.51.2-.56.24s-.13.2-.23.2-.34-.14-.34-.1.04.09-.01.11c-.05.01-.32.09-.32.09,0,0,.1.28.2.25.11-.03,1.31-.41,1.4-.42.08-.01,1.53-.21,1.66-.22.13-.01,1.9-.13,1.99-.13s1.06.07,1.11.08c.05,0,.86.09.89.09s.11,0,.16-.02.23-.09.23-.09c0,0,.04-.17-.04-.18-.08,0-.5-.09-.5-.09,0,0,.15-.09.19-.09s.14.13.17.07c.03-.07.12-.1.09-.15-.03-.05-.11-.07-.11-.09,0-.03.04-.08.04-.1v-.02l-.02-.09s.06.07.07,0c0-.07.01-.28.06-.23.05.04.06.11.06.14s-.07.19-.06.21c0,.02.2-.03.18.04-.01.07-.08.24-.04.25.04.01.17.09.27.05.1-.04.23-.3.25-.3s.67-.17.67-.17c0,0,.08-.12.08-.18s-.18-.61-.16-.59c.02.02.09.05.12.09.03.04.16.41.2.41s.13-.06.15-.1c.02-.04.03-.23.05-.24.02,0,.41.02.42.05,0,.03-.06.11-.06.11,0,0-.25-.04-.25-.01,0,.02-.07.09-.04.16s.25.51.29.52c.04,0,.13-.09.17-.08.04,0,.07.08.16.07.08-.01.75-.28.83-.28.08,0,.3.09.35.07.06-.02.42-.15.47-.17.04-.02.23-.19.23-.17,0,.02-.05.22,0,.25.05.03.09.07.11.07s.16.03.23-.04c.06-.07.21-.36.23-.33s.08.17.05.2c-.03.04-.11.09-.11.11,0,.02-.02.09,0,.14.03.05.13.24.16.25.04,0,.25.01.3-.02.06-.04.36-.44.37-.4.01.04.01.14,0,.17-.01.04-.22.2-.22.2,0,0,.19.03.15.05-.04.02-.22.03-.23.07-.01.04-.04.13-.03.18.01.05-.03.04.11.09.14.05.32.09.32.09,0,0-.15.04-.13.08s.22.25.23.28c0,.02-.08.08-.06.11.01.03.15.08.11.14-.05.07.06.1-.07.1s-.54-.03-.56-.06.04-.21-.05-.17c-.08.04-.09.06-.15.04-.06-.02-.32-.14-.39-.21s-.39-.41-.44-.4-.23.16-.24.2c0,.04.01.11.06.11s.06-.04.14.01.2.08.2.1-.08.11-.17.11-.32-.13-.38-.12c-.06,0-.13.13-.16.07-.03-.06-.23-.56-.27-.47s-.17.64-.27.62c-.11-.02-1.2-.42-1.25-.4-.05.02-.11.14-.13.12-.03-.01-.37-.31-.44-.26-.08.05,0,.15-.06.13-.05-.02-.08-.13-.13-.09-.05.04-.21.14-.21.17s.02.26.08.28,1.34.12,1.42.13.94.16,1.09.22c.15.06,1.65.62,1.68.64.04.01,1.49.58,1.49.58,0,0,1.19.67,1.26.71.07.04,1.13.65,1.13.65,0,0,.85.63.87.67.03.04.44.51.49.49.05-.03.1-.1.1-.1,0,0-.61-.57-.55-.54.06.02.5.21.53.27s.08.17.1.17c.02,0,.13-.13.13-.15s-.14-.24-.16-.25c-.02,0-.28.02-.28-.06s.14-.6.1-.65c-.04-.05-.32-.18-.32-.18,0,0,.19-.23.14-.24-.05,0-.46-.21-.51-.19-.06.02-.24.18-.25.22-.01.04.04.13-.02.13s-.2.02-.25-.03c-.05-.05-.15-.41-.13-.46.02-.05.14-.17.11-.25-.04-.08-.28-.46-.26-.46.02,0,.32.31.37.32.05,0,.16.04.22.03.06,0,.06-.14.14-.12.08.03.28.17.35.13.06-.04.18-.17.18-.19,0-.02,0-.37.02-.33.03.04.16.59.2.61.04.01.19.04.19.04,0,0-.08.04-.08.1,0,.07-.03.1.04.12.06.02.12.02.12.11s-.01.35.06.28c.08-.07.22-.41.28-.42.06-.01.35.02.37,0,.02-.01.34-.33.34-.3s-.09.26-.06.27c.04,0,.13.03.16,0,.04-.02.03-.15.1-.15s.13.04.13.07,0,.07.06.04c.06-.02.11-.04.11-.09s.04-.51.05-.54c.01-.03.15-.17.15-.19s-.16-.28-.16-.28c0,0,.18.27.25.21.08-.06.23-.4.25-.36.03.04-.06.34-.02.37.04.03.39.17.39.17,0,0-.42-.07-.45-.07-.03,0-.23.21-.23.21,0,0,.29.37.27.37s-.27-.27-.29-.2c-.02.07-.1.36-.11.38-.01.02.15.17.05.17-.1,0-.24-.08-.24-.04s.08.21.03.21-.07-.07-.13-.05c-.06.01-.11.08-.15.05-.05-.03.07-.1-.08-.1s-.59.04-.57.07c.01.04.12.18.12.18,0,0-.15-.02-.15.04s.05.17,0,.2c-.06.02-.16.04-.18.07-.01.03,0,.22-.05.24-.05.01-.29,0-.31.04-.02.04-.12.22-.04.24.08.02.82.35.85.38.03.04.13.35.18.28s.03-.25.05-.24.17.12.17.12c0,0,.01.07.05.1.04.04.42.28.47.29.06.01.19.01.19-.04s-.04-.14-.03-.17c0-.04.1-.16.1-.11s.06.26.1.26.09-.05.13-.04c.04.01.09.14.13.11.04-.03.3-.25.3-.25,0,0,.17,0,.13.04s-.21.06-.21.11-.09.38-.06.41c.04.02.2.07.23.07s.11-.06.14,0c.03.06.08.09.06.13-.01.04-.12.21-.12.29s.05.42.12.44c.07.02.3.17.32.09.02-.08.24-.69.29-.59.05.1-.04.22.05.25.08.03.45.07.43.1s-.06.07-.05.1c0,.04.07.19.05.19s-.15-.12-.18-.1c-.04.02-.09.08-.14.03-.05-.05-.1-.15-.14-.11-.04.04-.12.18-.12.18,0,0,.16.1.11.12s0,.07-.09.07-.28.04-.39,0-.37-.18-.43-.22c-.06-.04,0-.28-.07-.33-.06-.04-.35-.1-.36-.17,0-.07.08-.23.04-.28-.05-.05-.27-.21-.36-.21s-.45.09-.49.06c-.04-.03-.2-.26-.2-.28,0-.02.13-.19.04-.18-.09,0-.15.1-.21.07-.06-.04-.23-.22-.27-.2-.04.02-.11.1-.11.07s.04-.25-.01-.2-.16.18-.16.2.11.28.16.31c.04.03.86.6.86.6,0,0-.16,0-.16.02s.2.07.26.1c.06.04.01.17.03.2.01.02.35.51.36.47,0-.04-.19-.4-.21-.43l-.02-.04-.04-.11s.67.59.75.67c.08.08.49.49.49.49,0,0,.11.08.07.11-.04.03-.16.03-.19,0-.04-.03-.2-.24-.27-.22-.06.02-.14,0-.09.06.05.07.36.33.47.33h.32c.08,0,.59.26.65.32.06.06.35.4.39.46.04.07.4.73.45.87s.3.54.3.57-.04,1.7-.11,1.73c-.07.02-.55.13-.62.07-.07-.07-.28-.63-.29-.7,0-.07-.23-.95-.23-1.03s-.03-.28-.03-.31.3-.79.21-.74c-.09.05-.18.07-.24.2s-.08.72-.06.8c.01.07.39,1.46.39,1.52,0,.06-.04.04.08.2.11.17.14.43.25.38s.45-.27.58-.26c.13,0,.87.07.92.07s.15-.03.09-.06c-.06-.03-.39-.04-.33-.08.06-.04,1.75-.43,1.83-.42.08,0,.65.03.7.07.06.04.1.09.21.09s.4-.06.47-.08c.06-.02.22-.15.22-.21s-.06-.25-.02-.24c.04.01.19.09.18.05-.01-.04-.18-.25-.12-.23.06.02.27.2.32.18.06-.01.39-.34.37-.38-.02-.04-.24-.17-.25-.21,0-.04,0-.16.02-.13.03.03.12.15.23.17.11.02.33,0,.39-.01.06-.01.15-.09.15-.14s-.09-.21-.05-.2c.04,0,.18.1.23.08.05-.02.11-.2.13-.12s.12.22.06.25-.3.03-.32.11c-.03.08-.25.57-.25.57,0,0-.31.14-.31.17s-.05.09.04.11c.09.01.14-.02.2.01.05.04.06.11.13.07s.3-.31.39-.36,1.16-.52,1.26-.57c.1-.05.48-.34.56-.41.08-.07,2.2-1.36,2.28-1.36s.42.09.49.05c.07-.04.47-.3.55-.3.08,0,1.04.32,1.02.35-.02.03-.15.12-.2.12s-.59-.14-.59-.14c0,0-.04.04,0,.07.04.02.42.18.56.19.14,0,.37-.02.41-.07.04-.04.11-.15.13-.22.01-.07.03-.44-.01-.48-.04-.04-.51-.25-.63-.25-.12,0-.64-.03-.64-.03,0,0-.04-.15-.02-.18.01-.03.14-.16.1-.21s-.18-.17-.16-.17.16-.06.17,0c.01.07.07.26.16.28,0,0,.94.24.97.19.02-.05.06-.17.04-.18-.02,0-.13.04-.19-.04-.06-.09-.16-.33-.16-.33,0,0-.07,0-.06.05.01.04.07.15.05.14-.02,0-.17-.02-.17-.09s-.06-.54,0-.51c.06.02.13.01.12.08-.01.07-.07.16-.03.18.04.02.1.03.11,0,.01-.03-.04-.56.08-.6s.18-.07.2-.11c.02-.04-.04-.16.04-.13.08.03.17.05.18.03.01-.02.02-.12.05-.07s.27.35.32.29c.04-.06.18-.2.18-.18s.07.09.07.09c0,0,.03-.4.03-.42s.06-.12.08-.14.27-.06.27-.06c0,0-.03.16,0,.19s.13.09.15.07.23-.14.27-.2c.04-.06.03-.35.13-.27.1.08.1.36.17.36s.19-.07.18,0c-.01.07-.11.25-.08.29.04.04.13.08.2.08s.26-.09.3-.11c.04-.02.19-.21.19-.21,0,0,.29.13.27.06-.01-.07-.05-.25-.03-.22.02.04.18.24.27.21.08-.03.44-.16.49-.16s.35.07.41.06c.06-.01.13-.13.15-.09.02.04.04.28.06.26.02-.02.18-.21.18-.15s-.07.28-.06.3c.01.02.61.59.65.56.04-.03.3-.17.25-.13-.05.04-.12.14-.09.2.03.05.11.14.11.14,0,0,.69.25.71.29.02.04.22.33.27.33s.15-.06.19-.04.15.12.23.09c.08-.03.21-.22.2-.15-.01.07-.06.23,0,.26.06.03.21.26.28.24.07-.02.13-.08.16-.04s.16.29.18.29.12-.08.14-.06c.02.02.1.2.19.24.09.04.35.05.35.09s-.01.12.01.17c.03.05.45.33.48.46.03.12.11.52.19.58.08.06.37.23.37.29,0,.06-.04.22,0,.28s.2.15.18.21c-.02.06-.08.33-.06.35.02.01.16-.06.22.09.06.14.12.4.2.45.08.05.56.19.62.24.06.05.11.28.18.33.08.06.36.2.41.19.05,0,.13-.08.18-.07s.2-.05.26.07c.06.12.2.2.2.25s-.11.53-.11.58.04.18.06.22c.02.04.15.14.15.14,0,0-.2-.06-.2,0,0,.06-.01.13,0,.17.01.04.12.05.08.08-.04.03-.15.07-.11.12.04.05.08.02.08.08s-.06.3-.03.31.12.09.12.09c0,0-.15.27-.08.3.07.03.27,0,.27.04s-.04.12.02.16c.06.04.12.05.12.05,0,0,.03-.13.1-.07.07.06.25.42.37.43.12.01.2-.14.23,0,.04.15.15.44.21.51.06.07.2.22.23.18.03-.04.05-.23.11-.21.06.02.41.1.42.14,0,.04.08.15.08.15,0,0,.05-.1.07-.06.02.04.07.12.07.12,0,0,.07-.1.07-.05s.01.44.08.45c.06,0,.21-.07.18,0-.03.07-.23.16-.17.19.06.03.16-.01.18.06s.02.17.07.17.15-.03.13,0c-.02.03-.12.17-.06.22s.34.18.31.22c-.03.04-.05.25-.02.23.03-.01.18-.16.25-.16s.31,0,.31,0c0,0-.04.12-.06.12-.03,0-.3.02-.31.04,0,.02-.22.3-.18.33s.16-.03.26,0c.1.03.39.28.42.27.02,0,.08-.09.15-.05.06.04.23.18.23.22,0,.04-.05.22,0,.26.04.04.2.17.2.17,0,0-.19.04-.18.07,0,.03.05.32.05.32,0,0,.03.04.05.05.01,0,.07,0,.12,0,.04-.01.08-.01.09,0,.01,0-.04,0-.09,0-.04.01-.08.04-.06.09.04.1.12.32.22.33.1,0,.35-.03.37,0s.11.12.12.07c.01-.06,0-.14.04-.15.05,0,.19-.1.21-.04s-.01.16.06.13.14-.15.24-.15.34.06.34.06c0,0-.01.12.05.12s.32.06.39.05c.06-.01.16.06.23.07.08,0,.25-.12.3-.1.05.01.21.08.28.1.07.02.35-.17.35-.13s-.12.13-.08.26c.04.13-.04.32.07.39.11.07.37.09.32.13-.05.04-.21.13-.21.13,0,0-.01.17,0,.2.02.04.27.25.25.27s-.1.06-.08.08c.01.02.04.12.1.12.06,0,.32-.02.3,0-.01.02-.18.16-.11.26.07.1.17.19.13.22s-.14,0-.13.07c0,.08-.08.41.04.43s.31.07.31.12-.08.2-.08.2c0,0,.11.29.13.33.03.04.23.28.25.3.03.02.39.2.39.2,0,0-.23.16-.18.17.06.01.29-.07.35,0,.06.07.12.15.16.16.04,0,.25.01.24.06,0,.04,0,.66-.01.68,0,.02-.16.15-.15.2.01.04.08.06.08.1s.06.48.04.48-.17-.36-.23-.37c-.06,0-.44,0-.45.04-.01.04-.01.16,0,.17.02.01.25.1.25.1,0,0-.08-.04-.06.06.01.09.01.14.07.16.06.02.17.07.17.09s-.04.21-.04.21c0,0,.2-.11.21-.09.01.02.11.03.1.09,0,.06-.03.42-.09.41-.06,0-.16-.13-.13-.04.03.09.24.53.23.61-.01.08-.01.19-.04.2-.03.01-.13-.08-.12,0,.01.08.12.3.12.3,0,0-.23.09-.23.12s-.04.09,0,.11c.05.01.14-.07.15,0,0,.07.05.08-.02.22-.07.15-.18.2-.18.27,0,.07.06.22.09.23.03,0,.23-.01.17.04s-.18.11-.18.24.08.58.06.59-.17,0-.17.05.1.22.07.22-.13-.12-.14,0c-.01.12-.04.12-.02.22.02.09.09.16.05.25-.04.09-.16.27-.13.31.03.04.11.07.12.17.01.09.07.22-.02.26-.09.04-.29.11-.32.15-.04.04-.11.09-.06.13.06.04.2,0,.12.08-.08.07-.23.12-.23.2s.08.28.02.38c-.06.1-.15.2-.14.28.01.08.16.15.06.21-.1.07-.25.12-.26.17-.01.05-.02.24,0,.29.01.05.24-.09.19,0s-.07.2-.13.22-.18.08-.18.12.06.32.04.33-.13-.08-.11,0,.16.25.11.25-.2-.04-.2,0,.07.33.04.31c-.03-.01-.09-.14-.12-.07-.03.07-.08.24-.08.24h-.16s-.17.29-.17.29c0,0,.31.38.33.38s.25,0,.23.04c-.03.04-.12-.02-.14.04-.02.07,0,.18-.04.17s-.08-.15-.11-.17-.33-.3-.32-.17c0,.13.29.76.29.82s-.12.3-.09.34c.03.04.11.09.11.15s-.22.62-.23.71c0,.09.04.46.04.54,0,.07-.26.88-.33,1.04-.07.16-.09.25-.12.32-.03.07-.14.17-.15.14,0-.02-.06-.06-.04-.12.02-.07.27-.85.25-.88-.03-.03-.09-.07-.11-.01-.02.05-.13.13-.14.25-.01.12-.1,1.15-.09,1.18,0,.03.35.69.37.72.02.03.59.57.7.8.11.23.28.38.28.5s.03.51.06.55c.03.04.06.08.08.06.03-.02.18-.09.15-.15-.04-.05-.09-.09-.11-.2s-.03-.36-.06-.41c-.03-.05-.2-.32-.26-.43-.06-.11-.17-.29-.24-.37-.07-.08-.55-.46-.57-.5-.02-.04-.15-.29-.15-.29,0,0,.21.03.28.14.07.12.25.33.25.33,0,0,.04-.07.08-.04.05.02.17.09.17.09,0,0,.03-.21.02-.25,0-.04-.1-.24-.1-.24,0,0,.15.2.16.16,0-.04.15-.31.15-.25,0,.06-.13.43-.11.54.01.12.22.75.28.8.06.05.4.21.45.22s.13-.02.14.04c0,.07-.05.13-.01.2.04.07.13.29.16.31.03.02.1.04.11,0,.01-.04-.04-.09.04-.08.08.01.37.05.39.01s.09-.19.07-.2-.11-.09-.1-.16c.01-.07.01-.16.03-.2.02-.04.07-.07.06-.12-.01-.05-.06-.15-.06-.15l.17-.05s-.15-.06-.12-.12c.03-.06.11-.12.09-.16-.01-.04-.08-.12-.06-.14.02-.01.35.01.29-.03-.06-.04-.14-.1-.16-.17-.01-.07-.02-.18-.02-.18,0,0,.1-.06.12-.01.02.04.02.14.05.12s.14-.09.12-.12c-.02-.04-.16-.11-.16-.13s.01-.1-.04-.12c-.05-.01-.27.02-.25,0,.01-.03.13-.13.12-.15,0-.02-.08-.07-.08-.07,0,0,.25-.08.27-.02.01.06,0,.2.08.21.08,0,.07.09.08,0,0-.09-.2-.38-.18-.41.02-.02.51-.13.56-.15.04-.02.12-.24.08-.22-.04.01-.3.14-.35.14s-.4-.02-.42-.04c-.02-.01-.4-.35-.45-.37-.05-.02-.44-.19-.44-.19l-.08.04s-.38-.19-.37-.23c.01-.04-.02-.25.11-.28s1.01-.1,1.03-.14c.02-.04.03-.07.01-.11-.01-.04,0-.06-.08-.07-.09,0-.53.04-.53.04l-.06-.07s-.19.12-.13.05c.06-.07.3-.38.27-.44-.02-.07-.39-.56-.32-.53s.44.15.45.22c0,.07-.02.33.01.33.04,0,.26-.24.3-.2s.1.25.12.22c.02-.02.1-.2.12-.14.02.06.06.22.14.26.08.04.65.25.6.25s-.64-.08-.67,0-.13.17-.04.18c.1.01.67.04.67.04,0,0,.06-.17.11-.09.06.07.41.38.39.5s.01.46,0,.49c-.02.02-.18.09-.16.14.02.05.16.16.14.19-.01.03-.28.24-.24.28.04.04.11,0,.13.04.01.04.01.38.08.37.07,0,.33-.06.41-.01.08.04.3.2.33.16.03-.04.11-.25.08-.33-.02-.08-.23-.34-.21-.38.01-.04.09-.24.09-.3s-.11-.36-.11-.36c0,0,.27-.38.31-.4.04-.02.15-.07.18-.01.03.06.18.26.18.2,0-.06.03-.23.08-.25.05-.02.13-.07.19-.06.06.01.16-.04.13.05-.04.09-.09.28-.13.28-.04,0-.16-.02-.16,0,0,.03.18.12.15.17-.03.05-.17.09-.13.14.04.05.33.3.34.38,0,.09-.01.25,0,.29.01.04.14.19.14.23s0,.22-.04.28c-.04.05-.08.13-.08.21,0,.08.04.22,0,.25-.05.02-.37.35-.45.43-.08.09-.28.2-.35.23-.07.04-.1.03-.11.05-.01.02,0,.3,0,.3,0,0,.37.04.37.09s.06.36.02.4c-.04.04-.08.03-.1,0-.01-.02-.04-.28-.08-.28s-.13-.07-.17-.07c-.04,0-.51.2-.51.22s-.07.13-.05.14c.02.01.2.04.2.08,0,.04-.14.15-.16.15s-.11-.08-.11-.08c0,0-.18,0-.19.01-.01.02-.27.43-.3.49-.02.06-.08.39-.06.41.02.02.2.12.19.14-.01.02-.08.07-.08.07,0,0-.2-.15-.23-.11-.03.04-.11.21-.11.21,0,0,.1.11.05.11s-.47-.04-.42,0c.06.04.19.15.19.2s0,.19,0,.19c0,0,.37-.22.35-.14-.03.08.04.17-.04.24-.07.07-.33.36-.35.36s-.14-.17-.14-.17h-.4s0,.11,0,.11c0,0,.66.23.75.25.1.02.59.01.65,0,.06-.01.54-.23.62-.26.08-.03.27-.06.34-.06s.18-.02.15.03c-.02.05-.09.08-.05.1.04.02.23.04.18.08-.04.04,0,.09-.07.08-.06,0-.37-.07-.41-.07-.04,0-.26.11-.26.11,0,0,.01-.1,0-.11-.02,0-.05-.04-.08,0-.04.03-.24.2-.23.22,0,.02,0,.09.07.14.07.05.24.19.23.24,0,.05.05.14-.04.09-.09-.04-.34-.22-.35-.25-.01-.04-.05-.22-.14-.22s-.82.04-.93.01c-.11-.02-.36-.2-.44-.23-.08-.03-.15-.09-.2-.09s-.25.04-.27.07.06.19,0,.2c-.06,0-.11-.05-.12,0-.01.05,0,.3.04.32s.2,0,.25-.07c.04-.06.24-.25.26-.19.02.07.05.38.03.42-.02.04-.09.16-.13.14-.03-.02-.42-.27-.44-.19-.01.08-.04.13,0,.19.05.06.63.4.69.45.06.06.6.26.62.26s.24.49.28.61c.04.12.16.37.16.41s-.02.18,0,.2c.01.02.16.08.16.17s-.02.47-.02.49-.05.13-.08.06-.06-.23-.08-.25,0-.08-.06-.04c-.06.04-.17.32-.15.36.01.04.49.57.51.61s.18.38.18.38c0,0,.1-.04.09-.08,0-.04-.06-.16-.1-.27-.04-.11-.3-.49-.3-.49,0,0,.44.42.44.45s.21.7.21.7c0,0-.18-.22-.2-.22s-.11-.01-.08.04.6,1.41.61,1.49c0,.08.34.75.38.83.04.08.44.8.44.83,0,.02.7,1.25.7,1.25,0,0,.11-.09.08-.12-.02-.03-.17-.15-.18-.2,0-.05,0-.15-.06-.28-.06-.13-.3-.33-.32-.39-.02-.07-.13-.43-.13-.43,0,0,.4.43.45.52.05.09.1.28.13.31.03.03.2-.03.18.02-.02.05-.13.07-.08.12.04.05.14.08.11.13-.03.05-.08.04-.02.15.06.12.31.45.26.44-.05,0-.19-.29-.25-.27-.06.02-.18-.01-.13.08.06.09.23.31.27.4.04.09.46.63.46.63,0,0,.01-.1,0-.14-.02-.04-.3-.43-.3-.43,0,0,.05-.1.08-.04.04.07.19.26.18.17,0-.09-.04-.4-.02-.42.01-.02.25-.18.25-.18,0,0,.16-.02.1.06-.06.08-.27.2-.27.23,0,.04.02.26.06.36.04.09.3.37.32.34.01-.03.12-.3.13-.21.01.09.02.32.09.36.07.04.2.06.23.04.02-.01.1-.33.12-.27s-.04.2,0,.22c.04.02.17.09.22.06.05-.03.27-.29.29-.29s.16.12.14.15c-.02.03-.13-.02-.13.08s-.06.28.02.3c.08.03.2.05.21,0,0-.05.06-.16.06-.2s-.12-.78-.15-.89c-.04-.11-.39-1.01-.41-1.05-.02-.04-.63-.33-.65-.4-.01-.07-.01-.29-.08-.33s-.37-.22-.37-.26.03-.28.04-.24c.01.04.16.28.19.29.04.01.2.02.24.09.04.07,0,.3.07.34.07.04.42.2.44.15.02-.05.06-.29.12-.26.06.03.18.14.18.17s-.12.06-.12.09.04.15.06.17.12,0,.13.04c0,.04-.11.14-.04.17.06.03.29.15.34.15s.12-.04.12-.04c0,0-.23-.12-.18-.12.06,0,.42-.1.42-.12s-.04-.25,0-.22c.04.02.56.16.63.14.07-.02.11,0,.13-.04.01-.04.02-.17.09-.18.07,0,.36.03.4.01.04-.01.3-.52.36-.52s.04-.31.04-.31c0,0-.11-.19-.06-.22.05-.04.09-.14.13-.12.04.02.08.11.06.22-.03.12-.08.31-.04.33.04.01.15-.01.13.02-.02.04-.28.33-.28.41,0,.07.08.11.04.19-.04.08-.11.14-.16.17-.05.03-.66.17-.73.21s-.49.28-.49.38-.05.24.07.31c.12.07.31.16.37.19.06.03.15.1.17.17.02.07-.09.38-.07.46.02.08.08.33.08.36s-.37,1.33-.37,1.39.07.17.06.22c-.01.05-.1.08-.07.16.03.08.07.22.09.3.02.08-.11.04-.04.16s.3.35.3.39.14.36.11.5c-.04.14-.28.28-.26.39.02.11.01.35.11.36.1.01.21-.03.23,0,.02.03,0,.29.06.28.06,0,.47-.15.49-.18.02-.03.04-.19.07-.14.03.04.01.2.07.21.06.01.14.04.17,0,.03-.04.06-.14.13-.16.06-.01.28.08.28.01s.17-.72.23-.77.2-.11.18-.21c-.01-.1-.06-.37-.03-.38.03-.01.18-.2.19-.22.01-.03-.01-.18.06-.2.07-.02.11.04.2-.01.09-.06.2-.35.47-.41.27-.06.51-.17.6-.18.08-.01.34-.02.34-.02,0,0-.44.22-.49.25-.05.02-.22.09-.32.18-.1.09-.52.45-.56.49-.04.04-.13.22-.13.3,0,.08-.12.59-.12.59,0,0-.31.28-.32.33-.01.06-.05.38-.07.38s-.2-.03-.2,0c0,.02-.44.41-.46.39-.02-.01-.21-.17-.24-.17s-.15.07-.15.11,0,.09.03.12c.04.02.15.15.15.15,0,0-.15-.01-.18,0-.03.01-.05.11-.05.11l.73.19s.07-.08.15-.04c.08.04.32.4.33.35.01-.05-.03-.2.04-.2s0-.08.08.06c.08.14.06.19.16.24.1.05.19.09.2.07.01-.02.18-.17.15-.21-.03-.04-.19-.2-.19-.27s.04-.29.06-.25c.02.04.15.52.21.54.06.01.2-.05.21,0,.01.06.18,1.38.2,1.41.01.02.07.16.03.13-.04-.03-.22-.22-.23-.2-.01.02-.14.09-.11.14.03.06.35.82.35.82,0,0,.37.09.3.1s-.27.04-.27.04c0,0,.23.9.24,1.01.01.11-.04.36-.04.41,0,.05.11.25.11.25l.08,1.04s.15.01.15-.1-.04-.5,0-.46c.04.04.13.22.13.3s-.01.51-.01.51c0,0-.07.07-.09,0s-.04-.18-.04-.18c0,0-.12-.01-.11.07.01.08.4.92.4.92,0,0,.11.31.16.33.05.01.05.05.05.01s-.13-.25-.07-.25.13-.04.14.08.03.54.08.49c.05-.05.2-.08.15-.18-.05-.1-.16-.2-.17-.25,0-.05,0-.11,0-.11,0,0,.32.22.32.3,0,.07-.15.21-.09.2.06,0,.25-.09.25-.07s-.08.12-.04.16c.04.04.08.05.1.05s.17-.2.17-.15-.03.15.01.15.15,0,.18-.04c.03-.03.02-.09.02-.09,0,0,.17-.03.19-.01.02.01.06,0,.03.09-.04.09,0,.21-.08.22-.07,0-.4-.08-.4-.08,0,0,.09.2.05.19-.04-.01-.34-.26-.35-.24-.01.02-.04.07-.06.04-.01-.04.02-.15-.04-.1-.06.05-.28.17-.27.22.01.05.17.14.19.22.02.08.07.43.07.43,0,0,.18-.07.22-.07.04,0,.23.07.25.07s.08-.05.06-.07-.08-.04-.1-.08c-.01-.04-.04-.13,0-.15.03-.01.13-.12.14-.05.01.07.13.24.12.28-.01.04-.16.1-.11.12.06.02.35-.03.36,0,.01.03.1.11.1.11,0,0,.16-.25.07-.25-.09,0-.26.09-.29.05-.03-.04-.08-.18-.08-.18,0,0,.06.02.12.04.06.01.2.01.22-.01.01-.03-.08-.2-.06-.2.03,0,.18-.12.17-.01,0,.1,0,.27.01.26.02,0,.08-.07.1-.07s.01.15,0,.2-.02.12.01.13c.04,0,.09-.28.15-.28s.19,0,.18-.03c0-.02-.15-.11-.08-.12.06-.01.17-.08.18-.04,0,.04-.06.11.03.12.08,0,.15.02.17,0,.01-.02.06-.09.06-.04s.11.35.02.32c-.08-.03-.23-.14-.29-.14-.06,0-.16-.04-.17.04-.01.08-.03.24,0,.25.04.01.08.03.12,0,.04-.03,0-.09.07-.07.08.02.35.17.35.14s-.08-.13-.03-.15c.05-.02.07-.09.08-.04.01.05.14.11.11.2-.04.08-.13.23-.13.27s.02.12.06.14c.04.01.08.07.08,0s-.02-.17-.01-.2c0-.03.08-.09.08-.09,0,0,.08-.08.07-.1,0-.02-.27-.4-.23-.41.04-.01.13-.07.17-.03.04.04.06.1.06.14s-.04.1-.02.11c.02,0,.09-.04.18-.04s.25-.05.27.03c.02.08,0,.17.07.17.08,0,.28-.12.34-.06.06.06.23.25.27.3.04.04.83.11.87.21.04.11.35.61.37.6.03,0,.05-.12.11-.12.06,0,.11.07.11.12s.03.17.11.24c.08.07.23.12.2.13-.03.01-.47.14-.48.16,0,.02-.1.11-.1.11,0,0,.13,0,.16,0,.04,0,.08-.03.11,0,.03.03.07,0,.09.04s.08.06.07.12c-.01.07-.16.14-.13.21.02.07.16.18.16.21s-.07.02,0,.08c.08.06.22.1.24.15.02.05.18.28.19.26.01-.02.18-.18.18-.23s-.07-.21-.06-.26c.01-.05.22-.28.22-.28,0,0-.1-.09-.12-.09s-.13.08-.11.02c.01-.06.02-.14.06-.17.04-.02.07-.09.11,0,.04.08.11.19.16.2.04,0,.11.03.08-.04-.03-.07-.09-.25-.08-.28.01-.03.05-.09.08-.07.04.02.1.06.08.14-.02.09-.11.09-.03.14.07.04.38.12.45.18.07.07.09.22.13.26.04.04.14.11.15.08.01-.03.09-.1.09-.08v.19s.06-.07.11,0,.11.22.1.24c0,.02-.14.09-.14.09l.04.11s-.2,0-.2-.07c0-.06.08-.16,0-.21-.08-.05-.15-.26-.25-.24-.11.02-.68.35-.7.38-.01.03-.16.2-.14.22s.11.05.11.07-.06.1-.01.1.21-.14.18-.07-.11.28-.08.29c.03.01.13,0,.15,0s.21.21.21.23,0,.11.04.17c.04.06.12.1.11.17,0,.07-.11.16-.04.22.06.06.28.2.25.22-.04.02-.2.01-.17.08.04.07,0,.25.08.25s.68-.09.71-.12c.04-.02.27-.27.29-.32.01-.05.1-.4.1-.4,0,0,.23-.08.26-.07.04,0,.13.08.13.08,0,0-.25.06-.23.09.03.03.23.14.23.14,0,0-.06.03-.04.08.01.05.12.12.04.12-.08,0-.25.07-.23,0,.02-.06.2-.13.1-.15-.11-.01-.25-.11-.23,0,.03.1.08.35.04.35s-.18-.12-.19-.06c-.01.06-.05.2-.05.2,0,0-.28,0-.34.06-.06.05-.4.54-.4.57s.34.57.41.57.21-.16.25-.14c.04.01.15.14.13.14s-.14,0-.16.05c-.01.05-.05.16-.05.16,0,0,.27.23.24.25-.04.02-.09.01-.08.07.01.05.09.27.11.29.02.02.13,0,.13.07s-.11.42-.04.43c.07,0,.59-.04.62,0,.03.04.16.09.16.14,0,.04,0,.1,0,.12,0,.01.18,0,.2.05.02.06.25.32.32.33s.23,0,.25,0c.02,0,.04.15.1.1.06-.05.25-.25.3-.24.06,0,.25.02.25.06,0,.04-.11.16,0,.19.11.03.21.08.21.1s-.11.22-.06.24.17,0,.18.04c.01.04.11.28.16.28s.15-.1.15-.07-.02.17,0,.2.13.09.13.09c0,0,.13-.11.13-.06,0,.05.04.16.06.2s.07.15,0,.24-.2.35-.23.36c-.04.01-.38.01-.4.04-.02.03,0,.12-.1.12s-.54-.15-.54-.15c0,0-.17-.19-.24-.2-.07,0-.21.03-.27-.01s-.3-.19-.33-.25c-.03-.06-.05-.34-.07-.33-.02,0-.19.04-.19,0s.04-.28.03-.3c0-.02-.42-.49-.49-.48-.06,0-.28-.03-.33.04s-.15.41-.16.45c-.01.04.06.21.03.25s-.08.05-.08.07-.07.59-.07.65.32.56.32.56c0,0,.03-.11.06-.07.03.04.14.2.17.22.03.02.6.39.6.43s.08.13-.04.09c-.13-.04-.19-.06-.27-.12-.08-.07-.48-.46-.48-.41s-.02.28.04.31c.06.03.19,0,.27.07.08.07.42.47.5.48.08,0,.57-.24.65-.22.08.02.39.07.49.07s.28-.11.35-.13c.08-.02.81-.07.85-.14.04-.07,0-.27.06-.31.06-.04.29-.2.37-.21.08-.01.38.01.42.02.04,0,.15.25.21.2.06-.06.17-.13.17-.18s-.14-.19-.06-.19.29-.04.27.04-.11.43-.07.41c.04-.02.14-.14.17-.13.03,0,.13,0,.13.04,0,.03-.05.25,0,.22.05-.03.06-.38.13-.28.07.11.28.32.3.32s.24-.02.23-.04c-.01-.02-.25-.16-.25-.2,0-.04.22-.17.25-.1.03.07.28.39.3.33.02-.07.04-.28.08-.33s.19-.13.19-.13c0,0-.06.14,0,.11.06-.03.08-.1.13-.09.05,0,.19.01.17.07-.02.06-.23.29-.2.3.04.01.19.04.2,0,.01-.03.14-.31.17-.33.03-.02.13-.14.13-.14,0,0-.05-.09-.09-.07-.04.02-.25.09-.25.06,0-.03.04-.25.13-.22.09.03.23,0,.3,0,.07-.01.33-.25.31-.19-.02.06-.18.3-.11.3s.26-.07.3-.12c.04-.06.17-.22.17-.22,0,0,.13.01.13.04s-.09.08-.07.1c.02.02.15.06.18.05.04,0,.1-.12.1-.12,0,0-.03-.14,0-.12.03.02.28.22.28.17s-.05-.16-.06-.22c-.01-.06-.16-.2-.2-.18-.04.01-.42.13-.42.11,0-.02.06-.32.12-.33.06-.01.09-.05.15-.02.06.03.2.12.24.1.04-.01.07-.11.07-.11,0,0,.09.17.11.16.01-.01,0-.11.11-.11s.31-.04.32-.01c0,.03.1.3,0,.29-.1,0-.37-.07-.37-.07,0,0-.1.09-.05.09s.23,0,.25.04.16.2.16.2c0,0,.2-.15.25-.15h.19s.25.33.25.36-.05.14,0,.16c.05.01.15-.05.15-.07s.04-.3,0-.31c-.04-.01-.19-.04-.21-.09-.02-.05-.1-.17-.13-.17s-.32.04-.32.02c0-.02-.18-.07-.04-.11.13-.04.56-.25.56-.22,0,.02-.1.2-.03.21s.13.02.19.08c.06.06.19.37.25.41.06.04.24.14.26.11.02-.03.06-.26.06-.26,0,0-.21.02-.23-.07s-.08-.24-.12-.25c-.04-.01-.14.06-.12,0,.02-.07.08-.18.05-.21-.04-.03-.18-.01-.11-.12.06-.1.11-.3.23-.3.11,0,.18.02.18-.04s-.06-.18,0-.21c.06-.03.19-.11.25-.16.06-.05.08-.36.12-.39s.32-.1.37-.14c.05-.04.44-.82.39-.8-.05.01-.07.05-.11.02s-.17-.09-.2-.17c-.04-.09,0-.41.02-.45.03-.04.11-.11.08-.14-.03-.04-.09,0-.11-.07-.01-.07-.16-.26-.13-.41.04-.15.05-.8.12-.84.07-.04.16-.01.2-.11.04-.09.13-.57.13-.57,0,0-.09-.51-.06-.57.03-.06.22-.33.23-.31.01.02.01.13.07.09.06-.04.35-.8.34-.83,0-.02-.18-.06-.18-.06,0,0,.2,0,.25-.09.05-.09,0-.27.06-.36.06-.09.63-.54.66-.59.04-.06.11-1.11.11-1.14,0-.03.18-.59.23-.65.06-.05.25-.3.27-.34s.08-.51.08-.51c0,0-.05.93,0,.99.05.07.16.28.14.33-.02.05-.13.09-.13.14s-.14.79-.13.83c.01.04.15.2.16.16,0-.04.18-.62.18-.69s-.07-1.67-.06-1.69c0-.02.06-2.21.06-2.21,0,0-.08.07-.11.04-.04-.03-.12-.21-.11-.25,0-.04.04-.1.08-.06.04.04.11.17.14.12.03-.05.04-.14.06-.21.01-.07.19-2.11.19-2.11l.32-3.3s.12-.91.08-.91c-.04,0-.09.09-.11.03-.02-.07-.08-.08-.08-.16s0-1.83,0-1.83c0,0-.1-1.36-.1-1.38s-.05-.98-.05-.98c0,0,.23.43.23.51s-.06.44-.03.44.14-.02.14-.05c0-.03.02-.35,0-.4-.02-.05-.59-1.85-.59-1.85,0,0-.68-.02-.65-.07.03-.04.13-.09.08-.13-.04-.04-.42-.4-.42-.43,0-.03-.06-.14.01-.09.07.05.47.47.48.42,0-.05-.02-.25.01-.16.04.09.06.22.14.25.08.03.3.15.3.07,0-.08-.25-1.07-.27-1.09-.01-.02-.82-2.05-.88-2.05s-.19.01-.18.04c.01.03.12.14.12.17s-.02.15-.06.14c-.04-.01-.75-.95-.8-.91-.06.04-.42.15-.42.2,0,.05.11.38.11.41s-.02.17-.06.11c-.04-.07-.23-.4-.23-.44s0-.25-.02-.25-.11,0-.13-.02-.51-.56-.51-.56c0,0,.34-.04.4.06.06.09.28.51.35.49.07-.02.13-.15.18-.15s.47,0,.48.02c0,.02.29.51.29.51,0,0,.05,0,.05-.06s-.86-1.64-.86-1.64l-.94-2.06-.64-2.15-.31-1.28-1.3-2.41-.33.3s.21-.54.2-.57c-.01-.03-.65-1.44-.65-1.44l-.56-.94-.8-1.86-.84-2-.81-2.12s.04-.27-.03-.4c-.06-.13-.26-.52-.27-.57,0-.05.04-.34.01-.38-.03-.04-.22-.27-.23-.31,0-.04-.2-.84-.21-.93-.01-.09-.25-.49-.26-.57,0-.07-.06-.75-.08-.86-.01-.12-.33-1.12-.29-1.15.04-.03.04-.07.08-.04.04.03.69.43.66.46-.04.02-.16.09-.13.1.02,0,.3-.01.3.04s-.07.21,0,.22c.06,0,.16,0,.22.04.06.04.24.43.26.46.02.02.18.07.18.07,0,0-.22.04-.23.08-.01.04-.01.26-.04.23-.03-.03-.04-.12-.07-.09-.03.04-.09.11-.09.11l-.07-.12s-.03-.04-.06.07c-.04.1-.05.2-.03.21s.24-.08.19,0c-.05.07-.15.2-.18.28-.02.07-.08.4-.02.46.06.06.3.26.35.26s.71.08.75.11.08.12.14.12.33-.01.33-.04-.06-.21-.06-.23.12-.17.15-.16c.04.01.39.2.44.2s.09-.03.07-.07c-.02-.04-.14-.27-.06-.19.08.08.38.28.37.32,0,.04-.14.11-.13.13.01.02.2.16.2.22s-.08.1-.03.17c.06.07.15.13.16.22,0,.09-.25,1.75-.27,1.78-.02.02-.2.06-.2.12,0,.06-.04.14-.02.2.02.07.13.17.11.17s-.18,0-.15.04c.03.04.1,0,.12.13s.11.54.07.57c-.04.03-.24,0-.2.07.04.07.2.22.17.26-.03.04-.07.09-.05.15.02.07.13.59.13.59,0,0-.1.32-.08.37.01.05.07,1.07.08,1.05,0-.02-.61-1.29-.61-1.31s-.28-1.25-.24-1.22c.04.03.1,0,.12.1.02.09.1.56.11.44,0-.12-.11-1.14-.11-1.19s.05-.75.08-.81.19-.78.22-.84c.03-.06.23-.17.23-.19s.15-.54.15-.62-.06-.33-.06-.33c0,0-.12.08-.12.03s-.05-.23-.08-.24c-.03,0-.32-.12-.35-.07-.04.05-.01.2-.04.22-.03.03-.17.09-.17.09,0,0,.03.05-.03.09-.06.04-.15-.07-.19-.08-.04,0-.11-.01-.13.03s-.03.62-.03.62c0,0-.06.09-.08.04-.02-.05,0-.28-.01-.21-.02.07-.11.24-.11.16s-.03-.34-.06-.27c-.03.07-.05.14-.06.22,0,.07-.06.72-.06.75,0,.03.18.27.18.3,0,.04.01,1.2.01,1.2l.73,1.83s.58,1.41.63,1.44c.05.04.23.09.25.18.02.09.58,1.45.63,1.53.05.08.39.6.4.63,0,.03,0,.17.01.2.01.02.28.46.26.47-.02,0-.1,0-.1.04s.06.15.06.15c0,0,.1.06.1.08s0,.13.02.13.09-.05.12-.02c.03.03.08.1.1.12.01.02.04.4.13.46s.22.09.22.14.01.21.01.21l.13-.12-.75-1.53-.85-1.87s-.3-.98-.32-1.04c-.01-.07-.2-1.3-.2-1.3l-.12-1.01.13-.99-.19-.13s.25,0,.27-.01c.01-.02.25-.41.3-.43.05-.01.43-.11.44-.16,0-.05.01-.22,0-.25-.01-.04-.44-.89-.44-.89,0,0-.34-1.03-.37-1.09-.04-.06-.37-.38-.4-.43-.03-.05-.85-1.28-.85-1.28l-.83-1.25-.58-.99-.85-1.41-.68-1.34s-.12-.07-.12.01.2.41.2.41c0,0-.12.29-.11.33.01.04.04.12.09.15s.23.07.23.09c0,.02-.1.09-.08.12.02.02.08.11.06.13-.01.02-.08.12-.12.08-.04-.04-.36-.67-.32-.71.04-.04.13-.08.13-.13s-.04-.14-.04-.17c0-.04-.44-.59-.47-.58-.03,0-.21.12-.25.11s-.11-.08-.11-.08c0,0,.03-.09.08-.09.05,0,.12.05.15,0,.03-.04.04-.21,0-.22-.03,0-.17,0-.17-.02s.02-.19.02-.19l-.54-1.21-.68-1.46s-.21-.58-.26-.61c-.05-.03-.17,0-.16-.03,0-.02.04-.17.04-.2,0-.03.08-.1.11-.09.02,0,.11.03.11.07,0,.04.6,1.49.6,1.49l.28.7s.23.43.24.48c.01.04.3.53.31.55,0,.02.21.26.2.3-.01.04-.08.04-.07.08,0,.04.32.56.35.57.02,0,.14.09.14.04s.02-.17,0-.21c-.03-.04-.63-.99-.63-.99l-.61-1.3-.49-1.16-.5-1.14-.69-1.62-.42-.96-.43-1.27s-.04-.23-.08-.28c-.05-.04-.29-.25-.27-.27.02-.01.11-.08.11-.1s-.37-.86-.37-.95-.14-1.36-.14-1.36l-.27-.46s-.09-.03-.09,0,0,.12,0,.12l.2.33s-.32-.41-.32-.37c0,.04.05.19.04.26-.01.07-.11.33-.08.34.03.01.13.01.13.07s0,.37.04.41c.04.04.16.09.18.14.03.04.22.66.22.66,0,0-.05.12-.08.09-.03-.04-.18-.47-.25-.53-.07-.06-.36-.33-.37-.37,0-.04.07-.13.08-.17,0-.04-.16-.43-.15-.48.01-.04.1-.07.12-.1.02-.04,0-.59,0-.59,0,0-.12-.05-.11-.08,0-.03.06-.19.04-.24-.03-.05-.35-.45-.36-.49-.01-.04.1-.07.11-.12,0-.06-.15-.35-.18-.36-.02-.01-.13-.04-.15-.07s-.11-.23-.11-.28c0-.05-.04-.88-.07-.95-.03-.07-.11-.46-.11-.43,0,.02.27.41.27.45s.03.72.06.77c.03.04.41.67.44.75.03.09.32,1.12.34,1.12.02,0,.13.03.13-.05s-.51-2.11-.51-2.11l-.34-1.34-.51-2.09-.11-.38s.07-1.04,0-1.04-.31.01-.31.01c0,0-.29.21-.3.24,0,.03.17.41.16.51,0,.09.02.32.06.37.04.05.07.12.08.17,0,.04-.02.29-.02.29,0,0-.08-.3-.13-.37-.05-.07-.11-.03-.13-.12s-.03-.53-.06-.6c-.04-.07-.06-.17-.15-.12-.08.05-.16.12-.16.07s-.06-.24-.04-.25c.02,0,.2.05.18.02s-.08-.17-.17-.14c-.09.03-.24.13-.32.1-.08-.03-.35-.17-.35-.12,0,.04.13.16.13.22,0,.06.02.21-.04.25-.06.04-.09.08-.18.06-.09-.02-.82-.41-.87-.41s-.13,0-.13.03.04.28.04.36-.01.46.05.48c.06.02.24.07.27.1.03.03.09.34.05.35-.04,0-.13-.04-.13-.04,0,0,.06-.27-.02-.25-.08.01-.3.11-.37.1-.07,0-.3-.15-.33-.09-.04.06-.08.58-.08.58,0,0,.48.52.51.57s.05.2.04.24c0,.04-.19.37-.19.37,0,0,.04.05.04.12,0,.07-.05.24-.08.28-.03.04-.29.17-.29.19s0,.18,0,.21c.01.03.2.16.23.16s.33-.14.37-.12c.04.01.15.02.15.07,0,.05-.44.26-.44.28,0,.02.08.3.03.38s-.16.09-.2.18c-.04.09-.13.24-.11.32.03.08.08.33.1.34.02.01.58.29.59.31,0,.02.07.3.11.31.04.01.35.16.37.16s.09-.27.13-.22c.04.04.17.28.17.33v.13s-.27-.04-.27.01.05.32,0,.36-.18.13-.22.18c-.04.05-.08.12-.04.22.04.1.25.53.29.56.04.03.23.09.23.12s-.07.17-.06.21c0,.04.06.56.12.64.06.08.34.49.33.51,0,.02-.25.14-.25.2s.05.51,0,.53c-.05.02-.28.22-.33.22-.05,0-.72.1-.72.1l.11.45s.16.07.15.15c-.01.09-.06.2-.05.22,0,.02.22.1.23.14.01.04-.01.38-.03.42-.01.04-.28.23-.3.23s-.38-.15-.38-.15c0,0-.27.09-.28.12,0,.03-.2.57-.2.57,0,0,.18.38.2.44.01.06-.03.77,0,.8.03.03.13.03.11.09-.01.06-.11.29-.09.3.02.01.36.2.36.22s-.1.33-.05.38.26.14.29.17c.03.03.15.25.18.25s.14-.09.19-.07.53.78.61.83.25.05.25.14c0,.09-.15.4-.13.44.02.04.28.53.25.57-.03.04-.58.38-.53.42.05.04.2.08.23.12.02.04.01.2.01.2,0,0-.26-.09-.28-.12-.02-.02.02-.15-.08-.16-.1,0-.32,0-.36,0-.04,0-.16-.07-.15-.13.01-.07.07-.22.04-.26-.04-.04-.36-.12-.33-.2.03-.08.07-.28.07-.31s-.56-.8-.57-.83c-.01-.04-.04-.18.01-.2.05-.01.2,0,.21-.07,0-.06-.32-.54-.32-.59s-.03-.13.05-.14c.08-.01.18.06.17-.01,0-.07.03-.26,0-.3-.03-.04-.36-.3-.39-.36-.03-.07.16-1.11.13-1.17-.03-.06-.18-.42-.19-.48-.01-.06.08-.56.13-.58.05-.02.39-.18.45-.18s.34.08.39.06c.06-.02.16-.07.19-.15s.08-.25.05-.29c-.03-.04-.34-.05-.35-.12,0-.07.06-.36,0-.42-.06-.06-.25-.16-.25-.23s-.05-.34,0-.38c.04-.04.25-.13.3-.14.06,0,.47.01.53-.03.06-.04.36-.73.35-.77-.01-.04-.25-.18-.25-.23,0,0,0-.19-.03-.22-.03-.04-.08-.06-.12-.09-.04-.03-.25-.33-.26-.49-.01-.17-.09-.67-.09-.7s-.2-.14-.16-.17c.04-.03.11-.06.11-.11,0-.05,0-.25,0-.27s.13-.17.13-.17c0,0-.03-.25-.08-.29-.05-.04-.54-.38-.56-.4-.02-.01-.18,0-.2-.01-.02,0-.27-.37-.27-.43s0-.21-.03-.25c-.04-.04-.3-.15-.28-.2.02-.04.34-.45.34-.48s.03-.61.01-.67c-.01-.06-.09-.26-.13-.28-.04-.02-.15-.06-.16-.04,0,.02-.07.24-.12.26s-.16.07-.17.09c0,.02-.05.45-.06.43-.01-.02-.31-.26-.29-.3.02-.04.31-.48.31-.48,0,0,.23-.15.25-.15s.31.05.31.01-.03-.36-.01-.4c.01-.04.35-.52.35-.52,0,0,0-.25-.02-.27-.02-.01-.32-.18-.34-.24-.02-.06-.04-.36-.09-.34s-.17.1-.17.04-.11-.27-.06-.28c.04,0,.18-.02.2-.06.03-.04.3-.41.39-.41s.46-.03.46-.03c0,0,.09-.54.06-.59-.03-.05-.15-.28-.2-.3-.04-.03-.42-.13-.44-.14-.02,0-.16.06-.13,0,.02-.05.12-.19.09-.22-.03-.04-.64-.07-.64-.07l.67-.05s.12.25.17.27c.05.02.29.09.35.06.06-.04.32-.24.32-.29s-.38-.33-.33-.33.25,0,.3.04c.04.04.17.35.19.31.02-.04.08-.42.11-.34.03.08.06.25.06.25,0,0,.08-.01.08.02s-.07.15-.05.17c.02.03.19.2.23.16.03-.04.08-.2.13-.25.05-.05.26-.17.28-.17s.17-.07.12.01c-.05.08-.22.14-.18.16.04.02.22.12.25.04.03-.07.08-.29.06-.33-.03-.04-.15-.17-.15-.17,0,0,.03-.09.06-.06.03.04.04.09.09.08.05,0,.18-.09.18-.06,0,.04-.08.14-.06.16.02.02.07-.04.08,0,.01.04,0,.12.03.13.04.01.14,0,.19.05.05.04.08.28.05.25-.04-.04-.13-.24-.17-.2-.04.04-.29.28-.26.3.03.02.42.04.42.04,0,0,.09-.3.09-.36s-.06-.17-.06-.2c0-.02.11-.22.11-.27s-.29-.71-.29-.73.04-.34.02-.36c-.02-.02-.32-.35-.35-.36-.03,0-.24-.15-.23-.1,0,.04.07.17.09.17s.16-.02.17.01c.01.04.04.49.07.51.03.03.18.12.18.18s-.03.29-.03.29c0,0-.14-.09-.14-.12s.06-.12,0-.15c-.06-.02-.43-.09-.47-.07-.04.02-.08.11-.13.08-.04-.03-.28-.21-.28-.25,0-.04.18-.13.18-.2s-.12-.2-.12-.2l-.27.03s-.11-.12-.11-.14c0-.02,0-.2,0-.2,0,0-.09.02-.08,0,0-.02.13-.14.14-.11,0,.03.05.35.11.35s.28-.15.31-.1c.03.04.08.26.1.27.02,0,.1.02.1.02,0,0,.15-.2.15-.22s-.02-.3-.02-.3c0,0,.27-.07.27-.09s0-.24,0-.24c0,0,.15-.09.15-.15,0-.05-.09-.15-.09-.15,0,0,.04-.1.07-.07.03.03.35.36.35.36,0,0-.08.3-.08.33,0,.02.11.41.13.43s.2.28.22.29c.02,0,.12.07.11,0-.01-.07-.13-.77-.13-.84s.19-1.79.19-1.79c0,0-.29-.05-.35,0-.06.05-.15.33-.17.41-.02.09-.15.07-.16.12-.01.05,0,.19-.03.23-.04.04-.27.14-.27.14l.21-.26s.06-.33.02-.28c-.04.04-.39.31-.42.31s-.15-.08-.06-.13c.09-.05.48-.25.48-.27s-.01-.11-.04-.11-.37.2-.39.19c-.02,0-.47-.25-.47-.25,0,0-.02-.17-.04-.17s-.24.07-.26,0c-.02-.07,0-.15-.04-.17-.04-.02-.21-.07-.28-.07-.07,0-.16-.07-.18-.09-.01-.02,0-.16-.09-.12-.08.04-.28.08-.28.08,0,0,.04-.2,0-.19-.04,0-.11,0-.11,0,0,0-.07-.08-.1-.07-.03,0,.06.14-.13.12s-.58-.09-.61-.12c-.04-.04-.4-.36-.43-.34-.03.02-.15.23-.2.15-.05-.09-.09-.23-.16-.28-.07-.05-.17-.11-.23-.12-.06,0-.2.06-.3.05-.1,0-.51-.1-.55-.19-.04-.09-.16-.43-.24-.37-.08.07-.04.15-.15.15s-.25-.12-.35-.12-.26.09-.26.14-.01.2,0,.25c.01.06-.04.2-.08.23-.04.03-.59-.08-.62-.05l-.03.03s.18.25.09.31c-.08.07-.29.12-.3.22,0,.1.08.51.04.62-.04.1-.15.39-.17.48-.02.09-.06.19,0,.27.06.08.59,1.24.57,1.29-.02.05-.11.57-.14.66-.04.09.03.61.02.69,0,.08-.3.9-.3.98,0,.08.11.49.07.54-.04.05-.25.19-.33.22-.08.04-.56-.12-.58-.12s-.58.14-.65.12c-.07-.02-.36-.39-.39-.47-.04-.08-.14-.47-.14-.56s.06-.77.06-.79-.44-.8-.44-.82c0-.02.19-.39.16-.39s-3.02-.25-3.11-.25c-.09,0-4.59-.3-4.59-.3l-6.33-.44-6.5-.43-6.8-.46s-5.05-.26-5.11-.34c-.06-.08-.17-.46-.34-.54-.17-.08-.24-.07-.28-.12s-.24-1.03-.24-1.03c0,0,.14-.19.13-.24-.01-.05-.14-.15-.13-.19.01-.04.02-.36,0-.44-.02-.08-.5-.67-.5-.7s.03-.35,0-.39c-.03-.04-.24-.15-.25-.21-.01-.06-.04-.41-.04-.41l-5.34-.09-5.67-.1-6.42-.2-6.22-.25L1.92.1S.54-.09.53.05c0,.14.05.54.05.57S-.03,1.91,0,1.98c.04.07.06.2.11.28Z"/>
      <path class="cls-1" d="M75.56,5.73c0-.05-.06-.27-.06-.27l-.08-.09s-.09.04-.08.07c0,.03.04.38.08.38s.14-.03.14-.08Z"/>
      <path class="cls-1" d="M75.06,5.17h-.24l-.1.2s-.11-.06-.16-.07c-.05,0-.17.02-.17.02,0,0,.16.13.2.14.04,0,.24-.03.27-.04.04-.01.19-.25.19-.25Z"/>
      <path class="cls-1" d="M75.13,5.58s.16-.32.16-.32l-.11-.06-.27.3-.22.08.32.12s.09-.09.12-.12Z"/>
      <path class="cls-1" d="M75.39,7.04s-.15.09-.15.15.16.4.15.41c0,.01.16.26.17.22.01-.04-.13-.41-.11-.45.01-.04.12-.2.11-.23,0-.03-.17-.1-.17-.1Z"/>
      <path class="cls-1" d="M75.24,7.43s-.18,0-.18,0c0,0,.06.08.08.08.03,0,.13-.07.09-.08Z"/>
      <path class="cls-1" d="M75.16,8.23s.04-.43,0-.44c-.04-.01-.16-.03-.16-.03-.04.04-.26.42-.26.42,0,0,.01.08.06.08s.37,0,.37-.03Z"/>
      <path class="cls-1" d="M74.77,10.09c.03-.07.06-.21.06-.21l.15-.08s-.11-.12-.16-.07c-.06.05-.23.34-.26.34s-.3-.12-.26-.07c.04.04.23.21.3.2.07,0,.14-.04.17-.11Z"/>
      <path class="cls-1" d="M75.81,8.26c-.03-.07-.07-.19-.07-.19h-.09s0,.15,0,.19c0,.04.29.83.29.83l.15.09s.04-.12.06-.12.08.01.08.04-.06.18-.06.21c0,.03.16.37.16.37,0,0,.1-.01.1-.08s-.11-1.04-.13-1.03c-.02.01-.28.3-.27.24.01-.06.11-.22.1-.26-.01-.04-.3-.22-.32-.28Z"/>
      <path class="cls-1" d="M76.27,9.71s-.32-.44-.32-.44c0,0-.1.11-.1.13s-.08.56-.08.56l.09.09s.23-.23.27-.22.14-.09.13-.11Z"/>
      <path class="cls-1" d="M85.73,36.27c-.05-.07-.24-.09-.24-.09.05.16.15.41.17.35.02-.07.12-.2.07-.26Z"/>
      <path class="cls-1" d="M91.12,52.36s.08.1.08.1c0,0,.26-.19.27-.21,0-.02-.27-1.01-.29-1.07s-.23-.71-.25-.76c-.02-.05-.3-.39-.3-.39l-.33-1.28-.15-.53-.8-1.57s-.14.07-.11.14c.03.07.25.36.25.41,0,.05-.19.13-.06.25s.2.13.23.21c.03.08.07.33.11.36.04.02.2.08.2.11,0,.03.2.43.2.5,0,.07-.06.22-.04.27s.23.31.24.41c.01.1.12.88.16.91.04.04.2.16.23.2.02.04.15.58.14.62,0,.04-.07.17-.04.21.03.04.21.14.2.17,0,.04-.08.04-.09.07,0,.03-.02.31.03.36.05.05.17.1.17.12s-.12.12-.08.14c.04.01.15,0,.15,0l.11.09s-.25.11-.24.14Z"/>
      <path class="cls-1" d="M93.15,56.55s.18,0,.19,0c0,0-.16-.48-.18-.52-.02-.04-.63-1.38-.63-1.38l-.56-1.3-.51-1s-.13.3-.11.35c.02.05.06.17.11.18s.11-.02.13,0c.01.02.22.37.23.39,0,.02.14.62.14.62l.13.05-.13.09s.21.07.24.11c.03.04.25.76.27.79.01.03.16.36.2.43s.26.43.26.43c0,0,0,.22,0,.22s.16.05.16.05c0,0,.11.14.11.18s-.06.3-.04.3Z"/>
      <path class="cls-1" d="M95.11,65.43l.04-1.53s0-.71,0-.8c0-.09-.13-.72-.13-.72,0,0-.08.07-.06.1.01.04.06,1.03.06,1.06s.04,1.09.04,1.09l.06.8Z"/>
      <path class="cls-1" d="M94.25,75.6s-.11-.05-.11-.05c-.04.05-.11.13-.06.17.04.04.08.11.11.05.03-.06.06-.13.06-.17Z"/>
      <path class="cls-1" d="M94.16,77.21l-.24-.14s-.19.19-.18.23c0,.04.08.18.13.15.06-.03.29-.25.29-.25Z"/>
      <path class="cls-1" d="M94.29,76.99l-.22-.07s.06.14.11.15.11-.09.11-.09Z"/>
      <path class="cls-1" d="M93.61,77.17s-.16,0-.17.04c0,.04-.06.09,0,.09s.17-.13.17-.13Z"/>
      <path class="cls-1" d="M93.99,78.35s.07-.83.07-.83c-.02,0-.33.27-.33.27,0,0,.08.02.08.06s-.16.14-.12.21c.04.07.27.34.3.3Z"/>
      <path class="cls-1" d="M93.8,80.84c0-.09,0-.33,0-.33-.01.03-.14.19-.11.23.03.04.11.19.11.1Z"/>
      <path class="cls-1" d="M93.26,82.18s-.07.2-.03.19c.03-.01.3-.25.31-.3,0-.05.26-1.11.26-1.11,0,0-.37.75-.37.86s.01.17,0,.21c-.01.04-.15.1-.17.15Z"/>
      <path class="cls-1" d="M93.04,82.96c.05-.12.1-.48.1-.48-.04.12-.14.26-.14.26,0,0-.18.04-.15.07.04.04.14.26.19.15Z"/>
      <path class="cls-1" d="M89.08,88.6s-.4.14-.4.17.06.2.11.19c.06,0,.26-.11.27-.13,0-.02.32-.49.35-.55.04-.06.47-.35.48-.39.01-.04.02-.25.04-.3.02-.05.36-.47.41-.48.05,0,.11.04.18-.01.06-.05.41-.62.41-.62,0,0-.07.25,0,.22.06-.02.47-.37.48-.4,0-.03.06-.34.08-.34.01,0,.21-.18.19-.21-.02-.02-.13-.02-.13-.05,0-.03-.09-.07-.04-.09.06-.02.16-.05.19-.1.03-.05.94-1.81.97-1.86.03-.04.28-.6.28-.6,0-.02,0-.12-.09-.09-.08.02-.17-.05-.21.09-.04.14-.18.43-.19.45-.01.02-.41.42-.44.43-.03,0-.54.03-.51.07.03.04.38.2.41.28s-.02.47-.04.49c-.01.02-.14.38-.19.39-.05.01-.22.01-.25,0-.03-.01-.13.11-.13.11,0,0,.08.18.06.24-.02.06-.34.58-.34.58,0,0-.24,0-.24.06v.28s-.25-.03-.24,0c.01.03.09.09.08.15,0,.05-.15.29-.17.29s-.22-.19-.28-.17c-.06.01-.15-.07-.13,0s.24.28.21.33c-.03.06-.67.77-.68.81-.01.04-.04.15-.04.15,0,0-.34-.02-.34,0s.01.2,0,.26c-.01.06-.1.31-.13.34Z"/>
      <path class="cls-1" d="M90.41,85.96s.23.26.24.22c.01-.04.03-.15,0-.19-.03-.04-.23-.12-.25-.15-.03-.03-.11-.13-.11-.13,0,.02-.11.47-.04.43.06-.04.13-.22.16-.17Z"/>
      <path class="cls-1" d="M89.98,86.46s-.14.32-.14.3.26-.17.28-.21c.02-.04-.07-.14-.07-.14,0,0-.04.01-.07.06Z"/>
      <path class="cls-1" d="M88.99,86.1c0-.08-.16-.14-.16-.14,0,.06,0,.13.05.14.05,0,.11.08.11,0Z"/>
      <path class="cls-1" d="M88.6,85.8s-.22-.09-.22-.09c0,0-.06.04,0,.07.06.03.11.11.13.11s.12-.07.09-.09Z"/>
      <path class="cls-1" d="M88.05,86.4c-.01-.05-.14-.08-.14-.08,0,.02.03.3.08.26.05-.04.08-.13.06-.18Z"/>
      <path class="cls-1" d="M87.9,86.76s-.13-.21-.18-.22c-.04-.01-.18.04-.18.04,0,.03.08.19.13.17.05-.02.23,0,.23,0Z"/>
      <path class="cls-1" d="M87.98,87.03s-.07-.14-.07-.14c-.07.01-.2.14-.13.14s.16.04.21,0Z"/>
      <path class="cls-1" d="M87.45,86.45l-.09-.05s-.06.2-.04.18c.01-.03.13-.13.13-.13Z"/>
      <polygon class="cls-1" points="87.11 87.43 87.31 87.35 87.21 87.27 87.11 87.43"/>
      <path class="cls-1" d="M86.85,87.2h-.18s.09.1.11.1.07-.1.07-.1Z"/>
      <path class="cls-1" d="M85.97,86.32s-.1.06-.08.08c.02.02.25.09.22.05-.03-.04-.14-.13-.14-.13Z"/>
      <path class="cls-1" d="M85.55,86.58s-.13-.13-.13-.13c0,0-.02.07,0,.08.02.02.17.09.13.05Z"/>
      <polygon class="cls-1" points="84.73 86.59 84.75 86.7 84.88 86.59 84.73 86.59"/>
      <polygon class="cls-1" points="86.37 87.67 86.48 87.84 86.51 87.67 86.37 87.67"/>
      <polygon class="cls-1" points="86.76 88.28 86.85 88.28 86.85 88.13 86.76 88.28"/>
      <path class="cls-1" d="M88.63,88.88c-.06,0-.25,0-.25.08s.05.16.05.16c0,0,.18-.15.2-.16.03,0,0-.08,0-.08Z"/>
      <path class="cls-1" d="M88.19,89.09l-.4.67s.56-.48.55-.54c0-.06-.15-.13-.15-.13Z"/>
      <path class="cls-1" d="M87.17,89.57s.11.18.11.18l.06-.09-.16-.09Z"/>
      <path class="cls-1" d="M85.51,89.09s-.13.19-.11.2c.03,0,.18.04.18,0s-.07-.2-.07-.2Z"/>
      <path class="cls-1" d="M87.4,89.95s-.19,0-.19,0c0,0-.42.3-.46.38-.04.08,0,.23,0,.2,0-.03.29-.18.31-.2.02-.01.38-.4.34-.39Z"/>
      <path class="cls-1" d="M86.59,90.68l-.15-.14c0,.07-.02.13,0,.14.02,0,.15,0,.15,0Z"/>
      <path class="cls-1" d="M86.2,90.54c-.1,0-.2,0-.24.03-.04.04-.67.65-.67.65,0,0,.66-.12.68-.15.03-.03.11-.16.11-.19s0-.02-.06,0-.15,0-.11-.05c.04-.04.2-.06.22-.09.01-.04.06-.19.06-.19Z"/>
      <path class="cls-1" d="M84.53,91.59c-.07.02-.14.12-.14.12,0,0,.15.08.19.04s-.05-.17-.05-.17Z"/>
      <path class="cls-1" d="M83.07,92.44s.24-.04.33-.13c.09-.09.78-.57.78-.59,0-.02-.06-.12-.06-.12-.06.04-.35.33-.44.36-.09.02-.56.1-.57.15-.01.04-.07.14,0,.14s.23-.03.18,0c-.04.03-.23.21-.22.2Z"/>
      <path class="cls-1" d="M82.25,92.88s.17-.34.24-.36c.07-.02.32-.11.36-.15s.07-.18.07-.18c-.08,0-.23-.06-.3,0-.06.06-.92.43-.9.44.02,0,.52-.01.53,0,0,.01-.05.27,0,.25Z"/>
      <path class="cls-1" d="M81.81,92.79s.18.11.2.09c.03-.02.07-.17.07-.17-.02.01-.3.06-.27.08Z"/>
      <path class="cls-1" d="M79.74,93.45s.44-.33.44-.33c-.04.01-.23.01-.27.07s-.2.28-.16.25Z"/>
      <path class="cls-1" d="M79.26,93.45v.11l.25-.11s-.25,0-.25,0Z"/>
      <polygon class="cls-1" points="79.47 91.73 79.66 91.83 79.52 91.55 79.47 91.73"/>
      <polygon class="cls-1" points="79.32 92.21 79.05 92.11 79.14 92.34 79.39 92.58 79.32 92.21"/>
      <path class="cls-1" d="M79.26,93.17l-.08-.37-.19-.09-.13.09s.18.27.18.27l.11-.07.1.17Z"/>
      <polygon class="cls-1" points="78.35 91.95 78.17 91.95 78.43 92.16 78.45 92.06 78.35 91.95"/>
      <polygon class="cls-1" points="77.52 91.9 77.36 91.78 77.36 91.97 77.44 91.95 77.56 92.01 77.52 91.9"/>
      <polygon class="cls-1" points="77.68 92.01 77.64 92.16 78.01 92.24 77.96 92.06 77.68 92.01"/>
      <polygon class="cls-1" points="78.59 92.71 78.17 92.24 78.11 92.38 78.53 93.12 78.53 93.39 78.82 93.45 78.87 93.51 78.68 93.79 79.01 93.68 79.07 93.57 78.74 92.94 78.75 92.8 78.59 92.71"/>
      <path class="cls-1" d="M77.78,92.88s.13-.1.05-.19c-.08-.09-.2-.31-.24-.34-.04-.03-.17-.11-.17-.11,0,0,.01.25.04.28.03.03.31.38.32.36Z"/>
      <path class="cls-1" d="M77.97,92.8h-.07s-.01.11,0,.14c.01.03.2.27.2.27l-.13-.41Z"/>
      <path class="cls-1" d="M78.26,93.17s-.09-.15-.09-.15v.2c0,.06.09.3.09.3,0,0,0-.3,0-.34Z"/>
      <path class="cls-1" d="M78.08,93.45s-.16-.19-.16-.19c0,0-.09.25-.1.27,0,.02.07.09.07.09,0,0,.18-.15.18-.17Z"/>
      <path class="cls-1" d="M77.67,93.44c-.02-.06-.21-.38-.21-.38,0,.01-.21.25-.18.29.03.04.21.29.23.27.02-.02.18-.12.16-.18Z"/>
      <path class="cls-1" d="M77.27,92.88c-.05-.06-.09-.17-.13-.17s-.14.04-.14.04c0,0,.04.15.06.18.02.03.16.08.16.08,0,0,.1-.08.05-.14Z"/>
      <path class="cls-1" d="M77.01,92.28s-.09-.15-.1-.17c0-.01-.08-.05-.08-.05-.01.05-.04.2,0,.18.04-.01.2.08.18.04Z"/>
      <path class="cls-1" d="M77.46,92.66s-.1,0-.1,0c-.02.03.06.22.06.22,0,0,.03-.05.06-.09.02-.04.04-.13-.01-.14Z"/>
      <path class="cls-1" d="M75.82,92.52s-.17,0-.17,0c0,0-.09.2-.06.19s.1-.05.13-.05c.03,0,.14-.12.1-.14Z"/>
      <path class="cls-1" d="M76.75,93.45s.18-.08.21-.06c.03.02.19.2.19.2,0,0,.01-.19,0-.25-.01-.06-.03-.24-.1-.28-.08-.04-.43-.3-.43-.3l-.08.11s.08.07.08.12c0,.05-.03.1-.04.16-.01.07.15.29.17.28Z"/>
      <path class="cls-1" d="M75.16,94.53s.17-.17.17-.17c0,0,.16,0,.14.01-.02.02-.19.09-.16.12.03.02.03.04.1.04s1.25-.54,1.26-.59c.01-.04.04-.35,0-.41-.04-.06-.59-.53-.59-.53,0,0-.17.13-.17.12s.03.14.03.14l.37.14.08.17s.11-.09.11-.06.07.22.04.28c-.04.07-.16.15-.18.14-.02-.01-.44-.37-.41-.3.04.07.16.34.14.35-.02,0-.09-.04-.12,0-.03.04-.14.15-.14.15,0,0-.15-.13-.12-.09.03.04.09.15,0,.15s-.17.04-.2,0c-.04-.04-.13-.25-.11-.25s.24.08.24.01.13-.45.04-.44c-.1,0-.22.04-.28.06-.06.02-.17.12-.14.12.02,0,.22.01.18.04-.04.03-.27.16-.26.19.01.03.08.18.08.18,0,0,.08.01.06.05-.02.04-.21.33-.21.33,0,0,.03.06.06.05Z"/>
      <path class="cls-1" d="M77.29,94.2s-.19-.21-.19-.21c-.03.04,0,.15,0,.15,0,0,.2.09.19.06Z"/>
      <polygon class="cls-1" points="74.59 92.86 74.46 92.94 74.56 93.11 74.66 93.02 74.59 92.86"/>
      <path class="cls-1" d="M75.03,93.31v-.09l-.37-.1s.18.26.2.24c.02-.02.17-.04.17-.04Z"/>
      <path class="cls-1" d="M74.46,94.94s.39-.3.39-.3c0,0-.31-.07-.29-.07s.32-.14.32-.16.04-.14-.04-.14h-.22s.1.2,0,.17c-.1-.02-.21-.07-.23-.04-.01.04-.04.17-.09.13-.06-.04-.19-.25-.2-.18,0,.07-.08.2-.06.24.01.04.04.1.04.14s-.15.21-.13.21.49.01.49,0Z"/>
      <path class="cls-1" d="M73.47,95.1c.02-.06.07-.28.09-.29.02,0,.04,0,.07.04.04.04,0,.18.08.14.08-.04.17-.11.13-.17-.04-.06-.21-.22-.21-.22-.06.07-.35.28-.44.28-.08,0-.24,0-.26,0-.02,0-.21.22-.21.22,0,0,.04.08.1.08s.63-.03.65-.09Z"/>
      <path class="cls-1" d="M72.96,94.8c.01-.07,0-.25,0-.3s-.09-.07-.09-.07c0,.04-.02.17,0,.2.02.02.08.23.09.17Z"/>
      <path class="cls-1" d="M68.77,95.18s.18-.2.2-.29c.02-.09.06-.23-.06-.29-.11-.06-.39-.17-.39-.17-.04.05-.36.15-.21.19s.53.1.53.15-.16.41-.16.41c0,0,.06,0,.09,0Z"/>
      <path class="cls-1" d="M68.21,94.99h-.1c-.03.09-.06.17,0,.19.06.02.18.09.17.05-.01-.04-.07-.24-.07-.24Z"/>
      <polygon class="cls-1" points="82.96 87.75 83.15 87.89 83.02 87.67 82.96 87.75"/>
      <path class="cls-1" d="M83.16,83.52c-.04.08-.06.27-.06.27l.22-.32s-.12-.03-.16.05Z"/>
      <path class="cls-1" d="M83.65,84.32s-.07-.12-.07-.12c0,0-.09.07-.08.12.01.05-.02.13.04.11.06-.02.12-.09.11-.11Z"/>
      <polygon class="cls-1" points="84.01 84.32 83.81 84.32 83.87 84.48 83.94 84.48 84.01 84.32"/>
      <path class="cls-1" d="M84.22,84.81l-.21-.33-.1.14s.13.18.16.19c.02,0,.16,0,.16,0Z"/>
      <path class="cls-1" d="M83.51,84.53s-.08.23-.06.22c.02,0,.22-.05.21-.07,0-.02-.15-.15-.15-.15Z"/>
      <path class="cls-1" d="M83.86,84.93s-.14.25-.12.24c.02,0,.23-.09.23-.12s-.11-.12-.11-.12Z"/>
      <path class="cls-1" d="M82.75,84.87c.06.04.51.39.58.38.06-.01.34-.09.33-.12,0-.03-.15-.11-.15-.11,0,0-.05.03-.07-.01-.02-.04,0-.15-.05-.13-.06.02-.08.11-.13.1-.05,0-.15-.05-.15-.09,0-.04.08-.17.06-.17s-.26.17-.22.09c.04-.08.22-.49.22-.49,0,0-.48.51-.42.55Z"/>
      <path class="cls-1" d="M82.74,84.58s-.35.13-.35.13c0,0,.14.13.2.1s.15-.24.15-.24Z"/>
      <path class="cls-1" d="M82.56,84.2l-.08-.08s-.2.1-.2.15c0,.04.06.22.1.17.04-.05.18-.24.18-.24Z"/>
      <path class="cls-1" d="M82.22,84.01s0,.16,0,.15c0,0,.11-.16.11-.15s-.11,0-.11,0Z"/>
      <polygon class="cls-1" points="82.33 83.82 82.43 83.89 82.43 83.79 82.33 83.82"/>
      <path class="cls-1" d="M82.38,83.46h-.16s.04.11.05.11c.01,0,.15-.06.15-.06l-.05-.06Z"/>
      <polygon class="cls-1" points="82.09 83.37 82.28 83.31 82.17 83.25 82.09 83.37"/>
      <path class="cls-1" d="M81.91,83.14s-.19-.12-.19-.12l-.19.06.34.12s.04-.01.04-.06Z"/>
      <polygon class="cls-1" points="81.6 83.31 81.82 83.31 81.73 83.19 81.6 83.31"/>
      <polygon class="cls-1" points="81.71 83.37 81.67 83.46 81.98 83.46 81.98 83.37 81.71 83.37"/>
      <path class="cls-1" d="M81.82,83.63c-.06-.04-.51-.21-.51-.21,0,0-.12.16-.1.16.02,0,.67.09.61.05Z"/>
      <path class="cls-1" d="M81.98,83.63h-.12s.03.19.06.16c.02-.03.06-.16.06-.16Z"/>
      <polygon class="cls-1" points="81.86 83.84 82.03 84.01 81.98 83.84 81.86 83.84"/>
      <path class="cls-1" d="M78.61,78.32s0-.09,0-.09c-.04.01-.08,0-.08.04s0,.28.04.22c.03-.06.01-.14.04-.17Z"/>
      <path class="cls-1" d="M78.39,78.55l.1-.11-.1-.19v.3Z"/>
      <path class="cls-1" d="M80.01,77.95s-.14-.34-.17-.28c-.03.07-.11.17-.11.13,0-.04-.05-.13-.05-.13,0,0-.24.08-.27.12s-.14.12-.13.21c.01.09.11.36.16.32.05-.04.58-.33.57-.37Z"/>
      <path class="cls-1" d="M79.22,78.41s-.11.16-.06.15c.04,0,.16-.07.16-.07l-.09-.07Z"/>
      <path class="cls-1" d="M78.11,77.47s-.1,0-.07.05c.03.05.11.21.11.15s-.04-.2-.04-.2Z"/>
      <path class="cls-1" d="M78.44,77.5c-.07,0-.19.08-.19.08,0,0-.04.1,0,.09.04,0,.11,0,.14-.04.04-.04.05-.13.05-.13Z"/>
      <path class="cls-1" d="M77.54,76.94s-.17.13-.15.15c.02.01.18.12.19.08,0-.04-.04-.22-.04-.22Z"/>
      <path class="cls-1" d="M77.39,76.94s-.06-.25-.06-.25c-.04.02-.11.06-.11.06,0,0-.12-.09-.13-.06,0,.04-.05.12,0,.12s.2-.04.2,0v.13s.09.04.1,0Z"/>
      <path class="cls-1" d="M78.15,76.74s-.35-.25-.39-.24c-.04,0-.25-.05-.32,0-.08.05-.22.15-.17.14.05,0,.17.1.21.13.04.03.1-.03.1-.03l.15-.06s.08.32.11.32.03-.04.04-.07c.02-.03-.05-.09,0-.09s.11.02.11.09,0,.12.05.15c.04.03.11.1.17.09s.33-.07.33-.07l-.04-.04s-.11-.1-.15-.1c-.04,0-.27.09-.24.05.02-.04.07-.25.06-.26Z"/>
      <path class="cls-1" d="M77.71,76.83h-.07s.06.15.07.17c.01.02,0-.17,0-.17Z"/>
      <path class="cls-1" d="M76.54,76.52l.06.09s.08.01.11,0,.08-.1.08-.12c0-.02-.13-.1-.13-.1,0,0,.04.1,0,.1-.04,0-.11.04-.11.04Z"/>
      <path class="cls-1" d="M77.26,76.42s.01.1.02.07c.01-.04.02-.09.1-.1.09,0,.29,0,.29,0,0,0-.03-.2-.19-.22-.16-.02-.45,0-.46,0,0,0-.25-.24-.27-.23-.02,0-.11.19-.12.23,0,.04-.08.13,0,.13s.13-.04.16.03.08.09.06.14c-.02.06-.18.28-.06.23.12-.05.42-.16.35-.19-.08-.03-.25-.18-.22-.19s.15.11.22.12c.07,0,.13,0,.13,0Z"/>
      <path class="cls-1" d="M76.42,76.16c.01.09.06.23.07.22.01,0,.1-.4.1-.4,0,0,.13-.11,0-.11s-.3-.06-.32-.09c-.02-.04-.06-.22-.11-.19-.06.04-.18.15-.21.19-.03.04-.1.16-.1.2s.04.23.04.23c0,0,.13-.09.13-.14,0-.05-.02-.12.01-.15.04-.02.08-.13.08-.07s-.04.3-.01.33c.03.02.07-.13.07-.05s-.01.25.04.25.11-.06.11,0,0,.13.03.12c.02-.01.09-.1.07-.12-.02-.01-.03-.22-.03-.22,0,0,.04-.1.05,0Z"/>
      <path class="cls-1" d="M74.32,75.54s-.24.12-.21.12c.03,0,.09.11.1.11s.13-.09.14-.12c.01-.02-.04-.12-.04-.12Z"/>
      <path class="cls-1" d="M74.18,76.31c.02-.09.02-.49,0-.49s-.23-.2-.23-.17c0,.03-.03.14-.05.12-.02-.02-.23-.27-.23-.27,0,0-.11-.1-.06.04.05.14.5.81.5.81,0,0,.06.04.08-.04Z"/>
      <path class="cls-1" d="M71.7,67.99c0-.07-.11-.14-.11-.14-.09.09-.06.22-.06.22,0,0,.16-.01.17-.08Z"/>
      <path class="cls-1" d="M71.53,68.3s-.14-.06-.14-.06c0,.06.03.19.08.22.06.04.15.12.15.12,0,0-.07-.25-.09-.28Z"/>
      <path class="cls-1" d="M71.7,68.63s-.14.06-.14.08.07.18.07.18l.15-.17-.08-.09Z"/>
      <path class="cls-1" d="M71.27,68.3s.08-.09.06-.14c-.02-.05-.18-.31-.23-.36s-.85-.5-.85-.5c0,0-.08.16,0,.2.08.04.75.47.78.49s.24.31.24.31Z"/>
      <path class="cls-1" d="M68.5,67.44v.09l-.21.05s-.69-.49-.7-.55c-.01-.06-.23-.78-.23-.78,0,0-.1-.12-.11-.04,0,.09.26,1.07.28,1.09.02.02.61.43.67.5.06.06.54.27.58.26.03,0,.88-.52.88-.52-.03,0-.63-.2-.63-.18s.08.15.06.18-.23.12-.25.12c-.02,0-.16.06-.16,0v-.18s-.16-.05-.16-.05Z"/>
      <path class="cls-1" d="M68.45,67.05s.04.12.04.12l.2-.06-.24-.06Z"/>
      <polygon class="cls-1" points="68.15 66.93 68.32 66.93 68.19 66.8 68.15 66.93"/>
      <path class="cls-1" d="M67.25,66.11s-.16-.7-.18-.7h-.14c0,.08-.07.17,0,.23.07.07.16.38.2.41.04.02.12.07.12.07Z"/>
      <path class="cls-1" d="M66.7,64.48c0-.07-.13-.59-.13-.59,0,.02-.11.37-.08.41s.44.98.44.98c0,0,.08-.14.08-.17,0-.04-.31-.55-.31-.62Z"/>
      <path class="cls-1" d="M66.79,64.15s-.09-.04-.09,0,.14.21.14.21c0,0,.12-.04.11-.07-.01-.02-.16-.15-.16-.15Z"/>
      <path class="cls-1" d="M67.25,64.08l-.18.17s.13.12.13.06.05-.23.05-.23Z"/>
      <path class="cls-1" d="M67.11,64.46s-.12.04-.11.09.11.24.11.2v-.29Z"/>
      <polygon class="cls-1" points="66.82 64.6 66.9 64.75 67.01 64.71 66.82 64.6"/>
      <path class="cls-1" d="M67.38,64.58l-.13-.07s.04.14.05.16c.01.02.13.07.13.07l-.04-.17Z"/>
      <path class="cls-1" d="M67.83,63.88l-.2-.04s-.12.15-.12.15c0,0,.06.07.12.07s.2-.17.2-.17Z"/>
      <polygon class="cls-1" points="67.42 64.25 67.56 64.13 67.45 64.05 67.42 64.25"/>
      <polygon class="cls-1" points="67.34 64.8 67.42 64.91 67.56 64.85 67.34 64.8"/>
      <polygon class="cls-1" points="67.42 65.07 67.67 64.91 67.61 64.8 67.42 65.07"/>
      <path class="cls-1" d="M67.83,65.19s.08-.06.09-.08c0-.02-.06-.17-.06-.17,0,.06-.04.25-.04.25Z"/>
      <polygon class="cls-1" points="67.87 65.41 68.02 65.41 67.97 65.27 67.87 65.41"/>
      <path class="cls-1" d="M68.32,64.51s-.06,0-.08-.06c-.02-.05-.08-.38-.08-.38-.01.02-.34,0-.36,0-.02,0-.25.25-.25.25,0,0,.1.01.12.08.02.07-.02.16.03.2.05.04.31.15.32.19.01.04.18.58.18.61,0,.03-.15.2-.11.23.04.04.08.12.15.2.07.07.29,1.17.37,1.17.08,0,.41-.07.41-.07,0,0-.26-.19-.25-.27,0-.08-.1-.87-.11-.91,0-.04-.37-.62-.34-.65.03-.03,0-.59,0-.59Z"/>
      <path class="cls-1" d="M68.93,65.72c0-.12-.04-.6-.04-.6l-.11-.14s-.31,0-.29.08c.02.08.3.66.3.66-.01,0-.05.12-.05.12,0,0,.13.13.13.06s-.02-.12,0-.14c.02-.03.06.08.07-.03Z"/>
      <path class="cls-1" d="M66.35,63.66c.04.07.15.14.14.09-.01-.06.06-.6.03-.68-.03-.08-.17-.69-.17-.69-.02,0-.23.12-.23.12,0,0,.22.49.23.6.01.12-.04.5,0,.57Z"/>
      <polygon class="cls-1" points="66.61 62.8 66.7 62.87 66.75 62.71 66.61 62.8"/>
      <polygon class="cls-1" points="66.9 62.87 67.07 62.96 66.9 62.75 66.9 62.87"/>
      <polygon class="cls-1" points="67.01 62.59 67.25 62.59 67.07 62.48 67.01 62.59"/>
      <polygon class="cls-1" points="67.34 62.56 67.39 62.79 67.45 62.53 67.34 62.56"/>
      <path class="cls-1" d="M62.47,55.18c-.02-.06-.14-.31-.14-.31,0,0-.18.06-.18.09,0,.04.25.4.26.38.01-.02.08-.1.06-.16Z"/>
      <path class="cls-1" d="M62.24,54.76s-.35-.3-.35-.33c0-.02-.03-.23-.05-.25-.02-.02-.22-.05-.25-.1-.03-.05-.28-.51-.32-.54-.04-.03-.35-.25-.35-.25h-.13s.82,1.03.85,1.05c.04.02.42.52.42.52,0,0,.19-.09.17-.11Z"/>
      <path class="cls-1" d="M60.21,51.9s.37.57.39.67c.01.1.2.6.2.6,0,0,.09.03.09,0s-.31-.83-.31-.88,0-.23,0-.23l-.38-.17Z"/>
      <path class="cls-1" d="M61.61,51.68s.33-.12.33-.12l-.16-.12s-.2.25-.18.25Z"/>
      <polygon class="cls-1" points="59.93 51.14 60.07 51.27 59.98 50.92 59.93 51.14"/>
      <path class="cls-1" d="M60.3,50.33h-.14s.06.46.11.46.35-.08.36-.1c.01-.02.15-.26.13-.24-.02.02-.17.08-.17.08,0,0-.06-.31-.09-.23-.04.08,0,.29,0,.29,0,0-.13.08-.13.04,0-.04-.06-.29-.06-.29Z"/>
      <polygon class="cls-1" points="61.05 50.09 60.97 50.09 61.01 50.43 61.12 50.43 61.05 50.09"/>
      <path class="cls-1" d="M61,49.74l-.03.25s.05-.07.08-.09c.03-.02-.04-.17-.04-.17Z"/>
      <path class="cls-1" d="M60.55,49.78l-.17.09s-.04.21,0,.22c.04,0,.11.09.13.04.02-.04.04-.36.04-.36Z"/>
      <polygon class="cls-1" points="61.67 49.22 61.79 48.96 61.67 48.96 61.67 49.22"/>
      <path class="cls-1" d="M63.96,46.44c.01-.08-.01-.17-.04-.18s-.12-.09-.12-.09c-.03.06-.13.33-.06.3s.13-.07.13-.07c0,0,.06.12.08.04Z"/>
      <path class="cls-1" d="M58.97,44.17s.14.18.13.15c-.01-.04,0-.42,0-.42-.06.05-.13.25-.13.28Z"/>
      <path class="cls-1" d="M59.21,45.02s-.12-.59-.12-.59c.02.02-.11.37-.06.42.05.05.18.2.18.17Z"/>
      <path class="cls-1" d="M59.12,45.67s.07,0,.07-.1-.07-.4-.07-.4l-.09-.07c0,.06-.03.38-.01.45.02.07.1.12.1.12Z"/>
      <path class="cls-1" d="M58.9,42.56c0-.05-.08-.27-.08-.27-.05.09-.11.28-.08.31.03.03.08.11.08.11,0,0,.07-.1.08-.15Z"/>
      <path class="cls-1" d="M60.92,34.78c.07-.01.18,0,.2-.07.02-.07-.04-.3-.04-.3-.04,0-.36.05-.33.06.03,0,.24.04.21.1-.03.07-.04.07-.05.11,0,.04-.07.12,0,.1Z"/>
      <path class="cls-1" d="M60.74,34.1c.06,0,.17,0,.2-.03.03-.03.11-.16.09-.19-.02-.03-.24-.22-.24-.22-.04.08-.07.21-.04.21s.16-.01.12.04c-.04.05-.19.19-.13.19Z"/>
      <path class="cls-1" d="M60.67,32.74s-.33.17-.33.2.01.18.05.17c.04-.01.21-.12.21-.09s-.05.14,0,.14.33-.09.33-.14c0-.05,0-.15.03-.19.03-.04,0-.18,0-.18-.04,0-.22-.04-.22,0,0,.04.05.26,0,.21-.05-.05-.05-.1-.08-.11Z"/>
      <path class="cls-1" d="M61.07,32.99c.08-.04.2-.14.22-.16.02-.01-.04-.07-.04-.07-.02,0-.25.04-.23.08.02.04-.04.18.05.14Z"/>
      <path class="cls-1" d="M61.19,32.32s.06.35.07.3c0-.05.03-.28.03-.28l-.1-.03Z"/>
      <path class="cls-1" d="M60.94,32.48s-.19-.06-.19-.06l-.03.06.11.06s.14-.05.11-.06Z"/>
      <path class="cls-1" d="M60.58,32.59l-.24.09v.09s.14.06.17,0c.03-.06.07-.17.07-.17Z"/>
      <path class="cls-1" d="M59.24,28.99s-.16.04-.16.07c0,.04.08.16.08.15,0,0,.13-.12.13-.11,0,0-.06-.11-.06-.11Z"/>
      <polygon class="cls-1" points="59.34 29.26 59.24 29.26 59.3 29.45 59.45 29.35 59.34 29.26"/>
      <path class="cls-1" d="M56.42,28.57s-.13-.26-.13-.26c-.02,0-.2.07-.18.08.02.01.14.05.14.08s-.05.18-.05.18c0,0,.22-.04.22-.08Z"/>
      <polygon class="cls-1" points="55.66 28.6 55.72 28.84 55.79 28.72 55.66 28.6"/>
      <rect class="cls-1" x="55.9" y="29.07" width=".1" height=".1"/>
      <polygon class="cls-1" points="56.63 28.26 56.75 28.17 56.67 28.08 56.63 28.26"/>
      <path class="cls-1" d="M56.11,27.78s-.11-.12-.11-.12l-.05.12.1.11s.1-.13.06-.12Z"/>
      <polygon class="cls-1" points="55.72 27.44 55.89 27.36 55.72 27.29 55.72 27.44"/>
      <polygon class="cls-1" points="41.79 14.66 41.96 14.53 41.79 14.4 41.79 14.66"/>
      <polygon class="cls-1" points="40.16 15.11 40.04 15.16 39.95 15.49 40 15.61 40.32 15.23 40.16 15.11"/>
      <path class="cls-1" d="M37.18,18.67s.07-.13.09-.17-.06-.15-.06-.15c0,.02-.04.22-.08.22s-.26-.03-.27,0c-.01.03-.19.3-.21.3s-.58.12-.58.12c0,0,.13.12.15.11.03-.01.57-.18.62-.21.05-.03.31-.2.33-.22Z"/>
      <path class="cls-1" d="M34.1,20.53c-.06.02-1.18.36-1.18.36,0,0-.04.18-.06.19-.03,0-.75.35-.75.35,0,0-.47.16-.5.15-.03,0-.9-.36-.87-.34s.47.53.53.53.7-.13.72-.14c.02,0,1.6-.85,1.64-.87.04-.02,1.02-.34,1.06-.38.03-.04.64-.6.7-.65.06-.05.29-.33.29-.33v-.13s-.46.33-.51.39c-.06.07-.42.36-.42.36,0,0,.1.06.07.1-.03.04,0,.08-.11.08h-.23s-.01.08,0,.12c.01.04-.31.19-.37.21Z"/>
      <path class="cls-1" d="M33.53,20.3l-.22-.2s.1.28.13.27c.04,0,.08-.07.08-.07Z"/>
      <path class="cls-1" d="M29.23,20.38s.86.65.93.67c.07.03.25.12.31.12s.23-.03.27-.09c.04-.06.28-.63.28-.63,0,0-.2-.11-.23-.11h-.55l-.06.04s.32.12.3.14-.57-.19-.67-.18c-.1,0-.58.04-.58.04Z"/>
      <path class="cls-1" d="M24.18,14.47s-.27-.18-.32-.22c-.05-.04-.51-.3-.51-.3l-.12-.23s-.19.07-.19.09.35.24.37.26c.03.02.68.49.72.48.04-.01.06-.07.04-.09Z"/>
      <path class="cls-1" d="M8.52,9.69s1.79-.29,1.92-.29,1.47-.07,1.54-.03c.07.04,1.29.19,1.34.19s.08-.04.08-.04l-.14-.11s-1.01-.08-1.04-.08-.66-.07-.66-.07c0,0-1.68.09-1.7.09-.02,0-1.83.28-1.83.28,0,0-1.06.15-1.08.14-.02,0,.01-.13-.06-.1-.08.03-1.1.32-1.11.3-.01-.02-.11-.15-.13-.12-.02.03-.03.18-.05.17-.02,0-.03-.09-.11-.05-.08.04-.63.15-.69.15s-.44.09-.56.04c-.12-.04-.53-.14-.53-.14,0,0,.35.26.45.25.1-.01.63-.01.65-.03s3.71-.56,3.71-.56Z"/>
    </g>
  </g>
</svg>