<svg xmlns="http://www.w3.org/2000/svg" id="Layer_2" data-name="Layer 2" viewBox="0 0 78.3 95.3"><defs><style>.cls-1{fill:#172d35}</style></defs><g id="_Ñëîé_1" data-name="Ñëîé 1"><path d="M40.6.4V.3H19.1L8 0H0l2.8 20.2L5.2 38l.7 5.5v.1h.3l.1.2-.2.4v.4l.7.6-.3.4v.3h.3l.2.3-.1.3v.5l.4.6-.2.4.3.2v.2l.2.7 1 1.5.2 1.3.5.5-.3.6.1.2H9l.2.3H9v.3l-.3.3v.4l1.1.6.7.7-.3.2-.2.2v.5l-.9.1v.1l.1.3-.7.3-.8.9.1.9-.1.2v1.2l-.3.5v.5l-.2.3v.4l-.5.5v.3l-.4.1v.3l-.1.8v1.2l.2.3v1.3l.7 1v.3l.3.4v1l.3.5-.1.6-.4.8v.9l-.2.2v.5l-.3.7.2.7-.1.6-.5.4.3 1-.2.7.2.3v.3l.3.2.8 1.3v.4l.3.5.1 1v.5l.4.3v.5l.7 1v.7l.1.2-.2.4.4 1.5.4.1.4.7 6.1.5 7.3.5 8 .6 8.3.6 9 .6 6.4.5-.2.2v.4l.1.5.5.6-.1 1.1.2.8.6.6.9-.1.8.2.2-.2.2-.2-.1-.7.1-.3v-.3l.3-.8v-1l.2-1-.2-.4-.2-.3-.4-1v-.3l.2-.7-.1-.4V87l.4-.1.1-.2-.1-.4.1-.1h.2l.3.2h.2l.2-.4v-.4l.3-.2h.2q.2.3.4.2l.1-.1v-.2l.2.2.2.4.8.2h.5l.3.2v.4l.4-.3.4.2.3.4h.8l.2-.1v.1h.2v.3l.5-.1.1.3h.1l.1-.2h.2v.1h.4l-.1-.2h.1l.2.3h.4V87h.2v.5l.4-.1v-.5h.2v-.2l-.1-.5-.5-.4v-.3h.2v-.2H67V85h-.3l-.2-.2v-.3l-.1.1v.3H66v-.4h.5v.4l.5-.1.2.2h.5l-.5-.6v-.2l.6-.6.1-.3.4-.4v-.4H68l-.3.3-.5-.2-.2-.2-.3.2h-.3l-.6-.2-.2-.2h-.3l-.2.2V82l.2-.1h.4l.4.3.5-.3h.4l.7.4V82l.2.2.3-.4.2-.2H68l-.1-.4-.9-.6v-.3l.2.2.6.2.1.3h.3l-.5-.6h-.2l-.2-.3V80l.1-.1v-.2l-.7-.6.1-.1h.2v-.7l-.3-.2v-.4h-.3l-.5.1h-.2l1-.3v.3l.5.3.1.7.4.2v.3l.6.4.3-.2.1-.3-.4-.8V78l.5-.5.2.3.1.5v.7l.3.2h.2l.3-.3v-.5l.1.2.8-1-.4-.7v-.3l.3-.1-.2.2v.2l.3.5h.2l.3-.4v-.2l.3-.3q0-.2-.1 0H71V76l.1-.2h-.4l-.2-.2-1.1-.2-.2.1v.2l.1.3v.3h-.1V76l-.4-.3.2-.3.4-.2v-.1l-.2-.1H69l-.7-.1-.2-.2h-.3v-.3l.1-.3.6.4v.3h1.1l.7.1.4.2h.4v-.8l-.4-.4v-.3l-.7-1h.1l.4.3h.2l.2.5.2.5h.2l.7-1.2v-.3h.1l.3-.3.3-.9.2-.1-.4-.3-.2.1v.3H72V71l-.4.7-.6.1v-.2l.5-.4V71l-.5.2-.3-.3h-.3v-.2l-.3.3h-.2v-.3h.1l.2-.1h.3v-.3l.1-.2.1.4.4-.2.4.2v-.3h.1l.2.3h.2v-.2h.3l.3-.4v-.3l-.5-.4v-.3h-.3v-.2l.4.3.2.2h.3l.2.5v.4l.1.3.2-.2.5-1.2-.1-.2h-.1l.2-.2v-1h-.4l-.6.3v.2h.4l-.2.1-1 .1h-.5V68l.5-.2h.6q.2-.1.2-.4c-.1-.1-.6-.7-.8-.7l-.7-.3v-.6l-.6-.1-.1-.4.2.3h.7v.5l.2.3h.5c.1.2.8.5.8.5h.2v-.2l-.2-.5v-.7l.2.4v.4l.2.2.2.5h.2l1.1-1 .3-.6V65h-.3l-.7-.6h-.7l-.2-.2-.3-.7h-.4l-.3.1v-.2l.2-.2-.1-.1-.5.6-.1-.4h-.4V63l-.2-.1-.1-.4h.2l.1.3.2.2v.1l.3.1v.2l.6-.5.1.2-.1.3h.6l.3.6.3.2h.7V64l-.1-.2h-.3l-.4-.2s0-.5-.2-.5l-.7-.2h.5c0-.1-.5-.4-.4-.5h.2l.2.3h.2l.3.7.3.2.2-.1-.3-.7-.4-.3.1-.2.2-.1v.4h.2v.2l.3.2v.4l.4.5h.6l.3.2h.3v.1h.2l1-1-.7-.1-.3-.3v-.2l-.4-.3-.1-.4.1-.5-.2-.2v-.1L75 61h.2l.4.3v1l.5.3.3-.4-.2-.2h.4l.1-.2v-.6l-.3-.2v-.1l-.3-.3v-.1l.7.6s.1.7 0 .8v.7l.3-.2.5-.1.3-.3.1-.3-.1-.4h.1l.1.2v-.7l-.6.1-.2-.4H77l-.1-.2h-.3l-.4-.3-.4-.2-.3-.4h-.4l-.6.2-.6-.5h-.3l-.1-.5v-.2l-.1-.4.3-.1-.2-.4-.6-.6.2-.2-.2-.2.2-.5.3-.2v-.2l-.2-.8.1-.3-.2-.3-.3.2v-.1l-.2-.3-.1-.3v-.3l-.5-.8v-.4l.2-.3-.7-.7v-.3l-.6-.3-.2-.5h-.2l-.1-.2-.4.1-.4-.2-.2-.2h-.2v-.2H69l-.5-.8v-.2l.3-.2-.1-.2v-.6l-.4-.3.2-.2v-.3l.1-.2-.2-.2.2-.1-.4-.3.2-.1-.2-.2.1-.2v-.8l-.1-.2H68v-.2l-.3.1.1-.5q-.1-.3-.2-.1-.2.1-.2-.1l.2-.3h-.3v-.5l-.3-.3v-.2l-.2-.2v-.2q.1.2.2 0l.1-.5-.1-.2v-.2h-.2v-.3l-.5-.4h-.4v-.3h-.1l-.3-.2h-.2v-.3l-.2.1v-.2h-.6l-.3-.3-.7-.2-.9-.8v-.8l-.1-.4-.2-.1v.2h-.4l-.2-.3-.6-.4.2-.2v-.2h.1l-.2-.4-.3-.1v-.5l-.3.1v-.1h-.2l-.1-.3H60l-.1-.1s.2-.2 0-.2h-.4v-.6h.2v-.5l-.3-.1.3-.2v-.3l.2-.3-.2-.4-1-.5-.4-1-.6-.6-1-.7-.5.2-.4-.4-.4-.3-.2-.3v-.7c-.2 0-.6-.6-.6-.6l-.3-1-.5-.6h-.2l-.2-.5-1.4-1-.7-.4-.9-.7-.4-.6-.7-.2-.2-.2-.5-1.5-.5-.6-.3-.2v-.5l-.4-.7-.7-.5-.5-1.2v-1.2l-.6-.6-.3-.9-.5-.4-.5-1.9-.3-.4-.4-.2H43l-.1.1h-.7l-.2.2-.7-.4-.2-.3H41l-.1-.3V10l-.4-.1-.2-.5H40l-.5-.7v-.3H39l-.5-.2L38 8l-.7-.5-.2-.3-.6-.2v-.3h-.2l.1-.3V6l.5-.7v-.6l.3-.4v-.2l.3-.1h.2v-.5h.3V3h.2v-.2l.2-.1.2-.1h.2v-.1l.6-.6h.2v-.2h.2l.2-.1.2-.1-.1-.2h.1V1z" class="cls-1"/><path d="M74.8 64.3h-.4v.1q0 .2.3.2zM72 68.2l.3.1v-.1l-.5-.2-.1.2h-.4l.2.1zm-.8 2.5-.5.2.3.2zM68.4 75v-.3l-.4-.2-.1.2v.1h.2zm1.2.4.3-.1-.3-.1zm1.4.5-.2-.4v.3zm-2.3 2.4-.2-.3-.2.2v.2l.2.4zm-1.2 1.1V79H67v.2zm1.2 2.3h.2l.3-1.1v-.7l-.2-.4-.4.6.2.8-.1.6zm-1.2-1.4h.3l.2.2.1.3q0 .3.2.2l.3.1-.1-.8h-.1l-.3-.3H68l-.2-.4h-.2l.1.3-.2.2zm.5 1.1v.3l.4-.1-.2-.2zm-1.4 1-.2-.1-.1.3h.1zm1 .3h.2l-.1-.1zm.6 1.3h-.4l-.2.4.4.7v.3l.2 1.3-.2.8.4.3-.1-1.2.6-1.6.2-.6v-1.9l-.2.2-.2.6-.4.4zl.2.1v.2h-.1zm-1.1 1-.1.2.1.1h.2z" class="cls-1"/><path d="m67.5 85.2.1.4.2-.3zm0 .5v.3l.3.2zm.5.1-.1.3.1.2z" class="cls-1"/></g></svg>