<?xml version="1.0" encoding="UTF-8"?>
<svg id="Layer_2" data-name="Layer 2" xmlns="http://www.w3.org/2000/svg" viewBox="0 0 78.28 95.25">
  <defs>
    <style>
      .cls-1 {
        fill: #172d35;
      }
    </style>
  </defs>
  <g id="_Ñëîé_1" data-name="Ñëîé 1">
    <g>
      <path class="cls-1" d="M40.58.37l-.05-.07h-21.38l-11.13-.3H0l2.75,20.18,2.4,17.89.7,5.54s-.03.09.07.13c.1.04.22-.07.25,0,.03.07.16.14.13.18-.03.04-.23.27-.23.35s.04.38.05.44c0,.06.66.55.64.6-.02.05-.29.36-.28.41,0,.05.11.29.11.29,0,0,.2.04.26.08s.12.11.11.17-.1.17-.1.29.1.51.12.54c.02.03.31.6.31.6l-.2.39s.34.16.33.19c0,.03-.08.15-.08.22s.21.71.22.74c0,.03,1.12,1.45,1.12,1.51s.14,1.2.14,1.23.47.53.44.55c-.03.02-.23.53-.21.56.03.03.1.22.1.22l-.25.09s.25.11.19.17c-.07.06-.16.1-.16.13s.03.16,0,.18c-.04.02-.35.37-.35.37v.33s1.1.65,1.13.66c.03.01.75.63.71.68-.04.05-.27.19-.29.22s-.25.13-.25.13c0,0,.15.08.11.14-.04.06-.17.38-.17.38,0,0-.7.09-.77.12-.07.03-.11.09-.1.14,0,.05.25.18.2.23-.06.05-.73.29-.73.29,0,0-.78.81-.82.93-.04.12.11.86.11.91s-.11.18-.11.24-.02,1.17-.02,1.2-.26.47-.26.5.05.4,0,.45c-.04.05-.26.23-.26.27v.41s-.48.51-.48.54.02.27,0,.29-.36.14-.36.14c0,0,.08.2.07.28,0,.08-.21.79-.21.79,0,0,.1.56.1.65s-.13.5-.13.5l.23.33s.1.61.1.67-.11.64-.11.64l.69.97s-.06.26-.05.29.41.36.41.4.03.9.03.95.2.56.21.6c.02.04-.09.56-.1.59-.01.03-.36.76-.36.79s.08.81,0,.87c-.07.06-.19.26-.19.26v.52s-.31.57-.31.63.16.75.16.75c0,0-.09.54-.1.57,0,.03-.42.45-.42.45l.24.97-.15.73s.14.2.15.25c0,.05-.05.31.02.34.07.03.31.18.31.18l.79,1.24.03.43s.25.48.26.53c0,.05.14.79.13.95,0,.16.02.52.04.56.02.04.36.23.37.31,0,.08-.07.51-.07.51,0,0,.74.95.75.98,0,.03,0,.58,0,.63,0,.05.12.26.12.26l-.19.39.34,1.46s.39.1.43.15c.04.05.32.66.43.7.11.04,6.11.47,6.11.47l7.27.52,7.96.56,8.34.62,9.03.63,6.36.48s-.14.08-.17.19c-.03.11-.08.32-.09.38,0,.06.17.52.19.56.02.04.48.52.47.62,0,.1-.14.99-.14,1.07s.21.76.23.81c.02.05.51.57.6.56.09-.01.77-.13.88-.12.11.01.75.2.78.19.03-.01.26-.13.29-.15.03-.02.17-.2.17-.2,0,0-.14-.68-.12-.75.02-.07.11-.2.12-.26,0-.06.03-.3,0-.33-.03-.03.3-.68.3-.74s-.07-.97-.06-1.01c0-.04.22-.93.22-.93,0,0-.11-.47-.15-.52-.04-.05-.19-.23-.21-.28-.03-.05-.42-.91-.42-.98s0-.27.03-.35c.04-.08.2-.6.2-.65s-.13-.36-.13-.39.09-.41.09-.41l.3-.11s.15-.14.13-.21-.15-.34-.13-.38c.02-.04.16-.14.16-.14,0,0,.09-.07.14-.01.05.06.2.2.3.2s.26-.02.26-.02c0,0,.19-.32.19-.38s0-.34,0-.37c.01-.03.19-.2.24-.2s.17-.03.19,0,0,.02.06.1c.06.08.37.1.37.1,0,0,.11-.08.11-.11s-.04-.13,0-.13.2.07.22.11.17.41.22.45c.06.04.68.23.71.23s.51-.05.51-.05c0,0,.28.13.29.2,0,.07.13.39.13.39,0,0,.21-.25.3-.25s.35.14.4.19.29.34.29.34c0,0,.45-.01.5-.01s.26.14.29.11c.03-.03.2-.18.2-.18,0,0,0,.14.07.16.06.02.16.03.16.03,0,0,0,.26.06.26s.4-.16.41-.13c0,.03.04.28.14.28s.13-.06.13-.06c0,0,.04-.16.07-.16s.18.03.18.03c0,0-.02.15.04.16.06,0,.38-.07.38-.07,0,0-.14-.1-.12-.13.02-.03.09-.13.12-.05.03.08.14.32.18.32s.13-.01.17.01.17.08.2.05c.04-.03.12-.15.13-.2,0-.05,0-.31,0-.31l-.12-.19s.19.01.19.09-.06.4,0,.4.49-.07.49-.07c0,0-.03-.41,0-.45.03-.04.09-.03.11-.08.02-.05-.03-.13,0-.18s-.06-.49-.06-.49c0,0-.53-.41-.53-.44s.04-.25.09-.26c.05-.01.18-.03.18-.06s0-.17-.04-.17-.36.02-.36.02l-.18-.24s-.25,0-.28-.03c-.03-.02-.14-.17-.14-.24s.05-.25.02-.25-.19.08-.19.08v.28s-.12.02-.12-.03-.03-.34.02-.36c.05-.02.43-.1.43-.05s.02.45.05.45.36-.12.46-.1c.1.02.23.18.23.18,0,0,.39.11.42.07.02-.04-.45-.59-.45-.67s.03-.17.02-.21c0-.04.56-.47.57-.52,0-.05.09-.31.12-.33.03-.02.43-.43.43-.46s-.08-.29-.12-.31-.31-.09-.31-.09l-.3.3s-.48-.06-.49-.11c0-.05-.14-.23-.18-.23h-.17l-.29.23s-.24-.01-.29-.03-.61-.23-.61-.23c0,0-.15-.21-.18-.21s-.29-.04-.32-.02c-.03.02-.18.2-.18.2,0,0-.03-.22,0-.25.02-.03.07-.12.17-.12s.41.01.45.04c.04.03.33.26.33.26,0,0,.46-.22.54-.24.08-.02.37-.09.45-.05.08.04.61.42.61.39s0-.42.05-.39c.05.03.1.2.18.17.08-.03.36-.32.36-.32l.11-.21-.34.05s-.09-.43-.14-.48c-.05-.05-.83-.64-.83-.64,0,0-.04-.27,0-.25.03.02.17.17.19.19.03.02.53.14.54.17,0,.03.05.33.15.34.1.01.26-.04.25-.07,0-.03-.42-.5-.45-.52-.03-.02-.19,0-.21-.02-.03-.02-.22-.22-.22-.26v-.25s.15-.05.15-.1.04-.2,0-.24c-.03-.04-.67-.58-.7-.6-.03-.02.08-.1.08-.1,0,0,.2.19.2.11,0-.08,0-.67,0-.74,0-.07-.31-.2-.33-.25-.02-.05-.05-.33-.08-.33s-.11-.06-.19-.07c-.08-.01-.52.17-.52.17h-.22s-.05-.09-.02-.11c.03-.02,1-.37,1.01-.28,0,.09.03.33.11.39.08.06.43.25.44.29,0,.04.12.71.12.71,0,0,.36.08.37.14,0,.06,0,.25.07.31.06.06.41.4.48.38.07-.02.31-.2.31-.2,0,0,.17-.2.13-.29-.04-.09-.42-.7-.42-.75s.04-.42.04-.42l.52-.53s.2.26.2.34.07.41.07.48-.09.51-.09.51l.09.22s.21.16.27.16.22-.03.25-.04c.03-.01.24-.3.24-.3v-.44s.08.21.13.18c.05-.03.84-.93.82-.98s-.47-.64-.47-.67.12-.38.12-.38l.26-.07s-.19.16-.19.19-.03.12,0,.2c.03.08.19.5.27.52.09.02.22.06.22.06,0,0,.21-.39.22-.43,0-.04-.04-.22,0-.25.04-.03.35-.25.35-.25,0,0-.08-.19-.13-.12s-.17.16-.17.16l-.05-.1s-.07-.01-.06-.06c0-.05-.04-.19,0-.25s.13-.19.1-.19-.33.02-.4,0c-.07-.02-.15-.2-.22-.22-.08-.02-1.08-.2-1.08-.2,0,0-.18.12-.2.15-.02.03-.05.17-.03.24s.13.19.15.24.05.31.05.31c0,0-.21.13-.21.08s.07-.36,0-.41c-.07-.05-.32-.23-.31-.26.01-.03.11-.2.16-.26s.44-.21.42-.25c-.02-.04-.06-.12-.1-.14-.04-.02-.07-.07-.17-.06-.1,0-.21.1-.29.09-.08-.01-.62-.2-.62-.2l-.2-.23s-.33.13-.34.1c0-.03-.07-.12-.08-.16,0-.04.02-.2.03-.23,0-.03.15-.24.18-.23.03.01.53.31.55.35s-.12.27.06.29.94,0,1.05.01c.12,0,.68.13.68.13l.08-.08s.26.29.33.29.43.04.43,0,0-.73-.06-.82c-.05-.09-.36-.39-.36-.42s.02-.18,0-.24c-.03-.06-.66-1-.66-1l.08-.11s.26.36.34.35c.08,0,.26-.12.26-.06s.12.51.17.62.22.41.25.42c.03.01.09.1.14.07.05-.03.72-1.18.72-1.23s-.04-.27-.04-.27c0,0,.17-.02.19-.05.02-.03.22-.23.24-.29.02-.06.33-.82.35-.85.02-.03.2-.16.19-.19-.02-.03-.41-.3-.41-.3l-.24.16-.03.26-.21-.05.05-.19s-.16-.07-.19-.03c-.03.04-.44.69-.44.69l-.6.15.06-.22.48-.38s.09-.21.06-.23-.08-.07-.12-.07-.41.25-.44.25-.26-.32-.31-.32h-.26s-.08-.18-.11-.16c-.03.02-.17.3-.21.31-.04.01-.22.01-.24-.03s-.06-.3-.06-.3h.24s.2-.14.2-.14l.25.02s-.04-.28-.02-.32.11-.22.12-.15c0,.07.09.43.15.4.06-.03.32-.16.38-.17.06-.01.4.23.42.2.02-.03-.04-.35-.04-.35,0,0,.1-.04.11-.01,0,.03.15.35.2.35s.2,0,.2-.03,0-.18.03-.18.26.07.3.02.23-.36.23-.39.05-.26,0-.33c-.06-.07-.45-.45-.45-.45,0,0-.04-.19-.09-.22-.05-.03-.2-.09-.2-.09,0,0-.06-.19,0-.15.05.04.36.23.39.25s.06.2.14.21c.08.01.2-.02.2-.02,0,0,.09-.02.13.08s.2.45.2.49-.05.32-.05.39.18.35.2.33.14-.21.18-.28c.04-.07.5-1.07.51-1.13,0-.06-.1-.21-.14-.24-.04-.03-.1-.05-.1-.05l.2-.1s0-.2-.01-.25c0-.05-.05-.4-.06-.44,0-.04.14-.26.07-.31-.07-.05-.25-.08-.25-.08,0,0-.14.13-.17.14s-.55.21-.56.24c0,.03-.13.13-.02.14.11.01.39.04.39.04,0,0,0,.06-.14.1-.13.04-1.02.12-1.05.12s-.51-.1-.51-.1c0,0-.08-.16-.05-.21.03-.05.56-.24.61-.25.05,0,.46.15.51.12s.34-.4.24-.5c-.1-.1-.63-.67-.76-.71s-.68-.29-.7-.32c-.02-.03-.05-.58-.05-.58,0,0-.57-.05-.59-.1-.02-.05-.12-.41-.12-.41l.08-.02.17.33s.33-.03.39-.01c.06.02.21.01.24.1.03.09.03.42.06.46.03.04.2.22.2.22,0,0,.38.08.5.14.12.06.74.41.8.43.06.02.15.05.18-.01.03-.06.03-.16,0-.24-.02-.08-.23-.44-.23-.44l.02-.26s.09-.05.09-.13-.08-.35-.08-.35c0,0,.22.31.23.4s-.12.38-.08.43c.04.05.26.16.29.22.03.06.15.49.2.49s.17,0,.19-.03c.02-.03,1.07-.96,1.11-1.02.04-.06.28-.58.28-.61s.09-.21.07-.25c-.02-.04-.07-.14-.11-.14s-.24.09-.28.04c-.04-.05-.64-.58-.69-.58s-.71-.08-.71-.08c0,0-.21-.13-.23-.17s-.26-.66-.29-.65c-.03.01-.35-.08-.42-.05-.07.03-.3.11-.3.11,0,0-.02-.12,0-.17,0-.05.23-.25.23-.25l-.1-.09-.47.58s-.1-.34-.14-.36c-.04-.02-.4-.02-.4-.05s.06-.28,0-.31c-.05-.03-.1.06-.16-.06-.06-.12-.18-.42-.14-.42s.2-.03.21.06c0,.09.1.22.12.25.02.03.26.17.23.2-.03.03-.12.14-.08.16.04.02.3.1.3.1,0,0-.02.16.07.14.09-.02.59-.44.59-.44,0,0,.1.05.09.12,0,.07-.16.32-.11.34s.21-.07.28-.06c.07.01.26.07.3.14.04.07.28.45.31.49s.26.26.31.26.39-.12.44-.12.22.07.25.05.04-.13.03-.17c0-.04-.06-.21-.14-.22-.08,0-.26.04-.32.02-.06-.02-.32-.12-.37-.2-.05-.08-.08-.48-.2-.52-.12-.04-.68-.19-.68-.19,0,0,.02-.08.09-.07.07.01.53.11.42.04-.11-.07-.51-.39-.44-.44.07-.05.23-.13.26-.03.03.1.13.28.16.3.03.02.2.03.24.08.04.05.29.65.31.68.02.03.23.15.26.15s.17-.02.16-.09-.23-.64-.27-.69c-.04-.05-.4-.24-.39-.27,0-.03.13-.24.13-.24l.13-.13s-.13.34-.05.39c.08.05.23.08.26.12.03.04,0,.12.06.16.06.04.2.04.22.13.03.09.02.42.07.47.05.05.36.47.4.48s.59-.02.61.01c.03.03.19.12.26.13.08.01.33.01.33.01,0,0-.06.13,0,.15.06.02.12.08.15.06.03-.02,1.01-1.09,1.01-1.09l-.66-.13-.31-.28s0-.15-.02-.21c-.03-.06-.42-.23-.43-.28s-.1-.33-.08-.37c.02-.04.19-.47.15-.53-.04-.06-.2-.16-.21-.19s-.03-.12-.06-.14c-.03-.02-.16-.11-.16-.11,0,0,.12-.04.21.02.09.06.3.17.33.28.03.11.1.35.1.42s-.12.3-.11.36c0,.06.07.22.09.25.02.03.45.29.48.29s.31-.27.3-.33c0-.06-.18-.28-.18-.28,0,0,.24.12.32.09s.16-.15.17-.22c0-.07-.03-.61-.06-.62-.03-.01-.21-.23-.21-.23,0,0,.02-.09-.03-.11-.05-.02-.36-.19-.36-.23s-.02-.19.02-.17.68.5.72.58.1.79.09.83c0,.04-.17.23-.15.28.02.05.15.15.15.15,0,0-.1.08-.08.12.02.04.08.12.08.12l.22-.18s.41-.07.49-.11c.08-.04.3-.27.32-.3.02-.03.1-.28.1-.28l-.14-.37s.1-.02.14.01c.04.03.08.2.08.2,0,0,.08-.37.08-.4s-.02-.32-.08-.32-.57.12-.57.12c0,0-.18-.47-.2-.47s-.33.07-.35.04-.08-.16-.08-.16l-.26-.03s-.37-.33-.4-.35c-.03-.02-.4-.16-.42-.19-.02-.03-.28-.38-.32-.38s-.34.01-.38.01-.57.23-.57.23c0,0-.6-.49-.63-.5-.03-.01-.35-.04-.35-.07s-.09-.42-.09-.45.12-.21.09-.25c-.03-.04-.29-.32-.22-.32s.3-.14.3-.17-.17-.32-.17-.32c0,0,.13-.07.11-.1s-.65-.57-.65-.57l.13-.16s-.22-.19-.21-.24c.02-.05.18-.42.21-.44s.3-.22.3-.22c0,0,.12-.22.11-.26,0-.04-.29-.75-.27-.8s.12-.17.1-.24c-.02-.07-.21-.31-.25-.27-.05.04-.21.24-.21.2s-.02-.16-.02-.16l-.18-.26s-.15-.28-.19-.37c-.04-.09.03-.26,0-.3-.03-.04-.46-.72-.46-.72l.08-.26-.03-.13s.25-.26.2-.31c-.05-.05-.77-.71-.78-.75,0-.04.08-.27-.02-.33-.1-.06-.58-.24-.6-.3-.02-.06-.15-.43-.15-.43,0,0-.2-.08-.2-.11s-.1-.08-.1-.08c0,0-.39.08-.43.07-.04-.01-.38-.14-.4-.17-.02-.03-.11-.23-.14-.22-.03.01-.19.06-.19.03s-.08-.23-.11-.23-.23.01-.24-.05c-.01-.06-.5-.72-.5-.75s.08-.19.08-.19l.27-.24-.16-.15s.12-.06.1-.13-.11-.52-.14-.54c-.03-.02-.33-.23-.33-.23l.19-.23v-.34s.13-.2.13-.2l-.23-.14.19-.15s-.39-.24-.36-.26.2-.14.2-.14l-.2-.15s.1-.16.1-.19-.04-.34-.04-.34c0,0,.07-.11.06-.18,0-.07-.08-.23-.08-.23,0,0,.06-.05.05-.13,0-.08-.08-.14-.14-.13-.06,0-.09.12-.15,0-.06-.12-.05-.24-.09-.21-.04.03-.19.17-.19.12s.11-.47.08-.5-.21-.17-.27-.17-.12-.06-.12-.06l.12-.27s-.19-.05-.21-.09c-.03-.04-.07-.45-.07-.45l-.31-.27s0-.17-.03-.21c-.02-.04-.1-.13-.1-.21s0-.18,0-.18c0,0,.13.15.16-.04.03-.19.17-.45.13-.52-.04-.07-.14-.19-.14-.19,0,0,.14-.16.09-.18-.05-.02-.15-.07-.15-.07,0,0-.09.13-.13.05-.04-.08-.09-.18-.06-.25s-.48-.46-.48-.46l-.33.03-.05-.25s-.08.08-.11.03c-.03-.05-.27-.25-.27-.25,0,0-.14-.04-.16-.07s-.03-.26-.08-.22c-.05.04-.16.15-.16.07s.02-.24,0-.24-.59-.03-.59-.03l-.35-.25-.64-.21-.87-.77-.13-.45s.17-.3.15-.39c-.02-.09-.13-.29-.17-.36-.04-.07-.19-.13-.19-.13,0,0,0,.21-.02.21s-.4-.06-.4-.06c0,0-.14-.17-.18-.22-.04-.05-.62-.44-.62-.44,0,0,.17-.14.17-.17s-.05-.19,0-.19.24.07.17,0c-.08-.07-.2-.35-.24-.38-.05-.03-.24-.1-.24-.15s.01-.16.04-.17c.03-.01-.16-.26-.16-.26l-.21.08-.06-.14s-.1.04-.13-.01c-.03-.05-.15-.35-.17-.32-.02.03-.14.14-.14.14l-.13-.21s.2-.21.08-.21-.42-.04-.42-.04c0,0,.06-.11.03-.18s-.15-.31-.09-.31.23.09.23-.01-.08-.5-.11-.51c-.03-.01-.16-.17-.16-.17,0,0,.25-.09.26-.15,0-.06-.03-.27,0-.34.02-.07.19-.13.19-.23s-.11-.39-.17-.45c-.06-.06-1.03-.49-1.03-.53,0-.04-.38-.82-.39-.87,0-.05-.61-.67-.65-.71-.04-.04-.95-.64-.95-.64l-.48.13s-.4-.36-.44-.4c-.04-.04-.33-.13-.38-.22-.05-.09-.15-.26-.18-.38s0-.49-.09-.62c-.1-.13-.55-.61-.56-.67,0-.06-.19-.83-.23-.9-.05-.07-.53-.6-.56-.64-.03-.04-.19,0-.22-.07-.04-.08-.2-.5-.2-.5,0,0-1.34-.98-1.37-1.03-.03-.05-.64-.27-.7-.32-.06-.05-.86-.68-.89-.73-.03-.05-.45-.6-.45-.6,0,0-.58-.16-.61-.18-.03-.02-.18-.17-.22-.23-.05-.06-.45-1.41-.49-1.48-.04-.07-.48-.6-.51-.62-.03-.02-.28-.09-.28-.18s0-.39-.03-.45c-.03-.06-.42-.65-.46-.71-.04-.06-.67-.44-.7-.5-.03-.06-.42-1.22-.42-1.26s.06-.52.03-.55c-.03-.03-.12-.58-.14-.62-.02-.04-.52-.56-.53-.59,0-.03-.28-.83-.3-.88-.02-.05-.47-.41-.53-.48-.06-.07-.45-1.77-.45-1.81s-.3-.46-.35-.48c-.05-.02-.31-.18-.38-.17-.07,0-.27.08-.3.08s-.27-.05-.27-.05c0,0-.12.12-.15.11-.03-.01-.26-.11-.33-.1-.07.01-.22.03-.31.07-.09.04-.25.15-.25.15,0,0-.6-.32-.64-.36-.04-.04-.21-.26-.21-.26l-.34-.11-.09-.23s.02-.19-.02-.21-.29-.03-.33-.09c-.04-.06-.29-.51-.29-.51,0,0-.24-.03-.26-.07-.02-.04-.49-.6-.49-.64s.16-.25,0-.25-.35.01-.49-.01c-.14-.02-.51-.16-.56-.18-.05-.02-.22-.34-.28-.36-.06-.02-.64-.44-.64-.44,0,0-.18-.27-.21-.3s-.6-.23-.6-.23l-.02-.26s-.22-.05-.2-.11c.03-.06.1-.12.1-.2s-.07-.35-.06-.38.53-.58.53-.64-.04-.6,0-.65.32-.29.33-.34c0-.05,0-.24,0-.24,0,0,.24-.09.27-.09s.2.05.21-.01c.02-.06.02-.48.09-.48s.22.03.22-.05-.03-.32.04-.34c.07-.02.16-.01.16-.08s-.04-.18,0-.18.21-.03.24-.05c.03-.02.1-.14.17-.12.07.02.19.11.19.05s-.02-.19.02-.18c.04.01.56-.52.56-.52,0,0,.19.05.19,0s.05-.23.05-.23c0,0,.21.07.22.04,0-.03.11-.18.17-.19.06-.01.22,0,.21-.05,0-.05-.15-.2-.12-.22.03-.02.15,0,.13-.06-.02-.06-.03-.26,0-.35.02-.09.26-.45.26-.45Z"/>
      <path class="cls-1" d="M74.78,64.31s-.4,0-.4,0v.1c0,.05.24.28.29.23.05-.05.14-.36.11-.33Z"/>
      <path class="cls-1" d="M72.03,68.22c.03.05.22.08.22.08v-.12l-.41-.15-.14.14-.37-.03s-.08.1-.05.1.26.06.26.06c0,0,.45-.13.48-.08Z"/>
      <path class="cls-1" d="M71.15,70.7l-.07-.14-.53.21s.3.24.33.23c.03-.01.26-.3.26-.3Z"/>
      <path class="cls-1" d="M68.38,74.96s.04-.21,0-.23c-.04-.02-.41-.23-.41-.23l-.11.16s.04.14.05.14.17-.05.17-.05l.29.21Z"/>
      <polygon class="cls-1" points="69.6 75.35 69.94 75.28 69.64 75.21 69.6 75.35"/>
      <path class="cls-1" d="M70.98,75.89l-.16-.35s.03.19,0,.22c-.03.03.16.13.16.13Z"/>
      <path class="cls-1" d="M68.68,78.27c0-.06-.17-.3-.17-.3l-.24.28s.03.16.06.19c.03.03.19.32.19.32,0,0,.18-.43.17-.49Z"/>
      <path class="cls-1" d="M67.51,79.38c0-.09,0-.21-.08-.26-.07-.05-.33-.15-.33-.15,0,0-.03.15.07.2.1.05.34.3.34.21Z"/>
      <path class="cls-1" d="M68.68,81.67c.07,0,.14.11.19,0s.28-.99.31-1.11c.03-.12,0-.63,0-.7s-.14-.31-.14-.31c0,0-.45.33-.44.51,0,.18.21.78.22.82,0,.04-.14.57-.14.63,0,.06-.07.16,0,.16Z"/>
      <path class="cls-1" d="M67.51,80.33s.02.08.05.08h.21s.02.08.08.08.12-.05.2.08c.08.13.07.12.1.32s.02.26.13.26.28.08.28.08c0,0,.15-.04.13-.11-.02-.07-.21-.74-.21-.74,0,0-.08.12-.09.07s-.24-.35-.24-.35c0,0-.18.05-.2-.02s-.13-.32-.2-.36c-.07-.04-.24-.05-.24-.05,0,0,.12.34.09.37-.03.03-.19.11-.19.11l.1.18Z"/>
      <path class="cls-1" d="M67.98,81.43v.29s.4-.13.39-.17c0-.04-.14-.17-.14-.17-.03,0-.25.05-.25.05Z"/>
      <polygon class="cls-1" points="66.56 82.37 66.41 82.34 66.31 82.55 66.41 82.64 66.56 82.49 66.56 82.37"/>
      <polygon class="cls-1" points="67.58 82.73 67.78 82.69 67.66 82.64 67.58 82.73"/>
      <path class="cls-1" d="M68.22,83.98s-.35-.05-.37-.02c-.02.03-.27.46-.27.46,0,0,.38.64.4.67.02.03.03.23.07.26s.11,1.27.11,1.32-.15.78-.11.83c.04.05.36.39.37.33,0-.06-.14-1.17-.14-1.2s.58-1.63.58-1.63c0,0,.25-.53.22-.57-.03-.04.11-1.16.11-1.16v-.1s-.11.07-.1.02,0-.69,0-.69l-.22.15-.12.64s-.42.33-.45.39c-.03.06,0,.21,0,.21l.19.11s.03.19.02.22c0,.03-.14.1-.14.05,0-.05-.03-.09,0-.12.03-.03-.1-.16-.15-.17Z"/>
      <polygon class="cls-1" points="67.07 85.04 66.97 85.17 67.07 85.34 67.25 85.28 67.07 85.04"/>
      <polygon class="cls-1" points="67.48 85.23 67.64 85.62 67.75 85.34 67.48 85.23"/>
      <polygon class="cls-1" points="67.48 85.68 67.36 85.74 67.36 85.97 67.68 86.18 67.61 85.74 67.48 85.68"/>
      <path class="cls-1" d="M68.05,85.76l-.19-.08s-.1.27-.08.3c.02.03.14.27.14.2s.13-.42.13-.42Z"/>
    </g>
  </g>
</svg>