<?xml version="1.0" encoding="UTF-8"?>
<svg id="Layer_2" data-name="Layer 2" xmlns="http://www.w3.org/2000/svg" viewBox="0 0 129.27 85.72">
  <defs>
    <style>
      .cls-1 {
        fill: #172d35;
      }
    </style>
  </defs>
  <g id="_Ñëîé_1" data-name="Ñëîé 1">
    <g>
      <path class="cls-1" d="M99.26,64.57c-.01.07.06.21.09.25.03.04.11.09.11.19s.1.52.1.52h.13l.09.09s.11-.07.11,0,0,.32.04.34c.04.01.16.07.13.13-.03.06-.13.21-.11.31.01.1.06.22.13.27.07.04.33.18.39.21.06.03.36.07.36.12s.09.37.09.41.11.19.16.29c.04.1.14.13.14.22s-.03.25.01.29c.04.04.13.18.14.22.01.04.03.37.03.37,0,0,.13-.12.13,0s-.09.19-.09.19c0,0-.1.21-.06.22.04.01.24-.1.23,0-.01.1-.03-.03-.01.1.01.13.07.1.06.25-.01.15-.1.25-.1.32s.06.21.06.21c0,0,.07.09.09.16.01.07.06.13.07.21s.04.15.04.21-.04.09.06.13c.1.04.22.09.3.1.09.01.19.03.21.09.03.06.04.13.04.21s-.1.16-.07.29c.03.13.1.12.11.29s.07.52.07.52c0,0,.14-.12.13,0-.01.12-.04.35.01.37s.14-.15.14,0-.09.24-.11.28c-.03.04-.13.1-.06.16.07.06.23.15.23.24s.13.18.13.18c0,0,.1.06.09.13-.01.07,0,.24.07.4.07.16.19.32.2.41.01.09,0,.35.01.4.01.04-.1.21-.1.27s.03.19.04.28c.01.09.01.29.01.4s-.04.18-.06.25c-.01.07.03.19,0,.34-.03.15-.14.28-.16.4s.03.29.01.4-.09.12-.07.24c.01.12.07.27.06.35s-.13.1-.13.22-.06.41-.07.49c-.01.07.04.21.03.28-.01.07-.2.37-.22.41-.01.04.03.25.03.25,0,0,.1-.07.1,0s-.06.1-.09.16c-.03.06-.09.19-.09.19,0,0-.01.07-.01.19s-.11.16-.04.35.19.87.24.88c.06.01.2.04.23.15.03.1.09.29.13.29s.14-.01.17.07c.03.09.09.28.09.28,0,0-.01.41.03.43.04.01.3.06.32.12.01.06.07.16.07.16,0,0,.09-.09.14-.06.06.03.14.01.21.06s.19-.07.22,0c.03.07.16.18.2.16.04-.01.04.02.11,0,.07-.02.16-.03.24,0,.09.04.07-.05.16,0,.09.05.22.07.26.16.04.09.13.25.23.32.1.07.57.21.63.29.06.09-.03.16.22.27.24.1.39.15.43.16.04.01.42.22.47.28.06.06.13.18.22.19.09.01.24.07.3.12.06.04.29.18.29.27s.01.27,0,.32c-.01.06-.04.19,0,.24.05.04-.05.19,0,.19s.24-.09.32-.16c.09-.07.17-.18.17-.18,0,0,.14.07.14.03s.09-.31.16-.31.4-.22.4-.22v-.28s.17.06.2,0c.03-.06.04-.5.11-.5s.24-.03.24-.03c0,0,.13.03.17.03s.06-.15.06-.15c0,0,.04-.12.09-.19.04-.07.06-.16.11-.22s.13-.24.13-.24c0,0-.01-.07,0-.12.01-.04.13-.03.16-.09.03-.06.07-.37.09-.41.01-.04.24-.21.36-.29s.16-.37.17-.49c.01-.12.01-.59.07-.68.06-.09.17-.19.17-.19,0,0,.11-.09.19-.18.07-.09.27-.37.32-.4.04-.03.19-.06.24-.09.06-.03.14-.04.13-.15-.01-.1-.11-.16,0-.24.11-.07.34-.21.39-.21h.24l.29-.04s.14.03.21-.03c.07-.06.11-.16.23-.28.11-.12.24-.35.33-.46.09-.1.29-.16.36-.21.07-.04.14-.24.22-.27.07-.03.26-.03.37-.06.11-.03.16-.13.27-.19.11-.06.3-.1.46-.15.16-.04.26-.24.42-.37s.2-.34.29-.38c.09-.04.36-.13.44-.24.09-.1.33-.4.42-.47.09-.07.53-.21.53-.21,0,0,.16.06.23-.01.07-.07.06-.18.17-.16.11.01.23.01.37.06.14.04.32.1.47.19.16.09.34.12.44.13.1.01.29-.1.29-.1,0,0-.01.06.1.07.11.01.13-.13.23-.1.1.03.23.01.42.01s.27-.01.32-.07c.04-.06.37-.21.37-.21,0,0,.1.01.19.03.09.01.07-.01.19-.07.11-.06.26-.16.37-.21.11-.04.11-.16.21-.21.1-.04.33-.12.43-.19.1-.07.16-.34.24-.35.09-.01.4-.1.59-.12.19-.01.46-.09.54-.12.09-.03.19-.21.3-.27.11-.06.23-.15.4-.22.17-.07.3-.15.49-.28.19-.13.4-.34.52-.47.11-.13.06-.28.17-.29.11-.01.17-.01.21-.06.04-.04.03-.24.16-.34.13-.1.33-.28.4-.28s.17-.16.26-.27c.09-.1.24-.16.29-.19.04-.03.1-.15.23-.24.13-.09.49-.34.66-.47.17-.13.43-.34.53-.47.1-.13.24-.47.24-.47,0,0-.07-.12-.07-.16s.03-.18.07-.24c.04-.06,0-.25,0-.25,0,0,.29.01.3-.03s-.13-.21-.19-.25c-.06-.04-.34-.21-.37-.25-.03-.04-.11-.1-.2-.15-.09-.04-.37-.25-.37-.25,0,0-.1.04-.2,0-.1-.04-1.15-.56-1.19-.59-.04-.03-.11-.18-.14-.22-.03-.04-.13-.07-.19-.11-.06-.04-.1-.23-.16-.26-.06-.03-.29-.06-.32-.1-.03-.04-.16-.19-.17-.24-.01-.04-.04-.29-.09-.34-.04-.04-.57-.27-.62-.38-.04-.12,0-.34,0-.38s-.07-.4-.07-.4c0,0,.14-.21.14-.29s-.14-.78-.24-.93c-.1-.15-.39-.63-.43-.63s-.19.09-.26.06-.11-.09-.16-.09-.24.06-.24.06c0,0-.07-.13-.17-.09-.1.04-.22.09-.22.09l-.1-.1s-.03.29-.09.29-.2-.12-.23-.07c-.03.04-.13.22-.2.24-.07.01-.29.07-.29-.03s-.13-.68-.13-.68c0,0,.06-.06.06-.15s-.11-.22-.09-.29c.03-.07.14-.32.13-.37-.01-.04-.06-.16-.04-.25.01-.09.06-.25.01-.29-.04-.04-.2-.15-.16-.18.04-.03.14-.09.14-.15s-.09-.13-.03-.21c.06-.07.11-.22.1-.27-.01-.04-.06-.22-.06-.27s.04-.27,0-.29c-.04-.03-.17-.16-.17-.16l-.07-.18s-.19-.06-.2-.1c-.01-.04-.06-.13-.11-.15s-.23,0-.23-.07-.11-.38-.11-.38l-.24-.24-.14-.4s-.06.15-.17.04c-.11-.1-.24-.21-.32-.25-.07-.04-.29-.38-.33-.4-.04-.01-.49-.28-.49-.28,0,0-.11.12-.13.01-.01-.1-.13-.29-.22-.35-.09-.06-.49-.27-.49-.27,0,0-.13.06-.16-.01-.03-.07-.11-.22-.17-.25-.06-.03-.26-.12-.26-.12,0,0-.13-.21-.2-.27s-.19-.18-.29-.18-.22.01-.3-.03c-.09-.04-.46-.31-.46-.31h-.22s-.16-.28-.2-.28-.26-.06-.32-.07c-.06-.01-.09-.13-.22-.13s-.47-.04-.53-.07c-.06-.03-.43-.37-.43-.37,0,0-.3-.06-.34-.12-.04-.06-.09-.12-.19-.18-.1-.06-.33-.13-.42-.22-.09-.09-.17-.22-.23-.24-.06-.01-.24.03-.32-.03-.07-.06-.13-.16-.22-.16s-.27.13-.34.09c-.07-.04-.2-.16-.24-.18-.04-.01-.19-.06-.23-.09-.04-.03-.11-.1-.11-.1l-.14.12-.07-.18s-.1.06-.19.06-.36-.24-.43-.25c-.07-.01-.17.04-.26.03-.09-.01-.09-.15-.19-.18-.1-.03-.23-.16-.36-.09-.13.07-.65.41-.67.35-.03-.06-.33-.29-.33-.29,0,0-.03-.1-.1-.19-.07-.09-.07-.18-.13-.18s-.49-.13-.49-.13c0,0-.14-.16-.22-.19-.07-.03-.13-.03-.17-.07-.04-.04.01-.18-.16-.24-.17-.06-.5-.34-.54-.34s-.22.07-.26,0c-.04-.07-.29-.37-.39-.37s-.11.03-.23-.01c-.11-.04-.33-.35-.33-.35,0,0,.01-.25-.06-.31s-.37-.15-.4-.21c-.03-.06.04-.15-.09-.21s-.4-.15-.4-.15c0,0-.03-.12-.11-.06s-.2,0-.33-.01c-.13-.01-.3-.28-.3-.28,0,0-.14-.09-.23-.09s-.16-.06-.24-.07c-.09-.01-.19.03-.24-.03s-.11-.1-.16-.13c-.04-.03-.26-.03-.3,0-.04.03-.17-.02-.17-.02l-.1.02-.44.31s-.4.34-.42.38c-.01.04-.17,1.11-.17,1.18v.29s.11.01.13.09c.01.07.11.4.09.47-.03.07-.11.18-.1.25.01.07.22.38.22.52s.07.4.09.49c.01.09,0,.24,0,.24l.1.09h.16s.17.32.19.41c.01.09.07.27.07.27l.27.13s-.07.25,0,.28c.07.03.2.01.27.12.07.1.4.63.4.68s-.04.19,0,.24c.04.04.03.22,0,.27-.03.04.11.22.03.31s-.18.55-.18.55v.27s-.13-.16-.17-.16-.27-.04-.33.03-.19.31-.19.31l-.07.19-.13.07.06.15-.23-.07v.22s-.14,0-.14,0l-.03.18-.07.09-.03.19s-.1.09-.13.16c-.03.07,0,.29,0,.29,0,0-.14-.04-.19,0-.04.04-.07.15-.07.15v.13l-.2.1v.12s-.19,0-.23.09c-.04.09,0,.32,0,.32,0,0,.02.21-.02.24-.04.03-.44.06-.44.06,0,0,0-.09-.11-.09s-.52.1-.54.15c-.03.04-.11.12-.11.12,0,0-.06.06-.13.15s-.32.35-.32.35c0,0,.14.22.06.22h-.23s-.06.15-.1.16c-.04.01-.19.16-.22.22-.03.06-.1.15-.14.18-.04.03.01.15-.09.15h-.27l-.09.22-.09.12s-.14.03-.13.09c.01.06,0,.19,0,.19,0,0,.01,0,0,.1s0,.4,0,.4c0,0,0,.37,0,.43,0,.06-.15.03-.17.1Z"/>
      <path class="cls-1" d="M84.97,31.76s0,.12-.06.12-.17.03-.2.07c-.03.04-.07.21-.13.32-.06.12-.2.44-.27.56-.07.12-.1.22-.17.38-.07.16-.11.47-.11.59s.06.24.07.29,0,.16,0,.16c0,0,.16.01.17.19.01.18-.07.25-.03.38.04.13.1.32.11.37.01.04.14.09.16.15.01.06-.03.15.04.19.07.04.34.25.36.29.01.04.09.22.16.27.07.04.17.04.22.12.04.07.24.41.27.49.03.07.07.15.13.15s.36-.09.47,0c.11.09.39.24.4.28.01.04.1.1.16.13s.3.06.39.07c.09.01.33,0,.37.07.04.07.09.1.16.21.07.1.24.22.29.21.04-.01.44-.5.57-.52.13-.01.29-.18.4-.09.11.09.44.12.5.29.06.18.17.41.2.58.03.16.1.15.09.44-.01.29.07.59.1.78.03.19.11.47.13.53.01.06,0,.13,0,.22s.11.13.09.32c-.03.19.04.63,0,.69-.03.06-.26.12-.22.22.04.1.19.38.23.49.04.1-.04.22,0,.29.04.07.34.35.34.35,0,0,.07-.16.16-.12.09.04.19.18.2.27.01.09,0,.21,0,.21h.67c.06,0,.23.06.3.07.07.01.24.1.3,0s.26-.28.32-.25c.06.03.16.13.29.1.13-.03.32-.1.42-.09s.47.03.53.03.16-.16.24-.19c.09-.03.22-.07.33-.07s.24-.06.33-.12c.09-.06.17-.12.22-.13.04-.01.16-.12.32-.19.16-.07.39-.21.43-.22.04-.01.11-.13.16-.15.04-.01.33-.1.42-.1s.3.1.37.12c.07.01.23.06.3.06s.4-.07.4-.07c0,0,.17.09.23.09s.24,0,.27-.04c.03-.04.22-.16.26-.19.04-.03.2-.19.3-.19s.16.12.26,0c.1-.12.36-.37.36-.37,0,0-.01.19.19.1.2-.09.3-.06.39-.16.09-.1.44-.66.62-.72.17-.06.43-.04.5-.13.07-.09.22-.47.24-.53.03-.06.07-.29.16-.37.09-.07.06-.21.06-.21,0,0-.05-.13,0-.18.05-.04.11-.34.11-.34v-.19s-.11-.15-.1-.19c.01-.04.1-.09.1-.13s-.16-.1-.16-.18-.23-.25-.23-.25c0,0-.13.06-.13.01s-.1-.13-.16-.22c-.06-.09-.14-.23-.2-.22-.06.01-.24-.02-.27-.06s-.27-.06-.27-.06l-.17-.19s-.22.15-.27.1c-.06-.04-.65-.52-.65-.52l-.13.06s-.01-.04-.07-.01c-.06.03-.07.09-.13.09s-.24.03-.24.03c0,0-.22,0-.19-.07.03-.07.07-.16-.01-.21-.09-.04-.16-.12-.14-.19.01-.07-.1-.29-.1-.29l-.11-.13h-.19s.11-.16-.01-.1c-.13.06-.2.24-.26.13s-.24-.16-.24-.16l-.11-.21-.3-.16s-.22-.07-.26-.07-.13-.09-.13-.09c0,0,.01-.16-.06-.22s-.24-.22-.26-.28c-.01-.06-.13-.15-.17-.13-.04.01-.16.15-.19.03s.09-.47-.04-.52c-.13-.04-.57-.18-.57-.18l-.04.13-.19-.18s-.2.12-.23.07c-.03-.04-.29-.28-.33-.28s-.54.13-.54.13c0,0-.17-.22-.19-.18-.01.04-.1.13-.1.13,0,0-.14-.1-.24-.06-.1.04-.3.16-.3.16v.13s-.17-.13-.23-.09c-.06.04-.01.1-.09.12-.07.01-.27.04-.33.13s-.03.18-.11.22c-.09.04-.44.12-.52.16-.07.04-.13.12-.24.13-.11.01-.24-.04-.39.01-.14.06-.29.09-.39.15-.1.06-.23.1-.3.09-.07-.01-.3-.06-.32-.01-.01.04,0,.28-.1.18-.1-.1-.17-.38-.23-.44-.06-.06.1,0-.06-.06-.16-.06-.23-.07-.23-.07,0,0-.06-.29-.11-.37-.06-.07-.23-.18-.27-.18s-.01-.35-.01-.35c0,0-.06-.03-.17-.13s-.27-.37-.27-.37l.1-.13s.03-.21-.06-.22c-.09-.01-.2-.03-.27-.1-.07-.07-.23-.4-.23-.4,0,0-.11.18-.14.13-.03-.04-.06-.37-.1-.4s-.07-.16-.13-.09c-.06.07.04.15-.06.07-.1-.07-.19-.13-.32-.18s-.16-.01-.2-.12c-.04-.1-.11-.28-.11-.28h-.16s-.19.24-.23.25c-.04.01-.2,0-.2,0,0,0-.06.03-.1,0-.04-.02-.26-.12-.26-.12,0,0-.19.07-.23.13-.04.06-.04.13,0,.21.04.07.06.12-.03.16-.1.04-.28.04-.33.09Z"/>
      <path class="cls-1" d="M70.43,27.71c-.04.09-.19-.01-.29.12-.1.13-.29.25-.29.35s-.07.18-.11.25c-.04.07-.17.4-.2.49-.03.09-.17.28-.17.28,0,0,.09.24.13.27.04.03.75.12.82.13.07.01.32,0,.32,0,0,0,.07.1.21.07.14-.03.62-.13.66-.1.04.03.19-.01.34-.04.16-.03.29-.09.42-.07.13.01.26-.03.46,0,.2.03.14.12.67.04.53-.07.75-.13.86-.18.11-.04.27-.22.27-.22,0,0,.11.16.26.19.14.03.27-.03.39-.01.11.01.34-.03.39.06.04.09.13.18.22.19.09.01.24.04.24.04,0,0,.17.05.23.11.06.05.1.19.13.23.03.04.34.06.5.1.16.04.65.21.8.29.16.09.36.12.52.13.16.01.7.12.87.19.17.07.46.18.57.19.11.01.22.07.29,0,.07-.07.32-.15.32-.15,0,0,0,.1.23.03s.3-.16.44-.24c.14-.07.32-.18.46-.22.14-.04.4-.1.53-.21s.33-.32.43-.41c.1-.09.27-.25.33-.29.06-.04.22-.13.24-.22.03-.09.23-.37.23-.37,0,0,.2-.1.23-.18.03-.07.19-.43.23-.52.04-.09.11-.34.11-.34,0,0-.34.12-.4.12h-.36s.04-.21,0-.24c-.04-.03-.03-.16-.14-.12-.11.04-.09.09-.27.07-.19-.01-.19-.14-.36-.08-.17.05-.54.17-.54.17,0,0-.2-.23-.24-.19-.04.04-.14,0-.2.07-.06.07-.16.12-.16.12,0,0-.06-.04-.11,0-.06.04-.09.12-.16.12s-.29-.12-.29-.12c0,0-.13.04-.19.07s-.34.04-.34.04c0,0-.07-.17-.11-.12-.04.06-.29.19-.29.19,0,0-.14-.22-.2-.19s0,.12-.17.12-.32-.1-.39-.12c-.07-.02-.27,0-.27,0,0,0-.09-.09-.27-.12-.19-.03-.26-.06-.29-.15-.03-.09-.07-.5-.16-.6-.09-.1-.3-.41-.3-.41,0,0-.17-.04-.19,0-.01.04-.13.21-.16.28-.03.07-.03.38-.09.45-.06.07-.1.16-.27.19-.17.03-.46-.03-.73-.06-.27-.03-.65-.12-.7-.13-.06,0-.22-.08-.27-.08s-.32-.01-.39-.04c-.07-.03-.23-.18-.27-.16-.04.01-.11.07-.26.09-.14.01-.39-.21-.39-.21,0,0-.14.15-.22.13-.07-.01-.11-.06-.19-.03s.04,0-.07.03c-.11.03-.42-.06-.56-.06s-.2-.01-.26,0c-.06.01-.33-.18-.33-.18,0,0-.09-.26-.17-.24-.09.02-.14-.05-.26-.07-.11-.01-.2-.04-.33,0-.13.04-.65-.15-.65-.15,0,0-.14-.09-.14,0s.19.21.22.34c.03.13.04.43.01.5-.03.06,0,.14-.03.23-.03.09-.11.18-.11.18,0,0,.1.06-.01.15-.11.09-.22.12-.26.21Z"/>
      <path class="cls-1" d="M75.48,34.95c.03.15.3.41.34.44.04.03.13-.07.2,0,.07.07.19.07.26.19s.14.15.27.22c.12.07.22.16.31.38.09.22.13.49.16.6.03.12-.04.18,0,.29.04.12.06.27,0,.37-.05.1-.16.22-.09.28.07.06.2.24.2.29s.22.47.22.47c0,0,.11.15.13.22.01.07-.01.16.09.16s.3-.06.34,0c.04.06.09.07.22,0,.13-.07.23-.1.27-.09.04.01.13.04.2.01.07-.03.06-.04.2-.04s.47-.07.47-.07c0,0,.03.16.1.09s.23-.22.27-.22.16.01.27-.12c.11-.13.24-.22.36-.25.11-.03.23.01.3-.03.07-.04.42-.56.46-.63s.2-.51.24-.54c.04-.03.03-.3,0-.49-.03-.19-.34-.71-.42-.8-.07-.09-.59-.58-.59-.58,0,0-.16-.1-.23-.16-.07-.06-.24-.16-.33-.25-.09-.09-.26-.31-.34-.37-.09-.06-.17-.15-.34-.18-.17-.03-.34-.13-.42-.18-.07-.04-.29-.06-.46-.07-.17-.01-.37-.09-.53-.1-.16-.01-.39.04-.52,0-.13-.04-.34.02-.42,0-.07-.03-.22-.04-.27-.01-.06.03-.22.02-.22.02l-.43.29-.27.13s.06.16,0,.25c-.06.09.07.16,0,.22-.07.06-.04.09-.02.24Z"/>
      <path class="cls-1" d="M84.1,43.98c-.05.1-.07.21-.08.32s.18.23.21.25c.03.02.15-.08.18,0,.03.08-.09.22-.02.27.06.04.12-.08.23,0,.11.08.22.09.3.06.09-.03.26-.07.29-.13.03-.07.2-.25.2-.25,0,0,0,.08,0,.17s.03.18.17.07c.14-.11.22-.17.27-.18s.25-.03.29-.02c.04.01.13.07.13.07l.11-.28s.06-.07.12.03c.05.1.19.42.19.42,0,0,.12-.13.17-.17.05-.03.17-.02.17-.02,0,0-.11-.08,0-.09.11-.01.25.03.32.01.08-.02.2-.04.2-.04,0,0,.1.1.16.02.06-.08.27-.33.27-.4s0-.15-.06-.15-.11-.08-.18-.07c-.08.01-.24.03-.27,0-.03-.03.03-.15.03-.15,0,0-.04-.09-.02-.18.02-.09.09-.33.11-.36.02-.03.03-.02.09-.02s.16.03.15-.08c-.01-.11-.14-.35-.17-.38-.03-.02-.11-.19-.14-.21-.03-.02-.15-.11-.28-.18-.13-.07-.44-.14-.44-.14,0,0-.2.11-.31.17-.11.07-.28.15-.31.21-.03.06-.09.14-.14.17-.05.02-.33.1-.33.1,0,0-.04.15-.08.18-.03.02-.15.03-.19.08s0,.09-.1.13-.3.03-.48.1c-.18.07-.3.17-.31.2-.01.03-.05.11-.05.11,0,0-.14-.03-.14,0s.08.11,0,.19c-.08.08-.19.09-.25.19Z"/>
      <path class="cls-1" d="M50.32,16.87c-.01.07-.06.03-.19,0-.13-.03-.13-.12-.26-.07-.13.06-.15.13-.26.1-.11-.03-.2.02-.27,0-.06-.01-.16-.05-.25-.05s-.19,0-.42.01c-.23.01-.29-.07-.33-.08-.04-.01-.13-.07-.19-.01-.06.06,0,.14-.11.13-.11,0-.26-.03-.34,0-.09.03-.33.06-.46.1-.13.03-.3.06-.34.06h-.45s.33.23.45.39.46.39.53.49c.06.1.14.17.16.3.02.13.03.36.02.49-.01.12-.04.74-.03.81.01.07.02.17.05.17s.25-.03.28,0c.03.03.14.41.14.41,0,0,.14-.03.18,0,.04.03.12.08.19.19.08.11.15.11.18.18.03.07-.01.09.04.21.05.12.13.19.19.38.06.19-.02.32.06.44.09.12.34.23.44.29.1.06.18.09.22.17.03.08.16.29.16.29,0,0,.1.17.16.3.06.13.24.56.26.65.02.09.08.36.09.43.01.07.16.35.24.46.08.11.1.23.19.23s.41.02.52,0c.11-.02.23-.12.3-.13.08-.01.23,0,.34-.01.12-.01.42-.06.62-.09.2-.03.39-.1.57-.12.18-.02.45-.12.56-.15s.22-.07.25-.12c.03-.06,0-.23,0-.32s-.03-.32-.08-.34c-.04-.02-.09-.14-.14-.14s-.24-.03-.24-.03c0,0-.1-.09-.13-.11-.03-.02-.04-.06-.11-.04-.06.01-.08.04-.2.01-.13-.03-.2-.08-.23-.13-.02-.06-.04-.15-.04-.15,0,0,.15.01.13-.06s-.08-.17-.04-.19c.03-.02.15-.14.19-.1.04.04.04.19.08.21.03.02.12.04.12.08s-.05.07,0,.11c.05.04.15.12.15.12,0,0,.14-.12.14-.08s-.12.11-.01.14c.11.03.3.14.33.15.03.01.09.09.09.09,0,0,.01-.14,0-.2-.01-.06-.11-.28-.14-.29-.03-.01-.12.02-.15-.02-.03-.04-.14-.24-.16-.31-.02-.07.01-.18.04-.18s.18.15.26.19c.08.03.14.09.16.03.02-.06-.24-.27-.05-.25.18.01.52-.04.59.03.08.08.08.19.11.2.03.01.13-.03.13.06s-.06.2-.1.27c-.03.07,0,.1.01.14.01.04-.02.19-.05.19s-.37-.04-.38-.01c-.01.03-.06.08-.1.14-.03.07-.05.13-.06.23-.01.1-.06.1.02.18.09.08.11.22.14.31.03.09-.01.2.13.2s.27-.04.39.04c.12.09.18.11.28.1s.31-.13.31-.19-.04-.06.09-.15c.13-.1.35-.2.35-.2,0,0,.05.1.06.13.01.03-.01.11.09.09.1-.02.52-.07.51-.02-.01.04.01.28,0,.34-.01.07-.12.14-.13.22-.01.08.04.15.13.15.09,0,.36-.01.36,0s-.17.11-.08.15c.1.03.12.1.17.11.05.01.11,0,.15,0s.18.11.23.18c.04.07.12.43.18.45s.15.09.25.09.2.02.26,0c.05-.02.11.02.17,0,.06,0,.15-.22.19-.23.04-.01.16-.02.29-.08.13-.06.05-.08.19-.1.14-.02.34-.06.54-.08.19-.02.35-.04.41-.09.05-.04.08-.15.13-.08.05.08.16.12.16.23s-.12.32,0,.32.46-.09.46-.09c0,0-.13-.18-.08-.19.05-.01.12.02.24-.07s.23-.22.42-.34c.19-.12.32-.21.4-.31.08-.1.17-.33.17-.33l-.29-.06s-.09-.02-.12-.11c-.03-.09-.06-.17-.12-.17s-.16-.07-.28-.09-.16-.04-.26-.14c-.1-.1-.29-.32-.35-.42-.06-.1-.13-.53-.11-.61s.12-.2.09-.32c-.03-.12-.15-.35-.24-.41-.09-.06-.29-.08-.33-.11-.04-.03-.33-.34-.33-.34l.02-.14.12-.03s-.02-.44.03-.46c.05-.02.28-.08.29-.17.01-.09-.03-.23-.03-.23,0,0-.24.24-.32.22-.09-.02-.4-.08-.47-.1-.08-.02-.1-.08-.17-.04-.08.03-.2.17-.22.23-.01.07.11.14.18.18.08.03.19-.02.19.09s-.15.41-.18.48c-.03.07-.19.25-.27.15-.08-.1-.13-.36-.22-.36s-.13.03-.26-.04c-.13-.08-.26-.34-.26-.34,0,0,.08-.04.03-.12-.04-.08-.06-.17-.12-.2-.05-.03-.23-.07-.23-.07,0,0-.01-.08-.05-.12-.04-.04-.37-.31-.38-.39s0-.2-.04-.22c-.04-.02-.13-.08-.11-.12.02-.04.09-.11.05-.17-.03-.06-.08-.17-.06-.21.01-.04.12-.08.2-.1.09-.02.06-.04.15-.23.09-.19-.06-.4-.09-.52-.02-.12-.1-.3-.17-.4-.08-.1-.09-.2-.13-.22-.04-.02-.2-.08-.27-.07-.06.01-.12.2-.18.19-.06-.01-.12-.13-.12-.13,0,0-.01-.27-.01-.32s-.11-.13-.16-.19c-.05-.06-.09-.15-.14-.24-.05-.09-.14-.27-.15-.3-.01-.03-.04-.19-.08-.19s-.26-.11-.27-.14c-.01-.03-.05-.18-.1-.22-.04-.04-.15-.14-.15-.14,0,0,.08-.22.09-.25.01-.03.01-.11.03-.14.02-.03.06-.17.01-.17s-.13.07-.17-.03c-.04-.1-.17-.3-.17-.3l-.08-.2.11-.06s-.35-.08-.37-.12c-.01-.04-.05-.27-.14-.37-.09-.1-.29-.28-.39-.32-.09-.04-.23-.01-.23-.01l-.24-.04s0-.08-.06,0-.27.14-.27.14c0,0,.11.08,0,.1-.11.02-.17.04-.18.08-.01.03-.23.07-.26.09-.03.02-.33.22-.38.32-.04.1-.17.27-.17.27,0,0-.03-.14-.11,0-.08.14-.14.22-.22.33-.08.11-.32.24-.32.24,0,0,.02.18,0,.21-.02.03.03.06,0,.12-.03.07-.23.1-.39.25-.16.15-.2.23-.29.29-.09.06-.26.11-.29.19-.03.08.03.12.06.18.03.06.02.08-.13.15-.15.08-.18.17-.19.23Z"/>
      <path class="cls-1" d="M54.2,22.49s0-.16,0-.16c0,0-.2-.08-.22,0-.02.08-.09.12-.09.18s.09.15.09.17c0,.01.09-.01.12-.06.03-.04.06-.11.1-.13Z"/>
      <path class="cls-1" d="M56.02,24.03s.12-.12.05-.18-.29-.08-.29-.08c0,0-.03.17,0,.21.03.04.06.12.06.12,0,0,.14-.08.17-.08Z"/>
      <path class="cls-1" d="M17.74.76c-.14.02-.31.08-.46-.02-.15-.1-.32-.2-.42-.29-.1-.09-.13-.24-.22-.31s-.18-.12-.18-.12c0,0-.14.12-.17.13-.03.01-.43.04-.47.07-.04.02-.27.19-.32.23-.05.04-.2.28-.3.34-.1.07-.22.08-.29.12-.08.04-.35.3-.45.32-.1.02-.34.02-.39.07-.04.04-.05.11-.09.12-.03.01-.15.03-.18.07-.03.03-.08.08-.14.12-.06.04-.38.14-.38.14,0,0-.14-.08-.17-.07-.03.01-.17.01-.23.07-.05.06-.18.22-.25.25s-.13-.01-.19.07c-.06.08-.23.31-.25.4-.02.09-.13.36-.14.5-.01.13,0,.2-.05.28-.05.08-.16.22-.27.29-.11.07-.3.12-.34.21s-.04.18-.12.24c-.08.07-.27.13-.3.23-.03.1-.04.22-.06.34-.02.12-.03.15-.06.24-.03.09-.26.13-.15.29.11.15.33.53.42.65.09.12.57.77.66.81.09.03.39.11.42.11s.24-.02.3.07c.06.09.17.27.2.29.03.02.26.08.38.09s.2.04.29,0c.09-.04.28-.03.33.02.05.06.06.14.14.23.08.09.28.11.31.17.03.06.05.25.1.27.04.01.11.03.13.08.02.04.06.13.1.15.03.02.12.12.16.15.04.03.12.21.15.23.03.02.19.06.24.12.04.07.2.21.2.21,0,0,.06.09.12,0s.04-.22.11-.23c.06-.01.18-.01.18.02s.01.13.05.14c.04.01.23-.01.23-.01,0,0,.04.13.1.12.05-.02.12-.03.23,0,.11.04.41.17.44.18.03.01.08,0,.18,0s.2-.02.26,0c.05.03.14-.1.2-.1s.26.01.32.06c.06.04.15.02.22.05.06.04.14-.06.22,0,.08.06.23.13.41.22.18.09.35.19.35.19l.1.11s.08-.01.1-.09c.02-.08.13-.2.16-.2s.1.02.12-.01c.02-.03.09-.09.14-.1.05-.01.12-.09.12-.13s.09-.06.15-.07c.06-.01.1-.12.1-.12,0,0,.11,0,.14-.03.03-.03.05-.18.11-.19s.16.02.19.02-.08-.15,0-.21c.08-.06.16-.02.18-.07.02-.04.04-.15.08-.17.03-.01.2-.1.24-.13.03-.03.15-.12.15-.12l.18-.06s-.06-.11,0-.12.16-.03.16-.09.03-.06,0-.09c-.03-.03-.04-.13-.04-.13,0,0-.13.04-.17.03-.04-.01-.12-.1-.06-.14.05-.04.17-.11.17-.11,0,0,.1.06.12.01.02-.04.15-.09.15-.09,0,0,.16.06.18.1.02.04.13.15.15.09.02-.07.01-.33,0-.43-.01-.1-.06-.22-.03-.28.03-.06.04-.29.04-.29l-.22.08s-.06-.12-.02-.14c.04-.02.16.01.15-.11-.01-.12-.13-.43-.08-.52s.03-.42.03-.51.04-.24.04-.24c0,0,.14,0,.2-.03s.15-.28.15-.28c0,0-.05-.09,0-.13.05-.04.3-.51.33-.62.03-.11-.14-.24,0-.3.14-.06.22-.28.25-.31.03-.03,0-.13,0-.18s-.04-.04.01-.21c.05-.17-.05-.42-.05-.42,0,0-.3-.04-.29-.08.01-.03.02-.23,0-.3-.02-.07-.02-.21-.06-.24-.04-.03-.14-.12-.11-.15.03-.03.1-.02.09-.11-.01-.09-.19-.24-.23-.28-.03-.03-.19-.12-.19-.12h-.15s.03-.11-.02-.18c-.05-.07-.32-.3-.32-.3l-.17-.03s-.16.1-.18.07c-.02-.03-.23-.17-.23-.17l-.28-.02.08-.13s-.11.03-.16.01c-.05-.02.02.01-.05-.02-.08-.03-.12-.06-.14-.12-.02-.07-.09-.24-.15-.17s0,.2-.11.22c-.11.02-.29-.03-.34,0-.05.03-.1.12-.18.12s-.1-.1-.22-.09c-.12.01-.37.04-.42.04s-.17-.01-.26-.06c-.09-.04-.17-.1-.24-.1s-.15-.01-.2.03c-.05.04-.21.1-.21.1,0,0-.05.06-.05.12s-.02.03.03.13c.05.1.11.19-.03.21Z"/>
      <path class="cls-1" d="M0,10.59s.17.07.16.11c-.01.04-.14.13-.04.17.1.03.17,0,.26.14.09.14.12.24.15.25.03.01.12-.11.18,0,.06.11.13.22.16.24.03.02.17-.08.18,0,.01.08-.02.19.04.17.06-.02.22-.12.19-.17-.02-.04-.18-.28-.13-.31.05-.03.25-.18.26-.22.01-.04-.02-.21-.01-.32.01-.11.22-.55.3-.61.09-.06.24-.15.28-.22.04-.07.09-.18.1-.25.01-.08.11-.33.22-.36.11-.03.32-.02.37-.06.04-.03.23-.18.23-.18,0,0,.05.07.14.06.09-.01.2-.04.26-.04s.18.04.18.04l.12-.19s.14.06.16.01.03-.07.11-.1c.08-.03.2-.1.26-.17.05-.07.11-.2.09-.24-.02-.04-.2-.32-.2-.46s-.01-.29.03-.33c.04-.04,0-.3.01-.38.01-.08.13-.13.18-.22.05-.09.16-.29.15-.36-.01-.08.14-.13.14-.13,0,0,.09.06.13.01.04-.04-.04-.21,0-.24.04-.03-.04-.21-.09-.29-.04-.08-.18-.21-.18-.21,0,0-.16.19-.25.19s-.17.08-.19,0c-.02-.08-.04-.21-.09-.19-.04.02-.17.2-.2.22-.03.02-.15-.07-.2,0-.05.07-.2.31-.2.37s.03.15,0,.24c-.03.09-.14.31-.25.39-.11.08-.39.22-.47.3-.09.08-.17.13-.25.14-.08.01-.24,0-.24,0,0,0,.15.08.05.15-.1.08-.32.17-.43.2-.11.03-.22-.02-.28.06-.06.08-.32.34-.39.43-.06.09-.29.38-.29.38,0,0-.11.01-.13.08-.02.07-.09.23-.12.29-.03.06.06.19,0,.29-.06.1-.24.32-.28.38-.04.06-.18.12-.17.23.01.11.06.18.06.24s-.1.44-.07.48Z"/>
      <path class="cls-1" d="M3.82,5.34c.02-.07.13-.19.08-.21-.05-.02-.23,0-.23,0,0,0-.05.17,0,.21.05.04.13.07.15,0Z"/>
    </g>
  </g>
</svg>