<svg xmlns="http://www.w3.org/2000/svg" id="Layer_2" data-name="Layer 2" viewBox="0 0 129.3 85.7"><defs><style>.cls-1{fill:#172d35}</style></defs><g id="_Ñëîé_1" data-name="Ñëîé 1"><path d="M99.3 64.6v.2l.2.2v.5h.2v.1h.2v.4h.2l-.1.4v.3l.5.2.3.1.1.4.2.3.1.2v.3l.2.2v.4h.1v.2l-.1.2h.2v.9l.1.1v.3l.1.2v.1l.4.1h.2v.9l.1.5h.2v.4q0-.2.1 0v.2q-.2 0-.1.2l.2.2.1.2.1.2v.4l.3.4v.4l-.1.2v1.3l-.2.4v1l-.1.2v.8l-.3.4v.2h.2l-.1.2-.1.2v.5l.2 1h.2l.1.4h.2v.3l.1.4.3.2.1.1h.6l.2.2h.5l.2.1.3.4.6.2q0 .2.2.3l.5.2.4.3.2.1.3.2.3.2v.8l.4-.2.1-.2h.2l.1-.2.4-.3v-.2h.2l.1-.5h.4l.1-.2v-.2l.2-.2.1-.2V83h.2v-.5l.4-.2.2-.5v-.7l.3-.2.1-.2.4-.4h.2l.1-.2v-.3l.4-.2h.8l.2-.3.3-.5.4-.2.2-.3h.4l.2-.2.5-.2q.3 0 .4-.3l.3-.4q.3 0 .4-.3l.5-.4.5-.2h.2q0-.2.2-.2h.4l.4.2.5.2.3-.1h.7l.3-.1.4-.2h.4l.4-.3.2-.2.4-.2.2-.3.6-.1.6-.2.3-.2.4-.3.5-.2.5-.5q0-.2.2-.3h.2l.1-.4.4-.3.3-.2.3-.2.2-.3 1.2-1 .2-.4V70h.3l-.2-.3-.3-.3-.2-.1-.4-.3h-.2l-1.2-.6-.1-.2h-.2l-.2-.3-.3-.1-.2-.3v-.3l-.7-.4v-1.1l-.1-.9-.5-.6h-1l-.1-.1-.1.3h-.2l-.2.2h-.3l-.2-.8v-.4l.1-.4v-.5l-.2-.2.2-.1V61l-.2-.1v-.2l-.2-.1-.2-.2h-.2l-.1-.4-.2-.3-.2-.4s0 .2-.1 0l-.4-.2-.3-.4-.5-.2h-.1l-.2-.4-.5-.3h-.2l-.2-.2-.2-.1-.2-.3-.3-.2h-.3l-.5-.3h-.2l-.2-.3h-.3l-.2-.2h-.6l-.4-.4-.3-.2-.2-.1-.4-.3-.3-.2h-.3l-.2-.2-.3.1-.3-.2h-.2l-.1-.2-.2.1v-.1h-.2l-.5-.2h-.2l-.2-.2h-.4l-.6.3-.4-.3V54l-.2-.2-.5-.1-.2-.2h-.2l-.1-.3-.6-.3h-.2l-.4-.4h-.3l-.3-.4v-.3l-.4-.2-.1-.2-.4-.2h-.5l-.3-.3h-.2l-.2-.2h-.3l-.1-.1h-.6l-.5.3-.4.4-.1 1.1v.4l.2.5-.1.2.2.6v.7h.3l.2.5.1.3.3.1v.3l.2.1.4.7v.5q.2 0 0 .3l-.1.5v.3l-.2-.1h-.3l-.2.3v.2h-.2v.2h-.2v.2h-.1v.1l-.1.1v.2l-.2.2v.3h-.2v.2l-.2.1v.2h-.3v.6h-.5l-.6.1v.2l-.2.1-.3.4v.2h-.2l-.1.1-.2.3-.2.1v.2h-.3l-.1.2-.1.1-.1.1v1.1zM85 31.8l-.3.2-.1.3-.3.5q0 .3-.2.4v1.1l.2.1v.8l.2.1v.2l.4.3.2.3.2.1.3.5v.2h.6l.4.2.1.2h.4l.4.1.1.2.3.2.6-.5q.2-.2.4 0 .3 0 .5.2l.2.6v.4l.2.8.1.5v.3l.1.3v.7q-.2 0-.2.2l.2.5v.3l.4.3.1-.1.2.3v.2H92l.3-.2h1.2l.3-.2h.3l.3-.1.3-.2.3-.2.4-.2.2-.1.4-.1h.4l.3.1h.9l.2-.2.3-.2q.1.2.3 0l.3-.3q0 .2.2 0h.4l.7-.8.5-.1.2-.6.1-.3.1-.2v-.2l.1-.4v-.5l-.1-.2q-.2-.3-.3-.2h-.1l-.2-.2-.2-.2-.2-.1h-.3l-.2-.2h-.2l-.7-.5h-.1l-.2.2h-.4V36l-.2-.2-.1-.3h-.3s.1-.2 0-.2q-.2.2-.3.1l-.2-.1-.1-.2-.3-.2H96l-.1-.1v-.3l-.3-.2-.2-.2q-.1.2-.2 0v-.5l-.6-.1-.2-.1H94l-.3-.2-.5.1-.2-.2-.1.2h-.6v.2h-.2l-.4.2-.1.2-.5.1-.3.2h-.4l-.4.1-.3.1h-.3v.2l-.3-.4v-.1h-.3l-.1-.4-.3-.2v-.4l-.2-.1q-.3-.3-.2-.4v-.3l-.3-.1-.2-.4-.1.1-.1-.4q-.1-.1-.2 0l-.3-.2-.2-.1-.1-.3h-.2l-.2.3h-.3l-.3-.2-.2.2v.3zm-14.6-4.1-.3.1-.2.4-.2.2-.2.5-.1.3.1.3.8.1h1.5q.3-.2.5-.1h1.1q.7 0 .9-.2l.2-.2.3.2h.8l.2.2h.2l.3.2v.2l.6.1.8.3.5.1.9.2.5.2h.3l.4-.1h.2l.4-.2.5-.3q.3 0 .5-.2l.4-.4.4-.3.2-.2.2-.4.3-.1.2-.6.1-.3-.4.1H83v-.2l-.2-.1h-.6l-.6.1-.2-.2h-.2q-.1.3-.2.2l-.2.1H80l-.2-.1-.2.2-.2-.2-.2.1-.4-.1h-.3l-.2-.1q-.3 0-.3-.2l-.2-.6-.3-.4h-.2l-.1.3-.1.5-.3.1h-.7l-.7-.1-.3-.1h-.4l-.3-.2h-.2l-.4-.1h-1.3l-.3-.2-.2-.2h-.6l-.7-.2.1.3v.8l-.1.1v.2zm5.1 7.3.3.4h.2l.3.2.3.2.3.4.1.6v.9l.1.3.3.5v.2l.2.2h.5l.3-.1h.4l.5-.1.3-.2h.3q.1-.3.4-.3h.3l.4-.7.3-.5v-.5l-.5-.8-.5-.6-.3-.2-.3-.2-.3-.4-.4-.2-.4-.1-.5-.1-.5-.1h-1.4l-.5.3-.2.1v.7Zm8.6 9v.3l.1.3h.2v.2h.8l.2-.3v.2q0 .2.2 0l.3-.1h.4v-.3h.2l.2.5.2-.2h.1v-.1h.7l.3-.4v-.2h-.5v-.7h.2l.1-.1-.1-.4-.2-.2-.3-.2-.4-.1-.3.1-.3.2-.2.2-.3.1v.2h-.3v.2l-.5.1-.3.2-.1.1h-.1v.2zM50.3 16.9h-.2l-.2-.1-.3.1h-.9l-.4-.1h-.1l-.2.1h-.3l-.5.1h-.7l.4.5.5.4.2.3v1.5h.3l.1.4h.2l.2.2.2.2v.2l.2.4v.4l.5.3.2.2.2.3.5 1.4.3.4.1.2h.9l.3-.1h.6l.6-.2.6-.2h.2V23l-.2-.2h-.3v-.1h-.4l-.2-.2v-.4h.2l.1.1.1.1v.1l.2.1h.1v.1l.3.2h.1v-.2l-.1-.2h-.2l-.1-.4.3.2h.1q-.2-.1 0-.2h.6v.2l.2.1v.4l-.1.2H54l-.1.1v.8l.2.2h.7l.3-.1v-.1l.4-.2h.1v.2h.6v.3l-.1.2.1.2h.4l-.1.1.2.1h.1l.2.2.2.5h.7l.2-.2h.3l.2-.2h.5l.4-.1.1-.1.2.2v.3h.5l-.1-.2.2-.1.4-.4q.4 0 .4-.3l.2-.3h-.3l-.1-.2-.1-.1-.3-.1q-.2 0-.3-.2L60 23l-.1-.6V22l-.2-.4-.3-.1-.3-.4V21h.1v-.5l.3-.2v-.2l-.3.2h-.5q0-.2-.2-.1l-.2.2.2.2h.2l-.2.6-.3.1q0-.3-.2-.4l-.3-.3v-.4h-.3V20l-.4-.4v-.3h-.2v-.5h.2l.1-.3V18l-.2-.4-.1-.2-.3-.1-.2.2-.1-.1V17l-.2-.2-.1-.2-.2-.3v-.2l-.3-.1-.1-.2-.2-.2.1-.2v-.3h-.1l-.2-.4v-.2l-.3-.2-.2-.3-.4-.3h-.8q.1 0 0 .1l-.1.1-.3.1-.4.3-.1.3h-.2l-.2.3-.3.3v.3l-.4.3-.3.2-.3.2v.2q.2 0 0 .2-.2 0-.2.2Z" class="cls-1"/><path d="M54.2 22.5v-.2H54l-.1.2v.2h.2zM56 24l-.2-.1v.3zM17.7.8h-.4l-.4-.4-.3-.3h-.3l-.5.1-.3.3-.3.3-.3.1-.4.3-.4.1-.1.1h-.2l-.1.2-.4.1h-.4l-.3.3h-.2l-.2.5-.2.5v.2l-.3.3-.3.3-.1.2-.3.2v.4l-.2.2-.1.3.4.6.7.9h.4l.3.1.2.3.4.1h.6l.1.3.3.1.1.3h.2V8l.2.2.2.2.2.1.2.2h.1l.2-.2h.1v.2h.6l.5.3h.4l.2-.1h.8l.4.3.3.2h.2l.2-.2h.1l.2-.1V9l.2-.1.1-.1h.2v-.2h.3v-.2l.2-.1V8l.3-.1.1-.1h.2v-.2l.2-.1v-.2H21l-.1-.1.2-.1.2-.1h.2l.2.2v-1h-.2V4.8h.3l.1-.3v-.1l.4-.6v-.3l.2-.3v-.8l-.3-.1v-.6l-.2-.1.1-.1-.2-.3-.2-.1h-.2V.9l-.3-.3h-.4l-.2-.1h-.3l.1-.2h-.2l-.1-.1q0-.2-.2-.2l-.1.2h-.3l-.2.2-.2-.1h-.7l-.3-.2H18l-.2.2v.4ZM0 10.6l.2.1q-.2 0 0 .2l.2.1.1.3q.1-.1.2 0l.2.2H1v.2q.3 0 .3-.2l-.2-.3.3-.2v-.4l.3-.6.3-.2v-.2l.3-.4h.4L3 9h.5l.1-.2h.2l.3-.2.1-.3L4 8v-.7l.2-.3.2-.3.1-.1h.2v-.3L4.6 6l-.2-.2L4 6h-.1l-.1-.2-.2.2h-.2l-.2.4v.3L3 7l-.5.2-.2.2H2v.1l-.4.2-.3.1-.4.4-.3.4-.1.4v.3l-.3.3-.2.3zm3.8-5.3.1-.2h-.2v.2z" class="cls-1"/></g></svg>