<svg xmlns="http://www.w3.org/2000/svg" data-name="Layer 2" viewBox="0 0 112.7 76.2"><path d="m0 18.7.1.3v.2l.2.2.3.1.4.4v.1h.2v.4h.4v.3l.4.4-.1.2-.1.3q.1-.2.3 0l.1.5h.1v.7l.2.2v.6l-.2.2v.2l.3.1v.3l.4.2h.6l.4.2.2.6-.1.5-.4.6v.9l-.3.4v.2l.6.5.4.8.5.6-.1.6.1.4v.2l-.4.2.1 1.2.5.3v.4l.7.3v.6l.1.7v.6l.1.2.7.1v.2l-.2.5v.2h.2l.3-.2h.2l.1.2.1.5H8l.2.3-.2.6v.5l-.3.4v.2l.3.7.5.5.1.7.5.4.1.3-.1.5-.5.9v.2l.5.3v.3l-.7.1-.1.2v.2l.4.9-.4 1 .2.3.4.2v.3l-.3.4v.4l.3.4.3.1.4-.1q.3-.4.2-.5h.4l.2.2v.8l-.4.3v.2l1 .5h.4l.3.4-.2.4v.5l-.2.4.2.6-.5.5v.2l.5.4.6.2.3.4-.1.4-.5.2v-.6h-.2l-.2.1.3 1.5-.3.6v.3l.3.3h1l.2.4-.2.1h-.4l-.1.3.2.7.1.9s-.5.6-.4.7q.3.1.4.6v.2l-.1.4v.2l.5.4.1.3-.1 1v.3l.4.5v.3q0 .2-.2.2l-.4.2v.3l.1.4-.1.7.1.7-.2.4-.6.4-.1.5v.3l.6.4.2.6 1 .5c0 .2.5.9.6 1v.5l-.2.2 8.1.3 10.4.4h9.8l11-.1 12.7-.4 11.6-.4 8-.5.2.3.5.3s0 .6.2.7l1.1.5v.6l.6.5.3.5.3.2.6.1v.3l-.1.2.2.2v.4l.5.3.1.3h.4v.3l.3-.1.2-.1h.3l.7-.1.2-.4-.2-.8.2-1.6-.2-.6-.6-.5v-.5l1.2-1.1 1.4-.6 1.3-.2 1-.8.2-.5v-1.1l.4-1V65l.5-.5.5-.8q.1-.4.5-.7l.5-.3.2-.4.2-2.2-.1-1.8-.8-1.5-.4-.1h-.3l-.4-.1-.2-.4-.4-.4-.2-.5-.3-.5.3-1.1.3-.6.1-1.2.3-.6v-.7l1-.4h1.1l1.4-.6h1.7l1.6-.3c.2 0 .8-.7.8-.8l.2-.5 1-.4.9.1h.4c0-.1.7-1.1 1-1.2l1-.7v-1.4l.3-.8.2-.3v-1l.5-.7 1-.8.5-.2.2-.3v-.8l.5-1.6-.3-1.1.3-.7.1-.6-.4-1v-1.4q0-.3-.2-.3l-.5-.2s-.1-.5-.3-.6l-1.7-.8-1-.4-.5-.5-.5-.9V28l-1.1-1.3-1.3-.8-.3-.5-.7-.3q-.5-.2-.7-.5l-.1-.5.2-.6V23l-.5-.5-.6-1.5-.3-.4-3-.7-.7-.2H98l-1.2-1-.2-.2-.3-.2-.2-.2-.3-1.2V16l-.2-.3-.3-.8-.6-.4-.1-.3V13l-.3-.4v-.3L94 11l-.1-2v-.4l.4-.3.5-1.3 1-1.4-.3-.3-.5-1-.7-.6-1-.4-.2-.3.3-.8-.3-.7-.4-.7.2-1-25.7.6h-22L20.3.2 1.2 0l.2.2v.6l-.3.5.3.3h.2V2l.2.2v.1q.5.1.6.4c.1.3-.2 2.2-.2 2.2h-.8v.4l-.1.2.5.4V6l-.3.3.1.3h.6l.2.2.5-.1.2.1.1 1.1v.5l.3.4.2.3-.1.4-.3.3v.7h-.4l-.2.3-.5.3.1.1v.3l.3.2v.4l-.3.2q-.2 0 0 .3l.1.3v.4l-.2.2v.3H2l-.2.3v.4l.1.2-.2.2v.2l-.1.2v.5l-.1.2-.1.1v.1l-.3-.1v.3l-.3.4v.2l-.7.7v.2l.1.2-.2.2z" data-name="Ñëîé 1" style="fill:#172d35"/></svg>