<?xml version="1.0" encoding="UTF-8"?>
<svg id="Layer_2" data-name="Layer 2" xmlns="http://www.w3.org/2000/svg" viewBox="0 0 112.69 76.2">
  <defs>
    <style>
      .cls-1 {
        fill: #172d35;
      }
    </style>
  </defs>
  <g id="_Ñëîé_1" data-name="Ñëîé 1">
    <path class="cls-1" d="M.05,18.69s.09.22.09.28-.08.16-.03.23c.05.07.17.2.2.21.03.01.26.09.33.1.07.01.33.35.33.35v.17s.21-.06.22,0c.01.06.1.15.1.18s-.06.13-.03.15c.03.02.35.07.35.11s-.03.2.01.23c.04.03.33.33.33.43s-.07.16-.08.21c-.01.05-.14.17-.1.21.04.04.34-.11.35,0,.01.11.1.49.12.52.02.03.1.07.1.11s-.04.16-.04.16c0,0,.12.09.09.12s-.12.03-.13.17c-.01.14-.01.2.02.21.03.01.24.04.26.14.02.1.05.54.03.6-.02.05-.21.17-.22.21-.01.04-.06.15.01.19.07.04.21.11.22.15s.04.26.07.29c.03.03.36.15.39.15s.46.01.53,0c.07-.01.33.05.44.23.11.18.19.35.15.63-.03.28-.06.51-.06.51,0,0-.42.47-.42.52s.08.77.01.93c-.07.16-.33.33-.33.38s-.04.11.02.2c.06.1.56.39.6.5s.31.74.41.84c.1.1.55.45.55.55s-.18.57-.15.64c.02.06.15.32.14.38-.01.06-.09.21-.11.24-.02.03-.35.17-.35.2s.07,1.07.17,1.15c.09.07.41.27.43.31.02.04.07.36.11.41s.58.3.58.3c0,0,.06.09.04.26-.02.17-.06.13-.03.32.03.19.18.57.17.7s-.09.53-.07.59c.02.05.12.18.18.19.05.01.58.13.61.18s.07.18.07.21-.22.37-.22.45.03.23.03.23c0,0,.09.06.12.05s.32-.29.32-.29c0,0,.2-.03.23.01.03.04.11.05.12.21.01.16.05.46.1.5.05.04.57.06.6.09.03.02.15.11.14.19-.01.09-.13.57-.13.64s.09.42.04.51c-.05.1-.32.23-.34.33-.02.1-.06.1,0,.21.06.12.23.72.29.77.06.04.47.35.49.46.02.11.05.69.08.71.03.02.49.33.52.36.03.03.13.21.13.34s-.11.38-.15.45c-.03.06-.5.86-.5.92s0,.17.05.21c.05.04.44.29.44.35s.01.21-.02.23c-.03.02-.55.06-.64.14-.09.07-.17.14-.17.19s0,.15.04.21c.04.06.39.81.39.87s-.38.96-.38.96c0,0,.12.27.18.31.05.04.38.23.4.28.02.04.11.17.08.22s-.31.35-.33.45c-.02.1-.04.3.01.39.05.1.22.36.27.39.05.03.19.15.3.14.11-.01.24,0,.41-.14.18-.14.21-.48.21-.48,0,0,.25-.02.32.01s.17.12.2.22c.03.11.13.38.13.46s-.06.21-.09.26-.36.2-.38.31c-.02.11-.03.21.02.27.05.05.81.46.88.48.07.02.43-.03.51,0,.07.03.24.31.25.35.01.04-.17.33-.21.46s.02.46.02.49-.15.37-.15.43.12.48.12.55-.46.43-.46.49-.08.07.01.18c.09.11.39.42.47.45.07.03.62.16.65.16s.23.34.24.4c.01.06-.08.4-.11.44-.03.03-.44.23-.44.23l-.1-.26.08-.36s-.19-.09-.22-.06-.2.11-.2.17.32,1.51.32,1.51c0,0-.28.48-.3.59s-.06.2,0,.28.21.22.27.24c.06.02.96-.01,1,.07.04.09.23.31.19.37-.04.06-.02.17-.16.15-.13-.02-.39,0-.39,0,0,0-.17.16-.11.24.05.09.24.68.24.72s.07.85.06.88c-.01.03-.47.6-.37.67.09.07.36.44.41.61.05.17.05.2.03.28-.02.07-.21.33-.2.38.01.05-.07.13.05.22s.49.32.49.32c0,0,.08.29.09.36s-.17.89-.15.96c.01.06.04.27.12.36.08.1.29.36.31.45.02.09.04.19,0,.32s-.05.16-.13.23c-.08.07-.38.13-.42.19-.04.06-.13.19-.1.27s.17.34.17.4-.09.61-.1.71c-.01.11.17.65.14.71-.02.06-.14.27-.21.34-.06.07-.53.33-.58.43-.05.1-.19.37-.16.47s.01.17.1.29c.09.12.48.42.51.48.03.06.2.55.2.55,0,0,.92.45.98.56.06.12.56.84.58.93.02.09,0,.49-.01.53-.01.04-.13.24-.13.24l8.12.29,10.34.34,9.85.06,11.05-.17,12.63-.32,11.59-.49,8.04-.48s.11.22.2.3c.08.07.47.28.49.35.02.07,0,.62.19.72.19.11,1.11.36,1.12.44.01.07.05.65.05.65,0,0,.43.34.48.42s.29.54.31.59c.02.04.21.18.3.2.09.02.54.04.58.09.04.04.07.14.02.22-.05.09-.15.19-.12.21.03.02.22.16.22.2s-.11.32-.02.45c.09.13.52.29.53.32.01.03.09.28.15.3.06.02.37-.06.37,0s0,.23.08.23.17-.04.21-.06.02-.15.17-.13c.14.02.15.12.31.11.16-.01.63-.17.68-.23.05-.06.26-.31.27-.35.01-.04-.26-.83-.26-.83l.24-1.55s-.18-.53-.24-.6-.62-.57-.62-.57c0,0,.04-.37.09-.41.05-.04,1.13-1.18,1.17-1.19.04-.01,1.28-.6,1.36-.6s1.26-.06,1.32-.12c.06-.05,1.06-.81,1.08-.84.02-.03.13-.39.16-.46.02-.06-.06-1.05,0-1.13.06-.07.36-1.04.37-1.09.01-.04-.08-.59-.09-.71-.01-.13.01-.31.09-.38.08-.07.45-.43.51-.53.05-.11.37-.71.46-.83.08-.12.38-.55.52-.65.13-.1.42-.28.49-.33s.18-.3.19-.34c.01-.04.24-2.15.24-2.29s-.09-1.73-.12-1.79c-.03-.05-.75-1.39-.8-1.42-.05-.02-.27-.19-.37-.17-.1.02-.25.07-.35.06-.1-.01-.29-.07-.34-.13-.05-.05-.13-.3-.2-.37-.06-.07-.38-.38-.42-.42-.04-.03-.17-.51-.22-.56-.05-.05-.31-.43-.31-.46s.29-1.02.33-1.09c.04-.06.29-.47.3-.56.01-.1.11-1.22.1-1.29-.01-.06.23-.47.26-.6.03-.13.06-.65.11-.69.05-.04.88-.39.99-.39s.95.13,1.03.11c.08-.02,1.23-.69,1.39-.71.16-.02,1.51.03,1.7,0,.19-.03,1.43-.26,1.59-.3s.8-.72.83-.77c.03-.04.1-.46.23-.5.12-.04.86-.37.89-.37s.89.11.94.11.37-.03.42-.1c.05-.06.75-1.07.99-1.18.25-.11,1.08-.53,1.1-.62.02-.09.02-1.34,0-1.42-.02-.07.16-.73.19-.81.03-.07.22-.29.22-.35s-.04-.83,0-.96.38-.65.5-.71c.11-.06.98-.77,1.09-.78.1-.01.4-.14.46-.19.05-.05.19-.24.2-.33.01-.09-.01-.78,0-.82.01-.04.5-1.49.47-1.6s-.25-1.09-.26-1.12c-.01-.03.25-.52.26-.61,0-.09.11-.52.11-.64s-.46-.96-.46-.99-.02-1.33-.03-1.45c-.01-.12-.01-.24-.09-.29-.08-.04-.54-.13-.56-.17-.02-.04-.1-.5-.24-.6s-1.72-.78-1.78-.81c-.06-.03-.9-.36-.98-.44-.08-.07-.44-.43-.49-.48-.04-.05-.43-.77-.48-.83-.04-.06-.1-.28-.1-.38s.17-1.1.1-1.16c-.06-.06-1.07-1.26-1.12-1.3-.05-.04-1.24-.72-1.29-.77-.05-.04-.2-.46-.28-.5-.08-.04-.62-.28-.76-.35-.13-.07-.64-.39-.68-.5-.04-.11-.11-.35-.09-.44.02-.09.25-.52.26-.6s-.02-.43-.08-.52c-.06-.1-.38-.49-.44-.52-.06-.03-.52-1.39-.59-1.49-.07-.1-.28-.39-.34-.4-.06-.01-2.93-.68-3.06-.72-.13-.04-.55-.23-.65-.24-.1-.01-.39-.01-.46-.04-.06-.03-1.21-.81-1.25-.87s-.06-.27-.13-.28c-.07-.01-.32-.04-.35-.12-.03-.07-.16-.18-.17-.29-.01-.11-.27-1.13-.28-1.2-.01-.07-.03-.82-.06-.85-.03-.03-.19-.2-.23-.29-.04-.09-.18-.71-.27-.81-.09-.1-.45-.35-.55-.41-.09-.06-.16-.22-.14-.26.01-.03-.01-1.14-.05-1.2-.04-.06-.22-.4-.22-.4,0,0,.02-.23.01-.37-.01-.14-.32-1.11-.34-1.19-.02-.09-.09-1.8-.11-1.86-.02-.06.01-.38.05-.44.04-.05.37-.3.37-.3,0,0,.49-1.23.51-1.28.02-.04.96-1.3.93-1.35-.03-.05-.13-.23-.21-.34-.07-.11-.48-1.03-.51-1.09-.03-.05-.69-.48-.74-.52-.05-.04-.93-.31-.97-.35s-.18-.24-.18-.3.22-.82.22-.89-.22-.67-.24-.7c-.02-.03-.35-.53-.37-.62-.02-.09.15-.99.15-.99h-.08l-25.66.51h-22.02l-24.75-.26L1.15,0s.2,0,.22.17c.02.17.02.48-.05.65-.07.17-.23.45-.17.51.06.06.26.22.26.22,0,0,.18-.01.19.07s-.02.22.02.29c.04.06.19.11.2.14.01.03-.03.12.07.18.1.06.52.27.52.39s-.24,2.13-.24,2.13c0,0-.12.09-.24.1-.11.01-.54.01-.57,0s-.09.09-.05.13c.04.04.08.17.06.22-.02.05-.12.12-.1.17.02.05.48.44.49.47.01.03.12.11.04.2-.08.1-.26.2-.26.28s.03.24.09.26c.06.01.52-.07.56,0,.04.07.18.2.23.2s.43-.12.49-.11c.05.01.18.05.2.16.02.11.14,1.04.14,1.1s-.05.51-.05.51c0,0,.3.33.34.36.04.03.13.24.12.33-.01.09-.05.28-.1.35-.05.07-.28.3-.27.33.01.03.09.33.09.36s-.14.36-.14.36l-.29.05s-.24.23-.27.26c-.03.02-.48.26-.48.26l.11.13v.26s.29.13.3.2c.01.07-.02.31-.05.37-.03.06-.22.16-.25.23s-.16.26-.09.35c.06.1.13.17.18.22.04.05.12.3.06.42-.06.12-.21.19-.23.27-.02.07-.05.24-.1.24s-.13-.05-.15,0c-.02.05-.2.27-.2.36s-.04.34.01.39c.05.05.12.2.12.2,0,0-.21.17-.2.2.01.03.07.14,0,.19-.07.05-.14.14-.14.18s.04.23.07.29c.03.05-.03.18-.03.18,0,0-.08.01-.1.07-.02.06.03.17-.02.19-.05.02-.11.02-.12.09-.01.06.03.14-.02.12-.05-.02-.28-.2-.28-.15s.09.12,0,.26c-.09.14-.29.44-.29.44,0,0-.01.09,0,.15.01.06-.68.66-.7.76-.02.1.1.21.1.21,0,0,.05.1.04.13-.01.03-.19.16-.21.29-.02.13.03.32.04.35Z"/>
  </g>
</svg>