<svg xmlns="http://www.w3.org/2000/svg" data-name="Layer 2" viewBox="0 0 59.5 95.2"><path d="m.4 62.9-.2.5.2.4.4.2q0-.2.3-.3c.2 0 .6.7.6.7L2 64l.5.2.1.6h.3l.4.4-.3.8-.5.3v.5l.4.3v.5l-.5.4.2.1-.1.2v.3l-.2.7-.2.2-.2.6-.1 4.3-.2 3.7v3.5l-.2 4-.2 9 9.5.3 9.2.2h12.4l8.3-.2 10-.2 9-.3-.3-7.7-.4-9.7-.4-12-.2-4.4-.5-.1-.2-.3-.1-.3-.4-.2-.1-.3h-.4l-.1-.5.1-.2-.3-.3H56v-.3l-.5-.8h-.3l-.2-.2h-.2l-.1.5h-.3l-.4.2.1.4-.1.4h-.2v.3l-.1.2.2.6h.4v.2h-.4l-.1.1-.2-.2h-.4l-.4.1-.7-.1-.3.2-.4.2-.4.1v.1l-.5-.7-.8.2-.3.2h-.5v.2l-.3-.1-.4.1-.3-.2h-.7L47 60h-.2l-.6.4H46v.7l-.3.5h-.5l-.3-.3-.4.2-.3-.3H43l-.5-.3-.6.4-.4.5v.4l.2.5-.4.2-.2-.2-.1-.3h-.2l-.9-.7-.2-.6v-.4l-.3-.3q.2-.1 0-.2l-.3-.5.2-.5-.1-.5-.3-.3V58l-.4-.4v-.3l-1-.6-.9.5-.2-.4-.3-.3h-.3v-.2l-.3-.2-.4-1 .4-.2.1-.7-.1-.4v-.2l-.4-.1v-.2l-.3-.1.1-.3h-.3l-.3-.2v-.3l-.1-.2v-.3l-1-1 .1-.3s-.5-.5-.5-.7V49l-.3-.2v-1.5h-.6l.3-1-.2-.2h-.2l-.1-.2h-.4v-.4l-.3-.3v-.3l-.4.1-.2-.2-.2.2-.1.2v.3l-.4.3-.2.5-.3.2-.1.2-.4.2-.2.1q-.2-.1-.4 0l-.3.8-.6.3-.4-.5-.5-.3v-.2l-.2-.2v-.2l-.5.1-.2-.2-.2.1s.2-.5.1-.6l-.2-.4.5-.4.1-.2v-.5l-.4-.4V44q-.2.1-.2-.1c0-.3.5-1 .5-1l.7-.3.2.2.2-.5-.3-.6.2-.4-.1-.2-.4-.3h-.3l.1-.4-.3-.1.2-.3.2-.1v-.4l-.1-.3s-.4 0-.4-.2v-.3l.2-.2h.3l.2-.3-.1-.7-.1-.3.3-.3v-.3l.2-.5v-.6l.3-.7s-.3-.7-.2-.8l.4-.2v-.5l.2-.4v-.2l.1-.3V32l-.4-.2h-.4l-.3.1-.3.3-.4-.1-.3-.1-.3.1h-.3l-.2-.4v-.5q0-.3-.3-.4h-.3v.3h-.3l-.2.2q-.2 0-.2-.2l.1-.5-.2-.3-.4-.2-.3-.3q-.1.2-.3 0t0-.2l-.3-.1v-.3l-.1-.2.2-.2v-.4l-.4-.3s-.3-.6-.4-.5q-.1.1-.4 0l-.3-.9-.4-.5-.1-.4h-.3l-.2-.4-.5-.3-.2-.4h-.2v-.5l-.2-.3v-.2l-.8-.1-.2-.2H17l-.5-.1-.5-.8-.4-.5h-.4l-.1-.2-.5-.4h-.3l.3-.3.6-.1.2-.2-.3-.2h-.2l-.1-.4V20q-.3 0-.4-.2l.2-.4.3-.2v-.5l-.4-.4.1-.5-.5-.4-.1-.4h-.3l-.2-1-.3-.3H13l-1-1.6-.2-.1.1-9.6V.3H7.4l-4-.2-.7 20-.2 14.7-.3.8.3.3v.3l.3.3v.3l.3.4v.5l.3.5-.3.8-.3.3.3.3.3 1 .2.2v.1l.2.2.2.7.5.6v.4l.2.1.4-.1c.2 0 .4.6.6.6h.6l.4.5.2.9.5 1-.1.5-.4.3-.3.7v.4l-.4.4v.4l-.8 1.2v.6l-.2.3-.4 1.4-.2.4-.3.3-.1.5-.5.5V55l-.1.6-.7 1-.1.4-1 .4-.2.3-.6 1.5v.5l-.3.1v.5l-.4.2-.1.4-.2.1v.7l-.2.6.4.6Z" data-name="Ñëîé 1" style="fill:#172d35"/></svg>