<?xml version="1.0" encoding="UTF-8"?>
<svg id="Layer_2" data-name="Layer 2" xmlns="http://www.w3.org/2000/svg" viewBox="0 0 59.49 95.24">
  <defs>
    <style>
      .cls-1 {
        fill: #172d35;
      }
    </style>
  </defs>
  <g id="_Ñëîé_1" data-name="Ñëîé 1">
    <path class="cls-1" d="M.39,62.87l-.24.54.25.41s.36.19.39.16c.04-.03.15-.24.26-.24s.63.65.66.63.19-.23.22-.23.4.09.43.14.16.62.16.62l.29.07s.36.27.36.31-.23.81-.26.82c-.03.01-.52.23-.52.29s.03.52.06.53c.03.01.3.25.3.29s0,.43-.04.47-.38.38-.38.38l.15.18s-.1.11-.09.18c0,.07.06.3.06.3l-.24.64s-.2.19-.23.23c-.03.04-.21.53-.21.58s-.11,4.34-.11,4.34l-.11,3.66-.08,3.5-.12,4.08-.22,9.01,9.52.22,9.13.19h10.21l2.16.05,8.3-.2,10.04-.24,8.98-.33-.28-7.63-.37-9.69-.43-12.06-.19-4.34s-.51-.15-.55-.18c-.04-.03-.2-.11-.2-.22s-.02-.28-.05-.3c-.03-.02-.35-.19-.37-.22-.02-.03-.12-.27-.15-.28-.03-.01-.35-.09-.37-.12-.02-.03-.19-.27-.12-.39.07-.11.21-.14.15-.2-.06-.06-.34-.32-.34-.32,0,0-.22.08-.19.01.03-.07.09-.23.05-.3-.04-.07-.56-.79-.59-.79s-.23.11-.27.02-.12-.27-.19-.26c-.07.01-.16.04-.17.08,0,.04-.13.44-.16.43-.03-.01-.21-.09-.25-.08-.04.01-.39.24-.39.29s.1.3.1.42-.14.34-.14.34l-.2.02s.07.27.04.28c-.03.01-.14.2-.14.28s.14.48.16.51c.02.03.4.12.4.12,0,0,.08.15.02.16-.06.01-.31,0-.38.03-.07.03-.09.07-.13.05-.04-.02-.11-.18-.2-.2-.09-.02-.36-.12-.41-.1-.06.02-.18.19-.33.19s-.75-.17-.77-.14-.15.18-.23.23c-.08.05-.29.24-.42.25-.13.01-.41.06-.41.06,0,0-.04.15-.07.13-.03-.02-.41-.7-.47-.72-.06-.02-.81.17-.81.17,0,0-.17.21-.28.23-.11.02-.47-.09-.47-.09,0,0,.09.24.05.24s-.34-.12-.37-.11c-.03.01-.39.19-.39.19,0,0-.23-.2-.27-.2s-.69-.02-.72-.03c-.03-.01-.18-.27-.18-.27l-.22-.07s-.54.45-.57.45-.3.01-.31.04c0,.03-.08.62-.08.62,0,0-.18.53-.21.53s-.48-.08-.48-.08l-.32-.25-.39.18s-.32-.26-.35-.27c-.03-.01-1.14-.03-1.14-.03,0,0-.44-.24-.51-.21-.07.03-.56.26-.6.33-.04.06-.39.46-.39.5s-.07.32-.05.4.16.49.16.49l-.33.28s-.26-.24-.27-.29c0-.05,0-.25-.07-.25s-.17.05-.22.02-.87-.69-.87-.69l-.23-.6s.11-.39.11-.42-.35-.3-.35-.3c0,0,.14-.19.06-.26-.08-.07-.39-.4-.38-.48.02-.08.24-.4.24-.46s-.13-.5-.15-.56c-.02-.06-.34-.26-.34-.31s-.02-.3-.03-.39c0-.08-.31-.29-.31-.36s.04-.17-.01-.26c-.05-.09-1.02-.6-1.02-.6,0,0-.83.5-.89.44-.06-.06-.13-.35-.18-.42-.05-.07-.26-.21-.29-.22-.03-.01-.3.02-.31-.03-.01-.05,0-.16-.06-.2-.06-.04-.22-.15-.24-.21-.02-.06-.4-.88-.38-.92.02-.04.34-.19.4-.26.07-.07.1-.56.1-.69s-.18-.37-.17-.43c.01-.06.06-.11.03-.16-.03-.05-.37-.15-.38-.18,0-.03,0-.1-.03-.14-.02-.04-.26-.13-.25-.16,0-.03.11-.31.11-.31,0,0-.33.06-.36.03-.03-.03-.24-.23-.24-.23,0,0,.04-.2.03-.23,0-.03-.21-.16-.21-.21s0-.21-.02-.27c-.02-.06-.96-1.04-.95-1.07.01-.03.12-.28.12-.31s-.53-.51-.54-.65c0-.14.07-.74.06-.77-.01-.03-.36-.27-.36-.27,0,0,.12-.18.11-.24,0-.06-.17-.25-.16-.33.01-.07.15-.36.15-.45s-.13-.47-.13-.47c0,0-.54.04-.53-.03,0-.07.26-.92.25-1-.01-.07-.13-.19-.13-.19l-.23-.02-.15-.13s-.4.08-.39.03c0-.05.03-.36,0-.4-.02-.04-.31-.37-.31-.37l-.04-.24s-.25.13-.28.08-.16-.24-.21-.22-.24.16-.25.19c-.01.03-.1.2-.08.25s.09.14.06.24c-.03.1-.39.27-.42.37s-.2.49-.23.5c-.03.01-.27.04-.3.12-.03.08-.04.22-.11.27s-.38.11-.42.15-.11.18-.18.17c-.07-.01-.4-.28-.42-.13-.02.15-.21.79-.26.84s-.52.35-.57.31-.39-.47-.41-.5c-.03-.03-.49-.16-.49-.22s-.05-.22-.07-.25c-.02-.03-.21-.13-.21-.18s-.05-.2-.05-.2c0,0-.33.12-.38.08-.05-.04-.12-.22-.21-.18s-.21.17-.26.13c-.05-.04.19-.53.16-.65-.03-.12-.22-.29-.18-.38.04-.08.43-.29.48-.37.05-.07.09-.17.08-.22,0-.05-.11-.09-.08-.13.03-.04.12-.08.12-.18s.01-.19-.07-.26c-.08-.07-.36-.27-.4-.35-.04-.07.03-.17,0-.2-.04-.03-.23.11-.19-.13.04-.24.52-.98.54-1,.02-.02.6-.25.65-.24.05.01.14.18.22.12.08-.06.23-.34.22-.45,0-.11-.35-.58-.35-.65s.21-.23.19-.33c-.02-.09-.03-.22-.1-.27-.07-.05-.39-.22-.39-.22,0,0-.25.11-.27-.01-.02-.12.19-.28.1-.38-.09-.09-.33-.04-.28-.15.05-.11.09-.21.17-.26.08-.05.14-.05.18-.16.04-.11.1-.31.06-.4-.04-.08-.1-.22-.16-.27-.06-.05-.38-.04-.38-.18s-.08-.27.03-.36c.11-.08.12-.16.2-.16s.29.02.33-.01c.04-.03.11-.1.13-.26.02-.16-.06-.64-.08-.7-.02-.06-.18-.33-.12-.36.06-.03.27-.19.31-.23.04-.04.04-.34.05-.38,0-.04.15-.4.14-.43-.01-.03-.1-.51-.04-.63.06-.12.41-.56.4-.67-.01-.11-.33-.73-.26-.79.07-.06.4-.14.47-.23.07-.09-.02-.43.01-.5.03-.07.13-.34.12-.38,0-.04-.11-.16-.06-.22.05-.06.19-.28.19-.28,0,0,0-.44-.04-.48-.04-.04-.3-.18-.35-.2-.05-.02-.35.03-.44.06-.1.03-.24.05-.3.11-.06.06-.17.21-.26.25-.09.04-.35-.07-.41-.11s-.26-.11-.26-.11c0,0-.29.17-.39.18s-.18.07-.26-.06c-.08-.13-.26-.25-.22-.35s.09-.51.1-.57c0-.06-.18-.38-.36-.39-.18-.01-.3.01-.29.06,0,.05,0,.22-.08.23-.08.01-.19-.02-.24.03s-.11.22-.22.18c-.11-.04-.21-.04-.2-.15,0-.11.18-.39.14-.52-.04-.13-.17-.31-.23-.34-.06-.02-.34-.04-.4-.11s-.21-.32-.27-.34c-.06-.01-.32.15-.32.08s0-.24-.04-.25c-.03-.01-.22-.1-.22-.16s-.05-.27-.05-.27c0,0-.16-.13-.1-.18.06-.05.14-.11.17-.18.03-.07.06-.41,0-.45-.05-.04-.34-.21-.38-.28-.04-.07-.32-.57-.4-.55-.08.02-.31.2-.37.05-.06-.15-.2-.79-.28-.91-.08-.12-.46-.45-.47-.51,0-.06.06-.35-.08-.37-.14-.02-.2-.01-.26-.1-.06-.09-.15-.27-.21-.35-.06-.07-.49-.24-.49-.28s-.19-.36-.19-.36c0,0-.22-.01-.22-.08s.02-.38-.02-.44c-.04-.06-.15-.23-.18-.28-.03-.05.03-.2-.06-.22-.09-.02-.8-.12-.8-.15s-.07-.17-.13-.15c-.06.02-.22.12-.27.07s-.45-.11-.47-.22c-.02-.11-.4-.71-.44-.8-.04-.09-.44-.42-.44-.42,0,0-.37.02-.38-.04-.01-.06-.09-.18-.13-.24-.04-.06-.42-.34-.49-.34s-.33.04-.31.01c.02-.03.14-.27.32-.33.18-.05.58-.1.61-.12s.18-.08.14-.14c-.04-.06-.22-.23-.29-.23s-.16.09-.2-.05c-.04-.14-.11-.29-.11-.36s.11-.15.02-.22c-.09-.07-.44-.12-.43-.17,0-.05.16-.32.26-.39.1-.06.3-.18.31-.24.01-.06.02-.37-.06-.45-.08-.08-.32-.35-.32-.42s.17-.46.06-.56c-.11-.1-.51-.21-.5-.34,0-.12-.06-.39-.14-.42-.08-.03-.3.08-.3-.04s-.19-.88-.2-.93c-.01-.05-.22-.3-.25-.29-.03.01-.16.09-.18.04-.02-.05-1.01-1.64-1.03-1.67-.02-.03-.25-.08-.25-.12s.14-9.58.14-9.58l.09-4.15h-4.58l-4.07-.2-.59,20.03-.28,14.75-.28.73s.28.19.33.37c.05.17,0,.19.06.27.05.08.23.15.24.29,0,.14-.03.23-.03.26s.29.4.29.49-.11.39-.05.46c.06.07.36.42.35.47-.01.05-.29.85-.29.85l-.27.25s.32.25.32.33.27.93.27.93c0,0,.23.23.23.26s-.05.13,0,.15c.04.02.18.18.18.18l.16.64.53.6s.08.37.08.4-.03.12.12.13c.15.01.21-.15.4-.1.19.05.38.56.55.59.18.03.62.1.62.1,0,0,.44.37.46.43.02.06.12.82.13.85,0,.03.55.97.57,1.03.02.06-.15.47-.17.51-.02.04-.35.24-.37.29s-.28.6-.31.67c-.03.07-.02.45-.03.48-.01.03-.32.29-.33.38-.01.08-.06.34-.08.4-.02.06-.7,1.15-.7,1.18s-.02.5-.04.56c-.02.06-.17.23-.18.29-.01.06-.37,1.46-.38,1.49-.01.03-.18.3-.22.38-.04.07-.28.25-.28.28s-.1.49-.16.51-.45.48-.45.48c0,0-.1.49-.09.52.01.03.14.64.14.74s-.2.64-.22.67c-.02.03-.68,1-.68,1l-.11.36s-.84.42-.9.44c-.06.02-.28.27-.28.27,0,0-.57,1.45-.58,1.48-.01.03-.1.46-.1.49s-.17.17-.17.17c0,0,0,.36-.05.44-.05.08-.35.23-.36.26,0,.03-.15.3-.17.34-.02.03-.21.02-.2.14.01.12.08.65.07.68,0,.03-.27.49-.25.57.02.08.39.67.39.67Z"/>
  </g>
</svg>