<?xml version="1.0" encoding="UTF-8"?>
<svg id="Layer_2" data-name="Layer 2" xmlns="http://www.w3.org/2000/svg" viewBox="0 0 50.81 95.24">
  <defs>
    <style>
      .cls-1 {
        fill: #172d35;
      }
    </style>
  </defs>
  <g id="_Ñëîé_1" data-name="Ñëîé 1">
    <path class="cls-1" d="M1.77,36.22c-.16.08-.42.03-.51.11-.09.08-.38.36-.49.53s-.35.92-.37,1.09c-.02.17-.06.38-.12.53-.06.15-.18.49-.18.67s-.12.84-.07.98.15,1.97.17,2.08.92,1.67.87,1.83c-.05.17-.29.51-.32.72-.03.21.07.56.12.66.05.1.42.36.52.47.1.1.33.11.33.47s-.16.88-.04,1.09c.12.21,1.09,1.01,1.16,1.19.07.19.29.58.4.63.11.05.71.41.71.53s.02.41.15.57c.13.16.21.27.25.28s.4.07.49.16.49.7.52.84c.03.13-.05.29.09.47.14.18.59.61.74.67.14.06.69.26.74.36.05.1.06.27.18.36.12.09,1.15.81,1.28.97.13.17,1.09,1.18,1.12,1.3.03.11.22,1.8.27,1.94.05.13.26.5.28.64s-.44.85-.39.96c.05.11.41.9.44,1.06.03.16,0,.35.04.57s.16.52.23.63c.07.11.33.47.38.5.05.03.46.35.56.35s.32-.05.38-.08c.06-.03.69-.63.69-.66s.33-.67.34-.72c.01-.04.13-.18.25-.18s.65.1.72.12c.06.02.93.56,1.12.6.19.04.54.07.66.11.12.04,1.69,1.1,1.76,1.24.07.15.05.25.05.35s-.06.45-.12.49c-.06.04-.47.27-.56.42-.09.16-.57.78-.6.91-.03.13-.12.14-.03.31.09.17.37.58.37.74s.06.63-.06.79c-.12.16-.8.96-.88,1.14-.08.18-.28.94-.36,1.13-.08.19-.03.63-.18.77-.15.13-.81,1.11-.87,1.22-.06.11-.19.64-.23,1.03-.04.38.06.89.13,1.07.07.18.22.5.26.59.04.09.12.29.24.4.12.11.43.21.54.37.11.17.5.87.62,1.01.12.13.4.39.58.5.18.1.65.19.74.3.08.11.12.45.24.52.12.07.66.32.73.42s.56.64.62.67c.06.03.73.07.74.18,0,.1-.28.39-.3.55-.02.16.17.75.29.81.12.06.4.26.56.15s.58-.57.71-.51c.12.06.57.29.63.42.06.13.02.18.14.24.12.06.46.04.54.19.08.15.27.41.38.51.11.09.47.27.57.42.1.16.09.27.09.34s-.14.32-.05.42c.09.1.51.18.58.25.07.07.13.33.36.45.23.11.69.2.78.28.09.08.25.09.25.25s-.11.66-.02.81c.09.15.46.76.46.81s-.01.15-.12.18-.32-.16-.38.07c-.06.23-.05.35,0,.57.05.22.3.92.37.99.07.07.57.64.59.79s.22.76.2.95c-.02.2.06.42-.09.6-.15.18-.61.17-.7.25-.08.08-.26.19-.32.4-.06.22-.16.54-.1.62s.18.34.24.35c.06.01.46.08.46.13s-.11.35-.08.47c.03.11.15.69.29.92s.28.64.44.77c.16.12.44.42.44.53s-.15.65-.08.76,1.17,1.03,1.33.97c.16-.05.29-.25.29-.31s.04-.17-.03-.23c-.07-.06-.59-.44-.6-.48,0-.04-.05-.16.02-.19s.67-.1.73-.02c.05.08.11.47.25.52.14.05.39.11.4.25,0,.13.06.66.15.7.09.04.19.08.26.06.07-.02.45-.15.4-.2-.05-.05-.3-.32-.41-.46-.11-.13-.19-.32-.14-.49.05-.17.06-.37.13-.47.07-.09.46-.56.51-.64.05-.08.27-.35.32-.45.05-.09.35-.68.38-.76.03-.07.44-.51.62-.59.18-.08.38-.31.56-.32.18-.01.85.02.96.07.11.05,1.27.62,1.39.65.12.03.56.35.67.49.11.13.24.24.36.25.12.01.44.01.47.03.03.02.85.37.96.42s.85.75.92.77.53.15.63.11c.1-.03.4-.1.48-.24.08-.13.49-1.04.48-1.14-.01-.1-.27-.99-.31-1.08-.04-.08-.8-.93-.8-1.08s-.05-.26.02-.38c.07-.12.38-.89.39-.97.01-.08.06-.62.1-.67.04-.05.32-.42.38-.46.06-.03.28-.15.36-.15s.69.25.73.25.79-.68.89-.7c.1-.02,2.39-.38,2.44-.41.05-.03.3-.12.33-.21.03-.08.19-.58.12-.64-.07-.06-.83-1.01-.85-1.07-.02-.06-.28-1.2-.28-1.26s.37-.81.49-.88c.12-.07.78-.52.81-.57.03-.05.26-.45.26-.48s.11-.54.04-.61c-.07-.07-.07-.13-.14-.07-.07.06-.23.12-.32.09-.09-.03-.29-.39-.21-.42.08-.03.19.06.32.06s.21.01.3-.05c.09-.06.18-.15.11-.2-.07-.05-.47-.32-.5-.35-.03-.03-.42-.78-.27-.75.15.03.27.12.4.16.13.03.34.04.39.03.05-.01.13-.11.1-.19-.03-.07-.01-.15-.13-.16-.12-.01-.51-.1-.51-.1l.03-.23s.07-.06.1-.01c.03.05.13.09.16.09s.12-.07.12-.14-.05-.34.02-.41c.07-.07.2-.19.21-.26,0-.07-.2-.45-.16-.58.04-.13.17-.35.17-.35,0,0-.28-.04-.3-.09s-.11-.11-.05-.17c.06-.05.08-.13.19-.13s.39-.02.47-.07c.08-.05.37-.29.38-.32.01-.03.05-.26.02-.31-.03-.05-.01-.13-.1-.09-.09.04-.51.29-.55.24-.04-.05-.11-.19-.07-.24.04-.05,0-.09.17-.15.16-.05.19-.04.26-.06.07-.02.12-.22.15-.27.03-.05,0-.04.2-.08.19-.04.18-.11.25-.23.07-.11.21-.32.18-.35-.03-.03-.18.08-.2.02-.02-.06-.04-.17-.1-.21-.06-.04-.26-.1-.34-.21-.08-.1-.14-.23-.15-.34-.01-.11-.14-.85-.07-.81s.24.27.32.19c.08-.08.17-.27.17-.31s-.06-.16-.04-.24c.02-.08.15-.41.29-.37.14.04.19-.02.2.07.01.09-.08.21-.05.28.03.07.08.09.12,0,.04-.09.4-.7.47-.56.07.15.1.37.11.45.01.07.15.15.17.1.02-.04.16-.27.17-.32.01-.05.11-.79.13-.84.02-.05.15-.29.24-.34.09-.05.44-.2.46-.26s.28-.47.3-.55c.02-.08.01-.42.04-.46.03-.03.13-.16.09-.19-.04-.03-.26-.12-.26-.2s-.02-.23.13-.27c.15-.04.29-.03.47-.1.18-.07.21-.09.28-.18s.07-.21.17-.24c.1-.03.26.02.27-.04,0-.06-.27-.54-.23-.64.04-.1.12-.13.15-.21.03-.07.15-.57.23-.57s.26.06.23-.02c-.03-.08-.14-.18-.13-.32,0-.15.04-.47.13-.58.1-.11.15-.33.33-.42s.74-.3.82-.38c.08-.08.41-.86.39-.95-.02-.09.06-.3,0-.34-.06-.04-.28-.01-.21-.09.07-.08.19-.07.17-.18-.02-.1-.31-.59-.31-.64s.03-.15,0-.27c-.03-.12-.11-.27-.16-.3-.05-.03-.28-.07-.23-.18.05-.1.18-.36.18-.4s-.03-.16-.03-.19.24-.11.24-.17-.07-.16-.07-.21.09-.72.09-.72c0,0-.26-.25-.37-.31-.11-.06-.35-.11-.35-.16s.09-.13.07-.17c-.02-.03-.14-.01-.09-.12.05-.11.09-.23.08-.3-.01-.07-.17-.23-.12-.32.05-.09.11-.28.08-.34-.03-.06-.27-.35-.3-.36-.03-.01-.34-.05-.32-.09.02-.04.14-.28.05-.3s-.39-.04-.38-.1c0-.06.12-.19.04-.27-.08-.08-.18-.15-.15-.24.03-.09.07-.22.13-.23.06-.01.16.08.17-.01.01-.09-.09-.08-.04-.18s.71-.77.73-.81c.02-.04.06-.69.01-.72-.05-.02-.19.15-.24.06-.05-.08-.19-.55-.17-.61.02-.06.14-.26.07-.29-.07-.03-.26-.05-.22-.08.04-.03.41-.54.48-.55.07-.01.34-.01.36-.04.02-.03.11-.19.11-.19,0,0,.14.08.15-.01.01-.09-.07-6.87-.07-6.87l-.08-6.38-.09-9.75-.1-9.32-.06-8.1s.01-.4-.09-.58c-.1-.18-.62-.47-.54-.55.08-.08.06-.06.06-.15s-.51-1.13-.51-1.13l.08-.24-.14-.15.06-.23s.1-.04.1-.08-.24-.15-.24-.18.02-.13.02-.22-.22-.68-.22-.68c0,0,.13-.09.09-.15-.04-.05-.25-.26-.27-.32-.02-.06-.27-1.41-.3-1.46-.03-.05-.57-.7-.64-.79-.07-.08-.73-1.19-.76-1.24-.03-.05-.4-.93-.41-.99-.01-.06-.16-.96-.16-.99s.14-1.04.14-1.04c0,0,.07.03.08-.01.01-.04.14-.57.14-.66s.09-.88.08-.95c-.01-.07-.19-.59-.19-.59h-19.5l-7.8-.31-7.1-.19s-.17.16-.16.36c.01.21-.08.24.11.34.19.1.92.51.96.59.04.08,0,.27.14.37.14.1.85.54.94.62s.67.74.67.93c-.01.2-.2.69-.13.86.07.17-.07.41.41.84.48.42.92.63,1.25.79.33.16.8.27.88.45.08.18-.02.36.19.48s.33-.09.37.16c.04.25-.13.91.02,1.19.15.28.36.54.28.74-.08.2-.38.72-.32.91.06.2.31.54.15.78-.16.24-.35,1.03-.39,1.17-.04.15.04.41-.04.54s-.56.4-.67.45c-.11.04-.48.28-.58.32-.1.04-.32.38-.37.52-.05.13,0,.63-.04.68-.03.05-.17.16-.19.3-.02.15-.09.31-.13.55-.04.24.06.79-.03.85s-.77.4-.84.47-.56.74-.68.76c-.11.02-.89-.08-.95-.08s-.65.2-.69.25c-.03.05-.15.32-.23.4s-.35.35-.49.4c-.14.05-1.09.19-1.21.19s-.95-.23-1.16-.1c-.21.12-.97.5-.97.5,0,0-.58-.2-.78-.15-.19.05-.58-.01-.66.24-.08.25-.12.44-.15.56-.03.12-.15.22-.17.37-.02.16-.05.72-.11.85-.06.13-.49,1.04-.49,1.14s.29.66.33.75c.04.08.27.23.3.3.03.07.07.25.12.27.05.02.36.02.48.08.12.06.23.12.25.18.02.05.47.89.47.98s0,1.15,0,1.25-.15,1.5-.19,1.55c-.04.05-.1.22-.18.27-.08.05-.33.16-.4.23-.07.07-1.04,1.22-1.07,1.37-.03.15.03.54,0,.68-.04.15-.31.8-.31.87s-.03.7-.04.76c-.01.05-.08.21-.14.27-.06.06-.63.53-.77.55-.13.02-.81-.05-.94,0-.13.05-.82.31-.96.39-.14.08-.89.58-.92.75-.03.17-.11.32-.08.35.03.03.4.32.43.41.03.09.19.24.16.44-.03.2-.22.92-.23,1.07-.01.15.19.53.15.62-.04.09-.04.17-.2.25Z"/>
  </g>
</svg>