<svg xmlns="http://www.w3.org/2000/svg" data-name="Layer 2" viewBox="0 0 50.8 95.2"><path d="m1.8 36.2-.5.1-.5.6-.5 1.6-.2.7v1l.1 2c.1.1 1 1.7.9 1.8l-.4.8.2.6.5.5.3.5c.2.5-.1.8 0 1 .1.3 1 1 1.1 1.2l.4.7.7.5.2.6.3.2.4.2.6.8v.5l.8.7.7.4.2.3 1.3 1 1.1 1.3.3 2 .3.6c0 .2-.5.8-.4 1l.4 1v.5l.3.7.4.5.5.3h.4l.7-.7.3-.7.3-.2.7.1 1.1.6.7.1 1.7 1.3v.8l-.6.4c0 .2-.6.8-.6 1v.2l.3.8v.8l-.9 1.1-.4 1.1-.1.8-.9 1.2-.2 1 .1 1.1.3.6.2.4.5.4c.2.2.5.9.7 1l.5.5.8.3.2.5.7.4.7.7s.7 0 .7.2l-.3.5.3.9.6.1c.4 0 .5-.6.7-.5l.6.4.1.3.6.1q0 .4.4.6l.5.4.1.3v.4l.5.3.4.4.8.3.2.3v.8l.5.8-.1.2q-.3-.2-.4 0v.6l.3 1c.1 0 .6.6.6.8l.2 1v.5l-.8.3-.3.4v.6l.2.4h.4v.6l.2.9q.2.5.5.7l.4.6v.7c0 .1 1.1 1 1.3 1l.3-.3v-.2l-.7-.5v-.2s.7-.1.8 0l.2.5.4.2q0 .5.2.7l.2.1q.4 0 .4-.2l-.4-.5-.1-.4.1-.5.5-.7.3-.4.4-.8.6-.6.6-.3h1l1.4.7.6.5q.2.3.4.3h.5l1 .4.8.8s.6.2.7.1c0 0 .4 0 .4-.2l.5-1.2-.3-1-.8-1.1v-.4l.4-1 .1-.6.4-.5.4-.2.7.3.9-.7 2.4-.4.4-.2v-.7l-.8-1-.3-1.3.5-.9c.2 0 .8-.5.8-.5l.3-.5v-.7h-.4l-.2-.3h.6l.1-.2-.5-.4-.3-.7.4.1h.4l.1-.1-.1-.2h-.5v-.3h.4v-.5l.2-.2-.1-.6.1-.4h-.3v-.2l.2-.2h.4l.4-.4V76l-.6.2v-.3l.1-.1h.3l.1-.3.2-.1q.2 0 .3-.2l.1-.4h-.2v-.2l-.4-.2-.2-.3v-.8l.3.1.2-.3v-.2s0-.4.2-.4h.2v.4c.1-.1.5-.7.6-.6v.5h.2l.2-.3.1-.8.3-.3.4-.3.3-.5V70l.2-.2-.3-.2.1-.3h.5l.3-.2.2-.3h.2l-.2-.7.2-.2.2-.5h.2L49 67l.1-.6.3-.4.9-.4.4-1v-.3h-.3l.2-.2-.3-.7v-.2q0-.3-.2-.3l-.2-.2.2-.4V62l.2-.2V61l-.3-.3-.4-.2v-1.2l-.3-.4H49v-.4h-.3v-.3l-.1-.3v-.2h.3v-.2l.7-.8V56h-.3s-.2-.5-.1-.6v-.3H49l.5-.6h.3l.1-.2h.2v-7l-.2-6.3v-9.7l-.1-9.4-.1-8v-.6c-.2-.2-.7-.5-.6-.6v-.1l-.5-1.2.1-.2-.1-.2v-.2h.1l-.2-.3v-.2l-.2-.7v-.1l-.2-.3-.3-1.5-.6-.8-.8-1.2-.4-1-.2-1 .2-1 .2-.7V1l-.1-.5H26.6L18.8 0h-7.1l-.2.3.1.4 1 .5.1.4 1 .6s.6.8.6 1q-.1.5 0 .8c0 .2-.2.4.3.9l1.3.8q.6.1.9.4l.1.5q.3-.1.4.1V8q.4.5.3.8c0 .2-.4.7-.3.9q.2.3.1.8l-.3 1.1v.6c0 .2-.6.4-.8.4l-.5.3q-.3.2-.4.6v.6l-.2.3-.2.6v.8l-.8.5-.7.8-1-.1-.7.2-.2.4-.5.4-1.2.2c-.2 0-1-.2-1.1 0-.3 0-1 .4-1 .4s-.6-.2-.8-.1q-.4 0-.7.2l-.1.6-.2.4v.8l-.6 1.1.4.8.3.3v.3h.6l.2.2.5 1v1.3L7.2 27l-.2.3-.4.2s-1 1.2-1 1.4v.7l-.4.8v.8l-.2.3-.7.5h-1l-1 .4-.8.7-.1.4.4.4.2.4-.3 1.1.2.6q0 .2-.2.3Z" data-name="Ñëîé 1" style="fill:#172d35"/></svg>