<svg xmlns="http://www.w3.org/2000/svg" data-name="Layer 2" viewBox="0 0 59.4 95.3"><path d="M.9 94H.5q-.3-.3-.5-.2l.1.5.3.2.5-.2.2.3c.2.3.2-.1.3 0 .2 0 .9.7 1 .6l.4-.6.4-.2v-.5l-.2-.6c0-.1-.5-.3-.4-.6l.5-.8.4-.3.4.3.6.8.5.2.5-.2.5-.2h.6l.8-.2.2.4-.3.7v.5l.5.2.6-.1.6-.8-.1-.7-.5-.4v-.4l.3-.6.1-.4.4.1.3.7c0 .2 1 .7 1 .7l.8-.6.3-.2h.6l.8.4c.4.1 1.6 1 1.6 1l1 .9s.9 0 1 .2l.4.5q0 .5.3.7t.5.1l.7-.5.4-1.5v-.6l.4-.5.8-.4 1.2-.3c.2 0 .8-.9 1-1q.3-.2.7-.2l.4.3.8 1.7q0 .3.4.5l.4-.2.7-.2q.2 0 .3.2c0 .2-.4 1.1-.3 1.3h.5q.5-.1.7-.5v-1l.4-.2h.9q.4 0 .4-.3l-.1-.6q-.3-.2-.2-.6c0-.2 0-1.3.2-1.4l.5-.2h.6l.4-.7-.2-.4q-.2 0-.3-.4l.1-.4.5.1q.2.3.5.4.1-.3.4-.5.6-.2.7 0c.1-.1.5-.5.3-.6l-1-.5v-.4q.2-.2.5 0l1 .7.3.7v1c-.1.1.1.6.2.7l1 1 .8.2.8-.1.5.2.9 1h.2v-.6l1.6-.5c.2 0 .5-.5.5-.6l.3-1.6c0-.1-.3-1.4-.1-1.5l.4-.8.7-.7.3-1.1.4-.3h.5l.4.3h.3l.8-.4.8-1 .3-1.1c0-.2 0-.8.2-1q.1-.4.7-.7t1.3-.4l.5-.5.3-.6.7-.5.2-.8c-.2-.2-.4-.9-.4-1v-1.3c0-.1-.4-.6-.3-.9l.3-.8.4-.1h1l1-.1h.8l.8 1 .6.2.8-.3 1.1-1.1c.3-.2 1.2-.8 1.5-.8h.9l1-.3 1 .1q.3 0 .2-.3c0-.1-.4-.7-.3-.8l.4-.5.2-.3q.2-.2.1-.6l-.7-.3H58V68l.5-.8.2-.5-.5-1.1c-.2-.2-.7-.8-.7-1s.4-.4.5-.5l1-.7-.1-9.6-.1-12.5V29.5l-.2-14.8-.3-14.8-17 .3-12.5-.3-5 .2-1.5.7-.2.2-4.5 2-1.6.3h-.7l-1.5-.5-.4-.1-.3-.3.4-.5h-.1l-.3.3-.2-.3-.1.1-1-.7-.1-.3-.2 10.3-.2 11.6-.2 11.8-.2 12.3-.2 10.5h-.1q-.2 0-.2.2h-.6l-.4.7-.3.1.4.2-.1.4v.5q0 .3.2.3h.3v1l-.6.5h-.2v.3l-.4.2.2.2h-.3l-.2.5.2.2.1.2-.3.2.4.2H9v.5h.4l.3.7v.4l.1.4-.1.5.1.2-.1.1.7.4.3.4v.7l-.2.2.2.3-.4.2v.4l-.1.3-.1.1.3.4.2.4-.1.3.4.6v.3l-.2.2.3.2-.1.3q.1 0 0 .2l-.3.6s0 .6-.2.7l-.4.2-.8.3-.2.4-.2.2-.2.8.2.3h-.4v.4l-.3.5-.3.2.4.7v.3h-.4l-.3.3-.4.3h-.5l-.3.2v.4h.3v.3l-.1.2v.5c-.1.1-.5.9-.7 1q-.5 0-.6.2l-.2.5-.2 1.1-.3.4-.3-.1v-.7c-.2 0-.8 1-.8 1l-.2-.2.1-.4-.2-.1-.4.4v.5l-.2.1v.3c-.1 0-.3-.6-.5-.4s.1 1.4.1 1.4l.2.4.5.2v.3l.3-.1.1.2-.5.7h-.4L2 87l-.5.2-.2.2.1.3.9-.4v.4l-.1.3-.8.5H1l-.2.1.1.3.4.2q-.2 0-.2.4.2.4.2.9c0 .5-.4.3-.4.3v.6l-.3.1-.2-.1v.2l.4.2.4.1v.4H.5s-.4-.4-.5-.3l.5 1.2s.7.4.6.5q0 .3-.2.3Zm8.9-34" data-name="Ñëîé 1" style="fill:#172d35"/></svg>