<?xml version="1.0" encoding="UTF-8"?>
<svg id="Layer_2" data-name="Layer 2" xmlns="http://www.w3.org/2000/svg" viewBox="0 0 124.32 66.67">
  <defs>
    <style>
      .cls-1 {
        fill: #172d35;
      }
    </style>
  </defs>
  <g id="_Ñëîé_1" data-name="Ñëîé 1">
    <path class="cls-1" d="M112.37,1.44c-.09-.16-.08-.19-.18-.23-.09-.04-.47-.08-.57-.13-.11-.05-.26-.34-.37-.41-.12-.07-.51-.29-.55-.34-.03-.05-.34-.34-.34-.34l-19.18.48-19.04.29h-27.53l-21.42-.38L2.19,0l-1.03,28.9-.89,27.22-.28,9.7,29.31.67,24.36.19h19.93l20.53-.48,21.79-.58,8.4-.38-1.17-32.4-.51-13.68s.01-.29.04-.42c.02-.13.22-.52.19-.6-.04-.08-.19-.23-.23-.23s-.69.16-.72.13-.18-.18-.19-.24c-.01-.06-.05-.24-.12-.28-.07-.04-.2-.1-.29-.04-.09.06-.24.28-.36.28s-.58,0-.63-.04c-.05-.04-.59-.71-.7-.73s-.36.04-.46,0c-.09-.04-.29-.22-.29-.25s.1-.37.08-.47c-.02-.1-.11-.32-.15-.36s-.83-.67-.89-.73c-.06-.06-.28-.42-.28-.53s-.08-.6-.08-.64.17-.37.21-.41c.04-.04.2-.17.16-.28-.04-.11-.12-.3-.18-.3s-.4.17-.51.18c-.12.01-.32-.16-.32-.19s-.03-.29-.05-.32c-.01-.04-.46-.26-.49-.32-.03-.06-.09-.42-.21-.47-.12-.05-.77-.22-.85-.41-.08-.19-.26-.79-.31-.84s-.59-.44-.69-.56c-.09-.12-.29-.52-.29-.6s.09-.36.16-.42c.07-.06.21-.08.26-.06.05.02.17.06.21.05s.34-.23.36-.29c.02-.06.12-.26.08-.35-.04-.08-.14-.34-.13-.46.01-.12.34-.79.38-.85.05-.06.3-.25.35-.26.05-.01.34-.12.42-.17.08-.05.13-.2.14-.28.01-.07.02-.95.05-.98.02-.04.15-.17.21-.11.06.06.39.26.48.3.09.04.4.16.49.11.09-.05.39-.38.39-.42s-.05-.54-.08-.55-.69.22-.72.18c-.04-.04-.29-.24-.29-.29s.11-.29.14-.29.54-.13.54-.13c0,0,.2-.32.2-.41s-.21-.49-.26-.49-.4-.05-.4-.05c0,0-.3-.2-.32-.26s-.06-.18-.05-.25c.01-.07.14-.32.14-.43s-.22-.31-.3-.35c-.08-.04-.92.02-.96.04-.03.01-.33.42-.36.49s-.21.25-.24.25-.78.07-.86.02c-.08-.05-.61-.26-.63-.32-.02-.06-.09-.54-.19-.54s-.48.24-.54.2c-.06-.04-.3-.07-.31-.2s.08-.32-.01-.48Z"/>
  </g>
</svg>