<svg xmlns="http://www.w3.org/2000/svg" data-name="Layer 2" viewBox="0 0 124.3 66.7"><path d="m112.4 1.4-.2-.2-.6-.1-.3-.4-.6-.4-.3-.3-19.2.5-19 .3H44.5L23.2.4 2.2 0l-1 28.9-1 27.2-.2 9.7 29.3.7 24.4.2h19.9l20.5-.5 21.8-.6 8.4-.4-1.2-32.4-.5-13.6v-.5l.3-.6-.3-.2-.7.1-.2-.2-.1-.3h-.3q0 .2-.4.3h-.6l-.7-.8h-.4l-.3-.3v-.4l-.1-.4-.9-.7-.3-.6V14l.2-.4.1-.3-.2-.3-.5.2-.3-.2v-.3l-.5-.3-.2-.5c-.2 0-.8-.2-.9-.4l-.3-.9-.7-.5-.3-.6.2-.4h.4l.4-.3V8l.3-.9.4-.3.4-.1.1-.3.1-1q0-.1.2 0l.5.2.5.1.4-.4-.1-.6-.7.2-.3-.3.1-.3h.6l.2-.5-.3-.5h-.4l-.3-.3v-.7l-.2-.3h-1l-.4.5-.2.3h-.9l-.6-.3c0-.1 0-.6-.2-.6l-.5.2q-.2 0-.3-.2z" data-name="Ñëîé 1" style="fill:#172d35"/></svg>