<?xml version="1.0" encoding="UTF-8"?>
<svg id="Layer_2" data-name="Layer 2" xmlns="http://www.w3.org/2000/svg" viewBox="0 0 133.1 61.91">
  <defs>
    <style>
      .cls-1 {
        fill: #172d35;
      }
    </style>
  </defs>
  <g id="_Ñëîé_1" data-name="Ñëîé 1">
    <path class="cls-1" d="M126.75,42.34c.15-.07.18-.09.38-.2.2-.11,5.65-5.67,5.65-5.67,0,0,.36-.54.31-.58-.05-.04-.54,0-.6.07-.05.07-.22.3-.24.24s-.43-.41-.49-.3c-.05.11.15.41,0,.35s-.34-.13-.42-.2-.13-.32-.24-.32-.38.04-.38.04c0,0-.11-.11-.16-.09-.05.02-.29.19-.34.15-.05-.04-.29-.24-.22-.34s.25-.35.22-.45c-.04-.09-.07-.19-.18-.2-.11-.02-.34.13-.34.04s.14-.32-.02-.32-.13.13-.16,0c-.04-.13.15-.32.02-.32s-.31.15-.25-.02c.05-.17.09-.56.02-.58-.07-.02-.27.02-.25.11.02.09.07.45.02.43-.05-.02-.22,0-.29-.04-.07-.04-.27-.22-.27-.28s-.05-.45-.22-.47c-.16-.02-.38.09-.43.02-.05-.07-.36-.32-.47-.32s-.27.17-.31.07c-.04-.09.11-.73,0-.76s-.22-.17-.29-.32c-.07-.15-.15-.5-.24-.54-.09-.04.2-.35.18-.45s-.29-.07-.29-.07c0,0,.02-.22.02-.28s-.74-.48-.8-.5c-.05-.02-.25-.39-.25-.39,0,0-.24.24-.24.15s-.05-.39-.13-.52c-.07-.13-.31-.56-.29-.62s.22-.2.13-.32c-.09-.11-.43-.45-.51-.54-.07-.09-.42-.35-.42-.35,0,0-.18.24-.18.15s-.27-.26-.27-.26l.09-.24-.33-.02.14-.2s-.07-.09-.02-.15c.05-.06.31-.2.31-.32s-.13-.2-.09-.26c.04-.06.34-.3.22-.34-.13-.04-.31-.26-.38-.28-.07-.02-.56,0-.6-.22-.04-.22-.51-1.42-.6-1.49s-.62-.47-.62-.47c0,0,.04-.32-.07-.41-.11-.09-.31-.24-.38-.26-.07-.02-.22-.26-.27-.28-.05-.02-.24-.07-.24-.15s-.02-.6-.02-.6c0,0,.45-.07.49-.19.04-.11.22-.73.16-.89-.05-.17-.27-.65-.16-.71.11-.06.38-.07.43-.2.05-.13.09-.34.07-.5s-.04-.48-.07-.69c-.04-.2.05-.5.04-.58-.02-.07-.47-.52-.45-.67s0-1.53,0-1.53c0,0-.29-1.04-.38-1.21-.09-.17-.6-.34-.71-.45-.11-.11-.58-.82-.69-.95-.11-.13-.42-.48-.58-.5-.16-.02-.82-.04-1.03-.04s-.45-.06-.58-.21c-.13-.15-.58-.47-.62-.52-.04-.06-.36-1.64-.4-1.73s-.2-.41-.2-.56.14-.84.07-1.03c-.07-.19-.25-.34-.25-.34,0,0-.4,0-.71.17-.31.17-.65.39-.83.47-.18.07-.53-.09-.74,0-.22.09-.31.32-.38.45-.07.13-.09.39-.29.5-.2.11-.83.35-.91.5-.07.15-.24.67-.34.78-.11.11-.24.3-.4.35-.16.06-.63.15-.8.13-.16-.02-.78-.32-.87-.21-.09.11-.67.75-.76.73-.09-.02-.38-.17-.43-.3-.05-.13-.18-.56-.25-.67s-.91-.41-.91-.41c0,0-1.34-.22-1.41-.28-.07-.06-.69-.6-.83-.65-.15-.06-.34-.06-.45,0-.11.06-1.43.48-1.52.6-.09.11-.2.47-.22.58-.02.11-.05.43-.2.5-.15.07-.38.11-.45.11s-1.58-.54-1.63-.62c-.05-.07-.25-.89-.38-.99-.13-.09-.78-.3-.85-.41-.07-.11-.11-.52-.31-.69-.2-.17-.22-.28-.38-.35-.16-.07-.71-.32-.92-.3-.22.02-.49-.22-.69-.22s-1.76.43-1.9.39-2.41-.75-2.5-.84c-.09-.09-.33-.65-.33-.78s-.05-1.06-.13-1.25c-.07-.19-.91-1.32-.91-1.47s-.24-1.08-.4-1.23c-.16-.15-.6-.48-.78-.54-.18-.06-.85-.15-1.05-.22-.2-.07-.38-.67-.38-.75s.13-.5,0-.6c-.13-.09-.34-.34-.47-.32-.13.02-.36.26-.43.34-.07.07-.18.32-.42.34-.24.02-.4-.15-.53-.07-.13.07-.36.34-.65.45-.29.11-.56.19-.65.15-.09-.04-1.09-.61-1.21-.75-.13-.13-.51-.73-.63-.8-.13-.07-.36-.24-.4-.19s-.18.35-.4.54c-.22.19-.29.19-.53.3-.24.11-.45.21-.58.34-.13.13-.89.78-.92.86-.04.07.18.61.24.67.05.06.72,1.1.74,1.23s.04.41-.04.52c-.07.11-.6.62-.65.84-.05.22.18.45.24.45s1.09.17,1.16.26c.07.09.22.39.11.6-.11.2-.4.41-.51.58-.11.17-.14.3-.13.41.02.11.29.5.27.65s-.11.26-.29.28c-.18.02-.85-.19-.98-.15-.13.04-.83.37-1.03.39-.2.02-.65-.07-.89.02-.24.09-1.38.84-1.43.88-.05.04-.89.84-1.12.97-.24.13-.43.22-.58.22s-.87-.37-.87-.37c0,0-.43-.75-.67-.78-.24-.04-.58-.11-.78-.04-.2.07-.78.19-.94.2-.16.02-.89-.22-1.07-.07-.18.15-.53.8-.53.97s.29.8.31.99c.02.19-.02,1.14.05,1.32.07.19.33.6.33.76s-.05.56-.16.71c-.11.15-.67.39-.78.56s-.29.78-.38.88c-.09.09-.42.24-.54.24s-1.03.3-1.09.32c-.05.02-.47.35-.51.47s-.29.75-.29.86-.13.99-.15,1.04-.07.34-.25.52c-.18.19-.53.71-.67.84-.14.13-.71.45-.82.47-.11.02-.74-.39-.82-.39s-.6.04-.71.3c-.11.26-.18.86-.31,1.06-.13.21-.56.6-.67.75-.11.15-.36.52-.36.76s.04,1.6,0,1.83c-.04.22-.2.91-.25,1.12s-.27.69-.33.69-1.61.32-1.65.5c-.04.19-.04.62-.18.62s-.82-1.03-1-1.12c-.18-.09-.42-.22-.63-.15-.22.07-.36.26-.69.17-.33-.09-1.25-.8-1.38-.88-.13-.07-.56-.89-.56-1.08s.24-.97.15-1.1c-.09-.13-1.43-1.3-1.52-1.29-.09.02-.25.07-.25.24s.05.28.2.37c.15.09.67.35.69.43.02.07.04.32-.09.39-.13.07-.63-.04-.8.13-.16.17-.27.48-.4.48s-.71-.5-.87-.45-.18.06-.25.3c-.07.24.33.52.36.58s.22.32.16.43c-.05.11-.42.52-.42.52,0,0-.76.02-.94.15-.18.13-.16.56-.22.75s-.02.84,0,.93.22.6.22.71.03.39-.25.48c-.28.09-1.09-.17-1.22,0-.13.17-.16.3-.16.48s.29.65,0,.82c-.29.17-.47.5-.71.5s-.49-.02-.45-.22c.04-.21.33-1.29.2-1.3-.13-.02-.29-.13-.45-.09-.16.04-.71.41-.87.39s-.56-.62-.63-.73c-.07-.11-.43-1.34-.56-1.44-.13-.09-.4-.3-.49-.28-.09.02-.63.32-.73.43-.09.11-.78.89-.85.91-.07.02-1,.04-1.27.2-.27.17-.63.5-.8.6-.16.09-.24.17-.24.32v.65s-.4,1.29-.43,1.34c-.04.06-.43.41-.56.47-.13.06-.53.13-.6-.09-.07-.22-.31-.91-.43-.99-.13-.07-.65-.28-.65-.28l-.62-.19s-1.41-1.21-1.58-1.27c-.16-.06-1.3-.84-1.45-.86-.15-.02-.56-.2-.8-.06-.24.15-1,.82-1.14.78-.14-.04-.89-.6-.92-.67-.04-.07-.36-.88-.45-.84-.09.04-.63.97-.62,1.12.02.15.11.41.22.48s.33.37.36.45c.04.07,0,.56-.07.71s-.4.52-.51.56c-.11.04-.56.09-.72.02s-.38-.43-.34-.54c.04-.11.38-.69.33-.82-.05-.13-.3-.39-.33-.37-.03.02-.5.26-.61.26s-.53-.11-.62-.06c-.09.06-.47.39-.62.39s-.6,0-.76-.07c-.16-.07-.49-.76-.6-.86-.11-.09-.51-.26-.6-.2-.09.06-.67.89-.65.97s.45.78.47.95c.02.17.07.63-.04.75-.11.11-.4.19-.44.28-.04.09-.25.49-.38.51-.13.02-.76-.79-.87-.69-.11.09-.44.3-.44.43s-.29.75-.42.89c-.13.15-1.18.86-1.23.91-.05.06-.58.99-.62,1.12-.04.13.31,1.7.4,1.79.09.09,1.03,1.04,1.05,1.25s.05.58,0,.73c-.05.15-.36.39-.51.47-.15.07-2.16.37-2.48.45-.33.07-.72.04-1.01.15-.29.11-.82.54-.82.54,0,0-.25.41-.36.39-.11-.02-.83-.45-1.01-.41-.18.04-.49.19-.62.32-.13.13-.43.6-.43.67s-.25,1.06-.25,1.14-.51,1.06-.47,1.29c.04.22.51.89.58,1.01.07.11.51.65.53.82s.38,1.36.38,1.36c0,0-.36.93-.51,1.16-.15.22-.31.56-.63.63-.33.07-.89-.04-1.01-.09-.13-.06-1.14-.99-1.27-1.06-.13-.07-1.16-.58-1.32-.62-.16-.04-.72-.11-.8-.15-.07-.04-1.05-.89-1.18-.97-.13-.07-1.7-.89-1.98-.97-.27-.07-1.05-.28-1.32-.17-.27.11-.98.54-1.11.67-.13.13-.51.62-.63.76-.13.15-.65,1.1-.76,1.25-.11.15-.89.93-.92,1.16s-.04.73,0,.86.58.88.63.91c.05.04.43.07.49.26.05.19.11.67.05.82-.05.15-.33.86-.4,1.08-.07.22-.13.75-.2.86-.07.11-.76.24-.8.45-.04.2.02.67.11.76s.22.32.36.32.36.02.38.13c.02.11.18.3.11.45-.07.15,0,.19-.16.24-.16.06-.68-.24-.81-.11s-.5.39-.48.67.16.5.25.69c.09.19.49.65.31.89-.18.24-.49.56-.56.76-.07.21-.18.93-.29,1.06s-.27.32-.47.34c-.2.02-.56.09-.62,0-.05-.09-.78-1.3-.96-1.42-.18-.11-.6-.06-.72.02-.13.07-.24.37-.25.43l-.8,2.55s2.01-.19,2.16-.19,4.02.09,4.1.09,11.38.45,11.38.45l6.87.22s.34-.22.36-.35c.02-.13.07-.63.07-.76s-.71-3.11-.51-3.13c.2-.02,3.9.43,3.9.43l.02.71,7.97-.04,12.09-.15s2.45-.13,2.56-.07c.11.06.54.52.54.47s.25-.24.25-.24l.18.07s.43-.17.58-.22c.14-.06,9.48.52,9.48.52,0,0,8.5.24,8.57.24s4.26-.24,4.39-.28c.13-.04,9.17.39,9.22.39s9.59.06,9.59.06h9.4s.36-.73.67-.91,1.07-.48,1.23-.56c.16-.07.65-.48.91-.52.25-.04,1.83-.19,1.94-.2.11-.02,1.65-.84,1.81-.89.16-.06,1.78-.69,2.03-.75.25-.06,1.14-.19,1.2-.22.05-.04.2-.39.2-.5s-.04-.32-.04-.43.49-.5.49-.63.07-.52.07-.52l.36-.3s.13-.2.18-.2h.82s.04.04.16.02c.13-.02.65-.34.8-.35.14-.02.76-.28,1.03-.39.27-.11.53-.43.56-.54.04-.11.25-1.23.25-1.23,0,0-.2-.21-.2-.32s.02-.22.09-.3c.07-.07.38-.3.44-.3s.22-.32.22-.32c0,0,.33-.02.53-.09.2-.07.54-.35.6-.39.05-.04.24-.11.25-.17s.13-.34.13-.34c0,0,.25.06.27-.11.02-.17.02-.5,0-.6s0-.2.01-.39c0-.19-.33-.5,0-.67.33-.17,2.29-1.62,2.61-1.85.33-.22,1-.65,1.34-.86.34-.21,2.01-.78,2.08-.82.07-.04.42-.21.45-.28.04-.07-.05-.19.09-.26Z"/>
  </g>
</svg>