<svg xmlns="http://www.w3.org/2000/svg" data-name="Layer 2" viewBox="0 0 133.1 61.9"><path d="m126.8 42.3.3-.2c.2 0 5.7-5.6 5.7-5.6l.3-.6h-.6l-.2.3-.5-.3v.4l-.5-.2-.2-.4q-.2-.2-.4 0h-.1l-.4.1q-.2 0-.2-.3l.2-.5-.2-.2q-.2.2-.3 0t0-.2h-.2q.1-.4 0-.4-.2.2-.2 0v-.6l-.2.1v.5h-.3l-.3-.3s0-.5-.2-.5h-.4l-.5-.3q-.2.2-.3 0v-.7l-.3-.3-.2-.6.1-.4h-.2v-.4l-.8-.5-.3-.4-.2.2-.1-.5-.3-.6q.2 0 0-.4l-.4-.5-.4-.4-.2.2-.3-.3.1-.2h-.3l.1-.2v-.2l.3-.3v-.3l.1-.3-.3-.3c-.1 0-.6 0-.6-.2l-.6-1.5-.7-.5v-.4l-.4-.2-.3-.3-.2-.2v-.6l.4-.1.2-1-.2-.6.5-.2V18s-.5-.5-.4-.7V16l-.4-1.2c-.1-.2-.6-.4-.7-.5l-.7-1c-.1 0-.4-.4-.6-.4h-1q-.4 0-.6-.3l-.6-.5-.4-1.7-.2-.6v-1l-.2-.4-.7.2-.8.5h-.8q-.3.1-.4.4 0 .3-.3.5l-.9.5-.3.8-.4.4-.8.1c-.2 0-.8-.3-.9-.2l-.7.7-.5-.3-.2-.7c-.1-.2-1-.4-1-.4l-1.3-.2-.9-.7h-.4l-1.5.6-.3.6q0 .3-.2.5l-.4.1-1.6-.6-.4-1-.9-.4q0-.3-.3-.7l-.4-.4-.9-.3-.7-.2-1.9.4-2.5-.8-.3-.8-.1-1.3-1-1.4-.3-1.3-.8-.5-1-.2c-.3 0-.4-.7-.4-.8V.9l-.5-.3-.4.3q-.1.3-.5.4h-.5l-.6.4-.7.1-1.2-.8-.6-.8-.4-.2-.4.5-.6.3-.5.4c-.2 0-1 .7-1 .8l.3.7s.7 1 .7 1.2v.5l-.7.9q0 .3.3.4l1.1.3.1.6-.5.6-.1.4.3.6-.3.3c-.2 0-.9-.2-1-.1l-1 .3h-1l-1.4 1-1 1-.7.1-.8-.3s-.5-.8-.7-.8h-.8l-1 .1s-.8-.2-1 0c-.2.1-.5.8-.5 1l.3 1V13l.4.7-.2.7c-.1.2-.7.4-.8.6l-.4.9-.5.2-1 .3-.6.5-.3.9-.1 1-.3.5-.7.9-.8.4-.8-.4s-.6 0-.7.3l-.3 1.1-.7.7-.3.8V25l-.6 1.8-1.7.5q0 .5-.2.7c-.2.2-.8-1-1-1.2l-.6-.1q-.2.2-.7.2l-1.4-1-.5-1 .1-1c0-.2-1.4-1.4-1.5-1.4l-.2.3q-.1.3.2.3l.7.5-.1.3q-.5 0-.8.2l-.4.5-.9-.5q-.2 0-.3.3l.4.6.2.4-.5.5s-.7 0-.9.2q-.2.3-.2.7v1l.2.7-.2.5c-.3 0-1.1-.2-1.3 0l-.1.4c0 .1.3.7 0 .9l-.7.5q-.5.2-.5-.3l.2-1.3h-.4c-.2 0-.7.4-.9.3l-.6-.7-.6-1.4-.5-.3-.7.4-.9 1-1.2.1-.8.6-.3.3v.7l-.4 1.3-.6.5h-.6c0-.3-.3-1-.4-1l-.6-.4-.7-.1-1.5-1.3c-.2 0-1.3-.9-1.5-.9q-.3-.1-.8 0c-.2.1-1 .8-1.1.7-.2 0-1-.6-1-.6l-.4-.9-.6 1.2q0 .3.2.4l.4.5-.1.7-.5.6H32l-.4-.6s.4-.7.3-.8l-.3-.4-.6.3h-.6l-.6.3H29c-.2-.1-.5-.8-.6-.9l-.6-.2s-.7.9-.6 1l.4 1v.7l-.5.3-.3.5c-.2 0-.8-.8-.9-.7l-.4.4c0 .1-.3.8-.5.9l-1.2 1-.6 1 .4 1.8c0 .1 1 1 1 1.3v.7l-.5.5-2.5.4-1 .2c-.3 0-.8.5-.8.5l-.3.4c-.2 0-.9-.5-1-.4l-.7.3-.4.7-.3 1.1c0 .1-.5 1-.4 1.3 0 .2.5.9.6 1l.5.8.4 1.4-.5 1.2q-.3.4-.7.6l-1-.1c-.1 0-1.1-1-1.3-1l-1.3-.7-.8-.1s-1-1-1.2-1l-2-1c-.2 0-1-.3-1.3-.1-.2 0-1 .5-1 .6l-.7.8-.8 1.2c0 .2-.8 1-.9 1.2v.9c0 .2.6.8.7.9s.4 0 .4.2q.2.5.1.8l-.4 1.1-.2.9c0 .1-.8.2-.8.4l.1.8q.1.2.4.3l.3.1.2.5q0 .2-.2.2c-.2.1-.7-.2-.8 0s-.5.3-.5.6.2.5.3.7.4.6.3.9l-.6.7-.3 1.1q-.1.2-.5.3h-.6s-.8-1.3-1-1.4H1l-.2.5-.8 2.5 2.2-.2 4 .1 11.4.5 7 .2.3-.4v-.7c0-.1-.7-3.1-.5-3.2l4 .5v.7h8l12-.2H51l.5.4.3-.2h.1l.6-.2 9.5.5 8.6.3L75 59l9.2.4h19s.3-.7.6-.9l1.3-.5.9-.6 2-.2 1.7-.8 2-.8 1.3-.2.2-.5v-.4l.4-.7v-.5l.4-.3.2-.2h1l.8-.3 1-.4q.5-.2.6-.6l.2-1.2-.2-.3.1-.3.5-.3.2-.3.5-.1c.2 0 .6-.4.6-.4l.3-.2.1-.3.3-.1v-1c0-.2-.4-.5 0-.7l2.6-1.8 1.3-.9 2.1-.8.5-.3z" data-name="Ñëîé 1" style="fill:#172d35"/></svg>