<svg xmlns="http://www.w3.org/2000/svg" id="Layer_2" data-name="Layer 2" viewBox="0 0 100 95.2"><defs><style>.cls-1{fill:#172d35}</style></defs><g id="_Ñëîé_1" data-name="Ñëîé 1"><path d="m96 90.4.2-.5-.4.2-.3.3-.2-.1.1-.3-.2-.1-.2.3h-.4v-.6l.4.2.1-.1-.1-.2.2-.2v-.5l.6-.2.3-.3-.4.1-.1-.2-.2.2h-.3v.3H95l-.3-.2-.2.2v.2l-.8.3V89l.4-.3h.1l.4-.5H94l-.3.3-.2-.1v-.2h-.3l.2-.2.3.1.3-.1v-.1h-.5v-.1l.3-.1h.5v-.2l-.2-.2-.1.2h-.3l.3-.3-.1-.2h.1l-.2-.4-.3.1-.1.2h-.1l.2-.4-.2-.1-.1-.1V86l-.4-.1-.2-.8v.7h-.2v.1h-.2l-.2.4-.2-.1-.3.3v.4h-.2v-.3H91l.5-.5-.2-.7-.6-.2h-.1v.2l-.2-.1-.2.2-.2-.2v.4h-.2v-.1l-.3-.1v-.2H89l-.4-.2h.4l-.2-.3h.3v-.3l.2.3.3-.1v.2l.2-.1v-.2h.3v-.3l-.3.2-.7-.2-.4.4v-.4l-.4.4-.1-.2v-.1h-.6l-.2-.3-.9.4H86l-.2-.2h-.2v-.1h-.1l-.2-.3v-.2h.5v.3l.4.1-.2-.3v-.2l-.2-.1v-.2h-.2l-.1-.1.1-.2.4.2V83h.2l.1-.2h-.2l-.1.2h-.2v-.4l-.3.2-.1-.3h-.2v.1l-.3-.2v-.3l-.5-.1-.1.1h-.1V82h-.1l-.3-.4h-.6l-.3-.2.3-.1v-.4H83l-.3-.6h.2l-.3-.1-.3-.2h-.2l-.9-.3-.1-.5.6.2q.2 0 0 0t-.2.1l.3.1.3.2h.4l-.4-.3.4-.1-.8-.2V79l-.3-.1.2-.2h.7l.2.3.5.2-.1.3.2.1v-.1l.2-.1-.2-.3V79h.5l.3.2.2.2h.2l-.2-.3V79H84l-.3-.1v-.2h.4l-.1-.4-.2-.1q.1 0 0 .2h-.2V78l-.8-.2v-.2l.2-.1.3.2h.2l.4.2.3.2.3.3h.1V78l.6.1v.2h.7l.8.4.3.3h.2l-.8-.7v-.1H86l.1-.3-.2-.1-.2.3-.7-.4-.5-.1q-.2 0 0-.1l.5-.2h.2l-.3-.1V77l-.3.2-.1-.2H84l-.2-.6-.4-.2h.5V76h-.1l.3-.3-.1-.4.1-.1.2.4h.2v.3h-.3l.4.5.6-.3.4.2h.6L86 76l-.2-.2h.5l-.2-.1-.2-.1.1-.1v-.3h.3v.2h.2v-.1l.1-.2V75l.3-.1h.3l.2-.2h-.3l-.2-.2-.3-.1-.2.2h.3l-.1.2h-.8v-.3l.2.2v-.3l.2-.2v-.4l.2.5h.9l.1.2.3.2.2.3v.4h.1l.1-.2h.1v.8l.6-.8.4.3.2-.2h.2l-.1-.2h-.2l-.2-.2-1-.3-.1-.1.3-.3-.3-.1-.2-.3v-.1h.3v-.2l-.4-.3v-.4h.1l.4.3h.4l-.8-.6v-.2h-.1V72h-.4l.3-.2.2.2v-.3h1.1l-.3-.3.2-.1v-.2h-.3l-.1.3V71h-.3l-.1.5-.1-.1V71h-.1l-.2.3-.2-.2v.3h-.2l-.3-.2s.4 0 .3-.1c0 0-.6-.4-.3-.4h1l-.2-.1v-.2l-.4.1h-.2l.3-.4v-.3h.7v-.2l.5.1-.6-.4v.2h-.3v-.2q.3 0 .2-.2l-.5-.2v.3l-.3.4v.1l.1-.2.2.1-.2.3-.5-.2v.2l-.2-.3-1.2.8H85V72l-.2.3v.7l-.6.4-.8.1-.2-.1H83l-.9-.8V72l.5-.3-.3-.3-.4.3-1 .3-.4-.1-.7-1.5.8-.9h.6l.6.1.5.4.2-.2q-.1-.4-.3-.5-.2-.2 0-.3l.8-.2.3-.8.4-.3.2-.4-.4-.5-.4-.2-.4.2h-.4s-.3-.4-.4-.3v.5l-.7.9-.6.3-.5-.1-.4-.8V67h-.1l-.4.3-1 1.3-.8.7-.7.3q-.1-.2-.2 0l-.2.1h-.7l-.1.2-.3-.1-.6.2h-.8l-1.8-.6-1-.2h-1l-.8-.5-.3-.4-.2-1v-.8l.5-.9 1-.6.9-1.1-.4-.1H70l-.4.3h-.5l-.6.6v.7l-.6.8-.7.4h-1l-.7-.2-.2-.5.2-.1.2-.2v-.4l-.2-.6.2-.4.3-.3-.1-.3h.5l.6-.7s.5-.3.6-.2l.2.2.8.3.1.2-.2.3.5.2 1-.2h1l.5-1 .7-.6.3-.3.5-.2.3.2 1.3.3h.4l.5.3.5.7.5.1.4.5.1.3v.4l.2.2h.6l.3.2.8-.2.2.2h.3l.3.5.5.2.6-.6h.2l.1.4.3-.1v.1l.2.1-.1.5-.1.2.2.2h.2l.4.3.6-.2.7.4h.3q.4-.1.4-.4v-.1h.5l.1.2-.2.2h-.4l-.1.1.6.2.3-.2.2-.4.3-.1h.4v-.2l-.1-.2-.5.3-.4-.1-.4-.6q-.2 0-.3-.3v-.4l-.3-.3v-.3l-.1-.5h-.2l.2-.4.1-.2v-.6l-.5-.5-.6-1 .1-.3-.1-.7-.8-1h-.3l-.3-.2v-.3h-.2L81 58h-.3l-.1-.3v-.2l-.1-.1V57l-.3-.1v-.4l-.2-.3.2-.3-.2-.5c-.1 0-.5 0-.4-.1l.2-.2v-.7l-.1-.1.1-.3.2-.2.1-.3-.1-.6v-.4l.3-.2v-.2l.2-.2v-.3q.2.2.3 0s-.2-.6 0-.7h.2l.1-.3q-.2 0-.2-.3l.2-.1v-.3l.2-.1v-.3l.2-.2-.1-.1v-.4l.3-.5h.1v-.6l-.1-.3-.3.2-.1-.2-10.6.1-7.8.1H49.7l-4.3-.1 1-.6.4-.6-.3-.4c0-.2-.6-.8-.7-.8l-.2-.5.2-.6.3-.5V43l-.3-.5-.6-.6q-.2-.1 0-.4l.3-.2h1.7q.3 0 .5-.3v-.7l-.7-1v-.6l-.3.1-.2-.6.3-.5h.3l.2.1q-.2.2 0 .3c0 .3.3.9.4.9h.4l.3-.2s.2-.5.1-.6l-.7-1-.1-.9V36l-.1-.5.2-.2h.6l.8-.4.5-.5q.2-.1 0-.4l-.3-.2-.8.2h-.5l-.4-.7.2-.5q0-.1.2 0l.8.5q.3.3.5.1l.6-.4v-1.8l.4-.8.8-.1 1.1.2.3-.3q0-.2-.3-.3l-1 .1c-.2 0-.8.1-.8 0l.3-1 .4-1 .6-.1q.3 0 .3.2l.2.8.5-.2v-.4l-.4-.4.2-.2.9-.7.2-.4.4-.3-.1-.5.3-.7.4-.1 1-.2.3-.6-.2-.5-1.2-.4V23q0-.4.3-.4c.2 0 .5.6.6.7l.3.2.3-.1c0-.1-.2-.7 0-.7l.8-.5.1-.5q.2 0 .3-.2l.3-.5-.1-.2H57l-.7-.4.2.6v.4l-.4-.1H56l-.5.3-1-.2-.1-.5.2-.9.6-.4h.4l.5-.3q.2.2.5.2s0-.5.2-.4c.1 0 .6 0 .6.2q0 .4.2.6h.2l.2-.3V18l.2-.3.4.3c0 .2.4-.3.5-.3l.4-.6.4-.8V16h-.2l-.3.7H59l-1.5-.3-.1-.3.4-.8.3-.4v-.4q-.2-.2-.5-.2l-.7.3-.6-.2-.6-.5-.3-.6v-.6l.3-.6.4.1.4.7.4.5h.8q0-.3-.2-.5l-1.1-.6-.3-.5.8-.6.5-.6V10l-.3-.3h-.2l-.4.8-.7.3-.7.1-.3-.4-.2-.7L56.5 8l-.2-.4-1.7-.3-.1-.4V6l.2-.5.3-.5.9-.4c0-.1.3-1.1.2-1.3L56 2.2l-.3-.4h-.4l-.2.4v1.1l-.2.3-.4.1-.6-.2-.3-.5.4-.9.4-.4.2-.3h-.1L40 1.2 23.7.7 7.4.2.7 0 0 21.6v2.2h.3s.8 1.5 1 1.6h.2q0 .2.2.3t.4 0v.2l-.1.3h.6v.3l.2.3v.2l.2.4v.6l.6.4v.4q.2 0 .3.2l-.2.5.3.6v.4l.4.1-.4.7-.1.2.2.3v.2l-.1.6h-.2l-.2.3.1.5.3.2v.2l.3.6.4.3h.6v.1l.1.2h.5l-.1.2-.1.1-.2.3H5v.4l.4.4H6l-.1.3.2.1-.2.5.3.3.3.2v.6h.6l-.2.2-.3.3-.1.2-.1.1v.3h-.2q-.2.2 0 .3l.3.3.2.2.2.1.1.3h.4v.8l.3.1.1.1-.1.4v.7l.3.2.6-.3.4.1v.2h-.2v1.2l-.1.4-.2.2.2.1v.2l.3.2.2.3q-.2 0-.2.2l.1.1v.2l.3.2-.4.3-.2.1-.4.1h-.2l-.1.2.2.3-.1.3.4.2v.2H9v.8h-.3l-.2.2.1.3-.4.2v.3l.2.2v.4l-.2.2q.2 0 .3.3 0 .4-.2.5l-.4.3v.5l-.3.2-.3.2q-.2.2 0 .2c.3-.1 0 .2 0 .2v.3l-.3 1s-.7.3-.8.5l-.4.6v.5l.1.4-.1.1-.1-.1-.1.1h-.3v.2l-.3.1v.4l-.2.4.2.4h.3v1l.1.4v.8H5l-.1.4h-.2q-.3.1-.4.5l.1.6-.2.2v.5h.2l.2.7.5.3.1.3v.9l-.1.1-.2.6.3.6v.7h.2v.2l-.1.1v.2l-.2.2q.2 0 0 .1l-.2.3-.2.3.4.6h-.3l-.3.5-.1.4-1 .8-.3.8-.4 1-.3.6-.5.5-1 .7-.2.4v.4s.6.3.6.5v.5l.5.4.5 1 .5-.4.3-.2.7-.4 1-.2 2.2-.2 2.4-.2 2.3.2h.3l.6-.2.9-.1 1.8.2 2.1.7 1.5.6 1.7.9 2.1 1 1.8.9.8.3 1.7.4 2 .4 1.8.2 1.1.3h1l.4-.1.7-.5.7-.3.8-.2h.9l.8.1.1-.2h-.5v-.2s.4-.4.6-.4h.5s-.4-.4-.5-.3l-.5.2H36l.1.2H36l-.4-.6v-.4l-.2-.2.4-.4.3-.2v-.1h-1.3l-.7-.7v-.6l.1-.1.4.3h.2l-.1-.2V76h.1l.3.2V76h.4l.1.3-.2.5h-.2v.3h.1l.6-.6 1.2-.7 1.3-.4v-.7l.4-.3h.3l.1.1v.1h-.4l.5.3h.4l.2-.4h.6l.2.2h.6l.2.6v.4l-.2.1-.3-.1v-.4l-.5.8-.1.1v.3h.1l.3.2v.1l-.4.4v.1h.2l.2.2 1.7-1h.7l.4.3.9-.2h.9v-.4l.3.1h.3l.3.2-.3.1-.2-.2-.3.1-.1 1.7-.3.7-.3.2s.5.2.6.1l1-.2.3.2.3 1.1v.4q.2.1.2.4l-.4.7 1.5-.6h.7l.1-.2h.2l.1.2v.2l-.2.2v.2l.3.2h1q.3.1.2.2v.2h.1l.5.1v-.2l.4-.2.5-.1h.2l-.1.4v.4l.1.7h.3q0 .2.2.2h.3l.2.5-.2.4h.2l.2.6.9.4v.2l.3.1.3.6v.4l.2.1.5-.3-.2-.2.2-.2-.2-.5.2-.1.3-.1 1 .3-.3.3h-.4v.6h.5l.4-.4h.2l.1-.2.1.1.5-.3.5.1v.3h.2v.2l-.2.3v.2l.2-.1h.8l-.3.1v.2h-.6v.3h.3v.2H59v.2l.5-.3v.1h.3l-.1.2h.4v-.2l.3.3.1-.1.2-.4h.2l-.2.2v.3l-.2.1h.6v.3h.3l-.6.6h-.1l.2-.3v-.2l-.4.1v.2h-.2l-.1.3H60V89l.1-.3H60l-.3.3h-.3l-.5.5-.2.4.5.5h.3v.3h.2v.3h.3v-.5h.5l.2-.2-.1-.2-.4-.3h.2v-.4l.3.5.5.3.4-.1h.4v.2l-.4.2-.2-.1h-.2v.6l.2-.2h.3l.1.5h.2v-.2l.2-.2.2.2h.1l.1-.4.3-.2.1-.4.5.3v.1H63l-.2.2v.4h.1l.2-.3h.3v-.2l.1.2h.1l-.1-.5.1-.2q0-.2-.3-.2v.2h-.2v-.4l-.2-.5h.3l.2.3h.1v.3l.4.2.2.6h.2l-.5-1.5h.1l.5.9v-.2l-.2-.4-.3-.5h.1l.3.3-.1-.3v-.3H64v-.4l-.4-.3-.2-.5h.2l.3.4.4.1v.4l.2.6h.2l-.2-.3s-.2-.6 0-.5l.2.3.2.5h.2v-.2l.2.1v-.1L65 88h-.2l-.1-.3h.2l.5.4.1-.3v-.3l.2-.3H65l-.2-.2v-.6l.3.5.1-.3v-.2h.2l.3.1-.1.1h-.2v.3l.7.2.2-.2.2.3h.2l-.2-.5h.3v-.2l-.3-.2V86l.2-.1-.2-.4h.3v.1l.4.2v.6l-.1.2v.4l.3.1.3-.4v-.3h.3V86l-.3-.2v-.2l.5-.1.2.2-.2.4v.2h.3l.5.2v.3l-.2.2v.3l.4.7h.2l-.2-.3v-.1l.3-.5v-.3l.3-.3.2.1h.2q.1.1 0 .2H70v.4l.3-.1v.4l.2-.1.3.3v-.4l.3 1v.2l.2-.3-.1-.5v-.3l.5.3.1.6.2-.2h.2v.3l-.4.1v.2h-.4l.1.2h.2v.5h-.2l-.1-.2-.1.3.3.1v.1l-.4.2.1.2.1-.1h.4l.1.2h-.3l-.1.1.5.1v.2h.2v.5H72l.2.3h.2-.1l-.6.2-.1.1v.1l.5-.2h.6l.2-.3h.2l.1-.1h.3l-.2-.3.2-.1.2.2v-.2h.4l1.6-1.5h-.1l.3-.7-.6.2-.3-.1-.2-.4h.5l-.4-.3-.2-.4.3-.3-.5-.1-.2-.6.1-.2.3.3h.1v-.4l-.2-.3.2-.1.2.2v.2h.3l.2.2-.3.1v.2h.3v-.2l.4.1v.2l.1.2.2-.1v-.3l-.7-.8v-.2l.5.3.1-1h-.3l-.1.4h-.1V85l.1-.1v-.2l-.2-.2h.2V84l-.3-.3h-.3l.4-.3h.2v.4l.3.3.1-.2v-.2l-.2-.1-.2-.5h-.1l-.3.3H75l.2-.3-.7.1v.1h-.2l-.2-.2H74l-.3-.6-.1.2h-.3l-.3-.6-.5-.1q-.2-.1 0-.2l.9-.1-.2-.3-.5.1-.2-.1.2-.6.4-.2h.4l.2-.7-.2-.6V79l-.2-.3v-.5l.3.3V78H73l-.1-.2h-.2v-.2s1.2.1 1.2.3l-.2.3.1.4v1.5l.4-.1v-.8l.1-.4v-.5h.2v1.1l-.3.8-.4.1-.3.3.2.2v.4l.2.4h.4v-.1l-.2-.1V81h.5l.2.4h.3l-.2-.2h.3l.4.1-.3.2.2.3.5.2.2.2h.2l.1.2.5.1-.3-.4-.2-.4.1-.1h.3v.4l.4.2.2.2v.2l.1.1H77l.2.2h1.2v-.1h-.3l.1-.2H78l.3-.8.1.1v.4h.1v.3l.4-.3h.1l-.2.3v.1l.6-.3.2.2.5.1.3.5H80v.3h.1l-.2.2.1.1.3-.2.1.2-.2.1.1.2-.3.2v.1h.4l.5-.3h.3l-.3.7h.1s.3-.6.3-.4v.7h.2l-.1.5-.2-.3v.5l-.4.1-.1.3-.5.1v.1l1.7.1-.2-.2h.4v.2l1 .3v-.4h.1l.5-.4h.1l.2.1.3-.1-.1-.6H84v.2l-.3-.4V85h-.4v-.2l.3-.1.2.3h.1l-.1-.5-.3-.3q-.2 0 0 0v.3l-.2.1V84l-.4-.6h-.3V83l-.3.2V83l-.2.2-.1-.4h.6l.2.1.2.5.5.3-.2.2.2.2.2.1.2.2.4.2.2.2-.2.7.1.1v.7l-.7.6.1.2.2-.1h.3v.3h-.2v.3l-.6-.6h-.2v.2c.1 0 1 .7 1.2.7l.6.2.2-.2.3.2 1 .5v-.3l-.4-.1.1-.2q.2-.2.3 0l.1.2.3-.3h.3v.3h-.1q0-.2-.2-.2l-.2.3.1.3h-.2l.2.1q0-.2 0 0c.2 0 1.2 1.7 1.2 1.7l.5-.1v.2h-.2v1.1h.5l.4-.8h.1l-.4.9h.3v-.4l.3-.2v.3l-.1.4.2-.2.1-.4.4-.2-.2-.2v-.6l-.2-.3h.2v-.5l.4.3-.1.5v.7h.2V90h.3l.3.3v.4h-.2l-.2-.1v.1l.1.2h-.1v.6l-.2.4h-.2q0 .5-.2.5l-.6-.3v.2h.3v.4l-.2.5-.5.7-.6.3.1.3-.2-.1v.4l-.3.5.1.1h.2l.8-.7.8-1.4-.3.2v-.1l.5-.8.8-.3h.4l.1-.3v-.4l-.3-.2.2-.4h.2l.2.3v.3l.3.3.3.7.3.2.1.3h.2v.2h.3v.1l.2.2v.4q.3-.2.2-.4l-.5-.6v-.2H93v-.3l.3.2.1-.3h.2l-.1-.2V92h.2l-.2-.2h.5l.3-.5-.2-.2V91h-.4l.2-.2h-.2l-.3-.5.8.4.3.8v.4h.3l-.4-1v-.2l.4.3.2.4v.4h.1l.1-.1V91h.2l.2-.3h-.2v-.1l.3-.2Zm-3.5-4.6" class="cls-1"/><path d="m87.2 67-.1.2zm.8.5.1-.2-.1-.3h-.4l.2.3-.1.2zm-1 1h.2v-.1zm-.1.2s-.3.2-.3.4l.2.6h.2l.3-.4V69zm2.1.6h-.7l.4.2v.2h.3zm-.7.7v.2l.3.4.1-.2zm.5.3h.7l-.2-.2-.3-.1zm1.4-1.1L90 69l-.5.2v.1h.2v.2l.2.2.2-.1-.2-.3zm1.2-1.2.1-.3h-.4v.2h-.3l.1.2h-.3v.2l.3.2h-.3v.4l-.2-.3v-.2l-.3.5.4.1.1.5.2-.1V69q.2 0 .1-.2v-.3l.2-.2h.1V68z" class="cls-1"/><path d="M92.2 68.8v.3l-.2.2h-.2v-.6l-.3.2v-.4l.2-.1V68l-.2.1s0 .7-.1.6l-.2-.2v.3l.3.3v.2l.2.4h.2l-.1-.2.2-.2v.2s.4.1.4 0V69l.1-.2z" class="cls-1"/><path d="m92 68.4.2-.1zm-.1.3v.3zq0-.2-.1 0Zm.8.4.2.1zm0 .6v.2l.2-.2v-.2zm-1.7.2.2-.3v-.1l-.3.2zm-.5-.3-.2-.1v.2zm-.3.4v-.2zm2.3-3.1v-.2l-.3.6.3-.2h.1l.2-.2zm.4-.2h-.2zm.2 1.1-.1-.2-.1.2zm-1.2-.1.2-.2-.1-.1zm-.2.1v-.3zm-2 2.5.2.3h.1l-.1-.3zm-.2 1 .2-.1v-.6l-.2.2zm-.4.6.3-.4-.3-.5H89v.6zm2.6-1.3h.3l.1-.1h.2v-.2L92 70zm-1.2.3v-.2h-.1zm-.4.7.2-.2-.2-.1zm-.3.3.2-.1-.1-.1zm-.3.3h-.3v.3h.2zm.5-.7-.3-.1v.2zm-2 .6h.2zm.4 0-.2.2v.1h.5v-.2h.2V72zm.4.4-.2.3-.2-.1v.2l.3.2.6-.3-.3-.3zm2.5-1.4.2-.3v-.3l-.3.4zm.7 0-.1-.2-.1.1zm-.5.2V71h-.2l-.1.3zm-.4-.6-.1.3-.2.2v.3l-.4.8h.1l.3-.4.3-.3-.1-.2.1-.2v-.3z" class="cls-1"/><path d="M91.1 71.6h.4l.3-.3-.1-.3zm1.2-.3.2.2v-.2zm.6.1h-.2v.2zm-.8.5.2-.2H92zm-.6-.3v.2h-.2v.2q0-.2-.3-.2l-.4.3-.1.2h.3l.3-.2h.7l-.1-.3v-.2zM92 73h.5l.1-.2h-.3zm-.7-.6h-.2zm-1.3.1v-.2h-.2zm0 .2.5-.1-.1-.2-.3.2zm.5.2v-.2zm-.7-.2-.2-.1-.2.6.4-.1-.2-.1zm.2.2-.2.2h.2zm.3.4h.3v-.2h-.3zm.5-.1v.2h.3q.2 0 0-.2L91 73z" class="cls-1"/><path d="m91.2 73.4.1.2.2-.3h.1V73h-.4v.1l.2.1zm-2 .1h.5l-.1-.3-.4.1v-.2h-.4v.3l-.2.1s-.4-.2-.4 0l.2.2.3.2q-.3 0-.3.2l.1.2-.2.2h.3v-.2l.2.1v-.2l.7-.3H89s.4-.3.2-.3H89z" class="cls-1"/><path d="M89.8 74.4h.3v.3h.3v-.2s-.4-.3-.3-.4l-.1-.2-.4-.2v.2l.3.1zm1-.4h.2v-.4c0-.2-.6-.2-.6-.1l-.2.2v-.2h-.4l.4.3.2-.1h.4zm-1.6.4-.8.3.7.1h.6l-.1-.3q-.2-.2-.4 0m1.3-.3-.1-.3v.4zm1.2.3v-.2h-.3v.2zm-.7.5-.5.1v.5-.2H90l-.2-.2h-.4l.7.6h.4l.1.1.3.1-.1-.3v-.2l-.1-.2zm-3.5.2h.2q.2 0 0 0z" class="cls-1"/><path d="m90.2 75.8.2.2h.2zm-.9.4h-.2l.3.3h.2v-.1zm1.8.1v.3h.2q.1.1.2 0l-.2-.4zm-3.3 0 .3.3.1-.1-.1-.1-.3-.6q0-.3-.2-.4l-.8-.3v.2l-.1.2v.3l.2.8.5-.4H87l.2-.4v.1l.5.2zm-1.5-.6.2.1zm0 .4.4-.1-.1-.2-.2.2m.3.3-.3-.1q.1.5.4.6l.1-.2zm1.3 1.5.2-.1-.2-.1v-.4l-.2-.1h.3l-.1-.5-.1.3-.1-.1H87v.3h.2v.2l.1.2.1.6.3-.2-.2-.4zm.6-.4.1.2.1-.1zm-1.1.9.2.1.2-.1-.2-.1zm-.1.2v-.2l-.2.1zm-2.5-2v.3h.2v-.4zm-.3.4.1-.2v-.1l-.3.3zm-.3 0v-.2l-.2.1zm1 0 .1-.2h-.1zm.9-.2-.1-.2-.5.2.2.3v-.2zm-.2.8h.5q.2-.1 0-.2l-.2-.2V77h-.2q.1.1 0 .2H86zm-.5-.4v.2zm.6.9h.4v-.2l-.6-.2h-.3l.4.1zm-2 .5.3.3h.2l.3-.1v-.2zm.9.5-.1-.2-.2.1zm-1.4.5h.2v-.2h-.2zm.9-.1h.3v-.1zm.8 0H85v.2zm-1.6.5.2-.1-.2-.1h-.1zm-.4 0h-.5l.4.4h.6l.2-.1-.2-.2H83zm.9 0h.3q.2.2.2 0l-.2-.3zm.6.2h.2l-.1-.1v.1Zm-.1.3-.2-.2-.5.3zm.6-.1-.2.2zm.9-.2h-.3zm-2.6.8h.2l-.1-.2zm.7-.1-.3-.1.1.2zm-.9.6h.3v-.3zm.6.3h.3l-.1-.2zm.5-.4-.1.2.2.2q.1 0 0-.2zm1.1-.3-.2-.4-.3.2v-.1q-.6.2-.7.4l.1.1h.2l.2.1h.3l-.3.3v.3l.1-.3.5-.1-.1-.2-.4-.2.2-.1zm.6 0 .2-.2zm-.4.1v.2l.2-.1h-.2m-.7.9.1.3h.3l-.1-.3zm1.5-.7h-.3l.2.2zm-.5.6h.2v-.2H86zm1.3 2-.3.2zm2.9.5h.2q-.1-.3-.3-.3zm2.9-2.7-.1.2h.1l.2-.2zm-.2.8h-.4l-.4.1.3.2zq.3-.1.2-.3v-.1l-.4.3m.1 2.9h.2l-.2-.2zm0 .4.3-.1-.2-.1s-.1.2 0 .2m3.2 2.8H96l.1-.1-.4.2.4.2.5.3V89zm-.3.6.3.1.1.1h.2l-.1-.2c-.1 0-.7-.4-.8-.3h-.4l.3.3h-.2v.4h.4v-.5l.1-.1zm-14.7-4 .1-.2H81zm-1 .1-.1.3.1.3.4-.2.4-.1-.4-.7-.2.2v.5zm.1-.3h-.2v.2zm-.5-.3v.2h.2v-.3zm-.5-.6h.2V84zm1 .6-.1-.2-.1.1zm-1.3.5.1-.5-.3.1zm.5.2v.2h.1zm-.3 1H79l-.1.2 1-.3-.5-.7-.1.1.1.3h-.1l-.2-.4H79l-.3.6h.6zm-1.2.8h.4l.3-.4v-.1h-.1l-.4.2zm-.3.2-.5.4H77l-.2.3-.2.3-.3.3v.1c.2 0 1.5-1 1.5-1l.3-.4v-.2zm-1.1.2v.2l-.1.1h.2zm-.1-.1v-.2zm-.3.8v-.2l-.2.3zm-1.5-1.7v.2h.2zm2 .2v-.2h-.3v.3zm.5.6v.2H77h.3l.3-.2zm.5-.2V87h-.2zm0-.3q.2 0 0-.2t-.2 0z" class="cls-1"/><path d="m77.3 86.2.2.4h.2l.1-.3-.3-.2zm-.7-.7v-.2zm.1-.5h.2v-.2h-.2zm1 .4H77V85l-.1.2v.5l.3.2.3-.1-.2-.2h.3zm-.4-.2v-.3zm-.6-.5h.6l-.2-.3h-.4zm0-.4h.3zm.5-.1v.2l.2-.2V84zm2-.7.2.3h.1l.3-.6-.1-.3-.2.1v.2h.1zM79 83v-.2l-.2.2zm.1.2.1-.2H79zm-.4.3h.2v-.1zm-.5.2.5-.5h-.5zm-.4 0-.1.1zm-.5-.5V83h-.1zm-.7-.5H76v.2h.6l.2.5h.2l.1.4.4-.3-.3-.1-.1-.3-.3-.3zm-.3.7v-.3zm-.3-1.1.2.3h.4v-.2l-.4-.2zm-.6-.1.3.1.1.2h.2q0-.3-.2-.5h-.2l-.1-.2H75l-.5.2v.3h.3l.1.1v.4l.6-.3-.2-.1zM71 91.9l-.3.1h-.2l-.1.2h-.6v.1q.1.2.5.1l1-.4q.4-.1.3-.2l-.3.1zm-2.9.1-.4-.1h-.2l-.4-.1h-.3l1.2.6 1 .2-.2-.4-.1.1-.2-.2zv-.2Zm-1.4-.3-.2-.2v.3zm.9-.1h.2l-.1-.1h-.3zm1 0v-.2l-.3.1zm.2-.4-.3.2zm-1.2-.5h.2v-.1l-.1-.1zm1.4.1-.1-.2zm1 .1-.4.1h-.3l.1.3 1-.4v-.2l-.2-.1zm.3.3-.2.2zm-.1-1v.3h.1zm1-.7.1.3h.1zm0-.3.3-.1-.2-.2zm-.4.1-.1-.3h-.1zm-.6-.3h.2l-.2-.4zm.4.3h-.3v.1l-.1.3h.1v-.3zM69 89v.2l.4-.3-.1-.2-.3.1zm.1-.4.2-.3-.2-.4zm0-.9-.1-.1-.1.2zm-.1.5-.1.2.1.1zm-.5.8.2-.1v-.3h-.1l-.1.3zm.3-1.4-.3-.2h-.2l-.2.8.1.2.2-.4.1-.1v-.3zm-.4 1.1v-.2h-.1zm-.4 0v-.3l-.1.1zm.2.3h.2l-.1-.1zm.6.2h-.2v.1zm-1 0h.2l-.1-.2zm-.2.3.2-.2h-.3zm-.1-1-.2.1.2.1zm.4-.9v-.3zm-.8-1.1.1-.4-.2.3zM65.7 88l.1.2.8.3v-.1l-.7-.4zm0 .8.1.2s.5 0 .4-.1l-.4-.6h-.1zm-.7.1v.5h.1v-.3zm.2.9v-.2zm-1.2.5v.2h.1zm.6.7v.4zm-1.9.3-.2.2.2.1zm2.8.2-.2.1v.1zm-2.3 1.1.8-.3.6-.3h-.7l-.5.3h-.2l-.1-.1-.3.1h-.2v.2h-.3l-.4.2h.8zm-5.1-.4.4.3.7.2-.1-.3h-.3zm1.3.6.5-.1.2-.1-.7-.1zm1.1-.4v.4h.4l-.2-.4zm.8-.2h.2V92h-.2l-.1.1zm-.4-.2q0 .2.1 0zm.5.3H61v.5h.3v-.1h-.2zm0 .4.4-.2-.1-.1-.2.1zm-.3-1.1h.2l.3-.1v-.4l-.3-.1-.1.1.1.2zm-.3-1.2v.2l.1-.1.1-.3zm-.6.3h.4v-.2zm.4.6.3-.2v-.3l-.4.2s0 .4.1.3m-.2-.1-.1-.1h-.5l.2.1v.2l.3.1v-.2m.1.3.1-.1zm.1.2v.2h.2l.2-.4h-.3zm0-3.3.4-.1-.1-.1zm-.3-.3h-.4v.2l.1.1.4.1v-.4Zm-2 1s.2.4.3.3l.3-.4.2-.4.4-.1v-.2H59l-.2.1h-.2l-.2.2v.1l.1.2zm-2.1-2.5.2-.1-.1-.4-.3-.2.1.3-.1.1z" class="cls-1"/><path d="m58.6 88 .2-.1-.2-.4-.6-.3.2-.3-.2-.2-.5-.3-.2.2s0 .5-.1.4l-.3-.2h-.5l-.2.1-.4-.1-.5.3H55v.2h.2v.4l-.2.5.1.5.6.6.7.1.2-.1-.1-.3v-.2h-.2v-.1l.1-.2v-.2h-.1v-.2l.4-.6h.3v.1l-.4.5.1.3-.1.4v.3h.1l.2-.6h.2l.1.1q0-.1-.1 0v.3l.3-.2.2.2v.2h-.2v.5h.3c.1.1.6 0 .5-.1l-.2-.2.2-.4h.2l.1-.4h-.2s-.3.4-.4.2l-.3-.7.2-.6h.1l.4.1v.2H58l-.1.1v.1l.2-.1v.2l-.2.3h.4zl-.2-.2.2-.2v.1h.2z" class="cls-1"/><path d="M57 89.4h-.3v.1zm0-.3v.4l.2-.1V89zm-4.8-3.7-.2.6-.2.2-.1.3-.3.1-.6-.2-.1-.2V86h-.1v.3l1.3 1.6.7.3.8.3 1.5.2s-.1-.9-.2-.8h-.1v.2h-.3v.2l-.2-.1q0-.2.2-.3l.2-.2-.5-.2h-.2v.2l-.2-.2v-.1l-.2-.2.2-.3-.1-.2.2.2v.2l.1.2h.4l.1-1-.2-.1-.3.2v.3l-.3-.3-.2-.1-.4-.9V85zm-.5-2.7.3-.1.1-.6-.6.3-.1.3zm-8.8-1.4.4-.2.3-.3.2-.4-.7.2.1-.4-.3.2h-.4v.1l-.2-.1v-.6l-.5.1v-.2h-.4l-.3-.3V79h-.3l-.2-.1-.2.1-.3-.1-.2-.2-.3.1h-.2v.3l-.2.3h-.9l-.3.1-.3.4v.3s-.4-.1-.4 0l.2.2 1.1.7h.3l.4.3.5.1.5.4h.4l.2.5h.3l.2.2.4-.3.4.1.4-.1-.2-.3.2-.6zm56.4-11.4-.1-.5-.4-.4h-.3zm-.1 6 .6-2.3.2-.9-.4-2.2-.2-.3.2.8v.2q-.2.2 0 .4h.1v.3h.1l-.1.8.1.2-.3.4.1.2v.3l-.2.3v.3l-.2.2.1.2-.2.2v.8l-.2.3zm-.4-3.1v.3l.2-.1v-.3l-.2-.1-.3.2v.2z" class="cls-1"/><path d="m99.2 73.6-.2-.2v.4zm-.2 0-.2-.2v.3zm-.5-.6h-.3zm-.3.4-.3-.2v.2zm-.2.5h-.2v.2zm-1.2.4h.2zm0 .9v-.7l-.2.3v.3q0 .2.2 0m1.9 1.5.2-.2-.1-.1zm-.4.6.1-.2h-.1zm-.3.2-.4.3h.3zm-.6.6h.2v-.1zm0 .3-.2.1v.1h.1zm-.5.3.1.2.2-.2zm-.9.4.3.1v-.2H96zm-1 1.7-.4.6.4-.1zl.3-.1.2-.5h-.2z" class="cls-1"/></g></svg>