<?xml version="1.0" encoding="UTF-8"?>
<svg id="Layer_2" data-name="Layer 2" xmlns="http://www.w3.org/2000/svg" viewBox="0 0 99.96 95.24">
  <defs>
    <style>
      .cls-1 {
        fill: #172d35;
      }
    </style>
  </defs>
  <g id="_Ñëîé_1" data-name="Ñëîé 1">
    <g>
      <path class="cls-1" d="M96.01,90.38s.18-.43.15-.43-.26.07-.32.14c-.06.06-.25.28-.31.28s-.19-.08-.19-.11.17-.32.07-.27c-.1.05-.06.03-.1.05-.04.02-.06-.25-.13-.17-.07.08-.15.36-.21.36s-.37-.07-.38-.1c-.01-.03-.11-.34-.07-.39.04-.05.17-.17.17-.17,0,0,.22.2.27.21.05.01.16-.05.14-.08-.02-.03-.16-.14-.12-.18.04-.04.17-.21.17-.21l.09-.46s.51-.18.55-.2c.03-.02.36-.34.32-.33s-.34.11-.38.1c-.04-.01-.18-.17-.18-.17,0,0-.11.15-.14.15s-.13-.07-.13-.07c0,0-.2.05-.21.09-.01.04.02.11.08.14.06.02,0,.16,0,.16,0,0-.13.06-.19,0-.06-.06-.25-.24-.25-.24l-.22.22s.09.16.03.2c-.06.04-.84.25-.84.25,0,0,.01-.08.05-.16.04-.07.39-.34.39-.34,0,0,.07.1.11.06.04-.04.36-.5.32-.5s-.46-.07-.46-.07c0,0-.19.37-.26.37s-.23-.11-.23-.11c0,0,.12-.19.06-.19s-.37-.03-.37-.03l.22-.17s.19.12.28.11c.09-.01.33-.14.33-.17s-.07-.1-.11-.1-.4.03-.4.03v-.09s.22-.1.27-.1.49.07.49.07c0,0-.02-.27-.03-.3-.01-.03-.09-.2-.09-.2,0,0-.12.19-.19.19s-.32.02-.28,0,.3-.22.28-.25c-.02-.03-.15-.18-.1-.2.05-.02.16-.09.16-.09l-.23-.36-.3.15-.09.21s-.15-.01-.13-.04c.02-.03.2-.38.2-.38l-.13-.09s-.11.09-.12.06c-.01-.03-.07-.09-.07-.18s.07-.2.03-.22c-.04-.02-.41-.1-.41-.1l-.16-.73s-.11.38-.1.43c.01.04.08.21.04.22-.04.01-.15.01-.15.01v-.05c0,.07.03.17-.03.17-.08,0-.17-.06-.17-.06l-.09.04s.08.03.06.1-.19.28-.19.28c0,0-.09-.19-.19-.11-.1.07-.22.21-.27.29-.05.08-.08.15-.08.22s.01.19.01.19l-.15.02s0-.29-.02-.3c-.03-.01-.27.02-.25-.02.02-.04.42-.42.42-.45s-.1-.72-.17-.74c-.07-.02-.58-.17-.58-.17l-.1-.06-.08.23-.16-.08-.21.17-.13-.19-.2.11-.1.36h-.17s.08-.15,0-.19c-.08-.04-.26-.1-.26-.1,0,0-.04-.16-.08-.16s-.13.07-.19.02c-.06-.05-.39-.24-.39-.24h.38s-.23-.23-.2-.23.3.1.29.05c-.01-.05-.1-.15-.06-.21s.12-.21.14-.16c.02.05.03.23.11.23s.28-.09.28-.09c0,0,.06.21.1.22.04.01.15-.07.15-.1s-.08-.15-.05-.16c.03-.01.31-.03.31-.03l-.06-.26s-.15.16-.27.16-.66-.25-.69-.23c-.03.02-.38.49-.36.46.02-.03.01-.36.01-.36,0,0-.07-.11-.1-.09-.03.02-.35.43-.35.43l-.1-.16s.12-.19.09-.19-.57.01-.63-.03c-.06-.04-.18-.2-.27-.18-.09.02-.78.36-.82.38-.04.02-.43,0-.43,0l-.11-.11-.03.06s-.1-.15-.15-.15h-.23l.02-.15h-.12l-.17-.32s.05-.21.08-.2.24.08.3.1c.06.02.12-.05.12-.05,0,0-.13.27.03.32.16.05.4.18.38.12s-.24-.31-.24-.34.04-.17,0-.21c-.03-.04-.14-.08-.14-.11s.01-.17.01-.17l-.24.07s-.17-.19-.15-.22c.02-.03.16-.15.16-.15,0,0,.25.2.33.17.08-.03.1-.11.14-.15.04-.03.13-.01.15-.04.02-.03.06-.24.06-.24l-.21.06s-.09.14-.12.15c-.03.01-.11.05-.16.01-.05-.04-.09-.11-.09-.16v-.2s-.21.17-.24.15c-.03-.02-.13-.3-.13-.3l-.11-.05s.13.19.03.19-.32-.19-.33-.22c-.01-.03-.06-.12-.06-.12,0,0,0-.17-.05-.19-.06-.02-.39-.07-.39-.07l-.14.12-.11-.04.06-.23s-.17.14-.17.04-.21-.38-.29-.38-.54-.01-.6-.04c-.06-.03-.31-.18-.27-.2.04-.02.26-.05.25-.1-.01-.05-.02-.39-.05-.4-.03-.01-.17-.06-.17-.06l-.24-.47s.17-.07.14-.11c-.03-.04-.11-.03-.21-.08-.1-.05-.33-.17-.33-.17,0,0-.23.06-.26.05-.03-.01-.81-.34-.84-.35-.03-.01-.17-.46-.14-.46s.6.11.64.14c.04.02.14.04,0,.09-.14.05-.29.03-.26.06.03.03.22.02.31.09.09.07.24.23.29.24.05.01.43-.11.43-.11l-.4-.21s.45-.12.39-.15c-.06-.02-.74-.2-.74-.2,0,0,.02-.09-.04-.1-.06-.01-.35-.08-.32-.1.03-.02.06-.11.22-.13.16-.02.66-.11.71-.03.05.08.09.23.17.28s.6.19.57.25c-.03.06-.18.2-.18.29s.15.1.2.09c.05-.01.07-.16.07-.16l.18-.07s-.27-.22-.25-.29c.02-.07-.05-.19.09-.19s.3-.02.47.06c.17.08.23.04.29.14.06.09.11.2.15.21.04.01.24-.01.24-.01,0,0-.16-.22-.16-.27s.04-.26.04-.26c0,0-.33.06-.36.06s-.29-.11-.29-.17-.08-.17-.02-.18c.06-.01.39-.02.39-.07s-.08-.25-.1-.3c-.02-.05-.2-.17-.18-.12.02.04.18.13.06.2-.12.06-.18.1-.22.09-.04-.01-.11-.11-.11-.16s.1-.33.06-.34c-.04-.01-.7-.22-.77-.24-.07-.02-.16-.18-.13-.2.03-.02.15-.16.27-.07.12.08.3.25.3.25,0,0,.15-.03.21-.04.06-.01.34.11.39.16.05.04.19.08.33.24.14.16.24.22.28.26.04.04.14.03.14.03v-.16l.55.09.11.21s.48-.09.62-.02c.13.07.74.33.8.39.06.06.24.34.32.34s.22.02.18-.04-.78-.7-.78-.7v-.1s-.48-.02-.46-.05c.02-.03.18-.18.13-.21-.05-.03-.25-.14-.25-.14,0,0-.1.27-.13.26-.03-.01-.57-.38-.7-.38s-.57-.1-.57-.1c0,0-.11-.04.06-.1.17-.06.37-.12.49-.15.12-.02.18-.09.18-.09l-.29-.05.03-.14s-.27.2-.32.16c-.05-.04-.12-.2-.12-.2,0,0-.4,0-.4-.05s-.09-.52-.16-.54c-.07-.02-.43-.17-.4-.18.03-.01.47-.06.47-.06l.04-.17s-.16-.05-.13-.07.34-.19.32-.25c-.02-.06-.18-.37-.12-.42s.12-.17.14-.06c.02.1.13.43.13.43,0,0,.29-.05.27.05-.02.1-.02.21-.08.23-.06.02-.26-.06-.22.03.04.09.38.44.38.44,0,0,.55-.41.6-.32.05.08.27.27.35.28.08.01.62-.06.62-.06,0,0-.05-.23-.1-.25-.05-.02-.22-.19-.22-.19,0,0,.15-.07.2-.03.05.04.36.1.34.07-.02-.03-.15-.2-.18-.22-.03-.02-.26-.06-.26-.06,0,0,.16-.06.16-.15s-.13-.27-.06-.27.29-.01.29.03-.09.17-.03.2c.06.03.26.11.27.05,0-.06.02-.21.02-.21,0,0,.12-.05.09-.12-.03-.07-.06-.12-.03-.15.03-.02.29-.12.29-.12,0,0,.29.07.33.07s.18-.2.18-.2c0,0-.23-.04-.27-.07-.04-.03-.13-.2-.22-.21s-.22-.09-.28-.07c-.06.02-.22.23-.22.23l.27-.02s.03.2-.06.21c-.09.01-.84.06-.84,0s-.02-.33,0-.3c.02.03.26.17.26.17l.07-.14s-.05-.14,0-.18c.05-.04.14-.06.14-.15v-.36s.08.4.14.42c.06.01.91,0,.91,0,0,0,.05.16.12.21.07.05.31.17.34.19.03.02.16.28.16.31s-.11.2-.08.28c.03.08.09.18.09.18,0,0,.06-.01.11-.08.05-.07.03-.19.09-.17.06.02.1-.06.1.04s.03.73.03.73c0,0,.48-.77.51-.75.03.02.39.31.46.28.07-.03.12-.15.18-.15s.25.07.24.04c-.01-.03-.14-.26-.17-.26s-.18.1-.21.08c-.03-.02-.09-.29-.18-.3-.09-.01-1.01-.22-1.06-.25-.05-.03-.05-.12-.02-.18.03-.05.32-.28.28-.28s-.27-.04-.29-.08c-.02-.04-.21-.34-.21-.34,0,0,0-.11.02-.11s.3.05.29-.02c-.01-.07,0-.11-.04-.16s-.36-.27-.37-.32c0-.05.03-.39.03-.39,0,0,.08-.05.14-.01.06.04.24.26.31.3.07.04.43-.02.43-.02,0,0-.76-.53-.78-.56-.02-.03.04-.21.04-.21,0,0-.17.02-.17-.04s.04-.17-.03-.19c-.07-.02-.33-.07-.3-.09.03-.02.26-.19.27-.16.01.03.16.26.17.2.01-.06-.02-.28.08-.29.1-.01.16-.09.29-.08.13.01.75.09.73.06-.02-.03-.34-.24-.29-.29.05-.05.19.02.21-.08.02-.1.1-.2.01-.22-.09-.02-.25.01-.27.05-.02.04-.16.42-.16.31s.04-.42-.05-.41c-.09.01-.17-.07-.2.06-.03.13-.15.37-.15.37,0,0-.15,0-.13-.11.02-.11.18-.4.09-.4s-.14-.07-.17-.02c-.03.05-.13.46-.18.38-.05-.07-.18-.23-.18-.2s.06.2,0,.24c-.06.04-.08.14-.18.06-.1-.07-.36-.14-.33-.18.03-.04.39-.09.31-.16-.08-.06-.57-.37-.29-.36.27.01.93.07.93.04s-.21-.1-.16-.17c.05-.06.13-.16.08-.17-.05-.01-.49.11-.49.11,0,0-.26-.01-.2-.07.06-.06.32-.31.35-.37.03-.06-.02-.34.01-.33.03.01.07.09.13.07.06-.02.13-.07.22-.07s.3.07.3.04,0-.19,0-.19c0,0,.46.15.46.1s-.51-.37-.51-.37c0,0,.07.19.01.19s-.41.08-.39,0c.02-.08,0-.16.09-.22.08-.06.22-.15.16-.21-.06-.06-.47-.23-.48-.19-.01.04.02.25-.05.32-.07.07-.31.25-.3.33.01.08.05.16.08.16s.04-.2.08-.2.14.05.12.09c-.02.04,0,.27-.12.28-.12.01-.43-.16-.5-.14-.07.02-.09.17-.13.12-.04-.04-.11-.32-.15-.27-.04.05-1.05.72-1.14.76-.09.04-.39.06-.37.09.02.03.14.48.14.59s-.15.86-.16.92-.17.36-.17.36l.03.66s-.55.37-.59.41c-.04.03-.72.14-.77.14s-.05-.15-.2-.15-.43-.01-.46-.02c-.03-.01-.78-.7-.84-.76-.06-.06-.1-.21-.11-.31-.01-.1,0-.26.04-.3.03-.04.53-.3.53-.3,0,0-.22-.32-.26-.3-.04.02-.34.25-.47.29s-.82.29-.95.29-.39-.07-.43-.1c-.04-.03-.7-1.44-.7-1.47s.61-.81.77-.87c.16-.06.49-.12.67-.08.17.04.44.01.62.2.17.19.37.36.44.32.07-.04.26-.06.24-.2-.02-.13-.29-.43-.29-.48s-.17-.16.03-.24c.2-.08.75-.29.75-.29,0,0,.16-.67.25-.79.09-.11.31-.2.4-.3.09-.1.25-.32.22-.37-.03-.05-.28-.44-.35-.49-.07-.05-.46-.24-.46-.24,0,0-.27.22-.41.26-.14.04-.29.06-.33.03-.04-.03-.38-.41-.39-.37,0,.03.03.39,0,.5-.04.1-.62.81-.7.87-.08.06-.43.34-.61.38-.17.04-.5-.06-.55-.17-.04-.1-.34-.64-.35-.72-.01-.07.1-.38.05-.39-.05-.01-.19-.04-.23,0-.04.04-.36.23-.4.3-.04.07-.93,1.28-1.01,1.36-.08.08-.63.57-.76.64-.13.07-.66.34-.66.34,0,0-.19-.16-.23-.08-.04.07-.11.2-.17.2s-.16-.05-.32-.03c-.16.02-.38.04-.41.06-.03.02-.13.15-.13.15l-.22-.09s-.47.16-.6.19-.68.04-.86.03c-.18-.01-1.17-.35-1.2-.37-.03-.02-.45-.22-.61-.26-.15-.04-.78-.23-1.02-.21-.24.02-.98.01-1.01.01s-.72-.51-.78-.54c-.06-.03-.21-.32-.23-.38-.02-.06-.24-.94-.24-.98s.04-.77.04-.77c0,0,.43-.89.45-.92.02-.03,1.05-.6,1.07-.63.02-.03.81-1.12.81-1.12,0,0-.27-.08-.39-.07-.12.01-.36-.02-.47.04-.11.06-.29.24-.36.26-.07.02-.5-.02-.58.02-.07.04-.52.49-.53.56-.02.07-.05.64-.1.7-.05.05-.45.77-.5.81-.05.04-.44.35-.72.42s-.97.07-1.1.06c-.13-.01-.51-.15-.6-.25-.08-.1-.24-.4-.22-.49s.06-.12.18-.16c.12-.03.21-.02.25-.17.04-.15.05-.19-.07-.39-.12-.21-.15-.62-.15-.62l.15-.37s.31-.23.32-.32c.01-.09-.12-.26-.08-.26s.43-.01.49-.07c.06-.06.47-.57.58-.61.1-.04.55-.33.6-.29.05.04.03.16.2.23.17.07.81.28.84.33.03.05.1.18.1.21s-.16.28-.16.28c0,0,.38.21.48.21s.87-.22.94-.22,1.01.05,1.06-.02c.05-.07.44-.86.45-.89.01-.03.66-.64.74-.7.08-.05.2-.21.32-.26.12-.05.47-.2.5-.2s.13.13.25.19c.12.05,1.2.31,1.3.31s.38.03.45.07c.07.04.4.22.45.25.05.03.41.57.53.62.12.05.33.06.48.17.15.1.4.35.45.44.05.08.1.26.1.3s-.05.35.01.46c.06.1.13.21.13.21,0,0,.58-.08.63-.04.05.04.25.22.31.22s.73-.25.77-.2c.04.05.14.16.2.17.06.01.25-.06.29,0,.04.06.28.51.3.54.02.03.48.22.55.18.06-.04.55-.58.59-.58s.14-.02.15.03c0,.05.14.3.14.3l.33-.09s0,.14.04.17c.04.03.14-.04.11.1-.03.15-.06.44-.09.49-.03.05-.13-.01-.1.13.03.15.11.28.15.28s.15-.07.2-.04c.05.03.39.3.44.3s.54-.19.65-.19.56.34.65.34.23.11.35.04c.12-.07.37-.32.37-.35s-.05-.12-.02-.15c.03-.02.46-.08.53-.05.06.03.14.21.1.27-.04.06-.04.1-.18.14-.14.03-.4.01-.45.05-.05.04-.16.08-.11.1.05.02.55.19.58.17.03-.02.33-.17.37-.21.04-.04.15-.33.18-.35.03-.02.22-.18.32-.16s.33.11.33.08-.01-.24.03-.22c0,0-.09-.22-.13-.22s-.37.28-.49.28-.28.04-.34-.1c-.06-.15-.28-.48-.41-.58-.13-.1-.33-.14-.33-.26s.05-.41-.01-.47c-.06-.06-.27-.16-.25-.23.02-.07.11-.11.06-.21-.05-.09-.08-.06-.12-.15-.04-.08-.07-.42-.09-.45-.02-.03-.19.06-.16-.04.03-.1.1-.36.16-.43.06-.06.11-.04.15-.15.04-.1-.03-.5-.05-.56-.02-.06-.52-.56-.53-.59-.01-.03-.53-.85-.51-.92.01-.07.1-.23.1-.34s-.1-.63-.16-.72c-.06-.08-.75-.88-.82-.89-.07-.01-.21-.01-.24-.03-.03-.02-.27-.25-.31-.29-.04-.04-.04-.25-.1-.24-.06.01-.15.02-.16-.05-.01-.07-.11-.5-.16-.53-.05-.03-.19-.06-.25-.12-.06-.06-.15-.16-.14-.24.01-.08.12-.21.09-.23-.03-.02-.21-.04-.24-.1-.03-.06-.01-.35-.04-.34-.03.01-.21-.05-.18-.15.03-.09-.04-.23-.04-.23,0,0,.04-.07,0-.15s-.16-.21-.16-.24.15-.33.15-.39-.13-.38-.22-.44c-.09-.05-.42-.07-.37-.11.05-.04.17-.11.18-.22.01-.1-.08-.33-.05-.39.03-.06.13-.23.11-.26-.02-.03-.16-.08-.13-.17.03-.08.03-.18.1-.22.07-.04.16-.11.21-.24.05-.12.09-.22.09-.26s-.11-.56-.14-.62c-.03-.06-.06-.34.02-.42.08-.07.3-.19.36-.19s-.07-.15-.06-.19c.01-.04.24-.18.24-.24s-.1-.27,0-.26c.1.01.31.19.3.05-.01-.14-.2-.66-.08-.74.12-.07.24-.01.28-.08.04-.07.12-.22.08-.27-.04-.05-.27-.22-.2-.26.07-.04.22-.08.2-.15-.02-.06-.05-.28-.02-.28s.18-.02.17-.1c-.01-.08-.02-.25.01-.27.03-.02.26-.14.24-.18s-.11-.07-.1-.16c.01-.08.09-.19.05-.23-.04-.04-.15-.05-.09-.15.06-.09.28-.45.32-.47.04-.02.18-.01.14-.09-.04-.08-.12-.22-.11-.26,0-.04.12-.24.1-.33-.02-.09-.13-.26-.13-.26,0,0-.26.2-.3.18s-.13-.15-.13-.15l-10.58.1-7.76.09h-7.32l-5.97-.05-4.34-.06s.78-.5.97-.59c.19-.09.42-.47.43-.58.01-.11-.13-.32-.25-.46-.12-.14-.61-.73-.69-.81-.08-.08-.29-.35-.27-.49.02-.13.11-.42.19-.55.08-.13.3-.37.33-.53.03-.16.09-.35,0-.51-.09-.16-.18-.36-.34-.47-.16-.1-.55-.47-.6-.57-.05-.1-.13-.34-.02-.42.11-.07.24-.2.41-.2s1.11.07,1.25.07.24.01.42-.06c.18-.07.38-.19.45-.31.07-.12.07-.61.05-.71s-.65-.8-.68-.96c-.03-.16-.09-.25-.02-.35.07-.1.02-.26.02-.26,0,0-.35.16-.37.06-.02-.09-.16-.54-.14-.62.02-.08.15-.44.31-.47.16-.03.22-.11.3-.06.08.05.19.02.13.17-.06.15-.12.09-.03.32.09.23.4.81.46.84.06.03.26.09.37.07.11-.02.32-.2.36-.26.04-.06.19-.46.12-.58-.07-.12-.75-.94-.77-1.01-.02-.06-.08-.79-.08-.88s.11-.26.05-.37c-.06-.11-.19-.35-.14-.43.05-.07.06-.21.23-.22.17-.01.4-.01.57-.06.16-.05.64-.26.76-.32.12-.06.54-.49.57-.51.03-.02.12-.28.03-.39-.09-.11-.24-.25-.41-.23-.17.02-.64.21-.75.23-.11.02-.49-.04-.54-.07-.04-.03-.37-.55-.37-.66s.13-.44.19-.47c.06-.03.16-.18.23-.1.08.07.59.43.79.59.19.17.31.16.54.11s.53-.29.53-.39.07-.63.07-.79-.09-1.03-.07-1.07c.02-.04.34-.72.43-.75.09-.03.63-.12.75-.12s1.08.2,1.17.16c.09-.04.23-.2.23-.27s-.08-.32-.21-.34c-.13-.02-.86.18-1.03.19s-.79.08-.8-.03c-.01-.11.3-1.02.33-1.07.03-.05.24-.81.36-.86.12-.05.52-.24.64-.2.11.04.2.05.24.25.04.2.16.71.25.75.09.04.37-.1.43-.17.06-.06.11-.33.03-.4s-.35-.33-.36-.42c0-.08.13-.19.21-.24.08-.05.79-.6.82-.64.03-.04.06-.3.24-.37.18-.07.38-.3.38-.35s-.08-.4-.08-.53.2-.56.28-.62c.08-.06.23-.16.37-.19.14-.03.99-.15,1.05-.2.06-.05.25-.5.27-.6.02-.1-.16-.48-.22-.48s-1.12-.25-1.17-.35c-.05-.1-.13-.2-.07-.34.06-.15.31-.47.43-.39.12.07.43.6.56.67.12.07.23.19.32.2.09.01.26.04.25-.07s-.2-.65-.03-.74c.17-.08.75-.35.82-.43.07-.07.05-.48.15-.54.1-.06.21-.05.28-.15.07-.09.26-.49.26-.56s-.02-.17-.08-.18c-.06-.01-.25.01-.42-.05-.17-.06-.71-.49-.63-.33.08.16.22.54.2.58-.02.04-.11.44-.11.44,0,0-.17-.12-.29-.15-.12-.02-.28-.03-.33,0-.05.03-.4.31-.5.32-.1.01-.87-.14-.94-.23-.07-.09-.14-.4-.16-.51-.02-.1.18-.82.21-.86.03-.04.53-.4.58-.39.05.01.3.1.42.07.12-.03.39-.37.45-.35.06.02.47.27.5.19.03-.08.09-.48.23-.45.14.03.6.08.62.23.02.15.09.52.16.55.07.03.19.07.26.01.07-.06.18-.22.18-.3s-.05-.5-.03-.57.09-.52.08-.55c0-.03-.09-.44-.07-.48s.1-.3.25-.26c.15.04.25.26.35.27s.39-.24.5-.31c.11-.07.45-.61.45-.61,0,0,.33-.69.33-.74s.07-.33.02-.38c-.05-.05-.11-.09-.17.05-.06.15-.28.61-.33.63-.05.02-.12.08-.25.06-.13-.02-1.47-.28-1.52-.34-.05-.06-.16-.22-.13-.35.03-.14.29-.76.37-.8.08-.04.37-.24.37-.35s0-.42-.09-.45c-.09-.03-.24-.25-.48-.17-.24.08-.46.24-.62.26-.15.02-.55-.11-.61-.14-.06-.02-.62-.4-.67-.5-.05-.09-.27-.52-.27-.59s-.04-.59-.01-.69c.03-.09.21-.58.31-.59s.31.09.37.17c.06.07.36.55.43.67.07.12.31.42.44.47s.38.07.48.07.28-.06.29-.12c.01-.06-.06-.38-.16-.46-.1-.07-1.09-.5-1.16-.58-.07-.08-.37-.51-.32-.52.05-.01.76-.49.81-.53.05-.04.49-.56.52-.62.03-.06.1-.34.02-.48-.08-.14-.21-.29-.27-.3-.06-.01-.11-.13-.22.04-.11.18-.32.71-.41.75-.09.04-.55.21-.75.29-.2.08-.53.1-.61.09-.07-.01-.23-.09-.32-.36-.09-.27-.2-.66-.18-.75s1.84-1.71,1.84-1.71c0,0-.05-.36-.16-.4-.11-.04-1.6-.26-1.68-.33-.07-.07-.22-.29-.19-.4.03-.11.11-.27.11-.36s-.06-.46-.06-.55.13-.42.17-.5c.04-.08.24-.47.37-.53.13-.06.77-.4.84-.46.07-.05.3-1.09.25-1.23-.05-.13-.2-1.04-.22-1.12-.02-.08-.26-.37-.34-.4-.08-.03-.31-.02-.38.08-.07.1-.25.24-.22.31.03.07.13.13.12.19s-.08-.01-.08.17.09.61.05.73-.13.27-.24.33c-.11.06-.31.17-.47.13-.16-.03-.47-.13-.57-.25-.09-.11-.27-.43-.24-.53.03-.1.23-.66.32-.83.09-.17.29-.36.39-.48.1-.11.2-.26.2-.26h-.09s-14.29-.24-14.29-.24l-16.39-.46L7.39.21.65,0l-.65,21.64v2.12s.26.03.31.08c.05.05.79,1.5.9,1.55s.23.04.27.08c.04.04.09.24.17.25s.37-.04.41,0c.04.04.06.12.03.18s-.14.25-.1.31.2.05.23,0c.03-.05.11-.09.14-.08.03.01.24-.06.22-.01-.02.05-.21.35-.06.42.15.06.34.22.32.25-.02.03-.12.18-.07.24.05.06.15.15.18.38.03.24-.02.53.08.59s.55.3.59.36c.04.06.06.12.06.2s-.08.16-.02.24c.06.08.26.03.2.17-.06.14-.21.43-.19.54.02.11.35.5.36.57.01.07-.04.39-.01.4.03.01.35.12.35.12,0,0-.27.72-.34.75-.07.03-.14-.03-.18,0-.04.03-.1.1-.05.15.05.04.19.25.18.32s-.06.12-.06.18-.07.6-.07.6c0,0-.15-.12-.2,0-.05.12-.15.25-.14.31.01.06.1.43.11.46.01.03.23.19.23.23s-.08.11-.03.24c.05.12.36.48.42.56.06.08.24.23.33.26.09.03.27.1.35.08s.2-.15.26-.11c.06.03.11.15.1.18-.01.03,0,.15.06.15s.47.04.44.09c-.03.05-.08.07-.08.12s-.08.07-.12.18c-.04.1-.22.25-.22.25,0,0-.27.04-.26.09.01.05.07.09.06.15-.01.05-.03.11-.01.16.02.04.27.35.34.37.07.02.47-.07.46,0-.01.07-.13.32-.1.33.03.01.31.03.26.14s-.24.32-.18.46c.06.13.18.19.28.26s.22.12.25.2c.03.07.06.35.07.42.01.06-.06.2-.03.24.03.04.18-.03.24,0,.06.03.38-.06.33.01-.05.07-.08.16-.19.22-.11.05-.31.16-.32.22-.01.06-.01.19-.06.23-.05.04-.16.11-.14.15.02.03.12.22.07.24-.05.02-.15.02-.19.09-.04.07-.2.19-.09.25.11.06.38.24.39.27.01.03.07.2.15.24.08.04.2.03.25.1s.03.19.09.22c.06.03.36.04.36.07s.1.26.09.29c-.01.03-.13.17-.11.23.02.06.02.26.08.3.06.04.2.09.24.1s.15-.03.13.08-.09.22-.12.36c-.03.15-.06.62.02.74s.17.19.24.22c.07.03.56-.37.66-.35.1.02.39.07.4.12.01.05-.08.15-.08.15,0,0-.13.04-.1.08.03.04.05.27.05.27,0,0-.19.1-.18.18.01.07.17.65.14.72-.03.06-.16.34-.18.37-.02.03-.21.13-.2.19.01.05.19.09.18.14-.01.04-.03.2.02.22.05.02.28.08.35.17.07.08.18.26.15.31-.03.05-.24.09-.19.14.05.04.17.08.16.19,0,.1,0,.19,0,.19,0,0,.27.18.21.19-.06.01-.39.24-.39.24,0,0-.12.14-.17.18-.05.04-.3.14-.36.1-.06-.03-.16-.19-.22-.09-.06.09-.14.24-.13.29.01.05.17.12.17.22s-.12.32-.07.35c.05.03.38.06.41.15.03.08.04.17.1.21.06.04.19.02.2.08.01.06.09.53.08.57-.01.04-.09.15-.16.18-.07.03-.17-.08-.21-.05-.04.03-.21.16-.2.25.01.09.18.27.1.33-.08.06-.28,0-.36.16-.08.16-.12.24-.07.3.05.06.26.15.25.25,0,.1.03.29-.02.36-.05.07-.21.1-.16.17.05.06.23.08.22.3-.01.22-.05.51-.16.57s-.36.13-.4.22c-.04.08-.11.22-.09.28s.05.11,0,.23c-.05.11-.1.22-.17.25-.07.03-.32.06-.32.14s.03.2.03.23-.13.16-.12.21c.01.05.1.2.1.2,0,0-.07.01-.08.11,0,.1-.2.97-.26,1.02-.06.05-.71.31-.78.43-.07.11-.48.59-.42.66.06.07.09.1.08.17-.01.06-.08.26-.06.32.02.06.2.26.13.35-.07.09-.14.14-.18.14s-.07-.19-.1-.12c-.03.06-.02.07-.1.12-.08.05-.22-.05-.25,0-.03.05-.04.12-.07.17s-.18.07-.2.15c-.02.07.05.18,0,.33-.05.16-.21.36-.21.45s.1.3.18.35c.08.05.22-.07.31.07.09.15.08.28.05.31-.03.03-.16.1-.13.16s0,.23,0,.23l.05.17s-.06.05-.06.11.19.42.19.42c0,0-.07.14-.05.18.02.04.12.32.11.37-.01.05-.07.18-.1.18s-.1-.07-.16,0c-.06.07-.1.12-.13.1-.03-.02-.11-.15-.14-.06-.03.08-.02.37-.08.36-.06-.01-.07-.07-.15.06s-.37.33-.38.44.06.67.06.67c0,0-.15.1-.18.21-.03.1-.06.38-.02.43.04.04.15.04.18.12.03.08.16.55.19.57.03.02.51.21.55.31.03.1.15.22.12.29-.03.07-.1.14-.07.2.03.06.05.76.05.76,0,0-.14.01-.14.08s-.18.44-.15.57c.03.14.18.59.22.65.04.06.12.09.1.2-.02.1-.14.48-.09.48s.2-.04.21,0c.01.04.09.25.09.25,0,0-.17-.01-.18.07-.01.08-.04.23-.04.23,0,0-.14.01-.11.11.03.1.13.15.06.18-.07.03-.27.17-.3.26-.03.09-.31.26-.24.32.07.06.55.54.46.59s-.19-.09-.28.06c-.09.16-.32.41-.34.46-.02.05-.07.29-.1.34-.03.05-.93.74-.97.84-.04.1-.35.79-.37.82-.02.03-.29.92-.32.99-.03.06-.33.56-.36.59-.03.03-.46.48-.49.5-.03.02-.81.45-.94.65-.13.21-.27.31-.28.45-.01.14-.04.26.03.36.07.1.6.38.6.54s-.03.45.03.5c.06.05.41.35.43.39.02.04.57,1.07.57,1.07l.44-.44s.29-.17.31-.2.61-.36.73-.39c.12-.03.86-.24.94-.25.08-.01,2.24-.19,2.28-.19s2.22-.18,2.36-.18,2.22.23,2.3.23.22.05.3.01c.08-.04.56-.23.59-.23s.75-.15.91-.15,1.57.16,1.81.21,1.99.65,2.11.69c.12.03,1.34.58,1.53.62s1.59.82,1.67.86c.07.04,2.05,1.08,2.1,1.11.05.03,1.69.77,1.75.81.06.04.58.26.89.36s1.54.36,1.63.38c.08.02,1.99.33,2.06.34.07.01,1.67.25,1.74.26.07.01,1,.32,1.15.32s.84.06.89.05c.05-.01.39-.18.5-.22.11-.04.69-.5.73-.51.04-.01.68-.26.68-.26,0,0,.7-.2.78-.2s.61.03.86.03.82.09.87.07c.05-.02.12-.17.09-.19-.03-.02-.51-.09-.51-.09,0,0-.06-.1,0-.16.06-.05.42-.32.58-.33s.55.03.55.03c0,0-.43-.46-.52-.4-.09.05-.52.26-.55.26s-.73-.03-.73,0,.09.21.09.21c0,0-.14-.02-.18-.06-.04-.04-.33-.53-.33-.58s-.04-.32-.04-.35-.18-.27-.18-.27c0,0,.34-.37.37-.38.03-.01.33-.14.33-.17v-.15s-1.25-.02-1.3-.06c-.05-.04-.67-.58-.67-.62s-.1-.56-.1-.59.19-.14.2-.1c.01.03.34.33.37.33s.22.02.22.02c0,0,.02-.09,0-.12s-.17-.16-.17-.16c0,0,.04-.13.07-.16.03-.02.09-.05.13-.02.04.03.2.21.2.21,0,0,0-.22.07-.26.07-.04.03-.07.14-.08.11-.01.19-.05.22.05.03.1.13.29.13.34s-.18.39-.21.42c-.03.02-.25.11-.25.11v.19h.17s.51-.48.62-.54,1.1-.65,1.19-.71c.09-.05,1.19-.37,1.22-.39.03-.02.14-.18.14-.21s-.2-.49-.11-.53c.09-.04.41-.25.41-.25l.35-.05.07.15-.05.1-.35-.12-.07.14s.5.28.57.29c.06.01.41-.03.41-.03,0,0,.19-.36.22-.37.03-.01.32-.07.35-.07s.12.01.18.04c.06.03.17.12.2.14.03.01.45-.04.49-.02.04.02.11.04.15.11.04.07.17.57.17.57l-.06.43s-.14.09-.17.09-.21-.12-.21-.16-.08-.46-.12-.39c-.04.06-.37.81-.41.85-.04.04-.15.06-.15.06,0,0-.04.32.01.32s.08-.06.16-.05c.08.01.27.18.28.22,0,.04.02.1-.01.16-.03.05-.4.28-.42.32-.02.04-.07.15-.02.15s.18-.01.26.03c.08.04.05.19.15.16.1-.03,1.74-.96,1.77-.96s.58-.06.64-.03c.06.03.34.26.41.24.07-.02.88-.15.91-.15s.57.04.62.05c.05.01.23-.08.25-.11s.05-.34.09-.32c.04.02.09.11.21.11s.26-.15.3-.12c.04.02.38.27.35.29-.03.02-.22.09-.27.09s-.25-.16-.25-.16c0,0-.23.03-.25.06-.02.03-.24,1.3-.23,1.37.01.07.04.35.04.35l-.21.67s-.37.12-.32.18c.05.05.51.2.6.18.08-.02.98-.23.98-.23l.31.16s.33,1.08.33,1.12-.03.36-.02.43c.01.06.23.28.2.34-.03.06-.48.72-.45.71.03-.01,1.57-.53,1.57-.53,0,0,.58-.02.61-.02s.16-.19.19-.2c.03-.01.11-.05.16-.02.05.03.14.19.14.22s-.02.18-.02.18c0,0-.27.18-.27.22s.04.06.07.16c.03.09.11.17.26.17s.93-.04,1.06,0c.13.04.19.24.19.24,0,0-.1.14-.07.16.03.02.02.1.14.11.12.01.47.09.5.05.03-.04.02-.22.06-.24.04-.02.32-.17.35-.17s.45-.12.48-.12.19.03.19.1-.12.23-.12.29,0,.33,0,.46c.01.12.08.61.16.65.08.04.22.01.26.06.04.05.1.12.21.16.11.03.25,0,.28.05s.19.34.18.41c0,.06-.29.39-.2.45.09.05.25,0,.29.07.04.07.1.46.12.49.02.03.92.44.92.44,0,0-.1.15,0,.18.1.03.36.07.36.14s.21.46.22.56c.01.1,0,.33,0,.38s.1.16.19.12c.09-.03.52-.24.52-.28s-.14-.23-.14-.23c0,0,.12-.17.14-.23.02-.06-.14-.37-.14-.42s.09-.12.14-.17c.05-.04.21-.12.3-.11.09.01.95.28.95.35s-.2.32-.2.32c0,0-.22-.15-.28-.11-.06.03-.16,0-.16.1s.05.55.08.55.31-.01.41-.05c.1-.04.4-.28.44-.29.04-.01.21-.04.21-.04l.08-.23.13.16.46-.33s.47.09.49.12c.02.03.02.24.06.28.04.04.17.03.17.03,0,0,.02.14,0,.22-.02.08-.18.18-.18.25s-.02.28.02.26c.04-.02.04-.17.17-.17s.78-.06.73-.02c-.05.04-.22.19-.22.19,0,0,.09.15-.04.16-.13.01-.63-.09-.64,0-.01.09-.09.34,0,.34h.32s.07.08.04.11c-.03.03-.14.06-.13.11.01.05.01.14.07.1.06-.03.39-.31.41-.28.02.03-.06.11.01.12.07.01.3-.05.28,0s-.07.23-.07.23c0,0,.18-.14.24-.11.06.02.12.16.14.11.02-.04.1-.24.11-.21.01.03.2.27.2.27l.13-.11.15-.43.12-.05.1.17s-.19.12-.18.16c.01.03-.02.27-.02.27,0,0-.16.09-.13.11.03.02.44.05.44.05,0,0,.1-.14.11-.09.01.04-.05.33,0,.33s.33-.02.26.05c-.07.07-.51.57-.55.57s-.16-.07-.13-.1c.03-.03.23-.22.24-.25,0-.03,0-.16,0-.16l-.45.08.04.19h-.2s-.04.29-.12.29h-.19l-.09-.2.22-.25s-.16,0-.19.01-.31.24-.34.24-.29-.04-.29-.04c0,0-.44.48-.48.53-.04.05-.26.44-.26.44,0,0,.48.47.51.47s.36-.06.37,0c.01.06-.1.28-.07.28s.18-.02.19.05c0,.07.03.26.07.26s.19.11.22,0,.01-.47.09-.47.34.06.41.03c.07-.03.27-.15.25-.19-.02-.04-.09-.24-.14-.28-.05-.04-.35-.25-.35-.25l.15-.1.07-.26s.26.46.29.48c.03.02.38.26.43.26s.41-.12.48-.12.32.03.32.09.01.1,0,.14c-.01.03-.33.23-.33.23,0,0-.18-.16-.21-.16s-.18-.01-.18.05-.11.46-.1.49c.01.03.09.11.09.11l.15-.19s.29-.05.31-.02c.02.03.12.43.14.46.02.03.14.11.14.11l.11-.04s-.07-.14-.05-.2c.02-.06.15-.26.21-.26s.1.22.13.22.11,0,.15-.08c.04-.08.03-.28.12-.32.09-.04.3-.17.31-.2.01-.03.02-.34.05-.36.03-.02.52.24.5.28-.02.04-.05.1-.08.1s-.1-.08-.2-.04c-.1.04-.24.15-.24.22s.04.43.04.43c0,0,.07.03.13,0,.06-.03.14-.29.14-.29l.27.05s.04-.27.05-.24c.01.03.07.16.12.18.05.02.13.09.12-.04,0-.13-.21-.46-.18-.49.03-.03.15-.17.13-.22-.02-.05-.24-.24-.25-.21-.01.03-.04.28-.07.28s-.14-.01-.14-.08.04-.27.03-.34c0-.07-.27-.46-.25-.49.02-.03.19-.17.25-.08.06.08.15.31.21.36.06.05.1,0,.12.04.02.04.08.18.08.21s.3.17.32.2c.02.03.25.65.25.65,0,0,.12.01.12-.03s-.49-1.46-.49-1.46c0,0,.04-.07.13.01.09.08.46.85.46.85,0,0,.06-.07.05-.18-.01-.1-.19-.39-.22-.45-.03-.05-.25-.42-.25-.42,0,0,.06-.1.08-.07.02.03.22.32.26.35.04.03.13-.07.08-.11-.05-.04-.15-.11-.17-.16s-.08-.32-.08-.32l-.2-.09-.08-.37s-.31-.2-.33-.26c-.02-.06-.19-.5-.19-.5,0,0,.11-.12.17-.01.06.11.27.4.33.44.06.03.37.02.38.07.01.05-.06.35-.02.43s.2.54.24.56.18-.02.15-.07-.2-.2-.2-.23-.12-.56-.02-.5c.1.06.26.19.29.26.03.07.18.49.21.53.03.04.12.07.12.07,0,0-.06-.29,0-.29s.25.18.25.18c0,0-.01-.15,0-.18.01-.03-.38-.52-.38-.52,0,0-.2,0-.25-.06s-.15-.22-.12-.26c.03-.04.2-.09.26-.01.06.08.43.38.43.38l.18-.31v-.31s.15-.24.12-.26c-.03-.02-.14-.11-.21-.09-.07.02-.19.09-.22.09s-.24-.11-.25-.18c0-.06.03-.64.05-.6.02.04.24.5.24.5l.14-.31s-.12-.17-.07-.18.2-.09.24-.07c.04.02.31.14.31.14,0,0-.06.13-.09.13s-.15-.04-.15,0,0,.18.02.22.61.29.64.26c.03-.03.13-.26.16-.23.03.03.22.33.22.33,0,0,.18-.04.18-.08s-.2-.43-.2-.43l.34-.07s.07-.16,0-.17c-.07-.01-.34-.09-.33-.18s.09-.32.09-.32c0,0,.14-.07.14-.1s-.18-.37-.18-.37c0,0,.05-.1.08-.1s.22,0,.23.04c0,.04-.04.15,0,.2.04.05.4.06.4.14s-.02.57-.04.65c-.02.08-.14.14-.12.21.02.07.1.34.1.37s.2.13.2.13c0,0,.31-.39.33-.47.02-.07.07-.2.08-.23,0-.03.16-.08.18-.14s.02-.24,0-.27c-.02-.03-.23-.22-.23-.26s-.03-.15,0-.16c.03-.01.42-.19.49-.15.07.04.14.25.13.28s-.15.32-.15.36.07.15.07.15c0,0,.19-.07.27-.05.08.02.4.21.43.29.03.08,0,.24,0,.29s-.14.12-.14.2-.04.23-.01.28c.03.05.33.72.4.76.07.04.18.01.17-.02,0-.03-.17-.32-.17-.32,0,0-.12-.05-.12-.09s.4-.47.4-.52v-.26l.32-.33s.16.15.19.15.18-.09.18-.09c0,0,.16.25.09.26-.07.01-.31-.02-.33.01-.02.03-.07.14-.04.17.03.03.16.17.16.17l.27-.09-.06.26.06.14.2-.11.23.39s-.06-.47,0-.42c.06.05.24.81.31.93.07.12.09.21.09.21,0,0,.16-.18.16-.23s-.17-.45-.17-.52.01-.31.08-.27c.07.04.47.26.48.3,0,.04.06.6.07.57.01-.03.15-.22.2-.23.05-.01.2-.02.17.05-.03.07.12.18,0,.22-.12.04-.35.14-.35.14,0,0-.04.24-.07.24s-.08-.08-.16-.06-.17.03-.15.08c.02.05.04.17.08.18.04.01.13-.04.15.01.02.05.04.46.04.46l-.24.04s-.04-.29-.08-.29-.05-.09-.08-.01c-.03.08-.03.34-.03.34,0,0,.04.08.1.1.06.02.22.03.22.03,0,0,.13.03.09.08-.04.05-.48.19-.48.22s.11.22.11.22c0,0-.05-.14.12-.15.17-.01.37-.05.39.02.02.07.16.19.1.21-.06.02-.31-.03-.34.01s-.12.12-.12.12l.53.09s.03.12.06.14c.03.01.16-.05.15.03,0,.08-.02.48-.05.48s-.18-.07-.21-.05c-.03.02-.11.02-.08.08.03.06.19.25.19.25l.21.05s.04.05-.08.07c-.12.02-.58.12-.61.15s-.14.05-.12.09.09.12.09.12c0,0,.41-.25.48-.25s.2.03.33.04c.13.01.25-.07.28-.1.03-.03.13-.19.16-.19s.16.02.16.02l.15-.17.27-.03-.15-.3s.12-.16.15-.11c.03.04.25.2.25.2l.06-.14s.22-.05.29-.09c.07-.04,1.62-1.38,1.62-1.38,0,0-.2-.01-.14-.11s.32-.62.32-.62l-.55.18s-.36-.09-.37-.12c-.01-.03-.22-.39-.15-.39s.51.05.47.04c-.04-.01-.41-.28-.41-.28,0,0,.05-.23.04-.26-.01-.03-.24-.39-.23-.43.01-.03.35-.19.31-.21-.04-.02-.46-.05-.48-.15s-.19-.58-.18-.61c.01-.03.06-.18.1-.15.04.03.32.31.32.31l.07-.06s-.11-.1-.07-.16c.04-.05.12-.18.12-.18,0,0-.38-.36-.3-.39.08-.03.2-.1.23-.09.03.01.22.18.22.21s.05.26.05.26l.23-.07.21.19s-.27.07-.26.14c.01.06-.03.23,0,.25.03.02.27-.03.27-.03,0,0,0-.18.03-.17.03.01.32.07.32.07v.22l.13.14s.15-.03.16-.09c.01-.06.08-.24.04-.3-.04-.06-.72-.77-.72-.8s0-.23.06-.21.42.28.42.28l.14-.97-.33.04-.07.34-.14.06v-.46s.14-.06.16-.1c.02-.04-.01-.17-.01-.17,0,0-.22-.2-.18-.22.04-.02.15,0,.15-.07s.03-.21-.02-.27c-.05-.06-.2-.37-.23-.37s-.3-.03-.3-.03l.38-.21s.19,0,.19.03,0,.22.03.3.24.31.24.31l.18-.13s.04-.2,0-.24c-.04-.04-.17-.03-.22-.1-.05-.07-.2-.51-.2-.51,0,0-.1-.04-.13,0-.03.04-.32.29-.32.29,0,0-.19-.01-.16-.07.03-.06.24-.26.2-.25-.04.01-.73.15-.73.15,0,0-.01.12-.06.11-.05-.01-.1.06-.16-.02-.06-.08-.09-.22-.16-.22h-.19l-.34-.53s-.01.18-.08.19c-.07.01-.22.08-.29.01-.07-.07-.24-.66-.31-.69-.07-.02-.45.01-.47-.06-.02-.07-.21-.21-.11-.22.1-.01.98-.03.94-.08-.04-.05-.08-.28-.18-.27-.1.01-.38.11-.47.1-.09-.01-.26-.04-.24-.14.02-.09.18-.55.26-.61.08-.06.2-.18.34-.21.14-.03.33,0,.39-.02.06-.02,0,.11.06-.02.06-.14.27-.54.23-.67-.04-.14-.29-.46-.29-.53s.11-.21.09-.29c-.02-.08-.25-.24-.25-.29s.05-.51.05-.51c0,0,.2.29.23.24.03-.05.09-.3.01-.34-.08-.04-.48-.06-.54-.11-.05-.05-.06-.11-.15-.12-.09-.01-.16.03-.16.03,0,0-.04-.2-.01-.2s1.15.07,1.14.23c-.01.16-.13.28-.13.35s.07.29.08.34c.01.05-.1.64-.09.67.01.03.18.18.16.24-.02.06-.07.64-.07.64l.37-.14s.1-.45.1-.48-.11-.3-.11-.3c0,0,.13-.3.13-.34s-.1-.16-.1-.23.05-.36.11-.36.18-.02.18.01-.11.12-.09.19.16.31.16.39-.15.56-.15.56c0,0,.06.02.06.08s-.25.64-.26.7c0,.05-.33.07-.42.12-.09.05-.32.28-.31.34.01.06.18.15.18.19s-.04.28-.03.34c.01.06.19.42.22.44.03.02.41,0,.41,0l.04-.15s-.22.01-.24-.08c-.02-.09-.06-.26-.06-.26,0,0,.1-.13.13-.13s.43-.05.43-.05l.03.09s-.11-.02-.08.05.21.31.25.33c.04.02.31.02.31-.01s-.16-.24-.16-.24c0,0,.17-.09.27-.05.1.04.37.22.37.22,0,0-.3.08-.29.14,0,.05.15.23.23.28.08.05.49.18.52.21.03.03.14.2.14.2,0,0,.2-.1.23-.05.03.05.09.26.15.29.06.03.4.09.45.09s.14-.02.1-.06c-.04-.04-.4-.22-.42-.31-.02-.09-.12-.39-.12-.46s-.01-.15.06-.11c.07.03.24-.02.25.1,0,.12.04.27.08.32.04.05.35.22.39.25.04.03.21.16.19.19-.02.03-.1.04-.1.07s-.01.09-.01.09c0,0,.28.12.23.12s-.65-.07-.61-.01c.04.06.08.18.16.21.08.03.59.09.65.09s.56-.1.56-.1v-.11s-.28.06-.26.03c.02-.03.18-.12.1-.18-.08-.05-.26.09-.2-.09.06-.19.19-.73.24-.73s.13-.03.12.1c-.01.14-.06.43-.06.43,0,0,.19-.18.19-.12s.01.42,0,.4c-.01-.01.39-.32.42-.32s.11.03.09.09-.24.13-.24.18.01.16.06.15c.05-.01.57-.29.57-.29,0,0,.09.07.21.14.12.06.44.12.49.14.05.01.28.44.28.49s.01.07-.1,0-.19-.13-.26-.08c-.07.05-.12.35-.12.35,0,0,.22-.03.18.02-.04.05-.27.23-.22.26.05.03.11.1.11.1,0,0,.27-.3.34-.24.07.06.1.15.07.18-.03.03-.2.09-.16.14.04.04.08.17.08.17,0,0-.26.05-.28.16-.02.1-.09.18.04.17.13-.01.16.02.28-.02.12-.04.52-.3.52-.3l.28-.08-.28.75s.07.09.12.07c.05-.02.31-.61.31-.48s.04.71.04.71c0,0,.12-.05.14.04.02.09-.08.46-.11.44s-.14-.23-.14-.23c0,0-.11.05-.09.13.02.08.13.24.04.3-.09.06-.37.09-.38.16-.01.06-.15.3-.15.3,0,0-.44.05-.44.08s-.1.11-.07.12c.03.01,1.73.12,1.73.12v-.1s-.17-.08-.14-.11c.03-.03.21-.07.25-.06.04.01.11.02.1.08s-.11.18-.07.2c.04.02,1,.22,1,.22l.12-.37s.1.12.1.09.34-.48.42-.5c.08-.02.13-.04.18.01.05.05.1.18.18.15.08-.03.28-.04.27-.15,0-.1-.14-.58-.14-.58l-.12-.08s-.02.26-.05.24c-.03-.02-.24-.39-.24-.39,0,0-.17,0-.12-.04.05-.04.09-.14.03-.14s-.36-.03-.36-.03c0,0-.03-.15.02-.17.05-.02.26-.17.29-.11.03.05.15.27.15.27l.19.08s-.14-.54-.16-.59c-.02-.05-.3-.28-.3-.28,0,0-.14.02-.06.07.08.05.19.19.15.24-.04.05-.26.14-.26.14,0,0,0-.73-.02-.76-.02-.03-.34-.53-.43-.57-.09-.04-.19-.02-.23-.08s0-.25-.06-.21c-.06.04-.23.2-.24.17-.01-.03-.08-.25-.12-.23-.04.02-.14.21-.15.11-.01-.09-.11-.29-.08-.31.03-.02.18-.08.21-.07.03.01.26.09.26.09l.02-.09s.1-.06.14-.01c.04.05.17.07.19.16.02.08.14.47.22.52.08.05.44.23.44.26s-.17.11-.16.15c.01.03.19.26.19.26,0,0,.09-.01.2.08.11.09.18.16.22.23.04.07.26.18.34.2s.26.08.27.19-.2.7-.19.73c.01.03.07,0,.09.1.02.1-.03.59-.04.62-.01.03-.71.62-.71.62l.12.17s.13-.07.19-.08c.06-.01.24.03.28.07.04.04.12.26.12.26,0,0-.26-.08-.26,0s.03.31.03.31c0,0-.64-.53-.7-.57-.06-.04-.2-.09-.2-.06s.03.12.1.19c.07.06,1.03.74,1.12.74s.66.14.66.14c0,0,.1-.15.16-.11.06.03.2.16.26.19.06.03,1.04.43,1.04.43,0,0,.09-.26,0-.29-.09-.03-.38-.02-.36-.08.02-.06.02-.16.09-.19.07-.03.19-.19.24-.09.05.09.17.28.16.25,0-.03.19-.24.23-.24s.32-.1.32-.04.04.24,0,.27c-.04.03-.07.08-.1.05-.03-.03-.08-.28-.16-.19-.08.09-.17.24-.17.31s.07.24.07.24h-.22s.2.15.2.15c0,0,.02-.18.09-.06.07.11,1.11,1.74,1.14,1.73.03-.01.4-.11.43-.11s.1.01.1.06-.12.19-.12.19c0,0-.06-.01-.1.03-.04.04-.07.01-.05.22.02.21.08.85.08.85,0,0,.18-.14.19-.11.01.02.01.07.05.08.04.01.16.06.2-.01.04-.07.37-.78.37-.78,0,0,.17-.15.17-.1s-.49.93-.43.97c.06.03.3.12.3.06s0-.39.03-.45c.03-.05.21-.24.24-.22.03.02.05.1.04.14-.01.03-.11.14-.09.17.02.03.15,0,.09.08s-.21.42-.13.38c.08-.03.25-.21.25-.28s-.01-.27.08-.32c.09-.05.37-.23.34-.27s-.1-.05-.16-.21c-.06-.16-.05-.52-.05-.55s-.17-.31-.17-.31c0,0,.21-.04.21-.07s-.11-.38-.08-.38.52.18.46.29-.11.37-.09.44.12.24.1.28c-.03.04-.14.41-.14.41,0,0,.22.05.23.01.01-.04-.07-.17-.06-.22,0-.05.13-.62.13-.62,0,0,.04.1.12.05.08-.05.13-.16.18-.1.05.05.24.31.24.31v.42s-.12.1-.17.05c-.05-.05-.17-.24-.17-.18s-.07.08-.03.11c.04.03.1.2.1.2,0,0-.16-.01-.15.07.01.08.05.39.05.49s-.16.34-.26.4c-.1.06-.12.01-.17.11-.05.1-.1.51-.17.45-.07-.06-.63-.33-.63-.33l.1.23s.24.02.24.05.02.21-.02.31c-.04.1-.2.48-.25.55-.05.07-.36.55-.45.63-.09.08-.59.38-.59.38l.08.26s-.2-.16-.2-.12.07.08.04.12c-.03.04-.07.04-.08.09-.01.05.09.15.05.23-.04.08-.27.4-.26.44.01.03.04.15.1.16s.1.04.19,0c.09-.04.66-.69.73-.76.07-.07.85-1.31.85-1.31l-.31.2s0-.1.03-.17c.03-.06.41-.7.51-.75s.65-.33.77-.35c.12-.02.36-.06.36-.06,0,0,.14-.22.13-.25,0-.03.03-.27-.07-.38-.1-.11-.31-.16-.26-.23.05-.07.21-.38.21-.38l.17.1s-.01-.1.04-.07c.05.03.2.24.19.32-.01.08-.13.17-.04.27s.3.2.35.27c.05.07.25.64.31.72.06.07.28.16.31.24.03.08.13.3.13.3,0,0,.17.03.14.05-.03.02-.08.11-.05.12.03.01.34-.02.32.02-.02.04-.09.06,0,.11.09.05.26.18.26.21s-.05.3-.04.35c0,.05.06.04.1-.03.04-.07.18-.23.11-.33-.07-.1-.45-.63-.45-.63,0,0,.01-.14-.03-.18-.04-.04-.14-.05-.17-.1-.03-.05-.1-.21-.07-.21s.28.24.31.16c.03-.08.06-.28.12-.26.06.02.16.07.16.07l.05-.14-.13-.16-.05-.09.28.02-.22-.2s.45.01.49-.03.29-.51.29-.51l-.13-.19-.02-.2s-.42.15-.4.11c.02-.03.23-.32.23-.32,0,0-.24-.03-.28-.06s-.31-.43-.31-.43c0,0,.81.4.82.44.01.03.32.74.33.82.01.08,0,.39,0,.39l.31-.08s-.43-.83-.43-.86-.09-.28-.04-.3c.05-.02.32.17.42.28.1.11.27.4.27.48s-.07.16-.07.16c0,0,.05.18.07.2.02.02.05.07.08.07s.1-.07.11-.19c.01-.11,0-.62,0-.62l.15.07.22-.29-.19.02s-.09-.16-.06-.17c.03-.01.33-.11.35-.15Z"/>
      <path class="cls-1" d="M92.45,85.82s-.02-.05-.02-.05l.02.05Z"/>
      <polygon class="cls-1" points="87.16 66.98 87.08 66.87 87 67.09 87.16 66.98"/>
      <path class="cls-1" d="M87.93,67.53s.18-.1.18-.21-.18-.34-.18-.34c0,0,0,.14-.12.11s-.3,0-.3,0c.02.09.21.14.16.24-.05.1-.12.19-.08.21.05.02.3.03.33,0Z"/>
      <path class="cls-1" d="M86.96,68.51s.19.09.2.05c.01-.04.07-.12,0-.17-.07-.04-.16-.04-.16-.04,0,0-.06.12-.04.16Z"/>
      <path class="cls-1" d="M86.87,68.69s-.22.2-.24.46c-.02.26.11.5.12.52.01.02.19.08.25,0,.06-.08.22-.26.27-.35.05-.09-.02-.32,0-.36s-.4-.26-.4-.26Z"/>
      <path class="cls-1" d="M89.08,69.3l-.3-.09s-.45.06-.45.11.4.1.39.17c-.01.06.07.14.06.17-.01.03.2.16.23.12.03-.03-.02-.09,0-.18.02-.08-.09-.11-.05-.18.04-.06.12-.12.12-.12Z"/>
      <path class="cls-1" d="M88.32,69.98s-.01.03,0,.17.29.42.29.42c0,0,.12-.04.09-.15-.04-.1-.38-.44-.38-.44Z"/>
      <path class="cls-1" d="M88.83,70.27c-.01.07-.06.18,0,.18s.64-.02.63-.07c-.01-.05-.1-.16-.14-.19-.04-.03-.32-.1-.32-.1,0,0-.15.11-.16.19Z"/>
      <path class="cls-1" d="M90.23,69.2c-.01-.06-.24-.16-.24-.16-.08,0-.52.16-.52.16v.11s.21-.07.21,0-.13.07-.01.17c.12.11.22.22.22.22,0,0,.19-.08.19-.15s-.16-.23-.16-.23c0,0,.32-.07.31-.13Z"/>
      <path class="cls-1" d="M91.41,68.02c.08-.09.11-.3.09-.34-.02-.04-.25-.04-.31,0-.06.04-.12.03-.12.09s.1.12,0,.16c-.09.03-.29.06-.29.06,0,0,.25.1.12.11-.13.01-.29-.08-.31-.02-.02.06-.08.12-.03.17.05.04.34.17.32.21s-.2-.03-.24.06c-.04.08-.01.38-.01.38,0,0-.23-.2-.23-.26s-.05-.25-.05-.25c0,0-.34.48-.28.5.06.02.45.16.45.16l.11.44s.14-.08.14-.11-.05-.29-.05-.29c0,0,.11-.06.16-.04.05.02.08.07.07-.11,0-.18-.04-.32,0-.37.04-.04.15-.14.17-.18.02-.04.09.13.11.07.02-.06-.2-.27-.11-.33.09-.06.2-.02.28-.11Z"/>
      <path class="cls-1" d="M92.17,68.79c-.01.08.03.29-.02.33-.05.04-.17.19-.2.19s-.15-.03-.15-.1-.06-.51-.06-.51l-.23.19s.04-.32.08-.37c.04-.05.14-.08.15-.16.01-.07-.03-.21-.03-.21,0,0-.17.06-.21.09-.04.03-.08.61-.12.6-.04-.01-.17-.22-.17-.22,0,0-.05-.02-.05.07v.25s.32.16.34.22c.02.06-.03.18,0,.27.03.09.21.42.21.42,0,0,.16.05.15,0-.01-.05-.1-.19-.08-.24.02-.05.18-.17.18-.17l.13-.06-.1.27s.36.06.4-.06c.04-.12.15-.36.1-.38-.05-.02-.12-.11-.1-.16.02-.04.11-.21.11-.23,0-.02-.34-.11-.35-.03Z"/>
      <path class="cls-1" d="M91.96,68.35c0,.06.03.11.1.11.07,0,.1-.16.1-.16,0,0-.1.02-.13,0-.03-.02-.08-.01-.07.05Z"/>
      <path class="cls-1" d="M91.89,68.61c-.02.09-.05.28-.05.28,0,0,.18-.18.19-.2.01-.02-.06-.08-.06-.08,0,0-.05-.09-.07,0Z"/>
      <path class="cls-1" d="M92.65,69.01c.01.05.19.13.22.12.03-.01.09-.12.09-.12l-.23-.07s-.09.02-.08.07Z"/>
      <path class="cls-1" d="M92.65,69.63s-.08.18,0,.15c.08-.03.24-.12.24-.2v-.2s-.22.22-.24.25Z"/>
      <path class="cls-1" d="M90.91,69.78c.05-.02.25-.19.25-.25s-.05-.16-.05-.16c0,0-.24.24-.24.28s-.01.14.04.12Z"/>
      <polygon class="cls-1" points="90.51 69.51 90.29 69.43 90.34 69.58 90.51 69.51"/>
      <polygon class="cls-1" points="90.23 69.87 90.18 69.71 90.06 69.82 90.23 69.87"/>
      <path class="cls-1" d="M92.51,66.78s-.06-.16-.06-.16c-.03.06-.28.57-.24.56.04-.01.24-.16.24-.16,0,0,.17.09.16.05,0-.04.14-.3.14-.3,0,0-.1-.07-.14-.03-.04.04-.09.06-.1.03Z"/>
      <path class="cls-1" d="M93.01,66.63s0-.11,0-.11l-.21.06s.17.03.21.05Z"/>
      <path class="cls-1" d="M93.16,67.74s-.08-.19-.08-.19l-.12.14s.2.08.2.05Z"/>
      <path class="cls-1" d="M92.02,67.6s.19-.11.18-.17c-.02-.06-.12-.17-.12-.17h-.12s.01.34.06.34Z"/>
      <path class="cls-1" d="M91.84,67.65s.05-.21.05-.21h-.12s-.09.2-.07.21c.02.01.13.03.14,0Z"/>
      <path class="cls-1" d="M89.84,70.23l.13.28s.18.01.17-.06c-.02-.07-.19-.22-.19-.22h-.11Z"/>
      <path class="cls-1" d="M89.61,71.15s.23-.03.23-.07c0-.04-.13-.56-.13-.56l-.11.2.06.16s-.15.02-.15.05.1.23.1.23Z"/>
      <path class="cls-1" d="M89.22,71.81s.28-.35.24-.42c-.04-.06-.24-.49-.24-.49-.03,0-.14-.07-.14,0s.06.38.07.43c.01.04-.07.12-.07.17s.14.31.14.31Z"/>
      <path class="cls-1" d="M91.84,70.45c.03.05.23.11.23.11l.14-.19s.17.06.18,0c.01-.06.05-.1,0-.14-.05-.04-.39-.25-.39-.25,0,0-.19.42-.16.47Z"/>
      <path class="cls-1" d="M90.97,70.37c.06,0,.13-.1.13-.1l-.13-.04s-.05.14-.05.14c0,0,0,0,.05,0Z"/>
      <path class="cls-1" d="M90.55,70.67s.11-.07.13-.1c.02-.03-.05-.19-.05-.19-.04,0-.16,0-.16.08s.07.22.08.22Z"/>
      <polygon class="cls-1" points="90.18 71.43 90.35 71.15 90.23 71.09 90.14 71.26 90.18 71.43"/>
      <polygon class="cls-1" points="89.92 71.74 90.06 71.64 89.99 71.54 89.84 71.6 89.92 71.74"/>
      <path class="cls-1" d="M89.55,72.05s-.04-.1-.04-.1c0,0-.15.02-.16.05,0,.03-.13.25-.08.28.05.03.24.08.24.05s-.08-.17-.05-.19c.03-.02.09-.06.09-.09Z"/>
      <path class="cls-1" d="M89.95,71.37l-.27-.11s.09.23.09.23l.19-.11Z"/>
      <path class="cls-1" d="M88.07,72.07c.09-.01.15-.12.15-.12l-.15-.07-.09.12s0,.08.09.07Z"/>
      <path class="cls-1" d="M88.4,72.07s.02,0,.02,0c0,0-.02,0-.02,0Z"/>
      <path class="cls-1" d="M88.42,72.07s0,.02-.02.07c-.06.1-.18.21-.18.2s-.02.1.05.1.44-.1.44-.1l.05-.14s.16.09.16.05-.11-.2-.11-.2c-.09,0-.33.02-.38.03Z"/>
      <path class="cls-1" d="M88.8,72.44c-.05.05-.19.27-.19.27,0,0-.21-.15-.21-.15v.27l.3.22s.61-.3.56-.35c-.05-.05-.23-.26-.23-.26-.03-.02-.17-.05-.22,0Z"/>
      <path class="cls-1" d="M91.25,70.92c.07-.03.18-.19.21-.23.03-.04,0-.24,0-.24l-.29.38s.01.12.08.09Z"/>
      <polygon class="cls-1" points="91.96 70.98 91.93 70.76 91.84 70.87 91.96 70.98"/>
      <path class="cls-1" d="M91.47,71.15l.03-.17s-.21.09-.24.11c-.03.02-.1.17-.1.17l.31-.11Z"/>
      <path class="cls-1" d="M91.11,70.56l-.18.12s-.09.16-.14.24c-.05.08-.11.16-.17.17-.06.01.03.23-.03.33-.07.1-.43.81-.43.81,0,0,.15.04.14,0,0-.04.28-.38.29-.43.01-.05.27-.27.3-.27s-.1-.27-.09-.28c.01-.01.11-.08.14-.11.03-.03-.02-.24.04-.32.06-.08.14-.26.14-.26Z"/>
      <path class="cls-1" d="M91.11,71.58c.05.01.38.07.37,0-.01-.07.36-.25.36-.32,0-.07-.14-.28-.14-.28,0,.07-.64.59-.59.6Z"/>
      <path class="cls-1" d="M92.27,71.26s.25.23.25.23l-.1-.23s-.15-.04-.15,0Z"/>
      <path class="cls-1" d="M92.89,71.37v-.11s-.14.08-.14.08v.15l.14-.11Z"/>
      <path class="cls-1" d="M92.12,71.87l.14-.12-.14-.12s0,.23,0,.23Z"/>
      <path class="cls-1" d="M91.47,71.64v.12h-.15s.12.24.02.19-.2-.21-.32-.14c-.12.07-.3.14-.39.26-.09.12-.16.19-.16.19l.31.08s.16-.16.33-.2c.17-.04.61-.01.65,0,.04.01-.12-.26-.09-.33.03-.07.09-.19.09-.19-.03-.03-.29.02-.29.02Z"/>
      <path class="cls-1" d="M92.02,72.98l.49-.04s.14-.1.1-.16c-.04-.05-.34-.05-.34-.05l-.24.25Z"/>
      <path class="cls-1" d="M91.28,72.44c.05-.01.12-.15.1-.16-.02-.01-.28,0-.28,0,.03.04.12.17.17.16Z"/>
      <path class="cls-1" d="M89.95,72.5s.19-.08.19-.08l-.08-.17s-.17.07-.16.1c.01.03.03.16.06.16Z"/>
      <path class="cls-1" d="M90.06,72.74s.45-.18.45-.18l-.11-.19c-.05.03-.33.13-.34.19-.01.06-.04.2,0,.18Z"/>
      <path class="cls-1" d="M90.51,72.9l.11-.1.06-.24s-.23.12-.22.19c.01.07.04.16.04.16Z"/>
      <path class="cls-1" d="M89.81,72.68s-.07-.1-.14-.13c-.07-.03-.21-.06-.21-.06-.03.09-.15.52-.12.56s.33-.07.33-.07c0,0-.21-.09-.13-.12.08-.03.26-.18.26-.18Z"/>
      <polygon class="cls-1" points="90.02 72.9 89.81 73.11 90.02 73.06 90.02 72.9"/>
      <path class="cls-1" d="M90.27,73.28c.11,0,.27.06.3,0,.03-.06.13-.18.05-.18s-.35.04-.35.04c0,0-.11.13,0,.13Z"/>
      <path class="cls-1" d="M90.78,73.21c0,.08,0,.13.09.16.08.03.25-.06.25-.06,0,0,.13-.04.05-.12s-.24-.19-.24-.19c0,0-.14.12-.14.21Z"/>
      <path class="cls-1" d="M91.24,73.44c.01.16.09.2.09.2l.13-.33s.13.04.19-.02c.06-.07.02-.3,0-.31-.02-.01-.08,0-.16.02-.08.02-.26-.06-.26-.06.03.03,0,.17,0,.17,0,0,.15.04.14.1-.01.06-.15.07-.14.23Z"/>
      <path class="cls-1" d="M89.18,73.49c.16-.01.44,0,.5-.06.06-.06-.04-.23-.1-.22-.06.01-.33.16-.37.1-.04-.06-.08-.25-.08-.25,0,0-.31.05-.3.12,0,.07,0,.18,0,.23,0,.05-.27.11-.27.11,0,0-.36-.17-.35-.07,0,.09.13.25.18.27.05.02.37.14.28.2-.09.06-.35.11-.28.17.07.05.11.23.11.23l-.19.22.31-.09s0-.15.07-.12c.07.02.13.07.13.07,0,0-.05-.21,0-.22.05-.01.63-.23.63-.23l-.06-.07s-.32.08-.33.05c-.01-.03.39-.34.27-.29-.13.05-.4.05-.37,0,.03-.05.04-.14.2-.15Z"/>
      <path class="cls-1" d="M89.84,74.42s.3.07.3.07v.21s.04-.08.08-.05c.04.03.18.09.18.05s.12-.08.04-.16c-.08-.07-.41-.37-.38-.47.03-.09.02-.16-.06-.21-.09-.05-.41-.19-.41-.19,0,0,.06.18.1.22.04.04.15.1.17.16.02.05-.03.32,0,.36Z"/>
      <path class="cls-1" d="M90.78,73.92s.18,0,.23,0,.13-.37-.03-.37-.55-.13-.59-.1c-.04.03-.14.26-.18.2-.04-.06-.03-.24-.08-.2-.05.04-.33.11-.33.11,0,0,.36.28.43.26.07-.02.16-.18.19-.17.04.01.37.05.34.1-.03.05,0,.17,0,.18Z"/>
      <path class="cls-1" d="M89.2,74.42c-.14.07-.84.29-.84.29.04,0,.71.13.77.13s.36.04.38,0c.02-.04-.03-.12.04-.13.07-.01.14,0,.14,0,0,0,.01-.12-.11-.17-.13-.05-.24-.2-.38-.12Z"/>
      <path class="cls-1" d="M90.51,74.24s-.16-.32-.16-.32v.38s.13-.03.16-.06Z"/>
      <path class="cls-1" d="M91.69,74.54v-.2c-.06,0-.22.04-.27.05-.05,0-.1.14-.1.14h.37Z"/>
      <path class="cls-1" d="M90.99,75.03s0-.2-.07-.17c-.07.03-.42.07-.41.18,0,.1.13.46.06.42-.07-.04-.06-.16-.15-.16s-.37.02-.41-.03c-.04-.05-.13-.2-.21-.21-.08-.01-.41-.03-.41-.03,0,0,.61.62.74.63s.36-.03.37,0c.01.03,0,.14.11.15.12.01.25.12.25.12l-.09-.31s0-.16,0-.21-.13-.24-.1-.25c.04-.01.3-.13.3-.13Z"/>
      <path class="cls-1" d="M87.47,75.18c.06.01.17-.01.23,0,.06.01.17,0,.09-.06-.08-.05-.39-.06-.39-.06,0,0,.01.11.07.12Z"/>
      <path class="cls-1" d="M90.22,75.82c.03.05.17.2.22.22.05.02.17.04.18,0,.02-.04.09-.05-.05-.1-.14-.05-.35-.11-.35-.11Z"/>
      <path class="cls-1" d="M89.34,76.19l-.2.04s.18.29.26.31c.08.02.17,0,.17,0,0,0,.13-.12.05-.15-.08-.04-.23-.1-.23-.1l-.06-.1Z"/>
      <path class="cls-1" d="M91.12,76.25s-.07.25,0,.3c.07.05.14.1.2.13.06.02.21.07.15,0-.06-.07-.22-.49-.22-.49l-.12.06Z"/>
      <path class="cls-1" d="M87.82,76.3c.05.04.23.25.27.26.04.01.12-.1.12-.1,0,0-.06.06-.12-.08-.06-.14-.22-.52-.27-.62-.06-.09.01-.32-.21-.36-.22-.04-.82-.27-.82-.27,0,.04.14.09.08.16-.06.07-.18.07-.21.18-.03.1.01.23,0,.26,0,.03.06.06.11.09.04.03.03.76.16.74.13-.02.51-.36.51-.36,0,0,.03-.09-.05-.09s-.28.05-.28.02.19-.37.19-.37c0,0,.02.12.09.15.07.02.45.16.42.17-.03,0-.05.19,0,.24Z"/>
      <path class="cls-1" d="M86.28,75.71s.16.13.19.13c.03,0,.03-.09,0-.13-.03-.03-.19,0-.19,0Z"/>
      <path class="cls-1" d="M86.34,76.19l.31-.13-.06-.13s-.21.12-.21.12l-.05.13Z"/>
      <path class="cls-1" d="M86.69,76.37c-.06,0-.31-.09-.31-.09,0,0-.03-.01,0,.09.03.1.31.52.38.55.07.02.17-.11.14-.2-.03-.09-.15-.35-.21-.34Z"/>
      <path class="cls-1" d="M88.05,77.88l.11-.1s-.18-.01-.18-.12-.01-.27-.04-.31c-.03-.04-.16-.14-.11-.15.04-.01.22.1.23.07.01-.03-.06-.55-.06-.55-.03.04-.09.32-.12.27-.03-.04.05-.16-.09-.13-.14.02-.6-.06-.68,0-.08.06-.11.21-.06.3.05.09.12.13.12.13h.11s-.01.09.03.16c.04.06.1,0,.13.18.03.18.02.57.07.57s.29-.1.26-.23c-.02-.12-.28-.39-.16-.35.12.04.44.27.44.27Z"/>
      <path class="cls-1" d="M88.61,77.52s.06.16.09.16.16-.09.13-.11c-.03-.02-.13-.11-.13-.11,0,0-.1.02-.09.06Z"/>
      <path class="cls-1" d="M87.61,78.42c.05.03.08.1.21.1s.23-.13.23-.13l-.23-.13s-.26.12-.21.16Z"/>
      <path class="cls-1" d="M87.24,78.85l.1-.09-.1-.09s0,.19,0,.19Z"/>
      <path class="cls-1" d="M87.51,78.61v-.17s-.21.06-.17.08c.04.02.17.08.17.08Z"/>
      <path class="cls-1" d="M85.03,76.55c-.01.14.06.37.06.37,0,0,.12-.06.12-.1s-.06-.37-.06-.37c0,0-.1-.03-.11.1Z"/>
      <path class="cls-1" d="M84.74,76.96l.11-.18-.11-.1s-.27.3-.2.31c.07.01.2-.03.2-.03Z"/>
      <path class="cls-1" d="M84.35,76.99v-.15s-.13.03-.1.08c.03.05.1.07.1.07Z"/>
      <path class="cls-1" d="M85.4,76.99c.04.06.14.09.14.09l.09-.25h-.13s-.14.09-.1.15Z"/>
      <path class="cls-1" d="M86.28,76.77v-.09l-.11-.13c-.12.03-.47.11-.46.16s.18.28.18.28c0,0-.05-.24,0-.22.05.02.39,0,.39,0Z"/>
      <path class="cls-1" d="M86.12,77.57s.52.05.52.05c0,0,.14-.18.01-.26-.13-.08-.3-.13-.26-.17.03-.03-.02-.23-.02-.23,0,0-.15-.1-.15-.04s.17.25.06.27c-.11.02-.23.01-.21.05.02.04.1.08.09.12-.01.04-.07.21-.04.2Z"/>
      <path class="cls-1" d="M85.56,77.15s-.04.05-.05.11c-.01.07.05.12.05.12v-.23Z"/>
      <path class="cls-1" d="M86.12,78.02c.16.02.44.07.42,0-.02-.07.03-.11-.09-.2-.12-.08-.47-.28-.57-.26-.09.03-.32.11-.32.11.1.02.38.03.43.07.05.04.15.1.13.16-.02.05-.16.09,0,.11Z"/>
      <path class="cls-1" d="M84.12,78.53c.02.05.23.23.31.23s.05-.04.13-.05.34-.04.34-.04c0,0,.13-.11,0-.14-.13-.02-.71-.08-.71-.08-.03.04-.1.03-.08.08Z"/>
      <path class="cls-1" d="M85.39,78.71v.14s.12.1.14.04.03-.16,0-.18c-.03-.02-.14,0-.14,0Z"/>
      <polygon class="cls-1" points="85.03 79.07 84.85 78.91 84.68 78.98 85.03 79.07"/>
      <path class="cls-1" d="M83.59,79.62s.18,0,.18,0c0,0,.03-.22,0-.22h-.18c-.03.06-.02.21,0,.22Z"/>
      <path class="cls-1" d="M84.47,79.51c.05.03.38,0,.38,0,0,0,.06-.07,0-.11-.07-.04-.32-.05-.32-.05,0,0-.1.13-.05.16Z"/>
      <path class="cls-1" d="M85.26,79.47h-.23s0,.21,0,.21l.23-.21Z"/>
      <polygon class="cls-1" points="85.54 79.58 85.63 79.47 85.54 79.35 85.48 79.44 85.54 79.58"/>
      <polygon class="cls-1" points="83.68 79.98 83.92 79.89 83.68 79.76 83.58 79.81 83.68 79.98"/>
      <path class="cls-1" d="M83.3,79.87c-.05.04-.2-.02-.25,0-.05.02-.15,0-.15,0-.05,0-.15.08-.12.11s.38.27.44.3c.06.03.46.06.57.05.11-.01.18-.11.18-.15s-.1-.12-.18-.14c-.07-.01-.43.06-.49.05-.06,0-.22-.05-.19-.07s.24-.2.19-.16Z"/>
      <path class="cls-1" d="M84.16,79.87s.3,0,.3,0c0,0,.04.03.12.11.07.08.12.05.11-.04,0-.09-.16-.32-.16-.32l-.41.14s.01.11.04.1Z"/>
      <path class="cls-1" d="M84.8,80.1s.17.03.17,0c0-.03-.08-.12-.08-.12,0,0-.12.09-.08.12Z"/>
      <polygon class="cls-1" points="84.67 80.4 84.52 80.2 84.04 80.49 84.67 80.4"/>
      <polygon class="cls-1" points="85.26 80.34 85.39 80.2 85.26 80.1 85.14 80.29 85.26 80.34"/>
      <polygon class="cls-1" points="86.18 80.13 85.9 80.13 86.13 80.22 86.18 80.13"/>
      <path class="cls-1" d="M83.58,80.88c.07.04.27.07.26,0-.01-.07-.15-.21-.15-.21-.06.01-.18.17-.11.21Z"/>
      <polygon class="cls-1" points="84.25 80.77 83.97 80.68 84.12 80.86 84.25 80.77"/>
      <path class="cls-1" d="M83.42,81.37s.3.13.32.1c.02-.03.04-.35.04-.35h-.11s-.29.23-.26.25Z"/>
      <path class="cls-1" d="M84.04,81.67s.26,0,.26,0l-.12-.15s-.16.14-.14.15Z"/>
      <path class="cls-1" d="M84.46,81.3c-.02.07-.14.07-.06.18.08.11.12.2.2.2s.12-.08.08-.15c-.04-.07-.23-.23-.23-.23Z"/>
      <path class="cls-1" d="M85.56,80.93s-.14-.29-.17-.29-.25.17-.25.17l-.12-.13c-.2.1-.65.45-.65.45,0,0,.11.11.15.11s.13-.07.18-.04c.05.03,0,.1.15.11.15,0,.36-.1.3,0-.06.1-.27.14-.3.3-.03.16,0,.27,0,.27,0,0,.09-.28.17-.27.08,0,.49-.12.49-.12,0,0-.09-.18-.12-.21-.03-.03-.42-.15-.37-.2.05-.05.13-.11.23-.09s.3-.03.3-.05Z"/>
      <path class="cls-1" d="M86.18,81.08c.05.04.05.16.1.04.05-.11.09-.26.09-.26-.11-.01-.13.01-.19.06-.06.05-.05.11,0,.15Z"/>
      <path class="cls-1" d="M85.76,81.12s.11.11.13.13c.02.02.16-.02.1-.08s-.23-.05-.23-.05Z"/>
      <path class="cls-1" d="M85.14,82.11c.03.08-.01.24.06.27.07.03.31.07.28.04-.03-.03-.08-.36-.08-.36-.04.02-.28-.03-.25.05Z"/>
      <path class="cls-1" d="M86.59,81.41c-.05,0-.34.08-.34.08l.29.11.05-.19Z"/>
      <path class="cls-1" d="M86.14,82.01s.14-.04.14-.04v-.14h-.14s0,.17,0,.18Z"/>
      <path class="cls-1" d="M87.38,84.05c0-.07-.07-.19-.07-.19-.03.01-.21.28-.18.28s.25-.02.25-.09Z"/>
      <path class="cls-1" d="M90.3,84.46c.07.03.28.02.22-.05-.06-.07-.29-.18-.29-.18,0,0,0,.2.07.23Z"/>
      <polygon class="cls-1" points="89.79 85.44 89.68 85.35 89.68 85.53 89.79 85.44"/>
      <path class="cls-1" d="M93.17,81.83s-.15.15-.09.18c.06.03-.05.05.15,0s.17-.18.17-.18c0,0-.2-.02-.23,0Z"/>
      <path class="cls-1" d="M92.95,82.56c-.12.01-.19,0-.31,0s-.41.15-.41.15c0,0,.05.16.24.14.19-.02.45-.07.6-.15s.24-.22.24-.26-.07-.14-.07-.14c0,0-.16.25-.29.26Z"/>
      <path class="cls-1" d="M93.02,85.53c.07.02.16-.09.16-.09l-.2-.09s-.03.16.04.18Z"/>
      <path class="cls-1" d="M93.08,85.86c.13.01.23-.08.23-.08l-.23-.08s-.13.15,0,.16Z"/>
      <path class="cls-1" d="M96.27,88.68s-.27.05-.27.05l.12-.18c-.06.02-.41.22-.41.25s-.02.05.05.08c.07.03.27.03.36.08s.51.34.52.31c.01-.03.06-.12,0-.23-.06-.1-.35-.18-.36-.22-.01-.04.03-.16-.01-.16Z"/>
      <path class="cls-1" d="M95.92,89.29c.06.06.32.1.35.12.03.02.1.1.15.1s.2.04.18-.03-.03-.17-.13-.19c-.1-.02-.7-.35-.77-.32-.07.02-.37.06-.37.06l.27.26s-.21-.09-.21,0,0,.35.08.37c.08.02.21.02.3,0,.09-.02.12-.07.08-.18-.04-.1-.16-.3-.14-.33.01-.03.2-.14.21-.05.01.08-.06.13,0,.19Z"/>
      <path class="cls-1" d="M81.32,85.29s.09-.17.09-.17v-.15s-.46.06-.44.1c.02.04.22.25.22.25,0,0,.1-.03.13-.04Z"/>
      <path class="cls-1" d="M80.3,85.42s-.15.28-.15.28c0,0,.15.33.18.32.03-.01.34-.24.34-.24,0,0,.43-.03.44-.11.01-.08-.44-.64-.44-.64,0,0-.16.06-.16.12s.08.18.08.18l-.08.33s-.2-.28-.21-.24Z"/>
      <polygon class="cls-1" points="80.23 86.34 80.23 86.15 80.15 86.1 80.15 86.22 80.23 86.34"/>
      <polygon class="cls-1" points="80.41 85.06 80.41 84.98 80.15 85.03 80.19 85.15 80.41 85.06"/>
      <path class="cls-1" d="M79.87,84.83c0,.06.05.16.08.15s.15-.02.15-.06-.04-.18-.04-.18l-.11-.04s-.08.07-.08.13Z"/>
      <path class="cls-1" d="M79.8,85.06v-.09h-.13s-.04.18-.04.18c0,0,.17-.06.17-.09Z"/>
      <path class="cls-1" d="M79.42,84.23s.21,0,.21,0v-.17h-.21s-.02.16,0,.17Z"/>
      <polygon class="cls-1" points="80.41 84.84 80.32 84.62 80.23 84.7 80.41 84.84"/>
      <path class="cls-1" d="M79.14,85.33c.06-.1.08-.54.08-.54,0,0-.28.1-.29.14-.01.03.15.51.21.4Z"/>
      <path class="cls-1" d="M79.59,85.53c0,.07.02.15.04.16.02.01.02.03.09,0,.07-.03,0-.16,0-.16,0,0-.13-.07-.13,0Z"/>
      <path class="cls-1" d="M79.26,86.46s-.04.15-.04.15c0,0-.09-.05-.15,0-.06.05-.18.15-.08.16s.95-.21.93-.25-.41-.67-.41-.67c0,0-.1.02-.11.06-.01.04.19.26.11.26s-.09.01-.16-.06c-.07-.07-.13-.3-.13-.3h-.15s-.3.48-.3.54v.12s.3-.11.35-.12c.05-.01.27.12.27.12,0,0-.13-.04-.14,0Z"/>
      <path class="cls-1" d="M78.11,87.3s.25.02.36,0c.11-.02.36-.4.36-.4v-.13s-.1.11-.18.12-.35.01-.38.07c-.03.06-.18.31-.16.34Z"/>
      <path class="cls-1" d="M77.83,87.46c-.04.09,0,.11-.07.19-.07.07-.39.36-.42.37-.03.01-.41.01-.45,0-.04-.01-.14.16-.21.24-.07.08-.1.28-.16.32-.06.04-.35.3-.34.33.01.03-.04.21.09.12.13-.08,1.39-.96,1.45-1.03.06-.07.19-.39.23-.43.04-.03,0-.17,0-.17,0,0-.07-.05-.11.04Z"/>
      <path class="cls-1" d="M76.69,87.72v.2l-.09.12s.21-.04.23-.1.07-.24,0-.22c-.07.02-.14,0-.14,0Z"/>
      <path class="cls-1" d="M76.6,87.6s.08-.1.06-.15c-.02-.04-.14-.06-.14-.06-.03.07-.06.2-.06.2,0,0,.12.04.14,0Z"/>
      <path class="cls-1" d="M76.29,88.42c.02-.1-.08-.19-.08-.19l-.09.26s.15.04.17-.06Z"/>
      <path class="cls-1" d="M74.83,86.7s-.05.14,0,.19c.05.05.13.09.13.09,0,0,.11-.04.07-.09-.04-.05-.2-.19-.2-.19Z"/>
      <path class="cls-1" d="M76.82,86.9c.01-.06,0-.13-.09-.2-.09-.06-.22-.09-.22-.09.01.04.07.19.08.23.01.05-.08.2-.08.2,0,0,.29-.08.3-.15Z"/>
      <path class="cls-1" d="M77.28,87.51c-.07.06-.11.01-.11.11s.01.13-.04.15c-.05.02-.15.06-.15.06l.13.05.22-.16s.01.13.05.1c.04-.03.26-.17.26-.19s.04-.11.04-.11c-.05-.03-.19,0-.19,0,0,0-.14-.06-.21,0Z"/>
      <path class="cls-1" d="M77.76,87.32v-.18s-.16-.07-.16,0,.16.18.16.18Z"/>
      <path class="cls-1" d="M77.76,86.98s.05.05.08,0c.03-.05.11-.13.04-.14s-.28-.02-.28-.02l.16.16Z"/>
      <path class="cls-1" d="M77.33,86.16c.02.16.16.37.19.4.03.03.14.07.16.04.02-.03.14-.26.13-.33-.01-.07-.29-.18-.29-.18,0,0-.21-.09-.19.06Z"/>
      <path class="cls-1" d="M76.27,86.14l.09-.17-.09-.07s-.08.07-.06.12c.02.05.06.11.06.11Z"/>
      <path class="cls-1" d="M76.56,85.42c.06-.05-.04-.19-.04-.19.01.03-.06.26-.06.26,0,0,.04-.02.1-.07Z"/>
      <path class="cls-1" d="M76.56,84.98c.07.03.23.04.26,0,.04-.04.07-.18,0-.19-.07-.01-.26-.06-.26-.06,0,0-.07.22,0,.25Z"/>
      <path class="cls-1" d="M77.6,85.41s-.17-.1-.22-.07c-.05.03-.1.15-.16.12-.06-.03-.27-.08-.24-.12.03-.05,0-.32,0-.32,0,0-.07.07-.1.21-.04.13-.1.4,0,.46.1.07.23.22.28.2.05-.02.3-.03.29-.1-.01-.07-.11-.2-.11-.2h.27s.04-.15,0-.18Z"/>
      <path class="cls-1" d="M77.27,85.15s-.05-.23-.05-.23c0,0-.09.07-.06.14.03.08.1.1.11.09Z"/>
      <path class="cls-1" d="M76.56,84.57s.59.06.59.05c0-.01-.15-.33-.18-.34-.03-.01-.41.1-.41.1-.03.03-.04.18,0,.19Z"/>
      <path class="cls-1" d="M76.62,84.15s.05.08.08.09c.03,0,.15-.05.17-.09.01-.03-.13-.09-.13-.09l-.12.09Z"/>
      <path class="cls-1" d="M77.21,84.02c-.02.08.05.21.05.21,0,0,.12-.17.14-.19.02-.03,0-.19,0-.19,0,0-.17.09-.19.18Z"/>
      <path class="cls-1" d="M79.22,83.3c.02.06.16.32.18.33.02.01.04,0,.11-.05.07-.05.26-.49.28-.58.02-.09-.13-.3-.13-.3,0,0-.14.09-.15.12-.01.03-.05.16-.05.16,0,0,.19.03.16.07-.03.04-.42.19-.4.25Z"/>
      <path class="cls-1" d="M79.01,82.96s-.08-.18-.08-.18c0,0-.08.11-.09.18-.01.06.15.02.17,0Z"/>
      <path class="cls-1" d="M79.13,83.17s.09-.18.09-.18c0,0-.23.07-.25.1-.02.03-.04.18-.04.18,0,0,.18-.1.21-.1Z"/>
      <path class="cls-1" d="M78.7,83.54h.23s.04-.15.04-.15c0,0-.14-.02-.19,0-.05.02-.08.15-.08.15Z"/>
      <path class="cls-1" d="M78.23,83.69l.42-.46s-.41-.07-.42,0c-.01.07,0,.46,0,.46Z"/>
      <polygon class="cls-1" points="77.81 83.73 77.68 83.64 77.57 83.73 77.81 83.73"/>
      <path class="cls-1" d="M77.32,83.2v-.2s-.08.02-.12.07c-.03.05-.06.21-.06.21l.18-.07Z"/>
      <path class="cls-1" d="M76.62,82.7c-.14.04-.77,0-.77,0l.13.19s.53.1.55.1c.02,0,.17.4.17.39,0,0,.12-.03.17.08.05.11.07.35.14.38.07.03.4-.28.4-.3,0-.02-.34-.15-.34-.15,0,0-.01-.22-.08-.25-.07-.04-.29-.29-.29-.29,0,0,.06-.19-.08-.15Z"/>
      <path class="cls-1" d="M76.28,83.44l.14.1s.03-.07.04-.19c.01-.12-.1-.19-.1-.19-.04.02-.08.27-.08.27Z"/>
      <path class="cls-1" d="M75.98,82.25l.22.32.42.06s.01-.1-.09-.19c-.1-.09-.25-.23-.33-.23s-.22.04-.22.04Z"/>
      <path class="cls-1" d="M75.4,82.2c.08.05.29.07.32.12.03.05.06.22.13.2.07-.02.16-.08.13-.11-.03-.03-.04-.37-.13-.39-.09-.02-.26-.01-.28-.06s-.04-.19-.1-.18c-.06.01-.39.09-.39.09l-.04-.15s-.38.14-.4.23c-.02.09-.03.35,0,.36.03.01.17-.05.28,0,.11.05.1.02.12.09s0,.22,0,.29.02.14.05.14.56-.29.56-.29c0,0-.27-.12-.27-.18s-.05-.22.03-.17Z"/>
      <path class="cls-1" d="M71,91.85c-.11.05-.32.2-.32.2l-.14-.06s-.13.21-.16.22c-.03.01-.27.06-.3.05-.03-.01-.24-.17-.27-.11-.03.05-.11.19-.06.19s.35.17.52.08c.17-.08.94-.34,1.11-.41.17-.06.23-.23.23-.23,0,0-.26.15-.33.15s-.16-.12-.27-.07Z"/>
      <path class="cls-1" d="M69.41,92.43v-.12h-.13l-.08.21s.21-.05.21-.09Z"/>
      <path class="cls-1" d="M68.93,92.15s.2-.07.2-.07l-.2-.07s-.01.15,0,.15Z"/>
      <path class="cls-1" d="M68.14,91.94c-.06-.03-.49-.07-.49-.07,0,0-.15.1-.18.06-.03-.04-.38-.16-.38-.16,0,0-.27.03-.25.06.02.03,1.07.58,1.16.58s1.03.19,1.04.16c.01-.03-.23-.33-.23-.33,0,0-.12.15-.15.07-.03-.07-.09-.24-.18-.24s-.35.06-.35,0,.09-.1.03-.14Z"/>
      <polygon class="cls-1" points="66.69 91.71 66.49 91.51 66.49 91.78 66.69 91.71"/>
      <polygon class="cls-1" points="67.59 91.64 67.75 91.57 67.71 91.51 67.38 91.51 67.59 91.64"/>
      <path class="cls-1" d="M68.56,91.64l.18-.13v-.12s-.37.09-.36.12c.01.03.18.13.18.13Z"/>
      <polygon class="cls-1" points="68.84 91.2 68.75 91.08 68.51 91.32 68.84 91.2"/>
      <path class="cls-1" d="M67.62,90.7s.2,0,.2,0v-.12l-.16-.13s-.07.24-.04.25Z"/>
      <polygon class="cls-1" points="69.03 90.76 68.92 90.57 68.92 90.82 69.03 90.76"/>
      <path class="cls-1" d="M70.02,90.87c-.12.07-.29.12-.39.15s-.32.06-.32.06c0,0,.09.18.11.18s.98-.34.98-.34c0,0,.07-.26.04-.27-.03-.01-.23-.07-.23-.07,0,0-.06.23-.18.3Z"/>
      <polygon class="cls-1" points="70.32 91.2 70.24 91.08 70.03 91.32 70.32 91.2"/>
      <path class="cls-1" d="M70.17,90.23s-.06.22-.06.22c0,0,.23-.01.2-.04-.03-.03,0-.18,0-.18h-.15Z"/>
      <path class="cls-1" d="M71.15,89.52c.03.06.16.32.16.32,0,0,.13-.08.12-.11-.01-.03-.14-.23-.14-.21,0,.02-.14,0-.14,0Z"/>
      <path class="cls-1" d="M71.22,89.2s.31-.13.29-.14c-.02-.01-.22-.21-.22-.21-.07.07-.14.35-.14.35h.07Z"/>
      <path class="cls-1" d="M70.82,89.32s.11-.05.09-.11c-.02-.06-.13-.22-.13-.22h-.13s.14.3.16.33Z"/>
      <path class="cls-1" d="M70.22,89.03s.18.07.18,0-.18-.43-.18-.43c-.02.03-.1.1-.1.15s.1.28.1.28Z"/>
      <path class="cls-1" d="M70.61,89.32l-.29-.06-.1.17-.05.25s.15.07.15,0-.02-.21,0-.24c.03-.03.29-.12.29-.12Z"/>
      <path class="cls-1" d="M68.97,89.06s-.03.17.05.1c.08-.08.39-.22.39-.26s-.11-.18-.11-.18c-.08.02-.27.12-.27.12-.02,0-.06.23-.06.23Z"/>
      <path class="cls-1" d="M69.13,88.55s.2-.14.18-.24c-.03-.1-.18-.44-.18-.44l-.06.53.06.15Z"/>
      <polygon class="cls-1" points="69.07 87.73 69.07 87.58 68.97 87.54 68.88 87.69 69.07 87.73"/>
      <polygon class="cls-1" points="68.97 88.21 68.88 88.37 68.97 88.51 68.97 88.21"/>
      <path class="cls-1" d="M68.47,88.94s.15.08.15.08c0,0,.2.01.21-.12s.04-.3.04-.3l-.2-.05c0,.1-.07.24-.11.3-.04.06-.13.07-.09.09Z"/>
      <path class="cls-1" d="M68.75,87.58c-.09-.05-.28-.16-.28-.16l-.2.05-.12.73s.02.17.06.15.18-.36.18-.36c0,0,.11-.09.13-.12.02-.03-.05-.24-.05-.24,0,0,.37,0,.28-.05Z"/>
      <path class="cls-1" d="M68.38,88.71s.07-.09.08-.1c.01-.01-.08-.1-.08-.1,0,0-.1.01-.1.04s.1.17.1.17Z"/>
      <path class="cls-1" d="M67.98,88.71s.11-.17.09-.21c-.02-.04-.09-.15-.09-.15,0,0-.08.09-.09.15-.01.05.09.21.09.21Z"/>
      <path class="cls-1" d="M68.21,89.06s.18-.06.16-.07c-.02-.01-.09-.14-.09-.14l-.14.09.07.11Z"/>
      <polygon class="cls-1" points="68.76 89.2 68.62 89.15 68.62 89.32 68.76 89.2"/>
      <path class="cls-1" d="M67.75,89.15s.21-.01.23-.04c.02-.03-.09-.12-.09-.12l-.14.17Z"/>
      <path class="cls-1" d="M67.56,89.49c.07-.03.26-.17.26-.17,0,0-.13-.05-.15-.06-.01-.01-.12.06-.12.06,0,0-.07.19,0,.17Z"/>
      <polygon class="cls-1" points="67.48 88.51 67.34 88.61 67.48 88.68 67.48 88.51"/>
      <path class="cls-1" d="M67.86,87.63c0-.06.12-.36.12-.36-.02.03-.11.09-.15.16-.04.06.03.27.04.21Z"/>
      <path class="cls-1" d="M67.11,86.47c.05,0,.11-.38.11-.38l-.22.26s.06.12.11.12Z"/>
      <path class="cls-1" d="M65.7,87.97s.04.13.13.2c.09.06.75.34.75.34,0,0-.02-.05-.06-.15-.04-.1-.62-.38-.65-.39-.03-.01-.17,0-.17,0Z"/>
      <path class="cls-1" d="M65.65,88.79c.07.08.09.17.15.17.06,0,.45-.01.39-.1-.06-.09-.39-.62-.43-.61-.04,0-.11.12-.11.12,0,0,.05.13.05.18s-.12.17-.05.25Z"/>
      <path class="cls-1" d="M64.91,88.9c-.02.08.12.52.12.52h.11s.06-.17,0-.27c-.06-.1-.23-.25-.23-.25Z"/>
      <path class="cls-1" d="M65.18,89.79s.16-.09.16-.08-.1-.11-.1-.11c0,0-.09.17-.06.19Z"/>
      <path class="cls-1" d="M63.91,90.34s-.03.15,0,.16c.03.01.22,0,.22,0,0,0,.03-.16,0-.16-.03,0-.22,0-.22,0Z"/>
      <path class="cls-1" d="M64.64,91.08l-.12-.09c0,.06.12.48.12.45v-.35Z"/>
      <polygon class="cls-1" points="62.66 91.32 62.53 91.51 62.66 91.57 62.66 91.32"/>
      <polygon class="cls-1" points="65.45 91.51 65.33 91.57 65.33 91.69 65.45 91.51"/>
      <path class="cls-1" d="M63.24,92.58s.49-.17.74-.26c.24-.09.67-.29.66-.31,0-.02-.06-.09-.06-.09-.03,0-.08.17-.25.17s-.29-.18-.43-.07c-.14.1-.39.3-.47.31s-.26,0-.26,0c0,0,.01-.21-.1-.14s-.18.15-.27.14-.2-.05-.2-.05c0,0,.02.29,0,.26-.02-.03-.17-.1-.27-.1s-.4.17-.41.23c-.01.06.08.12.24.09.16-.03.41-.03.56-.1.14-.07.53-.16.53-.16,0,0,0,.09,0,.1Z"/>
      <path class="cls-1" d="M58.14,92.18c.05.13.12.24.33.29.21.05.76.25.77.2,0-.05-.17-.29-.17-.29,0,0-.14,0-.3-.05-.16-.06-.63-.15-.63-.15Z"/>
      <path class="cls-1" d="M59.38,92.75s.5-.09.56-.08c.05,0,.16-.09.16-.09l-.67-.11-.09.11s.01.2.04.17Z"/>
      <path class="cls-1" d="M60.54,92.43l.04.33s.31.07.29,0c-.02-.07-.11-.28-.17-.33-.06-.05-.17,0-.17,0Z"/>
      <path class="cls-1" d="M61.3,92.18c.06.03.2,0,.2,0v-.18h-.16l-.17.12s.07.02.13.06Z"/>
      <path class="cls-1" d="M60.87,92.09c.05.06.09.05.13,0,.04-.05,0-.18,0-.18-.03.06-.18.13-.13.18Z"/>
      <path class="cls-1" d="M61.41,92.33c-.08-.01-.39-.07-.39-.07-.05.16-.11.49-.05.49.06,0,.36.04.36.04v-.11s-.21-.03-.19-.07c.02-.04.35-.27.27-.28Z"/>
      <polygon class="cls-1" points="61.42 92.68 61.81 92.53 61.74 92.41 61.5 92.47 61.42 92.68"/>
      <path class="cls-1" d="M61.11,91.64s.12.09.22.05c.1-.04.17-.09.25-.19.08-.09.07-.37,0-.42-.07-.04-.25-.1-.25-.1,0,0-.24.09-.15.16.09.06.2.15.15.18-.06.03-.22.32-.22.32Z"/>
      <path class="cls-1" d="M60.76,90.42s.1.15.1.15c0,0-.01.02.08-.07s.07-.26.07-.26c-.05.02-.26.14-.26.18Z"/>
      <path class="cls-1" d="M60.15,90.73s-.07.1,0,.11c.07.01.1.05.23.04.13-.01.28-.12.26-.15s0-.16,0-.16c-.06.05-.48.15-.48.15Z"/>
      <path class="cls-1" d="M60.6,91.32c.06-.03.34-.16.34-.21,0-.05-.08-.3-.08-.3-.04.01-.3.12-.32.18s0,.36.06.33Z"/>
      <path class="cls-1" d="M60.38,91.21c0-.07-.05-.13-.11-.15-.06-.02-.25,0-.25,0l-.22.1s.16-.03.18.05c.02.08-.03.22.04.24.07.02.29.06.29.06,0,0-.1-.16-.04-.18.06-.02.11-.04.11-.11Z"/>
      <path class="cls-1" d="M60.38,91.64l.07.06.08-.1v-.09c-.07-.01-.16.13-.16.13Z"/>
      <path class="cls-1" d="M60.46,91.83c-.05.06-.03.16,0,.17.03.01.23.07.28,0,.04-.07.21-.34.21-.39,0-.05-.31-.1-.31-.1,0,0-.02.13-.05.19-.03.05-.08.07-.13.14Z"/>
      <path class="cls-1" d="M60.53,88.45s.41-.09.41-.09l-.18-.09s-.27.15-.23.18Z"/>
      <path class="cls-1" d="M60.23,88.17c-.13,0-.24.06-.24.06l-.18-.11s-.08.17-.05.25.13.09.18.14c.05.05.29.09.32.09.03,0,.17-.21.13-.27-.05-.06-.03-.15-.16-.15Z"/>
      <path class="cls-1" d="M58.19,89.16s-.13.07-.07.14c.06.06.28.4.37.31.09-.09.32-.39.36-.45s.08-.23.17-.31c.09-.08.35-.09.36-.16.01-.06.01-.21-.06-.19-.07.02-.21-.05-.21-.05,0,0-.14.17-.21.18-.07.01-.15-.05-.15-.05,0,0-.26.2-.29.22-.03.02-.06.14,0,.14.06,0,.24.1.15.11-.09.01-.42.09-.42.09Z"/>
      <path class="cls-1" d="M56.14,86.72s.21-.04.2-.15c0-.1-.13-.37-.17-.38-.04-.01-.29-.15-.29-.15l.12.27-.12.11s.23.3.26.29Z"/>
      <path class="cls-1" d="M58.6,87.96s.15,0,.15-.1c0-.1,0-.3-.18-.4-.18-.1-.54-.16-.54-.24s.14-.2.13-.28c-.01-.08-.08-.16-.15-.22-.07-.06-.54-.27-.54-.27,0,0-.17.02-.18.11-.01.09-.05.49-.09.45-.04-.04-.2-.21-.29-.21s-.49-.01-.53,0c-.03.01-.06.14-.15.12-.09-.01-.42-.15-.42-.15,0,0-.41.31-.47.31s-.47-.03-.48,0c-.01.03,0,.22.04.24.04.02.2-.01.22.05s.09.23.04.34c-.05.11-.35.43-.31.51.04.08.09.37.18.48.08.11.46.53.61.59.14.06.71.11.71.11,0,0,.13-.05.1-.1-.03-.05-.1-.24-.1-.28,0-.04.08-.23.05-.23s-.19.08-.23.03c-.04-.05-.01-.11,0-.14.01-.02.19-.11.18-.2-.01-.08-.01-.24-.06-.23-.05.01-.06.01-.11,0-.06-.01-.09-.12-.06-.16.03-.03.42-.61.53-.63.11-.02.2-.1.24-.04.04.06.12.11.06.2-.06.08-.49.33-.45.44.04.1.17.14.14.29-.03.15-.17.4-.17.48s-.01.24.03.31.07.07.11,0c.04-.07.16-.64.2-.65.04-.01.14-.09.18-.05.04.05.14.19.11.19s-.11-.25-.14-.06c-.03.19-.08.41.03.36.11-.05.26-.24.34-.24s.19.2.19.24-.09.14-.09.14c0,0-.17-.11-.16-.06,0,.06.1.23.1.32s-.05.2-.02.27c.03.07.12.04.24.08.12.04.57-.12.51-.18-.07-.06-.16-.1-.16-.2s.13-.36.16-.37c.03-.01.12.06.17,0,.05-.06.15-.46.13-.45s-.18-.06-.21-.05c-.03.02-.31.43-.38.3-.07-.14-.34-.65-.34-.75s.19-.51.24-.53c.05-.02.07-.05.14-.06.07-.01.34.09.34.12s.08.17-.01.17-.17-.07-.26-.03c-.09.04-.16.14-.16.18s.01.18.07.11c.06-.07.14-.19.17-.15.03.04.02.12-.04.21-.06.08-.18.2-.12.26.06.06.27.02.37,0,.1-.02.21-.17.19-.2-.01-.03-.18-.07-.16-.12.02-.05.17-.27.17-.27,0,0,.08-.04.08,0s-.04.2,0,.18c.04-.02.12-.1.12-.07s-.04.16,0,.16Z"/>
      <path class="cls-1" d="M56.91,89.42l-.25-.11s.13.23.13.23l.12-.11Z"/>
      <path class="cls-1" d="M57.02,89.12c0,.05.05.42.05.42,0,0,.17-.15.16-.19-.01-.04-.11-.19-.11-.19v-.12s-.11.03-.11.08Z"/>
      <path class="cls-1" d="M52.21,85.36c-.07.16-.11.66-.17.69-.06.02-.26.14-.28.19-.02.05-.04.14-.1.22-.06.08-.22.14-.28.14s-.59-.2-.59-.2c0,0-.09-.12-.1-.2-.01-.08-.01-.2-.05-.21-.04-.01-.07-.09-.08,0,0,.09.02.3.04.35.02.05,1.21,1.5,1.32,1.58.11.08.46.19.66.28.19.09.65.33.85.35.2.02,1.46.22,1.43.15-.03-.07-.1-.85-.16-.84-.06.01-.12-.04-.11.03.01.07.07.23-.01.21-.08-.02-.29,0-.28.04.01.05.05.18-.03.18s-.17-.07-.15-.15c.02-.07.06-.25.14-.29.08-.04.26-.12.2-.16-.06-.03-.41-.27-.47-.25-.06.02-.16.02-.19.08-.03.06-.05.17-.09.15-.04-.02-.13-.11-.11-.18.02-.06.04-.09.01-.14-.03-.04-.23-.12-.21-.17.02-.04.16-.23.15-.29-.01-.06-.05-.2-.05-.2,0,0,.23.05.2.14-.03.09-.06.18-.04.23s.1.18.17.21c.07.03.34.1.35.05.01-.05.22-.98.15-1.03-.07-.05-.1-.15-.19-.14-.09.01-.36.18-.37.2-.01.03-.03.32-.05.29-.02-.03-.2-.25-.24-.29-.04-.04-.1,0-.17-.09-.07-.08-.44-.76-.43-.84.01-.08.08-.44.08-.44-.04.01-.65.19-.72.34Z"/>
      <path class="cls-1" d="M51.74,82.71c.1-.03.19-.03.24-.15.05-.11.15-.56.15-.56-.03.01-.55.23-.66.29-.11.06-.12.21-.12.29s.29.16.39.12Z"/>
      <path class="cls-1" d="M42.9,81.3c.17-.08.36-.11.44-.2.08-.08.23-.24.29-.31.06-.07.15-.37.15-.37,0,0-.65.21-.65.18s.1-.35.08-.39c-.02-.04-.04-.08-.08-.07-.04.01-.2.25-.25.23-.05-.02-.36-.03-.38,0-.02.03-.06.23-.09.17-.03-.06-.13,0-.09-.17.04-.17.09-.36.04-.41-.05-.05-.09-.14-.15-.12-.06.01-.37.1-.37.1,0,0-.04-.17-.1-.19-.06-.02-.25-.01-.33-.09-.08-.08-.24-.19-.27-.27-.03-.08-.11-.29-.11-.29,0,0-.25.13-.27.08-.02-.05-.16-.2-.16-.2,0,0-.16.15-.19.15s-.31-.14-.34-.15c-.03-.01-.1-.17-.15-.16-.05.01-.25.13-.28.13s-.22-.11-.23-.02c-.01.09,0,.24,0,.31s-.03.18-.16.23c-.13.05-.49.11-.56.1-.06-.01-.33-.16-.39-.14-.06.02-.25.09-.34.19-.09.09-.22.24-.26.34-.04.1-.08.3-.08.3,0,0-.27-.06-.27-.02s.01.16.17.26c.16.1,1.01.62,1.11.66.1.04.21-.01.31.06.1.07.26.21.41.27.15.06.42.04.48.11.06.07.33.39.43.42.1.02.4-.08.42,0,.02.08.19.47.27.49.08.02.26-.08.29,0,.03.08.16.26.21.22.05-.04.26-.28.32-.28s.36.06.39.06.41-.15.41-.15c0,0-.12-.19-.12-.29s.12-.48.17-.55c.05-.07.1-.17.27-.25Z"/>
      <path class="cls-1" d="M99.34,69.86s-.02-.32-.17-.48c-.15-.16-.28-.32-.39-.35-.11-.03-.24,0-.24,0,0,0,.2.22.31.35.11.12.49.52.49.48Z"/>
      <path class="cls-1" d="M99.21,75.85c.02-.1.57-2.15.57-2.21s.18-.84.18-.9-.08-1.3-.09-1.36c-.01-.06-.19-.85-.22-.92-.03-.07-.22-.27-.22-.27l.19.8s-.1.15-.1.19c0,.04.07.05.1.09.03.04-.17.27-.1.29.08.02.19.04.18.09-.01.05-.03.17,0,.23.03.06.11.1.11.1,0,0-.16.66-.13.7.03.03.25.07.13.19-.12.11-.32.38-.3.42.02.04.2.12.13.22-.07.09-.13.3-.13.3,0,0,.12.02.08.06-.04.04-.21.12-.16.18.05.05.05.33.05.33,0,0-.23.21-.23.26s.09.14.05.18c-.04.04-.21.2-.21.2,0,0-.01.21,0,.27.01.06-.07.04-.08.18-.01.13,0,.3,0,.3l-.08.37s.27-.18.29-.28Z"/>
      <path class="cls-1" d="M98.76,72.82c.07.04.08.28.08.28,0,0,.13-.03.14-.11.01-.08-.06-.33-.06-.33l-.16-.08s-.25.08-.25.17-.04.22.03.2c.07-.02.15-.16.22-.11Z"/>
      <path class="cls-1" d="M99.2,73.6s-.17-.17-.17-.17c0,.03.01.29.05.34.04.05.14-.14.12-.17Z"/>
      <path class="cls-1" d="M98.92,73.61s-.08-.18-.08-.18c0,0-.06.01-.1.07s0,.17,0,.17c0,0,.2-.03.18-.06Z"/>
      <path class="cls-1" d="M98.49,73.06s-.11-.14-.11-.14l-.13.06s.07.1.13.11c.06.01.11,0,.11-.04Z"/>
      <path class="cls-1" d="M98.21,73.35l-.29-.12s-.11.1-.11.13,0,.11.06.11.35-.12.35-.12Z"/>
      <path class="cls-1" d="M97.91,73.9l-.1.05s0,.11.05.11.18-.08.18-.08l-.13-.08Z"/>
      <polygon class="cls-1" points="96.8 74.34 97.01 74.27 96.8 74.19 96.8 74.34"/>
      <path class="cls-1" d="M96.8,75.17c.07-.07,0-.63,0-.63,0-.05-.14.08-.16.22-.02.13-.05.25,0,.32.05.07.09.17.16.09Z"/>
      <polygon class="cls-1" points="97.01 74.61 97.05 74.71 97.09 74.54 97.01 74.61"/>
      <polygon class="cls-1" points="98.65 76.62 98.92 76.38 98.82 76.3 98.65 76.62"/>
      <polygon class="cls-1" points="98.25 77.16 98.44 77.01 98.25 77.01 98.25 77.16"/>
      <path class="cls-1" d="M98.01,77.44c-.17.07-.44.18-.37.24.07.06.27.22.29.1.02-.11.09-.34.09-.34Z"/>
      <polygon class="cls-1" points="97.44 78.04 97.62 78.04 97.62 77.9 97.44 78.04"/>
      <polygon class="cls-1" points="97.39 78.29 97.15 78.41 97.21 78.51 97.32 78.51 97.39 78.29"/>
      <polygon class="cls-1" points="96.9 78.61 96.96 78.8 97.15 78.61 96.9 78.61"/>
      <path class="cls-1" d="M96.04,79.06c.12.05.24.14.24.08s.12-.22.05-.23c-.07-.01-.42-.04-.42-.04,0,.08,0,.13.13.19Z"/>
      <path class="cls-1" d="M95.03,80.69c-.13.16-.46.65-.4.65s.39-.16.4-.19c.01-.03.01-.28.07-.31.05-.03.17-.09.25-.19.08-.09.23-.45.23-.45,0,0-.05-.04-.16.06s-.25.26-.38.42Z"/>
    </g>
  </g>
</svg>