<svg xmlns="http://www.w3.org/2000/svg" id="Layer_2" data-name="Layer 2" viewBox="0 0 118.8 76.2"><defs><style>.cls-1{fill:#172d35}</style></defs><g id="_Ñëîé_1" data-name="Ñëîé 1"><path d="m74.9 6.6-.4.4-1.3 1.8-20-.8-18.5-1L8.6 5.9l-4 13.9L0 36l.3 1.7 13.3.6 5.3.3 4 .1-.1 1.9 1.6-.3.2-1 .2-.2V39h1.7l3.2.4v.2h.8l.4-.2 1.6-.2 12 .3 6.2.3 5.8.2.1.6 10.5-.2h3.3V46l1.4-.3v.7l.2 1.2-.2.8v.3l-.2.5.2 1.2.4.8 2.2 1.3 1 1.7.1-.2.2.2.3.4.2-.2.2-.2v.4h.1c.1.1.7-.2.8-.3l.3-.7.6-.5.3-1 .3-.5.1-.4-.2-.8.4-1v.9l.2.4.2-.2c0 .1.1.7 0 .8l-.9 1.1v1l-.6.8-1.5 1.7.1.2.6.1v.2l1.4.4v1.4l-.2.3v.7l.1.4.2.3.4 4.5.4-.3.2.1q.3 0 .2-.2l-.1-.7-.6-1v-.2h.2l.5.5h.1l.2.5s.4.2.5 0l.2-.2v-.8l-.4-1.2.3-1.4.1.5-.1 1.3.1.3q.2 0 .3.2l.4 1.7h-.4v.1h-.5l-.4.3 1 .2.3.3v.4l.1.2h.2v-.8l.4-.1.2-.3h1l.2-.7-.1-.5h-.2v-.4l.4.2.2-.1.2.4.3.4.1.5.1-.2V63l.2-.4.5-.2-.3-.9v-.2l-.5-.8-.4-.2V60l.3-.3.4.6.2.3.2-.1.1-.8.1-.7h.2l.3 1h.4v-.6c0-.3-.5-.7-.5-.7l-.3-1V57l.3-.5.1.9.4 1.2h.7l.2.3.1.5.2.6.2.5.1.2.1-.7v-.7l-.1-.4-.3-.2-.1-.3h.2l.7.1h.5v-.2h.3l.1.2h.3l.1-.3-.3-.4h-.3l-.3-.4.3-.3h.4l.2.3h.7l.2.3h.3c.2 0-.2 0 0-.2l.2-.3-.1-1h.1l.3.2.1-.1-.2-.6-.4-1.1.1-.1c.2 0 .7.5.7.5l.2.4-.2-.1.1.4.7.4v-.7l-.3-.2v-.3h.1l.3-.1-.1-.2-.7-1 .5.3-.1-.5.6-.4h.1l-.1.7.5.2h.6l.3.4h.2v.2l-.6 1h.1l.8-1-.2-1 .2-.1h.3l.6-.2.1.1-.6.9.3.1.2-.2.1 1-.9.2-.4.5v.3l.4-.1q.4-.2.4-.4h.1l.3.2.1.4-.3.3h-.5l-.3.2.3.3.2-.1.4.2-.1.2-.6.3v.3l.2.6-.3.8.2.3-.1.7.2.6-.4.4-.2 1.1s-1 .6-1 .8l.2.4.2-.3h.2s.4.5.5.4l.8-1.1.7-.3h.8v-.7l.2-.3.1.2v.7l1.1-.2h.4l.1-1.2.2-.1.1.2.2.8-.2.3v.1h.7l.7-.5.5-.4.3-.6-.2-.3.3-.1.7-1v-.4l.8-.9h.2l.2.3.1.7-.1.4.8-.3.5-.8.5-.2.4.1.3.4.5-.1.4-.3h.7v-.6h.5l.4.3q.2 0 .2.2l-.5.2-.2.2s-.3-.2-.3 0v.4l.2.4.3-.3v-.3l.7-.5 1-.4.2-.3 1.2-.2h.6l1.9-.5h.8l1.8-.5.8.6v-.5l.2.2.5-.3v.1l-.1.5.1.2c.2-.2.5-1.2.5-1.2l-.1-.5v-.7l-.3-.1-.5.2-.3-.2s.4-.5.2-.5l-.6.3v-.4l.1-.6.7-.2v-.7l.2-.1-.3-.7h.2l.3.3.4-.4.3 1.1.2 2-.2 1.4-.4 1.1v.3l.4-.6.4-1.1v-1.8l-.3-3.7h-.3l-.2.3h-.2l-.1-.5-.8.8q-.2 0 0-.2l.1-.6.5-.5-.1-.7q0-.2.2-.3h.3l.1.2.2 1.2h.2v-.3l-.2-1-.8-3.3-1-2.4-1.2-2.4-.6-1-1-.9-1.2-.7-1.8-.6h-1.8l-.6.5-.2.4.2.1.2-.2v.4l.8 1q.2.5.4.6h.6l.4-.4v-.2h-.3q0 .2-.2.2h-.4l-.2-.2s.4-.8.6-.9l.6-.2 1 .2.6.5q.5.2.8.8l.3.9.2 2v2.9l.2.7.2.3h.2l-.2-.9.1-.1v-1l.5-.4.3.1.6.8h.4l.2-.1.2.1-.2.1v.4h-.4l-.3.1.1.2h.4l.2.2-.2.5.2 1.5V50l-.6.8-1 .5-2.2.8-.1.2-.4-.1h-.2l-.3.4-.3-.3-.7.4-.4-.1-1 .5-.4.3-.2.3-.3.2-.2.4v.3l-.4-.2-.5.1-2-.1-.3-.2v-.3h.6l.5-.2.4.3h1v-.3l-.7-.3-2.8-.2-1.6-.4-1.6-.7-1.5-1.4-.6-.7-.1-.7.6-1.5-.2-.5v-1l-.4-.6-.2-.5.1-.2.3-.2v-.4l-.6-.1-.5-.4-.6-.3h-.5l-.2.3-.5-.1-.9-1.7.3.9-.2.3h-.2l-.5-.5-.3-.6-.6-.5v-.3l-.5-.4v-.2l.7-.4.4.5.3-.2v-.3l-.2-.2.4-1 .3-.1v-.2l-.6-.3.1-.3h.4l1.2 2v.3l-.5.5v.4l.3-.1.1-.2.5-.3.2.1h.2l-.2-.4-1-1.6-.4-.5v-.7l.2-.3V37c-.2-.2-1-1-1-1.3s-1.1-2.1-1.2-2.1v.8h-.2l-.3-.7h-.5l.2-.3q.2.2.4 0v-1.6l-.3.1s.4-.2.2-.4l-1-.8-.3-.5-.3-.8h-.1v.4l-.4.2v.3h-.3l-.2-1c-.1-.1-1.9-.6-2-.8 0-.2-.6-1-.6-1l-.2-.7h-.3l-1 .2.1.2.4.2.3-.1h.3l.2.7q-.2.1 0 .4l.4.1.3.4v.4l-.4.1-.2-.2-.1.1v.3l-.4.1-.1-.2V29h-.3l-.5.4v.7l-.3.2-.3-.4v-.2l.1-.3-.7.3v.7l-.3-.3h-.2v-.3c.1-.2.8-.8.8-1v-.4h-.2l-.5.4h-.7l-.9-.9v-.2l.4-.2.4-.5-.4-.1-.4.3H82l-.2.6-.2-.1V27l.2-.5-.2-.1v-.2l.5-.3c.1 0 .5-.3.4-.4l-.7-.8-.4.3h-.2l.3-.4V24l.9.4q.1.3.4.4h.3l.3-.5-.3-.2-.4-.7.2-.2q.2 0 .2.2v.2l.2.2h.6v.5l.6.6-.1-.6-.5-1 .2-.2-.6-.5c0-.1-.2-.6-.1-.7 0-.2.7-1.1.8-1.1l.5-.5.1.1.3 1.2h1v-.4l-.6-.2q-.2-.1-.3-.4l.2-.9.3-.2.5.1.3.1.5-.5q0-.2.3-.5l.5-.3.6-.1.2-.6-.1-.2-.6.5.3-1h-.6l-.5.8h-.3v-.5s-.2-.3 0-.3q.3-.2.5-.6v-.2l-.5.3-.4-.5-.8-.3q0-.2.2-.3l.5.2h.3l.1.2h.3l.3-.1h.4l.2-.2 1.1-.1 1.2-.6c.1 0 .1.4.3.3l.6-.6.6-.1.3.2q.2 0 .4-.3h.5l.5-.6V13l.5-.2h.4v.6q-.2.2-.2.5v.2l.3-.2.2-.4.2-.2.4-.5v-.5l.3-.3.2-.3q.6 0 .7-.3V11q0-.3-.2-.4l-.4-.1-.4-.4v-.7l-.2-.4-.4.3h-.2l-.5.3-.1.3-.5.5v.5h.2l.2.5-.2.6-.8-.2v-.3l.3-.2.1-.2-1-.6-.2.7-.4.1v.3h-.3V11H91c0 .1-.2.5-.3.3l-.3-.5v-1l.3-.1 1.1.6v-.1l-.2-.5-.5-.4-1-.3-.5.1.2-.4-.4-.2h-.3l-.3.2-.1-.3.2-.1V6.5h.2l.3.4.2.7.3.8.4.2q.2-.2 0-.7L90 7l-.7-2.2c.1-.3-.1-1.5-.1-1.5l-.2.1v.8h-.7l-1.6-.9-.1-.3q0-.2.2-.1l.4.2.2.2h.2l.8-.3.5.1.2-.1L89 .6l-1 .6L86.3 0q-.3-.2-.7-.1-.5 0-.8.3l-1 .5-1.8.4s-.5.1-.5.3-.2.2-.2.3l-.6 1.9-2.2-.7-1.1.6-.7.8.2 2.5-1.4-.5s-.5 0-.7.2Z" class="cls-1"/><path d="M91.3 10.6v-.2l-.5-.3v.3l.2.2zM84 27l.3-.3v-.6l-.3.1-.1.4-.1.4zm1.1 1 .3-.7v-.2H85c0 .2-.4.5-.4.5v.2q.1.2.4.2m33.1 24.7v-.5l-.2-.2-.1.5zm-.1.9-.4.2.2.2.2-.1zm-2.1 8.3h.5l.4-.2.8-4.2-.2-.3h-.1l-.1.2v.7s-.4.1-.3.3v.4l-.4.4.1.5v1zm-13.3-2.7h.2l.1-.4-.1-.4s-.4 0-.4.2v.3zm-13.9 1.2h.5l-.2-.5-.2-.3v-.2l-.3-.1v.9zm-3.3 7s0 .2-.2.3l-.6.3v.4h.5l.7-.6h-.4l.1-.3zm.7.6 1.6-.3.1-.4v-.7l-1 .8h-.7v.1zm2.4-1h.5l.2-.3s0-.4-.2-.4h-.9v.4zm3.2-2 .6-.3h.2l.8-.7-.1-.4-.6-.2s-.2.5-.4.6c0 0-.6 0-.7.2q0 .3-.3.5l-1 .6s-.6.3-.6.5l-.2.7.1.2h.4l.5-.4.6-.3v-.6l.5-.1zm-1.3 6.5h.2q.2-.1 0-.3l-1.4-.2h-.6l-.2.3c0 .3.9 1.5 1 1.5.2 0 .9.6 1 .7h.3s.2-.8.4-1l.8-.6 2.6-.4 2.3-.2 2.5.2 1-.2q.1 0 0-.2l-.7-.1-.3-.3v-.5l-.2-.8.2-.6-.5-.2-.6-.5v.3s-.1.2-.3.1l-.3-.1V68l-.2-.1v-.5h.2l.2.4.3.1-.2-.6v-.8l-.4-.9h-.1l-.6.4v.2l.1.5-.6.7-.2.1.3-2.1-.1-.2s-.2-.1-.4 0c0 .1-.5.3-.4.4l.1.7h-.1s-.3-.4-.5-.4l-.7.2-.2.2-.1.4-.9.6-.2.3-.5 1.2-.4.2-1 1.9v.7l-.1.5-.2.1-.2-.1h-.3v-.3q0-.2.2-.3" class="cls-1"/><path d="m101 68.8-.2.1-.8.7-.5-.1.3 1 .8.2.3.5h-.2.3q.1.2.4 0 .3-.1.1-.3v-2.6l-.3-.5-.4.2-.1.4-.1.3.2.1.1-.6s.1-.2.2-.1q.2 0 .1.3.1.3.2.2s0 1.1-.1 1h-.4l-.2-.4zm5.7 3.2.2-.2-.5-.2-.5.2v.2l.4.3h.2V72zm1.9 1.6-.1-.4c-.1-.2-.6-.3-.6-.3h-.6l-.1.2.6.6.7.2zm.7 1 .5.4 2.1 1 1.1.2.5-.2h.9l1.7.2 1.5-.7s.4-.7.3-.9l-.6-1.5-1.4-3.2-.9-1h-.2v.3l.2.4.3.3.2.3-.2 1-.4.6-.5.8-.5.6-.4.3.3.2.4-.2 1.1-1.2q0-.4.2-.5l.4-.2.2.2.2.4-.1.3-.7.3.1.5s-.4-.2-.5-.1l-.2.3-.6.2-.6.7-.4-.2s-.2-.7-.4-.7l-1.1.1h-1.9l-.4.2.4.3v.3zM89.7 76l.1-.2-.4-.5-.7.2v.3l.3.1z" class="cls-1"/></g></svg>