<?xml version="1.0" encoding="UTF-8"?>
<svg id="Layer_2" data-name="Layer 2" xmlns="http://www.w3.org/2000/svg" viewBox="0 0 118.78 76.2">
  <defs>
    <style>
      .cls-1 {
        fill: #172d35;
      }
    </style>
  </defs>
  <g id="_Ñëîé_1" data-name="Ñëîé 1">
    <g>
      <path class="cls-1" d="M74.88,6.61c-.25.16-.39.26-.41.4-.02.14-1.22,1.76-1.22,1.76l-20.02-.82-18.54-.9-26.1-1.26-3.96,13.9L0,36.13l.31,1.62,13.28.66,5.34.26,3.96.16-.12,1.84,1.67-.26.19-.94.14-.24v-.34h1.69l3.22.38.08.22.76.06s.35-.26.43-.28c.08-.02,1.59-.16,1.59-.16l11.94.32,6.21.22,5.83.26.08.64,10.47-.28,3.34-.06-.04,5.87,1.42-.26s-.02.48-.02.68.21,1.1.21,1.16-.21.8-.21.8c0,0,.1.3.08.36-.02.06-.23.38-.21.44.02.06.14,1.1.14,1.2s.45.86.45.86c0,0,2.1,1.28,2.16,1.28s1.07,1.68,1.07,1.68c0,0-.04-.14.08-.14s.12.06.19.14c.08.08.19.36.25.38.06.02.14-.04.21-.12.08-.08.19-.24.19-.24,0,0,.04.27.1.36.06.1-.02.06.06.1.08.04.62-.28.76-.4.14-.12.17-.56.31-.66s.54-.36.62-.5.14-1.08.23-1.08.35-.38.35-.44.14-.24.1-.38c-.04-.14-.25-.66-.16-.84.1-.18.39-.98.39-.98,0,0,0,.86.02.92s.17.36.17.36c0,0,.19-.26.21-.14.02.12.06.72.02.78-.04.06-.91.96-.93,1.1-.02.14-.12.94-.12.94l-.5.84-1.55,1.74.14.22.58.1v.14l1.42.42-.04,1.4s-.14.16-.17.34c-.04.18-.12.5-.04.66.08.16.16.3.16.36s.16.3.16.3l.41,4.53.47-.24s.06.04.19.06c.14.02.17.02.16-.26s-.1-.54-.14-.64c-.04-.1-.58-1.04-.58-1.04,0,0-.08-.1.04-.14.12-.04.19-.08.23-.02.04.06.41.52.41.52h.19l.12.44s.47.22.52.1c.06-.12.17-.24.17-.3v-.76s-.39-1.1-.39-1.16.31-1.44.31-1.44c0,0,.16.38.16.44s-.17,1.3-.17,1.3c0,0,.1.26.17.32.08.06.25.12.31.22.06.1.33,1.74.33,1.74h-.35l-.12.1-.43-.04s-.49.26-.41.28c.08.02.89.18.99.22.1.04.31.3.31.3v.42l.17.22s.14-.04.14-.1.02-.68.1-.7.31-.16.37-.18c.06-.02.14-.28.19-.28s1.01.06,1.01,0,.17-.64.17-.7-.14-.42-.14-.42c0,0-.16-.02-.14-.08.02-.06.04-.38.04-.38l.35.22s.08-.14.14-.12l.06.02s.12.32.16.42c.04.1.29.26.29.32s.12.52.12.52l.1-.22s-.14-.4-.06-.46c.08-.06.17-.42.25-.44.08-.02.56-.12.56-.12l-.35-.9s.02-.14.02-.2-.5-.86-.5-.86l-.37-.14.02-.34s.21-.34.23-.28c.02.06.37.58.37.58l.27.3.14-.1s.16-.78.16-.84,0-.62.06-.64l.06-.02s.14-.04.14.02.35.92.35.92l.35.02s0-.3-.04-.56c-.04-.26-.47-.72-.47-.72,0,0-.31-.84-.31-.94s.02-.78.08-.86c.06-.08.27-.48.27-.48,0,0,.04.78.08.88.04.1.43,1.2.43,1.2l.68-.04.23.32s.08.46.08.58.16.4.17.56c.02.16.17.52.17.52l.17.14s.04-.6.08-.66c.04-.06-.04-.68-.04-.74s-.12-.36-.12-.36c0,0-.25-.1-.29-.18-.04-.08-.1-.28-.1-.28,0,0,.08-.16.23-.12.16.04.62.18.68.2.06.02.1.08.23.08s.25-.06.27-.12c.02-.06,0-.1.1-.14s.21-.08.21-.08l.16.28s.12.08.23-.02c.12-.1.12-.3.14-.36.02-.06-.27-.34-.27-.34l-.31-.08s-.35-.28-.31-.34c.04-.06.17-.28.27-.3s.45.08.45.08l.18.22s.58-.02.64-.02.21.36.21.36c0,0,.17.06.29.06s-.12-.18,0-.26c.12-.08.23-.3.23-.3l-.14-1.04s0-.08.14-.04.35.22.35.22l.1-.12s-.29-.5-.29-.58-.31-1.1-.31-1.1c0,0-.02-.14.1-.1.12.04.62.5.62.5l.25.38s-.25-.12-.25-.06.12.3.16.36c.04.06.66.44.66.44,0,0-.02-.58,0-.66s-.27-.24-.27-.24c0,0-.16-.3-.08-.32s.14.08.21.06c.08-.02.23-.18.23-.18,0,0-.06-.14-.1-.2-.04-.06-.7-.9-.7-.9,0,0-.04-.12.06-.1.1.02.49.36.49.36,0,0,.06-.02.06-.1s-.31-.36-.23-.4c.08-.04.64-.42.64-.42l.1.08s-.17.54-.1.58.41.24.52.24.58-.06.58-.06c0,0,.23.46.29.46s.23.06.23.06v.12l-.64.94.17.1s.72-.86.76-1.04c.04-.18-.23-.88-.17-.92.06-.04.18-.16.18-.16,0,0,.19.1.29.08s.62-.28.62-.28l.1.12-.62.88.27.14.23-.2.12.88-.89.3s-.39.4-.39.46.04.3.04.3c0,0,.23-.06.35-.1.12-.04.33-.34.33-.34,0,0,.12-.04.17-.04s.23.12.25.2c.02.08.14.38.14.44s-.37.28-.37.28l-.5-.06-.29.22.37.3s.1-.1.21-.08c.12.02.35.12.35.2s0,.18-.14.2c-.14.02-.56.32-.56.32l-.06.28.25.58-.25.82s.19.22.17.3-.12.58-.12.66.17.54.19.6c.02.06-.37.42-.37.42,0,0-.17,1.1-.23,1.14-.06.04-.99.6-.97.74s.19.4.19.4c0,0,.04-.24.16-.26.12-.02.16-.06.23-.02.08.04.45.5.5.44.06-.06.78-1.12.85-1.12s.45-.28.62-.28.19.04.31.06c.12.02.5-.06.5-.06,0,0-.1-.68,0-.76.1-.08.19-.34.23-.28.04.06.1.12.12.26.02.14-.16.66,0,.66s.97-.2,1.13-.2.31.12.33.06c.02-.06.14-1.22.14-1.22,0,0,0-.16.14-.14.14.02.17.18.17.18l.17.84-.23.24s.04.18.1.18.56-.06.68-.12c.12-.06.52-.24.64-.38s.45-.38.49-.44c.04-.06.29-.58.29-.58,0,0-.25-.32-.17-.32s.29-.08.35-.12c.06-.04.62-1,.62-1,0,0-.06-.32,0-.38.06-.06.66-.84.84-.88.17-.04.02-.1.17-.04.16.06.19.3.23.36.04.06.14.7.14.7,0,0-.25.38-.19.38s.82-.3.87-.34c.06-.04.43-.8.43-.8,0,0,.45-.14.51-.14s.31.02.43.08c.12.06.35.34.35.34l.43-.08s.33-.3.39-.32.41-.04.41-.04l.29.14s.06-.36,0-.42c-.06-.06-.04-.2.12-.22s.33,0,.41.04c.08.04.45.22.45.22,0,0,.27.1.17.2-.1.1-.56.26-.56.26l-.12.18s-.31-.22-.31-.06-.02.32.02.42c.04.1.14.42.14.42l.27-.26s.04-.3.1-.34c.06-.04.51-.44.68-.5.17-.06.78-.34.91-.38.14-.04.08-.3.25-.34.17-.04,1.05-.14,1.18-.14s.35.06.66.06,1.73-.62,1.83-.62.54-.06.82-.04c.27.02,1.71-.42,1.77-.42s.85.62.85.62v-.26l-.1-.24s.12.14.29.12c.17-.02.52-.26.52-.26,0,0-.06.08,0,.14.06.06-.14.5-.14.5,0,0,.02.3.15.12.13-.18.49-1.2.49-1.2,0,0-.16-.34-.16-.48s-.04-.68-.04-.68c0,0-.19-.14-.25-.14s-.43.28-.43.28c0,0-.35-.16-.31-.22.04-.06.33-.52.17-.48-.16.04-.56.28-.56.28,0,0-.06-.3-.06-.38s.16-.62.16-.62c0,0,.66-.12.68-.26.02-.14-.02-.62-.02-.62l.21-.18s-.37-.64-.31-.66c.06-.02.1-.12.16-.06.06.06.31.36.37.34s.39-.34.39-.34l.31,1.08s.16,1.86.16,2-.12,1.18-.16,1.36c-.04.18-.47,1.14-.47,1.14l.12.26s.25-.5.29-.56c.04-.06.43-1.1.43-1.16s-.02-1.64,0-1.72c.02-.08-.29-3.69-.29-3.69l-.35-.04-.17.28h-.16s-.08-.46-.14-.44c-.06.02-.82.78-.82.78,0,0-.14-.14-.06-.26.08-.12.16-.46.23-.52s.47-.52.49-.58c.02-.06-.17-.66-.17-.66,0,0,.04-.26.21-.28.17-.02.27-.06.29,0,.02.06.1.1.14.2.04.1.25,1.16.25,1.16l.12-.04s.04-.06.06-.22-.19-.98-.19-1.06-.82-3.08-.84-3.26c-.02-.18-.87-2.18-.93-2.38-.06-.2-1.26-2.36-1.3-2.46-.04-.1-.58-.9-.58-.9,0,0-.91-.9-.99-.96-.08-.06-1.05-.62-1.22-.7-.17-.08-1.55-.58-1.75-.58s-1.59-.06-1.81.04c-.21.1-.62.34-.64.4-.02.06-.16.44-.16.44l.19.12.19-.18s-.08.2.04.34c.12.14.58.86.76,1.1.17.24.25.5.37.52.12.02.58-.04.64-.06.06-.02.37-.32.37-.32l.04-.26s-.23.06-.33.12c-.1.06-.02.14-.23.16-.21.02-.37.08-.39.02-.02-.06-.17-.2-.16-.26.02-.06.41-.78.64-.88.23-.1.35-.26.56-.22.21.04.8.14.93.22.14.08.58.36.7.46.12.1.64.56.74.84.1.28.31.66.35.86.04.2.17,1.94.17,2.04s.08,2.74.08,2.86,0,.6.08.74.23.3.23.3c0,0,.17.1.17.04s-.19-.92-.19-.92c0,0,.14-.12.14-.18s-.08-.84-.04-.9c.04-.06.33-.44.52-.46.19-.02.33.1.33.1,0,0,.47.82.56.84.1.02.41-.04.41-.04l.21-.14.21.14s-.21-.02-.23.12.14.38,0,.4l-.14.02s-.14-.14-.19-.12c-.06.02-.33.18-.33.18,0,0,.04.18.1.2.06.02.33.04.39.04s.19.18.19.18c0,0-.23.34-.19.46.04.12.19,1.5.19,1.56s.04,1.7.02,1.78c-.02.08-.62.82-.62.82l-.95.48-2.21.8-.17.18-.33-.12-.25.02-.31.36-.29-.24s-.62.32-.68.34c-.06.02-.12-.12-.37-.08-.25.04-.91.48-.97.48s-.45.3-.45.3l-.21.3.08.12-.37.16-.25.34-.04.28-.35-.16s-.37.14-.5.14-2-.14-2-.14l-.27-.24-.08-.24s.12-.02.27-.02.25.06.41.02c.16-.04.52-.18.52-.18,0,0,.33.26.39.26s.25.02.35.02.1-.08.21-.1c.12-.02.45.02.45.02,0,0-.06-.16-.12-.2-.06-.04-.52-.3-.6-.32-.08-.02-2.56-.16-2.78-.18-.21-.02-1.55-.44-1.63-.48s-1.53-.66-1.61-.7c-.08-.04-1.53-1.38-1.53-1.38,0,0-.58-.56-.58-.68s-.16-.64-.12-.74c.04-.1.6-1.48.6-1.48,0,0-.17-.34-.17-.46s0-1,.02-1.08c.02-.08-.39-.5-.39-.56s-.17-.48-.17-.48l.06-.2s.21-.06.25-.18c.04-.12.08-.38.02-.38s-.45-.08-.56-.14c-.12-.06-.41-.4-.47-.44s-.49-.28-.62-.28-.51.04-.51.04l-.23.24-.47-.08-.89-1.72-.12.12.37.8-.16.36h-.17l-.52-.54s-.25-.5-.29-.58c-.04-.08-.62-.5-.62-.5,0,0-.1-.26-.1-.32s-.37-.36-.37-.36l-.02-.24s.62-.36.68-.36.39.46.39.46c0,0,.31-.16.33-.22.02-.06,0-.32,0-.32,0,0-.27-.1-.25-.18s.37-.98.47-1c.1-.02.25-.12.25-.12l-.08-.2-.54-.24.12-.28.39-.1,1.2,2.06.06.32-.54.52s-.06.32,0,.32.23-.02.29-.08c.06-.06.06-.18.12-.22.06-.04.47-.26.47-.26l.23.12s.17-.02.17-.1-.12-.2-.19-.32c-.08-.12-.99-1.6-.99-1.6,0,0-.37-.46-.37-.52s-.12-.64-.12-.64c0,0,.27-.28.27-.34s.02-.32-.06-.52c-.08-.2-1.01-1.04-1.01-1.24s-1.03-2.16-1.11-2.14l-.08.02.1.78s-.19.08-.25-.02-.16-.7-.25-.72c-.1-.02-.52.04-.49-.04.04-.08.19-.18.19-.18,0,0,.39.14.41,0,.02-.14-.1-.86-.1-1.02s.14-.4.14-.4l-.06-.22-.33.14s.37-.28.17-.46c-.19-.18-.91-.64-.93-.76-.02-.12-.37-.46-.37-.54s-.23-.76-.23-.76c0,0-.16-.02-.16.04s.02.38.02.38l-.41.2-.04.24s-.17.12-.19.06-.16-1.02-.27-1.08c-.12-.06-1.83-.6-1.9-.8-.08-.2-.7-.9-.7-1s-.08-.6-.14-.62c-.06-.02-.21-.02-.31-.02s-.95.22-.95.22c0,0-.06.12.04.16.1.04.35.18.35.18,0,0,.21-.1.29-.1s.25.06.31.08c.06.02.21.58.23.64.02.06-.17.34,0,.4.17.06.31.06.37.1s.31.32.31.38,0,.32-.06.38c-.06.06-.35.14-.35.14,0,0-.12-.16-.17-.16s-.14.08-.14.08l.12.24-.45.14s-.14-.12-.14-.18.1-.4.1-.4c0,0-.37-.06-.43-.04-.06.02-.45.44-.45.44,0,0-.1.22-.08.28.02.06.12.28.12.28l-.06.16-.29.16-.25-.42-.02-.2.1-.24-.08-.12s-.58.26-.62.38c-.04.12-.08.26-.04.32s.08.36.08.36l-.14.08-.23-.34s-.16,0-.16-.06-.14-.16-.02-.3c.12-.14.74-.78.78-.92.04-.14,0-.4,0-.4,0,0-.1-.1-.19-.06-.1.04-.43.38-.54.4-.12.02-.62-.02-.62-.02l-.95-.86s-.04-.18.02-.22c.06-.04.27-.1.37-.18.1-.08.41-.48.41-.48-.14-.08-.25-.18-.37-.12-.12.06-.31.22-.45.28-.14.06-.37-.08-.37-.02s-.16.64-.23.64-.21-.04-.21-.14-.02-.7-.02-.7c0,0,.31-.42.27-.48-.04-.06-.23-.12-.23-.12,0,0-.08-.18-.02-.2.06-.02.47-.14.56-.22.1-.08.47-.32.39-.48-.08-.16-.72-.72-.72-.72,0,0-.31.28-.37.3-.06.02-.21,0-.19-.06.02-.06.27-.32.25-.42-.02-.1-.12-.4-.04-.44.08-.04.82.26.93.38.12.12.23.38.43.38s.27-.02.33-.06c.06-.04.27-.32.23-.4-.04-.08-.27-.08-.29-.2-.02-.12-.33-.76-.33-.76,0,0,.06-.14.17-.14s.23.06.23.16-.02.2,0,.26.08.16.16.18.56-.02.56-.02c0,0,.1.12.08.18-.02.06-.1.2-.02.32.08.12.41.48.41.48,0,0,.06.16.12.1.06-.06.04-.4-.06-.54-.1-.14-.45-1.02-.45-1.02,0,0,.16-.08.12-.2-.04-.12-.56-.42-.58-.54-.02-.12-.17-.6-.12-.72.06-.12.74-1.06.8-1.1.06-.04.52-.44.52-.44l.16.12.29,1.18s.33-.12.39-.1c.06.02.54.18.62.16.08-.02,0-.42-.12-.5-.12-.08-.47-.12-.54-.18s-.27-.16-.25-.38.08-.78.16-.88c.08-.1.17-.28.35-.28s.31.08.45.14c.14.06.29.16.33.1.04-.06.41-.42.43-.52.02-.1.19-.42.33-.48.14-.06.39-.28.52-.3.14-.02.5-.08.56-.14.06-.06.23-.46.23-.56s-.14-.18-.14-.18c0,0-.56.56-.58.5-.02-.06.43-.94.29-.98s-.6-.06-.6-.06c0,0-.43.78-.49.78s-.25.04-.25.04l.04-.46s-.23-.32-.1-.38c.14-.06.56-.4.58-.52.02-.12-.06-.26-.06-.26,0,0-.35.3-.45.28-.1-.02-.27-.38-.39-.44-.12-.06-.87-.28-.87-.28,0,0-.04-.3.19-.32.23-.02.39.2.54.2s.31-.08.31-.08l.1.22s.17.12.29.1.17-.14.29-.18c.12-.04.35,0,.45-.02.1-.02.06-.1.19-.14.14-.04.89-.1,1.09-.16.19-.06,1.03-.56,1.17-.52.14.04.14.38.29.28s.45-.54.6-.6c.16-.06.49-.18.58-.16.1.02.23.26.37.24.14-.02.19-.22.35-.26.16-.04.41-.04.52-.1.12-.06.45-.52.45-.52,0,0,.08-.62.12-.68.04-.06.31-.28.39-.28s.43.08.43.08c0,0-.06.26-.04.32s.16.12.1.22c-.06.1-.31.42-.29.48.02.06.1.24.1.24,0,0,.27-.08.27-.16s.06-.34.14-.4c.08-.06.1-.04.25-.22.16-.18.37-.4.37-.52s-.1-.38,0-.46c.1-.08.35-.24.35-.32s-.04-.24.19-.28c.23-.04.66-.14.66-.3s.06-.48-.02-.64,0-.34-.21-.42c-.21-.08-.31-.02-.41-.08-.1-.06-.33-.28-.33-.36s.02-.74.02-.74l-.27-.36-.33.26-.21-.06-.5.38-.14.28s-.47.36-.47.52-.02.44-.02.44l.23.08s.12.38.12.44-.1.58-.16.58-.84-.2-.84-.2c0,0-.06-.22.06-.24.12-.02.27-.14.33-.18s.08-.26.08-.26c0,0-1.11-.64-1.11-.58s-.1.66-.1.66c0,0-.43.08-.43.14s0,.34-.06.34-.25-.06-.25-.06c0,0,0-.42-.06-.42s-.12-.08-.17.04-.25.48-.31.32c-.06-.16-.33-.44-.31-.54.02-.1,0-.34-.02-.46-.02-.12-.08-.2-.06-.32.02-.12.1-.34.1-.34,0,0,.08-.16.25-.08.17.08,1.13.66,1.13.66,0,0,.04-.08,0-.18-.04-.1-.16-.26-.27-.46-.12-.2-.1-.24-.5-.38-.41-.14-.91-.3-.91-.3,0,0-.58.16-.54.08.04-.08.19-.36.16-.42-.04-.06-.39-.18-.39-.18,0,0-.21.02-.29.06-.08.04-.29.1-.29.1,0,0-.19-.1-.14-.22.06-.12.23-.18.23-.18,0,0-.1-.8-.04-.92.06-.12.1-.26.12-.38.02-.12-.06-.44-.06-.44,0,0,.12-.1.19,0,.08.1.27.3.31.42.04.12.14.4.21.66.08.26.23.8.31.84.08.04.29.18.39.12.1-.06.17-.34.02-.62s-.33-.76-.43-1.02c-.1-.26-.74-1.98-.66-2.24.08-.26-.16-1.44-.16-1.44,0,0-.21-.04-.23.06-.02.1-.04.78-.04.78l-.58.04s-1.59-.8-1.63-.9c-.04-.1-.21-.3-.14-.36.08-.06.1-.16.25-.1.16.06.33.18.39.2.06.02.19.2.19.2,0,0,.04.06.25.02.21-.04.58-.32.72-.28.14.04.33.14.49.1.16-.04.27,0,.29-.1.02-.1-.16-2.26-.16-2.26l-1.07.52s-1.24-.96-1.5-1.06c-.25-.1-.37-.2-.72-.14-.35.06-.52.18-.76.3-.23.12-.87.52-1.09.56-.21.04-1.67.4-1.73.42-.06.02-.47.1-.47.22s-.21.26-.29.38-.54,1.82-.54,1.82l-2.25-.68s-1.03.48-1.11.58c-.08.1-.64.78-.64.84s.14,2.46.14,2.46c0,0-1.26-.42-1.34-.42s-.49-.04-.74.12Z"/>
      <path class="cls-1" d="M91.28,10.6c.06-.04.1-.13,0-.21s-.45-.24-.45-.24c0,0-.12.16-.1.22.02.06.17.2.27.24.1.04.21.04.27,0Z"/>
      <path class="cls-1" d="M84.08,27l.19-.3.12-.58s-.17.06-.35.12c-.17.06-.17.3-.19.4-.02.1-.08.34-.08.34,0,0,.02.1.1.1s.21-.08.21-.08Z"/>
      <path class="cls-1" d="M85.11,28c.06-.08.29-.62.31-.68.02-.06-.1-.24-.1-.24,0,0-.14,0-.19.1-.06.1-.43.4-.43.46s.08.2.08.2c0,0,.27.24.33.16Z"/>
      <path class="cls-1" d="M118.14,52.65c.02-.08,0-.46,0-.46l-.21-.14s-.19.46-.14.48c.06.02.33.2.35.12Z"/>
      <polygon class="cls-1" points="117.96 53.63 117.56 53.8 117.78 54.02 117.96 53.94 117.96 53.63"/>
      <path class="cls-1" d="M115.89,61.85l.27.12h.29c.08,0,.31-.3.31-.3,0,0,.8-4.05.8-4.15s-.12-.28-.12-.28h-.14s-.12.06-.12.18v.72s-.33.06-.31.22c.02.16,0,.48,0,.48,0,0-.37.24-.35.32.02.08.12.48.12.54s-.1.9-.12.98c-.02.08-.64,1.18-.64,1.18Z"/>
      <path class="cls-1" d="M102.61,59.18c-.02.06.12.04.17,0s.14-.28.12-.35c-.02-.07-.12-.39-.12-.39,0,0-.35.04-.35.14s.02.26,0,.32c-.02.06.19.22.17.28Z"/>
      <path class="cls-1" d="M88.7,60.4c.12-.02.45.02.49-.08.04-.1-.02-.22-.14-.38-.12-.16-.2-.22-.21-.34,0-.12,0-.22,0-.22l-.35-.08s.02.76,0,.86c-.02.1.1.26.21.24Z"/>
      <path class="cls-1" d="M85.4,67.39s-.02.22-.21.32c-.19.1-.6.2-.6.32s-.08.28,0,.36c.08.08.31.12.52,0,.21-.12.68-.56.68-.56l-.41-.06.16-.28-.14-.1Z"/>
      <path class="cls-1" d="M86.13,67.92c.12-.02,1.56-.14,1.58-.18.02-.04.14-.34.14-.46s-.14-.64-.14-.64c0,0-.76.76-.91.74-.16-.02-.62-.04-.66,0-.04.04.08.08,0,.14s-.13.42,0,.4Z"/>
      <path class="cls-1" d="M88.47,66.95c.06-.02.5.04.56,0,.06-.04.16-.24.14-.3s-.02-.34-.12-.32c-.1.02-.5.1-.58,0-.08-.1-.33,0-.33,0,0,0-.04.2,0,.32.04.12.27.32.33.3Z"/>
      <path class="cls-1" d="M91.71,65.04c.08-.09.56-.31.56-.31,0,0,.12.08.23,0,.12-.08.8-.74.8-.74,0,0-.06-.28-.14-.36-.08-.08-.51-.22-.51-.22,0,0-.29.5-.41.58-.12.08-.64.06-.76.22-.12.16-.1.34-.31.44-.21.1-.8.48-.91.6-.12.12-.62.38-.64.54-.02.16-.17.68-.17.68,0,0,.02.14.1.18.08.04.19.04.39,0,.19-.04.37-.35.5-.36s.61-.29.61-.29c0,0,0-.16,0-.26,0-.1,0-.34,0-.34l.5-.14s.08-.11.16-.2Z"/>
      <path class="cls-1" d="M90.39,71.52c.14,0,.21.06.23-.02.02-.08.19-.26-.02-.3-.21-.04-1.33-.2-1.43-.22s-.53-.04-.6.04-.16.12-.16.28.89,1.52,1.05,1.54c.16.02.84.58.91.64.08.06.37,0,.37,0,0,0,.19-.78.31-.9.12-.12.6-.54.8-.64.19-.1,2.47-.42,2.64-.46.17-.04,2-.14,2.29-.18.29-.04,2.25.02,2.25.02,0,0,.04.14.27.14s1.03-.16,1.03-.16c0,0,.14-.14,0-.16-.14-.02-.64-.12-.7-.16-.06-.04-.29-.18-.29-.28s.06-.48.02-.54c-.04-.06-.27-.74-.27-.74,0,0,.21-.54.17-.64-.04-.1-.47-.1-.49-.18-.02-.08-.62-.46-.62-.46l.02.24s-.1.22-.25.14c-.16-.08-.33-.08-.33-.14s-.04-.4-.04-.4c0,0-.19-.04-.16-.12.04-.08,0-.46,0-.46l.21.02.21.42s.29.2.27.08c-.02-.12-.19-.52-.19-.62s.08-.58.02-.78-.41-.9-.41-.9c0,0,.02-.12-.14-.04s-.54.36-.56.42c-.02.06-.08.1-.06.22.02.12.16.46.16.45s-.58.77-.58.77c0,0-.19.12-.19.06s.31-2.1.31-2.1l-.14-.22s-.21-.12-.35,0c-.14.12-.5.34-.49.42.02.08.17.67.17.67h-.18s-.27-.39-.41-.37c-.14.02-.7.22-.7.22l-.21.16-.14.39s-.82.61-.85.61c-.04,0-.23.22-.29.34-.06.12-.43,1.2-.43,1.2,0,0-.37.08-.45.16-.08.08-1.01,1.88-1.01,1.88v.76l-.1.5s-.14.1-.19.1-.21-.14-.21-.14c0,0-.19.08-.23.02-.04-.06,0-.18,0-.3s0-.28.14-.28Z"/>
      <path class="cls-1" d="M101.09,68.8s-.14.06-.29.14-.76.66-.76.66l-.54-.12s.17.9.29.96c.12.06.8.22.8.22l.31.5h-.21l.02.12s.19-.06.25,0c.06.06.39.14.45,0s.12-.26.12-.42v-2.56c0-.14-.33-.48-.33-.48l-.45.22-.09.36-.07.28.16.12.19-.64s.06-.14.17-.06c.12.08.17.24.1.3s.17.16.17.22-.02,1.08-.1,1.06-.33.02-.39-.09c-.06-.11-.19-.31-.16-.39.04-.08.35-.4.35-.4Z"/>
      <path class="cls-1" d="M106.74,71.96l.21-.2s-.39-.16-.58-.16-.45.16-.45.16c0,0-.06.18,0,.26.06.08.37.26.37.26,0,0,.21.08.21,0s-.06-.36,0-.32c.06.04.23,0,.23,0Z"/>
      <path class="cls-1" d="M108.62,73.64c.02-.1-.06-.36-.14-.48-.08-.12-.58-.24-.58-.24h-.56l-.16.14.6.68.72.16s.1-.16.12-.26Z"/>
      <path class="cls-1" d="M109.34,74.62s.19.26.41.34c.21.08,2.14,1,2.19.98.06-.02,1.03.28,1.09.26.06-.02.43-.2.43-.2,0,0,.8-.06.93-.06s1.61.24,1.73.26c.12.02,1.42-.6,1.48-.66.06-.06.37-.74.31-.92-.06-.18-.5-1.3-.64-1.52s-1.38-3.18-1.42-3.24c-.04-.06-.85-.98-.85-.98h-.23s.06.24,0,.34c-.06.1.19.37.19.37l.37.29s.12.3.12.36-.16.8-.14.9-.31.54-.37.68c-.06.14-.45.7-.5.76-.06.06-.47.54-.54.6-.08.06-.41.33-.41.33,0,0,.23.19.31.17.08-.02.17.11.41-.17.23-.29.99-1.01,1.09-1.19.1-.18.08-.53.16-.57.08-.04.27-.12.39-.14.12-.02.25.08.29.22.04.14.17.28.17.4s-.06.24-.14.26-.7.3-.7.3l.14.5s-.41-.22-.47-.12c-.06.1-.1.29-.24.35-.15.05-.34-.02-.61.19-.27.21-.62.67-.62.67,0,0-.33-.08-.35-.14-.02-.06-.23-.79-.39-.71-.16.07-.97.11-1.18.11s-.76.02-1.05,0c-.29-.02-.85.04-.85.04l-.33.14s.39.24.41.32c.02.08.21.14.04.24-.17.1-.6.26-.6.26Z"/>
      <path class="cls-1" d="M89.65,75.93s.19-.02.16-.12c-.04-.1-.43-.56-.43-.56,0,0-.7.18-.7.28s-.04.22,0,.24.22.16.34.16h.63Z"/>
    </g>
  </g>
</svg>