<?xml version="1.0" encoding="UTF-8"?>
<svg id="Layer_2" data-name="Layer 2" xmlns="http://www.w3.org/2000/svg" viewBox="0 0 131.95 71.43">
  <defs>
    <style>
      .cls-1 {
        fill: #172d35;
      }
    </style>
  </defs>
  <g id="_Ñëîé_1" data-name="Ñëîé 1">
    <g>
      <path class="cls-1" d="M96.5,40.95s0-.01,0-.04c0,.02,0,.04,0,.04Z"/>
      <path class="cls-1" d="M78.85.38h-22.62l-28.22-.19L.63,0l-.21,7.35-.42,12.94.46.22.21-.43s.07.11.35.04c.28-.07.91-.4.91-.5s-.18-.07.03-.36.98-1.37,1.33-1.44c.35-.07,1.02-.4,1.02-.58v-.18s.56-.65.81-.58c.25.07.53.29.53.29,0,0,.14.1.16-.08s.32-.95.41-1c.09-.05.39-.35.42-.36.03-.01.29-.12.29-.12,0,0-.21-.61.09-.68.3-.07,1.06-.13,1.14-.26.08-.13.26-1.05.51-1.01s.48-.01.48-.01c0,0-.07-.24.07-.26.14-.02.41.38.44.28.03-.11-.06-.47-.07-.5-.01-.04.3-.58.3-.58,0,0,.12-.07.14.01.02.08.06.37.06.37,0,0,.18.17.19.06.01-.11-.02-.37.12-.42.14-.05.29-.12.32-.18.02-.06.08-.42.08-.42,0,0,.06-.1.13-.07.07.02.33-.01.33-.01,0,0-.11-.29-.06-.4.05-.11.27-.16.28-.31s-.23-.38-.11-.41c.13-.02.3-.13.3-.13,0,0-.2-.35-.13-.43.07-.07.46.11.46.11,0,0,.4-.25.54-.2.14.05.2.28.23.25.04-.02.3-.36.35-.34.05.02.62.61.62.61,0,0,.32.02.39.07.07.05,1.4.99,1.4.99,0,0,.19.11.21,0,.02-.11-.09-.3-.06-.35.04-.05.16-.36.16-.36,0,0-.19-.1-.07-.19.12-.1.44-.17.47-.23.02-.06.16-.61.16-.61,0,0,.29-.24.35-.24s.23.13.3.05c.07-.08.19-.37.25-.42.06-.05.09-.48.09-.48,0,0,.42-.18.39-.2-.03-.02-.07-.28-.07-.28,0,0,.5.05.53.01.02-.04.08-.44.13-.49.05-.05.53-.59.53-.59,0,0,.02-.47.2-.53.18-.06.2-.13.26-.11.06.02.34.2.41.2s.26,0,.27-.1c.01-.1.08-.1,0-.24-.08-.14-.5-.47-.41-.61.09-.14.46-.76.55-.79.09-.04.21-.05.3-.06.09-.01-.06-.74.01-.88.07-.13,1.14-.94,1-.68-.14.25-.3.55-.3.7s.18.35.27.32c.09-.02.57-.17.63-.14.06.02.33.11.33.24s.07.37-.15.4-.63,0-.75.05c-.12.05-.4.24-.28.35.12.11.22.54.33.62.11.08.54.08.54.08,0,0,.08-.25.2-.17.12.08.19.68.33.77.14.08,1.18.89,1.34.96.16.07.72.29.89.29s.57-.12.76-.08c.19.04.47.12.6.14.13.02.29-.18.34-.11.05.07-.02.34.11.36s.4.06.42.1c.02.04.16.36.32.29.15-.07,1.25-.19,1.25-.19,0,0,.53.23.62.23s.18-.11.41-.06c.23.05.4.2.46.12.06-.08.22-.19.23-.28.01-.08.06-.43.06-.43,0,0,.32.04.22-.14-.09-.18-.3-.28-.21-.38s.14-.18.26-.1c.12.08.41.43.41.43,0,0,.13-.05.11-.16-.02-.11-.11-.32-.06-.32s.18.05.21.12c.04.07.05.17.18.1s.25-.17.06-.31c-.19-.14-.84-.48-.91-.64-.07-.16-.21-.36-.13-.53.08-.17.18-.22.36-.2.19.01.98.43,1.09.43s.28-.11.32-.2c.03-.1.06-.24-.04-.34-.09-.1-.72-.55-.81-.64-.08-.08-.2-.32-.18-.42.02-.1.18-.28.28-.24.11.04.22.02.44.16.22.13.5.44.65.44s.26.08.28,0c.02-.08.11-.18.03-.25-.07-.07-.22-.22-.19-.36s.08-.2.28-.19c.2.01.34.11.41.08s-.09-.17-.03-.32c.06-.16.01-.2.12-.16.11.05,2.43,1.13,2.55.93.12-.2.19-.54.28-.72s.98-1.01.98-1.01c0,0-.26-.3-.25-.35.01-.05-.04-.11.14-.16.18-.05.69-.11.79-.19.11-.08.49-.74.67-.68.18.06,2.09.59,2.21.65.12.06.83.61.93.67.11.06.91,1.06,1.03,1.26.12.2.72,1.06.77,1.12.05.06.74.18.77.17s.6-.31.6-.31c0,0,.18-.1.2.02.02.12.14.71.14.71,0,0,.06.1.16.1s.3-.02.28-.13c-.02-.11.05-.65,0-.76-.05-.11-.22-.35-.22-.35,0,0,.18-.18.27-.08.09.1.22.54.37.58.15.04.93.2,1.04.2s.2-.05.16-.17c-.04-.12-.13-.35-.13-.38s.03-.13.14-.08c.1.05,1.34.5,1.37.56.02.06.15.56.09.78-.06.22-.13.56-.32.66-.19.1-1.19.19-1.19.19,0,0-.16.3-.09.4.07.1.62.64.61.67-.01.04-.12.4-.05.52.07.12.05.24.15.24s.32,0,.39-.08c.07-.08.22-.5.34-.5s.28.01.28.08-.06.41-.11.48c-.05.07-.49.54-.49.54,0,0,.09.13.22.19s1.04.35,1.11.31c.07-.04.55-.38.6-.38s.4.02.42.13c.02.11-.01.18-.05.19-.03.01-.86.49-.86.49,0,0,.02.14.08.22.06.08.51.44.42.46-.09.02-.54,0-.53.05.01.05.49.5.39.61-.11.11-.49.19-.47.23.02.04.05.29.29.31.25.02.86.07.97.16.11.08.05.13.13.19.08.06.55,1.24.51,1.32-.04.08-.05.16-.14.17-.09.01-.26.01-.27.11-.01.1.2.88.13,1.05-.07.17-.41.61-.34.68.07.07.33.35.47.37.14.02.69.24.81.28.12.04.51.13.62.11.1-.02.49-.25.54-.22.05.04.86.55.93.6.07.05,1.02.34,1.31.32.29-.01.83-.22.9-.18.07.04.13.06.16.25s.34.89.44,1.02c.11.13.44.47.49.5,0,0,.9.41,1.09.49.19.08,1.13.94,1.13.94,0,0-.06.25-.1.34-.05.08-.4.48-.42.55-.02.07-.09.58-.09.58,0,0-.78.38-.9.5-.12.12-.28.22-.3.43-.02.22-.32.84-.27.96.05.12.27.71.3.77.03.06.67.3.92.53s.91,1.45.95,1.48c.03.02,3.39.43,3.56.46.18.02.99.34,1.09.41.09.07.67.56.79.68.13.12.65.24.69.31s.12.35.12.43-.39.66-.18.95c.21.29.43.5.53.55.09.05,1,.32,1.17.34.16.01,1.03.05,1.1.07.07.02.47.3.5.46.03.16.46.82.46.82l2.37-2.4,3.89,4.01-3.38,3.65.2.2s-.32.48-.32.55-.05.55.03.62c.08.07.36.44.42.48.06.04.32.16.32.16l-.57.29s-.18.59-.16.62c.01.04.23.14.25.18.01.04-.03.19-.08.23-.05.04-.32.31-.32.31,0,0,.65.16.68.19.02.04.4.36.28.35-.12-.01-1.09-.1-1.09-.13s-.08-.38-.23-.31c-.15.07-.19.34-.22.34s-.43-.04-.43-.04c0,0-1.05.48-1.07.6-.02.12-.2.71-.21.89-.01.18.07.83.02.96-.05.13-.15.47-.25.59-.09.12-.4.46-.5.48-.11.02-1.25,0-1.25,0,0,0-.08.02-.14.17-.06.14-.15.79-.16.84-.01.05-.44.54-.44.62s.08.24.14.2c.06-.04.23.01.25-.17.01-.18.07-.32.19-.32s.4-.1.54-.24c.14-.14.69-.66.76-.66s.44-.24.42-.06c-.02.18.05.37-.01.42-.06.05-2.09,1.37-2.17,1.37s-.53-.16-.72-.1c-.2.06-.22.05-.33.1s-.16.52-.16.52v.18s.36-.43.44-.43.39-.13.29.02c-.09.16-.62.68-.62.68,0,0-.49.07-.5.11-.01.04-.09.55-.09.55,0,0-.23.07-.23.18s-.04.94-.13,1.05c-.09.11-.16.3-.16.3,0,0,.16.1.22.3.06.2.13.81.14.91.01.11-.11.32-.07.35.03.02.34.11.25.31-.09.2-.21.55-.2.62.01.07.25.94.34,1.08.09.14.6.41.67.49.07.08.35.46.39.49.04.04.01.08.2.08s1.16-.46,1.29-.52,1.09-.88,1.09-.88l.06-1.02s.19-.05.19-.14-.09-.25.01-.32c.11-.07.22-.29.22-.29,0,0-.12-.12-.19-.12s-.21.1-.26.08c-.05-.01-.56-.31-.56-.31l.09-.4s.15-.05.15-.01-.05.28.01.29c.06.01.48-.06.48-.06,0,0,.36.18.44.16s.42-.22.42-.22c0,0,.08.14.07.18-.01.04-.43.29-.42.41,0,0,.15.29.13.36-.02.07-.22.99-.18.99s.67-.1.68-.13c.01-.04.08-.42.16-.47.08-.05.41-.08.57-.18.16-.1.61-.65.61-.65l-.05-.24-.34-.11s.32-.26.32-.3.04-.46.05-.49.35-.43.35-.43l.27-.64s.2.25.13.38c-.07.13-.27.48-.3.66-.03.18.11.9.11.9,0,0,.22-.02.33.31.11.34.84,2.05.9,2.17.06.12-.02.62.02.74.05.12.21.3.2.41s-.1.56-.07.56.34-.01.48.11c.14.12.26.41.28.35.02-.06.18-.32.25-.36.07-.04.2-.19.2-.08s-.18.46-.08.52c.09.06.34.49.48.49s.54-.08.54-.08c0,0,.28.56.32.66.04.1-.01.24-.01.24,0,0-.18,0-.22-.11-.05-.11-.37-.43-.37-.43,0,0-.09-.08-.12.06-.02.14-.23.6-.13.6s.82.23.82.23c0,0,.28.34.41.38.13.05.96.17.96.17,0,0,.26-.2.3-.2s.37.17.36.05c-.01-.12-.16-.55-.23-.54-.07.01-.34.13-.36.06-.02-.07.13-.3.09-.46-.04-.16-.3-.38-.28-.41.02-.02.13-.02.14-.08.01-.06-.09-.31-.11-.36-.01-.05-.78-.49-.74-.53.05-.04.42-.01.47-.13.05-.12.05-.95-.04-1.01-.08-.06-.69-.25-.79-.35-.11-.1-.48-.48-.43-.52.05-.04.19-.22.33-.22s1.09.11,1.09.11c0,0,.56.25.64.59.08.34-.01.73.06.71.07-.02.41-.22.54-.22s.28.04.33.04.16.16.16.16c0,0-.05.12-.14.11-.09-.01-.29,0-.29,0,0,0,.06.3.01.34-.05.04-.4-.05-.42.01-.02.06-.22.26-.16.31.06.05.37.52.39.66.01.14-.15.36-.07.52.08.16.02.14.08.16.06.01.22-.14.27-.12.05.02.15.02.14.12-.01.1-.06.12-.06.16s.35.88.35.93-.18.25-.1.41c.07.16-.01.29.07.35.08.06.36.13.49.22.13.08.25.25.26.34.01.08.01.37.05.42.04.05.54.35.57.3.03-.05.3-.29.26-.3-.05-.01-.23,0-.32-.13-.08-.13-.18-.34-.06-.31.12.02.08.11.23.06.15-.05.12-.1.28-.12.16-.02.37.06.35-.05-.02-.11.05-.29-.04-.4-.08-.11-.28-.23-.28-.23,0,0-.18-.36-.02-.29.15.07.39.48.48.35.09-.13.09-.16.12-.2.02-.05.05-.12-.01-.18-.06-.06-.14-.17-.14-.17,0,0,.16-.07.2-.22.03-.14,0-.31-.01-.35-.01-.04-.27-.14-.23-.22.03-.07.08-.14.09-.34s-.05-.49-.05-.49c0,0,.07-.18.11-.07.03.11,0,.43.14.6.14.17.36.24.39.36.02.12.07.42.08.58.01.16-.06.64-.07.7-.01.06-.54.58-.49.58s.19.12.19.16-.03.32-.03.32c0,0,.21-.04.25-.07.03-.04.25-.18.28-.38s0-.4-.02-.55c-.02-.16.22-.62.22-.62,0,0,.11.32.14.32s.32-.26.32-.17-.06.25.07.26c.13.01.33.04.39-.04.06-.07.41-.46.48-.49.07-.04.14-.16.07-.18-.07-.02-.2-.08-.22-.12-.02-.04-.14-.25-.04-.28.11-.02.09-.13.22,0,.13.13.49.43.51.47.02.04-.02.41-.05.44-.02.04-.26.14-.28.18-.02.04-.12.3-.2.38-.08.08-.62.07-.65.11-.03.04-.2.17-.33.24s-.27.41-.16.41.54-.18.58-.12c.05.06.62.4.7.42.08.02.35.01.44.02s1.55.87,1.6.9c.05.04.76.68.81.79.05.11.15.75.23,1.01.08.26.18.91.32.88.14-.04.58-.11.62-.08.04.02.37.2.36.17-.01-.04-.07-.34-.18-.46-.11-.12-.71-.84-.71-.84v-.19s.12.13.27.17c.15.04.49-.11.46.01-.04.12-.14.41-.09.44.05.04.13-.05.19-.04.06.01.32.14.27.23-.05.08-.05.35.06.44s.27.11.27.11c0,0,.06-.06.15-.01.09.05.26.23.26.23,0,0,.11,0,.09-.08s-.03-.3-.12-.44c-.08-.14-.35-.48-.36-.52-.01-.04-.02-.26.01-.25.03.01.21.26.27.26s.5-.08.5-.08c0,0-.39-.42-.35-.44.04-.02.11-.23.15-.26.05-.04.27-.11.32-.18s.16-.32.13-.32-.34.17-.36.08c-.02-.08-.06-.55-.09-.56-.04-.01-.54-.35-.55-.43s-.05-.26-.05-.26c0,0-.02-.08.04-.07.06.01.57.25.71.47.14.22.58.7.55.85-.03.16-.21.67-.21.67,0,0,.07.17.08.2.01.04.15-.14.36-.13s.47.05.5.07c.03.02.13.19.13.19l-.44.19-.04.35-.32-.13s-.23.02-.19.08c.05.06.16.22.16.22l-.03.29s.12.34.2.48c.08.14.18.82.26.81.08-.01.2.02.18-.1-.02-.12-.13-1.13.02-1.01.15.12.23.52.26.4.02-.12.23-.5.23-.5,0,0,.08.07.12.2.04.13.09.32.01.44-.08.12-.41.34-.41.37s.2-.07.25.01c.05.08.19.5.29.5s.41-.11.41,0-.06.34.01.44c.07.11.49.48.51.54.02.06-.04.7.18.67.21-.02.16-.24.35-.13.19.11.32.16.34.19.02.04.22.6.28.53.06-.07.06-.2.09-.36.04-.16-.16-.59-.21-.66-.05-.07-.2-.26-.3-.48-.11-.22.06-.76.06-.89s-.15-.54-.15-.54c0,0-.05-.12-.12-.01-.07.11-.43.38-.43.38l.06-.46s.06-.13.01-.17c-.05-.04-.13.02-.13-.08v-1.05s.15-.12.19.02c.04.14.13.62.22.76.09.13.12.35.23.23.12-.12.29-.2.3-.24s.18-.61.11-.72c-.07-.11-.27-.32-.32-.42-.05-.1-.93-1.18-1.04-1.51-.1-.34-.62-1.41-.65-1.53-.03-.12-.23-.66-.25-.77-.01-.11.09-.79.09-.9s.08-.38.18-.49c.09-.11.44-.34.44-.34l-1.02-.72s.14.53.08.54c-.06.01-.34-.17-.46-.16s-.27.05-.32.16c-.05.11-.01.34-.18.38-.16.05,0,.13-.36.05-.36-.08-.9-.19-.9-.19l.25-.31s-.43-.42-.43-.48-.04-.41-.07-.37c-.04.04-.13.22-.26.22s-.27-.02-.26-.08c.01-.06.18-.54.08-.53s-.48.26-.48.26c0,0-.14-.11-.11-.17.04-.06.21-.4.12-.44s-.47.06-.47.02-.04-.18.02-.24c.06-.06,0-.18.16-.12.16.06.26.11.34.08.08-.02.26-.05.22-.08-.03-.04-.39-.55-.43-.62-.05-.07-.93-.56-.93-.56,0,0-.28.25-.33.2-.05-.05-.06-.19-.12-.24-.06-.05-.63-.14-.67-.23-.03-.08,0-.13-.12-.24-.12-.11-.33-.36-.47-.41-.14-.05-.83-.36-.84-.44-.01-.08.06-.4-.04-.52-.09-.12-.48-.26-.49-.38-.01-.12-.04-.24-.07-.26s-.34-.04-.4-.14c-.06-.11-.21-.62-.21-.62,0,0,.11.07.14-.01.04-.08.19-.05.06-.18-.13-.13-.15-.34-.22-.32-.07.01-.32.06-.32.06,0,0-.15-.08-.14-.12.01-.04.26-.18.27-.29.01-.11-.2-.31-.25-.37-.05-.06.05-.5.02-.54-.02-.04-.15-.17-.12-.24.03-.07.3-.37.23-.43-.07-.06-.05-.17-.18-.24-.13-.07-.42-.16-.49-.25-.07-.1-.16-.19-.16-.19,0,0,.22-.12.28-.08.06.04.32.19.36.18.05-.01.08,0,.13-.08.05-.08.09-1.05.07-1.08-.02-.04-.23-.17-.19-.25.05-.08.25-.36.25-.48s-.05-.74-.06-.81c-.01-.06-.48-.61-.48-.65s.02-1.24.02-1.24c0,0-.13.04-.18,0-.05-.04-.19-.2-.16-.24.02-.04.27-.47.27-.54s-.16-.17-.14-.23c.02-.06.19-.3.19-.3,0,0,.16.08.2.18s.15.18.09.3c-.06.12-.15.3-.13.36.02.06.19.06.2.2s-.07,1.06-.06,1.14c.01.08.46.5.48.7.02.19.07,1,.07,1.09s-.14,1.21-.11,1.19.48-.28.51-.24c.03.04.14.1.05.24-.09.14-.32.7-.3.81.01.11.32.4.34.58.02.18-.46.48-.39.66.07.18.58.62.58.81s.09,1.12.16,1.12.22-.04.3-.02.29.04.41.19c.12.16.28.46.3.42.02-.04.09-.16.14-.31.05-.16.01-.6.02-.64.01-.04.08-.25.18-.06.09.19.21.61.18.72-.04.11-.12.29-.26.43-.14.14-.09.4-.09.4,0,0,.16-.16.26-.08.09.07.15.08.26.2.11.12.99.38,1,.43.01.05-.12.66-.06.62.06-.04.62-.47.62-.47,0,0,.57.22.64.42.07.2.08.54.13.55.05.01.16.19.23.08.07-.11.15-.08.16-.26.01-.18-.01-.1-.02-.31s.2-.29.13-.43c-.07-.14-.19-.1-.11-.36.08-.26.13-.56.13-.56,0,0,.14-.14.14.07s.05.31.04.38c-.01.07-.07.19-.07.19l.2.16s-.12-.05-.12.24.08.74.01.89c-.07.14-.14.12-.13.28s.23.64.25.67c.01.04.42-.19.36-.07-.06.12-.2.2-.18.3.02.1.14.28.13.38-.01.11-.14.32-.09.44.05.12.37.82.37.82,0,0,.2-.04.2-.16s-.25-.64-.15-.61c.09.02.14.11.22.02.08-.08.2-.37.23-.26,0,0-.05.16.02.18.07.02.26-.01.23.05-.02.06-.27.31-.26.35.01.04.56.29.6.29s.23-.18.27-.24c.04-.06.79-1.41.82-1.44.02-.04-.07-.36-.07-.42s.21-.54.21-.54l-.43-.24s-.23-.49-.27-.52c-.03-.02-1.55-1.6-1.55-1.6,0,0-.02-.38-.07-.43-.05-.05-.51-.36-.51-.36l-.56-.62-.68-2.3.08-3.33s-.51-1.26-.51-1.38v-1.81s.19-.68.18-.74c-.01-.06-.11-.25-.14-.26-.04-.01-.54.02-.54.02l-.2-.3s-.11-.62-.12-.66c-.01-.04-.33-.59-.33-.65s.13-.56.13-.56l.05.42.29-.02s.11-.34.14-.32.28.14.28.14c0,0,.07-.13.11-.19.03-.06.03-.59.03-.59,0,0,.62.14.62.06s.11-.49.11-.49l.19-.3.19-1.05-.12-.12s-.08-.43-.09-.4c-.01.04-.15.52-.15.52l-.28-.17-.05-.23h-.25s-.02.42-.02.42c0,0,.14.28.07.32-.07.05-.56.01-.56.01l-.16.32-.12-.1.42-1.45.32.06.13-.34-.09-.54h-.29s-.23.43-.3.35c-.07-.08-.12-.12-.12-.19s.21-.35.23-.4c.02-.05.12-.4.12-.4,0,0,.02-.08.06-.04.04.05.22.37.22.37,0,0,.06-.2.11-.19.05.01.33.17.33.23s-.07.16-.07.19.01.53.06.5c.05-.02.64-.56.64-.56l-.09-1.02s-.39.08-.39.05-.05-.35-.05-.35l-.37-.22s-.14.19-.15.11c-.01-.08-.06-.36-.06-.36l-.07-.04s-.15.22-.19.23c-.04.01-.37.12-.33.04.05-.08.32-.56.21-.53-.11.04-.33.28-.33.13s-.06-.5-.06-.5c0,0-.43.05-.43.08s-.11.4-.11.4c0,0-.26-.11-.26-.14s.01-.58-.02-.61c-.04-.04-.49-.06-.49-.11s-.02-.43.01-.42c.03.01.48.19.48.19l.19-.11s.07.37.23.4c.16.02.54.07.54.07l.3-.28.09.34s.07-.36.23-.28c.16.08.13.2.11.24-.02.04-.12.41-.12.41,0,0,.25-.14.28-.07.03.07-.02.25-.02.25,0,0,.29-.02.3.05.01.07.12.44.21.46.09.01.23-.06.25-.11.01-.05.14-.23.14-.23,0,0,.13-.02.14.01.01.04.21.74.25.78.03.04.35.35.35.35l.18.02s.05-.13.02-.17c-.02-.04-.23-.47-.23-.47,0,0,.14.13.16.04.02-.1.04-.6.04-.6l.34-.47-.25-.19-.32.26s-.18-.93-.21-.91c-.04.01-.19.17-.19.17l-.3-.18-.18-.66s-.23-.2-.23-.24-.27-.61-.27-.61l-.21-.22s-.27.11-.27.06-.15-.52-.15-.52l-.88-.36s-.14.02-.16.06-.03.14-.13.13c-.09-.01-.08.12-.09-.01-.01-.13-.05-.62-.05-.62,0,0,.4.02.4-.02s0-.47-.03-.49c-.03-.02-.43-.01-.43-.01v-.35s-.54-.16-.54-.16l-.55-.46s.6.06.63.07.27.26.33.26.16-.06.22-.06.12.12.15.12.23-.17.28-.06c.05.11.08.41.16.42.08.01.21,0,.28.02.07.02.2.18.2.29s.1.62.1.62c0,0,.16-.02.22.02.06.05.32.25.33.36.01.11.09.34.13.38.03.05.79.89.84.91.05.02.2.35.2.35,0,0,.47.02.5.05.03.02.21.17.26.14.05-.02.08-.41.05-.44-.03-.04-.41-.26-.41-.26,0,0-.11-.18-.11-.24s.23-.14.23-.14l.4.41s.22.12.21.08c-.01-.04.09-.35.08-.4-.01-.05-.23-.34-.2-.34s.26.02.28.06c.02.04.16.4.19.35.02-.05.44-.44.44-.44,0,0-.29.89-.23.84.06-.05.09-.29.23-.32.14-.04.61-.28.61-.28,0,0-.58-1.08-.62-1.09-.04-.01-.5-.32-.56-.34-.06-.01-.39-.06-.44-.04-.06.02-.49.17-.49.17l.13-.56-.71-.13-.3.34s-.02-.34-.06-.34-.18.07-.23.04c-.06-.04-.22-.31-.22-.31l-.3-.05s.13-.24.05-.29-.4-.4-.4-.4l.05-.5s.48.1.48.19-.02.58-.02.58c0,0,.09-.12.22-.08.13.04.21.25.26.24.05-.01.21-.29.25-.24.03.05.18.22.18.22,0,0,.21-.2.28-.19.07.01.22.1.23.06.01-.04.04-.47.04-.47,0,0,.19-.11.35-.11s.4.1.44.18c.05.08-.07.35-.07.43s.01.31.19.49c.18.18.26.37.26.31s.32-.84.28-1c-.03-.16-.44-.9-.47-.96-.02-.06.15-.87.12-.89-.04-.02-.25.05-.25.05,0,0-.11.59-.12.64-.01.05-.13.3-.18.17-.05-.13-.25-.46-.25-.46h-.86s0-.2.03-.23c.03-.02.85.06.85.06,0,0,.03-.1-.11-.19-.14-.1-.35-.4-.35-.4,0,0,.6.2.69.2s.39-.11.23-.22c-.15-.11-.75-.44-.78-.49-.04-.05-.28-.16-.28-.3s-.07-.41-.07-.41c0,0,.05-.2-.12.07-.16.28-.48.49-.48.49,0,0-.07-.07-.07.07v.32s-.13-.05-.19-.04c-.06.01-.01.22-.16.22s-.32.08-.25-.17c.07-.25.44-.64.44-.64,0,0-.2-.41-.23-.34-.03.07-.13.66-.27.7-.14.04-.9.29-.9.2s.01-.12.13-.22c.12-.1.76-.48.77-.6.01-.12.3-.13.06-.41-.25-.28-.34-.11-.44-.34-.1-.23-.15-.55-.15-.55l.07-.58-.25.17-.14-.25-.36.26s-.23-.13-.27-.11-.05.52-.05.52c0,0,.27,0,.2.19-.07.19-.25.83-.34.83s-.22-.06-.27.07c-.05.13-.23.71-.28.7-.05-.01-.19-.19-.15-.25.03-.06.35-.61.35-.61,0,0-.37.22-.43.14-.06-.07-.25-.14-.15-.2.09-.06.95-.41.93-.48-.01-.07-.07-.32-.11-.44-.04-.12-.27-.2-.21-.32.06-.12.32-.37.3-.41-.01-.04-.06-.22-.06-.22,0,0,.25.04.29-.02s.15-.02-.03-.28c-.19-.25-.37-.47-.58-.48-.21-.01-.54.01-.57.02-.04.01-.21.25-.21.25,0,0-.03-.22-.09-.26-.06-.05-.29-.16-.29-.2s-.05-.43-.02-.52c.02-.08.12-.29.12-.29,0,0,.1.06.15.19.05.13-.06.48.06.43.12-.05.77-.42.77-.42,0,0-.02-.19-.06-.22-.03-.02-.47-.3-.53-.3s-.36-.52-.36-.52c0,0,.55.2.65.31.11.11.3.22.42.24.12.02.33-.18.37,0,.05.18-.02.82.13.73.15-.08.09-.26.42-.11.33.16.49.53.49.59s.19.32.19.32c0,0,.63-.12.64-.04.01.08-.14.53-.08.5.06-.02.41-.07.41-.07l.2-.29s.15.06.21-.05c.06-.11.05-.42.08-.43.04-.01.35-.41.36-.31.01.1.15.4.09.59-.06.19-.11.1-.39.41-.28.31-.34.49-.41.61-.07.12.03.22.12.26.08.05.48.02.55-.01.07-.04.02-.48.15-.44s.71-.04.69.08c-.02.12-.13.49-.13.55s.21.31.21.23.14-.62.22-.55c.08.07.22.12.3.08.08-.04.28-.29.37-.37s.36-.04.34-.19c-.02-.16,0-.36,0-.36l-.02-.25-.25.4-.54-.1s.18-.13-.06-.17c-.23-.04-.27-.02-.37-.17-.11-.14-.5-.59-.44-.78.06-.19-.08-.76-.12-.77-.04-.01-.36-.05-.43-.12-.07-.07-.18-.22-.21-.22s-.25-.14-.25-.14l-.23-.42s.71.14.81.17c.09.02.28-.05.28-.05l.15.11s-.22.32-.16.36c.06.04.48.18.51.19.04.01.3-.06.3-.06l-.18.52.2.72s.26.01.32.07c.06.06.11.23.23.24s.36.06.34,0c-.02-.06-.01-.41-.02-.46-.01-.05.23-.37.2-.43-.04-.06-.12-.37-.08-.36.03.01.16.1.26.04s.19-.55.19-.55l-.86.34-.05-.08s.33-.3.34-.37c.01-.07-.07-.25-.07-.25,0,0-.05.12-.19.07-.14-.05-.25-.2-.25-.2,0,0-.25.08-.26.05-.01-.04-.07-.13-.07-.17s.05-.17.05-.17l-.14-.05-.16-.02.04-.23s.3.12.29.07c-.01-.05-.08-.14-.02-.19.06-.05.04-.28.14-.08.1.19.3.32.41.34.11.01.25-.12.28-.12s.02.25.06.34c.04.08.07.24.15.14s.1-.23.18-.2c.07.02.2.19.21.25.01.06-.03.25.08.19.12-.06.22.06.28-.12.06-.18-.04-.44-.04-.44,0,0-.57-.13-.57-.19s-.08-.2.09-.22c.18-.01.57.07.57.07,0,0,.2-.16.27-.1.07.06.18.37.19.41.01.04.26.01.26.01l.13.35s.12-.23.15-.24.32.04.37.01c.06-.02.11-.17.01-.22-.09-.05-.34-.24-.34-.24,0,0-.06-.05-.16-.07-.11-.02-.29-.05-.29-.16s.16-.06,0-.11c-.16-.05-.68.11-.7-.04-.02-.14-.13-.25-.08-.26.05-.01.42.05.4-.05-.02-.1,0-.29,0-.29,0,0,.09-.17.19-.12.09.05.11.12.12.16.01.04-.08.16.01.19.09.04.33.24.41.25.08.01.19-.02.18-.06-.01-.04-.37-.82-.37-.94s.07-.87.02-.81c-.05.06-.29.29-.35.22-.06-.07-.19-.17-.29-.17s-.19-.05-.22.04c-.03.08-.05.47-.2.3-.15-.17-.14-.38-.32-.38s-.74-.04-.71-.1c.02-.06.05-.3.14-.24.09.06.47.18.54.18s.26.1.46-.06c.2-.16.33-.54.36-.54s.34-.04.43.01c.09.05.43.36.44.3s-.07-.22.07-.14c.14.07.46.02.58.22.13.19.27.44.19.59-.08.14.04.43-.05.46-.08.02-.5.14-.47.14s.63.16.63.16c0,0-.13.36-.11.43.02.07.34.82.34.89s-.28.49-.25.5c.03.01.37.29.42.18.05-.11.21-.52.23-.56.02-.05.23-.26.27-.32.04-.06-.09-.31.05-.4s.15-.08.16-.17-.01-.3-.08-.36c-.07-.06-.28-.05-.23-.18s.13-.23.05-.28c-.08-.05-.5-.31-.47-.36.03-.05.4-.89.4-.89l-.18-.26s.16.16.32,0c.15-.16,0-.53,0-.53,0,0,.33-.14.33-.18s.22-.36.16-.55c-.06-.19-.26-.53-.26-.53,0,0-.4.1-.42.13-.02.04-.14.42-.2.25-.06-.17-.21-.31-.21-.31,0,0,.47-.41.53-.42.06-.01.36.08.39.05.02-.04.61-.52.63-.55.02-.04.37-.2.34-.17-.03.04-.4,1.06-.4,1.06,0,0,.4.47.4.5s-.57,1.19-.58,1.26c-.01.07-.02.61-.03.66-.01.05-.09-.04-.18.08-.08.12-.05.28-.05.4s.04.19.13.24c.09.05.22.05.3.12.08.07.37.52.37.52,0,0,.29-.43.33-.44s.47-.14.49-.23.35-.82.32-.81c-.04.01-.47.12-.63.05l-.16-.07-.23.1s-.19-.02-.26-.16c-.07-.13-.14-.48-.08-.61.06-.13.08-.22.08-.22,0,0,.13.61.21.61s.25-.06.33-.14c.08-.08.08-.19.13-.08.05.11.35.24.43.24s.21-.13.23-.08c.02.05.27.5.26.43-.01-.07.4-1.03.47-1.02.07.01.28.06.39-.05.1-.11.76-.7.79-.71s.41-.04.48-.18c.07-.14.04-.28.05-.37.01-.1-.02-.9-.02-.94s.04-.53.04-.53l-.35-.44s-.12.25-.21.17c-.09-.08-.41-.28-.4-.34.01-.06-.04-.62-.04-.62,0,0,.21.1.25.18.03.08-.01.24.13.18.14-.06.11.06.2-.12.09-.18.44-1.35.53-1.37.08-.02.23.05.47-.14.23-.19.2-.35.34-.35s.71-.16.71-.16l-.13-.18s-.27-.12-.27-.16-.04-.08.02-.1c.06-.01.28.14.36.06.08-.08.29-.44.36-.3.07.14,0,.61.11.7.11.08.15.01.32.08.16.07.39.37.4.31.01-.06.02-.05.01-.18-.01-.13-.19-.29-.08-.46.1-.17.2-.38.34-.43.14-.05.55-.18.55-.18,0,0,.06-.64.16-.67.11-.04.4-.43.43-.24s.2.11.09.48c-.11.37-.44.85-.44.85l-.13-.1s-.08-.02-.06.08c.02.11.14.48.14.48l-.11.32s.08-.13.13-.01c.05.12.08.31.07.36-.01.05-.41.24-.41.24,0,0-.02.3-.04.4-.01.1-.57.84-.57,1.01s.15.53.07.64c-.08.11-.36.38-.36.49s.07.22.1.24c.03.02.14.14.3-.07.16-.22.33-.64.46-.72s.22.01.33-.1c.11-.11.16-.23.27-.37s.58-.56.7-.64c.12-.07.25-.25.14-.32-.1-.07-.19-.04-.25-.07-.06-.04-.07-.19-.04-.2.04-.01.92-.08.92-.08,0,0,.01.17.06.17s.18.11.22-.05c.05-.16.71-1.53.71-1.53,0,0,.55-.31.53-.38-.02-.07-.22-.16-.14-.31.08-.16.33-.47.33-.47l.23-.16.03-.16s-.03.13.03.3c.07.17.32.71.32.71,0,0-.48-.23-.47-.08.01.14.05.5.01.5s-.29-.16-.25-.07c.05.08.19.2.08.34-.11.13-.46.35-.61.46-.15.11-.28.19-.28.19,0,0,0,.12.18.08.18-.04.2-.22.18-.04-.02.18-.09.2-.11.3-.01.1.27.3.27.34s-.48.11-.48.11l-.15-.07s-.06.23-.15.31c-.09.08-.91.32-.91.32,0,0-.22.44-.15.47.07.02.41.08.5.06.09-.02.34-.28.35-.19.01.08.4.43.43.47.03.04.43-.1.44-.02.01.07.08.47.18.49.09.02.33.01.33.01,0,0-.23.05-.03.2.2.16.34.28.4.31.06.04.29.14.29.14l-.69.02-.07-.18s-.4-.01-.44-.08c-.05-.07-.3-.54-.43-.56-.13-.02-.44-.1-.44-.1,0,0,.01-.23-.18-.16-.19.07-.56.46-.57.37-.01-.08-.08-.26-.16-.26s-.26-.12-.4,0c-.14.12-.36.34-.36.34,0,0,.27.05.26.2-.01.16.11.35.02.35s-.44-.18-.46-.25c-.01-.07-.07-.42-.15-.26-.08.16-.37.95-.49,1.03-.12.08-.27.08-.36.19-.09.11-.16.54-.15.61.01.07.34.14.35.23s.19.2.01.24c-.18.04-.3.04-.36-.05-.06-.08,0-.31-.19-.22-.19.1-.75.48-.77.58-.02.1-.15.34-.14.38.01.05.32.29.36.3.05.01.84-.01.91,0,.07.01.18.06.29.16.12.1.29.46.29.46,0,0,.15-.34.21-.36.06-.02.47-.06.47-.06l-.2-.25.35.19.15-.22.3.25.06-.43.15.22.3-.3-.11.28.26.14s-.32.01-.35.05c-.04.04-.01.04-.13.13-.12.1-.39.05-.39.05l-.05.12s.36-.08.48-.06c.12.02.54.28.6.28s.23-.05.23-.05c0,0,.25.12.36.11.12-.01,1.59-.32,1.59-.32,0,0,.06.12,0,.22-.06.1-.27.17-.27.17l-.15-.07s-.15.01-.11.17c.05.16.06.31.06.31,0,0-.2-.36-.29-.38-.09-.02-.18-.08-.26-.02s-.07.11-.19.13c-.12.02-.41.02-.42.06-.01.04-.12.3-.12.3l-.05-.34s-.02.08-.15.04c-.2-.06-.36-.23-.47-.12-.11.11-.13.32-.13.32,0,0,.15.14.15.2s-.23-.01-.23-.01c0,0-.13-.06-.14-.19-.01-.13.06-.29.06-.32s-.01-.18-.11-.12c-.09.06-.35.13-.41.23-.06.1-.32.38-.32.38,0,0,.22-.37.22-.46s-.06-.2-.22-.24c-.16-.04-.22-.08-.39.01-.16.1-.32.24-.28.3.03.06.13.36.13.36,0,0-.21-.08-.23-.12-.02-.04-.27-.08-.27-.08v-.26s-.15-.22-.27-.19-.68.35-.68.35l.07.29s-.39.35-.41.19.08-.68.08-.68c0,0-.63-.26-.71-.22-.08.05-.83.16-.83.16,0,0-.44-.24-.58-.25-.14-.01-.36-.02-.36-.02,0,0-.11.7-.18.76-.07.06-.39.24-.39.24l.03.34.42.06v.19s.78.2.78.2c0,0,.39.3.39.34s-.09.05-.09.05l-.72-.26-.4.17-.22-.36-.12.08.07.36-.55.07.11-.53s-.21-.07-.3-.01c-.09.06-.3-.07-.34-.04-.04.04-.44.54-.44.64s.02.46.02.46c0,0,.21-.05.21,0s.01.24.01.24l.2.14s.19-.18.22-.17.08.08.06.17c-.02.08-.08.22-.08.3s.22.37.18.44c-.05.07-.3.32-.3.32,0,0-.18-.42-.18-.5s-.05-.5-.12-.5l-.3.14-.11.46-.33-.1.14.44-.06.55.18.08.12.22.32-.06-.29.53-.3-.46-.32-.25.06-.42-.09-.14-.22.83s-.54.93-.54.96-.2.7-.2.7l-.79,1.77-.15.42s-.03.16,0,.19.16.16.18.12c.01-.04.11-.23.12-.29s.23-.22.23-.22c0,0-.06.32-.05.41.01.08.51.68.5.77-.01.08-.05.37-.05.37,0,0-.13.06-.13.1s.35.53.37.61c.02.08.35,2.02.3,2.04-.05.02-.25.07-.28.2-.03.13-.15.3-.08.43.07.13.63.71.68.74.05.04.16-.26.2-.26s.58.28.56.24c-.02-.04-.53-.67-.51-.71.01-.04.11-.47.09-.56-.01-.1-.08-.16-.12-.16s-.26.07-.27.04c-.01-.04-.12-1.39-.12-1.39,0,0,.13,0,.18.14.05.14.21.87.21.87,0,0,.23.08.19-.01-.05-.1-.06-.36-.07-.58-.01-.22.06-.71.03-.75-.02-.04-.41-.22-.41-.22,0,0-.06-.34-.07-.44-.01-.11-.11-.36-.11-.36,0,0,.06-.11.15-.07.09.04.18.29.18.29,0,0,.25-.2.23-.08s-.12.48-.07.52c.05.04.36.5.48.34.12-.17.53-.73.51-.82-.01-.08-.25-.29-.25-.29l-.28-.18s.25.05.3,0c.06-.05.14-.22.12-.3s-.12-.43-.23-.49-.26.02-.26-.04.07-.6.07-.6l-.18-.04s.02-.22.07-.24c.05-.02.22.01.34-.08.12-.1.41-.42.41-.42l-.28,1.12s.26.8.3.79.47-.2.47-.2c0,0,.2-.22.12-.31-.08-.1-.19-.12-.19-.28s.14-.48.22-.55c.08-.07.13-.12.33-.17.2-.05.44-.22.44-.22l-.22.67s-.35-.12-.36-.07c-.01.05-.05.48-.01.48s.16.02.11.2c-.06.18.01.3-.09.41-.1.11-.64.54-.7.7-.06.16-.11.65-.06.66.05.01.26-.07.26-.07,0,0,.02-.26.09-.3.07-.04.32-.02.41-.13.09-.11.32-.58.4-.55.08.02,0,.38.14.37.14-.01.21-.12.25-.16.04-.04.04-.67.14-.68l.68-.04.13-.22s-.2-.18-.18-.29c.02-.11-.1-.2.04-.24.14-.04.79-.22.83-.23.03-.01.27-.23.27-.26v-.35l-.68-.75s.05-.14.11-.26c.06-.12.71-.65.72-.68.01-.04.2-.42.28-.47.08-.05.08-.02.22-.1.14-.07.44-.38.48-.4s.54-.08.65-.12c.12-.04.32-.18.35-.18s.34.19.43.19.92.01.9.05c-.02.04-.2.25-.26.25s-1.2-.24-1.27-.22c-.07.02-.64.28-.64.28,0,0-1.6,1.48-1.57,1.49.03.01.67.58.67.58v.77s.25.08.25.08c0,0,.54-.13.57-.12.04.01.09.1.06.14-.04.05-.75.37-.75.37,0,0-.39.41-.39.36s.15-.53.08-.52c-.07.01-.69.16-.72.22-.03.06-.12.11-.12.16s.15.38.08.47c-.07.08-1.19,1.02-1.2,1.09-.01.07-.07.49-.19.5s-.64-.07-.58.05c.06.12.06.25.16.29.11.04.43.08.49.05.06-.04.37-.23.37-.23,0,0,.16-.04.19.04.02.07-.15.2.01.26.16.06.43.44.43.44l.08.31s-.11.13-.16.08c-.06-.05-.15-.55-.4-.55s-.28-.08-.37,0-.18.37-.22.28c-.05-.1-.3-.29-.3-.29l-.27.1s-.12-.31-.2-.28c-.08.04-.15.14-.15.14,0,0,.25.17.16.17s-.18-.06-.19.01c-.01.07-.12.25-.12.25,0,0,.41.26.4.31-.01.05-.49-.04-.46.02.03.06.71.83.57.78-.14-.05-.88-.26-.91-.36s-.07-.46-.07-.46c-.08.18-.23.42-.23.42,0,0-.22-.05-.18-.01.05.04.21.11.26.26.05.16.07.48.07.48,0,0,.68-.24.58-.14-.09.1-.35.49-.35.59s.05.7.08.68.25-.41.35-.41.21,0,.21.05.03.26-.06.34c-.09.07-.4.6-.53.55-.13-.05-.19-.25-.19-.25,0,0-.06-.1-.18.04-.12.13-.72,1.18-.79,1.18s-.18-.3-.23-.28c-.06.02-.13.17-.25.1-.12-.07-.29-.16-.29-.16l-.16.07-.21-.04s0,.42.03.46c.04.04.53.17.49.22-.03.05.03.12-.02.13-.06.01-.42-.14-.35.02.07.17.29.6.33.54.03-.06.32-.18.36-.17.05.01.19.05.2.08.01.04-.01.25-.09.28-.08.02-.15.12-.15.12,0,0,.35-.11.33.06-.02.17-.06,1.53-.06,1.53l.12-.44s.16.2.25.02c.08-.18.16-.74.16-.78s.08-.31.11-.17c.02.14.05,1.14.04,1.18-.01.04-.15-.22-.4.32-.25.54-.27,1.36-.27,1.36,0,0,.11.02.14,0,.04-.02.13-.2.13-.34s-.02-.61.07-.76c.09-.14.34-.25.43-.4.09-.14.29-.97.32-1.05.02-.07.03-.47.03-.47l-.19-.25s.35-.1.35-.22.04-.41-.05-.54c-.08-.13-.15-.43-.13-.47.02-.04.35-.34.28-.14-.07.19.18.55.21.59s.14.07.13.37-.2.8-.19.91c.01.11.11.05.08.18-.02.13-.25.48-.14.44,0,0,.67-.14.68-.06l.49.43s.06-1.33.06-1.37.19-.47.22-.47.3-.3.3-.05-.36.78-.32.93.07,1.01.14,1.06c.07.05.4.19.43.17.03-.02.27-.25.27-.25,0,0,.11-.07.09.11-.01.18.02.23-.05.29-.07.06-.56.29-.62.29s-.4-.14-.4-.14c0,0-.22.05-.13.1.09.05.25.4.25.44s-.16.22-.16.22c0,0-.2-.06-.23-.13-.03-.07-.02-.44-.14-.38s-.97.18-.95.26c.02.08-.1.1.05.2.15.11.5.13.42.2s-.11.3-.11.3c0,0-.11-.26-.19-.16-.08.11.01.44-.08.36s-.26-.36-.3-.26c-.05.1-.32.22-.35.2s-.49.01-.49.06-.05.59-.04.52c.01-.07.44-.26.48-.18.03.08.09.08.01.18-.08.1-.34.25-.35.35-.01.1-.07.37-.08.46-.01.08-.14.11-.14.19s.14.19.14.19c0,0,.54-.28.6-.25.06.02.03.13.03.13,0,0-.54.3-.54.37s-.01.25-.01.25c0,0,.06-.05.08.02.02.07.06.08.05.25-.01.17.27.46.27.42s.22-.73.22-.73c0,0,.26-.05.26,0s-.13.73-.13.73l.25-.08.28-.64s.51-.01.51-.06.02-.48.02-.48l.16-.08.04.13.33-.38s.21-.06.23.01-.12.41-.15.42c-.03.01-.2.06-.2.12s-.02.12.04.16c.06.04.23.02.27.1.03.07.13.17.07.22-.06.05-.48.16-.48.16,0,0-.02.17-.07.17s-.18-.08-.28-.04-.39.19-.53.36c-.14.17-.14.66-.33.65-.19-.01-1.41-.6-1.45-.62-.04-.02-.2-.55-.2-.55l.08-.28-.21-.17.14-.16s0-.29-.06-.34c-.06-.05-.42-.4-.42-.4l-.18.14-.46-.5h-.41s.01-.48.01-.48l.36-.34s.05-.46.05-.42-.85.77-.85.89.02.41-.02.46c-.05.05-.5.11-.57.16-.07.05-.14-.01-.18.14-.04.16-.33,1.39-.35,1.53-.02.13.01.2-.16.26-.18.06-.37.16-.37.16,0,0,.15.28.16.32.01.05-.37.58-.37.58,0,0-.01.7.01.74.02.05.19.07.21.13.02.06.03.2-.02.34-.06.13-.11.23-.14.37s-.15,1.19-.15,1.29,0,.41.04.42c.03.01.19.14.21.06.02-.08.23-.96.23-.96,0,0,.09.43.13.44.04.01.23-.07.22-.14s-.33-1.33-.28-1.39c.05-.06.51-.55.51-.55l-.06-.12s-.3.1-.28.05c.02-.05-.01-.12.04-.18.05-.06.26-.13.26-.26s-.23-.78-.2-.85.28-.25.32-.25.2.23.22.18c.02-.05.08-.05.09-.14.01-.1-.11-.74-.07-.73.04.01.18.04.21.08s.11.28.11.28c0,0,.36.06.36,0s.02-.32,0-.41c-.02-.08-.3-.35-.3-.38s-.18-.3-.06-.25c.12.05.42.22.48.18.06-.04.29-.3.33-.18.03.12-.21,1.05-.22,1.09-.01.05-.84,1.06-.89,1.09-.05.04-.13.25-.05.37.08.12.25.43.25.43v.78l.26-.4s.13.08.16.11c.04.02.2.42.23.42s.15.14.13-.11c-.02-.25-.14-.42-.07-.53.07-.11.29-.32.33-.36.04-.04.09-.26.09-.26,0,0-.13.08-.26.16-.13.07-.32.11-.44.07-.13-.04-.28-.75-.28-.75,0,0,.12-.18.16-.11.05.07.05.26.1.25.06-.01.13-.08.2-.04.07.05.13.12.2.13.07.01.58-.26.58-.26l-.4-.7s.02-.54.02-.58.15-.46.15-.46l.29-.16s.2-.11.14.05c-.06.16-.35.5-.32.6.04.1.04.6.06.64.02.04.35.29.36.19.01-.1,0-.31,0-.39s.18-.26.18-.26c0,0,.03.23.12.32.08.1.18.19.2.28.02.08-.13.56-.13.56l.36.17.57-.1s.16.08.16.2-.22.73-.22.73c0,0-.16-.3-.29-.22s-.35.6-.35.52-.13-.56-.16-.58c-.03-.01-.4-.13-.41-.1-.01.04-.11.06-.04.12.07.06.3.19.21.29-.09.1-.28.16-.23.22.04.05.31.79.35.96.01-.13.14-.6.14-.6,0,0,.44-.06.51-.02.07.04.13.02.15.14.02.12.11.3.08.34s-.07.08-.14.06c-.07-.02-.15-.12-.15-.12,0,0-.26.18-.26.22s.2.91.25.95c.05.04.29.18.29.08s-.08-.68-.08-.68c0,0,.13.01.27-.14.14-.16.29-.43.27-.48-.02-.05-.19-.47-.19-.47,0,0,.15.19.34.02.19-.17.4-.83.4-.83l.22.07-.29.89.11.16.39-.19s.07-.24.03-.29c-.03-.05-.16-.16-.13-.24.04-.08.44-.24.47-.28.02-.04-.02-.44-.02-.44l.25.05.19-.23-.16-.65.53.12s.47-.28.55-.26c.08.01.08.19.08.19,0,0-.3.01-.34.05-.03.04-.32.59-.29.65.02.06.3.02.3.02,0,0-.02.17.01.18.04.01.42.07.49.18.07.11.2.14,0,.23-.2.08-.64.2-.67.17-.02-.04.11-.28.03-.31-.07-.04-.15-.07-.33.02-.18.1-.39.28-.44.32-.06.05-.21.36-.16.36s.99-.04.99-.04l.07.5-.34-.23s.07.17-.02.16c-.09-.01-.39-.2-.42-.17-.03.04-.18.07-.14.12.03.05.4.22.41.28.01.06-.05.26-.05.26,0,0-.22-.13-.27-.13s-.42.22-.48.17c-.06-.05-.22-.37-.34-.38-.12-.01-.23.01-.25.12-.01.11,0,.29-.06.31-.06.02-.27.01-.26.06.01.05,0,.77,0,.77,0,0,.13.14.23.2.11.06.55-.05.58-.05s.25-.19.25-.19l.62-.23.04-.18s.71-.46.78-.42c.07.04.1.01.12.13.01.12-.16.26-.26.32-.09.06-.08.24-.08.37s-.69.19-.77.28c-.08.08-.05.19-.14.2-.09.01-.42-.01-.46.01-.03.02-.16.11-.16.22s.11.65.14.66.27-.25.39-.17c.12.08.49.23.49.16s-.05-.42.01-.47c.06-.05.47-.55.54-.55s.18-.1.19-.06c.01.04-.09.14.01.22.11.07.07.01.11.07.03.06-.06.42-.06.42,0,0-.28.14-.36.22-.08.07-.39.44-.34.52.05.07.29.62.29.56s.18-.65.18-.65c0,0,.2.18.2.22s-.03.22-.03.22c0,0,.15-.12.23-.13.08-.01.28-.06.32-.01.03.05.08.14.05.19-.04.05-.2.02-.14.16.06.13.93.81.93.81,0,0,.47-.47.47-.5s-.07-.61-.07-.61c0,0-.04-.16.1-.05.14.11.28.35.29.43.01.08-.12.19-.12.19,0,0,.12.22.08.32-.03.11-.03.16-.08.17-.05.01-.04-.1-.16.07s-.05.38-.05.38c0,0,.28-.23.34-.28.06-.05.44-.2.49-.19.05.01.14-.26.18-.36s.26-.26.26-.34-.26-.85-.25-.89c.01-.04.12-.29.21-.3s.37-.12.48-.17c.1-.05.3-.17.3-.28s.07-.62.06-.68c-.01-.06-.48-1.03-.55-1.05-.07-.01-.49.02-.49.02l-.16-.52s-.05-.29-.07-.37c-.02-.08-.48-.42-.47-.47.01-.05-.14-.29.05-.36.19-.07.37-.08.39-.18.01-.1.14-.66.14-.73s.32-.38.39-.47c.07-.09.34-.23.37-.3.04-.06.16-.36.23-.37.07-.01.34.06.43.02.09-.04.51-.67.51-.67,0,0,.72-.31.76-.42.04-.11.06-.47.06-.47,0,0,.15.06.15.1s-.01.28.05.28.2-.05.21,0c.01.05-.07.26-.13.35-.06.08-1.04.49-1.11.65-.07.16-.33.55-.4.6-.07.05-.29-.06-.4-.01-.11.05-.88.78-.91.85s.06.81,0,.84c-.06.04-.47.01-.42.14.05.13-.08.17.08.31s.46.35.46.42-.08.13-.05.24c.03.11-.11.23.16.24.27.01.37.04.41.11s.2.52.23.55c.03.04.14.14.28.26.14.12.23.05.22.19-.01.14-.51,1.27-.29,1.31.22.04.88.23.77.28-.11.05-.48.11-.58.13-.11.02-.5-.12-.55-.02-.05.1-.16.42-.11.46.06.04.39.1.33.14-.06.05-.33.23-.25.3.08.07.19.24.19.24,0,0-.33.18-.32.25.01.07.1.17.1.28s.09.2-.01.2-.84,0-.84.04.23.16.02.18c-.21.02-.28-.05-.35.02-.07.07-.12.46-.12.46,0,0-.27-.1-.32-.02-.05.07-.14.34-.27.25s-.27-.3-.49-.34c-.22-.04-.63-.14-.65-.19-.02-.05-.03-.38-.07-.4-.03-.01-.47.05-.42,0,.05-.05.2-.34.16-.35-.04-.01.01-.18-.19.02-.2.2-.46.35-.51.44-.06.1-.01.52-.13.34-.12-.18.11-.28-.2-.52-.3-.24-.54-.62-.63-.62s-.09.02-.25.08c-.15.06-.39.22-.43.2-.05-.01-.09-.24-.18-.23-.08.01-.62.07-.63.01-.01-.06-.01-.3.12-.28.13.02.21.12.34-.02s.16-.13.14-.25c-.02-.12-.03-.41-.03-.41,0,0,.16.04.2,0,.04-.04.07-.18-.05-.18s-.29-.06-.35.02c-.06.08-.85.97-.91.94-.06-.04-.19-.35-.29-.35s-.23-.01-.34.05c-.11.06-.18.11-.18.11l-.08-.43.19-.13s-.68-.01-.68.02.13.38.13.38c0,0-.44.29-.49.25-.05-.04-.16-.13-.15-.17.01-.04-.06-.37-.06-.37,0,0-.37-.44-.41-.44s-.13.05-.13.12.19.24.21.4c.02.16.19.41.19.41l.08.4s.42-.1.43-.06.09.07.05.24c-.05.17-.22.5-.26.61-.04.11-.36.34-.36.34,0,0-.03-.2-.08-.24-.05-.04-.22-.18-.26-.16-.04.02-.58.38-.57.46.01.07-.03.36-.03.36,0,0,.11.07.18.04.07-.04.49-.13.53-.11.04.02.28.4.3.43.02.04.09.88.09.88,0,0,.26-.46.26-.52s-.09-.89-.09-.89c0,0,.2-.34.2-.3s.02.91.06.94c.03.02.29.24.29.24l.14-.14s-.21-.53-.2-.61c.01-.08.21-.94.27-.87.06.07.15.42.15.48s-.09.62-.09.62l.22.11-.02.42.36-.61-.21-.88s.2.06.22.13c.02.07.12.19.19.23.07.04.23.04.23.04l.29-.46-.08.7s.27-.01.34-.02c.07-.01.25.01.3-.07.06-.08.1-.62.1-.62l.43.22.26.06s-.61.31-.61.37.14.53.14.53c0,0-.27.08-.3.07s-.33-.11-.4-.11-.36.08-.46.18c-.09.1-.16.1.06.25.22.16.64.46.64.46,0,0,.27-.23.35-.23s.61.07.65.06c.05-.01.09-.01.09-.12s0-.2.05-.2.53-.04.53-.04c0,0-.35.22-.33.25.02.04.07.49.07.49l-.72-.05-.33.47.34.23s-.05.18-.12.2c-.07.02-.5-.16-.5-.16l.08-.52s-.21.1-.28.04c-.07-.06-.92-.64-.92-.64,0,0,.23.6.16.66-.07.06-.36.24-.36.17s-.08-.42-.08-.42c0,0-.09-.06-.09,0s-.14.68-.14.68h-.14s.07-.48.04-.49c-.04-.01-.05-.24-.13-.06-.08.18-.3.48-.34.48s-.27.16-.23.16.29.32.34.42c.05.1.03.3-.07.31s-.18.06-.21,0c-.04-.06-.18-.37-.18-.3s-.49,1.14-.44,1.18c.05.04.53.44.48.5-.05.06-.06.24-.09.23-.04-.01-.65-.32-.68-.37-.02-.05-.19-.67-.19-.67,0,0,.41-.72.43-.76.02-.04.02-.44.02-.44h-.42s0,.44-.07.44-.49.11-.49.11c0,0-.2-.13-.22-.08-.02.05-.02.29-.02.29l-.28-.11s-.12-.01-.12.04.61,1.42.7,1.59c.09.17.68.97.68.97,0,0,.15.41.23.54.08.13.29,1.87.33,1.87s.13.19.14.05c.01-.14.06-.68.09-.68s.62.34.61.38c-.01.05-.07.24-.01.32.06.08.48.4.48.4,0,0,.15-.05.05-.18-.11-.13-.23-.38-.23-.44s.18-.31.18-.42-.05-.72-.05-.72c0,0,.32.04.36.1.05.06.25.14.21.3s-.27.62-.19.62.37.08.37.05,0-.43.08-.41c.08.02.23,0,.19.16-.05.16-.07.3-.02.32.05.02.32.06.32.06l.19.22s.1-.13.14-.1c.03.04.05.23.16.3.12.07,0,.47.13.54.13.07.44.13.44.13,0,0,.11.56.11.6s-.11.14-.11.14c0,0-.13-.07-.13-.04s-.1.17-.09.2c.01.04.51.28.51.28l.29-.19.27.4s-.2.28-.2.35-.36.59-.34.66c.02.07.11.29.11.29l.26-.26s.44.08.42.04c-.02-.05-.23-.53-.23-.53,0,0,.15-.26.26-.29.11-.02.5-.13.54-.07.04.06.08.24.02.26-.06.02-.27.29-.27.29,0,0,.37-.23.4-.13.02.1.03.3.1.32.07.02.37-.08.37-.08,0,0-.07.16-.03.19.03.04.15.18.15.22s-.23.37-.28.4c-.05.02-.34,0-.33.07.01.07-.08.24.07.25.15.01.67-.11.67-.07s.2.37.25.54c.05.17.2.55.29.59.09.04.3-.11.37-.01.07.1.44.36.43.32-.01-.04-.07-.93-.11-.95-.03-.02-.2-.14-.19-.22.01-.07.25-.72.12-.81-.13-.08-.41-.28-.29-.3.12-.02.33-.04.36-.06.03-.02.2-.23.2-.28s-.37-.66-.37-.66l-.65-.2.35-.16s.21.04.21-.11.18-.46.2-.61c.02-.16.79-1.03.78-1.07-.01-.04-.16-.19-.14-.28.02-.08.16-.23.2-.35.03-.12-.06-.38-.06-.38,0,0,.16.23.28.28.12.05.5-.02.54.04s.3.58.3.58l.37.24s-.13.01-.14.1c-.01.08-.02.75-.02.75,0,0-.39.04-.41.07-.02.04-.53.28-.56.32-.04.05-.76.23-.76.23,0,0-.06.16.02.18.08.02.46.2.46.24s-.07.2-.05.24c.02.04.26.16.28.2.02.05.12.36.15.36s.32-.01.32-.01l.11.32-.11.3s.32.18.34.22c.02.04.05.22.09.25.05.04.36.14.36.14l-.07.14s-.19.01-.22.11c-.04.1-.21.28-.21.31s.05.14.11.11c.06-.04.5-.2.54-.23s.3-.48.22-.52c-.08-.04-.33-.1-.34-.14-.01-.05-.15-1.33-.15-1.33,0,0,.14.05.16.12.02.07.15.6.15.6,0,0,.13.05.13-.04s-.07-.43.05-.5c.12-.07.2-.42.2-.42,0,0-.1.12-.14.01-.03-.11-.08-.18-.02-.22.06-.04.13-.08.12-.16-.01-.07-.05-.44,0-.47.05-.02.63-.64.63-.64l.27-.6.55-.53-.15-.22s.07-.46.09-.42c.02.04.32.66.32.66,0,0,.29-.32.28-.37-.01-.05-.14-.2-.14-.24s.22-.68.37-.72c.15-.04.5-.16.5-.16,0,0-.29-.2-.29-.26s.21-1.24.27-1.24.27.01.34,0c.07-.01.19-.16.19-.16l-.36-.18-.04-.36.27-.44s.05-.04.03.08c-.01.12-.12.41-.03.42.08.01.42-.23.5,0,.08.23,0,.82,0,.82l-.71.32s-.13.14-.12.29-.19-.04.07.25.43.46.41.53c-.02.07-.43.42-.48.44-.05.02-.46.07-.46.07,0,0-.06.08,0,.16.06.07.19.11.18.16-.01.05.16.13,0,.25-.16.12-.5.54-.5.65s-.26.79-.26.79c0,0-.32.07-.35.22-.03.14-.21.84-.25.91-.03.07-.34.12-.32.19.02.07.25.28.21.37-.04.1-.12.5-.14.54-.02.04-.26.14-.27.26-.01.12-.01.25.05.29.06.04.21.06.22.12.01.06-.18.43-.06.5.12.07.22.02.3.19.08.17.12.4.16.4s.54.04.48-.02c-.06-.06-.27-.07-.29-.3-.02-.23.15-.5.15-.5,0,0,.07-.14.08-.2.01-.06.02-.47.02-.47,0,0,.33-.11.29,0-.03.11-.08.52-.05.55.03.04.18.22.28.18.11-.04.22,0,.27-.07.05-.07.09-.36.2-.36s.4.06.49,0,.25-.18.3-.18.74-.02.74.04-.07.2-.07.2c0,0-1.1.19-1.22.24-.12.05-.71.5-.72.54-.01.04-.06.16-.04.22.02.06.25.22.25.22,0,0,.19-.19.25-.19s.42.11.47.07c.05-.04.08-.16.13-.12.05.04.01-.17.09.23.08.4.02.59.02.59h-.21s-.09-.52-.2-.31c-.11.2-.76.89-.76.89,0,0-.05-.32-.15-.22-.1.11-.37.46-.39.42-.01-.04-.02-.25-.06-.26s-.47.08-.58.12c-.12.04-.33.05-.34.08-.01.04-.12.29-.12.29l-.58-.05s-.48.18-.46.24c.02.06.14.47.15.62.01.16-.26.65-.26.79s.01.58.03.62c.02.05.12.16.12.16,0,0,.07-.18.2-.18s.26-.05.33,0c.07.05.08.16.18.16s.28-.14.25-.2c-.04-.06-.18-.08-.19-.18-.01-.1-.2-.19-.06-.29s.75-.28.75-.14-.06.37.01.3c.07-.07.44-.54.53-.43.08.11.2.22.21.28.01.06-.06.17-.03.23s.11.16.12.12c.01-.04.06-.2.18-.24.12-.04.44,0,.46-.04.01-.04.02-.56.02-.56l.36.42s.12.08.12.05.02-.37.09-.38c.07-.01.34.08.39.04.05-.05.26-.26.29-.24.04.02.08.28.08.28,0,0-.39.37-.19.31.2-.06,1.17-.85,1.17-.85,0,0,.36.07.41.11.05.04.33.3.33.3,0,0,.01.1-.06.11-.07.01-.09-.14-.32-.1-.22.05-.62.37-.65.44-.03.07-.21.14.04.16.25.01.54-.16.57-.16s.15-.1.16-.04c.01.06.02.22-.14.28s-.44.08-.44.08l-.16.26-.28-.25-.2.23-.18-.19s.08.16-.15.18-.33-.02-.42.01c-.09.04-.47.22-.47.22,0,0,.03.32.08.38.05.06.19.16.21.19.02.04-.04.47-.04.47,0,0-.46-.02-.47-.08-.01-.06.12-.66-.07-.42-.19.24-.37.61-.37.61,0,0,.14.1.08.14-.06.05-.35.06-.35.06,0,0,.27.43.28.47.01.04-.11.1-.11.1,0,0-.19-.17-.22-.17s-.23.25-.23.25c0,0,.32-.04.32,0s-.06.61-.01.55c.05-.06.6-.47.69-.43s.61.11.61.11c0,0,.19-.22.25-.2.06.01.16.02.18.08s-.05.26.05.26.15,0,.16-.07c.01-.07.08-.3.15-.3s.4-.05.4-.08-.37-.55-.2-.56c.18-.01.33.05.41-.07.08-.12.28-.54.39-.48s.34-.02.32.12c-.02.14.07.32.07.32l.29.16-.41.18s-.21-.24-.26-.18c-.05.06-.14.32-.14.32l.37.13s.05.12,0,.12-.37.01-.43.1c-.06.08-.58.62-.58.62,0,0,.3.3.19.38-.12.08-.09.14-.13.16-.03.01-.39-.19-.39-.19,0,0-.19.17-.22.12-.04-.05-.18-.14-.2-.11-.02.04-.13.17-.2.17s-.35-.11-.3.01c.05.12.12.25.23.25s.28-.07.3-.01c.02.06.01.46-.02.46s-.06-.11-.2-.11-.69.22-.69.04.07-.44,0-.44-.53-.04-.54,0c-.01.04-.13.14-.05.17.08.02.22.02.26.11.04.08.14.22.08.24-.06.02-.28-.08-.3-.05-.02.04-.08.23-.04.23s.19-.14.22.07.06.28.05.31c-.01.04-.33-.12-.35-.06-.02.06-.76,1.43-.75,1.49.01.06.09.11.09.11l.23-.29s.07.1.1.1.35-.83.35-.83c0,0,.33-.01.37.04.05.05.13-.02.08.13-.05.16-.14.23-.18.37-.03.14-.14.89-.14.89l.49-.23s.22-.16.15,0c-.07.16-.22.28-.26.37-.03.1-.09.28-.09.28,0,0-.28-.01-.34.05-.06.06-.28.2-.28.2,0,0,0-.35-.04-.37-.03-.02-.18-.23-.21-.25-.04-.02-.15-.12-.13-.05.02.07.05.37.05.43s-.04.4-.04.43.34.62.34.62l.34.08s.09.05.14-.05c.05-.1.08-.3.01-.32-.07-.02-.14-.02-.16-.07-.02-.05-.03-.18-.03-.18l.65-.04s-.15.47-.05.38c.11-.08.4-.12.46-.18.06-.06.12-.42.12-.42l.27.11.13-.48h-.27l-.11-.05.4-.67.12.48s0,.05.25-.05c.25-.1.33-.47.48-.48.15-.01.82-.02.92-.05s.26-.49.26-.49l.32.1s-.08.12-.08.16.08.54.08.54l.19.1s.32-.59.32-.65.12-.38.12-.38c0,0,.26-.11.3-.11s.19,0,.15.08c-.03.08-.29.31-.18.36.12.05.62.24.62.24,0,0,.36-.06.39-.02.02.04.39.52.49.54.1.02.18.11.18-.04s.09-.31.18-.4c.08-.08.11-.17.26-.19.15-.02.34.08.29-.04-.05-.12-.12-.17-.07-.31.05-.14.32-.34.37-.35.06-.01,7.21-1.07,7.21-1.07l3.14-.36.99-.17s.22-.23.22-.26.13-.44.15-.5c.02-.06.54-.85.54-.85l.99-2.2.49-2.98,1.14-2.78.56-1.67.49-.84.69-3.12.22-1.66-3.26.05-9.82.07-6.34-.1-.91-11.29-.81-10.59-.7-9.08-.92-12.16-.34-4.36V0s-29.99.38-29.99.38Z"/>
      <path class="cls-1" d="M105.91,14.31v.03s0-.03,0-.03Z"/>
    </g>
  </g>
</svg>