<svg xmlns="http://www.w3.org/2000/svg" data-name="Layer 2" viewBox="0 0 131.9 71.4"><path d="M78.9.4H56.1L28 .2.6 0 .4 7.4 0 20.3l.5.2.2-.4H1c.3 0 1-.4 1-.5s-.3 0 0-.3 1-1.4 1.3-1.5c.3 0 1-.4 1-.6v-.1s.6-.7.8-.6q.5.1.5.3l.2-.1.4-1 .4-.4H7s-.2-.7.1-.8l1.2-.2c0-.2.2-1 .5-1h.5V13c.2 0 .4.4.5.3l-.1-.5.3-.6h.1v.4h.3l.1-.4.3-.2.1-.4h.5l-.1-.5q.2 0 .3-.3l-.1-.4.3-.1-.2-.4h.5l.5-.1.3.2.3-.3.6.6h.4l1.4 1q.1.1.2 0V11l.1-.4v-.2l.4-.2.2-.6.4-.2h.3l.2-.4v-.5l.5-.2V8h.4l.2-.4.5-.6s0-.5.2-.6h.3l.4.1h.2v-.3c0-.2-.5-.5-.4-.6l.6-.8h.3v-1s1.1-.9 1-.6l-.3.7q0 .3.3.3L22 4l.3.3-.1.4h-.8q-.3.1-.3.4c.2 0 .3.5.4.6h.5q0-.2.2 0l.3.7c.2 0 1.2.9 1.4 1l.9.2h1.7v.3l.5.1s.2.4.3.3l1.3-.2.6.3h.9l.2-.2v-.5s.4 0 .3-.1q-.3-.3-.2-.4t.2-.1l.4.4.1-.1V7h.2q0 .2.2.2t0-.3l-.9-.7-.1-.5q0-.3.4-.2l1 .4.4-.2v-.3l-.9-.7-.2-.4q0-.2.3-.2l.5.1.6.5h.3v-.3l-.2-.3q0-.2.3-.2h.4v-.3q0-.2.1-.1c.1 0 2.4 1.1 2.6 1l.2-.8 1-1-.2-.4.1-.1.8-.2c.1-.1.5-.8.7-.7l2.2.7.9.6c.1 0 1 1 1 1.3l.8 1.1.8.2.6-.3h.2l.1.7h.5v-.8l-.3-.3.3-.1s.2.5.4.6l1 .2.2-.2-.2-.4h.2l1.4.5v.8q0 .4-.3.6l-1.2.2v.4l.6.7-.1.5q0 .3.2.2h.3l.4-.5h.3l-.1.5-.5.6.2.2c.2.2 1 .3 1 .3l.7-.4.4.1v.2l-.8.7.4.5h-.5s.5.5.4.6l-.5.3q0 .2.3.3l1 .1v.2c.2 0 .6 1.3.6 1.3l-.1.2-.3.1c0 .1.2.9.1 1 0 .2-.4.7-.3.8l.4.3.9.3.6.1.5-.2 1 .6 1.3.3.9-.2.1.3.5 1 .4.5 1.1.5c.2 0 1.2 1 1.2 1l-.1.3-.5.5v.6l-1 .5-.2.4c0 .3-.4.9-.3 1l.3.8.9.5 1 1.5 3.5.4 1.1.4.8.7.7.3.1.5s-.4.6-.2 1l.6.5 1.1.3H69l.5.5.5.9 2.4-2.4 3.8 4-3.3 3.6.2.2-.4.6v.6l.5.5.3.1-.6.3-.1.6.2.2v.2l-.4.3.7.2.3.4-1.1-.1-.2-.4-.2.4h-.5l-1 .5-.3 1v.9l-.2.6-.5.5h-1.2l-.2.1-.1.9-.5.6.2.2.2-.2q0-.2.2-.3t.5-.2l.8-.7q.3-.1.4 0v.4s-2 1.3-2.2 1.3h-1l-.2.6v.1l.5-.4h.3l-.7.7-.5.1v.6l-.3.2c-.2.2 0 .9-.1 1l-.2.3.3.3v1.3s.4 0 .3.3l-.2.6.3 1 .7.6.4.4.2.1 1.3-.5c.2 0 1-.9 1-.9l.1-1 .2-.1v-.4l.2-.2-.2-.2-.2.1-.6-.3.1-.4h.2v.3h.9l.4-.1v.1q-.2.1-.3.5v1.3l.6-.1.2-.5.5-.2c.2 0 .6-.6.6-.6V51H72l.4-.4v-.5l.4-.4.2-.6.2.3-.3.7v1q.1-.1.4.2l.9 2.2v.7l.2.4v.6l.4.1.3.4.3-.4q.1-.1.2 0l-.1.4q.1.3.5.5h.5l.3.8h-.2l-.4-.5h-.1l-.1.7.8.2.4.4 1 .1.3-.2.3.1c0-.1-.1-.6-.2-.5h-.4l.1-.4-.3-.5h.2L78 56l-.8-.5s.5 0 .5-.2v-1L77 54l-.5-.5.4-.3c.4-.2 1 .2 1 .2s.6.2.7.5v.8l.6-.3h.3l.2.2-.1.1h-.3v.4h-.4l-.2.3.4.7q-.2.2 0 .5v.1h.4v.2l.3 1-.1.3v.4l.6.2.2.4v.4l.6.3.3-.3-.3-.2q-.2-.1 0-.3l.1.1.3-.1h.4v-.5l-.3-.2s-.2-.4 0-.3c0 0 .3.5.4.4l.1-.2V58l-.1-.2.2-.2v-.4l-.3-.2.1-.3v-.5q0-.1 0 0t.2.5l.4.4.1.6v.7l-.6.5.2.2v.3h.3l.2-.4v-.6l.2-.6.2.3.3-.2v.3h.5l.4-.5.1-.2-.2-.1q-.2-.2 0-.3h.2l.5.5v.4l-.4.2-.2.4h-.6l-.3.3-.2.4h.6l.7.3h.4l1.6 1 .8.7.3 1c0 .3.1 1 .3 1l.6-.2.4.2-.2-.4-.7-.9.2.2h.5v.4h.1l.3.2v.5h.5l.2.3h.1l-.1-.5-.4-.5v-.3l.3.3.5-.1-.3-.4.1-.3.3-.2.2-.3q-.2.2-.4 0l-.1-.5-.5-.4-.1-.3.8.4.5.9-.2.6v.2h.9l.2.2-.5.2v.3l-.3-.1h-.2l.1.3v.3l.2.5.3.8.1-.1v-1c.2 0 .3.5.3.4q.1-.4.3-.5v.2q.2.1 0 .4l-.3.4h.2l.3.5h.4v.4l.5.6s0 .7.2.6l.4-.1.3.2s.2.6.3.5v-.3q.1-.4-.1-.7l-.3-.5v-.9l-.1-.5h-.1l-.5.4V64l.1-.2h-.1v-1.1s.1-.1.2 0l.2.8q0 .3.2.2l.3-.2s.2-.6.1-.8l-.3-.4s-1-1.2-1-1.5l-.7-1.5-.2-.8v-.9l.2-.5.5-.3-1-.7v.5l-.4-.2-.3.2-.2.4c-.2 0 0 .1-.4 0l-.9-.2.3-.3-.5-.4v-.4l-.3.2h-.3l.1-.6-.5.3V55h-.4q-.1 0 0-.2 0-.1.2 0h.5l-.4-.7-1-.6q0 .2-.3.2v-.2l-.8-.2V53q-.3-.1-.5-.4l-.9-.4v-.6l-.5-.3V51l-.5-.1-.2-.7h.1l.1-.1-.2-.4-.3.1-.2-.1.3-.3-.3-.4v-.8l.2-.4-.2-.2-.5-.3-.2-.2h.3l.4.1h.1V46l-.1-.3.2-.5v-.8l-.5-.6v-1.3h-.2l-.1-.2.3-.5-.2-.3.2-.3.2.2v.7l.2.2-.1 1.1s.5.5.5.7v2.3q.2-.2.5-.2v.2l-.3.8.3.6c0 .2-.4.5-.3.6l.5.9.2 1h.3l.4.2.3.5.1-.3V50q0-.2.2 0l.2.7-.2.4q-.2.3-.1.4 0-.2.2 0l.3.1 1 .5v.6l.6-.5s.5.2.6.4l.1.6h.3l.1-.2v-.3l.1-.4q-.1-.1 0-.4v-.6q.1-.1.2.1v.6l.2.1s-.2 0-.2.3v1.1l.2.7s.4-.2.3 0l-.2.2.2.4-.1.5.4.8.2-.2-.2-.6h.2l.3-.2q.1 0 0 .2h.2l-.3.4.6.2.3-.2.8-1.4v-.5l.2-.5-.5-.2-.2-.6-1.6-1.6v-.4l-.6-.3-.5-.7-.7-2.3V44l-.4-1.4v-1.8l.1-.7v-.3h-.6l-.2-.3-.2-.6-.3-.7.1-.5.1.4h.3l.1-.4.3.2.1-.2V37h.7v-.4l.3-.3.2-1-.2-.2v-.4l-.2.5-.3-.1v-.3h-.3v.8h-.5l-.2.3v-.1l.3-1.5.4.1.1-.3v-.6h-.4s-.2.5-.3.4l-.1-.2.2-.4.1-.4h.1l.2.3.1-.2.4.3-.1.1v.5l.7-.5v-1h-.5v-.3l-.4-.3-.2.2v-.4l-.3.2H87l.2-.5q-.2.2-.3.1V31l-.5.1-.1.4-.3-.1v-.6l-.5-.2v-.4l.5.2.2-.1s0 .4.2.4h.6l.3-.2v.3s.1-.3.3-.2q.2.1 0 .2v.4h.2v.2h.3l.2.5.3-.1.1-.2h.2l.2.7.4.4h.1v-.2l-.2-.4h.2v-.6l.4-.5-.3-.1-.3.2-.2-.9-.2.2-.3-.2-.2-.7-.2-.2-.3-.6-.2-.2h-.3l-.1-.5-.9-.4-.1.1-.2.1q0 .2 0 0l-.1-.6h.4v-.5H86v-.4l-.5-.1-.6-.5h.7l.3.3h.2l.2.1q.1-.2.2 0l.2.4h.3l.2.3v.6h.3l.3.4.2.4.8.9.2.3h.5l.3.2v-.4l-.4-.3-.1-.2.2-.2.4.4.2.1.1-.4-.2-.3h.3l.2.4.4-.5-.2.9.2-.3.6-.3-.6-1.1-.5-.3h-1l.2-.5-.8-.1-.3.3v-.3h-.2l-.3-.3h-.3v-.3l-.3-.4V25l.5.2v.6l.2-.1.3.2.2-.2.2.2.3-.2h.2v-.4l.4-.1q.3 0 .5.2l-.1.4.2.5.2.3c0-.1.4-.8.3-1l-.5-1 .2-.9h-.3l-.1.7q0 .2-.2.2l-.2-.5h-.9V24h.9l-.1-.1-.4-.4.7.2q.3 0 .2-.2l-.7-.5-.3-.3v-.4q0-.2-.2 0l-.5.5v.4h-.2l-.2.2q-.3 0-.3-.2l.5-.6-.2-.4-.3.7-1 .2.2-.2.8-.6c0-.1.3-.1 0-.4l-.4-.3-.1-.6v-.6l-.2.2-.2-.2-.3.2h-.3v.4l.2.2-.4.9h-.3l-.2.7-.2-.2.4-.6-.5.1-.1-.2 1-.5-.2-.4q-.2-.1-.2-.3l.3-.4V20h.2v-.3q-.3-.4-.6-.4H85l-.2.2v-.2l-.3-.2v-.8l.2.1v.5l.8-.4V18l-.6-.3-.3-.5.6.3.5.3h.3c0 .1 0 .8.2.7q0-.2.4-.1.5.3.5.6.1.4.2.3h.6v.5l.3-.1.2-.3h.2l.1-.5.4-.3v.6c0 .2 0 0-.3.4l-.4.6v.3h.6c.1 0 0-.5.2-.5l.7.1-.2.6.3.2c0-.1 0-.6.2-.6q0 .2.3.1l.3-.4.4-.1v-.7l-.3.4h-.5s.2-.2 0-.2q-.4 0-.5-.2c0-.1-.5-.6-.4-.8l-.1-.7-.4-.2-.3-.2-.2-.1-.2-.4.8.1h.4l-.2.4.6.2h.3l-.2.5.2.7h.3l.2.3h.4v-.4l.1-.5V18h.2l.2-.5-.8.3h-.1l.3-.4V17h-.2l-.3-.1h-.2l-.1-.1v-.2H90v-.3h.3v-.1s0-.3.1-.1q.2.3.4.3l.3-.1v.3q0 .3.2.2l.2-.2.2.2v.2l.4-.1v-.4l-.7-.2.1-.3.6.1h.3l.2.3h.2l.2.4.1-.3h.4v-.2l-.4-.2H93l-.3-.2q.2 0 0-.1H92v-.3h.3V15l.2-.1.1.2v.2l.4.2h.2l-.3-1v-.8q-.1.2-.4.2l-.3-.2H92c0 .2 0 .6-.2.4q0-.3-.3-.4l-.7-.1.1-.2.6.1h.4l.4-.6h.4l.5.4v-.2q.4 0 .6.2l.2.6v.5l-.5.1.6.2-.1.4.3.9-.2.5.4.2.2-.6.3-.3v-.4l.2-.2V15q-.2 0-.3-.2v-.3l-.4-.3.4-1-.2-.2s.2.2.3 0v-.5l.4-.2.1-.6-.2-.5-.5.1s-.1.5-.2.3l-.2-.3.6-.4h.3l.7-.5.3-.2-.4 1 .4.6-.6 1.2v.7h-.2v.5l.1.2.3.1.4.5.3-.4.5-.2.3-.8h-1l-.3-.1v-.9l.2.7.4-.2q0-.2.1 0l.4.2.3-.1.2.4.5-1h.4c0-.2.7-.7.8-.8l.5-.1V9.8l-.3-.4-.2.2-.4-.4v-.6l.2.2.1.2.2-.2.5-1.3.5-.2.3-.3.8-.2-.2-.2-.2-.1v-.1h.3c.1 0 .3-.4.4-.3l.1.7.3.1c.2 0 .4.4.4.3V7q-.2 0 0-.4 0-.4.3-.4l.5-.2.2-.7c.1 0 .4-.4.4-.2s.2 0 .1.4q-.2.8-.4.9l-.1-.1h-.1l.1.6v.3s0-.2 0 0l.1.3-.4.3v.4s-.6.8-.6 1v.6l-.3.5.1.2h.3l.5-.7.3-.1.3-.4.7-.7.1-.3h-.2q-.1-.1 0-.2l.8-.1.1.1q.2.2.2 0l.7-1.5.6-.4q-.2 0-.2-.3l.4-.5.2-.2v-.1.3l.4.7s-.5-.2-.5 0v.4h-.2v.3l-.6.4q-.2.3-.3.2l.2.1q.3-.2.2 0l-.1.3.3.3-.5.1h-.2l-.1.3-1 .3v.5h.4l.4-.2.4.5s.4-.1.4 0l.2.5h.4s-.3 0 0 .2l.3.3.3.1h-.7v-.1l-.5-.1-.4-.6h-.5l-.1-.2-.6.3-.2-.2q-.2-.1-.4 0l-.3.3.2.2v.4l-.4-.3s0-.4-.2-.2l-.4 1q-.3 0-.4.2l-.2.6.4.2q.2.1 0 .3l-.4-.1-.1-.2-.8.6-.2.3.4.3h1l.2.2.3.5.2-.4h.5l-.2-.3.3.2.2-.2.3.2v-.4l.2.2.3-.3-.1.3.2.1h-.3l-.1.2h-.4v.2h.4l.6.2h.6l1.6-.3v.3l-.3.1h-.1l-.2.1.1.3-.3-.3h-.4l-.5.1v.3l-.1-.3h-.2l-.4-.1q-.3.2-.2.3l.2.2h-.3l-.1-.2v-.4l-.5.2-.3.4.2-.5-.2-.2h-.4q-.2.1-.2.3v.4l-.1-.2h-.3v-.3l-.3-.2-.7.4.1.3s-.4.3-.4.1v-.6l-.6-.3-.9.2-.5-.2h-.4l-.2.7-.4.2v.4h.5v.2l.8.2.3.4-.8-.2-.4.1-.2-.3H99v.4h-.5l.1-.5H98l-.5.6v.5h.3v.2l.2.2.2-.2v.5l.2.4-.3.3-.2-.5-.1-.5-.3.2-.1.4H97l.2.4-.1.5.2.1.1.2h.3l-.3.5-.3-.5-.3-.2V18l-.2.9-.6 1-.2.6-.8 1.8-.1.4v.2l.2.1v-.3l.3-.2v.4l.5.8v.4h-.2l.4.7.3 2q-.2 0-.3.2t-.1.4c0 .2.6.7.7.8l.2-.3.5.3-.5-.8.1-.5-.1-.2h-.3l-.1-1.3.2.1.2.9h.2V25l-.5-.2v-.4l-.1-.4h.1l.2.2q.1-.1.2 0v.5s.3.5.4.3c.1-.1.6-.7.5-.8l-.2-.3-.3-.2h.3l.1-.3-.2-.5h-.3l.1-.6h-.2V22h.4l.4-.5-.2 1.1.3.8.4-.2.2-.3q-.2 0-.2-.3 0-.4.2-.5l.3-.2.5-.2-.3.7-.3-.1v1.1c-.1.1-.7.5-.7.7v.7l.2-.1v-.3l.5-.1q.1-.5.4-.6l.1.4q.2 0 .3-.2l.1-.7h.7l.1-.2-.2-.3v-.3l1.2-.4v-.4l-.7-.7.1-.3.7-.7.3-.5h.2l.5-.5h.7l.3-.3.4.2h1l-.3.3-1.3-.2-.6.3-1.6 1.5.7.6v.7l.2.1.6-.1v.1l-.7.4-.4.4s.2-.6 0-.6l-.6.3-.1.1v.5l-1.2 1q0 .5-.2.6h-.5l.1.3h.5l.4-.2h.2q-.2.3 0 .3l.4.5v.3c-.1 0-.2-.5-.5-.5h-.3c-.1 0-.2.4-.3.3l-.3-.3-.2.1-.2-.3-.2.2.2.1h-.2l-.1.3.4.3h-.5l.6.8-1-.3v-.5l-.2.4h-.2l.3.3v.4l.6-.1-.3.6v.7l.4-.4h.2v.4c-.2 0-.5.6-.6.5l-.2-.2h-.2l-.8 1.2-.2-.3q0 .2-.2 0H96v.4l.5.2v.2s-.4-.2-.3 0q0 .5.3.5l.3-.1h.2v.3l-.2.1s.4 0 .3.1V33v-.4s.3.2.3 0l.2-.8s0-.3.1-.1v1.1s-.1-.2-.3.4c-.3.5-.3 1.3-.3 1.3h.1l.2-.3v-.8l.5-.4.3-1v-.5l-.2-.2s.4-.1.4-.3v-.5l-.2-.5s.3-.3.3-.1q0 .4.2.6c.2.2.1 0 .1.3l-.2 1v.1q-.2.4 0 .5s.6-.2.6 0l.5.3v-1.3l.3-.5s.3-.3.3 0l-.3.9.1 1 .5.2.2-.2h.1v.4l-.7.3-.4-.2q-.1 0 0 .1l.2.5-.2.2-.2-.2s0-.4-.2-.3l-1 .2.1.2.5.2-.2.3-.1-.1c-.1 0 0 .4-.1.3l-.3-.2-.4.2h-.5v.5l.5-.1v.1l-.4.4v.5l-.2.1.2.2.6-.2v.1l-.6.4v.2h.1v.3q.1.4.3.4c.2 0 .3-.7.3-.7h.2l-.1.7h.2l.3-.7h.5v-.5l.2-.1v.1l.4-.4h.2l-.1.5h-.2v.2l.3.1v.3l-.4.1-.1.2h-.3q-.2 0-.5.3l-.4.7-1.4-.7-.2-.5v-.3l-.1-.2.1-.1v-.4l-.5-.4-.2.2-.4-.5h-.4V35l.3-.3v-.5s-.8.8-.8 1v.4l-.5.2H94l-.4 1.6-.1.3-.4.1.2.4-.4.5v.8l.2.1v.4l-.2.3V42q0 .2.1 0l.3-.9.1.5.2-.2-.3-1.4.6-.5-.1-.1h-.3v-.2q.2 0 .3-.2c.1-.2-.2-.8-.2-.9l.3-.2.3.2v-.9h.2v.4h.5V37l-.3-.3-.1-.3.5.2.3-.2-.2 1.1-1 1v.5l.3.4v.8l.3-.4h.1l.2.5q.1.1.2-.1l-.1-.5.3-.4.1-.3-.2.2h-.5l-.3-.7q.1-.1.2 0l.1.2h.4l.6-.2-.4-.7v-.6l.2-.4.2-.2s.2-.1.2 0c0 .2-.4.5-.3.6v.7l.4.2v-.4l.2-.3v.3l.3.3-.1.6.3.2.6-.1.1.2-.2.7q0-.2-.3-.2c-.3 0-.3.6-.3.5l-.2-.6-.4-.1v.1q.2 0 .2.3l-.2.2.3 1 .1-.6h.6l.1.1v.4q0 .1 0 0l-.2-.1-.3.2.3 1h.3l-.1-.6.3-.2q.3-.2.2-.5l-.2-.4q0 .2.4 0l.4-.8h.2l-.3 1h.1l.4-.1v-.4l.4-.3V39h.2l.2-.1-.2-.7.6.1.5-.2.1.2h-.3s-.4.6-.3.7h.3v.2l.5.1v.3l-.7.1v-.3h-.3l-.4.4-.2.3h1v.5l-.3-.2v.1l-.4-.1h-.2l.5.4-.1.2-.3-.1-.4.2-.4-.4h-.2l-.1.4H98v.8l.3.2h.6l.2-.2.6-.2v-.2l.8-.4h.2q0 .4-.3.4v.4l-.8.3-.2.2H99l-.2.2.1.7c.1.3.3-.3.4-.2l.5.1v-.4l.6-.6h.2v.7l-.3.2-.4.5.3.6.2-.7.2.2v.3l.2-.2h.3v.4l.8.8.5-.5v-.6q0-.2 0 0 .3.1.3.4v.6l-.2.1-.1.4.3-.3.5-.2.2-.3.3-.4-.3-.9.2-.3.5-.1.3-.3v-.7l-.5-1h-.5l-.1-.6-.1-.3-.5-.5v-.4l.5-.1.1-.8.4-.4.4-.3.2-.4h.4l.5-.7.8-.4v-.4h.2v.3h.3l-.2.4-1 .6-.5.6h-.4l-.9.9v.8s-.4 0-.4.2v.3c0 .2.5.3.5.4v.2q-.1.2.2.3h.4l.2.6.3.3q.2 0 .2.2c0 .1-.5 1.2-.3 1.3.2 0 .9.2.8.3h-1.2v.5l.3.2q-.3 0-.3.3l.2.2-.3.3v.2q.1.2 0 .2h-.8s.3.2 0 .3h-.3l-.1.4h-.3s-.2.4-.3.3l-.5-.4-.6-.2-.1-.4h-.4l.1-.3q0-.2-.2 0l-.5.5s0 .5-.1.3l-.2-.5-.6-.6h-.3l-.4.2-.2-.2h-.6v-.3q.3.2.4 0l.2-.2v-.4h.1v-.2H98l-.9 1-.3-.4h-.3l-.2.1v-.4l.1-.1h-.6v.4l-.4.2-.2-.1v-.4l-.4-.4h-.2l.3.5.1.4.1.4h.5v.2l-.3.6-.3.3-.1-.2-.3-.2-.5.5v.3h.7l.3.4v.9l.3-.5v-1l.1-.2v.9l.4.2.1-.1-.2-.6s.2-1 .3-.9l.1.5v.6l.2.1v.5l.3-.7-.2-.8h.2q0 .3.2.3h.2l.3-.4v.7h.6v-.7l.5.2h.3l-.6.4v.6h-.6l-.5.1v.3l.7.4.4-.2h.7v-.3h.6l-.3.2v.5h-.7l-.3.5.3.2v.2l-.6-.2v-.5h-.2l-1-.6.3.7-.4.1v-.4h-.2l-.1.7H96v-.5q0-.1 0 0l-.4.4-.2.2.3.4v.3h-.3l-.1-.3-.5 1.2s.6.4.5.5v.2l-.8-.3-.2-.7.5-.8v-.4h-.4l-.1.4-.5.1h-.2v.2h-.4l.7 1.6.7 1 .2.5.3 1.8q0 .2.2 0v-.6l.7.4v.3l.4.4q.2 0 0-.2l-.2-.4.2-.4v-.7h.3q.2.1.2.4l-.1.6h.3l.1-.4.2.2v.3h.3l.2.3.1-.1.2.3.1.5.5.1v.8h-.2v.1l.4.3.3-.2.3.4-.2.4-.3.6v.3l.3-.2h.5l-.3-.5.3-.3h.5v.2l-.2.3q.1-.2.4-.2v.4l.4-.1v.2l.2.2-.3.4h-.3v.3h.7l.2.5.3.6h.4l.4.3v-1l-.3-.2s.3-.7.2-.8q-.5-.1-.3-.3h.3l.2-.3-.3-.7-.7-.2.4-.2h.2l.2-.7.7-1-.1-.3.2-.4v-.4l.2.3h.6l.3.6.3.3h-.1v.8l-.4.1-.6.3-.8.3v.1l.5.3v.2l.3.2.1.4h.3l.1.3v.3l.3.2v.3h.4v.2l-.3.1-.2.4h.1l.6-.2q.2-.2.2-.5l-.4-.1-.1-1.4.2.2.1.6h.1V57q.3-.2.3-.4h-.2v-.2l.1-.2V56l.7-.7.2-.6.6-.5-.2-.2.1-.4.4.6.2-.4-.1-.2s.2-.7.4-.7l.5-.2-.3-.2.2-1.3h.4l.2-.1-.4-.2v-.4l.2-.4v.5h.5c.1.2 0 .8 0 .8l-.7.3v.3c0 .1-.3 0 0 .3l.4.5-.5.4-.4.1v.2l.1.1q.2 0 0 .3l-.5.6-.2.8-.4.2-.2 1s-.4 0-.3.1l.2.4-.2.5-.2.3v.3l.2.1q-.2.2 0 .5l.3.2.1.4h.5q-.2 0-.3-.3l.2-.5v-.7s.4-.1.4 0l-.1.6.3.1h.3q0-.3.2-.4h.4l.3-.2h.8v.3l-1.3.2-.7.6v.2l.2.2.2-.2h.6l.1.2v.6h-.2s0-.5-.2-.3c0 .2-.7.9-.7.9s0-.4-.2-.3l-.4.5v-.3l-.6.1h-.3l-.2.4h-.5l-.5.2.1.6-.2.8v.6l.1.2.2-.2h.4l.1.1.3-.2-.2-.1v-.3c0-.2.7-.3.7-.2v.3s.4-.5.5-.4l.2.3v.2l.1.1.2-.2h.5V62l.4.4.2-.3h.4l.2-.2.1.3s-.4.3-.2.3 1.2-.9 1.2-.9l.4.1.3.3v.1h-.3q-.6.1-.7.4-.2 0 0 .1l.6-.1h.2l-.2.2-.4.1-.2.3-.2-.3-.2.2-.2-.1-.2.1h-.4l-.5.3.1.3.2.2v.5h-.5v-.5l-.4.6v.2h-.3l.3.5h-.3l-.3.2h.4v.5s.5-.5.6-.4h.6l.3-.1h.2v.3h.2l.1-.3.4-.1-.2-.6h.4q.2-.5.4-.5h.4v.4l.3.2-.4.2-.3-.2-.1.3.4.1v.1l-.5.1-.5.7.2.3-.2.2-.4-.2-.2.1h-.4l-.3.1.2.3h.3v.4l-.2-.1q-.5.2-.7 0v-.4h-.5v.2h.2v.3h-.2v.2h.2q.2.1 0 .4h-.3l-.8 1.4.1.1.2-.3.1.1.4-.8h.4v.2l-.1.3-.2 1 .5-.3s.2-.2.2 0l-.3.4-.1.2h-.3l-.3.3V70l-.3-.2q0-.2-.1 0v.8l.4.6h.4V71h-.1v-.2h.6v.3l.4-.2.1-.4.3.1.1-.5h-.3l.4-.7v.5h.3l.5-.5h1l.2-.6.3.1v.7l.2.1.3-.6.1-.4.3-.1h.2l-.2.4.6.3h.4l.5.5h.2l.2-.5.2-.1h.3v-.4l.3-.3 7.2-1.1 3.2-.4 1-.1.2-.3.1-.5.6-.9 1-2.2.4-3 1.2-2.7.5-1.7.5-.8.7-3.1.2-1.7h-3.2l-9.8.1h-6.4l-.9-11.4-.8-10.6-.7-9-1-12.2-.3-4.4V0zM106 14.3" data-name="Ñëîé 1" style="fill:#172d35"/></svg>