<?xml version="1.0" encoding="UTF-8"?>
<svg id="Layer_2" data-name="Layer 2" xmlns="http://www.w3.org/2000/svg" viewBox="0 0 61.66 95.24">
  <defs>
    <style>
      .cls-1 {
        fill: #172d35;
      }
    </style>
  </defs>
  <g id="_Ñëîé_1" data-name="Ñëîé 1">
    <g>
      <path class="cls-1" d="M.27,46.06c-.11.03-.27.22-.27.22l.45,16.93.19,16.85v3.99l.4.52-.16.19s.05.63.03.77c-.03.14-.16.63-.16.63,0,0,.16.14.13.27-.03.14-.03.38-.11.57s-.32.44-.35.63c-.03.19-.05.66.03.77.08.11.19.63.29.71.11.08.37.14.45.19s.43.57.43.57l-.03.36s.37.14.37.22.35.52.35.52c0,0,.69.49.69.71s-.16.74-.16.74c0,0-.19-.19-.16,0,.03.19.03,1.23.03,1.23v.1s.81.62.83.64c.02.02.25.38.25.38,0,0,.2.14.22.14s.32-.06.32-.08-.08-.1-.09-.14c0-.03.06-.12.03-.14-.03-.03-.15-.19-.16-.22,0-.03.03-.21.03-.21l.12.33.16.02-.03.12.12.06s-.09.03-.09.05c0,.02,0,.21.01.22.02.01.28-.03.28-.03l.02.32.09.05.36-.2.15-.49-.05-.14s.13.05.13.03.21-.27.21-.27c0,0-.11-.14-.09-.14.02,0,.16.04.16.02s0-.16,0-.16h-.24s.03-.18.05-.18.35.05.35.03.15-.64.15-.64h.37s.04-.15.01-.16c-.03,0-.23-.09-.23-.09l.1-.34.19-.11-.04-.18s.27-.3.27-.33-.33-.57-.33-.6.22-.6.22-.6c0,0,.19-.23.23-.26s.19-.71.19-.71c0,0,.25-.31.29-.35.03-.04.24-.14.33-.16.09-.02.58-.07.61-.06.03,0,.28.13.28.13l.39-.36-.06-.14.11-.08v-.18s.15-.04.15-.04c0,0-.07-.22-.05-.27.03-.05.19-.13.19-.13l.34-.03s-.04-.14-.01-.16c.03-.02.15-.1.15-.1l-.05-.09.31-.41s.59-.26.55-.28c-.03-.02-.14-.11-.18-.09s-.37.29-.37.29c0,0-.08-.09-.09-.11,0-.02.02-.16.02-.16l.21.03s-.26-.16-.28-.18c-.02-.03-.11-.25-.11-.29s-.04-.44-.02-.47c.02-.03.24-.64.26-.66.02-.02.47-.37.47-.37,0,0-.06-.16-.06-.18s.1-.26.1-.26l.07.21s.19-.08.19-.05-.09.29-.09.29c0,0,.07.24.1.27.03.03.14,0,.14-.03s-.05-.16-.04-.18c0-.03.06-.19.12-.21.06-.02.43-.27.43-.27l.07-.29s-.03.35.03.38c.06.03.11.07.19.07s.17-.03.23-.05c.06-.03.22-.16.24-.16s.15.12.18.1c.03-.02.22-.13.22-.15s-.11-.24-.11-.28.06-.19.06-.19l-.21-.25s.17-.49.15-.51c-.01-.03-.26-.45-.26-.45l.03-.17-.17-.06s-.22.12-.21.14c0,.02.03.18.03.18,0,0-.08-.13-.09-.1-.01.03-.03.14-.05.14s-.4-.05-.4-.05v-.14s.13.03.23-.02.15-.18.17-.2c.02-.02.31-.15.29-.23-.03-.08-.19-.27-.18-.29.01-.02.1-.23.08-.24-.02,0-.14-.01-.15-.04,0-.03.01-.49.03-.5s.13-.1.13-.08c0,.03.06.47.06.47,0,0,.13-.23.15-.21.02.02.15.09.18.05.03-.03.06-.12.06-.16s-.11-.22-.11-.22c0,0,.09.06.11,0,.03-.06.37-.5.37-.52s-.05-.5-.03-.52c.02-.02.29-.18.29-.16s-.05.33-.02.32c.03,0,.5-.5.5-.5,0,0,.07-.1.07-.12s-.08-.16-.04-.16.43-.1.45-.11c.02-.01.03-.15.03-.18,0-.03-.06-.14-.06-.14,0,0,.24-.2.25-.22.01-.02,0-.22.03-.25.03-.03.22-.18.21-.12,0,.05-.34.79-.34.79,0,0,.13-.02.17-.07.03-.05.19-.2.19-.2,0,0,.03-.14.05-.14s.13.1.13.08c0-.02.03-.06.03-.06,0,0,0,.31.03.3.02,0,.13-.11.13-.13,0-.02,0-.21.05-.25.05-.04.17-.07.21-.1s.35-.55.35-.55l.14.03.2-.18s.09-.05.08.02c-.01.07-.48.91-.48.91,0,0,.44-.59.51-.59s.19.07.25.05c.06-.01.3-.27.3-.24s-.49,1.11-.49,1.11c0,0-.17.05-.19.1-.03.05-.09.38-.15.47-.06.09-.45.62-.47.68-.02.05-.03.25-.03.25,0,0,.28-.22.29-.19.01.03-.09.42-.05.4s.34-.33.34-.36-.12-.27-.11-.29c.01-.03.37-.4.4-.47.03-.06.06-.47.06-.47l.11.08s.25-.38.26-.4c.01-.02-.03-.27-.01-.29.01-.03.25-.53.25-.53v.36s.09.08.1.04c.01-.03.07-.14.09-.12.01.03-.03.27-.04.35-.01.08-.07.36-.09.34-.01-.02-.1-.4-.12-.35-.02.05-.15.36-.15.4s.09.1.09.14-.7,1.16-.73,1.23c-.03.08-.15.48-.15.48,0,0,.12.04.13.02,0-.02.22-.64.27-.68.05-.05.33-.44.37-.47.04-.03.1-.08.13-.05.03.03,0,.18.02.18s.11-.03.11-.08.33-1.24.35-1.22c.01.03.21.29.19.34-.03.05-.19.51-.16.53.03.01.29.13.29.07s.14-1.72.14-1.72l.15-.14s.04.21.04.18.01-.25.09-.25.21,0,.17.08-.15.2-.15.23.06.14.04.15c-.02,0-.08-.05-.09.04,0,.09-.09.3-.08.38,0,.08.01.24.07.25.06,0,.34-.21.34-.21,0,0-.36.67-.31.67s.15-.1.2-.06c.05.03.08.08.08.12s-.01.12-.05.1c-.03-.01-.24-.1-.26-.05-.02.04-.13.14-.13.17s.11.21.1.26c0,.05-.09.31-.09.31l.08.04s.05-.16.07-.1c.03.07.09.15.07.25-.02.1-.13.34-.07.32.05-.02.35-.24.31-.16s-.25.45-.23.52c.03.07.09.16.09.22s-.07.23-.03.27.29.11.27.06c-.01-.05-.06-.29-.01-.31.05-.03.35-.2.33-.23-.01-.03-.03-.23-.03-.23,0,0,.07.12.1.14.03.01.22.02.24,0,.02-.03.21-.16.21-.2s-.13-.19-.13-.19l-.16.17s-.07-.04-.05-.1c.02-.06.13-.32.13-.32l.06.05.06-.15-.23-.6s.2.12.17.08c-.03-.03-.07-.38-.13-.39-.06-.01-.01-.03-.06-.01s-.11.16-.11.16l-.04-.16s-.15-.01-.07-.05c.09-.04.17-.08.17-.13,0-.05-.11-.21-.08-.25.03-.05.15-.21.16-.25.01-.04.08-.62.08-.62,0,0-.05-.2-.07-.2s-.19-.01-.19,0c0,.02.02.13-.03.16-.05.03-.15.12-.15.07s-.03-.04,0-.12c.04-.08.09-.14.15-.23.06-.09.09-.57.09-.66s-.02-.7-.02-.73-.11.04-.11.04c0,0-.17-.16-.17-.18,0-.02.07-.67.07-.67,0,0-.11.16-.12.2-.01.04-.09.02-.16.03-.07,0-.19.1-.24.15-.05.05-.29.3-.29.27s.01-.18.01-.23-.05-.17-.05-.22.14-.36.14-.36c0,0,.23.16.23.11,0-.05.03-.55.08-.55s.17.16.27.04c.09-.12.09-.73.26-.77s.31,0,.31,0c0,0,.31-.83.32-.79,0,.04.07.38.11.38.04,0,.13-.04.12.05-.01.09,0,.23-.07.28s-.07.2-.16.2-.28.08-.28.1-.27.71-.27.8.1.92.1.97.16,1.16.16,1.2.07.72.08.75c0,.02,0,.28,0,.31,0,.03-.21.62-.18.67s.16.21.16.21c0,0,.08-.36.1-.36.02,0,.17.03.17.06s-.17.59-.13.64c.03.05.19.89.19.89l.05-.27s.19-.17.18-.07-.09.31-.03.28c.06-.03.56-.66.56-.66,0,0-.01-.47-.01-.49s.25-.84.25-.84l-.25-.04-.4.79s.23-.87.23-.92-.12-.49-.14-.49c-.02,0-.19.44-.19.44l-.31-.81s.18.12.21.08c.03-.04.05-.6.09-.64s.16-.04.16-.04c0,0-.03.37-.04.4,0,.03.05.13.06.1,0-.03.13-.21.14-.25.01-.04.01-.39.05-.47.03-.08,0-.03.09-.05.09-.02.17,0,.18-.04.01-.05-.02-.1.04-.1s.18.06.16,0c-.02-.05-.01-.16-.01-.16l.13-.05s.41-.84.39-.85c-.02,0-.15-.13-.12-.14.03,0,.19-.07.19-.09s.08-.3.08-.3l.31-.12.25-.44.08.44s-.1,0-.13.01c-.03.02-.26.29-.26.29,0,0,.06.05.06.1s-.17.23-.17.23c0,0-.36,1.24-.33,1.27.03.03.23-.14.35-.1.12.04.45.16.45.18,0,.02-.05.34-.07.38-.01.05-.08.13-.08.13l-.21-.38s-.23-.01-.23.09c0,.1-.11.91-.11.93s-.24.16-.24.16c0,0,.23.08.24.1,0,.02-.04.25-.01.27.03.02.28.17.3.17s.31-.18.31-.12-.09.18-.07.25c.02.08.13.29.14.23,0-.06.19-.66.23-.66s.17-.06.19,0c.01.06-.03.66-.04.69-.01.03-.15.07-.15.1s-.04.23,0,.23.19.04.21-.02c.02-.06.25-.64.25-.66s.03-.21,0-.27c-.02-.05-.26-.38-.27-.43,0-.05.07-.41.06-.44-.01-.03.18-.29.19-.34,0-.05-.06-.23-.06-.23,0,0-.29.31-.29.27s.37-1.5.39-1.52c.02-.01.19-.07.22-.14.03-.07.15-.29.15-.36s.03-.5.05-.53c.01-.03.24-.19.24-.16s-.07.64-.07.69-.04.2-.09.25c-.05.05-.31.38-.33.4s-.25.72-.25.75.04.14.04.14c0,0,.21-.14.2-.03-.01.11-.11.87-.09.89.01.02.09.7.1.72,0,.02-.07.23-.05.29.03.05.18.23.18.18s.13-.38.11-.47c-.03-.09-.17-.15-.17-.23s.16-.49.14-.48c-.02.01-.16.03-.16.03,0,0-.08-.15-.04-.16.04-.01.21.03.21-.08s.06-.44.06-.44l.03.27s.18-.18.16-.11-.2.67-.15.72c.05.05.09.12.12.08.03-.04.21-.15.21-.22,0-.07.01-.29.01-.29,0,0,0-.12.05,0,.04.11.07.28.07.28,0,0-.2.29-.21.35,0,.05.17.89.17.89,0,0,.13-.07.15-.11.02-.04.3-.72.29-.74,0-.02-.12-.12-.12-.12,0,0,.09.05.13-.03.05-.08.09-.25.09-.25,0,0,.08.04.09.02.01-.02.13-.41.15-.44.03-.03.14-.66.14-.66h-.13s0-.09,0-.09c0,0,.16,0,.21-.1s.18-.97.24-1.01.2-.12.2-.12l-.11.36s.05.09.08.04c.03-.05.49-.68.49-.71s-.26-.26-.26-.26c0,0,.11-.22.11-.25s.31-.36.31-.33c0,.03-.06.44-.04.46.02.01.13.03.13.01s.08-.16.07-.22c-.01-.06,0-.43-.02-.46-.01-.03-.19-.14-.19-.18s.05-.28.07-.29c.02,0,.07-.01.08,0,0,.02.07.19.09.22.02.03.34.05.37.08.03.03.04.27.06.31.02.04-.05.37-.11.42-.06.05-.38.31-.36.32.02.01.22,0,.22,0l.15-.11s-.17.5-.21.59-.11.51-.11.58v.13s.09.02.11-.04c.02-.06.17-.33.17-.33,0,0,.01.25.07.24s.28-.18.29-.21c.01-.03.05-.29.07-.27.02.01.05.12.14.08s.24-.24.24-.24c0,0,.06-.02.04.06-.02.08-.25.38-.25.38h.09s-.11.38-.11.38l.1.04-.15.41s.04.01.08-.01c.04-.03.11-.21.16-.26.05-.05.21.02.21-.1s-.06-.31-.06-.36.12-.36.15-.33c.03.03.07.27.11.26.03-.01.16-.07.18-.11.02-.04.09-.34.11-.36.01-.03.11-.06.12-.12,0-.05-.02-.23,0-.24.02-.01.19.14.21.13.02,0,.23-.02.24-.09,0-.07.19-.4.19-.45s-.05-.33-.05-.33c0,0,.15.11.19.03.05-.08.27-.51.29-.5.02,0,.23.04.21.08-.03.04-.05.22-.08.22s-.17-.08-.17-.02c0,.06-.09.44-.12.49-.03.05-.48.6-.46.61.02.01.21-.05.17.01s-.27.3-.27.3c0,0-.11-.06-.14,0-.03.06-.1.32-.13.34-.03.01-.21.02-.22.04s-.11.27-.11.29.11.1.1.12c0,.02-.02.07-.04.1-.02.03-.29,0-.31.02-.01.02-.03.12.01.12s.19-.06.16.02c-.03.08-.09.18-.07.23.02.04.18.27.18.27,0,0-.13.18-.07.15.06-.03.41-.24.44-.3.03-.06.04-.31.09-.26.05.05.15.31.22.25.07-.07.23-.29.25-.35.03-.05.09-.29.06-.3-.03,0-.31,0-.31-.02,0-.02.34-.37.34-.37l-.08-.1.09-.4.06.21s.13.1.16.04c.03-.05.02-.23.13-.24.11-.01.5.03.57,0,.07-.03.33-.5.31-.51-.02-.01-.33-.15-.33-.15,0,0,.11-.25.1-.3s-.17-.31-.17-.31c0,0,.23-.08.23,0s.03.44.08.39.25-.16.25-.12-.12.3-.1.3.07.05.15.03c.08-.03.28-.09.33-.15.05-.06.08-.16.06-.2-.02-.04-.12-.21-.1-.21.02,0,.17-.02.19-.05.01-.03-.01-.1-.01-.1,0,0,.12-.06.15-.08.03-.02.21-.51.21-.51,0,0-.18-.01-.33.04-.15.05-.54.32-.55.27-.01-.05,0-.62.02-.66.01-.04.08-.19.08-.19,0,0,.14.12.18.1s.17-.42.15-.42-.23.03-.23.03c0,0-.07-.08-.03-.1.03-.01.18-.05.2-.09.02-.03.02-1.05.11-.98.09.07.25.31.25.31l.09-.12s-.09-.1-.09-.13.09-.25.1-.3c0-.05-.12-.26-.12-.29s.16-.17.17-.14c0,.03.08.18.09.13,0-.05-.03-.31,0-.36.03-.04.59-.96.58-1.02,0-.06.06-.49.09-.52.03-.03.23-.09.23-.09,0,0,.03.15.07.09.03-.06.28-.29.29-.34.01-.04.19-.46.19-.5s0-.63-.02-.7c-.01-.08-.07-.16-.1-.21-.03-.05-.45-.37-.45-.39s.11-.17.11-.17c0,0-.25-.58-.21-.59s.65-.05.65-.05c0,0,.07.08.1.07.03,0,.32-.49.39-.49s.29.05.34-.03.07-.28.07-.28c0,0,.2.03.23.01.03-.01.17-.27.19-.28.02,0,.25-.16.26-.12s.03.12.03.16-.18.26-.18.26c0,0-.09.34-.03.34.06,0,.78-.45.75-.45s-.27.01-.26-.06c0-.08-.25-.23-.17-.28.07-.05.41-.29.43-.32.01-.03.05-1.42.05-1.42,0,0-.47-.77-.49-.78-.02-.01-.39-.05-.38-.09,0-.03.09-.53.14-.66.05-.12.11-.26.15-.35s.42-.71.42-.71l-.46,1.4s.03.17.05.19c.02.02.16.03.26.1.1.07.25.57.32.6.07.03.51.22.51.22l.17.41.2-.23s.12.16.11.18c0,.02-.25.85-.29.9s-.25.26-.27.31c-.03.05-.17.7-.17.7l.07.33s-.14-.15-.2-.04c-.06.11-.12.38-.14.39-.02.01-.13.04-.16.08-.03.04-.05.44-.05.44,0,0,.13.01.13.03,0,.02-.13.13-.15.22-.02.09-.13.18,0,.24.13.05.25.07.31.02.05-.05.13-.23.13-.23l-.13-.16s.35.04.39-.06.01-.31.11-.43c.1-.12.18-.23.29-.25.11-.02.19,0,.22-.06.03-.06.08-.25.07-.33-.01-.08-.12-.19-.09-.22.03-.03.05-.12.15-.06.11.05.35.27.33.31-.03.03-.26.1-.26.17s-.07.44,0,.49c.06.05.26.12.29.16.03.05.13.25.13.29s.43.35.43.39c0,.04.05.23.03.25-.01.03-.23-.06-.23-.06l-.17-.37s-.17-.1-.23-.13c-.05-.03-.13-.16-.13-.16,0,0,.07.11,0,.1s-.33-.15-.38-.16c-.05,0-.2-.24-.21-.22-.01.02-.37.58-.33.64.03.06.21.18.21.2s-.08.06-.07.1c.01.04.13.16.08.22-.05.06-.03.23-.14.12s-.33-.45-.38-.43c-.05.02-.15-.03-.1.06.05.1.21.12.13.18-.07.07-.43.24-.46.32-.03.08-.11.37-.07.4s.11.09.11.12-.09.1-.09.13,0,.19.04.23c.05.03.45.12.45.07s.03-.25.03-.25c0,0,.23,0,.23-.01s.09-.42.11-.39c.01.03.02.27.05.23.03-.04.17-.34.17-.34,0,0,.07-.01.07.04s-.07.2-.05.21c.02.01.07.1.1.03s.08-.25.1-.21c.02.03.13.38.17.39.04.01.47.36.49.37s.17.27.17.27c0,0-.01-.15.05-.14.06.01.09.1.19.15.1.05.58.14.58.14,0,0,.06-.24.09-.26.03-.02.23-.18.19-.11s-.17.41-.17.43-.04.07.02.12c.06.05.74.38.74.4s.03.18.06.21c.03.03.29.09.29.12s-.15.06.01.16c.17.1.38.25.39.19,0-.06-.04-.43-.12-.49-.08-.05-.31-.12-.33-.16-.03-.04-.05-.34-.05-.34,0,0,.06-.1.09-.05.03.05.25.31.31.34.06.03.14.03.16-.02.02-.05.03-.09-.02-.18-.05-.09-.11-.14-.13-.21-.02-.07,0-.48-.03-.48s-.11,0-.11,0l-.02.21s-.17.03-.17.01-.24-.49-.24-.51-.01-.22.01-.29c.03-.08.33-.62.32-.64-.01-.02-.07-.29-.11-.31-.03-.02-.09-.04-.13.03s-.23.69-.23.69c0,0-.17.13-.17.11,0-.02.39-.99.39-1.09s-.05-.27-.11-.35c-.06-.08-.23-.26-.2-.26s.07-.05.19,0,.59.3.61.27c.02-.03.05-.33.05-.33h.39l.05-.39.13-.07s.13-.43.15-.42c.03,0,.08.1.08.17s-.08.29-.09.36c-.01.07.12.44.1.51-.02.07-.14.31-.14.38s.06.21.08.21.13.05.17-.01c.05-.06.08-.13.08-.13,0,0-.07-.04-.07-.06s.07-.54.07-.57-.15-.53-.15-.53c0,0,.13-.12.13-.16s-.01-.36-.01-.36c0,0-.08-.39-.12-.42s-.44-.27-.44-.27c0,0,.46.08.51.08s.37.18.37.16.1-.51.11-.49c0,.02.13.13.13.15s-.13,2.09-.13,2.09c0,0,.1.11.15.12.05,0,.45-.33.45-.39,0-.06.03-.38.03-.38,0,0,.24.15.26.13.02-.02.3-.36.3-.4s-.09-.51-.08-.57c.01-.07.11-.55.13-.48.03.08.08.73.08.75s.06.15.11.17c.05.02.15.08.16.01.01-.06.03-.19.03-.19,0,0,.48.23.52.23.04,0,.36-.2.36-.2,0,0-.31-.09-.31-.13,0-.04-.07-.08-.06-.13.01-.05.39,0,.37-.03-.02-.04-.07-.49-.12-.53-.05-.04-.09-.14-.17-.14s-.5.02-.5.02c0,0,.21-.1.16-.15-.05-.05-.21-.27-.21-.27,0,0,.07-.08.07-.11s-.03-.17-.03-.17c0,0,.18,0,.2.03.02.04.25.38.25.38l.4-.07s.09.18.08.21c-.01.03-.17-.01-.13.09.04.1.06.14.13.29.07.16.5.55.5.53,0-.02.01-.57,0-.6-.01-.02.09.03.13-.06s.06-.37.03-.4c-.03-.03-.92-.49-.96-.55-.04-.06-.17-.47-.17-.47,0,0,.15.02.21-.01.06-.03.17-.25.19-.26.03-.01.58-.2.62-.18.04.02.33.29.33.29,0,0-.07.09-.13.06-.06-.03-.35-.19-.39-.18-.03,0-.25.07-.26.14-.01.07-.05.24-.03.33.02.09.03.23.14.31s.39.37.51.4c.12.03.35.08.35.1s-.17.22-.17.24,0,.21.03.28.21.31.21.31c0,0-.09.19-.07.18l.46-.12s-.11-.19-.11-.23.03-.41.03-.41c0,0,.39.26.42.31.03.05.11.08,0,.11-.11.03-.16.05-.13.08.03.03.17.14.19.12.02-.02.06-.16.06-.16l.43.27s-.2.03-.21.09c-.01.06-.13.31-.08.49.05.17.09.39.13.45.03.06.08.08.08.14s-.08.13-.05.32c.03.19.15.55.19.6s.11.12.13.08c.02-.03,0-.1,0-.19s-.05-.2-.05-.2c0,0,.08-.05.11-.05.03,0,.21.11.2.16-.01.05-.07.6-.06.66.01.06-.03.09.03.12.06.03.17.06.18.09,0,.03-.01.21,0,.22.01.01.07.08.09.03.02-.04.2-.15.22-.24.02-.09,0-.42,0-.42,0,0,0-.08.07-.06.07.01.21.14.21.14,0,0,.02-.49,0-.51-.02-.02.16-.12.15-.19,0-.07-.18-.31-.18-.31,0,0,.1.06.14.04s.13-.19.17-.12c.03.07.05.24.11.34.07.1.19.18.19.18l.15-.33s.21.03.17-.01c-.05-.04-.17-.29-.19-.34-.02-.05-.13-.66-.13-.66,0,0-.1.08-.12.05-.02-.02-.13-.21-.17-.15-.03.05-.08.32-.12.27s-.26-1.03-.23-1.03.19.12.19.12c0,0,.03.25.05.29.02.03.12.14.17.09.05-.05.2-.49.2-.52s-.21-.34-.14-.34c.07,0,.39-.08.39-.02s-.04.47-.04.47l-.13.18s.03-.01.09.07c.06.08.13.33.18.51.05.18.12.62.17.66.05.03.16.14.18.14s.09-.1.09-.16,0-.56,0-.63c0-.07.09-.31.07-.34-.02-.03-.15-.16-.15-.19s-.01-.18.03-.17c.05,0,.09.1.12.05.04-.05.1-.25.14-.27.04-.02.21-.12.17-.05-.04.07-.12.24-.1.32.02.08.15.41.15.41,0,0-.21-.06-.2.01.01.08.09.36.06.43-.03.08-.13-.03-.07.15s.19.83.21.73c.03-.1.31-1.25.31-1.34s-.21-.55-.21-.57-.03-.11.04-.1c.07.01.2.08.23.03.03-.04.16-.23.15-.17,0,.05-.06.29-.11.3-.05.01-.09-.04-.09.03s-.01.16.02.18c.03.01.09.08.15.03.05-.04.19-.22.2-.27.01-.05.01-.53,0-.57-.01-.03-.15-.39-.21-.42-.05-.03-.16-.12-.16-.14s.07-.14.1-.14.11.05.15.12.07.19.1.14c.03-.05.14-.27.14-.31s-.1-.29-.08-.34c.02-.04.15-.12.19-.08.05.03.37.47.35.43-.02-.04,0-.26,0-.3,0-.04-.03-.12-.08-.15-.05-.03-.3-.1-.33-.12s-.14-.34-.12-.32c.02.01.2.18.23.14.03-.04.15-.38.15-.38,0,0,.3.69.3.64s.09-.67.09-.67l.12-.04v-.3s.17.56.18.61c.01.05-.11.01-.11.12s.08.34.05.4c-.03.07-.24.2-.3.34-.06.14-.02.42.02.44s.22.12.26.02c.04-.1.05-.36.06-.4.01-.03-.07-.07-.07-.07,0,0,.24-.08.25-.15.01-.08.05-.47.06-.51s.27-.34.26-.38c-.01-.04-.1-.19-.08-.21.02-.01.15-.2.2-.12.05.08.13.21.1.3-.03.1-.33,1.07-.29,1.14.05.06.3.31.29.36,0,.04-.12.05-.12.11,0,.05-.05.4-.03.41.02.01.17.11.16.06-.01-.05.06-.47.13-.47.07,0,.17-.06.13.05-.03.12-.13.36-.13.36,0,0,.05.06.08.06s.19-.1.2-.14c0-.04.14-.79.15-.81.01-.02.04-.12.14-.09.1.03.12.15.16.1s.17-.66.21-.67c.04,0,.22-.08.27-.01.05.07.03.19.09.23.07.04.23.06.21.11-.02.05-.24.17-.25.25,0,.08,0,.16,0,.16h.12s-.05.18-.05.18l1-.14s.17-.16.13-.2c-.03-.04-.23-.4-.23-.4,0,0,.28-.78.28-.84s-.13-.27-.15-.29c-.02-.03-.37-.16-.37-.16,0,0,.13-.07.15-.07s.5.08.49.02-.1-.81-.07-.79c.03.02.27.26.29.4.02.14-.08.25-.07.31.01.07.05.17.07.12.02-.05.37-.6.41-.51s.21.26.22.31c0,.05-.1.4-.06.42s.32-.03.38.02c.06.05.16.27.18.27.02,0,.42-.26.42-.26,0,0,.03-.1,0-.15-.03-.05-.33-.26-.29-.34.03-.08.11-.27.11-.35s-.06-.38-.06-.38c0,0,.34-.14.3-.03-.04.11-.17.31-.11.34.06.02.18,0,.17.05-.01.05-.11.15-.1.17,0,.02.17,0,.14.08-.03.08-.09.17-.1.3-.01.13.19.68.25.63.06-.05.21-.18.21-.26s.06-.43.07-.45.09-.1.13-.04c.05.05,0,.19.09.17.08-.02.21-.18.19-.23-.02-.05-.27-.21-.27-.21l.05-.15s.15,0,.14-.03c-.01-.04-.07-.25-.09-.25-.02,0-.17-.1-.17-.13,0-.03.1-.24.07-.24s-.41,0-.4-.03c.01-.03.13-.11.15-.18.01-.07,0-.27,0-.34s-.15-.31-.06-.29c.09.03.29,0,.29.11,0,.11-.08.36-.04.42.04.05.19.14.27.12.08-.02.15-.03.13-.05-.01-.02-.11-.1-.1-.14,0-.05.06-.23.1-.21.04.02.1.21.26.15s.46-.21.49-.21.19-.05.14.04c-.05.1-.15.28-.15.35,0,.07.05.09.05.17s-.03.32-.07.33c-.03,0-.26-.14-.27-.03,0,.11.03.21.06.22.03,0,.13-.08.2-.06.07.01.11-.02.14.06s.16.75.27.72c.11-.02.51-.15.46-.18-.05-.03-.26-.14-.27-.21,0-.07-.05-.48-.01-.49s.39-.23.39-.07-.02.25,0,.36c.02.11.11.27.18.27s.65-.07.6-.15-.38-.21-.29-.27c.09-.06.86-.22.86-.22,0,0,.08-.38.13-.39.05-.01.38-.36.41-.4.03-.03.24-.53.25-.55,0-.02.01-.05,0-.1-.01-.05-.32-.23-.25-.23s.66-.02.66-.02c0,0,.04-.18,0-.21s-.2-.06-.14-.09c.06-.03.27-.1.27-.14s-.05-.15-.03-.17c.02-.02.19-.1.21-.09.02.01.06.32.13.29.07-.03.31-.14.37-.23.06-.08.51-.66.51-.69,0-.03.53-.25.53-.27,0-.02-.09-.16-.11-.15-.02,0-.37.16-.39.12-.02-.03-.14-.45-.14-.5s.11-.34.09-.36c-.02-.02-.15-.1-.17-.08s-.2.19-.21.15c0-.04.01-.44-.01-.47-.03-.03-.61-.59-.64-.61-.03-.01-.09-.01-.1.03,0,.04.46,1.05.44,1.1-.02.05-.25.4-.25.42,0,.02-.25.22-.27.2-.03-.02.13-.81.13-.81,0,0-.2.14-.21.05,0-.08-.07-.45-.09-.47-.02-.02-.15,0-.19-.04-.03-.03-.14-.36-.17-.27-.03.08-.01.29,0,.33.02.03.22.36.22.36,0,0-.08.05-.12.03-.04-.02-.17-.21-.21-.18-.03.03-.07.11-.05.12.02.01.33.28.33.28h-.17s-.17.18-.21.12-.12-.61-.16-.61-.21-.14-.2.03c.01.16.17,1.33.02,1.33s-.3-.03-.3-.08.06-.17.09-.28c.03-.11.05-.64,0-.7-.04-.06-.15-.34-.2-.37-.05-.03-.52-.19-.52-.22s.14-.29.09-.31c-.05-.02-.19-.06-.24-.08-.05-.02-.13-.14-.11-.17.02-.03.07-.12.13-.1.07.01.3.05.39.08.09.03.37.14.39.2.03.06.31.43.31.41s.09-.35.11-.34c.03,0,.14.09.16.08.02-.01.04-.08,0-.14-.04-.06-.19-.27-.29-.34-.1-.06-.49-.24-.49-.27,0-.03.04-.09.04-.09,0,0,.13.06.13.03,0-.03-.07-.14.03-.1.09.04.56.39.56.34s.07-.21-.03-.25c-.1-.04-.35-.16-.36-.21,0-.04.02-.18.05-.17.03,0,.31.16.31.16,0,0,.15-.21.17-.18.02.03.17.31.16.4,0,.08-.06.22-.04.24.02.02.33.16.33.14s-.11-.14-.09-.18.27-.11.3-.18.07-.45.07-.48.18-.1.15-.09c-.03.01-.13-.12-.13-.16s.09-.15.02-.31c-.07-.16-.35-.77-.38-.81-.03-.03-.21-.34-.23-.34s-.23.1-.22.08c0-.03.09-.25.03-.27-.06-.03-.27-.16-.25-.18.01-.03.19-.34.19-.36s-.1-.55-.18-.59c-.08-.05-.29-.3-.32-.33-.03-.03-.38-.9-.4-.92-.02-.03-.95-.19-.98-.19s-.39-.27-.49-.29c-.11-.02-.28-.05-.28-.03s-.09.66-.12.72c-.03.05-.3.36-.39.42-.09.07-.37.18-.39.13s-.53-.54-.59-.58c-.05-.04-.28-.1-.34-.12-.06-.01-.16-.42-.16-.42,0,0-.36-.23-.36-.29s.13-.44.08-.62c-.05-.17-.27-.46-.29-.49-.02-.03-.14-.14-.18-.2-.04-.06-.14-.45-.18-.57-.04-.12-.2-.23-.19-.27,0-.05.03-.05.2-.14.17-.09.29-.27.3-.38.01-.1-.09-.26,0-.34.1-.08.37-.31.39-.4.02-.08.03-.37,0-.43-.03-.06-.02-.09.02-.17s-.11-.51-.19-.62c-.08-.11-.16-.32-.25-.38-.09-.06-.3-.07-.31-.18,0-.11-.09-.69-.14-.79-.05-.1-.33-.43-.28-.49.05-.06.32-.26.41-.28.09-.02.15-.15.15-.15h.19s-.02-.09.07-.08c.09.01.29.14.35.13.05-.01.13-.08.05-.2-.07-.12-.25-.36-.23-.46.02-.1.15-.4.15-.45,0-.05-.05-.52-.11-.64-.06-.12-.27-.37-.35-.42-.08-.05-.44-.01-.46,0-.02.01-.1.25-.18.28s-.66-.14-.68-.14-.26.04-.31,0c-.05-.03-.39-.21-.43-.23s-.23.03-.3,0c-.07-.04-.3-.31-.32-.32-.02,0-.17.15-.25.12s-.29-.23-.35-.29c-.05-.06-.53-1.01-.55-1.04-.02-.03-.29-.29-.27-.14.03.14.23.48.15.49s-.28-.08-.37-.1c-.09-.02-.13-.05-.24-.09-.11-.03-.39-.08-.48-.09-.09,0-.28-.23-.31-.26-.03-.03.07-.09.1-.11.03-.02-.07-.79-.04-.79s.29.03.32-.03c.03-.06-.09-.32-.16-.41-.07-.09-.16-.14-.15-.29,0-.14.05-.54.06-.6s.32-.55.34-.57c.02-.02.27-.12.25-.2-.02-.08-.41-.66-.44-.77-.03-.1-.06-.49-.06-.49l.12-.18s.16-.03.21-.07c.05-.04.29-.45.29-.49s-.35-.39-.4-.51-.05-.92-.05-.92v-2.75s-.07-3.26-.07-3.26l-.05-3.22-.18-13.97s-.03-.16-.19-.3-1.04-.63-1.17-.79c-.13-.16-.53-1.15-.8-1.4-.27-.25-.35-.55-.35-.55,0,0-.43-.22-.51-.36-.08-.14-.35-.52-.48-.6-.13-.08-.9-.57-1.01-.68-.11-.11-.48-.33-.53-.44-.05-.11-.37-.68-.37-.68,0,0-.66-.22-.77-.3-.11-.08-.32-.36-.32-.36,0,0-.29.08-.37.08s-.45-.19-.45-.19l-.98.22s-.35.33-.32.41c.03.08.05.66,0,.82-.05.16-.56.22-.72.22s-.27-.3-.56-.3-.51-.05-.69.05c-.19.11-.11.22-.32.25-.21.03-.61,0-.61,0l-.35.77s-.69.3-.8.27c-.11-.03-.35-.22-.66-.14-.32.08-.48.22-.61.3-.13.08-.74.19-.9.33s-1.2.85-1.2.85l-.69-.68-.66-.22s-.24-.14-.27-.22c-.03-.08-.61-.36-.64-.6-.03-.25.03-1.09,0-1.37-.03-.27.01-1.12,0-1.2-.02-.08.19-.27.19-.38s-.03-.25-.03-.25c0,0,.19-.11.13-.27-.05-.16-.21-.38-.3-.41-.1-.03-.47,0-.47,0,0,0-.29.11-.4-.01-.11-.12-.13-.21-.24-.26-.11-.05-.35-.16-.35-.16h-.69s-.35-.3-.35-.22-1.04,1.61-1.04,1.61l-7.53,10.94-2.77,4.02-.93,5.94-.59.16s0,.27-.19.41c-.19.14,0-.03-.19.14-.19.16-.16.27-.45.44-.29.16-.56.16-.64.27s-.21.44-.21.44c0,0,.03.36,0,.52-.03.16-.24.25-.32.33s-.37.82-.43,1.04c-.05.22-.48.98-.48.98,0,0,.72,1.07.72,1.15s-.19.44-.24.63c-.05.19-.05.38-.05.38,0,0-.35-.11-.43,0-.08.11-.35.68-.35.68h.4s.11.27-.05.38c-.16.11-.29.41-.35.49-.05.08-.11.44,0,.52.11.08-.06.38-.06.38v.38h.49l.11.16.43.3s-.16.11-.27.33c-.11.22-.03.38-.08.63-.05.25-.67.77-.67.77l-.58.3s-.59.49-.69.71c-.11.22-.37.55-.35.68.03.14.19.55.19.55,0,0,.29.44.21.55s-.22.36-.4.41c-.18.05-.82.22-.9.27-.08.05-.37.33-.45.38s-.21.22-.32.27c-.11.05-.53.16-.53.16,0,0-.29.49-.51.66-.21.16-.98.63-1.01.71-.03.08-.32.55-.32.55v.41c0,.08-.53.79-.53.79v.25s-.05.16,0,.38c.05.22.37.44.48.63.11.19.45.38.45.38l.13.36h.13l-.05.3s.16.11.13.19l-.03.08-.16.38h-.35l-.32-.27h-.45s-.22-.25-.32-.38c-.11-.14-.19-.3-.35-.38-.16-.08-.4-.16-.53-.05-.13.11-.45.6-.45.6,0,0,.24.52.24.63s-.13.66-.11.74c.03.08.21.33.11.52-.11.19-.45.33-.45.33,0,0-.03.25,0,.33.03.08-.11.16-.16.33-.05.16,0,.52-.16.63-.16.11-.51.19-.53,0-.03-.19-.43-.98-.43-.98,0,0-.03-.49,0-.63.03-.14-.35-.57-.48-.6-.13-.03-.24.05-.32.05s-.43-.19-.43-.19c0,0,.24.44,0,.49s-.8.05-.9.08Z"/>
      <path class="cls-1" d="M60.62,55.36c.09.05.29.1.35.1s.14-.1.14-.2,0-.21-.11-.26c-.11-.05-.26-.02-.27-.1-.01-.08-.04-.2-.09-.29-.05-.09-.36-.27-.36-.27,0,.03-.04.42-.04.45s.11.27.15.29c.05.03.17.06.18.08,0,.02-.03.14.05.18Z"/>
      <path class="cls-1" d="M56.17,61.73c.03.08.03.25.11.27.08.02.55-.07.55-.07,0,0-.04-.13,0-.15s.18-.12.18-.12c0,0-.25.07-.29.02-.04-.05-.27-.2-.27-.2,0,0-.15.08-.14.13,0,.05.05.11.03.12-.02.01-.19-.08-.16,0Z"/>
      <polygon class="cls-1" points="55.1 62.09 55.25 61.93 55.17 61.87 55.1 62.09"/>
      <polygon class="cls-1" points="55.34 62.15 55.48 62.15 55.44 61.91 55.34 62.15"/>
      <polygon class="cls-1" points="54.98 62.4 55.18 62.35 55.01 62.15 54.98 62.4"/>
      <polygon class="cls-1" points="54.01 62.61 54.09 62.76 54.17 62.5 54.01 62.61"/>
      <path class="cls-1" d="M52.96,62.76s.08.03.15,0c.07-.03.09-.1.11-.13.02-.04,0-.09,0-.13,0-.05-.03-.12.06-.1s.41.1.43.1c.02,0,.07-.12,0-.16-.07-.04-.2-.08-.25-.13-.05-.05-.23-.17-.23-.17,0,.03-.04.3-.04.3,0,0-.11.04-.13.04s-.21-.22-.21-.17.01.21,0,.26c-.01.05.07.3.11.3Z"/>
      <path class="cls-1" d="M53.69,62.85s-.24-.08-.24-.08c-.03,0-.39.13-.35.15.03.01.15.09.18.1.02,0,.16-.01.24-.04.08-.03.18-.1.18-.12Z"/>
      <polygon class="cls-1" points="52.93 63.46 52.9 63.55 53.03 63.59 53.09 63.52 52.93 63.46"/>
      <polygon class="cls-1" points="51.22 62.9 51.11 62.9 51.11 63.37 51.22 63.37 51.22 63.14 51.22 62.9"/>
      <polygon class="cls-1" points="51.78 63.72 51.62 64.09 51.73 64.15 51.9 63.94 51.78 63.72"/>
      <polygon class="cls-1" points="52.99 64.11 53.13 64.15 53.19 64.34 53.39 64.3 53.23 64 52.99 63.89 52.56 63.89 52.53 64.02 52.85 64.13 52.82 64.26 52.99 64.11"/>
      <polygon class="cls-1" points="52.6 64.12 52.6 64.2 52.68 64.29 52.74 64.15 52.6 64.12"/>
      <polygon class="cls-1" points="52.99 64.34 52.85 64.34 52.82 64.49 52.9 64.61 53.04 64.61 52.99 64.34"/>
      <polygon class="cls-1" points="52.85 64.67 52.82 64.8 52.96 64.82 53.04 64.75 52.85 64.67"/>
      <path class="cls-1" d="M51.9,64.2s.29,1.13.29,1.13c0,0,.29-.12.29-.15s-.07-.31-.07-.31l.16-.08s-.37-.4-.38-.44c0-.04,0-.55,0-.55,0,0-.31.38-.29.41Z"/>
      <polygon class="cls-1" points="51.32 63.86 51.22 63.89 51.28 64.08 51.41 64.02 51.32 63.86"/>
      <polygon class="cls-1" points="51.49 64.24 51.41 64.34 51.57 64.39 51.62 64.31 51.49 64.24"/>
      <polygon class="cls-1" points="51.45 64.39 51.38 64.53 51.52 64.56 51.57 64.48 51.45 64.39"/>
      <polygon class="cls-1" points="51.76 64.39 51.71 64.53 51.83 64.56 51.9 64.48 51.76 64.39"/>
      <polygon class="cls-1" points="51.71 64.96 51.62 65.07 51.76 65.12 51.8 65.04 51.71 64.96"/>
      <polygon class="cls-1" points="51.76 65.3 51.76 65.43 51.9 65.43 51.93 65.36 51.76 65.3"/>
      <polygon class="cls-1" points="52.01 65.36 51.93 65.51 52.05 65.6 52.13 65.43 52.01 65.36"/>
      <polygon class="cls-1" points="50.86 64.34 50.97 64.56 51.01 64.39 50.86 64.34"/>
      <polygon class="cls-1" points="50.48 64.45 50.45 64.56 50.56 64.61 50.62 64.56 50.48 64.45"/>
      <polygon class="cls-1" points="50.86 64.56 50.78 64.71 50.91 64.75 51.01 64.69 50.86 64.56"/>
      <polygon class="cls-1" points="50.9 64.99 50.86 65.1 50.94 65.12 51.01 65.04 50.9 64.99"/>
      <polygon class="cls-1" points="50.35 65.04 50.3 65.12 50.45 65.17 50.5 65.06 50.35 65.04"/>
      <path class="cls-1" d="M48.54,63.44s-.16.25-.13.28c.03.03.19.25.18.17-.01-.08-.05-.45-.05-.45Z"/>
      <path class="cls-1" d="M48.98,64.61s.19-.11.15-.16c-.03-.05-.39-.45-.39-.45,0,0-.04.19,0,.23s.23.16.23.16l-.07.14.07.08Z"/>
      <path class="cls-1" d="M49.25,64.71l-.2.04s.14.14.14.12.06-.16.06-.16Z"/>
      <polygon class="cls-1" points="48.57 64.39 48.41 64.66 48.57 64.67 48.63 64.53 48.57 64.39"/>
      <polygon class="cls-1" points="48.35 65.04 48.41 65.36 48.5 65.12 48.35 65.04"/>
      <path class="cls-1" d="M48.06,65.64s-.07-.43-.07-.43c0,0-.06.03-.07.05,0,.02-.06.52-.06.52l.27.18.06-.25s-.13-.03-.13-.06Z"/>
      <polygon class="cls-1" points="44.52 67.44 44.65 67.48 44.52 67.2 44.52 67.44"/>
      <path class="cls-1" d="M44.11,66.83s.03-.16.03-.19-.1-.27-.1-.27c0,0-.21.18-.23.25-.03.07,0,.18.04.21.04.03.08.08.11.08s.15-.08.15-.08Z"/>
      <path class="cls-1" d="M44.26,66.05h-.27l.14.26s.12-.06.13-.09c0-.03,0-.17,0-.17Z"/>
      <path class="cls-1" d="M44.17,65.51s-.14-.14-.14-.14l-.11.33.04.22s.13-.21.13-.23.08-.14.07-.18Z"/>
      <path class="cls-1" d="M39.54,68.37c-.01.1-.03.38,0,.46.03.08.07.14.11.14s.23,0,.23.04-.11.18-.09.22c.01.04.17.42.17.42,0,0,.23-.23.21-.15-.02.08-.09.25-.06.27.03.03.08.05.08.05,0,0,.04-.17.11-.14.07.03.23.09.23.17,0,.08-.06.3-.03.33.03.03.13.16.13.08s.07-.52.12-.47c.05.05.09.6.16.59.07,0,.39-.14.47-.19s.3-.4.31-.46c0-.06-.11-.44-.15-.43-.04,0-.42-.11-.42-.11l.08-.13s.07.08.09.05c.01-.02-.09-.21-.09-.21,0,0,.1-.11.13-.19.03-.08.01-.42,0-.5-.02-.08-.34-.94-.21-.94s.24.01.28.08c.04.06.11,1.21.14,1.24.03.03.24.37.28.35.04-.02.02-.06.09-.07.07,0,.43.04.47.02.03-.02-.04-.12.05-.1.09.01.17.1.28.04.11-.06.28-.18.28-.21s.09-.29.11-.26c.02.03.05.12.07.12s.1-.03.11-.1c0-.07.01-.3.03-.31.02-.01.15.03.15-.03s-.17-.91-.19-.93c-.03-.02-.19-.4-.21-.41-.02-.01-.38-.18-.38-.18,0,0-.35-.32-.35-.34s.14-.33.09-.36c-.05-.03-.28-.16-.28-.16h-.15s-.16.08-.29.08-.29-.16-.33-.18-.16-.03-.18,0c-.02.03-.19.34-.21.37-.02.03-.21.07-.21.07,0,0,.06-.14,0-.12-.06.02-.27.03-.23.12.03.09.23.48.19.5-.03.02-.35.15-.35.15s.08.11,0,.15c-.08.04-.29.13-.32.2-.03.07-.06.38-.09.4-.03.03-.07,0-.08.04-.01.05-.11.18-.1.22.01.03.11.06.12.11,0,.05-.07.38-.07.38,0,0-.3.14-.31.23Z"/>
      <path class="cls-1" d="M39.7,67.43c0-.09-.05-.44-.05-.44,0,0-.13.05-.18.12-.05.06-.28.47-.28.52s.14.12.15.22.02.29.03.31c0,.02.12-.05.16-.1.04-.04.09-.14.06-.17-.03-.03-.15-.05-.11-.12s.23-.25.23-.34Z"/>
      <path class="cls-1" d="M38.68,67.57c-.03-.13-.12-.43-.17-.55-.05-.12-.18-.21-.18-.21,0,0-.13.14-.15.25-.02.11-.15.79-.15.83,0,.04-.1.14,0,.18s.25.03.3.02c.05,0,.18.12.23.16.05.04,0,.16.07.13.07-.03.25-.21.23-.22-.01-.01-.21-.26-.21-.28s.05-.17.02-.31Z"/>
      <path class="cls-1" d="M39.19,68.72s.13-.18.13-.21-.13-.21-.13-.21v.42Z"/>
      <path class="cls-1" d="M38.95,69.47s-.07-.27-.08-.3c0-.03-.27-.17-.27-.17,0,.08.06.34.09.36.03.03.26.14.26.11Z"/>
      <path class="cls-1" d="M42.34,69.15s-.42.03-.41.05c.01.02.15.14.15.14,0,0,.11-.02.16-.04.05-.02.1-.14.1-.14Z"/>
      <path class="cls-1" d="M42.79,69.52s-.33-.11-.33-.11c0,.02,0,.3,0,.3l.33-.07s0-.11,0-.12Z"/>
      <path class="cls-1" d="M42.13,69.81s-.05-.18-.05-.18c0,0-.21.06-.2.12,0,.05,0,.42.05.4.05-.02.34-.21.34-.21,0,0-.13-.11-.14-.13Z"/>
      <path class="cls-1" d="M42.93,69.89s.03.15.05.16c.03,0,.17.05.15,0-.02-.05,0-.22,0-.22-.02,0-.21.06-.21.06Z"/>
      <path class="cls-1" d="M41.17,70.94c.07-.02.21,0,.18-.07-.03-.07-.11-.26-.13-.24-.02.02-.17,0-.17,0,0,0-.11.14-.04.18s.09.14.17.12Z"/>
      <path class="cls-1" d="M40.61,71.16c.03-.09.13-.29.13-.29-.07,0-.19.06-.19.06,0,0-.26.23-.24.24.02,0,.05.08.11.07.06-.01.16,0,.19-.08Z"/>
      <path class="cls-1" d="M41.02,71.43c0-.08-.09-.27-.09-.27-.04,0-.2-.03-.19.06s.01.28.05.29c.04,0,.23,0,.23-.08Z"/>
      <path class="cls-1" d="M42.45,71.46s0-.17,0-.17c0,0-.19-.04-.18,0,0,.04.04.16.07.17.03,0,.11.04.12,0Z"/>
      <path class="cls-1" d="M42.36,71.69s-.07.1-.09.12c-.02.02.09.27.09.27,0,0,.11-.23.09-.26-.02-.03-.09-.13-.09-.13Z"/>
      <path class="cls-1" d="M40.97,72.52s-.24-.15-.24-.15c-.03.02-.35.25-.33.31.02.06.07.25.12.25s.33-.14.35-.1c.02.05.11.11.14.1.03-.01.13-.08.09-.12-.04-.03-.12-.06-.14-.11-.02-.05.04-.15,0-.19Z"/>
      <path class="cls-1" d="M39.36,71.27c-.09-.02-.22-.11-.25-.08-.03.03-.1.27-.12.29-.02.02-.25.08-.27.1-.02.01-.17.14-.17.19s.19.25.21.25c.02,0,.35-.34.37-.26.03.08.01.28.07.32.06.04.32-.25.32-.19,0,.06-.1.06,0,.19.1.13.08.22.19.22s.36,0,.4-.06c.04-.06.1-.36.1-.42s-.13-.32-.2-.44c-.07-.12-.22-.36-.22-.36,0,0,.05.34,0,.36-.05.02-.49.18-.49.13,0-.04.15-.22.05-.24Z"/>
      <path class="cls-1" d="M39.55,72.45s-.14-.15-.14-.15c0,0-.17.1-.17.12s.21.18.23.17c.02,0,.11-.12.07-.15Z"/>
      <path class="cls-1" d="M38.49,72.85c.05,0,.19.01.17-.08-.02-.09-.21-.4-.21-.4-.07.05-.29.25-.24.32.05.08.17.42.18.4.01-.03.05-.24.1-.24Z"/>
      <path class="cls-1" d="M38.95,70.23s-.22-.03-.21,0,.03.18.03.18c0,0,.16,0,.17-.03.01-.03,0-.15,0-.15Z"/>
      <path class="cls-1" d="M38.77,70.81s.11-.19.11-.19l-.03-.11s-.16.07-.19.11c-.03.04-.11.17-.06.19.05.01.15.03.17,0Z"/>
      <path class="cls-1" d="M39.24,70.78c-.05-.03-.24-.11-.24-.11-.01.02-.06.14-.06.16s-.02.06.06.04c.08-.01.29-.06.24-.09Z"/>
      <path class="cls-1" d="M37.14,70.13v.11s.11.1.13.07c.01-.03.08-.1.08-.1l-.21-.08Z"/>
      <path class="cls-1" d="M37.35,71.15s.21.05.17-.09c-.03-.14-.38-.62-.38-.62-.03.06-.11.22-.08.27.03.05.05.06.08.12.03.06-.05.14-.04.18,0,.04.24.13.25.13Z"/>
      <polygon class="cls-1" points="36.72 70.27 36.91 70.41 36.96 70.27 36.72 70.27"/>
      <path class="cls-1" d="M36.72,70.99s-.3-.05-.3-.05l-.14.12.5.19s.05-.03.03-.1c-.01-.07-.05-.14-.09-.16Z"/>
      <polygon class="cls-1" points="36.41 72 36.62 72.04 36.55 71.84 36.41 72"/>
      <polygon class="cls-1" points="35.79 72.1 35.79 72.22 36.03 72.35 36.03 72 35.79 72.1"/>
      <polygon class="cls-1" points="36.19 72 36.23 72.18 36.28 72.04 36.19 72"/>
      <polygon class="cls-1" points="36.89 72.09 36.96 72.3 37.01 72.09 36.89 72.09"/>
      <polygon class="cls-1" points="36.66 72.66 36.84 72.45 36.72 72.35 36.66 72.66"/>
      <polygon class="cls-1" points="36.37 72.56 36.57 72.37 36.37 72.37 36.37 72.56"/>
      <polygon class="cls-1" points="36.19 72.73 36.08 72.84 36.19 72.98 36.47 72.98 36.19 72.73"/>
      <polygon class="cls-1" points="36.66 73.22 36.89 73.13 36.75 73.06 36.66 73.22"/>
      <path class="cls-1" d="M36.41,73.45h-.43s-.13.2-.07.2h.33l.18-.2Z"/>
      <path class="cls-1" d="M36.23,75.1s-.09-.22.05-.22.46-.16.47-.13c.01.03-.04.33.02.23.06-.1.24-.65.23-.79,0-.14-.06-.88-.06-.88,0,0-.23-.08-.29,0-.06.08-.51.7-.51.7l.03.12s.21-.13.18-.05c-.03.08-.29.75-.29.79,0,.03.15.27.15.23Z"/>
      <path class="cls-1" d="M35.37,70.13s-.01.12-.06.14c-.05.02-.38.14-.35.14s.26.06.32.14c.06.08.2.28.14.39-.06.11-.19.2-.19.31,0,.11,0,.27.03.3.03.03.25,0,.25,0,0,0-.27.12-.08.2.19.08.37.17.41.16.05,0,.57-.18.57-.18,0,0,0-.1-.05-.15s-.09-.18-.09-.18c0,0,.05-.05.09-.03s.26.15.25.12c0-.03.15-.06.05-.12-.1-.05-.54-.25-.53-.31.01-.05.04-.14.05-.18,0-.04-.13-.1-.11-.1.02,0,.14-.12.21-.1s.46.28.44.21c-.02-.07-.11-.26-.1-.26,0,0,.31-.1.27-.1s-.96,0-.96,0c0,0,.06-.1.1-.11.03,0,.61.03.59,0-.02-.03-.11-.38-.05-.37.06.01.32.09.32.09,0,0-.11-.38-.14-.44-.04-.06-.4-.19-.47-.21-.07-.02-.13-.11-.2-.16s-.23-.19-.23-.19c0,0-.31.64-.31.69s0,.16,0,.19c0,.03.13.12.16.17.03.05.04.13,0,.14-.04,0-.32-.19-.32-.19Z"/>
      <path class="cls-1" d="M35.06,69.04c.05.05.31.18.34.2.03.02.2-.02.23-.07.03-.05.05-.16,0-.23-.05-.08-.65-.48-.65-.48,0,0-.16.04-.16.1s0,.16.05.19c.05.03.19.06.2.11.01.05-.05.12,0,.18Z"/>
      <path class="cls-1" d="M34.64,69.54c.09-.01.53,0,.44-.06-.09-.07-.44-.24-.44-.24l-.09.08s.08.02.09.09c0,.07-.09.15,0,.14Z"/>
      <path class="cls-1" d="M34.48,69.72s-.01.23,0,.24.25-.06.25-.08-.25-.16-.25-.16Z"/>
      <path class="cls-1" d="M33.64,70.22c.03-.08.06-.31.06-.31h-.17s-.06.31-.03.31c.03,0,.11.08.14,0Z"/>
      <path class="cls-1" d="M34.23,70.27s-.12-.25-.12-.25h-.13s-.04.29,0,.3c.04,0,.28,0,.25-.05Z"/>
      <path class="cls-1" d="M34.34,70.44s-.18.16-.18.18.09.18.09.18l.16-.28-.07-.08Z"/>
      <polygon class="cls-1" points="34.16 72 34.05 72.19 34.2 72.18 34.23 72.04 34.16 72"/>
      <polygon class="cls-1" points="33.85 72.09 33.6 72.18 33.63 72.24 33.85 72.19 33.85 72.09"/>
      <path class="cls-1" d="M31.94,72.35c-.03.07-.09.47-.09.43,0-.03.15-.24.3-.37.15-.13.5-.4.54-.4s.16,0,.16.03-.04.2-.06.21c-.02,0-.24.02-.19.05.05.03.15.13.26.11.11-.02.25,0,.21-.11-.03-.1-.1-.17-.07-.2.03-.03.07-.12.1-.09.03.03.03.18.09.16.05-.02.14-.02.14-.08s-.09-.15-.03-.15c.06,0,.17-.04.21-.03.04.01.11.08.1.1,0,.01.39-.03.36-.07-.03-.03-.28-.13-.24-.16.04-.03.1-.05.06-.13s-.19-.32-.19-.32l.1-.14-.1-.1-.28.15s.03-.19-.05-.12-.63.47-.61.51c.02.04.13.14.11.15-.02.01-.05.03-.11.05-.07.01-.17-.1-.23-.05-.06.04-.39.3-.39.3,0,0,.13.07.08.1-.05.04-.15.08-.19.15Z"/>
      <path class="cls-1" d="M33.34,72.98s.23.08.26.08c.02,0,.16-.05.21-.12s.04-.32,0-.34-.25-.03-.25-.03c0,0-.13,0-.15,0-.01,0-.11-.18-.11-.18,0,0-.15.05-.13.06.02.01.15.05.13.12-.01.07,0,.41.04.42Z"/>
      <path class="cls-1" d="M33.6,73.32s.31-.13.31-.13l-.07-.13s-.26.26-.24.26Z"/>
      <path class="cls-1" d="M32.87,72.56c-.13-.03-.43-.04-.45,0-.02.04-.1.07-.11.22s0,.33,0,.33h.09s-.03.09,0,.13c.03.04,0,.08.09.08s.28-.03.27,0c-.01.03-.12.09-.04.17.08.08.19.06.19.06,0,0,.15-.15.12-.03-.03.12-.22.51-.22.51,0,0,.2.03.22.06s0,.08.06.13c.05.05.03.14.12.08.09-.06.34-.34.35-.29.01.05.03.45.03.45,0,0,.35,0,.31-.08s-.07-.2-.07-.2c0,0,.02-.02.07-.08.05-.05.13-.2.14-.19.01,0-.02.12.09.06.12-.06.22-.22.21-.26-.01-.04-.18-.53-.18-.53,0,0,0,.14-.09.17-.09.03-.47.1-.55.04-.09-.06-.37-.38-.41-.42-.03-.04-.26.06-.22.03.04-.03.13-.15.1-.22-.03-.08-.13-.22-.13-.22Z"/>
      <path class="cls-1" d="M32.5,73.45s-.2-.08-.2-.08c.02.02.13.36.15.37.03.01.09-.27.05-.29Z"/>
      <path class="cls-1" d="M32.6,74.36s-.12.05-.12.08.04.14.04.14c0,0,.13,0,.14-.03.01-.03-.07-.18-.07-.18Z"/>
      <path class="cls-1" d="M33.19,74.53l-.25-.35s-.13.05-.12.09c.01.03.1.28.12.3.02.02.25-.04.25-.04Z"/>
      <polygon class="cls-1" points="30.2 73.61 30.37 73.61 30.34 73.37 30.2 73.61"/>
      <polygon class="cls-1" points="30.09 73.74 30.06 73.87 30.2 73.91 30.2 73.74 30.09 73.74"/>
      <path class="cls-1" d="M31.81,69.6s-.13-.32-.13-.32c-.03.03-.21.4-.2.44,0,.03.18.21.2.19.02-.02.14-.27.13-.31Z"/>
      <path class="cls-1" d="M31.73,70.09s-.09.39-.09.39l.28-.51s-.19.08-.19.12Z"/>
      <path class="cls-1" d="M31.87,68.97c.05.02.21.03.23.06.03.03.08.14.08.16s-.11.36-.09.35c.02,0,.12-.05.08.05s-.15.37-.15.42.03.06.05.06c.02,0,.24-.27.26-.37.01-.1.06-.49.07-.56.01-.07.23-.49.23-.52,0-.03-.23-.13-.21-.18.02-.05.17-.13.17-.19,0-.06.01-.59.03-.57.02.01.16.14.16.14,0,0,.09-.05.08-.1-.01-.05-.05-.14-.04-.2.01-.05.22-.29.21-.36-.01-.08-.25-.5-.25-.5,0,.02.02.3-.05.3s-.28-.07-.3,0c-.02.07-.16.2-.15.27.01.08.01.18.03.24.01.05.06.12.06.14s-.19.16-.19.26.03.16.05.17c.02,0,.11-.03.13,0,.02.03.04,0,.02.1-.02.1-.55.79-.49.81Z"/>
      <path class="cls-1" d="M32.94,65.77c.05-.13.02-.31,0-.36-.02-.05-.24-.14-.24-.14-.02.04-.11.21-.07.31.04.11.13.22.17.23.05.01.09.08.14-.05Z"/>
      <path class="cls-1" d="M34.52,63.67c0-.12-.19-.55-.21-.62-.02-.06-.17-.17-.17-.17-.03.05-.17.34-.16.47.01.12,0,.14.04.31.05.16.21.55.23.53.01-.02.27-.4.27-.51Z"/>
      <path class="cls-1" d="M28.98,75.16s-.05.15,0,.15.27-.12.27-.12l-.27-.03Z"/>
      <path class="cls-1" d="M28.78,75.24h-.19l-.13.21s.13-.05.13-.03.1.08.1.08l.09-.26Z"/>
      <polygon class="cls-1" points="30.26 77.02 30.33 77.17 30.4 77.02 30.26 77.02"/>
      <polygon class="cls-1" points="30.65 77.21 30.65 77.43 30.83 77.38 30.78 77.24 30.65 77.21"/>
      <path class="cls-1" d="M29.04,77.43s-.12.09-.13.11c0,.02-.09.53-.08.55.01.02.21,0,.21,0v-.66Z"/>
      <path class="cls-1" d="M32.58,77.91s-.25.17-.25.19-.08.37-.08.37c0,0,.14.14.16.11.02-.03.04-.13.08-.14.04,0,.17,0,.14-.05-.03-.05-.14-.16-.11-.2.03-.03.11-.06.12-.09,0-.03-.06-.19-.06-.19Z"/>
      <path class="cls-1" d="M34.98,77.54s-.27.08-.29.1c-.03.02-.09.09-.09.09,0,0,.1,0,.12.03.02.03.21-.08.21-.08l.05-.14Z"/>
      <polygon class="cls-1" points="32.67 78.69 32.39 79.09 32.53 79.18 32.75 78.8 32.67 78.69"/>
      <path class="cls-1" d="M25.95,80.27s-.07.3-.07.3c0,0,.16-.02.18-.08.02-.05.18-.38.18-.38,0,0-.29.14-.29.16Z"/>
      <path class="cls-1" d="M26.16,78.2v-.35s-.25.36-.23.38c.02.02.05.14.07.14s.17-.16.17-.16Z"/>
      <polygon class="cls-1" points="26.34 77.98 26.34 78.19 26.52 78.19 26.52 77.93 26.34 77.98"/>
      <polygon class="cls-1" points="27.55 76.81 27.41 76.92 27.48 77.07 27.62 76.94 27.55 76.81"/>
      <polygon class="cls-1" points="26.61 76.94 26.72 77.07 26.74 76.73 26.61 76.94"/>
      <polygon class="cls-1" points="26.26 76.69 26.43 76.61 26.4 76.47 26.26 76.69"/>
      <polygon class="cls-1" points="26.04 77.13 26.21 76.94 26.04 76.9 26.04 77.13"/>
      <path class="cls-1" d="M26.04,77.3s-.1.08-.07.13c.03.05.16.18.19.16.03-.03-.12-.29-.12-.29Z"/>
      <path class="cls-1" d="M25.68,76.58l-.19.28s.14.04.15,0c0-.04.05-.28.05-.28Z"/>
      <path class="cls-1" d="M25.75,76.17v-.23h-.07s-.38.43-.37.45c.01.02.25.13.27.08s.16-.26.16-.3Z"/>
      <polygon class="cls-1" points="25.25 76.81 25.49 76.58 25.4 76.52 25.25 76.81"/>
      <path class="cls-1" d="M25.31,74.9s-.1.12-.11.17c-.01.05,0,.2,0,.2l.11-.22v-.15Z"/>
      <path class="cls-1" d="M25.09,75.4v-.38s-.19.03-.2.15c-.01.12,0,.62,0,.62,0,0,.07,0,.1-.03.02-.03.1-.3.1-.36Z"/>
      <path class="cls-1" d="M24.99,75.9s-.16.12-.16.14c0,.02.1.12.11.09,0-.03.05-.23.05-.23Z"/>
      <path class="cls-1" d="M24.4,75.68c-.02.09-.08.27-.08.3s.05.14.07.12c.01-.02.15-.42.15-.42,0,0-.11-.09-.13,0Z"/>
      <path class="cls-1" d="M24.26,76.81s.16,0,.17-.09c0-.09-.17-.47-.17-.47,0,.03-.19.92-.17.92s.05.07.08,0c.03-.07.08-.33.08-.35Z"/>
      <path class="cls-1" d="M24.43,76.81l-.08.2s.1.09.11.05c.01-.04-.03-.25-.03-.25Z"/>
      <polygon class="cls-1" points="22 77.59 22.15 77.98 22.15 77.55 22 77.59"/>
      <path class="cls-1" d="M20.5,77.3s-.01.31,0,.39c.01.08.08.01.11,0,.03-.01.14-.14.12-.23-.03-.1,0-.69,0-.69-.04.1-.23.51-.23.53Z"/>
      <path class="cls-1" d="M20.03,78.31s.29-1.4.3-1.42c0-.02.16-.19.16-.19l.36-1.33c-.05.08-.78,1.73-.81,1.77-.03.04-.19.07-.21.11-.03.04-.17.05-.16.18,0,.14.15.69.19.73s.15.18.17.15Z"/>
      <path class="cls-1" d="M20.73,78.44s-.34.42-.32.5c.02.08.45.83.45.83,0,0,.21-1.07.19-1.09-.03-.03-.32-.24-.32-.24Z"/>
      <path class="cls-1" d="M21.29,79.21s-.11.1-.1.14c.01.03.09.2.1.13,0-.07,0-.27,0-.27Z"/>
      <path class="cls-1" d="M16.62,80.98s-.15,0-.15,0l.07.16s.11-.08.11-.08-.02-.06-.04-.08Z"/>
      <path class="cls-1" d="M15.71,78.98s-.1-.2-.1-.2c0,.02-.18.21-.18.21v.19s.13-.05.15-.07c.02-.01.13-.11.13-.13Z"/>
      <polygon class="cls-1" points="15.09 79.32 15.22 79.32 15.22 79.12 15.09 79.32"/>
      <path class="cls-1" d="M15.09,79.43s-.15-.05-.16,0c0,.05.07.21.08.2.01-.01.08-.2.08-.2Z"/>
      <path class="cls-1" d="M15.09,78.98s-.29.19-.29.2.01.18.04.14c.03-.04.25-.34.25-.34Z"/>
      <path class="cls-1" d="M13.32,80.51s.2-.13.2-.13l.04-.14s.07.11.11.1c.04,0,.29-.18.25-.19-.05,0-.27,0-.25-.05.03-.05.1-.31.1-.31,0,0-.13.09-.15.1-.02.01-.21.1-.21.1,0,0,0,.1,0,.15,0,.05-.14.23-.14.27s0,.11.05.1Z"/>
      <polygon class="cls-1" points="14.68 80.58 14.79 80.66 15.01 80.23 14.68 80.58"/>
      <path class="cls-1" d="M15.15,81.03s-.07.29-.07.29l.1-.05.1-.25s-.11-.03-.13,0Z"/>
      <path class="cls-1" d="M14.22,80.23s-.11.3-.18.29c-.07,0-.23-.04-.24,0-.01.04-.32.47-.29.5.03.03.23.12.23.13s0,.18,0,.18l.19-.15s-.07-.09-.06-.11.05.03.12-.05c.07-.08.24-.78.24-.78Z"/>
      <path class="cls-1" d="M13.87,81.7l.06.18.26-.25.11.04s.04-.09,0-.12-.11-.05-.11-.05l.05-.12-.36.32Z"/>
      <path class="cls-1" d="M14.09,81.97c.01.06.01.14.03.14s.16,0,.15-.05c0-.06,0-.25,0-.25,0,0-.19.1-.18.16Z"/>
      <path class="cls-1" d="M13.35,81.72s.21-.21.21-.21l-.05-.11c-.07.03-.43.36-.45.4-.02.03-.07.02-.06.07,0,.05.19.18.21.16.01-.02.11-.28.15-.31Z"/>
      <polygon class="cls-1" points="13.72 81.55 13.92 81.48 13.92 81.32 13.72 81.55"/>
      <polygon class="cls-1" points="13.19 81.32 13.34 81.37 13.48 81.2 13.19 81.32"/>
      <polygon class="cls-1" points="13.27 82.61 13.39 82.61 13.44 82.31 13.27 82.61"/>
      <polygon class="cls-1" points="12.53 81.87 12.53 82.2 12.71 82.08 12.71 81.81 12.53 81.87"/>
      <path class="cls-1" d="M12.93,82.46c0-.07-.11-.26-.11-.26l-.29.19s-.04.08,0,.1c.04.02.25.12.25.12,0,0,.16-.08.16-.15Z"/>
      <polygon class="cls-1" points="12.51 82.66 12.39 82.84 12.51 82.95 12.72 82.71 12.51 82.66"/>
      <polygon class="cls-1" points="11.98 81.77 12.22 81.81 12.12 81.66 11.98 81.77"/>
      <polygon class="cls-1" points="12.62 81.14 12.72 81.2 12.81 81.01 12.62 81.14"/>
      <path class="cls-1" d="M12.08,85.06c.07-.03,0-.16,0-.16,0,0-.11-.05-.16,0-.05.05-.12.06-.09.08.03.01.08.08.12.08.04,0,.06.03.13,0Z"/>
    </g>
  </g>
</svg>