<svg xmlns="http://www.w3.org/2000/svg" id="Layer_2" data-name="Layer 2" viewBox="0 0 61.7 95.2"><defs><style>.cls-1{fill:#172d35}</style></defs><g id="_Ñëîé_1" data-name="Ñëîé 1"><path d="m.3 46-.3.3.5 17L.6 80v4l.4.5-.1.2v.7l-.1.7v.8c0 .2-.4.4-.4.6v.8l.3.7.5.2.4.6v.3l.4.2.3.6s.7.5.7.7l-.2.7q0-.2-.1 0v1.3l.8.7.3.4.2.1h.3v-.4l-.2-.2V94l.2.3h.1v.2h.1v.3h.2v.3h.1l.4-.1.1-.5v-.2h.1l.2-.2V94h-.1v-.3h.4l.1-.6h.4V93l-.2-.1v-.4h.2v-.3l.3-.3-.4-.6.3-.6.2-.3.2-.7.3-.3.3-.2h.6l.3.1.4-.4v-.4h.2v-.3l.1-.1h.4v-.2h.1v-.2l.3-.4.5-.3h-.2l-.3.2h-.1V87h.2l-.3-.2v-.3l-.1-.5.3-.6.4-.4v-.4l.1.2h.2v.5h.2v-.4l.5-.3v-.3.4h.5l.2-.1h.4V84l-.2-.2.1-.5-.2-.5v-.1l-.2-.1-.2.1v.2h-.5v-.1h.2l.2-.3.3-.2-.2-.3.1-.2h-.1v-.6h.1v.4l.2-.2h.2V81l.4-.5V80l.3-.2v.3l.5-.5v-.3h.5V79l.2-.3v-.3h.2l-.3.7h.1l.2-.3v-.1h.2v.3l.2-.1v-.3h.3l.3-.6h.2l.2-.2-.4 1 .5-.6h.2l.3-.2-.5 1.1-.2.1-.1.5-.5.6v.3l.3-.2v.4c0 .2.3-.3.3-.4l-.2-.2.4-.5.1-.5.1.1.3-.4v-.3l.2-.5v.3h.2v.3l-.1.3-.1-.3-.2.4.1.1-.7 1.3-.2.4h.1l.3-.6.4-.5h.1v.1h.1l.4-1.3.2.4-.2.5h.3l.2-1.6.1-.2v.2l.1-.2h.2l-.1.3v.1l-.2.4.1.3.3-.2-.3.6h.2l.1.1v.1h-.3l-.1.1v.6h.1l.1.2v.3l.2-.2-.2.6.1.2v.3h.2v-.3l.4-.2v-.3.2h.3l.2-.2-.2-.2-.1.2v-.5l.1.1v-.2l-.1-.6.1.1-.1-.4-.2.2v-.6l.2-.3v-.8h-.2v.2h-.2l.2-.3v-1.4l-.3-.1.1-.7-.1.2H18l-.2.2-.3.3v-.5l.1-.4.2.2.1-.6q.1.2.3 0s0-.7.2-.7h.4l.3-.8v.4h.2v.3l-.2.2-.3.1-.3.8.1 1 .3 2v.2l-.2.7.1.2.1-.4.2.1-.1.6.2 1v-.3l.2-.1v.3l.5-.7v-.5l.3-.8h-.3l-.4.7.3-.9-.2-.5-.2.5-.3-.8h.2l.1-.6h.2v.4l.1-.2v-.5h.4v-.2h.2v-.1l.5-1h-.2l.2-.1.1-.3.3-.2.3-.4v.4l-.3.3v.1l-.1.3-.4 1.2h.4l.4.1v.4l-.1.1-.2-.4-.3.1v1l-.3.1.2.1v.3l.3.2.3-.2v.3l.1.2.2-.6h.2v.7h-.2v.3h.2l.3-.7v-.3l-.3-.4v-.4l.3-.4-.4.3.4-1.6h.2l.2-.5v-.5l.3-.1-.1.6v.3l-.4.4-.3.7v.2q.1-.2.3 0l-.1.8v1.1l.2.1.1-.4-.2-.3.2-.4h-.2v-.2h.2V77v.3l.2-.1s-.2.6-.1.7h.1l.2-.2v-.2q0-.2 0 0l.2.2-.2.4.1.9.2-.1.3-.8h-.2l.2-.1v-.3h.1l.2-.4.1-.7.1-.1.3-1 .2-.2-.2.4h.1l.5-.7-.2-.2v-.3l.4-.3v.4l.1-.2V74l-.2-.2.1-.3.2.2.3.1.1.3-.1.4-.4.3h.4l-.2.5-.1.6v.1l.3-.3v.2l.3-.2v-.3l.2.1.3-.2-.2.4v.4l-.1.4.2-.2.2-.1v-.4l.1-.3.1.2h.2l.1-.4.1-.2v-.2l.3.1h.2l.2-.5v-.3h.1l.3-.5h.2v.3h-.2l-.1.5-.5.6h.2l-.3.3h-.1l-.2.3h-.2l-.1.4h.1v.2h-.4v.1h.2v.3l.1.2v.2l.4-.3v-.3l.3.3.3-.4V76h-.3l.3-.4V75l.1.2h.2l.1-.2h.6l.3-.5-.3-.1v-.3l-.1-.3h.2l.1.4.2-.2v.3h.4v-.5h.2v-.1l.1-.1.2-.5H30l-.6.3v-.7l.1-.2.2.1.2-.4h-.3l.2-.1.1-1 .3.3v-.9h.2v-.3l.6-1v-.6h.3l.4-.3.2-.5v-.7l-.2-.2-.4-.4.1-.2-.2-.6h.7l.4-.4h.4V65h.3l.2-.3.2-.1v.1l-.1.3v.3l.7-.4h-.3l-.1-.4.4-.3V63l-.4-.8h-.4l.1-.7.6-1-.5 1.3v.2l.3.1.4.6.5.2.1.4.2-.2.1.2-.2.9-.3.3-.2.7v.3s0-.1-.1 0l-.2.4v.7q-.2.1 0 .3h.2l.2-.2-.2-.2h.4l.1-.5.3-.2h.2l.1-.4V65l.4.3-.3.2v.5l.3.1.2.3.4.4v.3L36 67l-.2-.4-.2-.1-.1-.2v.1l-.4-.1-.2-.2-.4.6.2.2v.4l-.5-.4v.2l-.4.4v.4c0 .3 0 0 0 0v.4l.4.1v-.2h.3l.1-.4v.2l.2-.3h.1v.2l.2-.2.1.4.5.4.2.3v-.2l.2.2.6.1.1-.3h.2l-.2.4.8.5v.2l.3.1v.2l.4.2v-.5l-.4-.2v-.3l.3.3h.2v-.2l-.2-.2v-.5h-.1v.2h-.2l-.2-.5V68l.3-.6-.1-.4h-.1l-.3.8h-.1l.3-1v-.4l-.3-.2h.2l.6.2v-.3h.5v-.4h.2l.1-.5v.6l.1.5-.1.4v.2h.2v-2.3l-.5-.2h.5l.4.2v-.5l.2.2v2.2l.5-.4v-.4l.3.1.3-.4-.1-.5.1-.5.1.7.1.2h.2v-.2l.5.2.4-.2h-.3v-.2h.3l-.1-.6-.2-.1h-.5l.2-.1-.3-.3.1-.1v-.2h.2l.2.4h.4l.1.2h-.1l.1.3c0 .2.5.6.5.6v-.6h.1v-.5l-.9-.5-.2-.5h.3l.1-.3.7-.2.3.3h-.8v.4l.1.3.5.4h.4l-.2.3v.3l.3.3-.1.2.4-.1V64l.4.3v.2H44l.1.2.1-.2.4.3h-.2v1l.2.1v.4l.1.6h.1v-.4l.3.2v.7l.1.1v.2h.1l.2-.2v-.4h.1l.2.1v-.5l.2-.2-.2-.3h.1q.1-.2.2 0l.1.2.2.2.2-.3h.1l-.2-.4v-.6h-.2l-.2-.1-.1.3-.2-1h.2v.3l.2.1.2-.5-.2-.3h.4v.4l-.1.2.2.6.2.6.2.2v-.8l.1-.4-.1-.1v-.2h.1l.2-.2q.1-.2.1 0v.2l.1.4h-.2v.6l.2.8.3-1.4-.2-.5v-.1h.3l.1-.2v.3H48v.2h.2l.2-.2V64l-.2-.4-.2-.1.1-.2.2.1v.2l.2-.3v-.4h.1l.4.4V63l-.1-.2h-.3l-.2-.4.3.1.1-.3.3.6.1-.7h.1v-.3l.2.6-.1.1v.4l-.3.4v.4h.3v-.4l.3-.2v-.5l.3-.4V62l.1-.1.1.3-.3 1.1.3.4h-.1v.5h.1l.1-.4h.2l-.2.4h.3l.2-.9h.3l.2-.7h.3v.3h.3l-.3.3v.2h.1v.2l1-.2.1-.2-.2-.4.3-.8-.2-.3-.4-.2h.7s-.1-.8 0-.8l.2.4v.4l.4-.5.2.3v.4h.3l.2.3.4-.2v-.2q-.2 0-.2-.3v-.7q.1-.2.3 0l-.1.3h.2l-.1.2h.1v.4l.2.6.2-.3v-.4h.2v.1l.2-.2-.2-.2v-.2h.2l-.1-.3h-.2v-.3h-.3l.1-.2v-.7l.3.1v.5h.3v-.3l.3.1.5-.2h.1l-.1.4v.5h-.3v.2h.4s.1.8.2.7l.5-.2-.3-.2v-.5q.2-.1.4 0v.3l.2.3.6-.1-.3-.3.9-.2V60l.5-.4.2-.6-.2-.3h.7v-.2l-.2-.1.3-.2v-.1l.2-.1.1.3.4-.3.5-.7.5-.2-.1-.2-.4.1-.1-.5v-.3l-.1-.1-.2.1V56l-.8-.6.5 1.1-.3.4-.3.2.2-.8h-.2l-.1-.4h-.2l-.2-.3v.3l.2.4-.3-.2v.1l.3.3h-.2l-.2.1-.2-.6H59c0 .2.2 1.4 0 1.4h-.2v-1.1l-.1-.3-.6-.3.1-.3H58l-.1-.2.1-.1h.4l.4.3.3.4.1-.4.2.1v-.1l-.3-.4-.5-.2v-.1h.2v-.1l.5.3v-.2l-.3-.2v-.2l.3.2.2-.2.1.4v.2l.3.2v-.2l.2-.2.1-.5h.2l-.2-.2v-.3l-.3-.8-.3-.4-.2.1v-.3l-.2-.2.2-.3-.2-.6-.3-.3-.4-1-1-.1-.5-.3h-.3v.7l-.5.4-.4.1c-.3 0-.5-.5-.5-.6h-.4l-.1-.5-.4-.3v-.6l-.2-.5-.2-.2-.2-.6-.2-.3h.2l.3-.5v-.3l.4-.4v-.6l-.1-.6-.3-.4-.3-.2-.1-.8s-.4-.4-.3-.5l.4-.3.1-.1h.6q.2 0 .1-.2-.2-.1-.2-.4l.1-.5v-.6l-.4-.4h-.5l-.2.3-.7-.2h-.3l-.4-.2h-.3l-.3-.3H51l-.3-.2-.6-1-.2-.2.1.5h-.4l-.2-.2H49l-.3-.3.1-.1v-.8h.3l-.2-.5-.1-.3v-.6l.4-.5.2-.2-.4-.8V34h.3l.2-.5-.4-.5v-7l-.1-3.2-.2-14-.2-.3-1.2-.8c0-.1-.5-1.1-.8-1.4l-.3-.5-.5-.4-.5-.6-1-.6-.5-.5-.4-.7-.8-.3-.3-.3h-.4l-.4-.1-1 .2-.3.4v.8c0 .2-.6.2-.7.2s-.3-.3-.6-.3h-.7l-.3.3h-.6l-.4.8-.8.3-.6-.2-.6.3-1 .4-1.1.8-.7-.7-.7-.2-.3-.2s-.6-.4-.6-.6V1.9l.2-.4v-.2q.2 0 0-.3l-.2-.4h-.9l-.2-.3-.4-.1h-.7L28 0l-1 1.6-7.6 11-2.8 4-.9 5.9-.6.1s0 .3-.2.4l-.2.2q0 .2-.4.4l-.6.3-.2.4v.6l-.4.3-.4 1-.5 1s.7 1 .7 1.2l-.2.6v.4h-.5l-.3.6h.4v.4l-.4.5v1.3h.4l.1.2.4.3-.2.3-.1.6c0 .3-.7.8-.7.8l-.6.3-.7.7-.3.7.2.5s.3.5.2.6l-.4.4-.9.3-.5.3-.3.3-.5.2-.5.6-1 .7-.3.6v.4l-.6.8v.6q.2.4.5.6l.5.4v.4h.2v.3l.1.2-.2.4h-.3l-.4-.2h-.4l-.3-.4-.4-.4q-.2-.2-.5 0l-.5.6.3.6s-.2.6-.1.7q.2.3 0 .5-.2.4-.4.4v.3l-.1.3q0 .4-.2.7-.4.2-.5 0l-.5-1v-.6q-.1-.5-.4-.6h-.4l-.4-.2s.3.5 0 .5z" class="cls-1"/><path d="M60.6 55.4h.4l.1-.1-.1-.3-.3-.1v-.3l-.4-.3v.8h.3zm-4.4 6.3v.3h.6v-.2l.2-.1h-.3l-.3-.2v.2zm-1.1.4.2-.2h-.1zm.2.1h.2l-.1-.3zm-.3.2h.2l-.2-.2zm-1 .2.1.2.1-.3zm-1 .2h.1l.1-.2v-.2l.5.1v-.2h-.2l-.3-.3v.3h-.4v.2zm.7.1-.3-.1-.3.1.2.1h.2zm-.8.6v.1h.1l.1-.1zm-1.7-.6v.5h.1zm.6.8-.2.4.1.1.2-.3zm1.2.4.1.1.1.1h.2l-.2-.3-.2-.1h-.4l-.1.1zl-.1.2z" class="cls-1"/><path d="m52.6 64.1.1.1v-.1zm.4.2h-.1l-.1.2.1.1h.1zm-.1.4-.1.1h.2zm-1-.5.3 1.1.3-.1v-.4l-.3-.5v-.5zm-.6-.3.1.2.1-.1zm.2.3-.1.1.2.1v-.1zm0 .2-.1.1.1.1.1-.1z" class="cls-1"/><path d="m51.8 64.4.1.1.1-.1zm-.1.6-.1.1zm.1.3h.1zm.2.1-.1.1.2.1v-.2zm-1.1-1.1.1.3v-.2zm-.4.2h.1zm.4.1-.1.1.1.1.1-.1zm0 .4.1-.1zm-.5 0-.1.1.2.1v-.1zm-1.9-1.6v.5zm.5 1.2.1-.1-.4-.5v.2l.3.2-.1.1zm.3.1H49v.2zm-.7-.3-.2.3h.2zm-.2.6v.4zm-.4.6v-.4l-.1.6.2.2zm-3.6 1.7.2.1-.2-.3zm-.4-.6v-.4l-.3.2v.2zm.2-.8H44l.1.3h.2zm-.1-.5-.2-.1v.5-.2zm-4.7 2.9v.4l.1.2h.3l-.1.2.2.5.2-.2v.3l.1-.1.2.1v.4h.1l.1-.4.2.6.5-.2.3-.5-.2-.4-.4-.1.1-.1v-.2l.1-.2v-.5l-.2-1q.2 0 .3.2l.1 1.2.3.3h.6v-.1h.3l.3-.2.1-.2h.2V68h.2l-.2-1-.2-.4-.4-.2-.4-.3.1-.4-.3-.1h-.4l-.3-.1h-.2l-.2.3-.2.1v-.1l-.3.1.2.5-.3.2v.1l-.3.2-.1.4h-.1l-.1.3h.1v.5s-.4 0-.4.2m.2-1V67l-.2.1-.3.5.1.3v.3l.2-.1v-.3zm-1 .2-.2-.6-.2-.2-.1.3-.2.8v.2h.3l.3.2.3-.1-.3-.3zm.5 1.1.1-.2-.1-.2zm-.2.8-.1-.3-.3-.2v.4zm3.3-.3H42zm.5.3h-.3v.2h.3zm-.7.3v-.2l-.2.2v.4l.4-.3zm.9.1v-.2zM41.2 71l.1-.1v-.3H41q-.2.1 0 .2v.1m-.4.3.1-.3h-.2l-.2.3zm.4.2v-.2h-.3v.3zm1.5.1v-.2h-.2v.2zm-.1.2-.1.1v.3l.2-.3zm-1.4.8-.3-.1-.3.3.1.2h.6l-.1-.2zm-1.6-1.2-.3-.1-.1.3h-.3l-.2.3.3.2.3-.2.1.3.3-.2v.2l.2.2h.4l.1-.5-.2-.4-.2-.4v.4l-.5.1v-.2Zm.2 1.2-.2-.2-.2.1.3.2zm-1.1.4.2-.1-.2-.4-.3.3.2.4zm.5-2.7h-.3v.2h.2zm-.2.6v-.2h-.1l-.1.2zm.4 0-.2-.1v.1zm-2.1-.7.2.1zm.3 1.1s.2 0 .1-.1l-.4-.7v.6zm-.7-.9.2.1.1-.1zm0 .7h-.4l.5.3zm-.4 1h.2v-.2zm-.6.1.2.2V72zm.4-.1v.2zm.7.1.1.2zm-.2.6.1-.2-.1-.1zm-.3-.1.2-.2h-.2zm-.2.1-.1.1.1.2h.3zm.5.5.2-.1h-.1zm-.3.3H36v.2h.2zm-.2 1.6v-.2l.5-.2v.3l.3-.8v-.9h-.4l-.5.7v.1h.2l-.2.8z" class="cls-1"/><path d="M35.4 70.1v.2l-.4.1.3.1.1.4-.2.3v.3h.3s-.3.2 0 .2l.3.2.6-.2v-.1l-.1-.2h.3q.2 0 0 0l-.5-.3v-.3l.2-.1.4.2v-.3h.2-1l.1-.2h.6V70l.3.1-.1-.4-.5-.2-.2-.2-.3-.2-.3.7v.2l.2.2v.1zM35 69l.4.2h.2v-.3l-.6-.4h-.2v.3h.3zm-.4.5h.5l-.5-.3v.4Zm-.1.2v.3l.2-.1zm-.9.5.1-.3h-.2v.3zm.6.1V70H34v.3zm.1.1-.1.2v.2l.2-.3m-.2 1.5-.1.2h.1zm-.3.1-.3.1zm-1.9.3-.1.4.3-.4.5-.4h.1v.2l-.2.1.3.1.2-.1-.1-.2h.3v-.2h.2l.1.1h.4l-.3-.2v-.2l-.1-.3.1-.1-.1-.1-.3.1s0-.2 0 0-.7.4-.6.4v.2h-.3l-.4.3h.1zm1.3.6h.5v-.4h-.4l-.1-.2h-.1l.1.2zm.3.3.3-.1V73z" class="cls-1"/><path d="M32.9 72.6h-.5v.7h.4q-.2 0 0 .2h.2l-.2.5h.2v.2l.2.1.4-.3v.5l.3-.1V74l.1-.2h.1q.3-.1.2-.2l-.1-.5-.1.1h-.6l-.4-.3H33v-.2zm-.4.9-.2-.1.2.3zm.1.9h-.1v.2h.2zm.6.1-.3-.3v.4zm-3-.9h.2l-.1-.2zm-.1.1v.2h.1zm1.7-4.1-.1-.3-.2.4.2.2zm-.1.4v.5l.2-.5zm.2-1h.2v1l.2-.3.1-.6.2-.5-.2-.2.2-.2v-.5l.2.1v-.3l.2-.3-.2-.5v.3h-.4l-.1.2v.4l-.1.3v.1h.2v.1zm1.1-3.2v-.4l-.3-.1v.3l.1.2zm1.5-2.1-.2-.7-.2-.1-.1.5v.3l.3.5zM29 75.2l.3-.1zm-.2 0h-.2l-.1.2.2.1zm1.5 1.8v.2zm.4.2v.2h.1v-.2zm-1.7.2-.2.6h.2zm3.6.6-.3.1v.4h.1q.3 0 .2-.1t0-.2zm2.4-.5-.3.1-.1.1h.3zm-2.3 1.2-.3.4.1.1zM26 80.3l-.1.3.2-.1.1-.4zm.2-2.1v-.3l-.3.3.1.2zm.1-.2v.2h.2v-.3zm1.3-1.2-.2.1.1.2zm-1 .1.1.2v-.4zm-.3-.2.1-.1v-.1zm-.3.4.2-.2H26zm0 .2.2.2zm-.3-.7-.2.3h.1zm.1-.4v-.3h-.1l-.4.5h.3zm-.5.6.2-.2-.1-.1zm0-1.9-.1.2v.2l.1-.2zm-.3.5V75l-.1.2v.6zm0 .5-.2.1.1.1zm-.6-.2v.4l.1-.4Zm-.1 1.1-.1-.5-.2.9zm.1 0v.2zm-2.4.8.2.4v-.4zm-1.5-.3v.4h.1l.1-.2v-.7zm-.5 1 .3-1.4.2-.2.4-1.3L20 77l-.2.2-.1.1.2.8zm.7.1-.3.5.5.9.2-1.1zm.6.8-.1.1v.2zM16.6 81h-.1v.1zm-.9-2v-.2l-.3.2v.2h.2zm-.6.3v-.2zm-.1.1v.2zm0-.4-.2.2v.1zm-1.7 1.5.2-.1v-.2l.2.1.2-.1-.2-.1v-.3l-.3.2v.1zm1.4.1.2-.5zm.5.4-.1.3zm-1-.8-.2.3h-.2l-.3.5.2.2v.1l.2-.1V81c.2-.2.3-.9.3-.9Zm-.3 1.5v.2l.3-.3h.1l-.1-.1v-.1zm.1.3h.2v-.3zm-.6-.3.2-.2v-.1l-.5.4H13l.2.2zm.3-.1.2-.1v-.2zm-.5-.3.2-.2zm.1 1.3v-.3zm-.8-.7v.3l.2-.1v-.3zm.5.6-.2-.3-.3.2.3.2zm-.5.2.1.2.2-.3zm-.5-.9h.2zm.6-.7.1-.2zM12 85q.2 0 0-.1h-.2z" class="cls-1"/></g></svg>