<?xml version="1.0" encoding="UTF-8"?>
<svg id="Layer_2" data-name="Layer 2" xmlns="http://www.w3.org/2000/svg" viewBox="0 0 80.36 95.25">
  <defs>
    <style>
      .cls-1 {
        fill: #172d35;
      }
    </style>
  </defs>
  <g id="_Ñëîé_1" data-name="Ñëîé 1">
    <g>
      <path class="cls-1" d="M17.8,14.03l-.24-.15s-.72.51-.73.53-.36.47-.42.49c-.05.02-.37.07-.4.11-.03.04-.33.4-.33.4,0,0-.45.15-.46.19s-.49,1.09-.53,1.12-.22.26-.26.27c-.04.01-.5.11-.5.11,0,0-.05-.08-.07-.08s-.47.23-.56.23-.39-.18-.47-.12c-.08.06-.84.99-.92,1.03-.07.04-1.86.95-1.88.97-.02.01-1.34.03-1.4.05-.07.02-.64.25-.66.25s-.45-.21-.5-.21c-.05,0-.38,0-.46.02-.08.03-1.01.25-1.03.25-.02,0-2.04,1.86-2.04,1.86,0,0-1.6.41-1.62.43-.03.02-1.08.41-1.08.41,0,0-.14.06-.16.06s-.31-.07-.32-.05c-.02.01-.76.53-.78.55,0,0,.17.4.22.43.05.03.28.02.34-.01.06-.03.14-.16.2-.17.06,0,.25.12.25.19,0,.07-.12.3-.03.31.08,0,.32-.04.34-.02,0,0-.03.19.08.22.12.03.46.02.49.05.03.03.53,1.01.53,1.07s.33,1.41.36,1.42c.03,0,6.6,2.22,6.6,2.22,0,0,3.45,1.12,3.49,1.16.04.04,2.39,1.6,2.42,1.62.03.02.26.09.29.09s.1-.11.13-.11.07.11.07.11-.04.13,0,.13.49-.15.49-.15c0,0,.19.12.16.15-.03.03-.04.11,0,.11s.34,0,.36,0c.02,0,.14.33.17.34.03,0,.4.03.42,0,.02-.03.16-.41.16-.41l.23.16.63-.12s.27.41.29.38c.02-.03.23-.17.29-.14.05.03.35.33.41.33s.4-.14.42-.13c.02,0,.38.21.38.23,0,.03.06.22.11.23.05,0,.22,0,.22,0l.17.11s.27-.15.31-.14c.04.01.36.25.39.24.03-.01.13-.12.19-.11.06.01,1.02.57,1.01.61,0,.05-.1.31-.08.36.03.05.27.22.23.27-.03.05-.58.67-.57.71,0,.05.43.49.49.51.05.02.26.08.32.07.06,0,.49-.2.51-.17.03.03.13.12.13.17s-.1.15-.05.19c.05.03.21.16.29.17.08,0,.8.07.84.13.03.07.14.33.21.37.06.05.39.23.42.27.03.03.27.42.27.45s-.07.09-.08.1c-.02,0-.3.11-.32.15-.02.04-.07.07-.03.12s.4.58.42.63-.06.59-.08.61c-.03.01-.38.02-.39.04s0,.05.06.15c.06.1.14.15.14.18s.02.33.02.35.23.31.18.38c-.05.07-.73.75-.73.8s.04.38.04.43-.32.76-.32.76h.18s.18.21.18.21c0,0,.08-.13.16-.13s.74.02.77,0c.03-.01.6-.49.63-.48.03.01.33.22.34.28,0,.06.05.46.05.46,0,0-.38.62-.42.65s-.51,1.32-.5,1.39c0,.07,0,.21.05.28.05.07.53.45.53.49s.19.51.23.53c.04.01.43.11.43.11h.15s-.12-.19-.11-.29.08-.37.11-.44.15-.27.23-.33c.08-.07.35-.25.38-.29s1.04-1.34,1.04-1.38.07-.37.08-.41.22-.19.23-.21c.01-.02.12-.43.15-.49.03-.06.67-.85.67-.87s-.05-.33-.03-.37,1.07-2.04,1.07-2.04l.34-.67s.27-.37.29-.38c.03-.01.65-.26.65-.26l.07-.21.35-.12-.4.03.22-.1s-.05-.04,0-.07c.05-.03.43-.37.42-.41-.01-.04-.21-.21-.22-.23,0-.02.07-.18.05-.21s-.11-.11-.1-.13.12-.09.12-.09c0,0-.03-.29-.03-.32s.17-.33.23-.35c.06-.03.34-.15.34-.17s-.16-.24-.15-.26c.01-.02.34-.41.34-.41l.14-.35.1-.02s0,.13.02.11c.03-.01.09-.13.11-.12.02,0,.05.17.05.17,0,0-.03.06-.05.06s-.18-.05-.18-.05c0,0,.1.21.11.23s.03.14.02.18c0,.04-.32.57-.36.61-.04.03-.21.07-.21.07,0,0,.22.57.23.67.01.1.03.6.03.62s-.08.47-.08.51.15.58.19.55.2-.47.22-.47.25.1.27.08c.02-.02.13-.18.15-.18s.29.01.35,0c.06-.01.26-.19.26-.19l-.04-.3.22-.19v-.18s.21-.06.21-.1c0-.04-.07-.2-.07-.2,0,0,.23-.06.24-.09.01-.03.12-.25.12-.25,0,0-.15-.31-.15-.33s.06-.35.09-.36c.03-.01.38-.05.38-.05l.24.41s.07-.1.1-.1.62.13.62.13c0,0,.1-.13.1-.15s.04-.29.09-.33c.05-.04.16-.1.21-.13.05-.03.18-.23.19-.24s.22-.07.25-.05c.03.02.23.19.24.22.01.03.06.35.06.39s-.29.31-.29.33.01.27-.04.32c-.05.05-.21.25-.21.25l.21.29s-.32-.08-.34-.06-.08.11-.1.09-.14-.19-.14-.19l-.12.1.07.11-.09-.03-.03.15s.12-.07.14-.03c.02.04-.03.26-.03.26l-.11-.11-.12.35s-.16-.04-.17-.01-.07.14-.07.16-.01.3-.01.32-.06.11-.09.11-.25-.06-.27-.01c-.02.05-.12.19-.12.21s.03.24.05.25c.03.01.16.07.18.09.02.02.18.35.18.35l.18.17s.31,0,.32.05.16.21.16.21l.06-.13s-.08-.09-.11-.13c-.03-.05-.14-.59-.1-.64.03-.05.19-.12.19-.12l.17.05s-.05-.1-.03-.16.16-.55.18-.55.38.05.38.05c0,0,.15-.12.13-.13-.02-.01-.1-.12-.08-.13.03-.01.12-.09.12-.09l-.11-.12s0-.08.02-.09c.03,0,.23-.07.25-.07s.18.11.19.09c0-.03.12-.21.12-.21,0,0,.31.07.35.01.04-.05.1-.34.1-.34,0,0,.12-.14.2-.14s.55.01.55.01c0,0,.07-.07.08-.11.01-.03.02-.45.04-.49.02-.04.2-.27.19-.29s-.09-.16-.08-.22.11-.51.13-.55.34-.19.36-.21c.01-.02.12-.29.14-.29s.38-.02.4-.03c.02-.01.22-.23.26-.23.04,0,.46.13.49.13s.27-.15.32-.15.64.01.66.01.74.23.8.25c.06.03.6.37.6.37,0,0-.14-.26-.12-.29s.38-.37.4-.37.42.02.43.02.31-.2.34-.19c.03,0,.64.21.67.22.03,0,.44.04.46.04s.06-.05.1-.07c.04-.02.18,0,.26-.03.08-.03.56-.9.59-.95s.63-.75.69-.79c.06-.04.25-.17.31-.17s.43.16.48.15c.05-.01.37-.23.39-.21.02.02.34.41.34.36,0-.05.1-.19.14-.19s.27-.03.27-.03c0,0,.7.42.77.43.07,0,.59.11.59.11l.05.12s.08-.23.12-.2.12.17.14.17.17-.01.21,0c.04.01.45.3.47.31.02,0,.92.27.93.29s.78,1.11.86,1.15c.08.04.34.07.35.09,0,.02,0,.16.07.19s.36.16.36.16c0,0-.03.13-.02.19.01.06.14.23.16.24.02,0,.18,0,.22,0,.05.01.48.42.48.42,0,0,.09-.12.11-.12s.4,0,.4-.03-.27-.37-.27-.37c0,0,.08.01.08-.01s-.17-.53-.1-.57c.06-.05.21-.07.2-.1s-.27-.36-.25-.38c.02-.02.23-.39.27-.39.03,0,.24.02.24,0s0-.95,0-.95c0,0,.19-.23.25-.21.05.02.49.33.54.33s.22.07.22.05,0-.08.01-.08h.24s.1.06.13.12c.03.06.17.81.17.81l.14-.09s.07-.31.1-.32.21,0,.21.02.03.22.03.22c0,0,.16.14.16.12s-.08-.59-.05-.58.55.13.55.13l.06-.05.23.21-.03.12s-.17,0-.19-.03c-.03-.03-.24-.21-.21-.14.03.07.11.26.11.3s-.01.17-.05.17-.14,0-.12.01c.02.02.58.37.58.37l-.12-.19.06-.06s.14.12.16.12.23-.05.21-.09c-.01-.03-.25-.25-.25-.25,0,0-.22-.04-.2-.05.02-.01.19-.04.19-.07s-.08-.19-.08-.19l.25.2-.03-.39s.36,0,.38,0,.13.17.13.17c0,0-.22-.04-.2-.03.02,0,.24.17.26.17s.08.01.11.02c.03,0,.09.01.08-.03-.01-.05-.18-.25-.18-.25l.23.14s.03-.06.11-.03c.08.03.45.24.44.2,0-.04-.08-.19-.03-.17.05.02.45.2.45.2v-.12s.25.12.32.09c.08-.03.16-.12.24-.12s1.21.51,1.22.47c0-.04.08-.27.14-.27s.42.03.42.03l.19-.15s.12.23.11.21c-.01-.02.14-.39.14-.42s-.12-.37-.12-.37l-.23-.03-.1-.21s-.03.08-.05.07c-.02-.01-.12-.09-.13-.07,0,.02-.1.19-.1.19,0,0-.08,0-.12-.06s-.49-.57-.49-.59c0-.03-.38-.47-.38-.47,0,0,.06-.25.08-.26s.29-.13.3-.15c0-.02.04-.14.01-.16-.03-.02-.62-.15-.66-.2-.04-.05-.19-.12-.19-.14s-.06-.29-.06-.29h-.17s.08.17.05.15c-.03-.02-.14-.15-.14-.15,0,0-.12.13-.16.07-.03-.06-.14-.21-.14-.18s-.04.18-.04.18h-.08l-.05.1-.24.06s-.31-.15-.31-.16.06-.22.03-.22c-.03,0-.26-.11-.26-.11l.06-.11h.11s-.1-.09-.1-.11,0-.05.04-.06c.05,0,.2-.03.25-.05.05-.02.16-.12.19-.17.03-.05.05-.19.05-.19l.14.05.08.07s.09.02.08-.07c0-.09-.14-.37-.17-.43-.03-.06-.23-.28-.24-.3,0-.02-.07-.81-.07-.87s-.3-.52-.29-.57c0-.05-.06-.51-.09-.56s-.42-.82-.44-.84c-.02-.02-.53-.35-.53-.35l-.08.05s-.09.03-.1.07c0,.03.03.15,0,.17-.03.02-.75.3-.79.37-.03.07-.05.41-.09.45-.04.03-.16.07-.18.07s-.19-.16-.2-.13c-.01.03.01.11-.04.13-.05.03-.59.28-.65.29-.06.01-.24-.01-.25-.04-.01-.03,0-.23,0-.23s.09-.06.09-.06c0,0,.05.14.07.11s.08-.06.05-.11c-.03-.05-.45-.65-.53-.67-.08-.02-.45-.09-.48-.07-.03.01-.78.49-.9.53-.12.05-.51.14-.55.14s-.2-.1-.21-.12c0-.02-.05-.21-.12-.23-.07-.02-.56-.01-.58-.03s-.17-.27-.17-.27c0,0-.24.19-.28.19s-.34,0-.39-.03c-.05-.03-.29-.11-.33-.17-.04-.06-.19-.36-.18-.43.01-.07.3-.43.3-.43,0,0-.12-.73-.12-.75s.12-1.54.14-1.57c.02-.03.68-.93.66-.93h-.43s-.51.19-.55.19-1.18-.07-1.18-.07c0,0-.7.11-.73.13-.03.02-1.7.86-1.8.9-.1.04-.79.27-.86.27s-2.43-.05-2.45-.06c-.03,0-.92-.17-.95-.17s-.91.17-.91.17l.05.07-.14.06-.16-.07s.08-.09.06-.09c-.01,0-1.12.37-1.15.37h-.18l-.29-.27-.15.07s-1.77,1.27-1.8,1.29c-.04.02-.3.19-.32.21s-.71.31-.73.3-.18-.1-.2-.09c-.02.01-.62.71-.64.71-.02,0-.27.07-.29.09s-.34.59-.36.6c-.02,0-.07-.04-.12.03-.06.07-.2.46-.24.48-.04.02-.12.02-.15.04-.03.02-.13-.07-.13-.1s.04-.28.04-.28c0,0-.45-.02-.48-.04-.03-.02-.26-.45-.26-.45l-.23-.05s-.27-.06-.29,0c-.03.05-.34.58-.34.58,0,0-.46.03-.47.01-.01-.02-.32-.42-.34-.42s-.27.02-.27.02c0,0-.16-.15-.18-.17-.01-.03-.2-.68-.22-.68s-.36-.15-.36-.15h-.11s-.03.09-.03.09l-.31.14s-.27,0-.29.02c-.02.01-.24.23-.24.23,0,0-.23.08-.26.07s-.31-.17-.31-.17c0,0-.23.16-.25.17-.02,0-.71.07-.73.07s-.89-.21-.89-.21c0,0-.36-.41-.36-.43s.07-.18.07-.18l.12-.05s-.08-.05-.1-.09-.13-.19-.09-.23c.04-.05.15-.32.15-.32l-.12.06s-.18-.1-.22-.09c-.05.01-.18.03-.18.03,0,0-.29-.27-.29-.3s.06-.37,0-.39c-.06-.03-.42-.15-.42-.15,0,0-.18-.39-.18-.41v-.26s-.15-.07-.15-.07c0,0-.42-.45-.42-.51s-.04-.68-.07-.74c-.03-.06-.43-.46-.43-.46l-.27.08s.08-.11.07-.11c-.02,0-.1-.03-.11-.05,0-.02-.06-.33-.06-.33h-.12l-.1.21s-.27-.05-.27-.07-.1-.51-.12-.51-.24.02-.26,0c-.02-.02-.09-.19-.11-.21s-.37-.17-.37-.17c0,0-.26.05-.29.05s-.55-.37-.58-.37-.93.05-.95.04c-.02,0-.82-.21-.84-.21s-1.17.29-1.17.31-.39.77-.41.79-.43.27-.43.27c0,0,.63-1.06.65-1.08.02-.02.48-.32.52-.37s.49-.53.47-.54c-.02-.01-.14-.07-.16-.06-.02,0-.86.39-.96.49-.1.1-1.12,1.06-1.12,1.06,0,0-.18-.08-.18-.1s-.03-.15-.03-.15l-.14.13s-.13.2-.1.21c.03,0,.15,0,.15,0l.03.17s-.52.57-.53.64c-.01.07-.23.47-.23.47,0,0-.17.08-.19.08s-.18-.07-.18-.09.13-.34.16-.34.16,0,.16-.03-.17-.67-.15-.73c.02-.07.45-2.22.45-2.24s-.45-.67-.45-.67c0,0-.11.04-.11,0s.03-.71.03-.75c0-.04-.09-.23-.12-.27-.03-.04-.08-.1-.12-.11-.04-.01-.82-.11-.84-.13-.02-.02-.22-.25-.22-.25,0,0-.15-.47-.14-.51.01-.04.19-.29.2-.33,0-.04,0-.31,0-.31Z"/>
      <polygon class="cls-1" points="56.32 24.87 56.4 24.93 56.47 24.8 56.32 24.87"/>
      <path class="cls-1" d="M36.95,23.94s-.27-.01-.31,0c-.03.01-.21.19-.22.22s.05.53.08.58c.03.05.1.05.13.12.03.07-.1.57-.03.61.06.04.16.12.18.07.03-.05.06-.26.12-.28.06-.02.17-.03.17-.03l-.04.26s.23.01.23-.03c0-.04.09-.19.1-.23.01-.04,0-.28,0-.28,0,0-.07-.02-.08,0,0,.02-.09.2-.09.2,0,0-.2-.03-.18-.11.02-.09.13-.68.13-.76s-.21-.33-.21-.33Z"/>
      <path class="cls-1" d="M36.04,24.62s.24.18.23.15-.12-.23-.12-.23c0,0-.13.05-.11.07Z"/>
      <path class="cls-1" d="M34.71,24.95s-.16.08-.16.08l.11.12s.1-.01.09-.05c0-.03-.05-.15-.05-.15Z"/>
      <polygon class="cls-1" points="36.28 25.05 36.35 25.24 36.42 25.07 36.28 25.05"/>
      <path class="cls-1" d="M29.39,23.15s.16.19.16.16c0-.03,0-.2,0-.2,0,0-.18.02-.16.04Z"/>
      <polygon class="cls-1" points="23.88 17.76 23.76 17.76 23.83 17.89 23.96 17.89 23.88 17.76"/>
      <polygon class="cls-1" points="24.09 17.98 24.27 18.07 24.16 17.93 24.09 17.98"/>
      <path class="cls-1" d="M27.65,11.2c-.08.03-.26.15-.24.17.02.01.45.14.45.14l.16-.14c-.05-.03-.29-.2-.37-.17Z"/>
      <path class="cls-1" d="M17.85,15.21s.22.17.32.17.82.08.84.09c.02.01.13.4.17.43.04.03.09.1.15.07.06-.03.51-.3.52-.33s.14-.56.09-.56-.49.32-.47.19c.03-.13.68-.93.68-.89s-.09,1.26-.13,1.3c-.04.05-.73.6-.72.67,0,.07-.02.44,0,.47s.25.2.27.23.19.17.19.17c0,0-.14.27-.11.29.03.02.12.01.16,0,.04-.01.45-.45.47-.49.03-.04.18-.85.23-.9.05-.05.52-.32.55-.39.03-.07.12-.43.13-.45.01-.02.09-.09.14-.07s.16.1.18.09c.02,0,.09-.05.1-.09s-.06-.49-.02-.54c.04-.05.05-.25.13-.29.08-.04.68-.27.71-.29.04-.03.69-.99.94-1.06.25-.07,1.22-.65,1.22-.65,0,0,.05-.04-.01-.1-.06-.06-.25-.35-.24-.39,0-.03-.12-.09.07-.11.19-.02.99-.17,1.03-.15.04.02.28.19.32.17.05-.02.15-.12.21-.12s.18,0,.25-.01c.06,0,.13-.14.17-.13.04,0,.42.05.43,0,.01-.05-.07-.55-.07-.55,0,0-.79-.53-.86-.53s-.45.03-.45.03c0,0,.08.11.03.1-.05,0-.79-.2-.84-.2s-.97.03-.97.03c0,0,0,.07,0,.08s-1.69.22-1.73.27c-.04.05-.1.24-.16.26-.05.02-.49.07-.51.09-.01.02-.21.22-.32.28-.12.06-.49.11-.55.16-.06.05-.56.32-.58.37-.02.05-.78,1.1-.83,1.14-.05.04-.58.54-.64.57-.06.03-.48.13-.47.15s.03.55.03.59c0,.04-.19.24-.19.29s.1.55.13.57Z"/>
      <path class="cls-1" d="M12.6,4.64s.1.21.12.23c.02.01.29.14.32.14s2.27-.83,2.31-.85c.05-.02.13-.19.13-.19,0,0-.37.12-.39.12s-.5.03-.51-.02c0-.05-.12-.17-.04-.23.08-.06,1.64-.97,1.69-.98.05-.01.63-.07.75-.09.12-.01.62-.23.66-.26.04-.03.21-.29.23-.3.02,0,.23,0,.3-.03.06-.03.53-.41.53-.43s-.01-.23-.01-.23h-.16s.16-.09.16-.09c0,0,0-.08-.05-.06-.05.02-.34.13-.36.19s-.08.2-.08.2c0,0-.14.07-.14.01s-.03-.1,0-.15,1.74-1.16,1.74-1.16c0,0-.55.27-.51.21.05-.06.88-.65.88-.65,0,0-.83.45-.81.43.02-.01.4-.43.4-.43,0,0-.38.33-.41.35-.03.02-.16.04-.16.04,0,0,.03-.21,0-.16-.03.05-.22.25-.26.29-.04.03-.19.07-.19.07,0,0,.14-.15.07-.12-.06.03-.78.27-.78.27,0,0,.13-.19.21-.21.08-.02.37-.15.37-.15,0,0-.62.17-.64.21-.02.04,0,.11-.03.16-.03.05-.23.13-.27.19-.04.06-.1.19-.1.19,0,0-.1-.07-.16-.03-.06.04-.49.21-.51.26-.02.05-.09.23-.12.25-.03.02-.43.23-.5.26-.07.03-.27.03-.34.06-.07.03-.29.15-.34.19-.05.05-.18.11-.24.13-.06.02-1.04.37-1.17.45-.13.07-.79.45-.88.49-.08.04-.44.21-.48.23-.04.03-.41.33-.41.37s-.05.24,0,.21c.05-.03.56-.33.58-.32.02,0,.08.02.06.05s-.56.31-.53.35.11.05.1.08c0,.03-.36.41-.32.41.04,0,.26.05.29.08Z"/>
      <polygon class="cls-1" points="17.21 .99 17.37 1.05 17.37 .95 17.21 .99"/>
      <path class="cls-1" d="M16.42,3.6s.21.07.2,0,0-.18,0-.18l-.2.18Z"/>
      <polygon class="cls-1" points="12.02 4.37 12.4 4.29 12.12 4.21 12.02 4.37"/>
      <path class="cls-1" d="M61.61,25.26s.08-.57.1-.59c.02-.03.19-.2.19-.2,0,0-.22-.12-.24-.11s-.21.09-.27.05c-.06-.04-.28-.17-.32-.11s-.23.36-.3.39c-.07.03-.49.23-.49.26s-.04.1,0,.15.23.29.23.29c0,0,0-.23.09-.13.08.1.22.98.29,1.03.06.05.5.31.51.41.01.11-.05.11-.01.22.03.11.1.29.14.31.04.03.36.12.38.12s.18-.09.19-.11-.05-.09,0-.11c.05-.02.04-.08,0-.12-.04-.04-.1-.09-.16-.1-.06-.01-.14-.14-.16-.17-.01-.03-.05-.11-.05-.08s.03.17-.02.13c-.05-.04-.1.03-.1-.07,0-.1.12-.3-.04-.4-.16-.1-.35-.25-.34-.37,0-.12.1-.57.12-.58.02-.01.26-.08.26-.12Z"/>
      <path class="cls-1" d="M61.39,28.09s.22.55.23.59-.05.19-.03.21c.02.01.12.08.12.05s.02-.22.06-.25c.04-.03.32-.14.31-.21-.01-.07-.25-.93-.27-.97-.03-.03-.31-.21-.33-.21s-.37.05-.37.05c0,0-.03.19,0,.19s.14-.13.14-.04-.2.23-.15.29c.05.05.28.25.3.3Z"/>
      <path class="cls-1" d="M63.28,30.7s-.13-.04-.13-.04c0,.04.04.13.08.15s.18.07.18.07c0,0-.12-.17-.13-.18Z"/>
      <polygon class="cls-1" points="64.95 30.61 65.14 30.44 65.05 30.37 64.95 30.61"/>
      <path class="cls-1" d="M65.7,31.22c0-.05-.18-.21-.18-.21-.01.02-.1.12-.09.18.01.06.05.15.05.15,0,0,.23-.06.22-.11Z"/>
      <path class="cls-1" d="M64.92,31.69c-.06-.03-.15-.11-.17-.09s-.18.19-.24.31c-.07.12-.14.56-.14.56,0,0,.12.08.15,0,.03-.08.17-.35.17-.35,0,0-.07.25-.03.27.04.01.14-.02.15,0s-.07.1-.03.12c.04.01.09.01.09.03s-.11.11-.06.11.19-.17.25-.13c.05.04.08.11.1.13.01.03,0,.09,0,.11s.12.04.12.06-.05.08-.05.08c0,0,.16.09.16.07s.2-.33.2-.33c0,0,.1-.03.13.04.03.07.1.23.12.2s.07-.17.11-.14c.04.03.11.24.11.24,0,0,.16-.16.18-.15s.06.12.12.1c.05-.02.29-.08.32-.13.03-.05.18-.23.2-.21.02.01.09.1.09.12s-.07.27-.07.27l.13-.04.04-.14s.16,0,.15.05c-.01.05-.08.14-.06.16.03.02.22.14.24.13.02,0,.15-.09.17-.08.02,0,.13.08.13.08l.1-.13s.1.09.14.09.1-.03.13-.09c.03-.07.4-.87.39-.91s-.14-.17-.14-.17c0,0-.19.11-.21.07-.02-.05-.2-.2-.2-.2,0,0-.1.04-.12,0-.01-.04,0-.45-.08-.54-.08-.09-.3-.19-.32-.28s0-.35-.03-.35c-.03,0-.16.11-.2.08-.05-.03-.32-.26-.32-.26,0,0-.86,0-.86.06s-.1.21-.08.23c.02.01.61.22.61.25s-.03.24-.03.24l-.18.13s.17.03.16.05c-.01.02-.4-.04-.42,0-.03.04-.25.25-.25.25,0,0-.19-.03-.21,0-.02.03-.1.13-.11.19,0,.05-.19.37-.23.37s-.27-.1-.25-.12c.01-.02.1-.11.06-.13-.03-.02-.17-.04-.16-.07s.12-.15.07-.18Z"/>
      <path class="cls-1" d="M60.06,32.66s-.03-.1-.06-.19c-.03-.09-.1-.21-.1-.21,0,0-.1-.03-.1.03s.05.34.05.36c0,.02.21.04.21,0Z"/>
      <path class="cls-1" d="M60.16,32.68s.2.11.19.09c0-.02-.14-.2-.14-.2l-.05.11Z"/>
      <path class="cls-1" d="M60.58,32.64s-.1.04-.1.04l.19.09.03-.1s-.11-.05-.13-.03Z"/>
      <path class="cls-1" d="M60.51,32.42s.08.14.08.12c0-.02,0-.15,0-.15,0,0-.08.01-.08.03Z"/>
      <path class="cls-1" d="M59,33.17h-.12s.09.21.09.18.03-.18.03-.18Z"/>
      <path class="cls-1" d="M57.65,32.68c-.05-.06-.14-.21-.14-.21l-.16.07s.07.14.12.16c.05.03.23.04.18-.02Z"/>
      <path class="cls-1" d="M57.21,32.51s-.26-.05-.26-.05c0,.05,0,.26.03.26s.23-.09.23-.09c0,0,.03-.1,0-.12Z"/>
      <path class="cls-1" d="M57.25,34.11c-.05-.08-.15-.28-.22-.31-.08-.03-.19-.03-.19-.03,0,.05-.08.45-.07.47.02.01.28.15.31.15s.13-.03.17-.07c.04-.05.05-.12,0-.2Z"/>
      <path class="cls-1" d="M57.39,34.69s-.23-.18-.23-.18l.07.18s.17.02.17,0Z"/>
      <path class="cls-1" d="M58.94,35.2c-.07-.02-.67-.33-.7-.33s-.19.11-.27.07c-.08-.04-.42-.18-.42-.18,0,0-.16.09-.15.12s.04.02.07.08c.03.06.37.22.4.27.03.05.41.67.43.69.03.02.22.11.3.13.08.02.49.13.55.12.05,0,.12.01.18-.05.06-.07.44-.67.4-.72-.05-.05-.39-.07-.43-.15-.04-.09-.31-.45-.29-.43.03.02.1.27.08.3-.02.03-.07.11-.15.09Z"/>
      <path class="cls-1" d="M39.79,86.34s-.38.81-.4.87-1.28,1.91-1.3,1.94c-.02.03-.62,1.44-.63,1.46-.01.02-.68,1.58-.68,1.58,0,0-1.01,1.11-1.03,1.13-.02.01-1.24.92-1.24.92h3.74l9.71.04h7.81l.03.97,10.81-.62,3.13-.17s.15-.07.18-.13c.03-.07-.05-.23-.05-.23,0,0,.27-.02.26-.06,0-.04-.16-.31-.14-.35.02-.04.08-.15.1-.11.01.05.21.8.21.8,0,0,.08.03.08-.01s-.17-1.08-.17-1.08c0,0,.22-.14.25-.18.03-.04.32-.65.32-.65l.25-.16s-.11-.27-.06-.25.2.03.2.03c0,0,.07.13.07.11s.09-.53.09-.53c0,0,.11-.18.15-.21.04-.03.19-.11.19-.11,0,0,.29.11.31.1.02-.01.1-.11.11-.13s.06-.33.06-.33l-.17-.2s.14.11.21.07c.07-.04.37-.31.38-.35s0-.52,0-.52c0,0,.17.09.17.05s.01-.27,0-.35c-.01-.07-.11-.46-.11-.46,0,0,.13.07.12.05-.01-.03-.02-.1,0-.17.02-.07,0-.41,0-.41,0,0,.45-1.38.45-1.44,0-.06-.07-.3-.07-.3,0,0,.32-.35.33-.39.01-.04-.07-.09-.05-.15.03-.07.38-.58.4-.59s.84-.57.88-.59c.04-.02.62-.08.64-.11s.35-.41.37-.46c.02-.05.25-.97.24-1s-.18-.15-.17-.23c0-.08.05-.67.05-.7,0-.03.36-.64.4-.67.04-.03.39-.11.39-.11,0,0,.13.11.13.07v-.35s.19-.03.12-.08c-.06-.05-.48-.31-.48-.33s0-.2.02-.25.13-.29.18-.29c.05,0,.35-.03.4-.08.05-.05.07-.2.13-.23.06-.03.57-.27.61-.25.04.02.36.31.36.31,0,0,.31-.06.31-.03s.03.26,0,.28c-.03.02-.3.29-.27.29s.97.16.97.16l.12.1s.29-.23.3-.29c.01-.06.14-.79.15-.86,0-.07.08-.72.1-.79.03-.07.17-.26.17-.26,0,0-.14-.73-.14-.85s.08-1.08.09-1.11c.01-.03.06-.53.1-.61.04-.08.34-.53.35-.6,0-.07.02-.34,0-.38-.02-.04-.71-1.46-.73-1.52-.02-.06-.38-1.52-.38-1.54s-.34-3.32-.34-3.32c0,0-.53-1.38-.53-1.5s-.3-1.68-.31-1.75c0-.07-.11-1.7-.11-1.72s-.4-1.24-.44-1.28c-.04-.04-.32-.45-.34-.51s-.55-1.2-.56-1.25c-.02-.05-.21-.2-.24-.23-.03-.03-.23,0-.23-.05s-.12-.23-.14-.25-.77-.21-.81-.27c-.04-.05-.49-.34-.49-.34l-.29.11-.11-.09-.36.29-.34.05s-.08.34-.09.36c-.01.02-.21.27-.26.29-.05.02-.51-.01-.51-.01,0,0-.58.31-.61.31-.03,0-.9.09-.9.12s-.08.52-.08.52c0,0-.18.24-.25.27-.07.03-.31.1-.35.11s-.67.05-.67.05c0,0-.04.06-.02.07s.71.12.73.14c.03.02.05.21.04.23-.01.02-.28.4-.31.41-.03.01-.3.13-.3.15s.01.16.01.18-.08.25-.12.31c-.04.06-.7,1.09-.7,1.14s.04.16.01.2c-.03.04-.18.33-.18.33,0,0-.25.08-.26.06-.01-.02-.05-.35-.05-.35,0,0-.07-.03-.09,0-.02.03-.23.55-.26.57-.03.02-1.18,1.46-1.22,1.46s-.77-.51-.81-.53c-.05-.02-.73-.13-.75-.15-.02-.02-.71-.31-.72-.38-.01-.07-.51-.87-.53-.91-.01-.04-.1-.41-.1-.41l.1-.02v-.19s.02-.02.03-.04c0-.02.07-.17.07-.17,0,0,0,.1.03.1s.07-.07.07-.09,0-1.02,0-1.02c0,0,.23.03.21.01-.02-.01-.16-.13-.16-.21s.04-.75.04-.75l.19-.15s.1-.47.14-.5c.05-.03.09,0,.14-.08.05-.07.08-.34.12-.37.04-.03.12-.11.19-.11.06,0,.21-.05.23-.03s.05.18.05.18l.11-.09s.14.11.16.11.27,0,.31-.04c.03-.03.07-.29.12-.27.05.02.56.28.58.25.01-.03-.12-.49-.08-.52.05-.03.14-.09.14-.11s-.06-.09-.03-.11c.03-.02.11-.13.11-.13,0,0,.55-.15.58-.15s.32.15.32.11-.19-.44-.16-.51c.03-.07.28-.35.28-.37s-.06-.67-.06-.7.14-.91.14-.93.29-.73.32-.75c.03-.02.17-.07.22-.09.05-.01.31-.04.34-.03.03,0,.21.13.21.13l-.18.27s.14.01.16-.03c.02-.05.21-.54.28-.62.06-.08.45-.56.47-.56s.3.08.31.04.23-3.21.23-3.21c0,0-.1-.72-.09-.77s.42-1.59.4-1.64-.29-.48-.29-.56.05-.76.03-.83-.32-.61-.3-.68c.01-.07.1-.35.05-.39-.05-.04-.38-.09-.41-.11-.03-.01-.4-.23-.42-.25s-.39-.49-.39-.49l-.14-.64s-.16-.11-.16-.13.05-.25.05-.25c0,0,.27.03.26,0,0-.02-.29-.16-.27-.19.02-.03.15-.48.18-.49.03-.01.4-.26.49-.29.09-.03.21-.05.22-.01.01.04.03.21.04.23,0,.02.17.23.17.23l.56.23h.29s-.12-.27-.12-.27c0,0-.38-.09-.39-.15s-.01-.49-.01-.49c0,0,.12-.06.12-.09s-.23-.3-.21-.34.05-.33.03-.33c-.02,0-.16-.01-.18-.03-.02-.01-.21-.27-.23-.31-.03-.04-.19-.45-.21-.51-.02-.07-.27-.38-.27-.38,0,0-.03-.23-.07-.3-.03-.07-.1-.09-.1-.09v-.13s.27.15.27.15c0,0,.16-.23.11-.27-.05-.04-.43-.27-.43-.29,0-.02-.29-.41-.29-.41,0,0-.12.06-.12.01s-.03-.17-.03-.17l-.16.05s-.07-.14-.06-.17.11-.1.1-.12c0-.02-.14-.27-.16-.2-.01.07-.02.29-.04.28-.02,0-.43-.25-.43-.25l-.08.13s-.47.02-.49,0c-.02-.01-.08-.17-.1-.17s-.18,0-.23,0c-.05-.01-.56-.33-.62-.39-.06-.06-.21-.3-.25-.31-.04,0-.25.03-.25.03,0,0,.02.11,0,.11s-.11-.11-.13-.11-.12.09-.16.09-.21-.08-.21-.08c0,0,.2-.13.16-.12-.05,0-.31.09-.34.06-.03-.03-1.1-1.02-1.12-1.03s-1.17-.14-1.17-.14c0,0-.27.14-.29.14s-.36-.11-.38-.13c-.02-.01-.16-.32-.19-.36-.03-.04-.18-.69-.21-.75-.03-.07-.77-.88-.79-.89-.02,0-1.03-.35-1.03-.35,0,0-.49.11-.53.11s-.43-.17-.43-.17l-.18.09.21.11-.1.11s-.36-.05-.38-.06-.89-.81-.92-.83c-.03-.01-1.69-.9-1.69-.9l-.1-.25c-.05,0-.47.01-.53.06-.06.05-.09.06-.07.11.03.05.1.17.09.21-.01.05-.17.21-.2.22-.03.01-.1-.05-.14-.06-.04,0-.12.06-.2.06-.08,0-.4-.14-.44-.12-.04.01-.29.12-.31.12-.02,0,0-.16-.18-.16s-.84-.05-.81,0c.03.05.53.22.56.26.04.04.16.18.17.29s.09.11-.04.19-.48.3-.51.39c-.03.09-.03.37-.13.41-.1.03-.68.34-.69.39-.01.05-.42.68-.42.75s.01.62.05.68.21.69.23.71c.02.02.45.57.47.59s.64.31.64.31c0,0-.06-.13,0-.13s.51.05.52.09.13.05.13.15.02.18-.02.23c-.04.05-.69.37-.72.37-.03,0-.2,0-.23,0-.03,0-.14.12-.25.12s-.91-.19-1-.17c-.09.02-.58.11-.65.17-.07.05-.4.31-.46.38-.06.07-.1.31-.18.3-.08-.01-.23-.13-.36-.06-.13.07-.7.69-.71.75-.01.06-.14.45-.14.52s.06,1.16.09,1.23c.03.07.16.47.17.57,0,0-.29,2.54-.29,2.58s-.66,1.58-.67,1.59c-.02,0-.41.34-.41.37s.07.38,0,.45c-.07.07-.27.33-.29.33s-.32-.09-.32-.09c0,0-.1-.16-.1-.18s.12-.23.13-.27c.01-.03.07-.44.07-.44,0,0,.57-.6.58-.63,0-.03.03-1.44.07-1.45.04-.01.23-.05.23-.05,0,0-.08-.45-.1-.44-.02,0-.38.21-.4.25-.02.03-.14.62-.14.64s-.33.43-.33.46.06.14.06.14c0,0,.13-.14.16-.13.03,0,.12.11.12.11,0,0-.51,1.01-.51,1.08s-.14.71-.14.71c0,0-.15.03-.19.03s-.24-.1-.25-.12c-.01-.02.06-.37.05-.41s-.2-.58-.19-.61.03-.53.06-.61c.04-.08.18-.48.22-.51.04-.03.19,0,.19-.05s.08-.92.06-.91c-.02,0-.34.3-.36.29s-.13-.16-.12-.18c0-.02.43-.65.43-.65,0,0,.09-.45.12-.43.03.03.22.13.22.11s.01-.19,0-.23c-.02-.04-.32-.42-.33-.45s-.14-.5-.12-.53c.01-.03.27-.37.27-.37,0,0,.13-.07.14-.03,0,.04.14.27.14.27,0,0,0-.29,0-.31,0-.02.3-.32.3-.35s-.18-.45-.19-.43c-.01.03-.37.46-.39.46s-.31-.11-.32-.09-.6,1.02-.6,1.05.04.21,0,.27c-.04.06-.32.39-.35.41-.03.02-.34.17-.35.21-.01.04-.31.56-.31.61s.02.49,0,.51c-.02.02-.2.35-.2.35,0,0-.46.23-.53.23s-.15,0-.2-.04c-.05-.03-.26-.39-.29-.39s-.32-.07-.34-.03c-.03.04-.38.89-.4.93-.02.03-.41.07-.43.05s-.21-.27-.22-.25-.32.19-.32.23-.02,1.15,0,1.22c.02.07-.12,1.04-.14,1.07s-.31.27-.32.28c-.02,0-.32-.07-.41-.04-.08.03-.98.54-.98.54l-.04.56s.34.97.35,1.01-.03.61-.03.64-.24.77-.24.77c0,0,.26,0,.24,0s-.25.07-.23.15c.01.08-.03.81-.03.87s-.18,1.03-.19,1.07-1.52,3.05-1.54,3.08c-.02.03-.26.35-.28.39-.02.03-.73.66-.74.69s-.02.16,0,.23c.02.07.51,1.14.53,1.19.03.05.2.33.23.35.03.01.19.07.19.07,0,0-.19.1-.23.06-.03-.04-.16-.27-.16-.25s.32,1.87.32,1.94-.31.94-.32.99c-.01.05-.69.92-.72,1-.03.08-.11.33-.12.47s.04.6.05.65.4.89.45.99c.05.1.53,2.17.56,2.22.03.05.88,2.21.9,2.22.02,0,.14.04.16,0,.02-.04-.01-.19,0-.18.02,0,.4.11.45.08.05-.03.25-.25.27-.25s.25-.05.25-.05c0,0-.1.27-.1.31,0,.04-.41.35-.47.37-.06.02-.21.05-.26,0-.05-.05-.08-.22-.11-.19-.03.03-.13,0-.1.07.03.07.75,1.76.77,1.83.03.07.32,1.56.33,1.64.01.08.18,3.18.18,3.18,0,0,.05.99,0,1.13s-.25,1.05-.25,1.08.04.39.05.41c0,.02-.34,1.96-.34,2.04s-.72,2.2-.73,2.24Z"/>
      <path class="cls-1" d="M48,35.1s.28.03.3.04c.02.01.08.09.08.11s-.12.15-.11.17c0,.02.08.09.11.09s.12-.09.12-.09l.08.06s0-.09.04-.09c.03,0,.18.05.18.05l-.12-.17s.14-.03.12-.06-.06-.12-.06-.12c0,0-.09.05-.11,0-.02-.05-.16-.25-.23-.29-.08-.04-.3-.13-.3-.13,0,0,.06.27.05.3s-.17.11-.15.12Z"/>
      <path class="cls-1" d="M49.57,35.51s.14-.1.18-.13.06-.29.06-.33-.06-.2-.06-.2c-.04,0-.19,0-.19.05s0,.15,0,.17c0,.01.12.01.1.05-.02.04-.25.39-.25.39,0,0,.14,0,.18,0Z"/>
      <path class="cls-1" d="M46.89,35.89s-.51,0-.51,0c-.02.02-.08.11-.07.15.02.04.14.21.14.25s-.08.31-.07.32c0,0,.2.07.24,0,.05-.07.18-.27.18-.34s-.05-.23-.04-.25c.01-.02.16-.13.12-.13Z"/>
      <path class="cls-1" d="M46.51,35.34s-.1.05-.09.07c.01.02.13.21.14.17,0-.04-.05-.23-.05-.23Z"/>
      <path class="cls-1" d="M47.16,38.31s.53.18.58.15c.05-.03.66-.54.66-.54,0,0,.08-.29.06-.37s-.19-.61-.19-.63.12-.35.12-.35c0,0-.05-.35-.06-.39-.01-.04-.27-.16-.23-.19.05-.03.29-.14.23-.15-.06-.01-.66-.15-.66-.15,0,0-.06.66-.08.73s-.34.29-.34.38.04.57.04.61-.19.28-.19.28c0,0,.02.47,0,.49s0,.09.04.13Z"/>
      <path class="cls-1" d="M44.98,36.37l-.1.35s.17-.17.17-.18-.07-.18-.07-.18Z"/>
      <path class="cls-1" d="M45.62,40.09s0-.35,0-.37-.19-.11-.19-.11c0,0,.01.11,0,.14s.19.35.19.35Z"/>
      <path class="cls-1" d="M44.95,40.54c-.02-.06-.15-.12-.16-.15-.01-.03-.27-.09-.27-.09,0,.04.43,1.01.43,1.01,0,0,.12-.13.12-.19,0-.07-.09-.51-.11-.57Z"/>
      <path class="cls-1" d="M43.3,44.48h-.49s-.12.25-.13.33.05.49.06.55c.02.06.47.58.51.6.04.02.47-.01.44-.07-.03-.06-.19-.27-.21-.39-.01-.12.11-.7.08-.74-.03-.04-.21-.28-.26-.28Z"/>
      <path class="cls-1" d="M42.55,46.31s-.08-.1-.14-.13c-.07-.03-.27-.12-.27-.12,0,0-.22.11-.24.16s-.14.52-.14.54.19.09.23.09.24-.06.28-.08c.04-.02.11-.08.1-.13,0-.05-.08-.23-.05-.25.03-.01.23-.07.23-.09Z"/>
      <path class="cls-1" d="M36.54,37.72s-.14-.07-.15,0-.1.15-.07.21c.03.06.08.18.11.14.02-.04.11-.36.11-.36Z"/>
      <path class="cls-1" d="M37.16,38.54s-.07-.13-.09-.16c-.02-.03-.26-.21-.26-.21,0,.07.06.64.06.64l.2-.06s.1-.18.09-.2Z"/>
      <polygon class="cls-1" points="36.71 38.89 36.75 39.18 36.86 39.04 36.71 38.89"/>
      <path class="cls-1" d="M35.8,39.75v-.36l-.22-.09s-.1.25-.09.29c0,.04.3.21.3.16Z"/>
      <polygon class="cls-1" points="36.17 39.3 36.29 39.53 36.32 39.3 36.17 39.3"/>
      <path class="cls-1" d="M70.47,45.34s-.05.13-.03.15c.01.02.12.07.12.07l.03-.18-.12-.04Z"/>
      <polygon class="cls-1" points="71.36 45.61 71.49 45.87 71.61 45.77 71.36 45.61"/>
      <path class="cls-1" d="M69.37,60.54l.07.33s.11-.21.1-.24-.18-.09-.18-.09Z"/>
      <path class="cls-1" d="M69.59,62.76s-.01.16,0,.18.21.04.21.04l-.21-.22Z"/>
      <path class="cls-1" d="M69.28,63.94s.54-.06.53-.08,0-.16,0-.2-.26-.27-.26-.27l.04-.11-.04-.1s-.13-.08-.13,0,.1.4.1.42.03.13.03.13l-.13-.15-.14.35Z"/>
      <polygon class="cls-1" points="68.92 64.5 69.02 64.71 69.02 64.52 68.92 64.5"/>
      <path class="cls-1" d="M73.12,89.14c.03-.06,0-.09.05-.19.04-.11,0-1.36,0-1.36,0,0-.19.61-.22.75-.03.13-.06.3-.05.39,0,.09.04.41.04.41,0,0,.16.06.19,0Z"/>
      <polygon class="cls-1" points="72.76 89.38 72.8 89.56 72.89 89.43 72.76 89.38"/>
      <path class="cls-1" d="M78.33,81.55s-.36.33-.36.33c0,0,.1.03.16,0,.06-.03.19-.23.21-.21.02.01.21.23.21.23l.18-.08s.07.17.05.17-.21-.07-.21-.05.07.01.01.05c-.05.04-.39.05-.29.09.1.04.49.07.49.07l.68-.89s-.21.08-.25.09c-.05.01-.07-.13-.17-.13s-.31,0-.32.03-.05.15-.05.15l-.02-.13-.03-.08s-.02,0-.05-.02c-.08-.03-.34-.09-.34-.09,0,0-.07.16-.04.16s.09-.09.14-.08c.05,0,.21.08.21.08l-.18.25.23-.05v.05s-.21.06-.26.08Z"/>
      <path class="cls-1" d="M78.62,81.16h0s0,0,0,0Z"/>
    </g>
  </g>
</svg>