<svg xmlns="http://www.w3.org/2000/svg" id="Layer_2" data-name="Layer 2" viewBox="0 0 80.4 95.3"><defs><style>.cls-1{fill:#172d35}</style></defs><g id="_Ñëîé_1" data-name="Ñëîé 1"><path d="m17.8 14-.2-.1-.8.5-.4.5-.4.1-.3.4-.5.2-.5 1.1-.3.3-.5.1-.6.1h-.5l-.9 1-1.9 1H8.6l-.6.2-.5-.2H7l-1 .3-2 1.8-1.7.5-1 .4H.7l-.8.5.2.5h.3l.2-.2.3.2v.3h.3v.2H2l.5 1.1.4 1.4 10 3.4 2.5 1.6.3.1h.2v.2l.4-.2.2.2h.4l.1.4h.5l.1-.4.3.2.6-.2.3.4.3-.1.4.3.4-.1.4.2v.2h.3l.2.1h.3l.4.1h.2l1 .5-.1.4q.2 0 .2.3s-.6.6-.5.7l.4.5h.4l.5-.1.1.2v.2l.2.1.9.2.2.3.4.3.3.4-.1.1-.3.2v.1l.4.6-.1.7H25v.2l.2.1v.4q.2.1.2.4l-.7.8v.4l-.3.7h.2l.2.3.1-.2h.8l.6-.5.4.3v.5l-.4.6-.5 1.4v.3l.6.5.2.5.4.1h.2l-.1-.3v-.4l.3-.3.4-.3 1-1.4.1-.4.2-.2.2-.5.7-.9v-.3l1-2 .3-.7.3-.4.7-.3v-.2l.4-.1h-.4.2v-.2l.4-.4-.2-.2v-.7l.3-.4.3-.2-.1-.2.3-.4.1-.4h.1v.1l.2-.1v.2h-.2l.1.4-.3.6h-.2l.2.7v1.2l.1.5.3-.5.2.1.2-.2h.3l.3-.2v-.3l.2-.1v-.2l.2-.1-.1-.2.2-.1.2-.3-.2-.3.1-.4h.4l.2.4.1-.1.6.1.1-.1.1-.3.2-.2.2-.2h.3l.2.2v.3l-.2.4v.3l-.3.2.3.3h-.4l-.2-.1H37v.2l-.1.1h.1v.2l-.1.3h-.2v.4l-.2.2h-.2l-.1.2v.2h.2l.2.4.1.2h.4l.1.3v-.2L37 37l.2-.1h.1v-.2l.2-.5h.4V36l.1-.1v-.2h.4l.1-.2h.4v-.3l.3-.2h.5l.1-.6.2-.3v-.7l.4-.2.2-.3h.4l.2-.3.5.1.3-.1h.7l.8.3.6.3-.1-.3.4-.3h.4l.3-.2.7.2h.8l.6-1 .7-.8.3-.2.5.2.4-.2.3.3.2-.1h.2l.8.4h.6v.2l.2-.2.1.2h.2l.5.3 1 .3.8 1.1h.3l.1.3.4.1v.2l.1.3h.2l.5.4.1-.1h.4L56 34h.1v-.6l.1-.1-.2-.4.2-.4h.3v-1l.2-.1.6.3h.6l.1.9.2-.1v-.3h.3v.2l.2.1V32h.5l.3.3h-.2l-.3-.1.2.3-.1.2H59l.6.3-.2-.1.1-.1.2.1h.2l-.3-.3h-.2l.2-.1v-.2l.2.2V32h.3l.2.1H60l.2.2h.2l-.2-.3.3.2.5.1v-.1l.4.2v-.1h.6l1.2.4.2-.3q.4-.2.4 0l.2-.1v.2l.2-.4-.1-.4h-.2l-.1-.2h-.2l-.1.2h-.1l-.5-.7-.4-.4v-.3l.4-.2V30l-.7-.2-.2-.2v-.2h-.2v.1-.1h-.3v-.2l-.1.2h-.1v.1h-.6v-.3l-.2-.1V29h.1l.2-.1.2-.2v-.2h.2v.1h.2l-.2-.5-.3-.3V27l-.3-.6-.1-.6-.4-.8-.6-.4-.2.2v.1l-.7.4-.1.4-.2.1-.2-.1v.1l-.7.3h-.3v-.3h.2l-.5-.7h-.5l-.9.5-.5.1-.2-.1-.1-.2H54l-.2-.3-.3.1h-.4l-.3-.2-.2-.4.3-.4v-2.3l.7-1h-.4l-.6.2h-1.9l-2.6 1.3-2.5-.1-1-.2-.8.2-.1.1h-.2v-.1l-1 .3h-.3l-.3-.2h-.1L40 23.7l-.3.2-.7.3h-.2l-.7.7h-.3l-.3.6h-.2l-.2.6H37l-.2-.1v-.3h-.4l-.3-.5h-.5l-.3.6h-.5l-.3-.5h-.3l-.2-.1-.2-.7-.4-.1h-.1l-.3.2h-.3l-.3.2-.2.1-.3-.2-.3.2H31l-.9-.1-.4-.5.1-.1h.1V24l-.2-.2.2-.3h-.5l-.3-.3v-.4l-.4-.2-.2-.4V22l-.2-.1-.4-.5v-.8l-.5-.4H27h.1L27 20v-.3h-.2v.2h-.3l-.2-.6h-.2l-.1-.2-.4-.2h-.3l-.6-.3h-1l-.8-.2-1.1.3-.4.8-.5.3.7-1 .5-.4.5-.6h-.2l-1 .4-1 1.1-.3-.1V19l-.1.2-.1.2h.1v.2l-.5.6-.2.5h-.4l.2-.4h.1l-.1-.7.4-2.3-.4-.7H19V16l-.1-.3h-.1l-.9-.2-.2-.3-.1-.5.2-.3z" class="cls-1"/><path d="M56.3 24.9h.1l.1-.1zM37 24h-.4l-.2.2.1.5.1.2v.6h.2l.1-.2h.2v.2h.2v-.6l-.1.2H37l.1-.8zm-1 .6.3.2-.2-.3zm-1.3.4h-.2l.2.1zm1.6.1.1.1v-.1zm-6.9-1.9.2.1v-.2zm-5.5-5.4h.2zm.2.2.2.1zm3.6-6.8-.3.2.5.1.1-.1zm-9.8 4 .3.2h.8l.2.5h.1l.6-.3v-.5l-.4.2c0-.2.7-1 .7-1l-.2 1.4-.7.7v.4l.3.2.2.2-.1.3h.1l.5-.5.2-.9.6-.4v-.4h.5v-.6l.1-.3.7-.3s.7-1 1-1l1.2-.7v-.1l-.3-.4.1-.1 1-.2.4.2.2-.1h.2l.2-.2h.4V11l-1-.5h-.4l-.8-.1h-1v.1l-1.7.3-.1.2-.5.1-.4.3-.5.2-.6.3-.8 1.2-.7.5-.4.2v.6l-.2.3zM12.6 4.6l.1.3.3.1 2.3-.8.2-.2h-.9v-.2l1.6-1h.8l.6-.3.3-.3h.3l.5-.4v-.3h-.2.2v-.1l-.4.2-.1.2h-.1v-.2L19.8.5l-.5.2.9-.7-.8.5.4-.5-.5.4h-.1V.3l-.3.2-.2.1.1-.1-.8.3.2-.2.4-.2-.6.2v.2l-.3.2-.1.2h-.2l-.5.2-.1.2-.5.3h-.4l-.3.2-.2.2-1.2.4-.9.5-.5.2-.4.4V4l.6-.3-.5.4h.1l-.3.5z" class="cls-1"/><path d="m17.2 1 .2.1V1zm-.8 2.6h.2v-.2zm-4.4.8.4-.1-.3-.1zm49.6 20.9.1-.6.2-.2-.2-.1h-.3l-.3-.1-.3.4-.5.3v.1l.2.3.1-.1.3 1 .5.4v.2l.1.3.4.2.2-.2V27h-.2l-.1-.3h-.2v-.4q-.4 0-.4-.3l.1-.6zm-.2 2.7.2.7v.2h.1v-.2l.4-.2-.3-1-.3-.2H61v.2h.1l-.1.3zm1.9 2.7h-.1v.1h.2zm1.7-.1.1-.2zm.7.6-.2-.2v.3z" class="cls-1"/><path d="m65 31.7-.2-.1-.3.3-.1.6h.1l.2-.4v.3h.1v.2h.3v.2h.2v.1l.3-.3h.1l.1.3.2-.2v.3l.2-.2.2.1.3-.1.2-.2v.4h.1v-.2h.2v.2l.2.1h.7l.4-1-.2-.2-.2.1-.2-.2h-.1v-.5l-.4-.3v-.4l-.2.1-.4-.3-.8.1-.1.2.6.3v.2l-.2.2h.2-.5l-.2.3h-.2l-.1.1-.3.4-.2-.1V32l-.1-.1v-.2Zm-5 1v-.2l-.1-.2h-.1v.4zm.2 0h.1v-.1zm.4-.1h-.1l.2.2zm-.1-.2v.1zm-1.5.8h-.1v.1zm-1.3-.5-.2-.2h-.2l.2.2zm-.5-.2H57v.2h.3zm.1 1.6-.3-.3h-.2v.4l.3.2h.2zm.1.6-.2-.2v.2zm1.6.5-.8-.3H58l-.5-.1h-.1v.2l.5.2.4.7.3.2h.7s.5-.6.4-.7l-.4-.1-.3-.5zM39.8 86.3l-.4 1-1.3 1.9-.6 1.4-.7 1.6-1 1.1-1.3 1h21.3v1l10.8-.7 3.1-.1.2-.2v-.2h.2l-.1-.4v-.1l.3.8v-1.1l.2-.2.3-.6.2-.2V92h.2v.2l.1-.5.2-.3h.5l.1-.4-.1-.2h.2l.4-.3V90h.1v-1.3l.5-1.5V87l.3-.3v-.2l.3-.6.9-.6h.6l.4-.5.2-1-.1-.3v-.7l.4-.6.4-.2.1.1v-.3l.2-.1-.5-.3V81l.2-.3h.4l.1-.3.6-.2.4.3h.3v.2l-.3.3 1 .2h.1l.3-.2.2-.9v-.8l.2-.2-.1-.9v-1l.2-.7.3-.6v-.4l-.7-1.5-.4-1.5L79 69l-.6-1.5L78 66v-1.7l-.5-1.3-.4-.5-.5-1.3-.3-.2h-.2l-.1-.3-.8-.3-.5-.3-.3.1h-.1l-.4.2h-.3l-.1.4-.3.3h-.5l-.6.3-.9.1v.5l-.3.3-.4.1H70v.1l.7.2v.2l-.3.4-.3.2v.1l-.1.4-.7 1.1v.2l-.2.3h-.2v-.3h-.2l-.2.6-1.3 1.5-.8-.6-.7-.1-.7-.4-.6-.9v-.6l.1-.2h.1v-1h.2l-.1-.2v-.8l.2-.1.1-.5.2-.1.1-.4.2-.1h.2v.1h.7v-.2l.7.2-.1-.5.1-.1v-.1l.1-.2.6-.1.3.1-.2-.5.3-.4V59l.1-1 .3-.7h.8l-.2.3h.2l.2-.6.5-.6h.3l.3-3.2-.1-.7.4-1.7-.3-.5v-.9l-.3-.6v-.4l-.4-.1-.4-.3-.4-.5-.1-.6-.2-.2v-.2h.3l-.2-.2.2-.5.4-.3h.3v.2l.2.3.5.2h.3v-.3l-.5-.1v-.5h.1l-.2-.4v-.4h-.1l-.3-.3-.2-.5-.2-.4-.1-.3h-.1v-.2l.3.1v-.2l-.4-.3-.3-.4-.1-.2h-.2v-.4l-.1.2-.5-.2v.1h-.5l-.1-.1H67l-.6-.4-.2-.3h-.3v.1l-.1-.1h-.4l.2-.1h-.4l-1-1-1.2-.1-.3.1-.4-.1-.2-.4-.2-.7-.8-1-1-.3-.6.1-.4-.1H59l.2.2h-.4l-1-.8-1.7-1v-.2l-.6.1v.3l-.2.2H54l-.1-.1h-.8l.5.2.2.3v.2l-.6.4v.4l-.8.4-.4.8v.6l.3.7.4.6.7.3h.5l.1.2v.2l-.7.4h-2.1l-.5.5-.2.3-.3-.1c-.2 0-.7.7-.7.7l-.2.6.1 1.2.2.6-.3 2.5-.7 1.6-.4.4v.5l-.3.3-.3-.1-.1-.2.1-.3.1-.4.6-.6v-1.5h.3l-.1-.5-.4.3-.2.6-.3.5v.1l.2-.1.1.1-.5 1-.1.8H47v-.5l-.2-.6v-.6l.3-.5h.2v-1l-.3.3-.1-.2.4-.6.1-.5.2.1V46l-.3-.4-.1-.6.3-.3h.1l.1.2v-.3l.3-.4-.2-.4-.3.5-.4-.1-.6 1v.3l-.3.4-.4.2-.3.6v.5l-.2.4-.5.2h-.2l-.3-.4H44l-.4.9H43V48l-.3.2v1.2l-.1 1.1-.4.3h-.4l-1 .5v.6l.4 1v.6l-.3.8h.2l-.2.1v.9l-.2 1-1.6 3.1-.2.4-.8.7v.3l.5 1.1.3.4h.2l-.3.1-.1-.2.3 2-.3 1s-.7.8-.7 1l-.2.4v.6l.5 1 .6 2.2.9 2.3h.2v-.2h.4l.3-.2h.2v.3l-.5.3H40l-.1-.2-.1.1.8 1.8.3 1.7.2 3.2v1.1l-.3 1v.5l-.3 2zM48 35.1h.3v.4h.2l.1-.1h.2l-.1-.1h.1V35h-.2l-.2-.3-.3-.1v.3zm1.6.4.1-.1.1-.4v-.2l-.2.1v.2l-.2.4zm-2.7.4h-.5v.7h.2l.2-.3zm-.3-.6v.3zm.7 3 .5.2.7-.6v-.3l-.1-.7v-.7l-.2-.2q.2 0 .2-.2l-.6-.1-.1.7-.4.4v.6l-.1.3zM45 36.4l-.1.3zm.6 3.6v-.3h-.2l.2.4Zm-.6.5-.2-.1-.3-.1.5 1zm-1.7 4h-.5l-.1.3v.6l.5.6.5-.1-.2-.4v-.7zm-.7 1.8-.2-.1-.3-.1-.2.1-.1.6h.5v-.4zm-6.1-8.6h-.1v.4zm.7.8-.1-.1-.3-.2v.6h.3zm-.5.4.1.3.1-.2zm-.9.9v-.4l-.2-.1-.1.3zm.4-.5.1.2zm34.3 6v.2zm.9.3.1.3.1-.1z" class="cls-1"/><path d="M69.4 60.5v.4l.1-.3zm.2 2.3v.1h.2zm-.3 1.2.5-.1v-.2l-.2-.3v-.2h-.2l.1.4v.1-.1zm-.4.5.1.2zm4.2 24.6v-1.5l-.1.7-.1.4v.4zm-.3.3v.2zm5.5-7.8-.3.3h.1zl.2.2h.2-.1c0 .1-.4.1-.3.2h.5l.7-.8h-.8v.1-.2h-.1l-.4-.1v.1h.3l-.1.3h.2zm.3-.4" class="cls-1"/></g></svg>