<svg xmlns="http://www.w3.org/2000/svg" data-name="Layer 2" viewBox="0 0 81.8 95.2"><path d="m22.3 3.7.6-.4.8-.1.4-.3.2-1.1.1-.3v-.3l.1-.2h-.3L24 .4l-.5.1h-.3V.3l-.7-.2-.2-.2-.1 2v1.6zM20.5 6h-5.7l-9.1-.4L0 5.3v.1l-.1.4v.4l.2.2v.4l.2.2v.2l.1.1v1l.2.2-.1.1.2.3v.4l.1.1v.2l.1.1.1.4v.2l.2.1-.1.4v.1l-.1.2v.5H.7q.2 0 0 .1v.3l-.1.1v.1l-.1.1.1.2H.5l.2.3-.1.1.2.2-.2.1.2.3-.2.2.2.1H.7v.5h.2l-.2.2.1.1H.6v.1h.1q.2 0 0 .2l-.3.1v.2h.3v.2q-.3 0-.2.1l.2.3v.3l.1.1-.1.2.1.2-.2.1.2.1v.2H.4l.2.2v.2l-.2.1v.1l.2.2H.4l.3.1-.1.2-.2.4h.1v.3h.1l-.2.3.3.1v.5l.2.2v.3l.2.5v.6l.2.3v.6l.1.2.2.3v.6l.1.3.2.4v.6l.3.3v.2l.2.2v.3l.1.3v.2l.4.7v.6l.3.6v.3l-.2.2v.4l-.2.3.1.1h.2l-.2.3v.3H3l-.1.3v.7l.2.1v.5l-.2.2.2.2-.1.1.1.2H3l.2.2-.2.2v1.9l.1.1v1.7l-.1.2v.4l.1.1v.2l-.2.3.2.1v.5h.2v.7l.4-.1v.2l-.2.4v.3l-.1.5-.1.2v.2l-.2.2.2.8-.1 1.3-.2.4.1.2v.2l.1.2.1.1v.3h.1v.3l.2.3v1.3l.3.1-.1.1v.4l.2.1v.3l.3.3v.4l.3.2v.2l.3.1.2.5-.2.7.2.3-.2.3.2.4v.5l.1.2v.4l.2 1-.3.9.1 1.5-.1 1.2-.2.7-.6.5-.3.8-.8.3-.5.5-.6.3-.3.5v.3l1 1.5.2.8.3.7.4.3h.7l1.2.8.2.3.3.7-.2 4.9-.2 4.8-.2 6.7-.3 7.3-.2 5.6 5.6.2 10 .2 9 .2 6.8.1h20.8l7.5-.1v-.3l-.3-.4.2-.7-.4-.5v-.5l-.1-.4.2-1.7-.2-.3-.2-.8c0-.1-1-1.5-1-1.7l-.5-.4-.2-.2-1-.5-.9-.2-.8-.9-.5-.3-.2-.4-.9-.4-.6-.6-.3-.5v-.5l-.2-.4-.2-.1V82l-.4-.8-.3-.1-1.1-.6-1.2-.4-.5-.2-.7-.8-.2-.6-.4-.4-1.1-.2H50l-.2-.1h-.3l-.2-.4-.6-.3v-.4l-1-.9-1-.7-.1-.4.2-.4.3-1v-.5l-.1-.3.2-.3v-.6l-.2-.4v-.8s-.4-.4-.3-.5v-.3l.6-.6v-.9l-.2-.3.1-1.2v-.3l.5-.8.1-.5.6-.7v-.5l-.1-.3-.4-.3-.4-.6V62l-.4-.4h-.6s-.7 0-.7-.2v-1l.1-1.3.6-.3.3-.4.2-.4.2-.3v-.4l.2-.3s0-.5.2-.5l.4-.4.2-.2.4-.3.9-.3V55l.2-.1h.7l.3-.6.2-.1.6.1.3-.4v-.3l.5-.2v-9.6l.1.1h.7v-.2l.3-.3-.2-.2.1-.3h.4q0-.3.2-.4l.3-.2.1-.6 2.9-2.2h.2l1.2-1.2.7-.5v-.2l.7-.7 1-.7.6-.8.5-.4.3-.4.6-.6 1-1.2.2-.4 1-1.2 3.3-2.9 1-.5.4-.3.5-.2.8-.6.7-.2.2-.2 1-.2.2-.3 1.4-.3.2-.2 1.8-.7.4-.2.4-.4 1.3-.5 1-.9v-.2l.3-.1.2.1v-.3l.1-.2h.2v.1l1.2-.3H81l-.3-.2-.4.1h-.7l-.2-.2H79l-.4.2h-.2l-.2.3-.4.1h-.4l-.3-.4h-.3l-.3-.2V21l-.4-.6-1.1-.2-1.7.2h-.2l-.7.1-.3-.2-.4.1h-1.3V20h-.1l-.8.3-1.1.2-.3-.5-.2-.2.2-.2v-.1l-.2-.1-.1-.2-.2-.1v.1l-.3-1H67l-.3.1-.6.2-.7.6-.5.1L63 21l-1.2.2-.2.2h-.4l-.2-.2h-.4l-.8.3v-.9l-.8.1-.2-.2h-.3v-.1l-.3.1.1-.5v-.5l-.2.1.1-.4-.2-.2-.1.1h-.7l-.6-.2-.4-.4h-.6v-.2h-.2l-.2-.3H55v-.9l-.3-.1-.2-.4h-1l-.1-.2q0 .2-.2.3h-1l-.3.5.1.8.2.4-.4.1-.6.3-.6-1.4-.3-.2-.3-.7s.2-.7.1-.8l-.1-.2-.4-.3-1.4.1h-.4l-.3-.4.2-.5.7-.1v-.6l-.6-.1h-.5l-2.3-1v-.3h-2.4l-.4-.2h-.5l-1 .3-.1.2h-.4l-.6.3v.5l-.3.3-.6.2H38l-.3.1h-1.3l-.4-.2.2-.6-.4-1-4.1-.4-.3-.2V11l-.4-.2-.5.2-.7-.2-.4.3-1-.2-.1-.2h-.4l-.5-.4-.6-.8V9l.2-.4-.7-.2h-.4L25 8l-.2.2v.2l-.3-.2.3-.3-.6-1.2-.4-.4-.6.3H23l-.4.8-.7.4-.7.1-.7-.3H20l.3-.2v-.6l-.2-.3.1-.4z" data-name="Ñëîé 1" style="fill:#172d35"/></svg>