<?xml version="1.0" encoding="UTF-8"?>
<svg id="Layer_2" data-name="Layer 2" xmlns="http://www.w3.org/2000/svg" viewBox="0 0 81.83 95.24">
  <defs>
    <style>
      .cls-1 {
        fill: #172d35;
      }
    </style>
  </defs>
  <g id="_Ñëîé_1" data-name="Ñëîé 1">
    <g>
      <path class="cls-1" d="M22.34,3.74s.49-.39.52-.4c.03-.01.79-.16.79-.16,0,0,.41-.29.43-.32.02-.03.18-1.1.18-1.1l.16-.29s-.11-.15-.1-.17,0-.07.02-.1c.01-.03.21-.21.17-.22-.03-.01-.28-.06-.28-.06l-.34-.46-.45.14s-.35-.05-.36-.07c-.01-.02,0-.1,0-.1,0,0-.59-.23-.65-.26-.06-.03-.28-.2-.28-.18s-.1,2.01-.09,2.06c0,.05,0,1.59,0,1.59,0,0,.26.09.28.08Z"/>
      <path class="cls-1" d="M20.45,6.05l-5.63-.19-9.13-.35-5.56-.22s-.04.04-.04.11-.12.3-.09.39c.03.09.09.1.09.17s-.06.15-.03.22c.04.07.14.19.15.26.01.07.03.35.05.39.02.03.17.15.17.19s-.09.21-.06.23c.03.03.17.05.17.09s-.15.17-.1.18c.05.01.14-.03.14.07s.02.29,0,.37c-.03.08-.19.35-.12.37.07.02.28.13.28.13l-.16.17s.22.22.23.26c0,.04-.06.09-.06.09,0,0,.11.15.09.16-.02.01-.18.11-.07.15.11.04.19.09.18.11-.01.02-.06.2-.06.2l.11.11s-.11.07-.09.08c.02.01.25.25.24.27,0,.02-.06.04-.06.09s0,.13.05.16.23.07.2.11l-.16.34.05.14-.15.19.04.19-.18-.05.05.19s-.15-.07-.15,0,.04.18.02.19c-.03,0-.15,0-.15,0,0,0,.14.07.07.11-.07.04-.13.1-.13.13s.06.18.05.2c0,.03-.15.03-.14.05,0,.03.1.1.1.12s-.2.13-.2.13l.18.14s-.2.08-.17.1c.03.02.22.2.22.2,0,0-.13.12-.09.16.03.04.22.1.21.12-.02.03-.25.12-.22.17.03.04.24.26.17.29-.07.04-.21.11-.19.13.02.03.23.15.23.15,0,0-.16.04-.15.06.02.03.14.23.14.23,0,0-.19.14-.15.19.03.04.22,0,.22.04s-.21.12-.19.14c.02.03.16.17.16.17h-.21c-.08,0-.09.08-.09.08,0,0,.16-.07.18,0,.02.07.16.11.03.17-.13.06-.3.1-.31.16s0,.15.03.16c.03,0,.2.04.2.08s.05.06-.03.11c-.09.04-.19.04-.16.12.03.07.2.28.21.33,0,.04-.05.25-.05.25,0,0,.19.09.17.12s-.16.1-.15.15c0,.05.17.2.17.24s-.21.04-.21.09.17.06.17.1-.07.17-.07.17l-.18.12s.19.09.19.12.02.17-.03.19c-.04.02-.21.1-.21.1,0,0,.08.08.09.12.02.04.21.16.13.16s-.28.09-.28.09l.25.07s-.09.06-.11.12c-.02.06-.14.4-.14.4,0,0,.15.06.11.12-.03.06-.14.16-.12.21.02.05.21-.06.22,0,0,.06-.22.31-.22.31,0,0,.28.04.24.1-.03.06-.03.49,0,.5.03.02.21.1.21.19s-.04.27,0,.35c.03.08.26.35.28.44.02.09.03.6.05.66.02.06.09.16.1.24,0,.08-.08.2-.08.28s.06.33.08.38c.02.05.13.13.14.19,0,.05.08.19.12.26.04.06.06.21.03.31-.03.1-.07.18-.03.29.03.12.07.14.16.28.09.14.14.38.15.46.02.08.14.24.12.29-.02.05-.07.18-.05.23.02.05.26.22.27.31,0,.09-.03.21.04.27s.19.11.2.15-.03.1-.03.12.07.04.06.16c0,.12.07.34.07.34,0,0-.11.03-.08.18.03.15.44.64.44.73s-.08.47-.04.55c.03.08.31.54.32.63,0,.09-.03.3-.03.33s-.17.14-.16.17c.02.03.15.1.15.1l-.05.16s.09.12.08.14c-.02.03-.11.04-.11.04,0,0-.13.2-.12.25,0,.04.06.14.1.14s.16-.11.16,0c0,.11-.14.29-.16.32-.02.03.03.14.03.17s-.12.1-.12.1c0,0,.18,0,.15.07-.03.08-.12.19-.12.26s.06.43.06.43c0,0-.14.2-.11.22.03.02.26.09.26.15s.02.19.02.19c0,0-.1.03-.09.09.02.06.04.15.04.18s-.15.17-.12.2c.03.04.16.11.14.18-.03.07-.1.13-.1.13,0,0,.14.13.14.16s-.12.12-.12.12c0,0,.18.04.16.12-.03.07-.21.14-.18.18.03.04.1.18.09.21-.02.04-.16.44-.14.45.03,0,.13.1.13.1,0,0-.12.04-.1.12.02.08.09.19.08.24,0,.05-.04.08-.03.12.02.04-.02.3-.02.3,0,0,.08.13.08.2s-.15.15-.12.18c.03.03.16-.03.16.13s.02.22.03.29c0,.07-.13.2-.13.25s.12.24.09.31c-.03.07-.09.07-.09.12,0,.04.13.19.13.22s-.07.26-.07.3.07.07.05.13c-.02.06-.13.17-.12.19s.09.07.09.17c0,.1-.06.25-.06.25,0,0,.15.11.12.14-.03.04-.09.07-.09.07,0,0,.09.05.03.12s-.21.27-.19.29c.02.03.13,0,.16.12.03.13,0,.53,0,.53,0,0,.28-.04.26.04-.02.08-.08.27-.08.27,0,0,.1,0,.1.09s-.04.19,0,.21c.04.03.35-.08.34-.05,0,.03.03.13.02.18-.02.04-.21.32-.22.41,0,.09.04.3.04.3,0,0-.04-.04-.09.05-.05.09-.04.38-.03.43.02.04-.14.18-.12.27.02.09.05.14.03.17-.03.03-.16.13-.16.21s.16.76.17.82c.02.06-.11,1.16-.15,1.25-.03.09-.14.37-.14.4s.13.22.12.25c0,.03-.09.16-.09.16,0,0,.17.13.19.19.02.05.1.04.09.12-.02.07-.08.27-.05.27s.14-.02.15.04c0,.06-.03.15.03.25.05.1.11.35.11.35,0,0-.07.19-.06.24,0,.05.15.55.15.61,0,.06-.11.06-.11.06,0,0,.03.28.09.35.05.07.22.16.22.16,0,0-.1.05-.09.1,0,.04.09.09.09.15s-.08.24-.05.25c.03,0,.14.03.14.1s0,.23,0,.23c0,0,.11,0,.12.07,0,.06.15.19.18.22.03.04.09.45.09.45,0,0,.25.19.25.22s-.05.12-.02.13c.03.02.27.06.3.16.03.1.18.39.18.44s-.11.71-.11.74.15.34.15.34c0,0-.15.08-.15.22s.11.35.13.4c.02.04.05.12.05.22s-.06.29-.03.34c.03.04.11.12.11.17s-.03.35-.03.37.19.93.19,1.02-.24.76-.24.88.12,1.43.11,1.5-.1,1.12-.16,1.23-.18.62-.22.68c-.04.06-.43.38-.52.51-.09.13-.32.77-.38.79-.06.02-.75.27-.81.35s-.3.39-.46.47c-.15.08-.56.24-.63.35-.07.12-.2.38-.22.47-.02.09-.11.19-.04.3.07.12.9,1.35.91,1.45s.2.61.26.8c.06.19.32.66.37.73s.29.31.35.33c.06.02.64,0,.76.05.12.05,1.01.63,1.1.74.09.11.22.26.24.32.02.06.26.61.26.69s-.17,4.84-.17,4.84l-.17,4.85-.26,6.68-.26,7.28-.22,5.64,5.6.15,10.03.27,8.98.17,6.83.1,9.28.07h3.35l8.16-.06,7.5-.12s.05-.17,0-.26c-.05-.09-.28-.35-.26-.43.02-.07.14-.69.12-.74-.02-.05-.4-.47-.4-.5s.08-.42.05-.48c-.03-.06-.15-.32-.15-.42s.28-1.61.28-1.64c0-.03-.17-.25-.2-.33-.03-.08-.16-.68-.22-.79-.05-.11-1.02-1.53-1.09-1.65-.08-.12-.42-.43-.43-.46,0-.03-.17-.18-.23-.23-.06-.05-.84-.5-.9-.5s-.92-.14-.96-.19c-.04-.04-.81-.82-.84-.85-.03-.03-.44-.21-.47-.27-.03-.05-.11-.4-.19-.43-.08-.04-.82-.35-.86-.39-.04-.04-.63-.53-.67-.58-.04-.05-.31-.49-.31-.57s.07-.31,0-.46c-.07-.15-.15-.34-.17-.37-.03-.04-.24-.13-.24-.18s.11-.35.09-.39c-.03-.04-.4-.7-.48-.74-.08-.04-.21-.08-.29-.15-.09-.07-1.02-.59-1.11-.63-.09-.04-1.14-.39-1.17-.4-.03,0-.41-.14-.47-.17-.05-.03-.72-.78-.72-.78,0,0-.13-.57-.18-.64-.05-.07-.37-.31-.43-.32-.06,0-1.09-.24-1.12-.24s-.71,0-.71,0l-.16-.13-.27.09s-.16-.43-.2-.45c-.03-.03-.59-.25-.6-.29-.02-.04-.02-.35-.09-.41-.08-.05-.86-.89-.9-.92-.04-.04-1.04-.66-1.06-.72-.02-.06-.09-.33-.09-.38,0-.05.18-.32.23-.43.05-.11.26-.95.26-1.02s-.03-.43-.03-.49-.12-.2-.1-.24c.02-.04.22-.29.25-.36.03-.07,0-.51,0-.55,0-.04-.16-.35-.16-.43s.03-.71,0-.77c-.03-.06-.4-.45-.39-.53.02-.08.05-.15.1-.24s.53-.58.54-.64c0-.06-.02-.83-.05-.9-.03-.07-.16-.25-.15-.34s.15-1.15.15-1.15c0,0-.15-.27-.11-.33.03-.06.59-.67.6-.73.02-.05.05-.49.08-.57.03-.08.54-.61.55-.67,0-.06.05-.49.04-.54,0-.05-.12-.27-.15-.3-.03-.03-.32-.15-.35-.25-.03-.1-.36-.62-.38-.66-.02-.04.06-.4-.03-.48-.09-.08-.28-.27-.37-.33-.09-.06-.16-.1-.29-.06s-.28.09-.35.08c-.07,0-.71-.13-.71-.23s-.08-1.05-.05-1.11c.03-.06.14-1.13.2-1.18s.56-.39.59-.39.27-.24.33-.34.11-.38.15-.44c.03-.06.16-.26.16-.26,0,0,.03-.08.02-.17-.02-.09-.09-.2-.04-.26.05-.05.22-.18.24-.26.03-.08.11-.52.18-.56.07-.04.34-.27.41-.35.08-.07.15-.23.2-.26.05-.03.37-.19.47-.25.09-.05.4-.17.44-.18.03,0,.38-.08.38-.13s0-.26.05-.31c.06-.05.15-.11.24-.11s.57.13.61.04c.04-.1.29-.6.34-.64.04-.04.15-.1.23-.1s.48.14.59.13c.11,0,.27-.31.27-.4s-.04-.26.06-.31c.1-.05.4-.15.44-.24.03-.09-.02-2.77-.02-2.77,0,0-.05-6.83-.03-6.83s.15.13.21.16c.06.03.61.06.65.02.04-.04.05-.18.09-.26.04-.08.23-.24.19-.3-.04-.06-.2-.13-.2-.19s-.02-.27.16-.3c.18-.04.35.04.41-.05.06-.09.03-.25.13-.3.09-.05.34-.2.34-.2l.06-.07.05-.55,2.86-2.2.25-.04s1.09-1.14,1.15-1.2c.05-.06.75-.42.75-.46s0-.19.02-.22c.02-.04.57-.65.6-.66.03,0,.96-.66,1.07-.71.1-.05.57-.84.59-.86.03-.02.46-.28.49-.33.03-.04.23-.39.3-.45.07-.06.58-.51.59-.54.02-.03,0-.13.05-.19.04-.06,1-1.12,1.02-1.18.03-.06.1-.31.13-.35.03-.04,1.07-1.25,1.07-1.25,0,0,3.13-2.81,3.26-2.84.12-.04.93-.5.96-.53.03-.03.32-.32.4-.35.09-.03.42-.15.48-.18.06-.03.72-.56.81-.6.09-.04.65-.19.71-.2.06-.02.16-.21.22-.22.07,0,.91-.14.91-.14,0,0,.19-.28.31-.29.12,0,1.37-.35,1.37-.35,0,0,.18-.14.25-.19s1.72-.65,1.76-.66c.03-.02.38-.2.4-.22.03-.02.26-.36.37-.42.11-.05,1.24-.47,1.31-.5.07-.03,1.09-.85,1.09-.88,0-.03-.08-.22,0-.24.08-.02.22-.07.22-.07l.21.15s-.03-.34-.03-.36.1-.21.17-.21.15,0,.15,0l.09.14,1.07-.35s-.5.05-.53.05-.27.05-.27.05c0,0-.17-.22-.27-.24-.09-.02-.34.06-.38.08-.04.02-.22,0-.22,0,0,0-.17,0-.26,0s-.23-.02-.23-.02c0,0-.16-.14-.2-.15-.03,0-.4,0-.4,0,0,0-.33.12-.38.12s-.19-.09-.2-.05c0,.04-.22.32-.25.36-.03.04-.3.16-.37.16s-.41-.06-.44-.12c-.03-.05-.2-.27-.28-.27s-.28.03-.28,0c0-.03-.22-.17-.26-.2-.03-.04-.07-.39-.09-.44-.02-.05-.34-.55-.34-.55,0,0-1.08-.28-1.11-.28s-1.66.24-1.66.24l-.25-.09-.7.22s-.15-.2-.24-.2-.42.08-.46.08-.23-.1-.23-.1c0,0-.86.19-.9.17-.04-.02-.2-.1-.19-.12,0-.03.09-.22.09-.22,0,0-.15-.07-.18-.06-.03,0-.73.35-.78.36-.05,0-1.12.17-1.12.17l-.25-.51s-.26-.14-.23-.17c.03-.03.21-.14.22-.19,0-.04.04-.18,0-.19-.03-.02-.25-.06-.25-.06l-.1-.23-.12-.08s-.06.16-.09.14c-.03-.02-.15-.73-.16-.82-.02-.1-.05-.29-.05-.29,0,0-.21.14-.23.12-.03-.02-.14-.13-.16-.12-.03.02-.26.22-.28.23-.03,0-.58.11-.59.13-.02.03-.6.57-.7.6-.09.04-.49.12-.53.16-.04.04-1.75,1.61-1.81,1.63s-1.18.2-1.21.22c-.03.02-.14.14-.2.18s-.4.11-.4.11c0,0-.2-.26-.28-.27-.08-.02-.35-.03-.35-.03,0,0-.78.38-.8.35-.02-.04-.09-.37-.09-.4s.17-.51.15-.53c-.03-.02-.84.17-.87.14-.03-.03-.2-.23-.2-.23l-.27.06-.04-.2-.26.13s.09-.4.11-.46c.02-.06-.11-.5-.11-.5,0,0-.19.16-.14.06.05-.1.16-.41.13-.43-.03-.02-.22-.12-.22-.12,0,0-.09.09-.13.09s-.31-.12-.36-.09c-.05.04-.08.17-.13.12-.05-.04-.06-.1-.13-.14-.07-.04-.68-.1-.68-.1,0,0-.37-.43-.4-.43s-.53.1-.54.07c0-.03,0-.19,0-.19l-.1-.12s-.15.19-.16.12c-.02-.07-.21-.33-.21-.33,0,0-.09.05-.12-.02-.03-.07-.09-.43-.08-.5.02-.08.07-.43.07-.43,0,0-.26-.08-.31-.1-.05-.02-.24-.43-.24-.43,0,0-.23.12-.28.12s-.65-.1-.65-.1c0,0-.09-.22-.15-.17-.06.05-.08.24-.2.27s-.97-.04-1.02-.02c-.04.03-.28.47-.29.54-.02.07.09.68.14.77.04.09.28.41.22.43-.05.03-.47.07-.49.09-.03.02-.54.29-.54.29,0,0-.61-1.33-.64-1.34-.03,0-.24-.29-.24-.29,0,0-.3-.58-.32-.64-.02-.06.14-.74.13-.78,0-.04-.19-.19-.19-.19,0,0-.28-.38-.31-.38s-1.41.19-1.48.17c-.07-.02-.36-.08-.41-.12s-.26-.29-.25-.35c0-.05.09-.48.2-.5.1-.03.66-.06.69-.1.03-.04-.03-.54-.07-.58-.04-.04-.46-.13-.48-.13s-.53.14-.55.13c-.03,0-2.29-1.09-2.29-1.12s.07-.36-.03-.31c-.09.05-.22.06-.31.07-.09,0-2.04,0-2.07,0-.03-.02-.4-.23-.4-.23l-.53-.08-.93.36s-.09.19-.16.2-.34-.03-.39-.02c-.05,0-.63.29-.63.32s.08.53.05.56c-.03.03-.29.2-.35.23-.06.03-.52.19-.55.19s-.59,0-.59,0l-.13.08s-.17-.12-.22-.09c-.05.04-.31.19-.31.19h-1.27l-.34-.19s.12-.59.13-.65c0-.05-.34-.97-.37-.98-.03,0-4.15-.42-4.15-.42,0,0-.22-.13-.22-.18s.03-.38.03-.42-.07-.13-.09-.15c-.03-.02-.41-.22-.41-.22l-.5.14-.71-.17s-.31.3-.36.32c-.05.02-.95-.17-.95-.17,0,0-.13-.23-.16-.23s-.4-.06-.4-.06c0,0-.47-.38-.5-.39-.03,0-.58-.72-.58-.72,0,0-.09-.54-.06-.58.03-.04.21-.35.22-.39,0-.04-.55-.19-.62-.18s-.37.09-.37.09c0,0-.02-.12-.09-.15s-.78-.3-.81-.29c-.03,0-.18.08-.18.11s-.03.21-.03.21c0,0-.34-.12-.31-.16.03-.04.33-.23.32-.27s-.49-1.15-.53-1.21c-.03-.06-.41-.41-.41-.41,0,0-.52.27-.59.29-.08.02-.36-.03-.37,0-.01.03-.36.8-.41.84-.05.04-.59.31-.62.31-.03,0-.75.15-.77.15-.02,0-.64-.33-.66-.33s-.39.06-.39.06l.32-.27s-.16-.33-.14-.36c.03-.03.08-.08.08-.18s-.16-.35-.15-.37c0-.02.06-.3.09-.31.03-.01.24-.14.24-.14Z"/>
    </g>
  </g>
</svg>