<?xml version="1.0" encoding="UTF-8"?>
<svg id="Layer_2" data-name="Layer 2" xmlns="http://www.w3.org/2000/svg" viewBox="0 0 102.19 95.24">
  <defs>
    <style>
      .cls-1 {
        fill: #172d35;
      }
    </style>
  </defs>
  <g id="_Ñëîé_1" data-name="Ñëîé 1">
    <path class="cls-1" d="M101.55,77.23c.07-.06.17-.16.21-.23.03-.06.13-.94.15-1,.02-.06.26-.74.28-.82.01-.09,0-.42-.06-.51-.06-.09-.3-.19-.35-.2-.05,0-.17,0-.23.03-.06.03-.42.19-.44.19s-.24,0-.28-.04c-.05-.04-.22-.8-.25-.86-.03-.06-.49-.34-.52-.4-.03-.06-.24-.5-.29-.51-.06,0-.87-.02-.87.03s.01.25.12.33c.1.08.47.24.53.31.06.07.15.21.15.3,0,.09-.07.36-.13.41-.06.06-.11.15-.23.15s-.15-.03-.22-.08c-.08-.05-.3-.32-.37-.36-.07-.04-1.06-.63-1.06-.69s.16-.84.09-.94c-.07-.1-.31-.46-.34-.49-.03-.03-.35-.27-.4-.36-.05-.09-.53-1.01-.56-1.08-.03-.07-.19-.51-.19-.61s.08-.56.08-.63c0-.06-.02-.12-.11-.12s-.42.04-.46,0c-.04-.04-.31-.39-.31-.45,0-.06.08-.68.09-.73,0-.05.32-.46.36-.49.04-.02.75-.3.77-.31.02-.01.16-.5.16-.7s-.23-1.15-.29-1.19c-.06-.04-.73-.84-.76-.91-.03-.06-.48-1.09-.49-1.19,0-.11-.05-.63-.01-.66.03-.04.44-.09.49-.14.05-.04.12-.11.12-.16s-.14-.34-.15-.36c-.01-.02-.49-.53-.49-.61s.04-.93.02-.98c-.02-.05-.31-.26-.31-.26,0,0-.93-.26-.99-.32-.06-.06-.33-.45-.37-.47-.04-.02-.67-.23-.69-.23s-.14-.06-.12-.13c.02-.06.14-.5.13-.56s-.17-.29-.19-.31c-.03-.03-.59-.43-.63-.45-.04-.02-.52-.58-.55-.6-.03-.02-.63-.22-.66-.24-.03-.01-.19-.25-.23-.29-.03-.04-.62-.51-.69-.46-.06.04-.79.66-.79.66,0,0-.17.1-.31.06-.14-.04-.35-.12-.37-.18-.03-.06-.45-.89-.44-.93,0-.04.35-.49.38-.56.03-.07.02-.16-.04-.19-.06-.03-.83-.04-.9-.11-.08-.08-.71-.76-.79-.83-.08-.06-.78-.34-.85-.44-.07-.11-.22-.56-.31-.61-.09-.05-.63-.21-.82-.31s-.65-.46-.67-.49c-.02-.04-.39-.44-.42-.5-.03-.06-.44-.78-.48-.81s-.69-.42-.77-.51-.44-.79-.49-.94c-.06-.14-.22-.77-.22-.85s.01-.68.01-.69.17-1.09.18-1.12c.01-.04.22-.43.22-.43,0,0,.66-.75.67-.79.01-.04.12-.23.13-.3.01-.07.22-1.18.22-1.27s.3-.91.33-.98c.03-.07.33-.48.35-.52.02-.04.41-.39.44-.46.03-.06.17-.38.18-.44.01-.06.06-.84.03-.92-.02-.08-.42-.86-.44-.95-.03-.09-.07-.24-.04-.31.03-.08.64-1.01.69-1.06.05-.05.63-.46.68-.56.05-.1.15-.65.15-.71s-.01-.3-.08-.34c-.06-.04-2.1-1.38-2.17-1.41s-.73-.08-.81-.09c-.08-.01-1.07-.61-1.17-.65-.1-.04-.96-.19-.98-.18-.02.01-.35.14-.38.19-.03.05-.37.89-.4.93-.02.04-.72.81-.81.85-.09.04-.29.11-.39.11-.1,0-.61-.24-.7-.38-.09-.14-.59-.77-.6-.8-.01-.03-.19-.44-.2-.57,0-.13-.03-.65-.05-.69-.02-.04-.27-.36-.31-.47-.03-.11-.26-.74-.27-.79s.49-.89.45-1.07c-.03-.19-.28-.68-.33-.77-.06-.09-.19-1.32-.22-1.39-.02-.07-.24-.91-.28-.96-.04-.05-.3-.28-.36-.34s-.58-.79-.62-.82c-.03-.03-.88-.81-.96-.85-.08-.04-1.03-.59-1.06-.66-.03-.07-.22-.34-.24-.37-.03-.03-.67-.32-.78-.39-.12-.06-.73-.56-.78-.63-.06-.07-.19-.22-.21-.31s-.15-.44-.17-.51c-.02-.08-.45-.79-.57-.86-.12-.06-.62-.17-.69-.21-.07-.04-.29-.42-.31-.49-.01-.07-.08-.41-.17-.54-.09-.14-.69-.39-.81-.54-.12-.15-.45-.59-.59-.81-.14-.23-1.42-1.11-1.42-1.29s.03-1.09,0-1.3c-.04-.21-.33-.52-.4-.58-.08-.06-.48-.27-.54-.36s-.18-.36-.23-.51c-.05-.15-.04-.41,0-.55.04-.14.35-.55.33-.68-.01-.13-1.12-1.98-1.1-2.19.01-.21.03-.38.01-.58-.01-.2-.3-1.26-.31-1.44,0-.18-.03-.92-.03-.96s.11-1.19.12-1.24c0-.06.2-.34.22-.41.02-.07-.08-.29-.07-.34,0-.05.49-1.42.51-1.47.02-.05.55-.69.53-.72s-.19-.15-.26-.14c-.06.01-.26.17-.28.17s-.06-.15-.09-.16c-.03-.01-.28,0-.31-.04-.02-.04-.1-.2-.12-.24-.02-.04-.47-.26-.47-.29s.12-.3.08-.38c-.04-.08-.22-.16-.21-.2s.12-.11.12-.18.02-.13-.01-.14c-.03-.01-.33-.02-.4-.05s-.3-.09-.33-.15c-.03-.06-.25-.55-.3-.6-.05-.05-.35-.23-.36-.31-.01-.08-.01-.48-.04-.5-.03-.02-.88-.35-.92-.39-.04-.04-.12-.54-.15-.61-.03-.08-.36-.31-.4-.35-.03-.04-.17-.24-.17-.24l-7.86.29-9.14.2-8.14.11h-12.16l-6.83-.3-3.67-.13-5.14-.34L.24,0S0,.19,0,.34c0,.15.05.69.13.74.08.06.82.26.89.2.07-.06.1-.48.15-.54.04-.06.17-.16.27-.13.1.03.19.25.22.34.03.09.01.5-.04.55-.06.05-.35.19-.35.21s.03.29.03.29c0,0-.3.29-.29.35,0,.06.53.71.53.76s-.05.44-.04.49c0,.05.24.43.26.58.02.15.04.54.07.57.03.04.21.3.22.36,0,.06,0,.19-.05.24-.04.04-.46.29-.47.31,0,.02.01.2.06.21.04.01.52-.14.59-.11.07.03.37.28.44.29.06,0,.31.04.3.06,0,.02.19.22.19.26,0,.04-.1.28-.09.34,0,.06.02.14.12.19s.94.31.97.36c.03.05.15.39.15.44s-.2.61-.17.66c.03.05.35.47.38.48.02,0,.31.21.31.24s.12.47.17.5c.05.03.26,0,.35.15s.07.29.05.34c-.02.04-.2.31-.2.31,0,0-.19.97-.18,1.01.01.04.27.32.33.34.06.01.57-.06.64,0,.07.06.58.63.58.63,0,0,.11.29.15.32.03.04.51.36.53.4.02.04.22.34.26.36.04.02.55.14.58.19.03.04.12.25.11.31-.01.06-.07.37-.03.4.03.03.33.15.35.15s.35-.16.41-.14c.06.02.12,0,.13.1s.09.45.09.45c0,0,.53.32.56.32s.87.04.89,0c.02-.04.15-.14.17-.21.01-.07.04-.18.06-.24.01-.06.12-.21.23-.22.1-.01.84.01.87.02.03,0,.33.19.33.23s.03.19.01.25c-.02.06-.15.29-.15.33,0,.04.03.2.07.27.04.07.19.16.27.19.08.03.37.08.39.14.02.06.13.44.12.46,0,.03-.08.26-.17.32-.1.06-.55.09-.6.15-.06.06-.1.2-.08.25.02.05.23.23.28.24.06.01.28.05.32,0,.04-.05.12-.19.22-.19s.16.01.16.05.06.56.05.59c0,.03-.37.33-.41.33s-.49-.11-.49-.11l-.42-.34s-.14,0-.17.09c-.03.09-.11.96-.13,1.02-.02.06-.13.18-.17.2-.04.02-.47.12-.49.13-.02,0-.21.17-.28.29-.08.12-.33.66-.33.68s.11.49.1.55c0,.06-.06.16-.12.22-.07.06-.3.2-.35.2s-.41-.06-.41-.06c0,0-.18.16-.19.26s.03.44.07.51c.03.07.22.31.26.37.04.06.48.44.51.48.03.04.19.76.24.79s.76.4.78.45c.02.05.15.41.18.45s.43.34.43.37-.03.22.02.27c.05.05.12.16.19.16s.5-.12.53-.11c.03,0,.08-.01.11.11.03.13.1.26.06.31-.05.05-.27.26-.3.34-.03.09-.07.51-.05.65.02.14.15.5.18.54.03.04.43.38.52.45.09.07.26.19.31.29.05.09.12.32.11.39,0,.06-.19.45-.12.51.07.06.26.21.29.21.03,0,.43.02.47.07.03.05.25.39.29.45.04.06.2.23.23.24.03.01.6.05.66.04.06-.01.24-.17.27-.18.03,0,.31.02.34.05.03.03.06.15.06.2s.1.26.19.29c.1.02.65-.15.7-.08.05.07.17.21.17.26s-.24.53-.24.6c0,.07-.1,2.88-.1,2.88l-.17,5.68-.17,5.73-.25,8.51-.24,7.89-.26,9-.24,9.18-.14,4.98,4.37.14,7.09.15,5.66.12,4.89.06,7.34.07h17.57l8.09-.05,4.8-.08,7.09-.11,3.83-.05s-.14.18-.08.29c.06.11.21.19.22.21.01.02.18.58.18.64s-.2.3-.12.35.46.37.52.37.44-.02.51.09c.08.11.24.31.22.39-.01.09-.05.38-.05.44s-.15.19-.15.26-.04.45-.01.5.2.19.21.3c.01.11.02.21-.04.3-.06.09-.17.35-.23.41-.06.06-.41.14-.49.25-.08.11-.19.39-.19.41s.05.19,0,.24c-.04.06-.91.51-.92.53,0,.02-.27.35-.3.38-.03.03-.19.06-.22.12-.03.06-.3.94-.3.94,0,0-.49.4-.53.41-.04.01-.31,0-.32.07-.01.06-.09.27-.12.31-.03.04-.26.17-.25.21,0,.04,0,.3-.02.32-.02.02-.22.09-.23.2-.01.11-.03.25-.06.34-.03.09-.53,1.06-.53,1.06l6.73-.22,3.73-.13s.49-.66.51-.73c.01-.07.16-1.07.17-1.11.01-.04.22-.22.26-.25.04-.03.71-.29.74-.33.03-.04.25-.49.25-.53s-.15-.3-.17-.34c-.02-.04-1.55-1.4-1.56-1.44,0-.04-.05-.23-.02-.27.03-.04.35-.19.42-.19s.89.19.99.19c.1,0,.92-.22.92-.22,0,0,.13-.09.13-.14s-.03-.35-.06-.39c-.03-.04-.88-.49-.9-.51-.02-.02-.28-.43-.28-.47s-.02-.16.04-.21c.06-.04.15-.11.22-.13.07-.01,1.01.04,1.03.03.02,0,.24-.34.27-.39.03-.04-.03-.59-.03-.61,0-.02-.48-1.02-.48-1.04s.28-.25.31-.33c.03-.08.1-.28.1-.34s-.03-.26-.07-.3c-.03-.04-.56-.63-.57-.7-.01-.07-.19-.55-.19-.59s.1-.39.14-.43c.03-.04.35-.19.42-.19s.65.05.72.09c.06.04.25.29.27.37.02.08.08.46.03.59-.04.12-.19.46-.24.64-.05.18-.08.46-.05.54.03.07.25.28.31.27.05,0,.44-.23.46-.25.02-.02.4-.53.42-.64.02-.11.55-2.36.56-2.38.01-.03.28-.31.32-.33.04-.01.41.01.48.06.07.05.78,1.04.88,1.09.1.05.22.16.32.14.1-.01.47-.11.49-.13.01-.02.19-.28.22-.36.03-.08.1-.85.13-.94.03-.09.49-.5.48-.62,0-.12-.1-.44-.15-.52-.04-.08-.42-.54-.42-.62s.08-.51.09-.56c.01-.05.19-.24.27-.26.08-.02.71.11.74.09.03-.03.1-.22.1-.26s-.11-.41-.14-.42c-.03-.01-.45-.1-.48-.12-.03-.02-.34-.34-.34-.41s-.03-.48.05-.51c.08-.04.4-.16.47-.22Z"/>
  </g>
</svg>