<svg xmlns="http://www.w3.org/2000/svg" data-name="Layer 2" viewBox="0 0 102.2 95.2"><path d="m101.6 77.2.2-.2.1-1 .3-.8v-.5l-.4-.2h-.2l-.5.2h-.3l-.2-1-.5-.3-.3-.5h-.9l.1.3.5.3.2.3-.1.5-.3.1h-.2l-.3-.4-1.1-.7v-1l-.3-.5-.4-.3-.7-1.7V69h-.5l-.3-.4v-.7l.4-.5.8-.3.2-.7-.3-1.2-.8-1-.5-1.1v-.7l.5-.1.1-.2-.1-.3-.5-.6v-1l-.3-.3-1-.3-.4-.5-.7-.2v-.7l-.1-.3-.7-.5-.5-.6-.7-.2-.2-.3s-.6-.5-.7-.4l-.8.6H89l-.4-.1-.4-1 .4-.5v-.2l-1-.1-.8-.8-.8-.5-.3-.6-.8-.3q-.5-.2-.7-.5l-.4-.5-.5-.8-.8-.5-.5-1-.2-.8v-.7l.2-1.1.2-.4.7-.8.1-.3.2-1.3.4-1 .3-.5.5-.4.1-.5v-1l-.4-.9v-.3l.7-1 .7-.6.1-.7v-.3L83.2 35h-.8l-1.2-.7-1-.2-.4.2-.4 1-.8.8-.4.1s-.6-.2-.7-.4L77 35l-.2-.5v-.7l-.3-.5-.3-.8s.5-.9.4-1l-.3-.8-.2-1.4-.3-1-.3-.3-.7-.8s-.8-.9-1-.9l-1-.7-.2-.3-.8-.4-.8-.6-.2-.4-.2-.5-.5-.8-.7-.2-.3-.5-.2-.6-.8-.5-.6-.8c-.1-.2-1.4-1.1-1.4-1.3v-1.3l-.4-.6-.6-.3-.2-.5v-.6c0-.1.4-.5.3-.7l-1-2.2V12l-.4-1.5v-1l.1-1.2.2-.4v-.3l.5-1.5.5-.7-.2-.2-.3.2-.1-.2h-.3L64 5l-.5-.3v-.4l-.1-.2v-.3h-.3l-.4-.2-.3-.6-.3-.3v-.5l-1-.4-.1-.6-.4-.4-.2-.2-7.9.3-9.1.2H23.2L16.4 1 12.7.7 7.6.4.2 0 0 .3l.1.8 1 .2V.7h.3l.3.3v.5l-.4.2V2l-.3.4.5.7v.5l.3.6v.6l.3.3-.1.3-.5.3v.2l.7-.1.4.3H3l.2.3v.5l1 .4.2.4-.2.7.4.4.3.3.2.5.3.1v.4l-.2.3-.1 1 .3.3H6l.6.7.2.3.5.4.3.3.5.2.1.3v.4l.4.2.4-.1.1.5.6.3h.9l.1-.2v-.2l.3-.2h.9l.3.2v.3l-.1.3v.3l.3.1.4.2.1.4-.2.4-.5.1-.1.3.3.2h.3l.2-.2h.2v.6l-.4.4-.5-.1-.4-.4-.2.1-.1 1-.2.2-.5.2-.3.3-.3.6.1.6-.1.2-.4.2h-.4l-.2.2.1.5.3.4.5.5.2.8.8.4.2.5.4.3v.3l.2.2.5-.2.2.2v.3l-.3.3v.7l.1.5.6.4.3.3v.9l.3.2.4.1.5.7h.7l.3-.1h.3v.2l.3.3h.7l.1.2-.2.6-.1 2.9-.2 5.6-.1 5.8-.3 8.5-.2 7.9-.3 9-.2 9.2-.2 5h4.4l7 .2 5.7.2H75l7.1-.2H86l-.1.3.2.2.2.6-.1.4q.2.4.5.4h.5l.2.4v.5l-.2.2v.5l.2.3v.3l-.3.4-.5.3-.1.4v.2l-1 .6-.3.3-.2.2-.3 1-.5.3h-.3l-.2.4-.2.2v.3l-.3.2v.4l-.5 1 6.7-.2H93l.5-.8.5-1.3.7-.3.2-.6-.1-.3-1.6-1.5V90l.4-.2 1 .2 1-.2V89l-.9-.5-.3-.5h1.3l.3-.5v-.6l-.5-1 .3-.3v-.7l-.6-.7-.2-.6.2-.4.4-.2.7.1.3.4v.6l-.2.6v.6l.2.2.5-.2.4-.7 1-2.7h.4l.9 1.2.3.1.5-.1.2-.4.1-1 .5-.5-.1-.6-.5-.6.1-.5.3-.3h.7l.1-.2-.1-.4-.5-.1-.3-.4v-.5z" data-name="Ñëîé 1" style="fill:#172d35"/></svg>