<svg xmlns="http://www.w3.org/2000/svg" id="Layer_2" data-name="Layer 2" viewBox="0 0 57.1 95.3"><defs><style>.cls-1{fill:#172d35}</style></defs><g id="_Ñëîé_1" data-name="Ñëîé 1"><path d="M1.6 73.3H0q-.2 0 0 .3c0 .2.5.5.6.7l.2.6-.4.6-.1.5c0 .2 1 1.2 1 1.3l-.3.6-1 .6 13.2.2 13.4.2h4.5l.1.3v.4l-.4.5v.3h.1l-.2.3v.3h-.2v.3h-.1l.1.5-.3.1v.6H30l-.3.4.2.1-.4.2.2.9-.2.4h-.2v.9l-.1.2.3.1.2.4-.2.3.2.3v.3h.2v.3h.3l-.2.3.1.2.3.2.1.4h.2v.3q.4 0 .5.3l.7.8v.9l.5.9.4.4v.4l-.2.3v.3l.2.5v.1l.3.3v.3l.3.4.3.3h.7l.5.2h.2l.1-.2h.3v.4q.2 0 .4-.4v-.4l.4-.4v-.5l.5-.3q.3-.1.4-.4l.4-.2.2-.4-.2-.4H37l.1-.3.6-.3h.4v.1h.7l-.2.3v.1h.6v.2h-.5l-.3.3s-.2.4 0 .4l1.5-.5 1.3-.5.4-.2.1.2.2-.3.6-.2 1.3-.2h1.7v-.4l-.6-.1h-.2v-.1l-.4.1h-.9v-.4l.1.1.1.1h.7V90l1 .2h.1l.3-.2.3.2h-.4l.3.3.5.3.6.2h-.6l.9.7h1l.4-.2h.5l.4-.4.2-.5v.7l.2-.2v.2h.2v.4h.7l.2.2.2-.2v.4q.4.2.6.1l.4-.2.1-.5h.5l.2.2.1-.2-.2-.6.2-.1-.3-5.8-.5-10.6-.6-11.1v-2.2l1-10.7 1.1-14 1.2-13 1.3-14.6L57 2l-.4-.2-.5-.5-.6-1.3H22.7l.2.5.7.5v.7l-.1.4-.8.4v.4h-.4l-.3-.2s-.6.1-.6.3l-.2.3s-.2.3-.2 0l-.4-1-.4-.3-.2.2-.1.4.4.7-.2.6.4.8-.1.4-.6.2-.6-.2.4-.5-.2-.8H19v1l-.4.3v.4l.4.2c.3.1 1 0 1 .2q.3 0 .2.3c0 .2-.8.9-.8.9h-.5l-.3-.3.3-.5V6l-.3-.1v.4c0 .1-.4.4-.3.5l.2 1 .1.4.5.3v.4q-.5 0-.7.4l-.3.6v.5l.2.8q0 .3-.2.4l-1.1.5-.1.6v.5l-.2.2-.3-.4.2-.8-.5.2s-.5-.2-.6-.1q-.2 0-.2.3l.3.5-.2.7-.1.3-.6-.3-.4.3-.2 1-.1.2h-.5l-.6-.6h-.2v.5l.4.6.5.1h.7l.3.2q0 .3-.2.5l-.5.1-1-.5-.5.2-.2.3.2.4.6.5h.5v.3l-.3 1h-.6l-.7.5.2.6v.2h-.6s0-.5-.2-.5H11l-.6-.4-.2.3q0 .3.3.5t.7.5v.5l-.5.8-.1.4.5 1 .6.3v.3l-.4.3-.5-.2-.4-.4-.5.4s-.2-.4-.4-.3l-.2.4.1 1 .6.2s.5-.4.6-.3l.4.5v.4l-.8.3h-.3l-.6-.4-.4-.6s-.6-.2-.7 0l-.1.5c0 .2 1 1 1 1l.1.8-.3.4-.6-.1-.3-.3s-.3.2-.3.4l.3.6c0 .2.6.5.6.6l-.2.6-.7.5v.3h.6l.4-.3v-.8l.3-.1.5.3q.2.4.1.6 0 .3-.3.4l-1 .5v.4l.8.2.7-.3.2-1q0-.2.2-.2t.4.3q0 .4-.3.6l-1 1.4v.7c0 .2 0 .8.2.9l.4.3.4-.7q.2-.2.4 0l-.2.8-.6.5v1.5l-.4.2-1-.3q-.2 0-.3.3v.5l1.1.7v.5l-.5.4-.2.6-.5.7-.1.6.5.4.6-.1v-1l.2-.2-.2-.2s.3-.3.4-.2.5.2.5.4l.1 1-.2 1-.7.4-.5.5v.8l-.1.4.3.2 1.2.3.2.2v.3l-1.5 1.3v.4l.3.5h.4l.8-.3.4-.6h.3l.2.5c0 .2-.5.8-.6.8l-.6.4.1.4 1.2.6.1.4h-.6l-.6-.5-.3-.6q-.1-.2-.3-.1-.4.3-.3.8v.6l.5.4.7.4.8-.2q.2 0 .3.3v.4q-.4.1-.5.6c0 .1-.3.4 0 .5l1.4.3.5-.6-.1.6-.4.8-.5.3q-.2-.2-.5-.2l-.1.4v.9l-.2.5-.3-.1-.1-.5h-.5l-.2.3q-.2-.2-.5-.2c-.3 0-.1.3-.3.3h-.4q-.3 0-.4.2l-.2.9.2.4.7.2.5-.3.4.2.2-.5-.1-.5.4.4s.5-.2.5 0l-.1.5-.4.3-.2.4-.7.4v.6l-.5-.2-.5-.5-.3.3.1.4 1 .3.1.6-.1.2-1.2.2-.4.7v.6l-.4.1v.4c-.2 0-1 .6-1 .6l.2.3q.2 0 .2.3-.1.4-.3.4-.3 0-.3-.2l-.1-.7h-.3l-.4.1-.6 1.5q-.2.1 0 .2.5.2.8 0l.6-.2q.3 0 .3.2l-.1.3H4.6l-.3.7V66l-.4.4h-.4L3 66l-.4-.2-.3.5c0 .1.3.6.5.6l1-.2.3.4-.7.6-1 .4c-.1 0 0 1.6 0 1.6l.6.8-.2.4-.3.3-.3-.1-.4-.8c0-.1 0-.5-.1-.4q-.3 0-.5.4c-.2.4.2.7.2.7l.3-.1v.4c0 .2.5.7.5 1v.5z" class="cls-1"/><path d="M42 94h-1.3l.2.2h.8l-.2.2h.2v.5l.4-.5.3-.5-.1-.2H42c0 .1.3.3 0 .3m2.4.3-.9.1.2.2.4-.1zm.6-.2.5-.2-.3-.2zm.3-3.1 1 .5-.5-.5zm4.1 3.2 1.3.1q.2 0 .3-.2h-1l-1.8-.4-.2-.1-.8.2.2.1h.6zm.8-1.6h-.3l.4.3h.1zm2.7 1.7-.7.2-.6-.2v.2l.5.2 1.2-.2zm-.3-2.1h.3z" class="cls-1"/></g></svg>