<?xml version="1.0" encoding="UTF-8"?>
<svg id="Layer_2" data-name="Layer 2" xmlns="http://www.w3.org/2000/svg" viewBox="0 0 57.1 95.25">
  <defs>
    <style>
      .cls-1 {
        fill: #172d35;
      }
    </style>
  </defs>
  <g id="_Ñëîé_1" data-name="Ñëîé 1">
    <g>
      <path class="cls-1" d="M1.55,73.27c-.09,0-1.36-.02-1.43,0-.07.02-.18.17-.09.35.09.18.59.51.66.68.07.17.23.37.16.59-.07.22-.32.51-.37.64-.05.13-.16.33-.11.5.05.17.98,1.19.98,1.25s-.13.59-.23.62c-.11.04-.95.59-.95.59l13.17.24,13.33.15,4.19.07s.32.04.37,0c.05-.04.11.11.09.22-.02.11-.04.31-.04.31,0,0,.11.06.04.15s-.43.5-.43.5v.31h.14l-.27.29.05.22h-.25l.09.33s-.18.04-.16.09c.02.06.2.31.14.39-.05.07-.3.09-.32.15-.02.06.05.59.05.59,0,0-.27.02-.25,0,.02-.02-.27.39-.27.39l.14.15s-.39.09-.37.18c.02.09.14.77.14.84s-.18.4-.18.4c0,0-.21.04-.21.09s-.02.24-.02.24c0,0,.12.02.14.11.02.09-.07.51-.07.51l-.14.18s.23-.04.32.11c.09.15.25.35.23.4-.02.06-.2.29-.2.29,0,0,.18.24.2.31.02.07,0,.31,0,.31,0,0,.16-.13.16,0s.04.29.04.29l.23.07s-.23.17-.18.22c.05.06.09.11.16.17.07.06.25.22.25.22l.16.44h.14s0,.17.09.24c.09.07.39.22.46.29.07.07.66.83.66.83,0,0,.07.55.07.61s-.18.11-.07.26c.11.15.37.86.48.94.11.07.43.4.43.4l-.02.39s-.18.18-.18.35.07.17.09.28c.02.11.11.37.11.44s-.07.13,0,.18c.07.05.25.15.25.26s.05.26.07.31c.02.06.16.22.25.35.09.13.27.33.32.37.05.04.07,0,.23,0s.46-.11.46-.11l.09.13s.3.09.41.11c.11.02.23.04.25,0,.02-.04.02-.18.11-.18h.23c.05,0,.05.2.05.2,0,0-.14.18-.05.18s.46-.15.45-.33c-.02-.18-.12-.29-.09-.4l.04-.11.45-.31-.09-.28s-.09-.13,0-.18c.09-.06.5-.26.62-.31.12-.06.25-.31.37-.39.12-.07.37-.28.43-.29.05-.02.14-.29.13-.35-.02-.06-.2-.4-.2-.4,0,0-.21.07-.32.07s-.32-.04-.32-.09-.04-.18.11-.28c.14-.09.41-.29.54-.31.13-.02.41-.06.41-.06,0,0-.02.2.04.2s.05-.02.2-.04c.14-.02.5.09.5.09l-.27.17s-.02.15.09.15.55.07.55.07l-.04.15-.36-.07-.11.13-.27.2s-.2.39.02.4c.21.02,1.23-.37,1.46-.46.23-.09,1.27-.46,1.3-.51.04-.06.37-.31.39-.26s.04.29.12.24c.09-.06.09-.2.18-.28.09-.07.46-.17.62-.2.16-.04,1.23-.18,1.28-.2.05-.02.68-.09.68-.09l1.09.02s-.04-.29-.12-.31c-.09-.02-.59-.17-.59-.17l-.11.07-.14-.17s-.16.15-.27.15-.68-.04-.68-.04l-.29.09-.04-.42.2.06.11.11s.05.02.18-.02c.13-.04.46-.04.46-.04,0,0-.04-.15.07-.15s.8.2.86.2.23-.09.23-.09c0,0,.21-.09.27-.09s.29.17.29.17l-.37.02s.14.13.25.26c.11.13.48.33.54.33s.55.17.55.17l-.12.09-.46-.11s.73.57.91.7c.18.13.87.17.93.13.05-.04.32-.26.48-.31.16-.06.39-.02.52-.06.12-.04.39-.28.39-.28l.18-.5-.02.66.18-.15.04.15s.21-.13.23-.07c.02.06-.13.15-.11.22.02.07.12.26.12.26,0,0,.57-.06.66,0,.09.06.21.17.21.17l.18-.13s-.04.17.09.31c.13.15.39.24.55.17.16-.07.32-.2.36-.26s.16-.5.16-.5l.45-.04.18.28.16-.17-.23-.66.16-.09-.23-5.78-.5-10.63-.59-11.07-.12-2.17.98-10.74,1.23-13.95,1.21-13.09,1.27-14.58.62-6.87s-.37-.17-.43-.22c-.05-.06-.45-.39-.5-.5-.05-.11-.64-1.29-.64-1.29l-11.01.07h-7.53l-9.5-.04-4.77-.04s.18.46.23.5c.05.04.71.48.71.48,0,0,.05.61.04.7-.02.09-.16.39-.16.39,0,0-.82.33-.82.4s.12.42,0,.48c-.13.05-.32,0-.32,0,0,0-.29-.28-.34-.26-.05.02-.57.16-.62.28-.05.12-.21.32-.21.32,0,0-.14.28-.21,0s-.29-.95-.34-1.01c-.05-.06-.41-.26-.41-.26,0,0-.2.06-.25.2-.05.15-.14.28-.09.39.05.11.41.66.41.66,0,0-.2.5-.18.61.02.11.39.79.37.88-.02.09.02.24-.11.31-.12.07-.52.22-.52.22,0,0-.57-.11-.59-.2-.02-.09.32-.37.32-.5s-.09-.7-.18-.73c-.09-.04-.25-.13-.34-.02-.09.11-.13.44-.09.59.04.15.03.29-.01.35-.04.06-.27.15-.33.29-.05.15-.05.28,0,.4.05.13.18.2.43.29.25.09.98.04,1.03.13.05.09.18.2.11.35-.07.15-.79.86-.79.86,0,0-.43-.04-.48,0-.05.04-.27-.24-.27-.24l.29-.55-.09-.33s-.29-.15-.27-.09c.02.05.05.26,0,.4-.05.15-.35.44-.32.55s.16.94.21,1.06c.05.13.04.24.16.31.12.07.45.18.46.29.02.11.05.29-.05.39-.11.09-.59.22-.62.39-.04.17-.29.46-.29.61s-.02.37,0,.5c.02.13.14.7.14.86s.02.33-.15.4c-.17.07-1.13.33-1.13.42s-.11.51-.09.62c.02.11,0,.57,0,.57,0,0-.09.17-.19.11-.11-.05-.29-.31-.27-.37.02-.06.21-.77.21-.77,0,0-.54.15-.59.15s-.5-.13-.6-.11c-.1.02-.22.29-.19.35.04.06.36.4.37.48.02.07-.22.66-.19.73.03.07-.19.33-.19.33,0,0-.42-.39-.55-.35-.13.04-.37.17-.43.35-.05.18-.12.88-.14.95-.02.07-.09.24-.14.24h-.46l-.62-.62s-.25-.09-.25.07-.05.35,0,.42c.05.07.29.46.45.55s.41.18.5.17c.09-.02.52-.17.66-.07.14.09.32.2.34.29.02.09.02.33-.18.42-.2.09-.39.18-.5.18s-.87-.59-1.04-.55c-.16.04-.41.15-.46.2-.05.06-.21.33-.2.35.02.02.05.29.14.39.09.09.5.5.61.51.11.02.52-.11.54,0,.02.11.05.15.02.29-.04.15-.3.9-.3.9,0,0-.55.02-.66.11-.11.09-.68.37-.66.44s.2.5.2.57-.07.26-.07.26h-.52s-.05-.53-.21-.53-.39.11-.45.07c-.05-.04-.54-.42-.54-.42,0,0-.2.09-.2.26s.13.35.27.48c.14.13.59.37.66.55.07.18.09.4.04.51-.05.11-.54.62-.54.73s-.09.35-.09.42.54.88.57.94c.04.06.52.29.54.4.02.11.12.15.02.28-.11.13-.39.29-.39.29,0,0-.41-.17-.5-.2-.09-.04-.36-.39-.45-.35-.09.04-.45.33-.45.33,0,0-.23-.33-.39-.28-.16.06-.23.24-.23.4s.09.99.14,1.05c.05.06.46.13.54.11.07-.02.52-.37.62-.24.11.13.36.46.36.51s0,.4-.05.42c-.05.02-.66.29-.66.29,0,0-.2-.02-.37-.11-.18-.09-.57-.37-.57-.37l-.45-.57s-.55-.2-.62-.06c-.07.15-.2.51-.14.62.05.11.98.92,1.02,1.03.04.11.09.68.09.73s-.29.37-.34.37-.55-.09-.55-.09l-.32-.24s-.25.15-.25.33.14.5.23.64c.09.15.61.48.61.57s-.16.64-.21.66c-.05.02-.7.46-.7.46l.09.28s.46.09.52.09.41-.31.45-.42c.04-.11.02-.68.05-.73.04-.06.12-.15.18-.13.05.02.46.18.55.35.09.17.2.42.11.59-.09.17-.16.24-.3.35-.14.11-1.05.37-1.07.48-.02.11.04.31.09.39.05.07.54.22.71.22s.7-.24.73-.31c.04-.07.18-.9.2-.97.02-.07.02-.26.18-.2.16.06.39.15.39.28s-.09.46-.21.61c-.12.15-1.11,1.3-1.14,1.43s-.05.62,0,.73c.05.11.18.75.25.81.07.06.41.39.41.39,0,0,.32-.73.39-.79.07-.06.41-.11.45.02.04.13-.2.79-.25.84-.05.06-.52.37-.54.46-.02.09,0,1.47,0,1.52s-.25.24-.41.24-.95-.37-1-.35c-.05.02-.27.13-.34.28-.07.15-.02.48.04.51.05.04,1.02.62,1.09.73.07.11.05.44,0,.53-.05.09-.37.18-.45.33-.07.15-.2.53-.23.59-.04.06-.54.7-.54.7,0,0-.18.48-.12.61.05.13.52.46.52.46,0,0,.61-.11.62-.17.02-.06.02-.84.02-.84l.16-.24-.13-.13s.23-.35.36-.29.45.29.48.46c.04.17.14.97.14.97l-.27,1.08s-.61.29-.66.33c-.05.04-.45.48-.46.55-.02.07-.05.35-.05.4s.02.4.02.4l-.11.31s.14.28.27.29c.12.02,1.18.22,1.25.28s.18.13.2.2c.02.07.07.2-.02.28-.09.07-1.5,1.23-1.52,1.32-.02.09-.02.24.02.33s.29.59.29.59c0,0,.29.06.41,0,.12-.06.77-.26.82-.31.05-.06.43-.64.43-.64,0,0,.18-.07.23.06.05.13.18.26.18.42s-.48.81-.59.86c-.11.06-.55.33-.55.33,0,0,.05.35.13.39.07.04,1.09.51,1.12.61s.14.39.14.39h-.62s-.48-.33-.59-.46c-.11-.13-.25-.59-.34-.62-.09-.04-.11-.29-.23-.08s-.39.52-.34.78c.05.26.04.55.09.59.05.04.45.48.45.48,0,0,.45.33.68.33s.68-.24.77-.18c.09.06.36.09.36.28s-.05.39-.12.44c-.07.06-.43.4-.46.55-.04.15-.25.39.09.51.34.13,1.39.31,1.39.31,0,0,.45-.68.48-.61.04.07-.07.5-.13.61-.05.11-.43.77-.43.77,0,0-.43.35-.5.33-.07-.02-.36-.26-.45-.2-.09.06-.14.13-.13.42.02.29.05.75.04.9-.02.15-.16.51-.21.51s-.23-.02-.27-.11c-.04-.09-.02-.51-.14-.51s-.46-.07-.46-.07c0,0-.05.37-.2.35-.14-.02-.46-.26-.5-.17s-.16.28-.3.28-.34-.07-.45-.02c-.11.06-.43.13-.43.26s-.21.68-.2.83c.02.15.14.39.25.46.11.07.73.15.73.15,0,0,.37-.26.46-.24.09.02.43.13.43.13,0,0,.2-.37.16-.46-.04-.09-.21-.53-.11-.46.11.07.36.33.41.33s.48-.15.48,0-.04.48-.11.57c-.07.09-.36.13-.39.22s-.11.33-.14.4-.75.4-.75.4v.62s-.45-.09-.5-.15c-.05-.05-.39-.51-.45-.51s-.32.17-.32.31-.02.35.14.35.86.2.96.29c.11.09.14.51.11.59-.04.07,0,.26-.16.28-.16.02-1.12.09-1.16.17-.04.07-.41.53-.41.7s.05.59.05.59c0,0-.37.07-.39.13-.02.06-.05.28-.14.33-.09.06-.86.61-.84.66.02.06.09.22.14.29.05.07.29.17.2.33-.09.17-.32.35-.34.35s-.3-.06-.3-.18-.05-.73-.11-.73-.27-.02-.27-.02c0,0-.34.02-.41.17-.07.15-.59,1.49-.59,1.49,0,0-.2.2,0,.2s.68.09.82,0c.14-.09.43-.2.59-.18.16.02.34,0,.34.13s-.07.33-.14.37c-.07.04-1.12-.11-1.18-.11s-.54.05-.59.12c-.05.07-.29.51-.3.64-.02.13-.05,1.34-.09,1.49-.04.15-.29.44-.34.44s-.3.11-.41,0c-.11-.11-.46-.31-.52-.37-.05-.06-.36-.29-.36-.29,0,0-.3.33-.29.5.02.17.32.64.5.66.18.02,1-.17,1.05-.17s.27.15.25.31c-.02.17-.62.62-.68.64-.05.02-1.07.29-1.12.37-.05.07.05,1.6.09,1.65.04.06.55.77.55.77,0,0-.09.4-.11.46-.02.06-.21.22-.34.22s-.27,0-.34-.11c-.07-.11-.36-.64-.36-.77s-.02-.44-.12-.39c-.11.06-.48.24-.48.42s.18.64.18.64c0,0,.36-.13.36-.07s-.16.26-.07.46c.09.2.54.66.55.88.02.22-.02.42-.11.57-.09.15-.52.39-.61.39Z"/>
      <path class="cls-1" d="M42,93.98c-.43-.06-1.36-.07-1.32.01.04.08.18.19.27.21.09.02.7,0,.7,0l-.18.24s.23-.13.25,0c.02.13-.09.5-.09.5,0,0,.39-.35.43-.5.04-.15.29-.5.29-.55s-.09-.2-.09-.2c0,0-.05.02-.13.09-.07.07.3.26-.12.2Z"/>
      <polygon class="cls-1" points="44.41 94.31 43.51 94.44 43.69 94.62 44.14 94.47 44.41 94.31"/>
      <polygon class="cls-1" points="44.98 94.11 45.46 93.9 45.19 93.68 44.98 94.11"/>
      <path class="cls-1" d="M45.28,91.02c.05.07.93.53.93.53l-.45-.53s-.54-.07-.48,0Z"/>
      <path class="cls-1" d="M49.37,94.24s1.23.04,1.34.07.34-.2.34-.2c0,0-.91-.04-.98,0s-1.84-.42-1.84-.42l-.25-.13-.8.24.21.1s.46-.1.59-.08c.13.02,1.39.42,1.39.42Z"/>
      <polygon class="cls-1" points="50.18 92.6 49.92 92.6 50.26 92.91 50.44 92.91 50.18 92.6"/>
      <path class="cls-1" d="M52.87,94.31s-.61.09-.66.15c-.05.06-.61-.15-.61-.15v.16s.41.24.48.24,1.29-.2,1.25-.25c-.04-.05-.46-.15-.46-.15Z"/>
      <polygon class="cls-1" points="52.6 92.18 52.9 92.18 52.72 92.05 52.6 92.18"/>
    </g>
  </g>
</svg>