<svg xmlns="http://www.w3.org/2000/svg" data-name="Layer 2" viewBox="0 0 114.1 66.7"><path d="M45.2 65c0 .2.7.3.7.3L46 58l8.4.1.6-.1 20-.2 18-.5 15-.8 6.1-.4-1-16.5-1-16.7-1.3-19.4-.3-3.5-6.6.4-4.2.3-5.2.2-13.4.5-15.8.3H39.1l-12-.5-14-.5L1 0 0 12v2.3l.2.1 1 1.8h.3s.2.1.2.3v1h.5l.2.5.4.4-.1.6.2.3q.2.3 0 .5l-.4.3v.4l.3.2v.2l.1.4h.3l.2.2v.2h-.8l-.3.4.8.3.1.3s.4-.2.5 0l.5.9.4.6.4.2h.3l.9.3v.3l.2.3v.4l.4.2.2.3.4.4.2.3h.3v.6l.5.4.2 1H9l.4.5.4.3v.5l-.2.2.2.2v.3l.2.2v.2h.3l.2.3h.4l.3.4-.1.7h.4l.2-.2.1-.2h.3l.4.4-.1.7.2.4.7-.2.3.2h.3l.3-.3h.7l.4.3v.5l-.2.2v.5l-.1.5-.5.3.2.8-.4.7v.7l-.3.4v.4h-.3v.4l.2.4-.1.8H13v.6l.6.3-.1.6-.3.2-.1.2.3.2-.1.3.3.1.4.3-.1.4-.2.2c0 .2.4.6.4.6l-.2.5-.3-.2-.8.2-.5 1 .3.2v.3l.3.4v.4q.1.2 0 .4l-.6.3.2.4-.2.7h.9v.2l.2.2.2.3.5.3.2.4.7-.3.3-.8.5.1.2-.1.4-.1.1-.3.2-.1.4-.6.4-.4v-.4l.2-.2h.3v.2h.4v.2l.3.4v.4h.4l.1.1h.2l.2.4-.3 1h.5l.2.4-.2.5v.7l.3.3s-.1.7 0 .8l.5.7v.3l.8 1v.4l.2.3v.2l.2.2s.4-.2.4 0-.2.3-.1.4q.2-.2.4 0l-.1.3.3.2v.3c.1.2.2 1 0 1l-.5.2.4 1 .3.3v.2s.4-.2.5 0l.2.6v.1l1-.4 1 .7.2.4.2.6q.2 0 .3.4l.1.6-.3.5.5.5-.1.3.3.3v.6l.3.7.5.4h.4l.2.6q.4 0 .4-.3v-.8l.6-.6.5-.2.5.2h1l.7.4q0-.2.2-.2l.3.4q.3.2.5 0l.3-.7v-.5h.6q.3-.3.5-.3l.2.2h.8l.3.3.4-.2.4.1v-.2l.5.1s.1-.2.3-.2.6-.2.7 0l.5.7.2-.2.6-.1q0-.2.4-.4.6-.1.8.1h.5q.3-.2.5.1l.5-.1-.3-.2-.3-.6.3-.2v-.3h.1l.2-.5V62q0-.2.3-.2h.2l.2-.3s.2-.2.3-.1l.1.3h.4l.4.8v.4h.2l.3.3-.1.3.1.4.3.1.3.4.3.2z" data-name="Ñëîé 1" style="fill:#172d35"/></svg>