<svg xmlns="http://www.w3.org/2000/svg" id="Layer_2" data-name="Layer 2" viewBox="0 0 119.3 47.6"><defs><style>.cls-1{fill:#172d35}</style></defs><g id="_Ñëîé_1" data-name="Ñëîé 1"><path d="m3.8 21.3-.5.3H3l-.2.2-.3-.2-.5.2-.2-.3v-.2h-.3l-.8.7-.7 3.9 9.4.6v-.1l7 .1 4.5-1.2v.3h.3v-.2l.5-.2.4-.2v-.3s.1-.2.2 0l.1.1.3-.2.2.1.2-.2.7-.1.2-.3h.5l.4-.1v-.2h.4v.2q.1.2.2 0l.2-.5.5-.2.2.6.3-.2h1l13.7 1 2.9.2v.3l.1.2v.3l-.2.2v.5l.1.3 1.5-1 2 3-.2 2 13.6.4h1.5l9.5 10.1 5.4 5.8.2-.1h.3l-.3.2.2.2.2-.2 2-.6v-.2h.2l.2-.5v.3h.3l-.2.1v.2l-.2.2 1.7-.2.4-.3-.2-.4h.2l.1.2v.3h.2l-.5.2H84l1.4.4v-.1l-.2-.1v-.1l.5-.4.3-.7.3-.2v-.7l.1-.7-.1-1-.3-.8v-.3h.2l.4 1v1.1h.5l.4-1.6.2-.3-.2-.3h.3l.2-.3-.2-.3.3.1.8-1 .1-.4-.2-.1h.3l.5-.5V39l.3-.2v-.4l.2.2.9-.8-.1-.1v-.3l.2.3h.2v-.3h.3l.3-.4.5-.3.3-.2v-.2h.4l.3-.1V36l.6-.2v-.3h-.2l.4-.1v-.2l-.5-.3-.3.1-.3-.7h-.2l.4-.2.4.1.3-.2v-.3l-.5-.7v-.3l-.4.3.2-.3-.1-1 .2.7.2-.2h.5l-.4.3.3.2.1.2h.3l-.4.2h.2l.3.6.3.1-.4.1-.4.5h-.3v.4l.2-.1.1.1.1-.2.2.3h.2l.1.3h.2l.3-.1 1.2-1.2-.1-.4.2.1v.2l.6-.4v-.2l-.2-.1v-.2l-.3-.2h.2l.5.5v-.3h.3v-.6l-.2-.2v-.3l-.2-.3h.3v.3l.2-.1v.4l.1.2.3.1h-.1l-.1.3v.2h-.2l.2.2.5-.1v-.1h.3l.2-.1v-.1h.3l.4-.3h.3v-.2h.2l.4-.1 2.8.1v-.1h-.4v-.3l.2.1v-.2l-.1-.2h-.2l-.3.3q-.2 0-.2-.2l.5-.4h.5l.1-.5.1.6.3.3-.2.7h.7v-.1l-.2-.1h.1l.1-.8v-.7l.2.1.2.5h.1l.1-.2.1.3-.3.3v.1h.2v.4h.3v-.2l.1.2h.3v-.2.1h.2l-.1-.5h.2l-.2-.2h.2l-.2-.3h.2l.3-.3-.2.5v.2h.2l.4-.8-.2-.3.2.2.2-.3h.2V30l.2-.8.1.3v.3h.1v-.3h.5l.4-.5v-.1h-.3v-.3l-.2.1s-.3 0-.2-.1l.5-.2.5.2v-.2l.2-.1-.2-.1.2-.1V28l-.2-.2-.3-.7.2.3V27l-.5-.2v.3l-.3-.2.6 1v.1l-.2-.2v.1l-.7-.2.2.4h-.2v.4h-.4l.2-.2-.1-.3-.1.3h-.3l-.1.2v.4-.3l-.3-.2.1-.2-.1-.1.1-.2.3.1v-.2h.2v-.4h-.2l-.1-.2v-.3h.3l-.2-.1-.1-.4-.4-.3-.1.3h.1l.2.2h-.2l.2.2v.2l-.2-.2h-.1v-.2l-.2.4.2.1h-.1l-.1.2.2.4-.1.4h-.2v-.4l-.3.1v-.2h.2l-.1-.2h-.4l-.1.2-.1-.1-.2.1.2.6.3.3h.3l-.3.1v.1l.3.6-.3-.2v-.2h-.4l.3-.2v-.1l-.4-.3h-.2l.1-.1V28h-.1v-.3l-.4-.2-.3.2h-.2l-.2.2v.2h.2v.1h.1v.1l.2.2v.1h-.1l-.2.2.4.3-.4-.1-.1.1h-.2l.2-.2v-.4l-.2-.3h-.3l-.3.6v-.2l-.3.1-.1 1.1-.1-.4v-.3h-.2l.2-.3-.6-.4-.5.1.1.5-.2-.2-.1.5v-.9l-.5-.2v.6l-.3.3v-.7h-.1.2V28h.2l-.5-.2-.6-.6-.2-.7-.6-.8-.4.6v-.2l-.2.1-.6-.1H97l.2-.2.7.1.2-.1v-.3h.3l-.3-.4V25l-.2-.1h-.2l-.1-.2v-.2l.1.2v-.1l.2.1.4.2.3.5v.2h.2v.5l.3.2h.2L99 26l.3.3.3-.3-.1.6.4-.3-.2.4.4.1.4.4V27h.2v.5l.5.5h.3l.4-.1.1-.4h-.3V27l.1.1h.2l.2.2.5-.1V27h-.3l-.1-.1h.2v-.2l.2.2v-.4l.1.1v.2h.1v.1h.2v-.3.2l.2-.1v-.3.2l.4-.2-.2-.2h.2l.5-.2v-.3l-.1.2h-.7l.3-.2v-.3l.1.3h.2v-.2l.1.1v-.2l.1.2v-.2h.2v.2h.2v-.2h-.2v-.2h.4l.1-.4.1-.1h-.2l-.2-.4-.3.2h.1v.1h.2v.4l-.2-.2-.4.4V25l.2-.3h-.2v-.2h-.2l-.1.3v-.3l-.2.1-.1-.1-.2.1v.3h-.3v.1h-.4v.3h-.2l.2-.4h-.5l.4-.1h.2v-.1l.2.1.3-.2.1-.1v-.2l.1-.2h.1l-.1-.2h.1l.2.1-.2.2.2.1h.4l.1-.1V24l-.1-.1h-.1v.1h.4l-.1-.2h-.2q.1-.2.3 0l.3.3h.1l.1.1.2-.2v.2l.1.1v-.4l-.3-.2-.3.1.1-.2-.3-.3.4.1h.4l.4.3v-.3h-.2l-.1-.3.2.2v-.1h.3V23h-.2l.3-.2.1.1v-.3l-.1-.1-.1.2h-.3l.1-.3V22h.2l-.6-.1.2.3h-.2v.2h-.2V22h-.1l.1-.2h-.5l.3-.2h-.7v.2h.1l-.2.2v.1l.5.1-.4.1.3.3h-.4v-.1h-.6l-.2-.2h.2l.3.1h.2v-.3h-.3l.3-.1v-.3l-.3.1v-.1l.2-.1v-.2h-.3l-.4-.1v.3l-.2-.1v.3l-.2-.3.2-.1-.2-.2-.3.2v.1l-.3.1v.3l-.2-.1h-.1v.4l-.2-.4.3-.1.5-.5.5-.2-.3-.2h-.3l-.5-.1v-.1h-.3l-.2-.2v.4h-.1l-.4.1.4-.3v-.4l-.3-.2-.9-.1-.2-.3-.5.3v.6-.3L99 20v-.3l-.1-.4-1.2-.7h.2l.5.2v-.1l-.6-.6-.5-.2h.1v-.1l.3.2.5.1v.2l.8.7h.2v-.4l.2.3v.3l.2-.1h.4-.4l.1.2.3.1h.6l.2.2.3-.1v-.4l.2-.6v.7h.2l-.3.2v.2l.3.1.2.2v.1l.3.1h-.1v.2l.2-.2h.5v-.2h.1v.3h.4-.1.1l-.1-.4.3.3.1-.4v.3l.2.1h-.2l-.1.1v.2l.9.3h.2l-.1-.3-.2.2v-.2h-.1l.2-.2h-.3l.2-.2.1.1v-.2l-.2-.3h-.3v-.2h.3V19l-.2-.1-.2-.3v.1q0-.3-.1-.2l-.4.3-.1.2-.1-.1-.4-.2-.1-.4.2.4h.4v-.2h.3l.4-.2-.4-.4v.2l-.4-.1v-.3l.3.2v-.3l.1-.2v.3l.5.4h.2l-.1-.1h.2v-.2h.2v.2l.6.2v-.4.3h.2l.5-.2v-.5l.4.4-.2.2v.4l.4.3-.6-.2v.4l-.2-.3h-1.2.2v.1l.2.2v.4h.1V19h.2v-.1l.2.1v.1l.4.3v.1l-.3-.2-.2-.1-.2.3h-.2v.1l.1.2h.3v-.2l.1.2h.1l.2.3h-.2v-.2l-.3.3.3.3.1-.1h.2v.2l.1.2h.3l-.2-.3v-.2h.3v-.1l-.2-.2.2.1v-.3l.1.2v.5h.2v-.2l.2-.2-.2-.2h.3-.1v-.2h-.2l.1-.2-.2-.1.2-.2.2.3.1-.2.3.2h-.3v.1h-.1l.4.4v.4l-.2-.1.2.2v.2h.2l.1.3h-.1l-.5-.1v-.1l-.2.3h.3v.2l.2-.2h.2l.2.2V21l.1.1-.2-.5.2-.2h-.1l-.1-.2V20l.4.4h.3v.2h-.2l.1.2h.5v.1h-.3v.2h.1l.4.2.1-.2v-.7h.3l-.2.2v.2l.3.1v.2l.1.2.1-.2.2.2.3-.2.3.1v.2h-.1.2v-.1l.1-.2V21h.4l.4-.3h.2v-.2h-.2q-.1 0 0-.2l.2-.2v-.2h.1l-.1-.2h.4v.3h.2v-.5l.3-.4-.2-.2h.2v-.2l.4-.1-.1-.2h-.3v-.2h.2v-.1l.2.1.2-.4.4-.1v-.2l-.1.1v-.3l.5-.2-.3-.4h.2v-.8l.1.2h.3l-.2.2v.2h.2v.2l.1.3.4-.1.1-.2v.3l-.2.2h.6l.2-.2-.1-.2.4-.2v-.2l.2-.2-.1-.4h-.2l-.2-.2v-.3l-.2-.1.2-.4.4.2v.2l.3-.2-.1-.7-.3-.3v-.4l.2-.6v-.3l-.4-.4v-.5l-.2-.2v-.3l-.2-.1v-.3l-.3-.2v.1h-.2l.1-.3-.7-.3.2.2-.1.3h-.2l.3.1.5.3h-.6v.1l-.5-.3-.2.2.2.2v.3l.2.2.2-.2h.1l-.1.2v.3l-.3-.3-.3.1v-.5h-.2v-.2h-.3l-.2.3-.3.2v.9l-.1.5.1.7-.2 1v.6l-.2.5h-.3v-.1l-.2-.2-.1.1h-.5v-.1l-.3-.1v-.2h-.1v-.2.1h.3v.2h.6l.3.1V15h-.1l-.1-.2.1-.6-.2-.2-.2.1-.1-.2-.5-.1v-.3q.1-.2.2-.1l.3.5h.2l.1-.2v.2h.1v-.6l-.1-.5v-.3l-.5-.3V12v.3h.7v-.5l.4-.5-.1-.2-.2.2-.1-.1-.3.4-.6-.6-.2-.1h.2l.5.4.2-.1-.1-.1v-.4l.5.3.1-.2v-.2l-.6-.5h-1.4l-1.4.5-.5.4.4.2v.2h.3l-.3.1-.1-.2h-.4l-.4-.2-.2.2h-.3l.2-.2-.2-.1.1-.1-.3-.5-1.8.8-1.7.2-.3-.2-.1.2v-.2h-.2v.1l-.3.1.2-.6.4-.4V10h-.4.2l-.1-.6-.3-.3v-.6l-.3-.6V6.5l.1-.4h.2V6l.3-.5v-.2l-1-1.2h-.2l-.9-.2-.7-.2-.2-.2h.4l.8.3.2.2h.6l1 1v-.3l.1.3h.2v.6l-.5 1v1l.2.7h.2V9l.2.3.5.2.2-.3h.2l.4.7h1l.6-.3.6-.7h-.5l-.2-.4h-.3.3l.3.1h.8l.6-.1h.2l.2-.2-.5-.2-.1-.2-.3.1-1.1-1.1h-.1v-.2h.3l.5.3h.1l.1.2.2.4h.5l1.1.6h.5l.3-.1-.5-.3-.3-.6-.3-.3h-.3.2l-.1-.6.3.4.2.1V7h.2v-.2l.2.5.5.4.3.1.6-.1-.3-.2v-.1h-.2v-.2h.3v.3h.5l.4-.1-.1-.6h-.2v-.3L110 6l-.2.2.1-.3h.3l-.2-.5-.5-.2-.2-.3-.4-.2v-.1h.1l.2-.3v.4h.3l.1.1h.5l.7 1h.4l.4.7.4.2 1 .2-.1-.2h-.2l-.1-.3-.2.1v-.2l-.2-.1h-.3l.1-.1V6l.4.3.1-.4-.1-.2h-.2l.1-.2v-.6h-.1l-.1-.1h-.3l.3-.2h-.3l-.1-.2v-.2l.2.3.3-.1.1.4.3-.1.1.2h-.1v.5l.2.2h.2v.6l.6.7v.8l.4.4.6.4.1-.1-.2-.4v-.3l-.4-.5V7l-.2-.6-.4-.8V5l-.2-.1-.2-.6-.4-.7.2-.4V3l-.1-.4h-.2l-.1.2.1.2h-.2l.1.4h-.2l-.6-1h.2l.3.1v-.3h-.4l-.3-.2-.4-.9h-.5l.1-.3.1.2h.3-.1.2V.7l.2.2-.1-.6-11.6.4-.1.1-16.9.3H55.1L46.4.4 40.7.2l-4-.4-.2.2-.4.8v1L36 2v.6l-.3.3v.8l.3.4s-.8.1-.8 0l-.3-.4-.6.3-1 .7-1.7 3h-.4L31 8h-.6l-.3-.8h-.5l-.3-.2-.5.4-.3.2q0-.2-.3-.2l-.5.2h-.3l-.8.6-.8 1.4-.6.4q-.4.3-.7.3l-.6-.3v-.6L24 9l-.3-.3v-.2h-.4l-1.7 1v.6l-.4.3v.3H21l-.2-.3-.4-.1H20l-.1.4h-.3l.2.8-.2.2v.4l-.2.1-.7 1h-.2L18 13l-.6-.1-.6.3-.5.1-.3.5h-.7l-.2.2-.1.4-.6.6h-.7l-.2.3-.5.3-.7.2-.7.7h-1.1l-.3-.3-.6.2s-1.4-.2-1.5 0l-.8.5-.8.1-.3.4v.3l-.7.3h-.2l-.8.8s.2.6.1.7l-.3.4v.8z" class="cls-1"/><path d="M111.8.5h-.4l.3.4.3.1-.2.4.2.3.2-.3v.2h.3l.2.2.3-.2h-.2v-1l-.1.1-.1-.2h-.5v.2zm5.9 12.5.1.3.1-.1.1.1h.2l-.8-1.9-1.3-2.5-.4-.8-1.2-3-.9-3.4-.3-1.2h-.3v.2h.2l.1.2-.2.3.1.6.3.4-.2.1.1.3.3.1V3l.3 1v1l.3.1v.5l.3.2-.1.1.2.2.5 1.4.1.6-.1-.3v.1l.1 1.1.2.1.4-.1.2.6v.3l.2.4.4.3.5.8.2 1.2.2.3v.2z" class="cls-1"/><path d="M113.7 4.3v.5l.2-.2v-.4zm-.2.5.1.2.1-.2zm0 .3v.2l.2.1v-.2zm.4 1.1.1.5.1-.2zm1.4 3.1h.2l-.1-.1zm.7.2-.1.3-.1-.3h-.3v.3l.3.2h.2zm-2.8.9-.6.3.4.4.2-.3.4-.2v-.2zm3.8 2v-.2l-.4-.8-.2.2v-.4l-.5-.3h-.3v.2l1 1v.7l.5.2zl-.4-.3h.2zm-.1-.7.2-.2h-.2zm.4 1.5.2.1-.1-.1zm-.5-.1.3-.1zm-.5-.2.1-.2v-.1zM119 18v2.3l-.3.6V22l-.2.2-.6.1h-.2l-.5.5-.5.3-.2-.2-.3.5-.5.1v.2l2.2-.8h.8l.3-2.1.1-.8.2-2.6v-.7l-.3-2-.6-1.3h-.2l.5 1.4v.2l.2.2v.3l.2.7V18Zm-6.2 7.4.8-.5 1.4-.8.4-.2.1-.2-.5.2-.8.4-1.4.9-.3-.1v.4l-.4.4h.2zm-1.5.6-.1.4-.3.2v.4l1-1-.3-.1zm-1 1.2.1.1zm-1.7 0v.2h.1l.1-.2zm.3.4.2-.3h-.2zm-.2.2.1-.1-.1-.2zm1.7-.3.2-.4zm-.8.9.6-.8-.5.5zm-.8.9.6-.8-.3.2zm-3.7 4.6.3.6.2-.8 1-1.6.9-1.3 1.1-1.2v-.2l-1.2 1.1-.2.5-.2-.2v.4l-.1.3h-.2l.1.1-.2.2v.2l-.3.3-.1.2-.2.1-.1.3h-.1v.2l-.5 1zm-.1-1.4-.1-.2h-.3v.3h.8z" class="cls-1"/><path d="M105.3 33.7v-.2l-.5-.4-.8-.3h-.3v.1l1.1.4zm-3-1h1l-.1-.2h-.8l-.2.1h-.7l-.5.1h-.6l-2.6.7-.2.3.9-.3 1.5-.4zm-5.5 1.1v-.2l-.2.2v.1zm0 0-.1.2h.2l.3-.1zm-.2.3-.5.1-.1.2h.1zm-.9.5-1.2 1.1.6-.3.7-.6zm-1.3 1.1-.4.4-.9.4h-.2l-.2.4h-.4v.3H92l-1.5 1.6 1.8-1.5 2-1.2zM90.9 38l-.4.2.1.2.1-.1zm-.6.7.2-.2-.2-.1zm-.3.1h.2l-.1-.2zm-.2.2v.2l.2-.1zm-.2.4v.4l.4-.5zm-.4.5.1-.3-.1.1zm.1.1H89l-.2.2v.2zm-.9.8-.3.5.4-.2.1-.3s-.2-.1-.2 0" class="cls-1"/><path d="m88.3 41.2-.3.4.1.1.2-.1zm-1 2.4.7-1.7-.5.6v.3zm-1 2.7.6-1.1v-.6l.2-.6-.2.2V44l-.3.2v1l-.2.4.2.1-.1.2h-.2zm-.1.5-.2-.2h-.2l-.3.6.6.4.2-1.1zm-6.8 0-.3.4 1.1-.5h-.1zm-.6.3h.3v-.2zm-.5.1.2.1.2-.1zm28.1-21 .1.1.2-.1zm1 .5.2.1.1-.1zm-.1-5.3h-.2v.2l.5-.2zm1.2.3-.1.2.2.1.1-.1z" class="cls-1"/></g></svg>