<?xml version="1.0" encoding="UTF-8"?>
<svg id="Layer_2" data-name="Layer 2" xmlns="http://www.w3.org/2000/svg" viewBox="0 0 119.32 47.62">
  <defs>
    <style>
      .cls-1 {
        fill: #172d35;
      }
    </style>
  </defs>
  <g id="_Ñëîé_1" data-name="Ñëîé 1">
    <g>
      <path class="cls-1" d="M3.84,21.34c-.09.05-.51.29-.51.29h-.35l-.16.14s-.16-.17-.28-.15c-.12.01-.47.2-.51.15-.04-.05-.19-.26-.19-.26l-.1-.23s-.09-.08-.22-.03c-.13.05-.83.65-.85.72-.01.08-.67,3.93-.67,3.93l9.44.62v-.12s7.05.12,7.05.12l4.39-1.19.03.3s.26.05.28,0c.01-.05.04-.21.09-.24.04-.03.35-.18.45-.23.1-.05.35-.12.35-.12v-.29s.13-.2.19-.11c.06.09.17.19.17.19l.29-.21s.15.17.18.09c.03-.08.22-.23.22-.23l.64-.12.22-.29s.26.12.35.12.19-.12.19-.12l.37-.09.07-.14h.31s-.03.18.01.2.17.12.22.01c.04-.1.12-.47.23-.51.12-.04.47-.32.5-.27.03.05.19.59.19.59l.28-.14s.34.03.42.03.45-.14.57-.14,13.74,1.08,13.74,1.08l2.83.26s-.03.21-.03.26.15.07.16.15c.01.08.03.23,0,.3-.03.08-.16.1-.22.24-.06.14-.06.44-.06.48s.16.33.2.33,1.52-.99,1.52-.99l1.94,2.99-.22,1.97,13.6.44h1.55l9.47,10.08,5.43,5.76s.13-.08.2-.1c.07-.01.31,0,.31,0l-.34.21.23.25s.13-.16.2-.21c.07-.05,2.05-.59,2.05-.59v-.17s.17.04.18,0c.01-.05.14-.57.14-.57l.1.32s.2,0,.17.01c-.02.02-.17.09-.17.11,0,.02-.04.19-.04.21s-.15.15-.15.15c0,0,1.73-.19,1.75-.2.02-.01.34-.3.34-.32,0-.02-.14-.36-.14-.36,0,0,.13-.02.15.02.02.04.13.2.13.23s-.04.23-.04.23l.21.08-.48.11s.03.1.07.11c.04,0,1.37-.02,1.4-.03.03,0,1.39.35,1.39.35l.06-.13-.2-.09s-.02-.1.02-.12c.04-.02.43-.31.45-.32.02-.02.33-.68.34-.71.01-.02.23-.26.23-.26,0,0-.02-.58-.02-.62s.16-.7.17-.77c0-.07-.15-.86-.15-.92s-.28-.83-.27-.85c0-.02.07-.3.07-.3,0,0,.1-.04.12-.02.02.01.39.86.39.92s0,1.25.08,1.22c.07-.03.41-.1.42-.12,0-.02.44-1.48.44-1.48l-.07-.07s.23-.2.22-.24c0-.04-.18-.32-.18-.32,0,0,.31.05.31.01s.16-.28.16-.28c0,0-.17-.3-.14-.3s.22.11.24.08c.02-.02.81-.95.81-.95l.18-.41s-.27-.19-.24-.19.23.08.3.02c.07-.05.46-.44.46-.44,0,0,.1-.26.12-.27.03-.01.19-.1.2-.13,0-.02-.03-.41.01-.39.04.02.19.2.19.2l.91-.83s-.15-.13-.15-.16.04-.22.04-.22l.22.23s.2-.03.2-.05.07-.23.07-.23c0,0,.17.1.18.07,0-.02.28-.44.3-.47.01-.02.53-.28.53-.28,0,0-.04-.07-.01-.09.03-.02.31-.1.34-.14.04-.05.07-.17.07-.17,0,0,.23.07.27.05.04-.01.36-.2.36-.2v-.09s.62-.14.62-.16.01-.29.01-.29l-.24.07.03-.15s.36-.02.36-.05,0-.12-.01-.15c-.02-.03-.45-.29-.45-.29v-.1l-.31.16-.34-.68s-.17.05-.16.02c.01-.02.36-.26.36-.26,0,0,.36.14.39.14s.31-.19.32-.23c.01-.03.06-.26.06-.26l-.54-.71-.04-.28-.33.26.12-.32-.1-.92.24.59.22-.18s.47,0,.45.02c-.02.02-.42.29-.38.32.04.03.26.13.28.15s.12.26.12.26c0,0,.28.01.26.03-.02.01-.39.19-.39.19l.21.04.33.5.31.13s-.4.05-.42.08-.37.54-.37.54c0,0-.31,0-.31.02s-.08.32-.08.32c0,0,.2-.11.22-.11s.17.15.17.15l.09-.19s.12.28.15.28.26-.05.26-.05c0,0,.04.37.07.37s.23.06.23.06c0,0,.26-.17.27-.2.01-.02,1.23-1.22,1.23-1.22l-.14-.33.23.08-.02.15s.56-.38.57-.4-.02-.19-.02-.19l-.18-.08.06-.16-.3-.29h.18s.44.5.44.5c0,0,.12-.05.12-.07s.02-.14.02-.14c0,0,.22-.06.24-.1.02-.04.01-.51.01-.51l-.27-.21v-.35s-.17-.23-.17-.23l.27.05.1.19s.09-.11.09-.08,0,.4.01.42c0,.02.17.21.17.21l.28.09s-.15.02-.16.07c-.01.05-.06.22-.06.22,0,0,.07.14.05.17-.01.02-.24.1-.24.1l.15.15.51-.16s.02-.1.04-.11.26-.07.26-.05v.12l.26-.15.02-.1.28.02.32-.27h.34s.09-.11.09-.11c0,0-.11-.18-.09-.17s.18.14.23.14.37-.2.4-.2,2.76.14,2.76.14l.04-.17s-.36.02-.38-.02c-.01-.05-.04-.23-.04-.23,0,0,.18.12.19.1,0-.02.04-.17.04-.17,0,0-.13-.23-.16-.25-.03-.02-.17-.05-.2-.03-.03.02-.25.29-.25.29,0,0-.34-.09-.27-.16.07-.07.48-.44.5-.44s.53.11.53.08c0-.03.12-.55.12-.53,0,.02.12.56.12.56,0,0,.26.35.25.38s-.2.64-.2.64c0,0,.74.13.74.1s0-.17-.02-.18c-.02-.01-.22-.1-.22-.1l.13-.08s.15-.71.14-.76c0-.05-.13-.73-.1-.7.03.03.21.14.23.18.02.04.19.47.21.48.02,0,.1-.02.12-.05s.13-.2.13-.17.09.3.08.32-.28.23-.28.26-.02.14,0,.14c.02,0,.14,0,.15.06.01.07.05.3.05.3l.22-.04.08-.13s.09.19.11.19.2-.01.21-.04c.01-.02.08-.12.08-.12l.04.11s.08.04.09.02c.01-.02.08-.15.08-.17s-.17-.46-.17-.46l.2-.07s-.21-.18-.18-.18.2,0,.2-.04-.16-.28-.16-.28c0,0,.09.05.14.03s.25-.31.28-.31.09.03.09.08-.25.35-.25.39.09.2.09.2c0,0,.11.05.13.03.02-.02.35-.79.35-.79,0,0-.21-.31-.19-.31s.27.17.27.17c0,0,.14-.3.18-.28.04.02.2.12.2.1,0-.02-.04-.25-.04-.25l.21-.81s.12.22.12.24-.04.32-.04.32c0,0,.11.07.13.02.02-.05.04-.32.07-.29.03.03.08.06.08.06,0,0,.03-.09.06-.09s.28.05.29.02c0-.02.42-.53.42-.53,0,0,.03-.05,0-.07-.04-.01-.37,0-.37,0,0,0,.14-.22.12-.24-.01-.02-.13-.07-.13-.07l-.18.11s-.25-.08-.12-.14c.12-.06.36-.19.42-.16.06.02.55.19.55.19l-.04-.19s.2-.14.18-.15-.23-.07-.19-.08c.04,0,.28-.03.28-.07,0-.04-.01-.11-.03-.15-.01-.04-.2-.18-.22-.19s-.34-.62-.34-.62c0,0,.14-.1.14-.06s.07.29.07.29c0,0,.03-.31.01-.33-.01-.02-.5-.26-.47-.23s.12.28.08.26c-.04-.01-.38-.22-.37-.16,0,.05.57.92.57.92l-.03.18-.15-.2-.07.1-.63-.18s.2.38.18.38-.22-.09-.22-.09l-.04.15s.12.29.1.29c-.02,0-.42,0-.42,0l.18-.18-.08-.28s-.06-.02-.07.05c-.01.07-.04.2-.07.2s-.28.04-.28.04l-.12.16s.12.19.12.22c0,.03-.04.27-.04.27,0,0-.06-.28-.08-.3-.02-.02-.28-.23-.28-.25,0-.02.15-.22.15-.22l-.14-.09.11-.16.31.11s-.05-.24-.01-.26c.04-.01.15,0,.16-.03,0-.04-.02-.38-.02-.38,0,0-.17.1-.17.07s-.08-.27-.08-.27c0,0,.03-.25.08-.26.05,0,.21.01.21.01l-.21-.13s-.04-.37-.08-.39c-.04-.02-.4-.28-.42-.26-.02.01-.1.29-.1.29,0,0,.12-.08.16-.05.04.04.19.24.19.24l-.23.02s.24.14.23.16c0,.02-.05.23-.07.23s-.14-.2-.14-.2c0,0-.1.03-.14,0-.04-.03-.03-.21-.04-.19-.01.02-.14.37-.14.37l.24.14-.15-.02s-.15.15-.1.19.25.38.25.38c0,0-.11.37-.15.41-.04.05-.17.08-.17.08l.05-.5-.34.14.05-.18.17-.1-.15-.09s.08-.11.06-.11-.5.03-.5.05-.05.2-.05.2c0,0-.1-.11-.14-.09-.04.02-.2.06-.2.11s.2.62.23.63.31.23.31.23c0,0,.34.05.31.06s-.33.08-.33.08c0,0-.04.08,0,.14.04.05.37.56.34.56s-.31-.19-.31-.19l-.1-.25-.27.05.23-.2s0-.11-.01-.15c-.02-.04-.39-.3-.39-.3l-.14.04.1-.13-.05-.12h-.11s.03-.29.03-.29c0,0-.43-.19-.45-.17-.01.02-.23.22-.23.22,0,0,0-.12-.04-.1-.04.01-.17.02-.18.05-.01.02-.25.23-.25.23l.07.23.15-.03.02.13h.11s-.09.06-.07.08c.02.02.24.13.25.15,0,.02.04.17.04.17l-.12-.1s-.19.29-.17.31c.02.02.36.26.36.26l-.39-.12s-.1.15-.13.15-.2-.02-.2-.02l.24-.25s-.03-.2-.01-.23c.01-.03.09-.1.09-.14s-.28-.33-.28-.33c0,0-.26-.05-.34,0-.08.06-.28.6-.28.6,0,0-.06-.16-.08-.16s-.22.05-.22.1-.09,1.1-.09,1.1l-.15-.35.04-.36-.22.09s.3-.32.27-.37c-.03-.05-.66-.4-.69-.4s-.5.11-.5.11l.18.5-.19-.2-.17.44-.03-.37.14-.2-.13-.23s.18-.08.1-.09c-.07,0-.55-.18-.57-.14-.01.04-.04.3-.04.3,0,0,.09.16.03.25-.06.09-.23.32-.23.32l.04-.65-.23-.02.26-.1v-.19h.14s-.39-.2-.47-.23c-.08-.03-.6-.52-.61-.56-.01-.04-.19-.65-.2-.71-.01-.06-.61-.83-.61-.83l-.37.57-.04-.14s-.03.09-.14.11-.59-.19-.59-.19c0,0-.09.13-.12.13s-.12-.1-.11-.12c0-.02.21-.2.21-.2,0,0-.03.11,0,.11s.71.06.71.06c0,0,.21-.16.21-.18s.03-.29.03-.29c0,0,.26.02.25-.01s-.3-.4-.3-.4c0,0,.04-.13,0-.16-.04-.03-.2-.13-.2-.13l-.16.06s.04-.11.01-.12c-.03,0-.15-.13-.15-.13l-.04-.17.17.19s-.03-.16,0-.14c.04.02.11.13.15.16.04.03.34.07.41.17.07.1.32.47.32.52s-.01.18-.01.18c0,0,.15.04.17.05s.05.38.09.44c.04.07.27.23.27.23l.13-.04-.13-.28.3.36.26-.36-.1.6s.39-.34.39-.28c0,.06-.2.43-.17.44.03.02.42.07.43.09.01.02.36.42.36.4s.04-.44.04-.44c0,0,.12.04.12.07s-.04.39-.02.41c.01.02.53.47.56.49s.29.1.29.1l.39-.18.16-.36s-.27-.09-.31-.11c-.04-.02-.08-.26-.08-.26,0,0,.15.13.17.14.02.02.15.07.15.07,0,0,.11-.17.11-.11s.08.29.08.29l.52-.17.08-.25-.12-.08-.24.08-.1-.17.23.03s-.04-.2-.02-.19c.02,0,.23.2.22.16,0-.04-.04-.35-.04-.35,0,0,.15.07.15.1v.18s.07-.05.07-.03,0,.18.01.17.14-.12.14-.12c0,0,.01-.22.03-.19.01.03.07.2.07.2l.14-.14s-.12-.23-.09-.23.08.15.18.13c.1-.02.26-.14.26-.16,0-.02-.15-.2-.12-.2s.14.1.18.07c.04-.04.53-.23.53-.26v-.29s-.1,0-.12.03c-.01.02-.05.14-.05.14l-.16-.1-.03.13s0-.12-.12-.1-.37.04-.35.03.27-.14.27-.17-.04-.33-.04-.33c0,0,.13.29.18.3.04,0,.15,0,.15,0l-.05-.12.11-.04s.06.11.07.09.04-.16.04-.16c0,0,.06.17.07.13.01-.04.08-.17.08-.17l.09.07s-.07.18-.04.18.26-.03.26-.05.03-.11-.03-.16c-.06-.05-.17-.12-.17-.12,0,0-.05-.08-.01-.1.04-.01.35.09.36.07,0-.02.15-.5.15-.5l.12-.11-.18-.03-.28-.36s-.26.17-.24.17.1.02.1.05-.05.11-.02.11.22-.07.2-.02c-.01.05-.06.38-.06.38,0,0-.12-.23-.15-.19-.02.03-.36.41-.36.41,0,0-.02-.15-.01-.18,0-.03.17-.28.17-.28l-.23.04v-.14s.12-.11.12-.11l-.26.04s-.11.22-.13.21,0-.23-.03-.23-.17.05-.17.05c0,0-.08-.17-.1-.14-.02.04-.17.14-.17.18s.1.2.04.22c-.07.02-.34,0-.34.02,0,.02.08.16.06.16s-.24-.09-.26-.08-.24.11-.24.11c0,0,.09.24.07.24s-.24-.09-.24-.09c0,0,.17-.34.14-.33s-.2.1-.23.1-.24-.04-.21-.05.39-.18.41-.18c.02,0,.2.12.2.12,0,0-.03-.23-.01-.21.01.02.17.16.17.16l.04-.06.28-.12s.12-.17.12-.19-.09-.16-.09-.16c0,0,.13.05.13.03s.05-.26.05-.26l.12-.05-.15-.14h.16s.13.14.13.14c0,0-.15.17-.15.2,0,.02.18.12.18.12,0,0,.15.05.17.05s.2-.1.2-.1l-.02-.07.15-.03-.07-.09.13.03-.18-.14-.1.05-.04-.16.26.08v-.09s.18.01.18.01l-.1-.18s-.17-.08-.14-.08c.03,0,.22-.08.23,0,0,.08.33.37.33.37l.08.05.04-.13.1.2s.15-.18.15-.16c0,.02.05.2.05.2l.11.05.06-.38h-.12l-.26-.26-.27.14.06-.23-.31-.22.41.08.07-.12s.08.14.1.15c.02,0,.23,0,.25.02.02,0,.42.25.42.25l-.05-.28s-.2.02-.2,0c0-.02-.12-.3-.12-.3l.24.16.04-.13.07.09.07-.13.15.02-.08-.19-.17-.05.26-.12.15.14-.09-.25.07-.1-.13-.11-.06.22h-.27l.09-.25-.03-.36.2.08-.02-.14s-.59-.09-.59-.07.2.28.2.31c0,.03-.08.08-.08.08,0,0-.12-.17-.12-.14s-.03.34-.03.34c0,0-.11-.08-.11-.1s.03-.23.03-.23l-.12.05s-.12-.08-.09-.1c.02-.02.22-.17.19-.17s-.58-.08-.58-.08c0,0,.37-.1.34-.1s-.71,0-.71,0l-.02.16s.14.07.14.1-.19.1-.19.1c0,0,0,.15.02.15s.42.09.42.09c0,0-.43.08-.41.09.02.01.33.33.33.33,0,0-.31-.04-.34-.06-.02-.02-.11-.12-.11-.12l-.5.07-.24-.22s.16-.11.16-.08.08.16.08.16c0,0,.2.04.23.03s.25-.08.25-.1-.03-.16-.05-.17-.28-.02-.28-.02l.3-.14-.07-.13s.12-.16.09-.15-.26.14-.26.14c0,0,.04-.11.01-.13-.03-.02-.16-.04-.1-.06.06-.02.27-.07.28-.09,0-.02,0-.21-.01-.21s-.34.07-.34.07l-.38-.14-.09.1.07.24s-.11-.14-.15-.13c-.04,0-.07.06-.07.06,0,0-.01.23-.04.23s-.11-.29-.11-.29c0,0,.15-.11.15-.14,0-.02-.17-.11-.19-.11s-.23.14-.23.14l-.04.15-.09-.05-.22.11-.07.28-.16-.09-.11.05.1.34-.28-.35s.33-.14.35-.15.42-.47.47-.5c.05-.02.49-.15.49-.15,0,0-.26-.19-.31-.2-.06,0-.26,0-.28,0s-.49-.15-.49-.15c0,0,.05-.13.03-.12-.02,0-.38.06-.38.06l-.18-.19s.04.41.02.41-.12-.08-.12-.08c0,0-.42.17-.42.15s.42-.27.42-.29-.04-.34-.06-.37c-.02-.03-.19-.21-.23-.22-.04,0-.88-.13-.88-.15s-.15-.28-.23-.24c-.08.04-.47.23-.49.24-.02.02-.02.23-.02.23l.12.13-.15.24s.05-.21.03-.26c-.02-.05-.18-.1-.15-.17.02-.08.1-.3.07-.34-.02-.04-.18-.41-.2-.44-.02-.03-1.17-.68-1.17-.68,0,0,.14-.07.21-.05.07.02.44.26.44.26,0,0-.03-.11-.04-.14,0-.02-.42-.5-.48-.53-.07-.02-.57-.22-.57-.22l.15-.02s0-.14.03-.13c.02.02.25.2.25.2l.5.17s-.09.09-.07.1.09.04.15.12c.05.08.67.68.67.68,0,0,.21.06.23.02.02-.04-.01-.42,0-.4,0,.02.2.27.19.3,0,.03-.06.15-.05.17s.12.08.15.08.1-.12.1-.12c0,0,.4-.04.38-.02-.02.02-.32.11-.32.11,0,0,.04.12.1.14s.22.13.27.13.63-.1.63-.1c0,0-.08.08-.07.12,0,.04.2.12.23.12s.28-.05.29-.09c.01-.05-.01-.35-.01-.41s.24-.54.24-.54l-.07.62h.3s-.3.18-.31.2c0,0-.04.16-.04.2s.25.14.28.17c.03.03.23.18.23.18l.09-.12.16.12-.09.05.1.13s.1-.18.17-.18.42,0,.42-.02.02-.19.02-.19c0,0,.15-.05.14,0,0,.05-.02.26.01.28.04.02.4.14.39.11s-.12-.14-.12-.14c0,0,.18.02.15-.02-.03-.04-.15-.32-.15-.32,0,0,.31.34.31.26s.13-.32.13-.32l.04.25.15.11h-.25s-.1.14-.1.14l.12.09-.09.07.86.32h.26s-.12-.35-.12-.35l-.22.2.04-.17-.12-.05.15-.12-.24-.1.17-.1s.14.14.13.09c0-.05-.07-.23-.08-.26s-.18-.25-.18-.25c0,0-.2.03-.23.02-.02,0-.09-.19-.09-.19,0,0,.35.02.35,0s.12-.3.09-.33c-.03-.03-.26-.15-.26-.15l-.18-.28s-.09.17-.09.11.03-.26-.04-.19-.42.23-.43.26-.07.27-.07.25-.05-.13-.1-.14-.43-.12-.44-.14c-.01-.02-.1-.41-.1-.41l.23.36.39.04.11-.21.13.04s.04-.11.1-.14c.06-.04.36-.12.36-.12l-.41-.36s0,.17-.02.17c-.02,0-.32-.12-.32-.12,0,0-.15-.26-.12-.24s.36.23.36.17-.03-.35,0-.35c.02,0,.15-.14.15-.14,0,0-.12.29-.07.32.06.03.51.38.51.38,0,0,.2.05.2.02,0-.02-.07-.17-.07-.17,0,0,.18.02.2,0s.07-.13.07-.13l.15-.03s-.06.18-.04.19c.02,0,.59.15.59.15l.1-.33s0,.26.03.28c.03.02.12.03.14.03s.48-.2.48-.2l.07-.26s-.16-.08-.16-.11.01-.26.07-.21c.06.05.39.38.37.41s-.15.2-.15.22.04.26.04.29-.09.15-.09.15l.44.23s-.02.09-.07.08c-.04,0-.5-.23-.5-.23,0,0-.08.08-.09.11,0,.03,0,.32,0,.3s-.15-.3-.18-.31c-.02,0-.46-.1-.52-.1-.06,0-.68.08-.68.08l.28.1s-.15.02-.1.05c.05.02.23.13.24.15,0,.02.07.39.07.39,0,0,.09-.03.09-.06s.03-.23.03-.23c0,0,.15.13.14.08s-.01-.21-.01-.21c0,0,.24.13.22.14-.02.02-.08.1-.05.13.03.03.42.21.42.25s0,.12-.01.12-.26-.16-.26-.16l-.09.05s.01-.14,0-.14c-.02,0-.16-.07-.18-.06s-.2.28-.2.28l.05.09h-.15s0-.1,0-.1c0,0-.09.13-.09.15s.14.17.14.17l.17-.06.18.13-.03-.2.12.13s.04-.07.08,0c.04.06.17.32.17.32,0,0-.14.03-.15,0-.01-.02-.07-.19-.11-.16-.04.02-.25.29-.22.31s.27.27.27.27l.13-.12.12-.08s.09.08.09.13-.11.1-.09.14c.01.04.17.19.19.2.02.02.26.11.24.09-.01-.02-.18-.35-.18-.35,0,0,.1-.05.07-.07-.02-.02-.14-.09-.13-.12,0-.03,0-.11.03-.09.03.02.18.14.2.14s.14-.08.14-.13.02-.08-.03-.1c-.05-.03-.17-.12-.17-.12,0,0,.2.14.22.08.02-.05.01-.28.01-.28,0,0,.15.11.13.18-.02.07-.09.5-.09.52s.04.05.04.05l.1-.12s.1.14.1.11-.09-.15-.06-.23c.04-.08.23-.25.23-.25l-.15-.16.31-.08s-.12-.03-.13-.05c-.01-.02-.07-.14-.07-.14,0,0-.15.11-.15.08s.15-.29.15-.29l-.22-.1s.12-.17.16-.12c.04.05.21.27.21.24s.12-.2.14-.19.24.17.24.17c0,0-.23-.07-.23-.05s-.04.2-.04.2c0,0-.1-.05-.1-.02s.37.32.37.4-.04.23-.01.25.12.13.12.13l-.27-.09s0,.07.02.08c.02.02.12.11.15.16.03.05,0,.14.03.16.03.02.25.04.25.06s.05.22.05.22l-.13.08s-.47-.14-.5-.14-.06-.11-.06-.11l-.13.3s.12-.11.12-.08.01.05.06.05.15-.05.15,0-.06.24-.04.23c.02-.01.17-.21.19-.21s.28,0,.29.02c.01.02.07.16.12.16s.09-.01.09-.01c0,0-.09-.12-.06-.12s.14.2.14.08-.22-.48-.21-.53c0-.05.15-.16.15-.16l-.1-.05.09-.05-.2-.09-.04-.07s.15.05.15,0c0-.05-.04-.18-.02-.16.01.02.34.44.34.44,0,0,.26-.08.27-.04.01.05.05.17.03.18s-.17-.08-.17-.01.07.25.07.25l.19-.11.12.16.18-.07-.04.15-.25.03.02.13s.08-.03.1-.02c.02,0,.34.2.34.2l.19-.19s-.12-.28-.12-.3.1-.44.1-.44l.28.05s-.16.11-.18.16c-.02.05-.07.22-.05.23.02,0,.36.13.36.13,0,0-.02.08-.02.14s.09.24.09.24l.14-.21.11.18s.35-.18.39-.16c.04.02.23.1.23.1,0,0,.04.09-.04.14-.07.05-.08.09-.05.1.03,0,.17.02.17.02l.04-.11s-.05-.07-.03-.1c.02-.02.19-.09.18-.13,0-.04-.11-.15-.1-.17,0-.02,0-.07.05-.07s.28.09.37.06c.08-.03.41-.32.43-.32s.15.05.15.02.07-.23.07-.23c0,0-.19.05-.24,0-.05-.05-.15-.1-.06-.21.09-.11.3-.26.3-.26l-.05-.15.16-.04s-.19-.14-.18-.17c.01-.03-.02-.08.03-.07.05,0,.32.16.36.15.04-.01.09-.12.07-.07s-.05.31,0,.32c.05.02.1.03.14-.04.04-.07.1-.15.09-.22s-.09-.23-.06-.27c.03-.05.28-.35.28-.35l-.2-.27s.18.07.2.05.09-.23.12-.23c.03,0,.32-.12.32-.14s-.14-.18-.14-.18c0,0-.33,0-.31-.02.02-.03.06-.15.08-.15h.19s-.07-.13-.03-.11c.04.02.16.14.2.1.04-.05.19-.35.22-.37s.42-.11.42-.15c0-.04,0-.17,0-.17,0,0-.15.14-.15.11s.03-.27.07-.28c.04,0,.49-.23.49-.23l-.31-.45h.14s.11-.35.11-.38-.16-.33-.16-.33c0,0,.21.16.23.19.01.03.21.03.21.03,0,0-.13.05-.13.11v.23s.12.02.13.06c.01.05-.09.04-.05.12.04.08.18.29.2.29s.31-.08.35-.08c.04,0,.15-.15.15-.15,0,0-.01.18,0,.23.01.05-.23.25-.23.25,0,0,.56-.11.59-.11s.21-.14.21-.14l-.12-.2.41-.19s.04-.18.04-.2c0-.02.26-.16.23-.21-.02-.05-.16-.38-.16-.38,0,0-.15.06-.15.04s-.22-.2-.21-.26c0-.05.11-.28.05-.31-.06-.03-.25-.07-.25-.07,0,0,.19-.42.21-.4s.38.18.38.18c0,0-.04.26-.01.26s.2-.15.26-.2-.06-.74-.09-.78c-.04-.05-.23-.2-.23-.23,0-.03-.07-.35-.04-.4.03-.05.2-.59.2-.59,0,0-.09-.11-.09-.15s.07-.12.05-.17-.31-.36-.32-.41c-.01-.05.01-.54.01-.54,0,0-.23-.17-.24-.21-.01-.04-.05-.26-.07-.28-.01-.02-.17-.05-.18-.1,0-.05-.03-.23-.04-.26,0-.04-.2-.18-.2-.18,0,0-.04.12-.08.11-.04,0-.09-.03-.09-.03,0,0,.07-.31.05-.33-.01-.02-.66-.29-.66-.26s.12.19.12.21-.06.23-.06.23l-.24.11s.27.01.31.03.51.29.51.29c0,0-.28.05-.3.05s-.21-.14-.23-.11c-.01.02-.09.18-.13.17-.04,0-.42-.28-.44-.28s-.2.13-.2.13c0,0,.2.26.21.29.01.02.02.25.04.29.02.04.17.13.2.12.03,0,.17-.15.17-.15,0,0,.15,0,.15.04,0,.04-.16.15-.16.2s.05.26.02.26-.26-.29-.29-.29-.31.1-.31.08v-.47l-.15-.06s-.06.13-.1.09c-.04-.04-.06-.07-.04-.09.01-.02.13-.14.1-.16-.03-.01-.15-.07-.28,0-.13.07-.23.26-.25.33-.02.07-.24.1-.28.16-.04.05,0,.39,0,.41s-.08.08-.08.11.16.38.15.43c0,.05-.2.38-.2.46s.17.59.17.7c0,.11-.21.84-.23.94-.01.1-.01.61-.03.69-.01.08-.23.49-.23.49l-.26.04s0-.17-.04-.2c-.04-.03-.17-.2-.18-.17,0,.02,0,.2-.12.15-.12-.05-.19-.14-.24-.12-.05.01-.17.13-.18.1-.01-.02-.08-.15-.12-.17s-.24-.06-.24-.09.04-.16.04-.16c0,0-.1.02-.12-.03s-.08-.19-.08-.19c0,0,.13.11.15.11s.18-.04.19,0c.01.04-.03.19,0,.2.02.02.28.09.31.09s.33-.13.36-.11c.03.02.29.21.3.17s-.02-.51-.02-.51l-.12-.06s-.08.14-.08.08-.03-.23-.03-.29.16-.56.16-.56l-.19-.24-.24.15s-.09-.19-.13-.21c-.04-.02-.51-.09-.51-.14s-.01-.25,0-.27.21-.29.26-.14.27.5.32.52.15.05.15.02.12-.24.12-.24v.23s.07-.02.08-.06c0-.04.09-.47.06-.54-.03-.08-.17-.42-.18-.49-.01-.07,0-.29-.02-.32-.02-.03-.45-.21-.47-.24-.01-.03-.04-.31-.04-.31l.1.25s.42.12.45.09c.04-.03.17,0,.19-.14.02-.14,0-.31.05-.38.05-.07.31-.49.34-.54.02-.05-.06-.17-.09-.17s-.1.16-.14.15c-.04,0-.15-.15-.15-.12s-.29.47-.31.45c-.02-.02-.55-.65-.58-.66-.03-.01-.23-.08-.23-.08,0,0,.2-.09.25-.05.05.05.45.48.51.48s.19-.07.18-.11-.13-.08-.15-.12c-.01-.05-.01-.39.04-.36.05.03.42.28.46.27.04,0,.14-.05.15-.14.01-.08.09-.14.01-.23-.07-.08-.53-.47-.66-.47s-1.26-.05-1.36-.03c-.1.02-1.37.41-1.39.44-.02.02-.53.47-.53.47,0,0,.36.13.37.15,0,.02.1.21.1.21,0,0,.16-.05.2-.04.04,0,.12.13.12.13,0,0-.37.05-.39.03s-.02-.22-.09-.2c-.07.02-.23.08-.25.08s-.13-.01-.13-.05.04-.11-.02-.13c-.06-.01-.38-.13-.4-.11-.02.01-.15.19-.21.2-.07.01-.26.03-.24,0,.01-.02.18-.16.15-.19-.04-.04-.18-.14-.18-.14,0,0,.16-.02.12-.08s-.28-.46-.34-.45c-.06,0-1.73.73-1.75.74s-1.62.2-1.7.2-.38-.17-.39-.15-.1.17-.1.17l-.05-.17s-.09-.07-.1-.04c0,.04.02.11-.04.13-.07.01-.33.14-.31.08s.21-.56.26-.6c.05-.04.42-.35.42-.42,0-.08-.12-.28-.12-.28,0,0-.31.08-.29.06.01-.02.13-.1.13-.15s-.07-.47-.08-.51c0-.05-.23-.25-.26-.31-.03-.06-.02-.59-.03-.62,0-.04-.27-.48-.28-.52-.01-.04-.08-.43-.09-.51,0-.08.06-.86.06-.91s.14-.39.14-.39c0,0,.17.07.18.01,0-.05-.03-.16.01-.22.04-.06.31-.45.32-.53,0-.07,0-.17-.02-.22s-1.09-1.2-1.09-1.2c0,0-.13.08-.15.08s-.83-.26-.86-.27c-.03-.01-.7-.22-.7-.22l-.16-.14s.26-.05.34,0,.71.27.77.29c.06.02.23.14.26.14s.53-.02.56,0,.96,1.03.96,1.03c0,0-.08-.28-.02-.24.06.04.17.28.21.3.04.02.2,0,.2,0,0,0,.04.53.04.56s-.55.88-.55.96-.08.93-.06,1.01c.02.08.22.71.26.72.04,0,.21-.05.22.03,0,.08-.03.73-.03.75s.17.33.2.35.48.17.48.17c0,0,.3-.27.26-.3-.04-.03-.29-.22-.29-.22,0,0,.38.11.4.13.02.01.42.81.48.83.06.02.85.05.87.02s.68-.34.68-.34l.63-.74s-.5-.05-.51-.07c-.01-.02-.22-.26-.24-.26s-.28.01-.28.01l.07-.13s.25-.02.27-.01.28.23.31.23c.04,0,.65-.05.72-.06.07-.01.66-.13.68-.13s.15.06.15.06c0,0,.27-.19.23-.22-.04-.03-.47-.17-.48-.2-.01-.03-.12-.23-.14-.21-.02.02-.26.14-.3.11-.04-.03-1.1-1.1-1.1-1.1h-.14s.04-.22.07-.22.23.01.31.06c.08.05.38.26.42.3.04.04.18,0,.18,0,0,0,.08,0,.06.13-.02.13.15.42.2.44.04.02.44-.07.52-.04.07.03,1.07.64,1.09.64s.45.07.5.07.29-.16.28-.18c-.01-.02-.44-.23-.47-.31s-.22-.53-.28-.59c-.06-.07-.31-.25-.31-.25h-.34s.25-.09.25-.11-.17-.53-.17-.53c0,0,.04-.14.07-.08s.26.5.28.5c.02,0,.22.07.22.07v.16s.17,0,.17,0c0,0,.01-.22.04-.17.02.05.09.46.11.48.02.02.49.47.51.48.02,0,.31.07.34.07s.58-.13.56-.15c-.01-.02-.28-.11-.28-.14,0-.02-.03-.14-.03-.14l-.14-.04s-.08-.14-.06-.14.31.02.31.07c0,.05,0,.2.06.2s.23-.08.25-.07c.02.01.18.17.2.17s.46-.15.46-.19-.19-.62-.19-.62l-.1.11-.09-.11s.13-.08.13-.12.04-.12-.01-.16-.8-.35-.8-.35l-.22.12s.09-.23.17-.23c.07,0,.26.06.25,0,0-.05-.2-.47-.22-.49-.02-.02-.5-.2-.5-.2,0,0-.16-.35-.19-.36-.03-.02-.41-.14-.41-.14l.07-.15s.1,0,.11-.04c0-.03.1-.26.11-.22,0,.05-.04.37.01.37s.3-.09.34-.06c.04.03.04.16.12.16s.37-.05.44.02c.07.08.66.86.74.89s.29.05.35.1c.06.06.35.65.42.69.07.04.43.2.43.2l1.05.19-.15-.18s-.17.05-.2,0c-.03-.05-.15-.3-.15-.3l-.12.09s0-.14,0-.17c0-.03-.18-.17-.18-.17,0,0-.34.14-.34.12,0-.02.11-.17.11-.2s-.01-.17-.01-.17c0,0,.43.32.44.27,0-.05.09-.31.09-.33s-.18-.29-.18-.29l-.17.02s.15-.1.15-.15-.11-.42-.11-.42c0,0,.13,0,.14-.02,0-.03.04-.14.01-.15-.03-.02-.17-.02-.2-.04-.03-.02-.08-.12-.08-.12l-.25.1.27-.26s-.31-.03-.33-.04c-.02,0-.13-.14-.13-.19s.07-.23.07-.21.17.28.2.28.27-.15.27-.09.12.48.14.47c.02-.02.28-.18.31-.14.02.04.07.14.05.17-.01.02-.14.1-.14.12s-.04.35-.01.41.21.18.21.18h.23s-.1.09-.07.17c.02.08.08.44.12.46s.58.62.6.71c.01.1,0,.72,0,.74.01.02.28.37.33.44.05.07.63.41.63.41l.15-.14-.23-.38s.04-.26.01-.31c-.03-.05-.4-.38-.39-.43,0-.05.05-.32.05-.32,0,0-.12,0-.15-.06s-.11-.5-.12-.54c-.01-.05-.4-.78-.4-.78,0,0-.1-.35-.1-.38s.09-.17.05-.2c-.04-.03-.14-.06-.15-.1-.01-.04-.16-.58-.17-.6-.01-.02-.47-.62-.45-.7.01-.08.19-.27.2-.36,0-.09-.06-.26-.06-.34s-.01-.31-.04-.35c-.02-.04-.17-.09-.2-.03-.03.06-.13.25-.11.26.02,0,.16.05.16.12s.04.21.02.23-.09.04-.09.04c0,0-.15-.15-.14-.09.01.06.12.47.09.47s-.17,0-.19-.05c-.01-.05-.62-.94-.62-.94,0,0,.2-.12.21-.1.01.02.31.17.31.17,0,0-.09-.32-.13-.34-.04-.01-.25.03-.28.03s-.31-.17-.31-.17l-.39-.89s-.5.06-.51.04c-.01-.02.08-.35.08-.35,0,0,.11.19.13.2.02,0,.31.01.31.01,0,0,.01-.09,0-.1-.02,0-.28-.06-.28-.06,0,0,.26-.03.26-.05s-.01-.14-.01-.14c0,0,.13.19.15.19s.1,0,.1-.08-.18-.54-.18-.54l-11.61.33-.07.14-16.88.24-13.6.08h-4.58l-9.38-.12-8.64-.5-5.75-.32-4.06-.39s-.1.1-.09.18c.01.08-.37.66-.37.78v1.1s-.13.09-.15.18c-.01.09,0,.53,0,.53,0,0-.34.24-.34.33,0,0,.1.78.13.84.03.06.23.38.19.38s-.79.12-.82,0c-.03-.12-.23-.42-.29-.39-.06.03-.51.19-.6.26-.09.06-.89.6-.95.72-.06.12-1.74,3.02-1.74,3.02,0,0-.23-.03-.34,0-.1.03-.2.29-.29.29s-.67-.08-.67-.08c0,0-.22-.71-.26-.71s-.42.03-.47.01c-.04-.01-.34-.27-.38-.24-.04.03-.38.39-.42.41-.04.02-.32.14-.32.14,0,0-.19-.21-.28-.18-.09.03-.42.27-.54.27s-.32.01-.32.01c0,0-.67.48-.74.56-.07.08-.85,1.28-.89,1.34-.04.06-.2.35-.51.47-.31.12-.44.35-.7.29-.26-.06-.63-.27-.63-.27v-.63c0-.09.2-.36.19-.42-.01-.06-.29-.27-.29-.27l-.1-.24s-.25-.08-.29-.03c-.04.05-1.68,1.05-1.71,1.1-.03.05.04.27,0,.32-.04.05-.06.09-.1.18-.04.09-.28.33-.29.39-.01.06.07.24,0,.24h-.32s-.17-.23-.22-.26c-.04-.03-.29-.14-.38-.14s-.29,0-.34.07c-.04.08-.04.33-.1.32-.06-.01-.22-.11-.22-.06s.28.86.2.87c-.07.02-.26.11-.28.2-.01.09.06.39,0,.44-.06.05-.17-.03-.19.07-.01.11-.66.93-.66.93,0,0-.12.17-.25.12-.13-.05-.38-.23-.45-.24-.07-.01-.6-.11-.6-.11,0,0-.45.33-.58.35-.13.02-.48-.02-.55.08-.07.11-.19.45-.29.51-.1.06-.41-.06-.45,0-.04.06-.26.02-.26.02,0,0-.16.09-.22.16-.06.08-.04.26-.1.35-.06.09-.55.65-.6.66s-.61-.13-.64-.09c-.03.05-.23.29-.26.33s-.32.27-.44.32c-.12.05-.7.14-.73.18s-.57.75-.66.75-1.17-.09-1.17-.09c0,0-.26-.27-.31-.26-.04.01-.5.21-.54.21s-1.4-.14-1.52-.07c-.12.06-.77.6-.83.63-.06.03-.67.05-.76.08-.09.03-.26.29-.29.36-.03.08-.06.24-.1.29-.04.05-.55.3-.63.32-.07.01-.09-.1-.17,0-.09.11-.79.77-.79.81s.16.59.12.66c-.04.08-.31.36-.35.41-.04.05-.1.47-.09.51.01.05.2.27.16.35-.04.08-.38.44-.47.48Z"/>
      <path class="cls-1" d="M111.8.53s-.39,0-.37.05c.01.05.24.32.27.34.03.02.25.08.26.11,0,.02-.13.36-.13.41s.19.26.19.26l.19-.29s.03.14.08.17.2.02.23.03c.04,0,.15.15.15.15l.29-.16-.15-.07v-1s-.11.22-.14.2c-.03-.02-.07-.2-.07-.2,0,0-.51-.03-.52,0,0,.03.07.23.02.2s-.31-.2-.31-.2Z"/>
      <polygon class="cls-1" points="112.89 .87 112.96 1.04 112.96 .79 112.89 .87"/>
      <polygon class="cls-1" points="113.05 .92 113.21 .95 113.15 .79 113.05 .92"/>
      <path class="cls-1" d="M117.72,13.08s.1.26.1.26c0,0,.12-.2.12-.17s.07.17.07.17c0,0,.08.05.12.04.04-.01.07-.08.07-.12s-.79-1.84-.79-1.84l-1.28-2.48-.47-.83-1.18-2.93-.87-3.5-.28-1.2-.34.03s-.05.15,0,.16c.05,0,.22-.01.22,0s.08.2.09.24c.01.04-.15.31-.15.33,0,.02.06.59.06.59,0,0,.28.32.28.34,0,.02-.16.11-.16.14s.09.27.09.27l.27.12v.32l.34,1.01s0,.81.04.85c.03.04.2.15.2.15,0,0-.04.43,0,.44.04.02.32.23.32.23l-.1.11s.2.12.22.14c.01.02.45,1.36.48,1.43.03.08.12.63.12.63l-.13-.29s-.05.05-.04.13c.01.08.17,1.04.21,1.08.04.04.17.11.19.11s.33-.16.35-.14c.02.02.23.58.23.62,0,.05,0,.25,0,.31,0,.06.16.37.18.42s.4.2.42.23c.01.02.42.73.44.78.01.05.26,1.2.26,1.25,0,.05.23.27.23.27l-.06.25s.12,0,.14.04Z"/>
      <path class="cls-1" d="M113.68,4.34c0,.06.07.41.07.41l.2-.11-.14-.2v-.19s-.13.02-.13.08Z"/>
      <polygon class="cls-1" points="113.52 4.76 113.63 4.97 113.68 4.76 113.52 4.76"/>
      <polygon class="cls-1" points="113.52 5.09 113.52 5.28 113.68 5.35 113.71 5.18 113.52 5.09"/>
      <polygon class="cls-1" points="113.85 6.24 113.95 6.72 114.06 6.48 113.85 6.24"/>
      <polygon class="cls-1" points="115.25 9.25 115.48 9.25 115.36 9.15 115.25 9.25"/>
      <path class="cls-1" d="M116.01,9.46s-.16.3-.16.3l-.1-.24-.23-.11s-.06.38-.04.41.27.18.33.18.21-.09.21-.09c0,0,.02-.5,0-.45Z"/>
      <path class="cls-1" d="M113.23,10.36c-.08.04-.65.33-.65.33l.39.38s.22-.29.26-.3c.04-.01.39-.12.39-.12,0,0,.07-.22.06-.25,0-.03-.06-.08-.06-.08l-.35.17s.04-.17-.04-.13Z"/>
      <path class="cls-1" d="M117.06,12.36s.02-.17.02-.2-.44-.75-.44-.75l-.23.2v-.41s-.47-.28-.47-.28h-.3s-.08.1-.05.14c.03.05.91,1.04.92,1.1.01.06.12.6.12.6l.5.2s-.11-.5-.12-.54c0-.04-.3-.35-.3-.35,0,0,.13-.05.15-.03.01.02.2.31.2.31Z"/>
      <polygon class="cls-1" points="116.94 11.7 117.06 11.51 116.94 11.51 116.94 11.7"/>
      <polygon class="cls-1" points="117.06 12 117.21 11.86 117.06 11.8 117.06 12"/>
      <polygon class="cls-1" points="117.26 13.23 117.46 13.33 117.38 13.15 117.26 13.23"/>
      <polygon class="cls-1" points="116.84 13.09 117.06 13.03 116.94 12.97 116.84 13.09"/>
      <polygon class="cls-1" points="116.3 12.93 116.43 12.7 116.35 12.64 116.3 12.93"/>
      <path class="cls-1" d="M119,17.95c0,.05-.08,2.26-.09,2.32-.01.06-.18.56-.19.6,0,.04-.06,1.17-.08,1.24-.02.07-.04.16-.09.17-.06.01-.55.15-.61.15s-.18-.07-.2-.05c-.02.01-.41.5-.5.56-.1.06-.51.26-.53.26s-.18-.2-.18-.2c0,0-.3.47-.37.51-.07.05-.47.08-.47.1s.05.16.08.16,2.06-.78,2.12-.8c.06-.01.8.06.81,0,.01-.05.29-2.09.29-2.09l.12-.75.19-2.62.04-.73-.38-2.06-.59-1.2s-.15,0-.15.06c0,.06.52,1.24.52,1.29s-.12.23-.09.25c.03.01.28.15.28.15,0,0-.04.26-.04.3,0,.05.23.62.23.71s.05.48.05.57.01.59,0,.65c-.01.05-.15.4-.15.45Z"/>
      <path class="cls-1" d="M112.8,25.44s.74-.53.83-.59c.09-.05,1.31-.7,1.34-.72.04-.02.39-.2.42-.23.03-.03.12-.18.12-.18,0,0-.42.17-.47.2-.06.03-.63.28-.8.35-.17.07-1.41.88-1.43.88s-.33-.17-.32-.08c0,.1-.03.39-.04.44,0,.05-.34.4-.34.4,0,0,.18.1.2.07s.45-.51.49-.54Z"/>
      <path class="cls-1" d="M111.34,25.94s-.17.49-.17.49l-.29.21-.07.38,1.15-1.04s-.31-.1-.33-.09c-.02,0-.29,0-.29.04Z"/>
      <polygon class="cls-1" points="110.28 27.23 110.42 27.33 110.42 27.15 110.28 27.23"/>
      <path class="cls-1" d="M108.55,27.15l-.04.22s.23.12.23.1.06-.32.06-.32h-.25Z"/>
      <polygon class="cls-1" points="108.93 27.62 109.1 27.33 108.93 27.28 108.93 27.62"/>
      <polygon class="cls-1" points="108.7 27.77 108.8 27.66 108.7 27.54 108.7 27.77"/>
      <polygon class="cls-1" points="110.35 27.47 110.42 27.62 110.6 27.24 110.35 27.47"/>
      <polygon class="cls-1" points="109.63 28.37 110.24 27.62 109.67 28.1 109.63 28.37"/>
      <polygon class="cls-1" points="108.75 29.25 109.44 28.5 109.1 28.69 108.75 29.25"/>
      <polygon class="cls-1" points="105.09 33.94 105.37 34.53 105.6 33.71 106.55 32.13 107.46 30.8 108.55 29.56 108.55 29.37 107.44 30.51 107.16 30.99 107.04 30.84 107.04 31.2 106.89 31.47 106.65 31.47 106.75 31.63 106.57 31.76 106.57 31.96 106.26 32.25 106.18 32.53 106.01 32.59 105.89 32.92 105.75 32.88 105.79 33.08 105.32 34.05 105.09 33.94"/>
      <path class="cls-1" d="M104.95,32.53s-.07-.2-.1-.2c-.03,0-.23.06-.23.06,0,0-.03.2.04.22.07.02.71.05.71.05,0,0-.43-.09-.43-.14Z"/>
      <path class="cls-1" d="M105.34,33.73l.04-.22s-.04-.08-.07-.1-.44-.3-.5-.32c-.06-.02-.86-.32-.86-.32h-.24l.04.16,1.07.33.52.46Z"/>
      <path class="cls-1" d="M102.28,32.68s1.07-.05,1.07-.05l-.17-.12s-.51.11-.53.06c-.01-.05-.02-.14-.08-.14-.06,0-.17,0-.2,0s-.16.23-.18.2-.67-.08-.72-.1c-.05-.03-.39.18-.42.18s-.64.1-.67.08c-.03-.02-2.57.57-2.58.59-.01.02-.17.36-.17.36,0,0,.79-.36.85-.39.07-.03,1.43-.35,1.51-.37.08-.02,2.25-.29,2.28-.29Z"/>
      <path class="cls-1" d="M96.8,33.79v-.24s-.17.23-.17.26-.05.11,0,.11.17-.11.17-.13Z"/>
      <path class="cls-1" d="M96.84,33.84l-.14.2s.2-.02.24-.05c.04-.03.3-.14.3-.14h-.4Z"/>
      <path class="cls-1" d="M96.6,34.13l-.55.11-.07.2s.12-.03.15,0,.48-.3.48-.3Z"/>
      <polygon class="cls-1" points="95.68 34.64 94.47 35.68 95.11 35.41 95.78 34.75 95.68 34.64"/>
      <path class="cls-1" d="M94.4,35.68h-.1s-.13.01-.15.06c-.02.05-.3.32-.34.34-.04.02-.87.44-.87.44h-.24l-.19.35s-.36.06-.4.1c-.04.04-.09.21-.09.21h-.18l-1.5,1.64s1.7-1.55,1.73-1.56c.03-.02,1.94-1.14,1.94-1.14l.39-.43Z"/>
      <polygon class="cls-1" points="90.87 37.98 90.53 38.21 90.58 38.36 90.74 38.27 90.87 37.98"/>
      <polygon class="cls-1" points="90.3 38.65 90.47 38.51 90.34 38.44 90.3 38.65"/>
      <polygon class="cls-1" points="90.01 38.81 90.18 38.75 90.13 38.61 90.01 38.81"/>
      <polygon class="cls-1" points="89.77 38.95 89.66 39 89.72 39.18 89.89 39.06 89.77 38.95"/>
      <path class="cls-1" d="M89.59,39.41l-.07-.14s-.07.05-.07.07c0,.02,0,.38,0,.38l.44-.49-.3.18Z"/>
      <polygon class="cls-1" points="89.17 39.85 89.34 39.62 89.17 39.67 89.17 39.85"/>
      <path class="cls-1" d="M89.29,39.93s-.23-.05-.26,0c-.03.05-.23.27-.23.32,0,.05-.02.1,0,.11.02.01.09.11.09.11l.4-.54Z"/>
      <path class="cls-1" d="M88.36,40.77c-.05.12-.32.56-.29.56s.4-.26.4-.26l.13-.3s-.19-.12-.24,0Z"/>
      <path class="cls-1" d="M88.33,41.24c-.01.06-.32.34-.32.34l.1.13s.12-.05.15-.11c.03-.05.08-.36.08-.36Z"/>
      <path class="cls-1" d="M87.32,43.59l.65-1.73-.5.63.05.1-.05.05s0,.08,0,.14-.15.81-.15.81Z"/>
      <path class="cls-1" d="M86.33,46.29c.08-.05.5-1.08.52-1.13.01-.05.04-.44.07-.53.02-.1.2-.56.2-.59s-.06-.14-.06-.14l-.13.17v-.17s-.35.22-.34.24.1,1,.1,1l-.28.4s.17.05.16.08c0,.02-.11.19-.11.19l-.12-.04v.12s.06-.05.05.04c0,.08-.03.26-.05.28s-.08.13,0,.08Z"/>
      <path class="cls-1" d="M86.16,46.83s-.12-.26-.2-.23c-.07.03-.14.03-.17.08-.03.05-.31.56-.31.56,0,0,.62.41.62.39s.19-1.18.19-1.18c0,.02-.13.41-.13.39Z"/>
      <path class="cls-1" d="M79.42,46.83s-.34.35-.31.35,1.12-.44,1.12-.44l-.16-.05-.65.15Z"/>
      <polygon class="cls-1" points="78.83 47.1 79.06 47.1 79.1 46.92 78.83 47.1"/>
      <polygon class="cls-1" points="78.25 47.21 78.45 47.34 78.72 47.17 78.25 47.21"/>
      <polygon class="cls-1" points="106.37 26.13 106.42 26.15 106.41 26.13 106.37 26.13"/>
      <polygon class="cls-1" points="106.42 26.15 106.53 26.33 106.65 26.23 106.42 26.15"/>
      <polygon class="cls-1" points="107.43 26.67 107.57 26.79 107.71 26.67 107.43 26.67"/>
      <path class="cls-1" d="M107.3,21.44s-.2-.05-.2,0,.09.19.09.19l.44-.19h-.33Z"/>
      <polygon class="cls-1" points="108.49 21.66 108.42 21.92 108.6 22.02 108.72 21.89 108.49 21.66"/>
    </g>
  </g>
</svg>