<svg xmlns="http://www.w3.org/2000/svg" data-name="Layer 2" viewBox="0 0 118.1 71.4"><path d="M105.2 0S36.9 1.5 2.6 0C1.8 17 0 70 0 70s27.5 1.6 43.3 1.4h40.4l24.9-.5 9.4-.4v-.3c.1-.1-.3-1.7-.3-1.8l.2-.7.1-.6c0-.4-.4-1.5-.4-1.5V65l-.2-.3v-.6l-.2-.3v-.4l.2-.2-.3-.2v-.3l.1-.2v-.2l-.2-.2.1-.5-.3-.7-.5-.1v-.3l-.4-.4-.1-.5-.3-.2v-.2h-.2V59h-.1v-.6l-.1-.3-.3-.1v-.6l-.1-.4v-.4l-.1-.1v-.7l-.2-.2v-.1h-.1v-.2h-.1V55l-.1-.2-.1-.1v-.1h-.2v-.4l-.1-.3v-.4l.2-.3v-1.8l-.1-.1v-.4l-.2-.2v-.3l.1-.4h.1v-.3l.1-.3v-.6h.1v-.5l.2-.4-.1-.1v-.3l-.3.2h-.2v-.5h-.2v-.4l-.3-.1v-.8h-.3l.3-.5v-.5h-.1v-1.5l-.2-.2.2-.2-.3-.5.2-.1v-.6l-.1-.2-.1-.1.1-.2V41h-.2v-.4h.1l-.1-.2.1-.2-.1-.1v-.2l-.1-.2v-.4l.1-.3v-.8l-.2-.3.2-.1-.3-.3h.2l-.1-.2.1-.2v-.3l-.1-.3h-.2l-.1-.2.1-.2v-1.2h-.1v-.3l.1-.1v-.4h-.2v-.3l.1-.2v-1.5s-.6-.7-.5-.8v-.8l-.6-.6v-.4h-.1l.1-.3-.2-.2v-.7l-.4-.2v-.3l-.5-.4.1-.2V27l-.4-.9-.2-.1v-1l-.3-.6-.2-.2h-.1l-.1-.6v-.5l-.2-.4V22l-.6-.6v-.5l-.1-.2h-.2l-.1-.6v-.2h-.2l.3-.4h-.3v-1.1l.2-.1-.3-.2.3-.1-.2-.2v-.2l.2-.2V17l-.3-.1.3-.2v-.3h-.2l.3-.2-.1-.2-.1-.2.1-.2-.3-.1.2-.3-.4-.6.1-.1v-.3h-.2V14l.4-.3-.2-.2h.2l-.1-.3.2-.1v-.2h-.3q.2 0 .2-.4c0-.4-.2-.2-.2-.2l.1-.1-.3-.2.1-.1.1-.2-.2-.3c0-.1.4-.2.3-.3h-.3v-.2h.1l-.3-.4.2-.2-.4-.1.4-.2-.2-.3h.2v-.3l.1-.3h-.1l.2-.2v-.4h.3v-.3l.2-.3-.2-.2q.2-.1.2-.4l-.3-.3v-.2l-.4-.4.1-.2h-.1v-.4l-.2-.1v-.5l-.3-.4v-.3l-.3-.2.1-.1v-.3l.1-.1v-.6h-.2v-.3l-.2-.1v-.3l-.2-.3-.1-.5-.2-.1V1l-.1-.2V0Z" data-name="Ñëîé 1" style="fill:#172d35"/></svg>