<?xml version="1.0" encoding="UTF-8"?>
<svg id="Layer_2" data-name="Layer 2" xmlns="http://www.w3.org/2000/svg" viewBox="0 0 135.32 66.67">
  <defs>
    <style>
      .cls-1 {
        fill: #172d35;
      }
    </style>
  </defs>
  <g id="_Ñëîé_1" data-name="Ñëîé 1">
    <path class="cls-1" d="M112.91,9.99c-.16-.06-1.4-.13-1.4-.13,0,0-.24-.15-.25-.19-.01-.03-.02-.49-.12-.57-.1-.08-.9-.45-.99-.5s-.63-.12-.63-.12l-.55.29s-.14.07-.15-.08.09-.45.06-.49c-.03-.03-.28-.3-.35-.3h-1.19s-.94-.15-.96-.22c-.02-.07-.2-.5-.27-.52-.07-.02-.82-.17-.9-.24-.08-.07-.16-.15-.15-.24.01-.09.05-.31,0-.43-.06-.12-.16-.26-.27-.27s-.63,0-.71,0-.76-.26-.85-.27c-.09-.01-1.03-.08-1.12,0-.09.08-.5.39-.53.41-.03.01-.46-.08-.52-.1-.06-.02-.29-.21-.35-.2-.06.01-1.18.44-1.22.44s-.18-.01-.2-.09c-.02-.08-.14-.43-.14-.43,0,0-.38.09-.44.16-.06.07-.2.49-.37.54-.17.06-.21.13-.26.07-.05-.06-.37-.57-.44-.59-.07-.02-.3-.14-.35-.08-.05.06-.24.44-.32.49-.08.05-.27.12-.39.08-.12-.03-.26-.14-.32-.22-.06-.08-.01-.32-.18-.39-.17-.07-.32-.05-.44-.01-.12.03-.34.12-.39.16-.06.05-.11.31-.14.43s-.63,1.09-.68,1.11c-.05.02-.68.31-.78.36-.1.05-.56.1-.64.1s-.47-.14-.59-.21c-.11-.07-.88-.74-.94-.83-.06-.09-.27-.46-.41-.52-.14-.06-.6-.08-.65-.1-.06-.02-.81-.49-.86-.5-.05-.01-1.62-.59-1.68-.64-.06-.05-.66-.67-.78-.68-.11-.01-.48-.09-.53-.13-.05-.03-.28-.25-.3-.31-.02-.06-.41-1.08-.53-1.08s-10.45-.15-10.45-.15l-10.47-.13-12.93-.25-14.64-.54-14.61-.71L9.73.38l-7.13-.38-.47,7.7-.63,10.2-.59,9.59-.62,9.98-.28,5,7.01.41,12.84.68,11.01.63-.23,5.83-.35,9.15-.25,6.21,12.33.44,13.68.43,13.02.24,11.5.19h6.91l8.71-.07h10.82s4.53-.02,4.53-.02l6.19-.14,11.13-.24,6.46-.14s-.46-.59-.57-.57c-.11.02-.57.13-.63.07-.06-.06-.36-.19-.36-.31s.05-1.02.08-1.09c.03-.07.32-.49.25-.57,0,0-.07-.19-.19-.19s-.23.07-.27-.03-.17-.53-.21-.56c-.05-.02-.77-.66-.77-.66,0,0,.2-.64.17-.67-.03-.03,0-.37-.16-.44-.16-.07-.99-.29-1.01-.32-.02-.03-.17-.22-.17-.26s.08-.29.06-.35c-.02-.06-.21-.2-.25-.22-.03-.02-.77-.31-.77-.31l-.66.14.18-.38s.25-.13.27-.21c.02-.08.02-.22.02-.27s-.18-.27-.2-.34c-.02-.07-.11-.51-.11-.54s-.28-.44-.28-.54-.05-.48-.06-.58c-.01-.1-.62-.64-.55-.71.07-.07.29-.26.3-.37s-.07-.24-.01-.3c.06-.06.28-.15.3-.21.02-.06.07-.43.06-.54-.01-.12-.3-.42-.3-.42,0,0-.25.08-.27.19-.02.1-.07.58-.1.58s-.76-.09-.82-.1c-.07-.01-.35-.77-.32-.86.03-.09.18-.29.24-.37.06-.08.09-.37.08-.53-.01-.16-.52-.83-.61-.88-.09-.05-.68-.29-.72-.32-.05-.03-.88-1.21-.88-1.24s.1-.42.15-.44.48-.35.54-.44c.06-.09.12-.17.11-.3-.01-.13-.19-.45-.18-.59.01-.14.05-.56.05-.65s-.09-.32-.08-.38c.01-.06-.07-.09.08-.16.15-.07.33-.13.36-.21.03-.08.06-.24.06-.31s-.41-.72-.41-.81.12-.71.1-.85-.06-.31-.16-.37c-.1-.06-.36-.13-.39-.22-.03-.09.18-.46.08-.73-.1-.27-.45-.36-.41-.5.05-.14.3-.42.33-.63.02-.21-.12-.77-.14-.83-.01-.07-.19-.49-.17-.59.02-.1.11-.23.11-.23,0,0,.23.09.34.05.11-.05.18-.1.15-.17-.03-.07-.09-.26-.24-.26s-.8.03-.88-.01c-.08-.05-.27-.17-.26-.25.01-.08.21-.63.23-.72.01-.09-.3-1.23-.28-1.3.02-.07.2-.19.2-.19,0,0,.16-.05.17.06.01.1-.05.49-.01.49s.42-.16.43-.23c.01-.07.04-.31.01-.39-.03-.08-.18-.27-.25-.3-.07-.03-.56-.12-.6-.12s-.39-.45-.39-.45c0,0,.42-.39.42-.48s-.23-.46-.17-.57c.06-.1.17-.34.16-.39-.01-.06-.07-.21-.05-.31.02-.1.25-.39.21-.44-.03-.05-.28-.3-.28-.3,0,0-.46.05-.5.03-.03-.01-.79-.32-.79-.36s-.01-.21.03-.28c.05-.07.34-.38.34-.44s-.21-.71-.3-.67-.24.03-.26.1c-.02.07.02.24-.11.34-.14.09-.26.15-.34.15s-.53-.27-.55-.32c-.02-.06-.09-.42-.05-.51.05-.09.27-.28.24-.34-.03-.06-.56-.51-.56-.65s.3-.87.3-.94-.45-.66-.42-.78c.03-.12.03-.23.16-.28.12-.05.46-.02.5-.13.03-.1.1-.19.06-.24-.05-.06-.48-.36-.46-.45.02-.09.54-1.21.51-1.24-.03-.03-.61-.51-.61-.54s-.11-.52-.14-.6c-.02-.08-.38-.34-.45-.44-.07-.1-.36-.56-.27-.66.09-.1.32-.39.32-.46s-.07-.35-.07-.44.08-.53.07-.59c-.01-.06.05-.09-.11-.12-.16-.02-.46,0-.54-.13-.08-.13-.15-.54-.23-.57-.08-.02-.12-.07-.21.02-.09.09-.16.27-.23.27s-.12,0-.14-.06c-.01-.06.17-.6.15-.66-.02-.06-.01-.13-.15-.17-.14-.05-.56-.14-.57-.23-.01-.09.02-.46.02-.53s-.21-.5-.21-.63.06-.39-.01-.43c-.07-.03-.51-.22-.52-.26-.01-.03.09-.24-.1-.38-.19-.14-.46-.35-.48-.41-.02-.06-.11-.81-.11-.81,0,0,.43-.36.43-.45s-.14-.26-.14-.36.11-.5.06-.52c-.06-.02-.53-.39-.52-.46.01-.07-.36-.68-.38-.72-.02-.03-.56-.36-.56-.36,0,0,.05-.19.07-.22s.24-.28.26-.32c.02-.05-.05-.74-.05-.79s.37-.41.37-.56v-.71s.05-.28-.33-.3c-.37-.02-.68-.05-.88,0-.2.05-.37.27-.47.19-.1-.08-.43-.68-.63-.79-.2-.1-.25-.07-.44,0-.19.07-.3.27-.51.27s-.38-.08-.39-.15c-.01-.07.02-.61-.1-.81-.12-.2-1.33-1.04-1.26-1.19.07-.15.41-.78.38-.86s-.02-.2-.18-.26Z"/>
  </g>
</svg>