<svg xmlns="http://www.w3.org/2000/svg" data-name="Layer 2" viewBox="0 0 135.3 66.7"><path d="m113 10-1.5-.1-.2-.2s0-.5-.2-.6l-1-.5-.6-.1-.5.3-.2-.1v-.5l-.3-.3h-1.2l-1-.2-.2-.5-.9-.3-.1-.2v-.5l-.3-.2h-.7l-.9-.3h-1c-.2 0-.6.4-.6.4h-.5l-.4-.3-1.2.5-.2-.1-.1-.5-.5.2s-.2.5-.4.5l-.2.1-.5-.6h-.3l-.3.4-.4.1-.3-.2-.2-.4h-.5l-.3.2-.2.4-.7 1L93 8l-.6-.3-1-.8-.3-.5-.7-.1-.8-.5-1.7-.6-.8-.7-.5-.2-.3-.3s-.4-1-.6-1l-10.4-.2-10.5-.1-13-.3L37.4 2l-14.7-.7-13-.9L2.6 0l-.5 7.7-.6 10.2-.6 9.6-.6 10-.3 5 7 .4 12.9.7 11 .6-.3 5.8-.3 9.2-.3 6.2 12.4.4 13.7.4 13 .3 11.5.2H107l4.5-.1 6.2-.1 11.2-.3 6.4-.1-.6-.6h-.6l-.3-.2v-1.1c0-.1.4-.5.3-.6l-.2-.2h-.3l-.2-.6-.8-.6.2-.7-.1-.4-1-.4-.2-.2V60l-.2-.2-.8-.3-.6.1.1-.3.3-.3-.2-.4V58l-.4-.6V57l-.6-.7.3-.4v-.3l.3-.2v-.6l-.2-.4-.3.2v.6l-1-.1s-.3-.8-.2-.9l.2-.3v-.6l-.5-.9-.7-.3-1-1.2.2-.5.6-.4v-.3l-.1-.6v-1.2l.4-.2v-.3l-.3-.8v-.9l-.1-.3-.4-.2q.2-.2 0-.8c0-.2-.4-.3-.3-.5l.3-.6-.1-.8-.2-.6.1-.3.4.1.1-.2-.2-.2h-1l-.2-.3.3-.7-.3-1.3.2-.2h.1v.6l.5-.3v-.4l-.3-.3h-.6l-.4-.5.5-.5-.2-.6.1-.4V36l.2-.4-.3-.3h-.5l-.8-.4v-.2l.4-.5s-.2-.7-.3-.6h-.3v.4l-.4.1-.6-.3v-.5l.2-.3s-.5-.5-.5-.7l.3-1c0-.1-.5-.6-.4-.7l.1-.3.5-.1V30l-.4-.5.5-1.2-.6-.6-.1-.6-.5-.4q-.2-.3-.2-.7l.3-.4-.1-.5v-.6q-.4 0-.6-.2l-.2-.6h-.2l-.2.3h-.2l.2-.7-.2-.2-.6-.2v-.5l-.1-.7v-.4l-.6-.3v-.3l-.6-.5v-.8l.4-.4-.2-.4v-.5l-.4-.5-.4-.7-.6-.3v-.3l.4-.3-.1-.8.4-.5V14s0-.3-.4-.3h-.8l-.5.2-.6-.8h-.5l-.5.2-.4-.1v-.8c-.2-.2-1.4-1-1.3-1.2s.4-.8.3-.9z" data-name="Ñëîé 1" style="fill:#172d35"/></svg>