<svg xmlns="http://www.w3.org/2000/svg" data-name="Layer 2" viewBox="0 0 47.6 95.2"><path d="m.1 88.2-.1.5.6 2.6.5.5v.6l.5-.1.3.3.3.7.3.6 30 1.3 1-1.4c0-.1.7-.4 1-.3l1 .3-.2-2 .6-.7.9-.4 1.7.5.4-1.4.5-.5 1.2-.2.5-.2 1-.5.5-.1.4.2 1.1.7.8-.3s.1-.7 0-.8l-.2.2h-.2v-.2l.2-.4-.3-.3q.1-.2.2 0l.4.5v-.4l.4-.2v-.8c.2 0 .6-.8.6-.8l.4-1 .2-.4v-.2h.1v-.2l.3-.2v-.5l.3-.1.3-.4v-.2l-.2-.2h-1.1l.5-.3-.3-.2.2-.3-.5-.4-1.4-1.1-.6.1-.3-.1v.8l-.2.4.1.4.4.1.2.3v.2H44l-.6-.2H43l-.5.2-.2.4v-.7l-.1-.2h.3l.4-.5.2-.1.1-.2v-.3h.1l.2.2v-1l-.4-.2v-.2l.4.1h.4l.1-.3.2.4.2.1h.1v-.9l.2-1.2-.2-.3.3-.3v-.3l.2-.8-.3-.5-.4-.2-.2-.3-.4-.2-.6-1h-.4v-.2h-.2l.1-.2.1-.1V73l-.2-.1-.2-.5-.4-.3v-.2h-.6l-.5-.6v-.4s-.4-.8-.3-.9l.1-.3V69l.3-.6.2-.4v-1l-.3-.3.4-1V65l-.1-.6.2-.2v-.4l-.1-.2-.4-.5L37.9 0l-.5.3V1l-.3.2-.2.6-.4.5L36 2l-.6.1L35 2l-.6-.1-.5-.6-.3-.2-.2-.4V.6L33 .4l-.2-.2-1.1 1-.7.3q.2.2 0 .5l-.3.2-.2.4h-1.4v.2l.9.7V4l-.3.5-.4 1.1-.2.4.2.5-.1.4-.5.5-.3.7q-.3 0-.5.3l-.4.7-.1.4.3.2v.3l-.3.7h.9l-.4.5-.6-.1-.7.2v.4q-.2 0-.2.2c.2.1.6.8.6.9v.9q0 .3.2.5c0 .2.4.5.3.6l-.8 1.2-.5.4-.2.6v.5l-.5.5.1.5-.2.6-.4.3c0 .2-.5.8-.6.8l-.3.3.3.9.6 1v.7q.2 0 .3.2v.5l.3.1s-.3.1-.1.2h.3l.1.3v.2l.3.2-.2.1.2.2H26l.1.6-.2.2h.2v.2h.2v.1h.2v.3l-.3.2h-.1v.2H26l-.1.3h-.7l-.2.2.1.3.4.5-.1.5-.3.1.3.6-.1.2h-.2l-.2.5-.5.1-.1.3H24v-.1l-.2.1v.4l-.2.2-.3.7-1.1 1-.7.1-.3.3-.5-.2s-.8.3-.9.5l-.3.4v.7l-.2.3-1.2.5h-.3l-.7-.3h-.3l-.3.4h-.8l-1.6.6-.2.7-.6.5-.2.4.2.3v.5l.2.4-.5 1.8.7 1.4v.9l-.3.4v.7l.3-.1.2.1-.1.3-.2.2.2.2-.4.2-.1.3-.4.3.1.3-.3.3v.3l-.2.4-.2.1v.3H12l-.2.7v.8h.5v.3l-.3.5-.3.2v.8l-.7.6-.4.6-.3.1v.6q-.2 0-.4.3-.1.5.1.8v1.2l-.6.9v.4l-.4.3-.3.5-1 .7-.6.7-.2.7v.6l-.3.7-.1.5-.3.2v.3l-.1.3.1.6-.2.3-1 .5v.3l-.2 1-.4 1.1.4.6v.4l-.2.8v.4l-.4 2.2-.3.7v.4l.4.1q.2 0 .2.2l-.4.7v.3l.3.6-.6 1.4-.5.7v.8l-.1.5v.5L3 77l.1.5-.1.3v.9l.4 1-.2.6v.7l-.1.3-.6.6v.2l.2.4v.6l.3.5v.3l-.5.3v.5l-.1.3-1.6.6v.3s.2 1 .1 1.1l-.2.7z" data-name="Ñëîé 1" style="fill:#172d35"/></svg>