<?xml version="1.0" encoding="UTF-8"?>
<svg id="Layer_2" data-name="Layer 2" xmlns="http://www.w3.org/2000/svg" viewBox="0 0 47.56 95.24">
  <defs>
    <style>
      .cls-1 {
        fill: #172d35;
      }
    </style>
  </defs>
  <g id="_Ñëîé_1" data-name="Ñëîé 1">
    <path class="cls-1" d="M.13,88.22c-.03.11-.13.41-.13.5s.32,1.94.35,2.01c.03.07.22.49.26.54s.48.44.49.53c0,.09,0,.63.02.63s.42-.2.48-.16c.06.03.32.24.33.29,0,.05.23.72.23.72l.33.62,29.96,1.34s.92-1.37,1.02-1.46c.1-.09.77-.38.94-.32.17.06,1.03.38,1,.29-.02-.09-.09-1.88-.09-1.91s.58-.71.58-.71c0,0,.79-.45.85-.45s1.73.54,1.73.54c0,0,.43-1.42.46-1.45.02-.03.26-.36.48-.44.22-.09,1.07-.26,1.17-.27.1-.02.4-.1.48-.14s.99-.55,1.04-.57c.05-.02.31-.08.5-.06.19.02.35.17.38.2.03.03,1.12.77,1.14.75.02-.03.81-.36.79-.38-.02-.03.12-.71.07-.73-.05-.02-.07-.07-.11-.02-.04.05-.16.21-.19.2-.03,0-.2-.09-.2-.09,0,0-.11-.06-.07-.14.03-.09.27-.33.25-.37-.02-.04-.31-.34-.25-.35.06,0,.14-.14.2-.04.06.1.38.54.38.54,0,0,.04-.36.09-.39.05-.03.34-.22.34-.22,0,0-.12-.66,0-.75.12-.09.6-.82.6-.82l.33-1.06s.26-.26.26-.29-.05-.27-.05-.27c0,0,.15.05.14.03,0-.03,0-.17.06-.2.07-.03.19-.12.19-.15s.09-.48.13-.51c.04-.03.2-.12.24-.15.04-.03.22-.33.22-.36,0-.03,0-.26,0-.26l-.19-.15-.23.03s-.07-.14-.11-.13c-.04,0-.31.14-.31.14h-.43s-.09-.05-.04-.09c.05-.03.55-.2.56-.23.02-.03.02,0,.02-.06s-.28-.09-.28-.14.18-.37.15-.38c-.03-.02-.49-.3-.51-.32-.02-.03-1.27-1.14-1.34-1.15-.07,0-.57.14-.6.12-.03-.02-.34-.17-.36-.1-.02.07.02.67,0,.75-.03.08-.22.37-.22.41s.08.35.15.39c.07.04.37.13.43.15.06.03.12.19.12.28s-.02.22-.02.22c0,0-.22.1-.28.08-.06-.03-.49-.33-.56-.33s-.46.03-.48.03-.51.14-.54.17c-.02.03-.17.41-.19.41s0-.6,0-.64c0-.03-.18-.2-.11-.21.07,0,.23,0,.29-.04.06-.04.35-.45.39-.48.04-.03.24-.14.24-.14,0,0,.11-.12.11-.16s-.05-.26-.02-.26c.02,0,.1-.06.11-.03,0,.03.17.23.17.23,0,0,.07,0,.08-.08,0-.07,0-.82-.07-.88-.06-.06-.43-.25-.43-.29s.02-.17.04-.17.36.13.36.13c0,0,.36-.07.4-.09.03-.02.15-.28.16-.22,0,.06.16.35.18.37.02.03.18.12.21.12s.11-.05.11-.08.05-.33.05-.33c0,0-.08-.49-.08-.56s.17-1.07.17-1.11-.13-.26-.11-.31.27-.31.27-.31c0,0-.04-.29-.03-.35,0-.06.22-.74.22-.77,0-.03-.26-.47-.28-.49-.02-.03-.47-.16-.47-.19s-.1-.33-.18-.37c-.08-.04-.36-.09-.37-.12,0-.03-.63-.95-.63-.95l-.33-.13v-.15s-.2-.05-.2-.05c0,0,.04-.17.06-.2s.12-.05.12-.1c0-.05,0-.09-.03-.12-.03-.03-.22-.08-.22-.13,0-.05-.13-.47-.15-.49-.02-.03-.41-.35-.41-.35,0,0-.02-.16-.07-.18-.05-.02-.51.05-.54,0-.02-.06-.48-.55-.48-.6s-.08-.42-.08-.42c0,0-.31-.81-.28-.85.02-.04.14-.28.14-.35s-.08-.55-.08-.58.37-.6.41-.62c.03-.03.13-.34.14-.37,0-.03-.04-.49-.05-.52,0-.03.13-.46.1-.56-.03-.1-.33-.26-.29-.34.04-.08.41-1.02.41-1.02,0,0,.04-.55.03-.6,0-.05-.21-.54-.18-.55s.19-.15.22-.22c.03-.07,0-.28-.02-.34s-.07-.17-.1-.23-.4-.37-.41-.47L37.9,0l-.46.27s-.1.67-.1.71-.17.1-.22.19c-.04.09-.2.57-.26.67-.06.1-.28.43-.33.44-.05,0-.57-.2-.65-.17-.08.03-.55.12-.57.12s-.27-.15-.39-.17c-.12-.02-.6-.02-.66-.07-.07-.05-.39-.5-.45-.56-.06-.06-.22-.09-.27-.21-.05-.12-.17-.36-.19-.45-.02-.09-.02-.14-.08-.22-.07-.08-.3-.15-.3-.18s-.12-.21-.14-.13c-.02.09-1.13.93-1.18.95-.06.03-.65.16-.65.28s.16.42.04.49c-.12.07-.32.2-.33.24,0,.04-.17.44-.17.44h-1.46s-.07.06.03.15c.11.09.85.66.88.75s.08.28.04.35c-.04.07-.33.36-.36.53-.03.17-.33,1.08-.34,1.11,0,.03-.26.24-.23.4.03.16.25.38.22.51-.03.13-.05.3-.12.34-.07.04-.49.39-.49.51s-.25.64-.36.71c-.12.07-.36.15-.46.29-.09.14-.36.6-.39.71-.02.1-.11.41-.11.41,0,0,.24.14.26.19.02.05.02.29,0,.31,0,.03-.26.74-.26.74h.89l-.42.42s-.5-.15-.55-.12c-.05.03-.69.2-.71.28-.03.08.07.28,0,.37-.07.09-.28.07-.17.21.12.14.6.78.59.87,0,.09-.07.7-.04.92.02.22.08.42.17.54.08.12.42.45.38.52-.04.07-.84,1.24-.87,1.27-.03.03-.34.14-.46.37-.12.22-.16.49-.17.63,0,.14.04.37-.03.48-.07.1-.48.5-.48.53s.17.31.11.48c-.07.16-.18.56-.18.56,0,0-.36.16-.45.32-.09.16-.48.75-.55.81-.07.06-.36.16-.35.25,0,.09.26.87.28.91.02.04.61,1.01.61,1.08s.02.59.07.61c.05.03.28.12.27.22,0,.1-.06.51,0,.52.05,0,.29.06.24.11-.05.05-.22.13-.09.16.12.03.34-.02.37.03.03.05.08.26.08.31s-.07.2-.05.23c.02.03.34.21.34.21l-.18.09s.18.12.17.15c-.02.03-.17-.02-.16.08.02.09.08.49.07.52-.02.03-.2.17-.2.17l.22.08-.04.18s.16-.09.18-.03.02.15.06.15.13-.08.13,0,0,.26,0,.26l-.23.18s-.17-.09-.17-.04c0,.04.13.31.11.31s-.17,0-.18.04c-.02.03-.11.19-.11.19,0,0-.67.03-.69.05-.03.03-.17.09-.17.16,0,.08.1.3.1.32s.42.5.42.53-.15.4-.17.43c-.02.03-.3.12-.31.17,0,.05.35.59.32.61-.02.03-.1.1-.12.12-.02.02-.13-.09-.18,0-.05.09-.12.48-.15.49-.02,0-.5.14-.5.14,0,0-.14.26-.16.29-.02.03-.21.09-.23.04-.02-.04,0-.17-.07-.14-.07.03-.12.13-.14.16-.02.03-.04.13-.04.16s.11.13.07.15c-.04.03-.26.16-.31.26-.05.09-.21.65-.21.65,0,0-1.13.94-1.17.97-.04.03-.6.11-.67.16-.07.05-.26.26-.3.26-.03,0-.36-.18-.46-.13s-.8.27-.9.43c-.1.16-.31.43-.31.48s.03.63,0,.7-.17.22-.22.27c-.06.05-1.15.51-1.17.51s-.28.06-.31.03c-.02-.03-.68-.36-.74-.35-.06,0-.31.05-.31.08s-.21.23-.29.28c-.08.04-.65-.04-.75,0-.11.04-1.62.59-1.65.67-.03.09-.21.62-.23.66-.03.03-.59.43-.6.49,0,.06-.14.43-.13.46,0,.03.16.16.16.24s-.07.42-.02.53c.05.11.2.34.19.43,0,.09-.46,1.68-.45,1.74.02.07.65,1.34.65,1.4s-.07.37-.05.41c.02.04.15.51.14.54,0,.03-.33.3-.36.41-.03.11-.06.4-.03.47.02.07.06.2.12.19.06-.02.2-.14.24-.1.04.03.15.08.16.14,0,.07-.07.22-.09.25-.02.03-.23.16-.21.18s.2.25.17.25-.36.08-.39.15c-.03.08-.07.3-.11.37-.03.07-.32.24-.31.3.02.06.09.22.07.26-.02.03-.33.22-.33.3s.02.23,0,.32c-.02.09-.11.38-.16.4-.05.02-.26.06-.26.09s.07.29.05.29-.2-.1-.25-.04c-.05.06-.09.07-.1.12,0,.05-.19.63-.19.66s.09.33.09.36-.03.45,0,.45h.41s.12.12.1.14c-.02.03-.17.11-.17.14s-.13.45-.16.47-.31.2-.31.2c0,0-.03.82-.06.83-.02.02-.69.53-.69.53,0,0-.32.59-.37.61-.05.03-.26.14-.27.17,0,.03-.02.53,0,.55.02.03-.42.08-.41.28s.11.77.11.87-.07.57-.11.59c-.04.02.07.49.05.55-.02.06-.55.86-.55.91s.02.34,0,.37c-.02.03-.46.33-.46.36s-.24.51-.26.53c-.02.02-1.09.61-1.09.65s-.56.75-.56.75c0,0-.15.58-.17.63s.03.6.03.64-.36.63-.36.72-.1.39-.11.44c0,.05-.2.2-.21.25,0,.05.02.21,0,.26-.02.04-.18.29-.17.32,0,.03.12.54.12.57,0,.03-.18.29-.22.32-.04.03-.87.49-.9.53-.03.04-.13.09-.17.25-.03.15-.04.99-.08,1.11-.04.13-.47.96-.42,1.04s.31.43.39.59c.07.15.06.32.04.4-.02.08-.27.69-.27.75s.02.3.03.4c0,.1-.37,2.16-.41,2.24-.03.08-.31.64-.3.71,0,.08.06.29.1.34.04.05.28.14.35.17.07.03.22.09.21.14-.02.06-.45.6-.45.73s-.04.3,0,.35c.03.05.31.46.29.53-.02.07-.52,1.43-.54,1.46-.02.03-.51.63-.53.67-.02.04-.11.16-.06.26.05.1.09.45.09.51s-.16.49-.15.53c0,.04.07.41.04.47-.02.06-.31.33-.3.45,0,.12.1.47.1.47,0,0-.14.31-.15.34,0,.03-.13.77-.08.86.05.09.52.98.48,1.04-.04.06-.22.43-.2.57.02.14.03.6.03.67s-.12.28-.14.36c-.03.08-.54.5-.54.57s.02.17,0,.2c-.02.03.11.32.12.43,0,.1-.06.49-.03.55.02.07.39.43.41.49.02.06.02.27-.03.31-.05.04-.47.31-.46.36,0,.04-.05.43-.05.49s-.09.2-.12.22c-.03.03-1.48.6-1.53.67s-.08.23-.07.28c.02.05.18,1.05.17,1.11-.02.06-.17.61-.22.7s-.42.44-.46.55Z"/>
  </g>
</svg>