<svg xmlns="http://www.w3.org/2000/svg" id="Layer_2" data-name="Layer 2" viewBox="0 0 48.3 95.3"><defs><style>.cls-1{fill:#172d35}</style></defs><g id="_Ñëîé_1" data-name="Ñëîé 1"><path d="m0 73.3.2.5.5.8.3-.2h.5L3 75.7l.3.7.5.4.1.2.2.2.6-.2v.3l.1.1.3 1 .7.7H6l.2-.3.5.1.2.6.3.6v.4l.8.7.3-.5H9v.3l.4.2v.1l-.2.2.1.2.5.4.8.3v.5l.3-.2.5.2.1.4v.7l.1.2-.3.2v.2s.4 0 .4.2l.6.6.4-.2.2-.7.5-.2H15v-.2h.3c.2 0 .5.5.4.6l-.2.2.2.2h1.8l1.6.7.5.7V88l-.7 1.4-.2 1.1-.7.8-.2 1-.4.8v1.2l-.3.4.2.3-.1.3h.9l1.4-.3.5-.3v-.2c-.1 0-.7.1-.8 0l.1-.2.7-.2v-.2l-.3-.2v-.1h.4V93h.7l.2.1-.1.4-.3.1h-.3v.9l2.2-1.9.2-.4-.4-.9.3-.1s0-.6.2-.7l.4-.4v-.3L23 89l-.2.2-.3-.4v-.4l.8-.1h.1l.1.5-.1.5q.1.4.3.5l-.2.2-.3.2-.2.4v.7l.8-.8.7-1.3.5-.8-.1-.3-.6.2v-.4l-.5-.1.2-.2h.4l.1-.6.3-.2-.1.7v.1l.3-.1.2-.5.3-.2.5-1.2.6-.7v-.2l-.4-.2.3-.1V84l.7-.1.3-.3.4-.9.4-.6.3-.2.8-.3.2-.5-.2-.3H29l-.7.5-.3-.1-.2.2v.4c0 .4-.5.4-.5.4v-1l-.4-.1-.6-.1.3-.3-.3-.4.2-.1.4.2.2-.2.4.2.5-.2 1 .2.3-.4-.1-.5.2-.5h.6l.2-.3c0-.1 0-.7.2-.7l.4-.2.4.1v.7l-.3.1.2.1v.2l-.7.5v.3l-.3.5v.3h.3l1-1 1-.4 1.2-.9v-.5l-.4-.1v-.3l-.4-.1V77h-.3l-.5-.1-.4.2s-.3-.7 0-.8l.5-.3v-1l.2-.2h.2l.2-.5.1.2.4.1v.4l.4.5.4-.3-.3-.7.3-.3-.2-.3-.2-.1v-.2h.4l.1.1h.3v-.3l-.6-.5v-.6l-.3-.3v-.5h.1l-.2-.9h.2l.3.3.2.4h.8v-.2l.2-.1v.2h.7l.3.3v.5l-.1.5h.6v-.3l.4-.4-.1-.4-.8-.6-.1-.3-.2-.2V70h.3l.2-.2.3-.2V69l.3-.2.3.2v-.4h.7v-.3l.1-.3v-.3h.3v-.5h.3l.2-.1h.3l.3-.4v-.2l.2-.4.6-.2-.3-.2.2-.4.3-.1v-.3h.4l.2-.4-.5-.1-.1-.1.4-.2v-.6l-.8-.2v-.6l.3-.6-.2-.4.4-.4.1-.8.4-.1v-.2l-.4-.1.5-.3.3-.7.4-.3-.2-.2H41v-.2h.5l.2-1 .3-.6.5-.4-.1-.2h-1.2l-.5-.5h-.5v-.3h.6l.4.3h.5l.6-.3V55l.2-.5-.3-.3v-.3h-.4l-.3-.1.2-.4h.5l.2-.1h.2V53l-.8-.2.1-.3-.2-.4h.2l.4.3.4.1.2.3h.2l.1-.4.3-.4v-.4h-.3l-.5.1-.3-.1-.3-.1-.1-.1v-.2h.2l.7.1.9-.4.3.1-.2.7V53l-.5 2-.3.2.3.6-.3.9-.2 3.8-.3.6v.9h-.2l-.2.2h.3l.1.2h.1l.2-.6.1-1.4.4-2v-1.6l.7-3.5v-.5l.5-3-.4-.1h-.6l-.3.2-.5-.2-.1-.8v-.1l.3.5.4.3c.4.2.6-.3.6-.3h.4l.2-.2v-1.2l.4-1.4-.2-.2-.4.2-.4-.2-.4-.4h.2l.3.2h.2v-.3l.3.1.3.2.2-.1.3-1v-.6l.6-1.6v-1.4l.3-1.1v-.8l.1-1.3-.1-.4-.2-1.4-.3-1-.3-.3-.3-.2q-.2 0-.2.2l.2.3v.5h.4l.1.2v.4l.4 1v2.1l-.1.6h-.4v.3l-.1.2-.3-.2-.2.3V40h.2l.2-.1v-.2l.5-.4v-.6l-.7-.1-.4.2v.2h-.5l-.5.5-.1-.3 1.6-1.1h.3l.4.3v-.7l-.4-.5-1.8-.5-.9-.7-.7-.1-.5-.5h-.3l-.1.2h-.6l-.4-.3-.3.5-.6.3v-.4l-1.6-.8s0-.6-.2-.7l-.5-.4h-.4q-.2 0-.3.3l-.2.6h-.5l-.3-.1.6-.5.5-.7h.5q.3 0 .4.2l.3.3h.1l.1-.7.3-.6v-.5l.2-.6.4-.2.4-.2.3-1.2v-.5l.2-1.1.5-.4.5-.1.4-.5.1-.3.1-.5.5-.5q0-.4.3-.4l.5-.2v.4l-.4.8-.3.5-.1.6h1v-.4l.6.1.1-.1-.5-.4.5-.2.1-.4h.4l.4-.5.3-.1.4-2.2 1.2-2.3 1.4-3.6.7-3.5H48l-8.6-5.4L36 7 25.6 0l-.9.4H24l-.3.3-.1.4-.8.3v.4l-1 .8-.3.5-.2.9-.4.3-.2.6.2.4-.7 1.6-.4.5-.4.7q0 .2-.3.5l-1.7 1.2-.2.6h.2l.4-.2v.3l-.4.4-.7.3-.5.8v.3l-1 .7-1.4.7-.7.6-.1.5.2.3q.2 0 .3.2v.4l.7 1.2s.4.2.4.4l.2.8.4.7v.4l-.3.7-.4-.1q-.3 0-.3.2v.4q.3.3.2.5l-.6 1.1-.5.3s-.2.5-.3.4l-1-.1-.3.7-.5.3.2.4q.2.1.2.4l-.6 1.4v.4l.7.2v.4l-.5.5v.4l.2.6v.4l-.3.3.2.9v.5l.3.4q.2.2.5.1l.7-.3.9.1.4.3.8 1v2.1l-.2 1.3.3 1.3.9.6c.2 0 .9-.3 1-.2l.7.4.5.9.3 1.4.8.9.8.4c.2.1.7.9.7 1l.7 1.4 1 .6.7.6.6 1.2.7.7.2.5-.2.5-.3.3-.8.2-.5.3c-.4.2-.7-.3-.9-.3l-.3.2-.1.3-.3.5-.4.3-.3.5-1 .4-1 .2c-.2 0-1.1.7-1.1.7s-1 1-1.2 1l-1 .5-.3.7-.5.5-1 .5s-.5.2-.6.4l-.2.7.2 1v.6l-.5.6h-1.1l-1 .8-1.4.5-.7.1-.9-.2-.7.2-.3.4c-.2 0-1.6 1.3-1.6 1.3l.3.2-.9.5-.8 1-.4 1s0 .6-.2.6h-.2l-.5 1-.2 1-.6.7-.6.5-.1.4.2 1 .4.2.2.3.4.3.1.4-.2.5-.4.6.2.3-.2 1 .1.3s-1 0-1 .2zm43-19.9v.5z" class="cls-1"/><path d="m43 55.3-.1.3.1.3zm-.8 6-.4-.2.3.5.2.1zm-.5 1.3v-.2h-.3v.2zm-.4 2.1H41v.2h.2z" class="cls-1"/><path d="M37.6 72v.3l.4-.2.7-1.4.4-.6 1-1.9 1.2-2 .7-2 .5-1.1v-.5l-.4.5v.6l-.5.3v.5l-.4.8v.2c0 .2-1 1.4-1 1.5l-.2.7-.8 1.4v.4l-.4.1-.3.7-.2.2-.2.6-.3.1v.5zm2.4-5.1v-.3h-.2l-.3.3v.2h.3zm-.7.5-.2.3v.2l.3-.3z" class="cls-1"/><path d="M38.8 68.8v.2h.3v-.2zm-.8.7v.2l.2-.1v-.1zm-.5 1-.1.2v.2h.2v-.3Zm-.7.5-.2-.3h-.1v.3zm.4 1.5-.1.2h.2zm-4.8 4.2.6-.3v-.9l-.4.3v.2l-.2.6zm1-.7h-.2v.3h.2zm.4.9-.4-.2-.1.1v.4l.3.2v.3l1.8-1.2.6-1-.1-.7h.5l.2-.2.1-.7-.4.1-.2-.4h-1.2v.2h-.3l.3.8v.7l-.2.2-.2.1q-.3.3-.3.5c0 .2.4.1.3.2l-.4.2zm-4.1 3.6.2-.3v-.4l-.4.4z" class="cls-1"/></g></svg>