<?xml version="1.0" encoding="UTF-8"?>
<svg id="Layer_2" data-name="Layer 2" xmlns="http://www.w3.org/2000/svg" viewBox="0 0 82.65 95.25">
  <defs>
    <style>
      .cls-1 {
        fill: #172d35;
      }
    </style>
  </defs>
  <g id="_Ñëîé_1" data-name="Ñëîé 1">
    <path class="cls-1" d="M81.05,0S15.95.82,3.36,0L0,94.68l11.72.56.23-7.69,23.11.39s.06-.07-.03-.17c-.09-.1-.06-.17-.24-.2-.18-.03-.34-.06-.46-.13-.11-.07-.22-.08-.22-.2s.11-.24-.02-.27c-.13-.04-.2-.11-.24-.16-.04-.05-.27-.33-.27-.33,0,0,.1-.16.08-.22-.02-.06-.12-.22-.12-.22,0,0,.34-.31.33-.34,0-.03-.3-.09-.17-.18.12-.09.2-.4.2-.4l-.13-.08s.14-.25.09-.26-.29-.04-.26-.1c0,0,.26-.34.29-.34s24.11-.09,24.11-.09l24.66-.42-1.82-75.66.49-.02-.27-8.17Z"/>
  </g>
</svg>