<svg xmlns="http://www.w3.org/2000/svg" id="Layer_2" data-name="Layer 2" viewBox="0 0 119.9 95.2"><defs><style>.cls-1{fill:#172d35}</style></defs><g id="_Ñëîé_1" data-name="Ñëîé 1"><path d="m10 51.3-.3.6-.3.7L8 53l-.5.5-.6.2-.2.2h-.3l-.4.5-.4.3h-.2l-.2.6L3 56.7l-1.6 1.1-1.2.6-.1 5.7 11.8.2 15 .2h19.7l19.8-.3.2.2v.3l.4.4h.3l.3.4v.9l.2.1v.4h.4l.2.1.3-.2.2.1.2-.1.2.3.7.2.1.5.5.2v.2l-.3.2v.3l.2.2h.3l.2.5v.5l-.2.3.2.4v.4l.2 1H71l-.2.3.8 1v.4l.3.3v.3l.3.1v.4l.3.1h.5l.5.5v.3l.5-.1.5.2.3-.2.3.4.8-.1v.5l.4.3.4.5v.2l5.7 3.5 6.6 3.6-.3 2-.7 1.9-.6 1.2-.1 1.2h.2l.5-.4.2-.7 1-1.3h.4v-.2l.3.1.2-.2.2.2.4.2-.2-.5v-.8h.3l.1-.1v-.3l.3-.4v-.3h.2l.2-.2h.2v-.5h.7l.2-.8V84s-1.3-1.7-1.2-1.8l3.6-2.5-1-1.6.1-12.8.1-3.2h-.1l-.2-.7 2-9.2 1-4.8h-.1l-.3-1.3.1-.6h.1v-6.8l-.2-8-.2-.5-.6-.4v-.4l-.1-.5-1 .1v.4l-.2.2v.3l-.1.2-.4-.2-.1-.2v-1.1l.4-1.5.3-.3v-.3s.3-.5.2-.6l-.1-.4-.4-.6.2-.6-.1-.2v-.4l-.5-1.3v-1.7l-.6-.7.4-1.2v-.5l.2-.4v-.8l1.2-1.6V15l-.5-1.7.5-1.5-.2-1.3-.3-.7-.8-1-.2-.8.3-1.6v-.9l.3-1.2-.1-.3-.6-.6.3-1.3.2-.5c0-.1.1-.7 0-.8l-.2-.5V0l-5 .3-4.7.4-4.6.3h-4.3l-.7.3-.3-.2-.7.1V.8l-.5.1-.2.1-.2.1s0-.2-.1-.1l-.5.1v.2h.2l-.3.3h-.5l-.1.2-.5.2v-.2h-.2l-.4.4v.3l-.4.3-1 .1-.2.3-.7.4h-.2l-1 .7H66l-.2.3v.3l-.8.6v.3l-1.3 1-.4.4-.4.2L61.5 9 60 10.4l-.4.7-.4.2-.3 1-.2.2h.2l.3.4-.7 1-.1-.2-.4.3-.2.2v.1h.2v.2l-.4.3v-.3l-.6.5-.4.4-.6.5-.4.6v.3l-.2-.1-.2.1v.1l-.6.3h-.1v.2h-.4l-.2.2-1.2.5v.1l-.5.5-.6.3-1.2 1.2h.1v.3h.2l-.2.3h.4l.3-.1-.2.3.5.1v.4l-.2.3.2.3.2.1.2.3v.3l-.2.4.5-.2.4-.5v-.3l.3-.4h-.3l-.8.3-.1-.1.3-.6v-.1l.9-.6-.1.4h.1l.9-.2-.1.2h.1l-.3.5h.1l.6-.2-.3.6-.8.4-.3.2v.3l.2.1h.3l.1.2h.2l.3-.1.6-.6v-.2l.2-.2v.3h.2l.3-.3.4.1-.5.1-.1.6-.2.1s-.2-.2-.2 0l-.4.6H54l.1.6v.4l-1 .6v.3l-.3-.2h-.2v-.5l-.6.2-.4.5v.3h.4v.3h.3v.2h.2v.2l.2.1.3 2 .1 1.5v-.8h.2l.4.4v.1h-.1v.3h-.2l-.2.2h.2v.2h-.3v.8l.3.2H53l-.1.5-.3.4-.9.3H51l-.4-.2h-.7v.2l-.7.4-.4.5-1 .5s-1 .7-1 .9l-.6 1.1-.4.3v.5l-.2-.2.1-.4h-.2l-.1.3-.1-.2-.7.6-.8.1.2.4v.4-.5l-.3-.2-.3.2h-.5l-.7.5H42l.3.2v.3l.3.4v.3l-.2-.4-.2-.2H42l-.4-.3V38l.2-.2h-.9l-1-.3h-.7l-.4.2-3 .1-.8.2-1.6.7-.7-.3-1-.7-.7-.6h-.2l-.2-.1h.2v-.2l-.7-.4-.4.1-1.3-.2-1.1-.4-2.3-.2-1 .1-3.2-.2-2 .1-1.5.3-1 .3H16l-4.2 1.4-.8.3.1.3v1.5l.2.7-.4.5.2.2-.2.4h.1l1.6.4h.4l.4.4.2.6-.4.2-.3.3-.1.4.4 1 .1.6.6 1.3V48l-1 1-.5.1-.6.5-.8.3-.2.5v.4zM72.9.8h-.5L72 1l.4-.1h.2z" class="cls-1"/><path d="M71.3 1.5H71v.2l.6-.3v-.2zm-1.1.2v.2l.3-.4zm-.8.7-.2.3.7-.2v-.1zM56 15l-.8.4-.2.2.4.1-.2.4h.1l.1.2h.1l1-.8.5-.8-.5.3-.5.2-.3.3v-.3zm-1.4 1.3.1-.1v-.3l-.2.1v.3l-.2-.2-.3.1-.1.3h-.3v.6l.3-.2v.2l.3-.2v-.2h.3zM52 18.5h-.7v.4zm-1.3 3.1.1-.2h-.5v.2zm-.4 2.4-.5.1-.4.6.7-.2v-.3zm1.2.3V24h-.2v.2H51l-.2.5.2.1.2-.2zM84 95.2l1-.4.5-.3.2-.3v.4l1.1-1.5v-.3l-.2-.4V92l-1.3.3h-.5l-.2 1.5-.2.3-.4.2zm6.3-2.4.2-.2-.3-.6-.2.3.3.2zm24.6-13.3.3-.2h-.4l-.3.2.2.4zM112 82l.2.3.3.2.1-.2h.1l.2.2.2-.2.4.2.2.2v-.6l-.2-.1h-.4v-.3l.5.1v-.1l-.6-.3-.1-.2h-.2v.3l-.3.1v.2h-.3Zm3.7-.8.4.1.2.3v.5l.3-.2v-.8l-.8-.4v.3zm2.3-3.8.4-.2.2-.3h-.2l-.7.2-.3.3h-.2l-.2.4.5-.1h.2z" class="cls-1"/><path d="m87 92.8.9.4v.2h-.3q0 .2.3.2l.8-.1v-.1h-.1l.3-.1v-.4l.2.2.3.2h.2v-.4h-.3v-.2s.2-.2 0-.2l-.3-.3.5-.2.3-.1.7-.1.9.3v.5l-1.1.7-.9.4H89l-.2.2v.3l.4-.3.6-.1 1.4-.7 1.2.1 1.7-.2.2-.1-.2-.1-1.8.2-.3-.1v-.1l.5-.1-.3-.2.3-.3.1.3.1-.3h.4v.4l.1-.1.4-.4h.4v-.2h.4v-.1h.5l1-.4.3.1.4-.2.7-.1.5-.2.3-.3.9-.2.5-.6h.2v.2h.4l.4.1h.3v-.6l-.1-.1 1 .4.9-.4.2-.3.5-.1.7.1.2-.4h.3v-.1l.4.5.8-.4.1-.2-.3-.5.4.2h.5l.2-.2h.2V88h.2l.2-.3.2.3h.2v-.2l.2.1h.2l.5-.1v.2l-1.4.5-.2.2.8-.2 1.2-.6.8-.3 1-.5v-.3l-.8.5-.6.2h-.2l.3-.6.3.1v-.2l.2-.3.1.1v.3h.1v-.3l.3.1.2-.4s-.1-.1 0-.2h.7l.2.2h.1V86h.1v.2l-.7.5 5.6-3 2.3-1.4.5-.1.5-.4v-.4h-.4l-.2-.2-.3.2.1.2v.3l-.2-.1-.2-.3h-.2v.6h-.5l-.4.6h-.4l.1.3-.3.1V83l-.6.4-.5-.5h-.2l.1-.4-.4-.2h-.2v1.1l-.4-.6v-.1l-.7-.2v.1h.1v.4l-1 .6v-.3l.2-.2-.2-.4h-.1l-.3.1.3.4-.2.4h-.5l-.1-.4v.6l-.4.7-.2.3-.2-.2-.3.2v.3h.2v.3h-.4l-.6.4-1-.4v.2h-.8v-.4h.4l.4-.3.5-.8.5-.3h.3v-.5l.3.4h.3l-.2-.6.3-.3h.5v-.2l-.4-.2V82l.2-.3h.3v-.3l.7-.6v-.2l1-.3-.4.6.5-.3.3-.7h-.4l-.1-.1-.8.5h-.3l-.7 1-.8.3-.2.5-.8.5-1 1-.6.3-1.1.1-1 .4h-1l-1.3.2h-1.8l.1.2-.8-.3h-.2l.2.1.2.3h-.4l-.1.2v-.3h-.4v-.2h.3l-.1-.2-.4.2h-.3l.2.4v.4l-.3.7-.2-.2v-.2h.3v-.3l-.8.5.4.5v.1l-.4-.3h-.2V86l-1.5-.5-.3.1-.8-.6h-.1v.8h.2l.2-.3.3.2.1.6v.1l-.2-.3H97v.1l-.3-.2-.4.2h.2l-.1.3-.4-.4.3-.4-.1-.1-.8-.3-.1.6.4.5v.4l-.3-.1-.1-.3-.2.2v.2h-.5v-.5l.2-.1v.2l.1.1.1-.4-.2-.2-.2.2H94l-.6.2h-.2l-.3.4-.1.4.1.2v.9h-.1l-.4-.9-.6-.2h-.2v.4l.5.2v.3l-.2.4-.1-.4s-.4-.3-.5-.2v.9c.1 0 0 .4 0 .4l-.3-.5-.2.1-.5-.1-.2.2v-.1l-.2.1v.3h-.1l-.2-.3h-.8l-.4.9-.2.6-.8 1v.2h.3s-.6.6-.6.8z" class="cls-1"/><path d="M111 83.9h-.4l.5.3zm-11.8 8.2 3.3-1.2 4.1-2.3h-.4l-.8.6-1 .4-1 .5-.7.5-3 1.2h-1.2l-.1.3z" class="cls-1"/><path d="m99.2 91.7.1-.4H99l-.2.1-.6.2-2.3.9h-.4l-.9.4v.3l2.6-.9.6-.3z" class="cls-1"/></g></svg>