<?xml version="1.0" encoding="UTF-8"?>
<svg id="Layer_2" data-name="Layer 2" xmlns="http://www.w3.org/2000/svg" viewBox="0 0 119.93 95.24">
  <defs>
    <style>
      .cls-1 {
        fill: #172d35;
      }
    </style>
  </defs>
  <g id="_Ñëîé_1" data-name="Ñëîé 1">
    <g>
      <path class="cls-1" d="M10.06,51.26c-.04.09-.39.58-.4.64s-.19.68-.23.69c-.04,0-1.53.42-1.55.45-.01.02-.33.42-.43.45-.11.03-.61.15-.63.17-.01.02-.11.26-.2.25-.09,0-.28-.09-.33-.04-.04.04-.4.55-.43.57-.02.01-.28.22-.34.24-.06.01-.2-.05-.22,0-.02.05-.2.51-.25.62-.04.1-2.13,1.43-2.13,1.43,0,0-1.59,1.09-1.62,1.11-.03.01-1.21.59-1.21.59l-.12,5.64,11.79.25,15.05.17h8.97l10.67-.04,19.81-.28s.21.16.22.22c.01.07-.03.25.01.31s.35.4.38.41.27-.04.31,0c.04.04.26.22.28.43.02.21.14.42.12.49-.01.07-.08.28-.04.33.04.05.15.16.17.19s.05.39.05.39c0,0,.3-.07.32-.04.02.02.17.1.19.1s.27-.24.35-.2.12.1.21.11c.09.01.16-.15.21-.12.05.03.1.3.2.35.1.04.66.1.68.2.02.1.04.4.12.44.08.04.5.19.51.23s-.01.16-.06.21c-.04.04-.27.16-.27.22,0,.07-.12.24-.06.3.06.07.19.14.27.13.08,0,.27-.07.32.04.05.12.12.39.14.45.01.06.07.54.06.59-.01.06-.24.16-.22.22.02.05.17.38.18.45.01.07-.06.35-.06.35l.22,1.06s-.15-.06-.17,0c-.02.06-.24.25-.2.3.04.04.8,1.03.8,1.05,0,0-.05.31-.02.34.03.03.3.25.3.3,0,.05-.04.23,0,.25.03.01.32.08.31.16,0,.08-.04.39-.01.42.03.02.33.1.35.1s.46-.14.49-.11c.03.03.53.57.53.57l.04.31s.43-.14.45-.12c.02.02.45.22.45.22,0,0,.31-.22.35-.19.04.03.27.4.29.4s.76-.15.76-.15c0,0-.01.48.07.54.09.06.35.22.38.25.03.02.38.51.38.51l-.05.19,5.74,3.53,6.64,3.64-.33,1.88-.68,1.97-.64,1.2-.14,1.2s.17-.01.22,0c.05.01.56-.33.57-.36,0-.02.13-.68.15-.73.02-.04.72-1.15.74-1.18.03-.04.25-.15.34-.16.09,0,.28.02.28.02,0,0,.01-.18.08-.15.07.03.22.12.25.09s.22-.24.22-.24l.2.22.41.17s-.25-.49-.25-.51c0-.02.09-.42.09-.42l-.09-.35.29.1s.14-.19.14-.22-.06-.22-.02-.25c.04-.03.35-.36.35-.39,0-.02,0-.28,0-.28,0,0,.18.01.2-.01.02-.03.2-.26.22-.27.02,0,.14.07.14.04s.02-.53.09-.52c.07,0,.59.02.59.02,0,0,.21-.75.21-.77s0-.55-.04-.6c-.03-.04-1.19-1.77-1.14-1.8.04-.03,3.59-2.54,3.59-2.54l-1.07-1.63.23-12.72.06-3.23s-.15.04-.15-.04-.17-.62-.15-.71c.02-.09,1.97-9.16,1.97-9.16l1.05-4.83s-.09.02-.13-.06-.22-1.15-.25-1.2c-.03-.04.07-.6.07-.6,0,0,.09-.03.09-.09s-.09-6.68-.09-6.68l-.08-7.97s-.2-.54-.21-.57c-.01-.02-.6-.34-.59-.39s.05-.32.04-.39c0-.07-.22-.54-.22-.54l-.95.13s-.07.31-.08.36c-.01.04-.11.17-.11.19s.04.3.04.3c0,0-.13.22-.16.22s-.42-.13-.44-.17c-.02-.04-.09-.16-.09-.26s.09-.45.09-.57c0-.12-.1-.48-.1-.52s.48-1.43.48-1.43c0,0,.26-.25.27-.3s-.01-.3,0-.33c0-.02.25-.53.24-.62,0-.1-.14-.31-.17-.39-.02-.07-.44-.57-.42-.64.02-.07.22-.45.22-.51,0-.05-.12-.2-.12-.25s.09-.39.07-.43c-.01-.04-.54-1.18-.54-1.26s-.04-1.64-.07-1.7-.5-.56-.49-.66c0-.1.33-1.17.35-1.23.01-.05-.02-.5,0-.52.01-.02.23-.35.23-.39s-.01-.77.01-.83l1.17-1.62-.06-.36s-.46-1.65-.44-1.71c.02-.06.52-1.43.54-1.53.02-.1-.19-1.19-.21-1.25-.02-.06-.25-.61-.33-.71s-.75-.87-.77-.97c-.02-.1-.25-.69-.23-.81.02-.12.33-1.65.33-1.65,0,0-.06-.08-.06-.18s0-.61.04-.73c.04-.12.33-1.01.33-1.11s-.1-.32-.13-.38c-.04-.06-.56-.59-.56-.59,0,0,.19-1.17.25-1.29.06-.12.23-.36.25-.48.02-.12.06-.71.02-.81-.04-.1-.23-.48-.23-.48l.02-.5-5,.3s-4.69.39-4.77.42c-.09.03-4.45.24-4.54.24h-4.31l-.69.34s-.27-.22-.3-.21c-.03,0-.73.17-.75.14-.02-.03.06-.32,0-.32s-.37.03-.46.07c-.1.04-.27.11-.27.11l-.15.13s-.03-.19-.15-.16c-.13.03-.4.09-.43.14-.04.05-.1.17-.1.17,0,0,.31-.07.28,0-.03.07-.21.34-.28.32-.07-.02-.24-.08-.29-.07-.05,0-.26.07-.26.07,0,0-.03.19-.1.23-.07.04-.45.19-.45.19l-.09-.1.06-.1s-.14,0-.19.05c-.06.04-.33.27-.36.33s-.08.24-.11.29c-.03.05-.24.27-.3.28-.06,0-1.01.12-1.03.16-.02.04-.24.26-.24.26l-.62.43h-.2s-1,.65-1.06.66c-.06.01-.44.06-.44.06l-.26.21v.34s-.78.54-.78.57-.08.31-.1.34c-.02.03-1.2.89-1.21.93-.02.04-.26.39-.35.43-.09.04-.44.19-.48.21-.04.02-1.49,1.6-1.49,1.6,0,0-1.42,1.44-1.42,1.47s-.36.63-.36.63c0,0-.4.21-.4.26s-.34.99-.34.99c0,0-.21.18-.18.18s.25.04.27.07c.02.03.21.28.21.28l-.67,1.01-.11-.18-.37.33-.25.18v.1s.2-.08.21,0c0,.08,0,.25,0,.25l-.32.28-.06-.3s-.6.4-.61.43c0,.03-.34.49-.34.49,0,0-.62.45-.65.48-.03.03-.41.57-.41.57v.31s-.18-.15-.21-.15-.18.15-.18.15c0,0,.08.08.05.1-.03.02-.59.34-.59.34l-.19-.06s.04.17,0,.17-.29-.09-.32-.05c-.03.04-.23.29-.23.29l-1.16.48v.16s-.51.48-.52.51c0,.03-.63.25-.66.29-.03.04-1.24,1.13-1.2,1.14.05.01.16.1.16.1l.02.19s.15-.02.14,0c0,.02-.2.37-.14.37s.36.05.36.05l.28-.19s-.26.3-.21.3.51.12.51.12v.35s-.15.35-.15.35l.12.32s.25.03.28.06c.03.03.13.23.14.26,0,.03-.05.35-.05.35,0,0-.23.38-.17.38s.54-.19.54-.19l.37-.51s-.03-.21,0-.25c.02-.04.3-.44.3-.44,0,0-.24-.06-.27-.06s-.79.36-.79.36c0,0-.12-.1-.11-.14,0-.04.27-.6.27-.6,0,0-.08-.04-.05-.06s.94-.58.94-.58l-.09.38s.1.08.13.08.87-.32.87-.32l-.07.2h.14l-.35.59h.14s.56-.29.57-.26c0,.03-.34.59-.34.59l-.78.43s-.23.15-.24.21c0,.06-.02.23,0,.26,0,.03.09.13.12.13s.32-.08.32-.08l.13.25s.13-.04.15,0c.03.04.25-.05.33-.1.08-.05.66-.54.66-.54v-.28s.19-.23.19-.18-.04.3-.04.3c0,0,.19.05.19.02s.26-.27.3-.27.42.12.42.12l-.54.05-.11.6-.2.15v-.18s-.14-.12-.19,0c-.06.12-.39.59-.41.59s-.22-.04-.22-.04c0,0-.09.12-.09.17s.16.47.16.53-.05.4-.05.4c0,0-.96.57-.96.59s-.08.31-.08.31l-.17-.17s-.29,0-.28-.04c0-.03.09-.51.09-.51l-.66.23s-.4.43-.4.49,0,.29.05.31c.04.02.38.01.4.05.02.04,0,.23.03.23s.26.02.27.05c0,.03,0,.14,0,.14,0,0,.22-.11.2-.06-.02.05-.02.26-.02.26,0,0,.1.02.13.13.04.11.35,1.85.35,1.88s.14,1.57.14,1.57l.03-.82s.14-.04.17,0c.04.04.38.44.38.44v.1s-.13.08-.13.08c0,0,.09.17.04.21-.05.04-.2-.05-.24,0s-.15.19-.15.19c0,0,.18.06.18.09s.04.1,0,.13c-.05.03-.11.11-.15.09-.05-.02-.13-.19-.14-.1,0,.09-.05.84-.05.84l.35.18s-.24.09-.27.08c-.03,0-.13-.08-.13-.08,0,0-.12.46-.15.52s-.25.33-.25.33c0,0-.87.39-.91.39s-.67-.05-.74-.06-.35-.2-.41-.2-.67.09-.67.09c0,0,.02.14-.05.17-.07.03-.58.29-.64.34-.06.05-.36.47-.38.5-.02.03-.95.48-.95.53s-1.02.73-1.06.84-.62,1.15-.67,1.18c-.05.03-.34.19-.34.22s.07.23.05.28c-.02.05-.16.29-.16.29,0,0-.13-.22-.13-.25s.13-.41.13-.41c0,0-.23.02-.23.05s-.08.27-.08.27c0,0-.05-.22-.1-.17-.05.05-.65.61-.73.63-.09.02-.74.1-.74.1l.22.35-.06.4-.08-.47s-.14-.22-.19-.21c-.05,0-.27.2-.34.2s-.4-.05-.43-.03c-.03.02-.74.51-.74.51,0,0-.25,0-.24,0,0,0,.36.14.36.19s0,.31,0,.34c0,.03.27.32.27.37s-.08.29-.08.29c0,0-.04-.33-.07-.34-.03,0-.27-.24-.27-.24l-.14.08-.47-.41s-.05-.14,0-.16c.05-.02.19-.2.19-.2l-.84.07s-1-.36-1.05-.36-.59-.02-.62,0c-.03,0-.36.17-.42.18s-3.02.13-3.06.13-.59.1-.74.17c-.15.07-1.56.72-1.65.68-.09-.04-.62-.21-.66-.25-.04-.04-.97-.63-1.05-.7s-.64-.57-.67-.59c-.04-.02-.24-.02-.24-.02l-.11-.15s.19.02.2,0c0-.03-.02-.1-.04-.15-.02-.05-.71-.38-.71-.38l-.39.05s-1.22-.23-1.28-.24c-.06-.01-1.13-.37-1.17-.37s-2.22-.22-2.26-.22-1.07.14-1.07.14c0,0-3.11-.19-3.16-.19s-2.01.09-2.04.09-1.34.27-1.39.28c-.05,0-.88.31-.96.34-.09.03-.42.02-.48.03-.06,0-4.19,1.3-4.22,1.31-.03,0-.82.29-.82.29,0,0,.15.26.18.3.03.04,0,.85,0,.92,0,.07-.05.59-.03.62.02.03.21.64.2.69,0,0-.37.44-.36.47.02.02.12.18.13.23,0,.05-.11.35-.13.37-.01.02-.11.1.1.13.2.03,1.48.25,1.55.28.07.02.3.07.38.11.09.04.41.19.43.28.01.08.17.61.17.61,0,0-.31.23-.36.28-.05.04-.33.14-.35.24-.02.1-.14.36-.11.41.03.05.35.53.38.57.02.04.08.27.09.35s0,.52.08.71c.08.19.55,1.23.56,1.27s.07.36.07.36l-.11-.04s0,.1,0,.13c.01.04.14.41.12.51-.01.1,0,.25-.03.33s-.93.91-.96.93-.43.13-.53.19c-.09.05-.48.4-.58.45-.09.04-.8.25-.86.32-.06.07-.17.39-.22.52-.06.13.07.38,0,.42-.07.04-.59.44-.64.53Z"/>
      <path class="cls-1" d="M72.87.84l-.46-.09-.45.32.46-.11s.14.07.16.07.3-.19.3-.19Z"/>
      <polygon class="cls-1" points="71.29 1.46 70.99 1.46 70.99 1.73 71.62 1.39 71.56 1.21 71.29 1.46"/>
      <path class="cls-1" d="M70.18,1.66s-.08.3-.06.28c.02-.02.38-.43.38-.43l-.33.15Z"/>
      <path class="cls-1" d="M69.37,2.44s-.18.28-.18.28c0,0,.67-.13.68-.18,0-.05.03-.18.03-.18,0,0-.53.07-.53.09Z"/>
      <path class="cls-1" d="M55.93,15.07s-.7.31-.72.35c-.01.04-.17.23-.17.23,0,0,.36,0,.33.08-.04.07-.2.28-.18.33.01.06.1.09.14.13.04.04.04.13.08.13s.09-.04.14-.06c.06-.02.98-.74.99-.76.01-.03.46-.82.46-.82l-.46.37s-.48.11-.49.15c-.01.04-.3.3-.3.3,0,0-.08.06-.08,0s.06-.22.09-.25.17-.2.15-.18Z"/>
      <path class="cls-1" d="M54.57,16.32s.17-.14.17-.16-.05-.24-.05-.24c0,0-.17.06-.17.12s-.09.25-.09.25c0,0-.07-.13-.09-.14-.02,0-.37.07-.37.1s-.08.28-.08.28c0,0-.1-.07-.13-.07s-.2.02-.21.07c0,.04-.04.33-.04.36s.04.19.1.17c.07-.01.3-.21.31-.19.01.02.04.23.04.23l.25-.25s-.05-.12-.03-.13c.02,0,.28-.1.28-.1,0,0,.08-.28.09-.3Z"/>
      <path class="cls-1" d="M51.96,18.5l-.34-.09s-.33.07-.33.09-.05.1-.04.14-.01.27.05.25c.06-.02.66-.39.66-.39Z"/>
      <path class="cls-1" d="M50.67,21.6c.07-.04.11-.13.13-.17s0-.11,0-.11c0,0-.25-.03-.3,0-.05.03-.23.17-.23.17,0,0,.07.12.11.15s.22,0,.3-.04Z"/>
      <path class="cls-1" d="M50.33,24.06s-.49-.03-.54.07-.36.57-.36.57c0,0,.63-.18.65-.19.02,0,.07-.23.09-.29s.16-.17.16-.17Z"/>
      <path class="cls-1" d="M51.49,24.29s0-.19,0-.19h-.16s-.1.16-.11.19c0,.02-.22.03-.25.09-.04.07-.2.41-.16.44.04.03.19.12.21.11.02,0,.11-.13.17-.19.07-.05.29-.44.3-.46Z"/>
      <path class="cls-1" d="M84.04,95.24c.11-.01.95-.36,1-.39.05-.03.36-.28.43-.33.07-.06.21-.32.23-.32s.1.07.09.1c0,.02-.17.3-.13.27.04-.03,1.12-1.42,1.14-1.44.02-.01-.03-.31,0-.35s-.25-.38-.25-.4v-.33l-1.23.25s-.33-.1-.35-.09c-.02.01-.17.17-.17.17l-.19,1.42-.25.32s-.35.16-.33.22c.01.07.08.23.06.3-.02.07-.15.49-.14.51,0,.02,0,.11.1.1Z"/>
      <path class="cls-1" d="M90.29,92.82s.14.09.14.04c0-.04.2-.22.19-.28-.01-.07-.34-.54-.34-.54-.02.02-.2.18-.14.26.05.08.21.16.21.22s-.1.28-.06.3Z"/>
      <path class="cls-1" d="M114.9,79.48c.07-.04.26-.17.26-.17-.03,0-.27,0-.32,0-.05,0-.34.19-.33.23.01.04.17.37.2.34.02-.03.12-.36.19-.4Z"/>
      <path class="cls-1" d="M112.08,81.91s.14.35.16.39c.02.04.3.16.3.16l.06-.2s.06-.01.1.01c.04.03.25.19.25.19,0,0,.17-.22.19-.2.02.01.39.22.41.24.01.02.15.25.15.25l-.06-.64-.14-.15s-.38.1-.39.07c0-.03-.07-.28-.07-.28,0,0,.05-.1.12-.08.07.02.37.19.39.18.02-.02.12-.16.12-.16l-.63-.26-.15-.27h-.15s-.1.36-.12.36c-.02,0-.26.08-.26.1s.03.18,0,.2c-.03.02-.25.05-.25.07Z"/>
      <path class="cls-1" d="M115.65,81.22s.45.06.47.08c.02.02.14.21.16.25.01.04-.02.52,0,.52s.3-.08.3-.12-.05-.63-.05-.66.04-.16.01-.2c-.02-.04-.71-.41-.71-.41,0,0-.03.22,0,.28.03.06-.18.25-.18.25Z"/>
      <path class="cls-1" d="M117.99,77.39c.06-.02.42-.17.46-.2.04-.03.19-.25.19-.25,0,0-.06.01-.19,0-.13-.01-.77.15-.78.19-.01.04-.14.27-.22.27s-.23-.09-.23-.09l-.25.54.55-.19s.12.09.16.07c.04-.01.25-.31.3-.34Z"/>
      <path class="cls-1" d="M87.09,92.83s.78.33.78.37.04.18,0,.19c-.04.01-.26.1-.26.1,0,0,.19.17.27.15.09-.03.8-.15.8-.15l-.03-.13-.07-.03.36-.04s-.1-.4-.04-.41c.06,0,.17.13.25.22.07.09.17.21.22.21s.22.04.23-.01c.01-.06-.07-.41-.07-.41l-.22-.07v-.15s.17-.14.06-.2c-.12-.06-.4-.21-.36-.23s.42-.21.49-.19c.07.01.09-.13.3-.16.22-.03.58-.12.68-.13.1-.01.88.27.91.37.03.1.06.36-.07.48s-.85.55-1.07.67c-.22.12-.77.37-.82.39-.06.01-.46,0-.46,0,0,0-.19.16-.19.21s-.04.33,0,.31c.04-.01.36-.25.46-.3.1-.04.42-.07.56-.12.14-.04,1.39-.67,1.43-.67s.95.1,1.19.1,1.68-.13,1.72-.16.16-.14.16-.14c0,0,.01-.16-.19-.13-.2.03-1.74.22-1.78.22s-.33-.1-.33-.1l-.07-.1.58-.09v-.09s-.27-.15-.27-.15l.22-.21.17.21s.06-.3.1-.3.33,0,.33.04.06.37.06.37c0,0,.09-.08.1-.12.01-.03.3-.3.36-.33.06-.03.2-.1.25-.09.04.01.2,0,.2,0,0,0-.01-.1.06-.1s.27.06.29.01c.01-.04-.01-.19.06-.19s.29.09.43.03c.14-.06.97-.34.97-.34,0,0,.23.1.32.09.09-.01.38-.27.48-.27s.51-.04.62-.06c.12-.01.51-.16.55-.19.04-.03.25-.28.25-.28l.9-.19.55-.67h.14s-.03.21.03.21.32-.01.39,0c.07.01.38.16.46.16s.22-.01.25-.06c.03-.04.06-.37.06-.37l-.12-.18-.03-.13s.85.37.94.36c.09-.01.9-.25.93-.31s.14-.34.26-.37c.12-.03.38-.12.52-.12s.52.16.61.16.12-.36.22-.37c.1-.01.26.01.3,0,.04-.01.1-.19.1-.19,0,0,.26.59.33.55.07-.04.84-.43.84-.43l.07-.21-.35-.51s.4.24.48.24.42-.03.48-.06c.06-.03.19-.15.19-.15l.22.1-.09-.28s.19.03.23-.01c.04-.04.22-.36.22-.31s.17.31.17.31h.25s.03-.16.03-.16l.13.1s.2-.12.25-.13.46-.03.46-.03c0,0,.03.16-.01.18-.04.01-1.42.51-1.42.51l-.19.25s.67-.18.87-.25c.2-.07,1.13-.52,1.13-.52,0,0,.77-.36.82-.39.06-.03,1.03-.42,1.03-.42,0,0,.13-.37.07-.34-.06.03-.77.49-.85.52-.09.03-.59.22-.59.22l-.2-.1.3-.51.27.1-.06-.19.22-.33s.13.06.13.1-.03.28-.03.28h.17l-.03-.24.29.1.19-.42s-.14-.16-.03-.19c.12-.03.77,0,.77,0l.16.21.13-.12-.03-.12.16.03.03.15-.75.48s.01.12.06.12,5.52-3.15,5.52-3.15c0,0,2.28-1.32,2.34-1.35.06-.03.35-.04.42-.1.07-.06.52-.39.52-.39l.07-.24v-.17h-.45l-.17-.14-.36.14s.1.2.12.25c.01.04.06.27.06.27,0,0-.29-.04-.3-.12-.01-.07-.17-.31-.17-.31,0,0-.16-.03-.19.1-.03.13.04.45,0,.51-.04.06-.41.06-.51.1-.1.04-.35.46-.42.48-.07.01-.39,0-.39,0,0,0,.22.27.17.31-.04.04-.33.13-.33.13v-.25l-.59.46s-.51-.58-.55-.56c-.04.02-.19,0-.19,0l.12-.35-.36-.24-.24.11s-.06.26-.06.33v.7l-.32-.56.06-.16-.77-.21-.1.12s.16.01.19.09c.03.07.09.28-.03.36-.12.07-.94.52-.94.52l-.07-.24.12-.03s.07-.07.07-.15-.19-.4-.19-.4l-.1-.07-.25.17s.22.3.23.36c.01.06-.12.36-.12.36h-.53l-.12-.34s.07.55,0,.59c-.07.04-.33.64-.35.68-.01.04-.25.28-.25.28l-.22-.13-.22.13v.3h.1s.06.03.06.09,0,.24-.09.24-.23-.06-.27,0c-.04.06-.64.4-.64.4l-.97-.37-.09.21-.58-.1-.17.1v-.43s.29-.01.36-.04c.07-.03.35-.13.42-.24.07-.1.51-.83.51-.83l.52-.33s.26-.01.3-.04.06-.45.06-.45l.27.37.22.07-.19-.67.35-.3s.16.06.25.08c.09.02.26.05.27,0,.01-.05.04-.28.04-.28l-.48-.19s-.06-.07-.04-.12c.01-.04.23-.27.29-.31.06-.04.27-.06.29-.1.01-.04-.09-.15-.01-.21.07-.06.65-.61.65-.65s.09-.19.09-.19l.95-.28-.38.58.45-.3.32-.73-.39.07-.16-.15s-.67.5-.71.5-.32.01-.32.01l-.72.99-.78.28-.27.58-.75.43s-.93.97-1.01,1.03c-.09.06-.51.28-.56.3-.06.01-1.16.12-1.16.12,0,0-.94.36-.98.36s-.98-.04-1.03-.04-1.26.24-1.3.24-1.74-.01-1.74-.01l.09.21s-.74-.31-.78-.31-.19.04-.19.04l.19.12.16.28-.35-.1-.16.25v-.3h-.36s-.07-.1,0-.12c.07-.01.26-.09.26-.09l-.12-.15-.32.25-.35-.03s.19.27.2.37c.01.1.03.34.03.39s-.33.77-.33.77l-.16-.21v-.24l.26-.07.04-.21-.88.52.42.42s.01.15-.03.15-.32-.3-.32-.3l-.23-.03-.07-.22-1.45-.45-.29.13-.77-.59s-.12-.01-.12.03v.73s.17-.06.22-.1c.04-.04.2-.16.2-.16,0,0,.25.04.28.12.03.07.14.59.14.59l-.12.18s-.04-.31-.09-.34c-.04-.03-.22-.06-.22-.06v.19l-.28-.22-.43.19s.17.04.16.09c-.01.04.01.27-.07.22-.09-.04-.35-.45-.35-.45l-.16-.04.33-.31s-.06-.12-.13-.15-.8-.21-.8-.21c0,0-.12.42-.09.51.03.09.39.57.39.57l-.03.36-.22-.09-.15-.27-.2.16s.01.1,0,.19c-.01.09-.49-.07-.49-.07v-.42s.23-.18.23-.13v.28s.06.18.1.1c.04-.07.13-.34.12-.42-.01-.07-.19-.19-.19-.19,0,0-.12.15-.26.15s-.38-.1-.45-.07c-.07.03-.58.34-.62.34s-.16-.06-.26,0c-.1.06-.25.34-.26.39-.01.04-.1.31-.1.39s.13.22.13.22c0,0-.06.28-.06.33s.12.57.12.57c0,0-.2.1-.19,0,.01-.1-.35-.91-.35-.91,0,0-.53-.24-.62-.24s-.2.04-.2.09v.33s.46.18.49.22c.03.04.06.22.03.28-.03.06-.23.4-.23.4l-.14-.4s-.4-.33-.45-.21.01.45,0,.51c-.01.06.06.27.07.36.01.09-.09.46-.09.42,0-.04-.29-.51-.33-.48-.04.03-.16.13-.16.13l-.48-.16-.2.18-.12-.07-.16.12s.06.28.06.29-.13,0-.13,0c0,0-.14-.29-.19-.29s-.26.04-.3.03c-.04-.01-.13-.12-.22-.1-.09.01-.16.01-.23.13-.07.12-.46.61-.48.79-.01.18-.12.55-.13.64-.01.09-.82.94-.82.94l.07.21s.23-.09.22,0-.56.67-.61.82c-.04.15,0,.49,0,.49Z"/>
      <path class="cls-1" d="M110.95,83.89h-.32c.01.06.42.4.42.36s-.1-.36-.1-.36Z"/>
      <path class="cls-1" d="M99.22,92.11c.1-.06,3.24-1.16,3.3-1.2.06-.04,4.12-2.26,4.12-2.26,0,0-.43-.04-.46,0-.03.04-.65.48-.74.54-.09.06-.85.42-.95.45-.1.03-1.16.49-1.16.49l-.65.46s-2.99,1.19-3.07,1.2c-.07.01-1.11.1-1.11.1l-.1.22s.23-.04.27,0c.04.04.45.06.55,0Z"/>
      <path class="cls-1" d="M99.19,91.67c.04-.07.16-.4.16-.4h-.4s-.04.13-.2.18c-.16.04-.69.15-.69.15,0,0-2.1.77-2.23.87-.13.1-.23-.12-.43,0-.2.12-.85.42-.85.42l-.1.26s2.56-.77,2.68-.82c.12-.04.54-.33.58-.36.04-.03,1.46-.22,1.5-.3Z"/>
    </g>
  </g>
</svg>