<?xml version="1.0" encoding="UTF-8"?>
<svg id="Layer_2" data-name="Layer 2" xmlns="http://www.w3.org/2000/svg" viewBox="0 0 84.04 95.24">
  <defs>
    <style>
      .cls-1 {
        fill: #172d35;
      }
    </style>
  </defs>
  <g id="_Ñëîé_1" data-name="Ñëîé 1">
    <g>
      <path class="cls-1" d="M82.02,36.03s.4-.12.44-.12.35.27.49.22c.14-.05.48-.34.54-.36.06-.02.56-.21.56-.21l-.2-9.68-.25-13-.24-12.87s-2.2.91-2.23.94c-.03.03-1.51.65-1.54.66-.03,0-.69.09-.75.13-.06.05-.42.3-.45.3h-.38s-.24.21-.3.24c-.06.03-1.54.76-1.58.79-.05.03-1.79.35-1.89.43-.1.08-2.25,1.08-2.31,1.13-.06.06-2.01,1.19-2.05,1.22-.04.03-.5.23-.53.23s-.48,0-.5,0c-.02,0-1.83,1.22-1.88,1.28-.06.06-1.06,1.03-1.07,1.07,0,.04-.71.96-.74.98-.03.02-.86.51-.95.57-.09.07-1.56,1.62-1.56,1.62l-1.93,1.47s-.54.27-.58.28c-.05,0-.98-.25-.98-.25l-1,.3-1.19-.07s-1.87-.67-1.91-.67-3.13,1.09-3.21,1.14c-.07.06-1.5,1.1-1.54,1.11-.04,0-1.35,0-1.35,0,0,0-.6.13-.67.17-.06.04-1.43.88-1.45.89-.03,0-.4.17-.45.2-.06.03-.55.09-.61.08-.06,0-1.75-1.03-1.75-1.03l-1.84-1.88-.06.23s.23.07.25.1c.02.03.82,1.03.88,1.1.06.07.52.37.53.41,0,.04.04.16.04.16,0,0-.75-.39-.8-.44-.05-.05-.15-.25-.15-.25l.02-.15s-.15.08-.18.08-.33-.02-.32-.05c.02-.03.25-.21.25-.21,0,0-.42,0-.47,0-.06,0-.25-.16-.28-.16s-.39.18-.39.18l-.09-.24-.07.39s-.53.06-.57.05c-.05,0-.57-.55-.6-.57-.03-.02-.19-.12-.24-.12s-.2.02-.2.02l-.08-.12s-.05.33-.07.38c-.03.05-.41.39-.41.39l-.26.13-.39-.04-.82.59-.57-.2s-.31-.71-.33-.71-.26.11-.26.11l.19.26-.04.1s-.26-.05-.29-.03c-.03.02-.16.23-.16.23,0,0-.06-.17-.05-.2.02-.03.09-.25.09-.25,0,0-.3-.16-.33-.16s-.45.14-.54.11c-.08-.03-.42-.14-.42-.14l.12-.22s.7.02.73.02.27-.18.27-.18c0,0,.12.13.15.13s.24-.15.24-.15l.19.03s.27-.59.32-.59h1.39s.82-.29.85-.29.31.28.31.28c0,0,.19-.3.24-.33.05-.03.36-.12.46-.12s.39.16.42.16.36-.24.36-.24c0,0,.5-.02.52.02.02.04.22.43.22.43,0,0-.13-.63-.13-.66s.14-.18.14-.24-.04-.31-.06-.33c-.03-.02-.78-.18-.78-.18l-1.2.39.03-.25.46-.14-.33-.52-.25.3-.14.4-.91.51v-.17l.42-.16.24-.26.32-.68.19-.08-.3-.51s-.19.03-.23.05c-.04.02-.25.24-.26.27,0,.03.1.53.1.53l-.42.69-.44.33s-.75.07-.78.07-.59-.24-.62-.28c-.03-.04-.87-.54-.88-.57,0-.03-.42-.38-.45-.45-.04-.07-.57-.83-.63-.93-.06-.1-.99-.56-1.06-.56s-.92-.12-.99-.15c-.07-.03-.57-.34-.6-.34s-.38.04-.38.04c0,0,.11-.21.07-.27-.04-.06-1.14-.85-1.14-.85l-.61-.06s.09-.12.15-.15c.06-.03.23-.04.23-.04l-.65-.55s.1.14,0,.28-.26.29-.44.3c-.19,0-1.27-.07-1.32-.12-.05-.06-.33-.31-.39-.35-.06-.04-.41-.29-.41-.29l.32-.27v-.42s-.08.16-.13.19c-.05.03-.26.1-.29.13-.03.03-.16.06-.16.06v-.12l-9.06.26-13.2.19-2.93.04-.21,10.6-.27,12.19-.59,19.29-.8,26.63s.67-.17.7-.24c.04-.07.39-.57.48-.63.09-.06.24-.11.3-.1.06.02.34.11.39.19.05.08.66.95.69.98.03.03.62.24.69.31.07.07.19.27.27.3.07.03.3.19.45.18s.56-.06.73-.14c.18-.09.67-.51.69-.5.03,0,.44.19.51.19s.28-.02.36-.1c.08-.08.44-.54.49-.55.06,0,.35-.08.42-.03.06.05.34.34.37.45.03.1,0,.77.02.87.03.1.17.45.19.48.03.03.55.21.61.23.07.02.68.15.77.15s.44.26.49.31c.06.06.35.24.37.4.02.16.35,1.39.36,1.44,0,.05.94,1.66.98,1.72s.09.27.11.45c.02.18-.11.94-.06,1.04.05.1.27.71.32.77.06.07.26.2.36.23s.97.25.97.25c0,0,1.37.55,1.41.56.04,0,.68,0,.74,0s1.72-.3,1.72-.3l.64.39s1.01.23,1.03.26c.02.03.41.4.44.48.03.08.13.61.21.71.08.1.88.47.92.51.04.05.36,1.15.43,1.19.06.04.95.26.95.26,0,0,.96.46,1.02.48.06.02.27.05.31,0,.04-.05.21-.24.23-.29.02-.05.18-.98.23-1.02.06-.04,2.04-.63,2.1-.63s.3.02.44.1c.14.08.87.73.87.73,0,0,1.3.24,1.33.25.04,0,.41.1.61.21.2.1.62.45.62.48s.15.73.19.76c.04.03.45.31.45.31,0,0,.96-.84.99-.83.03,0,.95.33.95.33l.89-.12s.41-.34.44-.4c.03-.06.39-.9.44-.94.06-.05,1.06-.53,1.07-.56.02-.03.47-.79.56-.85.08-.06.31-.1.37-.1s.69.09.69.09c0,0,.95-.53,1.05-.57.09-.04.54-.16.6-.15.06,0,.29.13.31.23.03.1.12.29.12.38s-.17.93-.15,1.04c.02.1.34.62.34.69s.02,1.27.06,1.37c.04.1.12.3.22.56.1.27.45.51.54.56.08.05.56.24.62.26.06.02,1.2.08,1.23.1.03.03.51.38.58.45s.75,1.26.9,1.38.71.42.74.48c.03.06.37,1.37.41,1.43s.36.3.5.32c.14.03.69,0,.83,0,.14,0,2.18-.81,2.22-.82.05,0,.91,0,1.02-.02.11,0,.54-.14.65-.23.11-.09.34-.48.34-.48,0,0,.15-.94.16-.98s.32-2.04.35-2.11c.03-.07.33-.46.54-.44.2.02.88.16,1.02.13.14-.03.51-.15.56-.24.05-.09.19-.69.19-.82s-.14-.6-.17-.7c-.03-.1-.2-.52-.2-.65s.16-.78.15-.89c0-.1-.27-1.01-.29-1.08-.02-.07-.44-.42-.44-.54s.12-.55.19-.64c.06-.09.6-.5.75-.55.15-.06.42-.28.45-.35.04-.08.18-.45.19-.57s-.12-.8-.08-.92c.04-.12.25-.48.37-.59.12-.11.6-1.46.66-1.53.06-.08.78-.68.84-.72.06-.05.21-.68.23-.71.02-.03.2-.14.31-.11.1.03.38.07.44.12.07.06.41.81.49.82s.54-.08.59-.07c.06,0,.2.12.25.22.05.1.31.58.34.69s.23.68.25.73c.02.06-.39.62-.41.71-.02.09-.08.23-.08.28s.24.32.27.35c.03.03.32.16.38.16s.26,0,.32-.06c.06-.06.51-.42.53-.48.02-.06.19-.87.27-.95.08-.09.15-.31.24-.32.09,0,.39.08.42.12.03.05.36.35.49.36.13,0,.32-.02.33-.05.02-.03.09-.23.05-.31-.05-.09-.36-.66-.35-.71,0-.05.28-.78.3-.84s-.04-.48-.06-.55c-.02-.08-.73-.78-.73-.91s-.19-.73-.12-.78c.06-.05.2-.05.34-.04.14,0,.32.07.38.07s.33-.13.41-.24c.07-.1.17-.47.17-.56s.02-.66.02-.73-.25-1.08-.24-1.12c0-.05.56-.89.58-.91.03-.02.61-.24.61-.27s-.09-.71-.05-.84c.05-.13.38-.5.44-.52.07-.03.56-.08.68-.08s.56.07.58.07.74.18.76.15c.02-.03.26-1.91.26-1.91,0,0,.18-.27.27-.33.09-.07.74-.4.81-.47.06-.07.66-.87.73-.93.07-.07.38-.1.47-.06.09.05.31.17.38.27.07.1.45,1.08.5,1.17.05.1.27.26.35.28.08.02.49-.05.53-.07s1.4-1.02,1.47-1.04c.07-.02.29-.09.44-.1s.57.02.64-.03c.06-.05.21-.61.37-.75s.41-.53.56-.6c.15-.07.84-.18.88-.28.04-.1.67-1.3.75-1.36.08-.07,1.41-1.53,1.41-1.53,0,0,1.52-1.52,1.56-1.54.04-.02.76-.06.82-.1.06-.05.24-.28.27-.3.03-.02.24-.71.24-.84s-.03-.82.04-.88c.06-.06.44-.23.48-.3.05-.08.14-.24.11-.3-.03-.06-.68-.95-.7-1.04-.03-.09-.12-.28-.07-.39.06-.11.82-.85.84-.93.03-.09-.13-1.13-.06-1.19.06-.06.75-.55.72-.64-.03-.09-.35-1.09-.35-1.09,0,0,.25-.13.28-.13s.48.25.55.21c.07-.04.15-.13.17-.18.02-.05-.14-.78-.12-.88.02-.1.4-.72.43-.77.03-.05-.07-.92-.06-1.02.02-.1.16-.94.16-.98s-.16-.58-.14-.64c.02-.06.57-.72.57-.78s-.03-.91-.03-.91c0,0,.12-.58.15-.63.03-.05.56-.89.57-.91,0-.03.25-1.16.3-1.25s.65-.6.68-.67c.03-.07-.04-.46-.02-.51.02-.05.36-.84.37-.92,0-.09-.26-.72-.26-.79s.06-.51.05-.58-.44-.49-.43-.51c.02-.03.27-.26.31-.33.04-.08,0-.7,0-.78.02-.09.32-.98.29-1.05-.03-.07-.44-.83-.47-.93-.03-.1-.19-.6-.19-.69s-.29-.55-.33-.63c-.05-.08-.31-.29-.34-.39-.04-.1-.08-.22-.04-.3.05-.09.74-.91.77-.91Z"/>
      <path class="cls-1" d="M39.46,7.37c.06.02.25,0,.26,0s.13.11.13.11c0,0,.07-.04.07-.07s-.02-.25-.05-.27-.29-.13-.29-.13c0,0-.19.33-.13.35Z"/>
      <path class="cls-1" d="M39.85,8.48l.17-.45.43-.14v-.17s-.69.18-.71.22c-.02.04-.17.23-.15.28.02.05.26.27.26.27Z"/>
      <path class="cls-1" d="M39.69,8.9l-.19-.28s-.23.35-.23.41v.52s.09.07.12.07.7-.6.7-.64.1-.36.1-.36c-.03,0-.19.05-.27.08-.07.03-.24.2-.24.2Z"/>
      <path class="cls-1" d="M42.13,10.06s-.16-.21-.16-.21l-.12-.09s-.24-.07-.31.07c-.06.13-.22.4-.21.47,0,.07.09.2.12.2h.2c.06,0,.31.24.36.25.06,0,.38-.31.39-.34,0-.03.03-.16,0-.19-.03-.03.08-.46.08-.46,0,0-.34.34-.36.31Z"/>
    </g>
  </g>
</svg>