<svg xmlns="http://www.w3.org/2000/svg" id="Layer_2" data-name="Layer 2" viewBox="0 0 84 95.2"><defs><style>.cls-1{fill:#172d35}</style></defs><g id="_Ñëîé_1" data-name="Ñëîé 1"><path d="M82 36h.5l.4.1.6-.3.5-.2-.2-9.7-.2-13L83.4 0 81 1l-2.7 1H78l-.3.3-1.6.8-1.9.4L72 4.6 70 6l-.6.2h-.5L67 7.4l-1.1 1-.7 1-1 .6-1.5 1.6-2 1.5-.6.3-1-.3-1 .3H57l-2-.7-3.1 1.1-1.6 1.1H49l-.7.2-2 1-.5.2-1.8-1-1.8-2v.3h.2l.9 1.2.5.4v.1L43 15l-.1-.2v-.2h-.5l.3-.2h-.5l-.3-.1-.4.1v-.2l-.1.4h-.6l-.6-.5-.3-.1h-.2v-.1l-.1.3-.4.4-.3.2h-.4l-.8.5-.6-.2-.3-.7-.2.1.1.3h-.3l-.1.3-.1-.2v-.3l-.2-.1h-1l.1-.3h.8l.2-.2.2.2.2-.2h.2l.3-.5h1.4l.9-.3.3.3.2-.4.5-.1.4.2.4-.3h.5l.2.5-.1-.7.1-.2V12H41l-1.2.4V12l.5-.1-.4-.6-.2.3-.2.4-.9.6v-.2l.4-.2.3-.2.3-.7.2-.1-.3-.5h-.2l-.3.3.1.5-.4.7-.5.4h-.7l-.7-.2-.8-.6-.5-.5-.6-.9-1-.6-1-.1-.7-.3H32V9l-1.1-.8h-.6l.1-.2h.3l-.7-.6v.3l-.4.3-1.6-.1-.3-.3-.5-.3.4-.3v-.4l-.2.2-.3.1H27L18 7l-13.3.2h-3L1.8 18l-.4 12-.6 19.4L0 76.1l.7-.3.5-.6.3-.1.4.2.7 1 .7.3.2.3.5.2.7-.2c.2 0 .7-.5.7-.5l.5.2.4-.1.5-.5h.4l.4.4v.8l.2.5.6.3.8.1.4.3.4.4.4 1.5 1 1.7v1.4l.3.8.4.3 1 .2 1.4.6h.7l1.7-.3.7.4 1 .2.4.5.2.7 1 .5.4 1.2 1 .3 1.3.5.2-.3.2-1 2.1-.7.5.1.8.7 2 .5.6.5.2.7.4.4 1-.9 1 .4.9-.2.4-.4.5-1 1-.5.6-.8.4-.1h.6l1-.5.7-.1.3.2.1.4-.1 1 .3.7v1.4l.3.5q.2.4.5.6l.7.2 1.2.1.6.5s.7 1.3.9 1.4l.7.5.4 1.4.5.3h.8l2.3-.8h1l.6-.3.4-.4.1-1 .4-2.1q.1-.3.5-.5l1 .2.6-.3.2-.8-.2-.7-.2-.7.2-.8-.3-1.1c0-.1-.5-.4-.5-.6l.2-.6.8-.6.4-.3.2-.6v-.9l.3-.6.7-1.5.8-.7.2-.7.4-.2.4.2.5.8h.6l.2.1.4.7.2.8-.4.7v.2l.2.4.4.2.3-.1.5-.5.3-1 .2-.3.5.2.4.3h.4V81l-.3-.7.3-.9V79c-.1-.1-.8-.8-.8-1l-.1-.7h.7l.4-.2.2-.6v-.7l-.3-1.1.6-1 .6-.2v-.9l.4-.5h1.3l.7.2.3-2 .3-.3.8-.5.7-.9h.5l.4.2.5 1.2.3.3.5-.1 1.5-1 .5-.1h.6c0-.1.2-.7.4-.8l.5-.6.9-.3.8-1.4 1.4-1.5 1.5-1.5.8-.1.3-.3.3-.9V61l.5-.3v-.3l-.6-1v-.5l.8-1s-.2-1-.1-1.1l.7-.6L79 55l.2-.2.6.3.2-.2-.2-1 .5-.7v-2.6l.5-.8v-1l.1-.5.6-1 .3-1.2.7-.7V45l.3-.9-.2-.8v-.6l-.4-.5.3-.3V41l.3-1-.5-1-.2-.7-.3-.6-.3-.4V37l.7-.9Z" class="cls-1"/><path d="M39.5 7.4h.4v-.3h-.3zm.4 1.1L40 8l.5-.1v-.2l-.8.2-.1.3zm-.2.4-.2-.3-.2.4v.6l.8-.6v-.4l-.2.1zm2.4 1.1H42l-.1-.1s-.3-.1-.4 0l-.2.5.2.2h.2l.3.3.4-.4v-.6z" class="cls-1"/></g></svg>