<svg xmlns="http://www.w3.org/2000/svg" data-name="Layer 2" viewBox="0 0 127 66.7"><path d="m126.8 66.5.2-.3V33l-2.1-13-1.4-8.4-.3-9.5-35 .6-24.3-.3-22-.3L15.2.8.6 0 0 9.5l44 2-.9 37.2.8-.4.5.2c.2 0 .7.6.8.7l1.7 2.2.5.4.1.3 1.6.2.2-.3.2-.4h.8l1.2.8h.5l.4-.6v-.7l.3-.3.7.9.8.3v.4l.8.9v1.2l.1.7 1 .6h1.4l.8-.1.5.1.5.8.4.2h.7l1.6.7.7-.3.6-.4h.8l2.2 1.9.7-.4.5-1 .3-.3h.3l1 .4s.5-.2.6-.1l1 .3h.2l.7-.8.3.6v.6l-.4.3.1.4.4.2-.2.2.2.6.5.2h.6l.4-.1.6.3v.4l-.2.5.1.3-.4.5v.2l1.6.7.5-.1.6-.5h.3v-.5h.3l.1-.4.6-.2.4-.7.4-.2.5.2.3.3h.3v.8l.3.3h.5l.7-.2.5.2q.3.2.2.4l-.1 1 .4.2h.7l.5-.3.2-.7.2.3.1-.3.1-.2.6.3h.2l.4-.7h.5l.3.2.2.9-.1.3q-.2 0-.4.4v.3l.2.3v.2l.4.7.5.3.6-.3.1-.6s-.2-.6-.1-.7l.7-.4-.1-.2-.6-.2.1-.2h.3l.4.2h.3c0-.2.5-1 .6-1l-.3-.9.2-.2.2.3.5-.3h.4q.2 0 .1.4t.2.7l.4.7.2.1.5-.3h.3l.6.7h.5l.5-.3.1-.5.2-.6.3-.2.3.3.7.2s-.5.5-.4.7l.1.3.7.4h.6l.4.8.7-.1h.4c.1.1 1 1 1 1.2l.1.5q0 .2.3 0 .4-.2.5-.5l.1-.9.4-.1.7.4.6-.2.3-.5.1-.6.3-.1.2-.4h.3l.1-.2.9.2.3-.3.1.2.2-.1.1-.4.3.3.5-.1V62l.5.2 1 .7.3-.1s.2-.4.3-.3l.6.2.1-.2v-.6l.3-.2.4.3.3-.2.4-.2.5-.1.4-.3v-.3l.7.2.1.6.3.3.4-.3.2.4c.2.2.5-.3.5-.3q0 .2.2.3l.7.1h1l.1-.4.6.3.3-.2v-.6l.1.4.2-.1.1-.8q0-.4.4-.5l.5.2.4.2h.5l.2.3-.2.3h.2q.2-.2.5-.2l-.2.5h.3l.1-.5.1.3.2.1.2.6h.6l.2.2.3-.2.1.3.4.3-.2.4h.7l-.1.5.7.6.3.1h.4l.3.1.3-.4h.3q.2 0 0 .1l-.3.3v.1h.5l-.2.3h.2s.1-.4.2-.2l.3.6.4.1.4-.1.2.1-.2.3.2.2.4-.4.3.2.2.1.2-.3v.6c0 .2.4-.3.5-.3v.2l-.2.3v.2l.6-.3-.1.3q0 .3.1.2c.1 0 0-.4.2-.3s0 .2.1.2" data-name="Ñëîé 1" style="fill:#172d35"/></svg>