<?xml version="1.0" encoding="UTF-8"?>
<svg id="Layer_2" data-name="Layer 2" xmlns="http://www.w3.org/2000/svg" viewBox="0 0 127.04 66.67">
  <defs>
    <style>
      .cls-1 {
        fill: #172d35;
      }
    </style>
  </defs>
  <g id="_Ñëîé_1" data-name="Ñëîé 1">
    <path class="cls-1" d="M126.75,66.52c.18-.08.29-.18.29-.3s-.05-8.24-.05-8.24l-.05-21.63-.02-3.33-2.06-13.01-1.33-8.45-.32-9.43-35.03.53-24.33-.27-22-.27L15.18.8.6,0l-.6,9.49,44.09,2.04-.95,37.18s.75-.43.79-.43.3.06.49.18c.18.12.69.59.79.74.09.16.97,1.49,1.02,1.56.05.08.61.6.71.68.1.08.42.24.43.31.01.07.09.33.15.37.07.03,1.1.22,1.18.23.08.01.33.01.41-.04.08-.06.19-.28.23-.34.03-.07.1-.31.15-.36.05-.04.68-.02.83.03.15.06,1.01.71,1.14.72.13,0,.5,0,.56,0,.06,0,.37-.53.37-.56s.03-.71.04-.75c.01-.04.2-.24.25-.2.04.04.77.85.77.85,0,0,.69.23.71.33.02.1.01.27.08.33.06.06.81.94.81.94,0,0-.01,1.05-.06,1.2-.05.14.09.69.13.75.04.07.99.59,1.02.59s1.32.04,1.32.04c0,0,.74-.19.8-.19s.47.06.54.11c.06.06.44.74.46.78.02.03.28.16.41.21.13.06.58.03.71.08.13.04,1.59.63,1.63.63s.67-.22.74-.27.42-.41.52-.45c.1-.04.84.08.84.08,0,0,1.79,1.71,1.82,1.73.03.02.28.07.38.07s.67-.31.7-.33c.03-.02.41-.93.46-1.02.05-.09.29-.34.36-.34s.15-.03.3.04c.15.08.96.37,1.01.37s.5-.13.56-.11c.06.02.97.3.97.3l.28-.06s.59-.7.61-.67c.02.03.35.47.35.54s-.02.52-.05.58c-.03.06-.33.3-.33.33s-.01.3.08.37c.09.07.35.21.35.21l-.18.22s.15.57.18.59c.03.02.49.23.53.23s.47.03.6,0c.13-.03.39-.16.45-.14.06.01.56.28.56.31s-.01.4-.02.43c-.01.03-.22.44-.22.49s.17.26.14.31c-.03.06-.41.5-.41.5,0,0-.03.1.1.17.13.07,1.55.75,1.55.75,0,0,.45-.12.5-.13.04-.01.57-.5.57-.5l.29-.07s-.06-.38-.01-.41c.05-.03.31-.04.32-.09.01-.04.04-.33.12-.37.08-.03.49-.12.53-.18.04-.06.4-.65.46-.71s.22-.19.35-.17c.13.02.5.16.54.19.04.03.29.35.32.35s.25-.07.25-.07c0,0,.05.74.08.82.02.08.15.31.27.34.12.03.32.04.44.01.12-.03.74-.28.74-.28,0,0,.43.11.51.27s.17.29.17.42-.14.89-.11.92c.03.03.29.22.41.27.12.04.64.01.74,0,.11-.01.41-.24.44-.32.03-.08.22-.68.22-.68,0,0,.13.25.17.25s.15-.19.16-.24c.01-.06.09-.27.12-.26.03.01.42.36.54.36s.22.01.26-.04c.04-.06.4-.72.4-.72,0,0,.36-.1.42-.07.06.03.3.21.36.33.05.12.22.74.22.82s-.13.29-.15.32c-.02.03-.35.26-.39.38-.04.12-.05.22-.01.29.04.07.18.22.18.31s-.05.14-.01.28c.04.13.33.64.44.7.11.06.49.24.54.24s.53-.32.53-.32c0,0,.15-.47.13-.53-.02-.07-.15-.64-.11-.71s.67-.37.67-.41-.05-.21-.1-.23c-.04-.02-.53-.12-.53-.16s.01-.21.08-.23.16-.11.28-.06c.12.06.31.3.39.3s.24-.08.29-.13c.05-.06.58-.83.59-.91.01-.08-.22-.8-.22-.87s.11-.26.14-.22c.03.03.15.32.25.27.1-.06.37-.29.47-.31.11-.02.32-.09.41.04.09.13.16.09.14.35-.02.27-.01.44.13.7.14.26.3.71.39.77.09.06.17.13.27.07.1-.07.4-.34.44-.35.04-.01.3-.03.36.04.05.08.61.75.61.75,0,0,.37,0,.45-.02.09-.02.47-.24.51-.3.03-.06.13-.4.14-.49.01-.09.11-.61.13-.64.02-.03.3-.27.36-.22.05.04.18.27.29.34.11.08.71.13.69.17s-.5.55-.46.68c.03.12,0,.28.19.37.19.09.53.29.63.32.1.03.45-.17.58,0,.13.17.39.82.42.82s.53-.08.68-.09c.15-.01.39.02.49.08.1.06.94,1,.94,1.14s.03.41.13.47c.1.06.12.2.3.06.18-.14.44-.37.45-.53.01-.17.11-.79.17-.87.06-.08.28-.19.38-.14.1.04.58.37.64.37s.51-.13.6-.19c.1-.06.32-.35.32-.42s.13-.59.13-.62.27-.09.33-.18.11-.3.15-.31c.04-.01.35.04.35.04,0,0,0-.22.08-.23.08-.01.82.2.84.17.02-.03.32-.33.32-.33,0,0,.09.27.12.24.03-.02.19-.13.22-.18s.04-.38.11-.34.08.26.24.27c.16.01.46-.08.49-.12.02-.04.11-.16.11-.2s-.03-.22-.03-.22c0,0,.47.1.51.14.03.04.87.68.95.7.08.02.26,0,.3-.08.04-.08.18-.38.29-.34.11.03.58.22.58.22,0,0,.15-.17.15-.2s-.01-.51.01-.57c.02-.06.27-.27.31-.23.04.03.27.34.37.3.1-.04.23-.14.27-.17.04-.02.24-.21.38-.24.14-.03.42-.06.55-.11.13-.06.42-.19.41-.27s-.16-.28-.05-.3c.11-.02.68.14.73.21.05.07.12.49.15.57.03.08.27.38.28.34.01-.03.28-.34.33-.3.05.04.06.4.24.35s.5-.28.52-.24c.02.03.03.28.14.31.11.03.7.09.78.09s.88-.06.91-.1c.02-.04.06-.3.15-.29.09.01.61.24.65.23.03-.01.2-.1.23-.14.02-.04.04-.64.05-.58.01.07.11.4.12.37.01-.03.13-.04.16-.16.03-.11.08-.64.13-.79.05-.14.14-.5.33-.43.19.07.42.12.52.19.1.07.26.19.38.22.12.03.51-.01.57.03.06.04.15.14.12.21-.03.07-.2.35-.2.35,0,0,.2-.02.26-.08.05-.06.43-.27.47-.19.04.08-.16.55-.16.55,0,0,.23-.02.23-.06s.15-.48.18-.43c.03.04.05.24.11.29.05.04.06-.1.14.13s.13.54.2.54.6.01.6.01l.26.21s.27-.29.27-.2.04.31.08.34c.03.03.37.22.36.3s-.19.33-.11.34c.09.01.67-.09.64.01-.03.1-.13.42-.1.47.03.04.6.64.67.68.06.03.19.1.33.1s.37-.04.43-.02c.06.02.23.17.29.12.06-.04.27-.42.31-.45.04-.03.27-.12.3-.06.03.07.16.14.04.21-.12.07-.31.19-.35.27-.03.08-.06.14,0,.13.06-.01.47-.12.47-.08s-.14.28-.14.32.12.09.14.03c.02-.06.17-.38.25-.24.08.13.19.6.23.65.03.06.36.14.49.11.13-.03.23-.18.35-.14.12.03.2.07.23.13.02.07-.19.31-.19.31l.2.14.4-.39s.16.17.22.22c.05.06.15.17.2.11.05-.06.2-.34.2-.34,0,0,.14.24.1.33-.04.09-.22.29-.13.29s.51-.28.55-.26c.04.02.15.06.08.13-.08.08-.24.27-.28.39-.04.12-.1.22.05.17.15-.06.53-.43.53-.33s-.17.26-.1.35c.08.08.1.28.18.14s.04-.33.13-.27-.05.24.13.17Z"/>
  </g>
</svg>