<svg xmlns="http://www.w3.org/2000/svg" data-name="Layer 2" viewBox="0 0 106.4 81"><path d="m1 62.3-.5.8-.1.5-.4.2.3.4.2.4.1 1.3.3-.2.2.2.3.8v.3l.5.3.1.6v.8l.1.4-.4 1.3v.6l-.2.6v.1h.3l.4-.4v.3l-.7.2v1.4l-.1.5h.2v1.4l.4.4v.6l.2.3v.5l.1.3v.7l.6.8.1.2.2.1h.2l.7.9 6 .3h2l4 .1 2.6-.1 1.2.2h10.3l9 .3 8.5.2H61l12-.1 8.9-.2 9.1-.4 10.7-.3-.7-19.4-.6-14.9.3-.7.3-.4V44l.2-.5v-.7q-.2 0-.2-.2c0-.2.5-.5.5-.5v-.6l-.5-.5v-.6l.7-.5.2-1.1-.5-.5h-.4l-.2-.8-.1-.1-.6-.1-.3.3-.3-.2-.3-.5-.2-.1h-.2l-.2.4-.7-.2-.3-.6.3-.4v-.3l-.6-1 .3-.7-.2-1 .3-.2.2-.5.5-.3v-.7l.2-.2v-.6l.8-1.9v-.4l.4-.4.5-.1.3-.3.4-.2v-.5l1-1.4.2-1-.2-.6.2-.3h-.2v-1l.6-.5.2-.4V21l.4-.4.2-.6.4-2.1.3-.4v-.8l.6-1.4.2-.3v-.5l.5-.6v-.7l.2-.4.1-.5.5-.4.2-.8-.4-.7-.5-.7-.2-1.1-.7-.5-.9-.1-.5-.7-.4-.1-.4.2-.2-.2-.2-.7-.8-.7-.2-.9-.3-.2v-.2l-.4-.4-26.4.7-.6.6-1 .7-1 .2-.8-.2h-.7l-.9.3h-1l-.6.3h-.4l-.6-.3-.4.2s-.6 1-.8 1L63 8l-1 .4h-1l-.8.6-1 .3-.6.3q-.1.4-.4.6l-.2.1h-1l-.6.3-1.8.3-.7-.4-.4-.5-.6-.1-.4.1-.7.5-2 .8-.8.6s-.3-.4-.5-.3l-.4.1-.3-.2-.9.1-.7.8-.5.2-.3-.2-.1-.8-.3-.3-.7-.2-.4-.3-.7-.1-.7.2-1.1-.6-.4-.1-1.3.4h-.4l-.5.2s-1.4-.3-1.5-.2l-1 .4-.1.5-.4.2v.1l-1.6.8-1.3.4-.3.3-.3.1.3-.2v-.1l-.5.3-.6.2H31l-.7-.6-1 .2-.8-.1-.8-.5-.3-.2-1-.1-.8-.6-.2-.3-.3.4v.5l-.2-.4.1-.3.3-.3-.1-.7.2-1.3-.4-1 .1-.7-.2.4s0-.2-.2 0l-.4.6H24l.4-.6h.1v-.2h.3l.1-.2v-.2l-.2-1v-.3.1-.7l-.6-.6-.4-1.4q0-.2-.2-.3l-1-.7-.5-.2-.4-.5-.4-.2h-.6l-.4-.4-.4.5-.2.3-.5.2-1.5-.3-.7-.7V.7l-.4-.1-.2-.3L16 0h-.3v.2l-.5.4-.1.4h-.2l-.6.2-.3-.1h-.6l-.3-.1-.2-.6-.3.3h-.8l-.2.1.2.3h.4v.4h.2l.2.1V2l-.3-.2v.5l.2.1.1.4-.2-.3-.2-.1v-1h-.3l-.4.5v-.4q-.1-.3-.2-.1H11V.8l-.1.3h-.2l.2-.3-.2.1V.7l-.4-.3-.2.1h-.2L9.7 0h.2-.3l.5 1.4.3.8.2 1.8.1.1v.3l-.1-.2-.2.6-.4.1v.3l-.3.1.3.8.2.1-.2.1v.5l-.1 1.6-.2.4h.2v.4l.2.2v1.3l.2-.2v-.3l.2-.3h.3v-.2h.1s.2.5 0 .5h-.5v.4l-.2.4-.3 1.4.4.3h.4l-.2.2.2.5v.2h.1v.1h.4l-.4.3-.1.3-.6-.6h-.2v-.3l-.1.5-.3.1.2.2v.3l.3.6.1.5-.4.5.1-.8h.1l-.1-.3-.3 1.5-.4.3h.4v.1l.2 1v-.2l.3-.1v.2l-.3.4-.3.9.1.3v.7l.1-.4v-.6.6l.3.2v.3l-.2-.4v.2l-.3.3-.2 1-.3.4-.1.4v.1H9l.3.4-.5-.3-.2 2.1.1.1v.2h.1v.3l-.3.2v-.5L8.1 26l-.1.2v.4l-.1.2v.5l.2.6-.2 1-.2.2.3.1v.3l-.1.6.2-.2.5.2v.7l.4.3.2-.2h.2l-.2.3-.6-.2h-.2l.1-.4v-.2l-.2.3h-.1l.2-.4h-.2v-.2q-.2 0-.3.2l-.2 1.4-.1.6V34l.4-.4.2.1v.4l.4.2h-.4l-.2-.4-.2.3v-.3l-.3.3-.2 1.3v.2L7 36v.2l-.1.5v2.1l-.3.5.1.7-.3 1.5.1.2.2-.1v.9h.4l.3-.4-.1.2v.1l.6-.2-.4.3v.4h-.1v-.2h-.8V42l-.2-.3-.3 2.4v.2h.1v.2l-.3.9H6v.2l-.7 2.5.5-.5.1-.7.4-.2.2.2v.4H7v.3l.3.1h1l.4.2.4.3v.3l-.2-.3-.7-.3h-1l-.4-.3h-.2l-.2-.3V47l-.2.1-.2.4v.2l-.3.2v.2h-.2l-.2.3-.2.7-.3 1.6c0 .3-.6 1.5-.6 1.6l-.6 1.1-.2.6h.1s0-.3.2-.3l.4-.4V53l.3-.2h.2v-.2l.1.1.2-.5H5l.3-.2v.3l-.4.4h.2l.1.2h.2l-.2.4.3.3.1.5-.1-.1v-.2l-.4.1-.2-.3.1-.7h-.3l-.5.5-.3.6h-.2l-.1.4H4v.2l-.2-.2-.2.2v.3l.1.6-.1-.4-.1.3v-.6h-.1l.1-.5-.1-.1h-.1l-.2.1-.3.1-.3.6.2.7-.3 1.6-.5 1.3v.3l-.3 1.4z" data-name="Ñëîé 1" style="fill:#172d35"/></svg>