<svg xmlns="http://www.w3.org/2000/svg" data-name="Layer 2" viewBox="0 0 118.5 71.4"><path d="M9.7 3.3h.6l.1-.3h.3v-.3H10l-.2.2h-.4l-.7 1.4-.5.3-1 .4-1.2.8-1.5.5-.4.3-2.3 1-.4 14-.6 17.8-.5 17.4L0 70.3l10.7.3 13 .3 12 .2 23.5.2 6.2.1h14l12.3-.3h5.6l.5-1.3 1-1.2c.2 0 1-.5 1-.6l.7-.2 1-.1 1.3.1 1 .3.8.6s1.4-1.3 1.6-1.3l1.3-.1h.2l.9-.4.6-.6h.8l.3-.5v-.5l-.1-.7q0-.4.2-.5l1-.5.6-1 .6-.3.8-.7.8-.6 1.4-.5q.5-.2.5-.5t.3-.6.4-.1.4.1q.2 0 .4-.3h.5l.4-.6-.1-.5-.6-.4-.4-.8-1.3-.8-.5-1-.5-.7-.7-.3-.5-.6-.3-1-.3-.6q-.2-.3-.6-.3l-.6.2-.7-.4-.2-.9.1-.9V48c-.2-.2-.8-.9-1-.9h-.6l-.5.2-.5-.2v-.7l-.2-.5.2-.2v-.4q-.2-.1-.2-.4l.4-.8h-.2l-.3-.2v-.3l.4-.9-.3-.4V42l.3-.2.2-.4h.6l.6-.4.5-.9-.2-.6.2-.2h.3l.3-.4-.6-1.4-.3-.2-.5-1.2c-.1 0-.5 0-.4-.1l.1-.5.5-.4.9-.5.5-.4.5-1 .8-.5v-.2l-.3.2-.1-.2.1-.3 1.5-1.4.9-1.7v-.9l.3-.3.3-1 .7-.5v-.3l.5-.2.3-.5h.5l.6-.4v-.3l-.4-.6-.5-.3V23l-.3.2h-.4s-.4.1-.4 0l-.4-.5-.4.3-.7-.3-.5.2-.1-.2v-.3l-.2-.2-.2-.3-.4-.2h-.1l-.4.2-.5-.2V21h-.4v-.4l-.4-.4.1-.4-.1-.2-1-1.2.3-.4h.2l-.1-1.2-.2-.3.1-.4-.2-.6.3-.2-.1-.9-.2-.6h-.7v-.7l.4-.2v-.3l-.7-.3-.2-.5-.5-.3h-.3l-.2-.4-.3.2-.4-.2-.4.3-.3-.2h-.4v-.5l-.3-.3.1-.4-.2-.8-.3-.4-.3.2-.3-.3-.4-.5v-.4l-.3-.2-15.3.3-15.7.1H61.7l-17-.2-15.3-.1-12.5-.1.3-7.6-1.4.8c-.1 0-.5.4-.7.3s-.3-.2-.4 0l-.4.3-.7.2L11.8 3l-.9.4h-.3l-.2.2-1 .5h-.2V4z" data-name="Ñëîé 1" style="fill:#172d35"/></svg>