<?xml version="1.0" encoding="UTF-8"?>
<svg id="Layer_2" data-name="Layer 2" xmlns="http://www.w3.org/2000/svg" viewBox="0 0 118.5 71.43">
  <defs>
    <style>
      .cls-1 {
        fill: #172d35;
      }
    </style>
  </defs>
  <g id="_Ñëîé_1" data-name="Ñëîé 1">
    <path class="cls-1" d="M9.73,3.26c.06,0,.51.02.57-.05.06-.07.1-.21.13-.21s.26.07.26.04.06-.28,0-.32c-.05-.04-.49-.11-.55-.08-.07.03-.21.29-.27.29s-.41.03-.42.06c0,.03-.54,1.24-.63,1.29-.09.05-.49.29-.51.31-.03.02-.89.34-.95.4-.06.06-1.17.83-1.23.83s-1.52.47-1.58.52c-.06.05-.22.21-.35.26-.13.06-2.26.96-2.26.96l-.44,14.01-.6,17.85-.53,17.39-.38,13.47,10.66.33,12.96.32,12,.14,23.55.28,6.22.06,13.95-.1,12.4-.18,5.57-.12s.47-1.09.5-1.17c.04-.09,1-1.14,1.08-1.19.09-.05.93-.57,1.01-.61,0,0,.24-.15.57-.19.33-.04.88-.15,1.13-.17.25-.02,1.07.05,1.25.12.17.07.81.32.88.34.07.02.9.53.9.53,0,0,1.42-1.31,1.56-1.31s1.2-.03,1.34-.06l.14-.03s.85-.31.92-.38c.08-.07.49-.5.65-.54.15-.04.75-.03.78-.09.03-.06.29-.31.31-.46.03-.15.03-.3,0-.46-.03-.16-.19-.66-.15-.78.04-.13.1-.38.24-.48.13-.1.92-.46.98-.5.06-.04.49-.86.64-.95.15-.09.5-.25.61-.33.1-.08.72-.67.8-.73.08-.07.55-.51.74-.56.19-.05,1.15-.29,1.41-.47.26-.18.47-.41.52-.54.06-.13.05-.52.29-.63.24-.11.26-.15.37-.1.11.05.17.2.4.14.23-.06.23-.22.39-.26.16-.04.35-.04.51-.13.16-.09.34-.31.39-.53.05-.22,0-.34-.1-.46-.09-.12-.5-.33-.55-.42-.05-.09-.41-.77-.45-.82-.04-.05-1.21-.69-1.25-.79-.04-.1-.45-.88-.5-1.03-.06-.15-.41-.59-.51-.67-.1-.08-.57-.19-.66-.28-.09-.1-.49-.51-.52-.61s-.26-.88-.3-1.04c-.05-.16-.19-.48-.33-.59-.14-.11-.43-.35-.55-.31-.12.04-.54.27-.66.23-.11-.05-.62-.35-.66-.43-.04-.08-.23-.72-.21-.85.02-.13.1-.67.13-.9.03-.23,0-1.31-.1-1.53-.1-.22-.78-.85-.88-.89-.1-.04-.5-.11-.63-.08-.12.03-.36.27-.51.27s-.51-.16-.53-.23c-.02-.08-.02-.57-.02-.65s-.15-.42-.15-.49.13-.2.14-.26c0-.07-.04-.23-.05-.33,0-.11-.17-.29-.15-.4.02-.11.4-.74.39-.78,0-.04-.07-.11-.14-.12-.08,0-.32,0-.33-.09,0-.09-.02-.22,0-.31.02-.1.39-.85.38-.93,0-.08-.3-.39-.3-.42s0-.22.02-.24v-.03s.24-.15.3-.19c.07-.04.2-.39.23-.4.03,0,.48.1.63.04.15-.06.49-.43.51-.47.02-.04.49-.81.5-.87,0-.06-.18-.61-.17-.64,0-.03.11-.15.18-.14.07,0,.36.07.37.04,0-.03.23-.42.24-.49,0-.07-.52-1.28-.6-1.37-.08-.09-.18-.19-.25-.24-.07-.06-.5-1.04-.57-1.13-.07-.09-.41-.08-.38-.18,0,0,.07-.34.13-.47.07-.13.29-.32.47-.44.18-.12.81-.47.88-.49.08-.02.47-.23.58-.41.11-.18.39-.8.47-.89.08-.09.81-.56.82-.6,0-.04-.05-.19-.05-.19,0,0-.27.18-.3.18s-.11-.07-.1-.12c0-.05.06-.29.14-.36.09-.07,1.23-1,1.27-1.06.05-.06.22-.3.26-.36.04-.06.82-1.55.84-1.64.02-.1-.11-.41-.06-.53.06-.12.06-.29.1-.37.05-.08.21-.2.26-.28.05-.09.27-.9.33-.98.07-.08.63-.5.65-.55.02-.05-.02-.31.03-.34.05-.03.44-.13.51-.21.08-.08.17-.39.3-.45s.4,0,.54-.09c.14-.08.52-.27.55-.31.03-.04.12-.17.08-.28-.05-.12-.44-.57-.49-.63-.05-.06-.49-.22-.49-.31s-.05-.74-.05-.74c0,0-.19.15-.28.15s-.32-.02-.37-.02-.37.17-.4.11c-.03-.06-.25-.61-.35-.56s-.4.28-.49.25c-.09-.03-.49-.3-.63-.28-.14.02-.5.18-.5.18,0,0-.14-.11-.13-.16,0-.05.1-.25.06-.29-.05-.04-.26-.12-.29-.2-.04-.08-.09-.26-.13-.31-.05-.05-.43-.25-.43-.25,0,0-.07,0-.15.02-.09.03-.35.2-.39.2s-.43-.15-.43-.19-.03-.67-.03-.67c0,0-.34.03-.36-.08s0-.23-.03-.35c-.04-.13-.41-.3-.38-.41.03-.11.13-.22.09-.34-.05-.12-.13-.17-.17-.25-.04-.09-.92-1.15-.91-1.23,0-.08.28-.4.28-.4,0,0,.22.05.22,0s-.12-1.13-.15-1.17c-.03-.05-.18-.21-.15-.26.03-.06.08-.35.09-.47,0-.12-.32-.53-.28-.57.05-.04.29-.11.32-.2.03-.09-.08-.84-.1-.9-.02-.06-.13-.52-.2-.55-.07-.03-.66-.14-.66-.14,0,0-.12-.19-.09-.27.04-.09.05-.24.12-.31.08-.07.25-.11.34-.2.1-.09.04-.32.04-.32,0,0-.69-.22-.71-.3-.02-.09-.15-.46-.2-.53-.05-.07-.43-.23-.51-.25s-.32.03-.34,0c-.02-.04-.17-.46-.17-.46,0,0-.25.22-.31.21-.07-.02-.3-.21-.39-.16s-.37.27-.42.25c-.05-.02-.24-.16-.24-.16,0,0-.46.08-.46,0s.03-.42-.03-.5c-.06-.08-.21-.22-.21-.3s.1-.31.09-.41c0-.1-.16-.65-.24-.8-.08-.16-.23-.4-.31-.38-.09.02-.23.15-.26.14-.03,0-.26-.22-.29-.26-.04-.04-.41-.36-.41-.48s.07-.31-.02-.41c-.09-.1-.33-.23-.33-.23l-15.26.31-15.67.16h-11.79l-17.01-.23-15.33-.16-12.48-.08.23-7.59s-1.32.81-1.4.85c-.08.04-.48.33-.62.31s-.31-.22-.42-.12c-.1.1-.31.31-.38.33-.07.02-.64.2-.74.25-.1.06-1.83,1.32-1.83,1.32,0,0-.79.4-.83.4s-.29-.11-.35-.05c-.07.06-.11.21-.14.22-.03,0-.94.52-.97.51-.03,0-.24,0-.24,0,0,0-.09-.06-.07-.13.02-.07.48-.64.53-.65Z"/>
  </g>
</svg>