<?xml version="1.0" encoding="UTF-8"?>
<svg id="Layer_2" data-name="Layer 2" xmlns="http://www.w3.org/2000/svg" viewBox="0 0 143.23 38.1">
  <defs>
    <style>
      .cls-1 {
        fill: #172d35;
      }
    </style>
  </defs>
  <g id="_Ñëîé_1" data-name="Ñëîé 1">
    <g>
      <path class="cls-1" d="M33.55,4.6c-.09.06-1,.71-1.09.77-.09.05-.33.26-.38.29-.05.03-.86.33-.92.37-.06.05-.11.12-.21.15-.11.04-.48.1-.6.15-.12.05-.16.08-.33.1-.17.02-.51.16-.59.19-.08.03-.15-.04-.22,0s-.22.09-.27.14c-.05.05-.1.14-.1.24s.08.35.12.41c.04.05.13.05.15.12s0,.12.04.16c.05.05.11.1.14.18.04.08.36.68.4.78.04.1.06.28.11.32s.13.1.15.14c.02.04.1.2.12.25.03.05.19.32.2.34,0,.03.09.14.18.17.09.04.53.14.62.14s.55.1.55.1h.1l.07.07s.04,0,.09,0c.04,0,.15.08.18.14.04.05.19.34.2.42,0,.07.03.4.05.49.03.09.04.17.09.24.04.07.29.42.29.42,0,0,.18.29.18.34s.03.56.04.62c0,.05,0,.24,0,.28.02.05.25.33.3.38.05.05.29.2.33.24.04.04.18.11.19.15,0,.05.05.23.04.37-.02.14-.07.32-.1.36-.03.05-.13.13-.18.16-.04.04-.16.16-.22.23s-.45.59-.48.62c-.04.03-.36.21-.35.27s.31.61.31.69-.06.32-.07.37c0,.05-.11.2-.16.22l-.04.02s-.11-.13-.12,0,.23,1.18.18,1.28c-.04.11-.12.31-.15.33-.03.03-.35.24-.4.3-.04.05-.17.12-.2.22-.04.1,0,.46.02.51s.1.34.14.33c.04-.02.11-.05.11-.08,0-.03-.11-.13-.09-.19.02-.06,0-.15.05-.12.04.04.27.31.27.31,0,0,.11.01.14.08.04.07.04.16,0,.19-.04.03-.18.17-.2.17s-.3-.14-.33-.09c-.04.05-.1.31-.12.33-.03.02-.1.08-.09.12,0,.04.17.28.15.32-.02.04-.07.13-.1.17-.03.05-.38.48-.38.48,0,0,.18-.05.29,0,.11.05.87.28,1.01.34.14.06.26.06.26.17s.02.35,0,.38c0,.03-.14.24-.14.24,0,0,.05.06.1.05.04-.02.18-.15.18-.18,0-.03.11-.24.11-.21s-.09.27-.07.32c.02.05.13.05.1.14-.04.09-.09.08-.17.06s-.2.03-.25.05c-.05.03-.13,0-.13,0h-.11s-.12-.05-.1-.08c.03-.03.25-.05.25-.05l-.03-.06s-.23.05-.32.09c-.09.04-.43.16-.53.22-.1.05-.34.15-.39.21-.04.05-.31.45-.31.63s.02,1.41.08,1.44c.06.03.32-.09.4-.08.08,0,.11-.04.24.09.12.12.21.21.22.34,0,.13.04.26,0,.29-.05.03-.18-.08-.15.05.03.13.04.17.12.2s.14.09.16,0,.03-.18.1-.12c.06.06-.03.05.02.13.04.07.05.11.11.09.06-.02.11-.12.1-.2s.03-.1-.05-.14c-.08-.05-.18-.11-.23-.16l-.04-.05s-.11-.14-.08-.3c.04-.15.02-.24.11-.32s.19-.18.27-.24.3-.15.33-.15.12.04.17.05c.04,0,.1-.03.16.03.06.05.41.31.48.33.06.03.29.12.48.17.19.05.5.18.75.23.25.05.47.07.62.06.14,0,.22.05.32.05s.18-.06.31-.12c.12-.05.32-.16.32-.16,0,0,.08-.14.08-.24v-.25s.09-.18.12-.14c.04.05.11.24.17.28.06.05.11.11.17.07.05-.04.06-.14.05-.17,0-.03-.1-.1-.09-.16,0-.06.25-.28.31-.31.06-.03.05-.11.35-.12.3,0,1.2.11,1.32.15.12.05.62.11.7.15.08.05.34.28.38.3.04.02.19.02.19,0s-.29-.52-.18-.52.55.02.62.05c.08.04.23.11.27.18.04.07.11.26.11.36,0,.1,0,.32.05.38.05.06.76.42.9.51s1.13.52,1.19.53.23.11.33.07c.1-.04.18-.12.19-.18,0-.06-.04-.11-.1-.14-.05-.03-.45-.14-.46-.17,0-.04,0-.18.05-.19.04,0,.04-.03.1-.05s.07-.02.15-.03c.08,0,.26-.03.35-.06s.17-.1.24-.13c.07-.03.12-.14.11-.2-.02-.05-.26-.26-.28-.3-.03-.04-.14-.14-.24-.14s-.34.02-.39.05c0-.14.04-.3.08-.36.04-.06.11-.17.15-.17s.1,0,.12.05c.03.05.06.03.11.09.04.06.17.2.19.22.03.02.08.05.13.05s.25-.06.25-.06c0,0,.05.12.03.18-.03.06,0,.3,0,.34s.04.16.1.19c.05.03.18.03.24.02.05,0,.3-.05.38-.06.08,0,.25-.09.29-.06.04.03.1.2.14.21.04,0,.65.07.65.07,0,0,.12-.33.14-.37.02-.05.06-.09.11-.09s.16.06.22.1c.06.04.14.06.19.1.05.04.28.08.31.08s.62-.23.69-.26c.07-.04,1.51-.75,1.51-.75,0,0,.2-.37.2-.42s0-.19-.02-.21c-.03-.02-.15,0-.18.05-.03.05-.17.33-.21.34-.04,0-.11.02-.18.02s-.35.06-.38.06-.09-.11-.08-.18c0-.07-.03-.24.06-.25.09,0,.14.05.19.07.05.03.13.1.16.05.03-.05.11-.05.07-.13-.03-.08-.09-.18-.09-.25s.03-.29.06-.24c.03.05.1.15.18.14.08,0,.38-.14.48-.22.11-.08.58-.52.62-.51.04.02.15.13.15.19s-.08.18,0,.19c.07,0,.28.04.28.04,0,0,.11.07.11.12s-.08.52-.08.52c0,0-.22,0-.26.07s-.07.14-.04.18c.03.04.22.19.22.19,0,0,.09,0,.11-.02.03-.03.35-.62.35-.62,0,0,.88-.1.94-.08.06.02.45.11.49.16.04.05.03.19.15.29.12.1,1.42.74,1.5.74s.4-.09.5-.14c.11-.05.47-.46.53-.48.05-.02.83-.19.97-.14.14.05.32.12.39.22.07.1.07.25.07.28s-.22.06-.22.12.09.32.12.31c.04,0,.35-.08.43-.13.08-.05.2-.19.33-.21.12-.02.29-.05.5.05,0,0,.19.35.26.35s1.73-.56,1.86-.61c.12-.05.99-.48,1.28-.57.28-.09.77-.14,1.04-.17.27-.03.63-.05.85,0,.22.05.43.18.61.31s.4.43.5.6c.1.17.28.56.39.56s.16-.1.31-.06c.15.04.18.02.34.12.17.1,1.13.9,1.19.86.05-.05.82-.79.86-.87.04-.08.2-.24.28-.34.08-.1.3-.2.41-.26.11-.06.21-.23.33-.25.11-.03.43-.08.52-.09.09,0,.12-.08.28-.03.16.05.26.24.26.29s.03.21.09.23.6.32.65.39c.05.07.4.78.4.78.07-.08.06-.18.25-.23.18-.05.22-.12.41-.05.19.06.44.26.58.39.14.13.22.29.27.32.05.03.07.04.2.05.13.02.15,0,.13-.11-.02-.11-.21-.16-.15-.24s.35-.23.39-.13c.04.1.02.24.07.29.05.05.04.11.11.14.07.03.11.05.16,0,.05-.06.09-.1.05-.22-.04-.12-.18-.28-.16-.38.03-.1.06-.1.18-.17.11-.07.38-.29.4-.31.03-.02.46-.32.48-.32s.11.03.13.05c.03.02.03,0,.12.03.09.04.09.14.17.14.08,0,.19.05.24.08.04.04.2.17.26.19.05.02.27.04.34.06.07.03.18.12.18.19s-.06.12-.09.13c-.03,0-.44.19-.52.17-.08-.02-.48-.22-.62-.22s-.36-.08-.41,0c-.05.08-.02.22-.02.22,0,0,.38.45.52.49.14.04,1.08-.41,1.16-.36.08.05.04.05.15.14.11.09.25.15.34.2.09.05.1.07.22.05.12-.03.19-.13.25-.17.06-.05.36-.28.53-.39.17-.11.33-.24.44-.28.11-.04.27-.1.37-.1s.23.03.29,0c.06-.02.37-.28.46-.31.09-.03.14-.06.28-.17.14-.11.34-.24.54-.3.19-.05.25-.14.42-.05.17.09.18.14.32.24.14.11.65.44.69.43.04,0,.52-.34.54-.41.02-.06.05-.24.11-.29.06-.05.28-.36.51-.45.23-.09.44-.1.71-.09.27,0,.36-.03.52.11.16.14.15.27.27.33.12.06.2.1.39.1s1.44-.18,1.66-.21c.22-.03.73-.07.89-.18.16-.11.3-.28.48-.38.18-.1,1.09-.81,1.25-.86.16-.05.81-.33.99-.36s.58-.03.68-.05c.1-.03.15-.03.16-.17,0-.14.08-.62.03-.74-.04-.12-.2-.14-.17-.32.03-.18.07-.49.18-.61.11-.12.34-.44.46-.47.11-.03.17-.04.21.07.04.11.1.2.21.21.11,0,.33-.03.44-.22.11-.19.11-.44.11-.54s-.11-.42,0-.48c.11-.06.33-.24.37-.33.03-.09.27-1.37.31-1.44l.03-.07s.45-.98.55-1.13c.11-.15.22-.28.38-.38.16-.1.64-.29.66-.33.02-.04.08-.37.11-.44.03-.07.03-.18.21-.33.18-.15.25-.25.47-.32.22-.06.26-.14.4-.05.13.09.19.17.3.21.11.04.16,0,.27.1.11.1.21.3.27.24.06-.05.16.02.11-.13-.04-.14-.19-.24-.19-.37s.05-.23.21-.33c.16-.1.18-.16.33-.17.16,0,.44,0,.47-.04.03-.05.18-.21.25-.24.07-.03.32-.05.4-.02.08.03.07.11.18.2.11.09.19.1.29.1s.36.03.47-.05c.11-.07.23-.14.25-.22.02-.08-.03-.11-.08-.24-.05-.14-.25-.44-.25-.5,0-.06-.18-.33-.12-.36.05-.03.24-.18.31-.23.07-.05.22-.05.35.04.13.09.33.21.34.24.02.04.17.35.17.38s-.04.11-.04.17c0,.06,0,.26.04.24.05-.02.27-.29.29-.33.02-.04-.13-.29-.11-.37.03-.08.2-.25.24-.23.04.03.26.34.3.3.04-.05.2-.19.19-.24,0-.05-.49-.27-.53-.35-.04-.08,0-.26-.05-.33s-.18-.29-.21-.34c-.03-.05-.07-.13-.04-.19.03-.06.09-.07.12-.11.04-.04.06-.13,0-.14-.05-.02-.2.03-.23.1-.03.07-.02.15-.09.17-.07.02-.31.11-.35.04-.04-.07-.34-.35-.36-.41s.05-.42.07-.48c.02-.06-.02-.14.03-.16.04-.02.19.05.19.08s.04-.18,0-.23c-.03-.05-.11-.13-.11-.13,0,0-.06.05-.1.09-.03.04-.02.06-.09.06s-.15-.1-.18-.16c-.03-.06-.09-.24-.06-.29.03-.05.22-.2.29-.27.07-.07.16-.19.16-.22s.07-.25,0-.34-.12-.07-.12-.15,0-.38,0-.54.02-.27.05-.3c.04-.03.03-.05-.08-.13-.11-.07-.21-.22-.23-.33-.02-.11-.11-.22-.05-.29.05-.07.15-.17.26-.24.11-.07.12-.15.15-.19.03-.04.11-.12.06-.2-.04-.08-.07-.16-.03-.17.04,0,.19-.03.22-.07.03-.05.11-.19.11-.24s-.08-.06-.12-.06-.18.06-.19.09c0,.03-.08.08-.1.05-.02-.03-.08-.03-.04-.12.04-.09.11-.22.14-.32.04-.1-.03-.16-.03-.16,0,0-.11.13-.11.15s-.11.32-.11.32l-.18.14h-.11l-.14-.14s-.04,0,0-.09c.04-.1.02-.14-.02-.18-.04-.04-.09-.09-.11-.09s-.13.1-.17.2c-.04.1-.14.31-.18.39s-.14.17-.18.17-.06-.02-.11,0c-.04.02-.34.12-.4.12s-.52-.14-.55-.14-.76-.19-.76-.19l-.4-.23-.19-.03s-.31-.37-.32-.41c0-.04.04-.28,0-.28s-.33.09-.35.13c-.02.04,0,.07-.04.11-.04.04-.21.16-.29.18s-.26,0-.29-.03c-.03-.02-1.07-.78-1.1-.82-.03-.05-.11-.25-.11-.25,0,0,.05-.14.08-.2.03-.06,0-.12,0-.17s0,.04-.07,0l-.06-.04s-.1-.08-.12,0c-.03.08-.04.13-.09.15-.05.03-.18.1-.24.14-.06.04-.26.07-.28.07s-.14.05-.17.03-.12-.15-.12-.15c0,0,.04-.09.08-.14.03-.05.28-.17.29-.21,0-.04.04-.18.02-.22-.02-.04-.06,0-.11,0-.05,0-.34.25-.34.25,0,0-.29.23-.35.24-.06,0-.21.05-.25.05s-.15-.04-.16-.09c0-.05-.39-.51-.43-.55-.04-.05-.62-.37-.69-.38-.06,0-1.2-.21-1.2-.21l-.11-.05h-.06s-.14-.02-.16-.05c-.02-.03-.33-.23-.36-.24-.04-.02-.27-.16-.27-.16,0,0-.4-.05-.44-.05s-.47.14-.5.15c-.03,0-.4,0-.43,0s-.54-.1-.54-.1c0,0-1.13-.25-1.17-.28-.04-.03-.81-.24-.81-.24,0,0-.13-.11-.18-.08-.04.03-.1.33-.12.37-.03.05-.23.24-.23.24,0,0-.29.15-.33.17-.03.02-.65.03-.72,0-.07-.02-.43-.2-.45-.23-.02-.03-.15-.25-.15-.25,0,0-.11.02-.18.03-.07,0-.6-.03-.65-.05-.05-.02-.69-.12-.72-.13-.03,0-.32-.33-.34-.36-.03-.03.02-.12-.11-.12s-.62.07-.65.05c-.03-.03-.17,0-.23-.05-.06-.04-.35-.05-.45-.07s-.29-.11-.29-.11v.1l.04.13.23.2v.08s.07.11.07.11l.06-.08s-.06-.08.03-.12c.09-.04.09-.03.14-.04.05,0,.15-.05.18-.04.03.02.18.12.18.12l.16.09s-.1.03-.13.03-.11-.05-.15,0c-.04.05-.07.07-.04.13.03.05.04.14.11.18.07.05.36.21.36.21,0,0,.03.04.1.05.06,0,.19-.05.22-.05s.14.03.14.03c0,0,.11.1.11.13s0,.19,0,.19l-.1.09s-.17-.04-.2-.03c-.04,0-.47.33-.49.34-.03.02-.27.17-.27.17,0,0-.14-.04-.14-.06s.03-.67,0-.69c-.04-.02-.08-.04-.11-.03-.04,0-.11.05-.13.08-.02.03-.13.05-.18.05-.04,0-.12.05-.12.05,0,0-.04-.08-.05-.08h-.11s-.21-.08-.24-.1c-.03-.02-.16-.29-.16-.29v-.33c0-.05.04-.14.05-.16,0-.03.06-.15.08-.24s.02-.31,0-.32c-.03,0-.27-.1-.27-.07s.12.35.12.35c0,0-.26.21-.32.29s-.25.28-.25.28c0,0-.2.13-.26.15-.05.03-.18.05-.25.05s-.36-.03-.39-.03-.29-.17-.34-.21c-.05-.04-.11-.11-.15-.18-.04-.07-.1-.31-.1-.35s.09-.18.09-.18c0,0,.08-.04.13-.05.05-.02.1-.12.09-.13,0-.01-.27-.05-.31-.04-.04,0,0,.12,0,.12,0,0,0,.07-.02.13-.01.05-.05.15-.08.16-.03,0-.17.14-.27.11-.11-.04-.23-.04-.29-.05-.06,0-.59.02-.67.02s-.41-.05-.53-.06c-.11,0-.53-.04-.55-.05-.03-.02-.17-.14-.2-.14s-.18-.05-.21-.07c-.03-.02-.46-.24-.46-.24,0,0-.27-.08-.3-.08s-.19.1-.24.12c-.04.02-.29.23-.33.24-.03.02-.18.05-.18.05,0,0-.1-.09-.17-.09s-1.18-.12-1.2-.14c-.03-.02-.44-.41-.7-.43-.26-.02-1.59-.05-1.71-.1-.12-.05-.84-.32-.87-.3-.04.02-.77.26-.79.27-.03,0-.71.07-.77.07s-.18.05-.19.1c-.02.05,0,.14,0,.14,0,0-.32.42-.34.43-.03,0-.23.13-.28.14-.05,0-.86,0-.89-.02-.03-.02-.39-.14-.41-.14s-.3,0-.33,0-.65-.16-.71-.2c-.06-.04-.66-.33-.69-.33s-.87-.11-.95-.12c-.08,0-.62.03-.71.05-.09.03-.28.06-.37.09-.09.03-.28,0-.55-.06-.26-.06-1.37-.43-1.52-.44-.15,0-1.6.19-1.69.2-.09,0-.34.15-.45.17-.11.02-1.26.63-1.47.63s-1.2-.05-1.28-.07c-.08-.03-.88-.28-1.08-.44-.2-.16-.55-.33-.76-.36-.22-.03-.33-.12-.52-.08-.19.04-1.17.3-1.36.3s-.33,0-.47-.05-.46-.14-.53-.16c-.07-.03-.56-.04-.69-.02-.12.02-.56.13-.62.15-.06.03-.29.14-.37.16-.08.02-.3.05-.46.05s-.57-.08-.63-.08-.38-.12-.48-.12-.67-.19-.69-.19-.42.13-.48.13-.84-.11-.89-.13c-.05-.02-.76-.39-.78-.41-.03-.02-.82-.43-1.06-.46s-.51-.04-.61-.06c-.1-.03-.13-.14-.37-.14s-1.45-.05-1.68-.05c-.23,0-.61.06-.61.06,0,0-.03-.05-.11-.03s-.11.04-.23.07c-.11.04-.56.12-.74.15-.18.04-.47.08-.55.12-.07.04-.52.33-.67.52-.15.19-.4.37-.5.56-.11.19-.21.38-.17.52.04.14-.02.31.08.43.1.12.16.24.22.32.06.08.18.65.22.77.04.12.08.47.1.56.02.09.04.18-.02.3-.06.12-.11.17-.19.24Z"/>
      <path class="cls-1" d="M100.79,7.74c.03-.06.11-.08.08-.15-.03-.07-.11-.17-.11-.17l-.1-.07-.23.08s.13.06.16.11c.03.05.03.23.07.27.04.05.1,0,.12-.07Z"/>
      <path class="cls-1" d="M98.97,9.1s-.06.07-.06.12,0,.12.03.12.17-.12.17-.12l-.14-.12Z"/>
      <path class="cls-1" d="M98.56,8.29c.07-.02.16-.18.16-.18s0-.18-.08-.19c-.09,0-.16,0-.16,0l.08.21s-.07.18,0,.16Z"/>
      <path class="cls-1" d="M100.03,11.72h-.14l-.07.17s-.03-.07-.05-.09c-.03-.01-.08.02-.12,0-.04-.02-.11-.01-.14,0-.03.01-.16,0-.16,0,0,0-.02.06,0,.09.02.03.04.05.07.12.03.06-.04.14,0,.16.04.03.14.1.14.05v-.13s.1.03.13.03.07-.03.09,0c.02.03,0,.15.04.12.03-.03.1-.05.16-.05s.13.05.13.05c0,0,.05-.09,0-.18-.05-.09-.11-.13-.09-.17s0-.17,0-.17Z"/>
      <path class="cls-1" d="M100.31,12.25c.08-.04.11-.1.11-.1l-.03-.12-.15.07s0,.07,0,.1,0,.09.07.05Z"/>
      <path class="cls-1" d="M99.34,13.89s.15-.09.17-.09c.02,0-.03-.12-.06-.1-.03.02-.17,0-.17,0h-.08s-.06.11-.06.11c0,0,.02.07.06.08.04,0,.12.03.14,0Z"/>
      <path class="cls-1" d="M93.93,16.26s.04-.02-.04-.05-.24,0-.24,0c0,.03-.06.2,0,.23.06.03.16.12.17.08s-.06-.09,0-.15c.06-.06.11-.11.11-.11Z"/>
      <path class="cls-1" d="M19.65,5.89s.13.2.15.23c.02.03.08.11.15.13.07.02.16.08.2.05.04-.03.09-.09.13-.14.04-.05.11-.11.09-.15-.03-.04-.09-.08-.16-.14-.07-.05-.12-.15-.12-.15h-.14s-.14.02-.14.06.07.11,0,.11h-.17Z"/>
      <path class="cls-1" d="M.34,16.07s-.02-.12-.07-.11c-.05.02-.18,0-.18,0,0,0-.09,0-.09.05s.02.14.04.15c.03,0,.09.02.16,0,.07-.02.18-.05.14-.09Z"/>
      <path class="cls-1" d="M.53,19.18c0,.1-.04.18-.09.23-.04.05-.13.09-.15.15-.02.06.1.18.1.18,0,0,.09,0,.17,0,.08,0,.27.3.34.38s.1-.02.18.12-.09.07.14.16.58.19.69.24.07.1.12.11c.05,0,.11.04.18.12.07.08.15.06.21.07.06,0,.23.06.35,0,.12-.06.51-.15.56-.19.05-.04.24-.16.26-.28.03-.12.23-.36.32-.45.09-.09.14-.17.2-.22.06-.05.1-.09.19-.13.1-.04.15-.02.19-.09.04-.07.06-.42.06-.49s-.18-.67-.21-.7c-.03-.03-.11-.08-.17-.13-.06-.05-.1-.06-.14-.11-.04-.05-.12-.19-.16-.24-.04-.05-.04-.12-.15-.06-.11.05-.38.22-.4.24-.02.03-.03.11-.1.11s-.21,0-.21,0c0,0-.09.03-.12.03s-.13.06-.16.04c-.03-.02-.14-.07-.26-.09-.11-.02-.25-.04-.29-.05-.04,0-.08-.07-.11-.1-.03-.03-.06-.02-.11-.04-.04-.02-.14-.09-.14-.09h-.09c-.05.02-.35.16-.41.18-.06.02-.44.16-.51.18-.07.02-.13.03-.15.12-.02.09.07.21,0,.32-.07.11-.15.38-.16.48Z"/>
      <path class="cls-1" d="M108.8,8.81c.04.06.15.07.15.07,0,0-.03-.24-.07-.31-.04-.07-.26-.07-.26-.07,0,0,.04.07,0,.11-.04.04.14.14.18.21Z"/>
      <path class="cls-1" d="M110.68,9.12s-.01.1-.05.11c-.04.01-.27,0-.27,0,0,0,.08.13.09.18.01.05,0,.13,0,.13l-.04.17h.11s.01-.08.06,0c.05.08.11.19.14.22.03.02.14-.01.15,0,.01.01-.06-.1-.06-.17s.07-.31.06-.3c-.01,0-.05-.18-.05-.18,0,0-.07-.05-.06-.11s.03-.19.03-.19l-.13.14Z"/>
      <path class="cls-1" d="M113.78,8.2h.2s.08.04.14,0c.06-.04.25-.04.25-.04l-.16-.16h-.12l-.2-.21h-.44s-.08.17,0,.19.19.01.21.06c.02.05.08.16.13.16Z"/>
      <path class="cls-1" d="M115.04,8.97c-.04-.07-.1-.1-.13-.16-.04-.06-.15-.13-.15-.13,0,0-.19.1-.15.13.03.03.11.16.18.16s.15.04.18.07.07.22.07.22c0,0,.16.01.2,0,.03-.01.15-.12.15-.12l-.2-.17s.02-.06.08-.1c.06-.04.13-.14.06-.19-.07-.05-.25-.05-.25-.05,0,0-.07.01,0,.08.07.07.06.16.06.16,0,0-.05.17-.09.1Z"/>
      <path class="cls-1" d="M111.87,8.29s-.09-.12-.14-.18c-.05-.06-.12-.1-.12-.1,0,0-.01.23-.05.31-.03.07.02.2-.13.18-.15-.02-.25-.04-.28-.14-.03-.11-.01-.14-.07-.19-.06-.05-.28-.03-.36-.15-.08-.12-.16-.24-.19-.3s-.06-.08-.09-.14c-.04-.06-.08-.1-.08-.1l-.16.06s.02.05.08.14c.06.1.18.28.25.43s.36.43.35.53c0,.1.06.18.11.18s.27.09.3.14c.04.05.05.26.05.32s.14.19.2.25.11.13.16.13h.31s-.07.16-.08.21c-.01.05.16.25.16.25,0,0,.23.01.25.05.01.04,0,.27,0,.27,0,0,.16.1.18.13.01.04.11.22.11.22l.15-.1-.13-.14s0-.1.06-.1.15.01.15.01c0,0-.12-.05-.08-.11.04-.06.09-.05.08-.11-.01-.06-.08-.29-.08-.29,0,0-.03.14-.11.17-.07.04-.22.07-.22.07l.09-.11s.09-.06.08-.14c-.01-.08-.06-.17-.16-.21-.11-.05-.25-.06-.3-.1s-.13-.07-.15-.12c-.02-.05-.07-.18-.07-.18,0,0-.01-.07.07-.06.08.02.2.06.23.06s.08-.01.15-.06.13.03.14.07c.01.04.01.13.11.12.09-.01.18.05.22,0,.05-.05.08-.04.08,0s-.18.06-.14.13c.04.07.07.13.07.13l.19-.07s-.08.16-.08.21.12.13.18.13.26-.12.26-.12l.19.07v.14c0,.07-.07.1,0,.13.07.04.09.04.15-.01.06-.05.08-.12.14-.16.06-.04.07-.19,0-.3-.07-.11-.14-.3-.13-.35.01-.05.07-.08.13-.06.06.02.15.17.25.19.09.02.2.06.23.05.04-.01.09.02.07-.11-.02-.13-.18-.23-.21-.34-.04-.11-.04-.22-.13-.24-.09-.02-.21-.06-.27-.12-.06-.06-.3-.28-.35-.27-.05.01-.35-.18-.35-.18,0,0-.07-.15-.13-.09-.06.06-.18.23-.18.23,0,0-.08-.06-.14-.07-.06-.01-.2-.15-.2-.15,0,0-.01-.16-.11-.11-.09.05-.06.18-.06.18,0,0-.05.08-.16.05-.11-.04-.26-.01-.29-.05Z"/>
      <path class="cls-1" d="M121.36,7.68c-.08.06-.15.06-.15.06v.16h-.06v.06h-.07v.1s-.07.1,0,.08c.07-.01.21-.1.21-.1.07-.01.13-.06.13-.06l.08-.1.03-.04.07-.1-.07-.19s-.05.1-.11.11c-.06.01.02-.05-.06.01Z"/>
      <path class="cls-1" d="M122.79,7.19s.16-.02.13-.08c-.03-.06-.08-.14-.08-.14,0,0-.08-.07-.13-.09-.05-.02-.05.02-.1-.05l-.04-.07h-.12s-.08-.02-.12,0l-.04.02.08.18s.01.05.05.08c.04.04.13,0,.13,0v-.08s.08-.02.08.01v.14s.11.07.14.07Z"/>
      <path class="cls-1" d="M125.78,5.49h.18s.06-.02.07-.1c.01-.07-.04-.18-.07-.22-.04-.04-.22-.14-.22-.14v.22l.08.06-.08.05.04.13Z"/>
      <path class="cls-1" d="M126.04,5.81c-.06-.05-.15-.05-.15-.05h-.15v.12l.07.11.08.05s.09.04.1.08c.01.05.05.1.05.1,0,0,.17.07.16,0-.01-.07-.16-.29-.16-.29,0,0,.06-.07,0-.12Z"/>
      <path class="cls-1" d="M128.66,4.8s.14.01.14.01v-.14s-.09-.15-.13-.15h-.16s-.07.06-.07.1v.18s.04-.04.07,0c.04.04.12-.02.15,0Z"/>
      <path class="cls-1" d="M128.92,5.49s0-.17-.07-.27c-.07-.1-.22-.22-.23-.26s.01-.1-.08-.08c-.1.01-.29-.06-.29-.06h-.12l.08.21s.07-.06.11,0l.03.06s.05.11,0,.17c-.05.06.02.22.08.23.06.01.18.1.18.11,0,.01.05.04.06,0,.01-.04-.04-.08.05-.11.08-.02.14.05.19,0Z"/>
      <path class="cls-1" d="M131.03,7.14l.07-.07.02-.08-.09-.14h-.2v.07s-.01.01-.06,0c-.05-.01-.05,0-.11,0s-.07.05-.13,0c-.06-.05-.07-.08-.13-.07-.06.01-.12,0-.12,0,0,0-.07-.11-.11-.08-.04.02-.06.13-.12.11-.06-.02-.2,0-.2,0l.22.12s.07.04.12,0c.05-.04.07-.07.11-.05.03.02.03.03.07.06.03.03.06-.04.11,0,.05.04.11-.02.16,0,.05.02.08-.06.11,0,.02.06.05.12.05.12l.09-.05.07.05s-.01.07.06,0Z"/>
      <path class="cls-1" d="M132.73,6.88c.07.05.13.04.13.04,0,0,0-.05.08-.06.08,0,.06.09.16,0s.12-.12.11-.17c-.01-.05-.06-.14-.11-.11-.05.04-.16.1-.2.12-.04.02-.11.04-.14.06-.04.02-.18-.03-.21,0-.03.03-.07.07-.13.07s-.02,0-.09,0c-.07,0-.21,0-.21,0,0,0-.12-.04-.19,0-.07.04-.19.06-.19.06l-.2.09h-.09v.11s.14.01.21,0c.07-.01.11-.12.19-.09.08.02.09,0,.16,0,.07,0,.01,0,.07,0s.08,0,.14,0c.06,0,.11-.02.15,0,.05.02-.06.03.05.02h.11s-.09-.12,0-.12.12-.05.19,0Z"/>
      <path class="cls-1" d="M133.33,8.54s.02.1.05.13c.02.04.09.13.09.13l.14.11s.05-.07.11,0c.06.07.09.16.09.16h.18v-.13s-.06-.06,0-.06.19-.01.19-.01c0,0,.01-.08.05-.16.04-.07.22-.07.29-.07s.16-.02.19.04c.02.06.06.22.06.22,0,0,.14,0,.21-.04s.22-.19.23-.23c.01-.04.18-.16.19-.12.01.04.13.16.16.18.04.02.07.08.15.13.08.05.25.11.25.11,0,0,.12-.06.16-.07.04-.01.1-.02.16-.02s-.06.01.06,0c.12-.01.14.08.13.13-.01.05,0,.21,0,.21,0,0,.14.07.18.07h.13s.21.02.25,0c.04-.02.13-.08.14.01.01.09.01.38.01.38h.13s.06-.24.07-.31c.01-.07-.05-.17-.05-.2s.06-.1.05-.17c-.01-.07-.07-.11,0-.18.07-.07.12-.06.08-.16-.04-.1-.11-.23-.12-.28-.01-.05,0-.12-.11-.18-.11-.06-.18-.17-.26-.19s-.21-.2-.22-.24c-.01-.04-.13-.19-.06-.23.07-.04.18-.06.21-.01.03.05.11.19.11.19,0,0,.04.06.07.07.04.01.12-.08.12-.08,0,0,.02-.14.01-.2-.01-.06,0-.22.04-.23.04-.01.15-.06.19-.05.04,0,.09-.13.15-.1.06.03.14.05.14.1s-.14.21-.13.26c.01.05.09.13.15.13s.04-.02.14-.02.07-.01.19,0c.12.01.13-.01.19.04.06.05.15.05.18.14.02.1.02.18,0,.24-.02.05-.18.17-.11.2.07.02.14,0,.18.05.04.05.13.07.14.01.01-.06-.04-.21.05-.26.08-.04.15-.08.15-.08l.05-.1s.14-.05.13-.08c-.01-.04,0-.11,0-.11-.05-.01-.12-.07-.12-.07h-.19s-.05-.07-.07-.13c-.02-.06-.05-.1-.08-.1s-.11-.03-.13,0l-.05.08-.12.06s-.11.12-.11,0,.09-.25,0-.26c-.09,0-.18,0-.18,0l-.07-.21c-.02-.06-.07-.1-.21-.14-.14-.04-.31.02-.36,0-.06-.02-.13.04-.18-.01-.05-.05-.18-.26-.21-.24-.04.02-.12.04-.2,0-.08-.04-.13,0-.26,0-.13,0-.27.02-.34,0-.07-.02-.26-.16-.29-.19-.04-.02-.2.04-.25,0-.05-.04-.07-.12-.2-.08s-.2.12-.2.12c0,0,.05.15.15.15.11,0,.19.19.19.19,0,0-.08.01-.12.07-.04.06-.02.08-.06.14-.04.06-.08.1-.16.11-.08,0-.28-.04-.32,0-.04.04-.23,0-.23,0h-.15l-.11.1h-.22c-.09.09-.16.15-.16.15l-.07.06h-.13v-.14s-.01-.09-.05-.06c-.03.03-.12.1-.12.1v.14s.01.06,0,.11c-.01.05.02.08,0,.12s-.05.07-.13.13c-.08.06-.31.12-.31.12v.2s.06.04.06.1-.06.12-.06.17c0,.05.1.13.11.17Z"/>
      <path class="cls-1" d="M131.63,9.46s.15-.06.19-.06.05.01.11-.02c.06-.04.09-.06.08-.1-.01-.04,0-.1.06-.14.06-.04.11-.09.08-.13-.02-.04-.02-.02-.08-.06-.06-.04-.06-.13-.06-.13l-.09.08s-.25.04-.21.06c.04.02.16.1.15.14,0,.05,0,.12,0,.12l-.15.07-.08.16Z"/>
      <path class="cls-1" d="M132.11,9.73s.14.02.15.01c.01-.01-.05-.14-.05-.14l-.11-.14s-.05.06-.08.07c-.04.01-.13,0-.13,0l.11.21s.07.02.11,0Z"/>
      <path class="cls-1" d="M129.37,10.6h-.32l-.09.11s.16.21.16.19-.02-.12.06-.15.19-.15.19-.15Z"/>
      <path class="cls-1" d="M123.13,7.25c-.06,0-.21.05-.21.05,0,0,.12.16.19.19.07.04.21.08.23.12.02.04.01.04.07.11.06.07.23.15.27.13.04-.01.09-.15.16-.16.07-.01.21-.02.25,0,.03.02.08.13.12.07.04-.06.14-.24.19-.21.05.04.22.05.27,0,.05-.05.11-.13.18-.16.07-.02.08-.07.3.01.22.08.27.1.31.14.03.05.08.04.16.1.08.06.06.12.06.19s.08.28.11.29c.02.01.03.06.1.06s.15-.06.15-.06c0,0,.19.05.16.08-.02.04.01.13,0,.19-.01.06.07.14.07.14,0,0,.13-.07.21-.13.08-.06.09-.16.13-.23.04-.07.06-.19.22-.19s.26-.01.36-.06c.11-.05.18-.1.27-.1.09,0,.05-.02.22,0,.18.02.3.07.32.11.01.04-.01.13-.01.13,0,0-.09.08-.08.13.01.05.11.16.11.23s-.03.14,0,.2c.04.06.07.14.12.14h.21s.2.18.28.23c.08.05.29.08.32.08s.18.04.22,0c.03-.04.23-.07.23-.07,0,0,.22.17.27.2.05.04.13.18.21.2.08.02.12.08.12,0s-.11-.23-.12-.28c-.01-.05-.02-.11-.06-.13-.04-.02-.15-.05-.14-.1.01-.05.01-.14.11-.13.09.01.05.06.18,0s.18-.07.26-.07.14-.02.18,0c.03.02.06.04.15.07s.23,0,.23,0c0,0,.06-.01.12,0,.06.01.19.07.23.13.05.06.13.28.15.19.02-.09.09-.32.09-.32h.09c.06,0,.09.11.11,0,.01-.11-.01-.19.01-.23.02-.04.06-.05.05-.08-.01-.04,0-.11,0-.11-.04-.01-.27-.02-.31,0-.03.02-.22.1-.26.1s-.13-.06-.13-.06c0,0,.18-.07.19-.11.01-.05-.06-.34-.06-.34,0,0-.19-.14-.26-.13s-.31-.23-.31-.23c-.11-.12-.18-.14-.19-.18-.01-.04-.06-.07-.12-.11-.06-.04-.18.04-.21,0-.04-.04-.15-.14-.18-.14s-.16-.12-.16-.12h-.21s-.07,0-.11-.05c-.04-.05-.08-.21-.16-.2-.08,0-.12-.03-.22-.08-.1-.05-.16-.1-.23-.09-.07.01-.16.02-.17,0s-.14-.09-.2-.09c-.06,0-.18-.02-.2-.05-.02-.04-.19-.25-.23-.26-.05,0-.28-.1-.34-.15-.06-.05-.33-.22-.33-.22,0,0-.11-.08-.07,0s.23.17.25.27q.01.1.19.16c.18.06.27.18.29.25.02.07.05.11.02.19-.02.08-.06.19-.12.22s-.22-.02-.34-.1c-.12-.08-.24-.16-.3-.22s-.24-.39-.24-.39c0,0-.09-.02-.12,0-.02.02-.09.03-.09.1s.04.16-.05.16-.23-.05-.3-.04c-.07.01-.19.1-.25.07s-.06-.11-.22-.12c-.16-.01-.22-.05-.31-.04-.09.01-.22,0-.29.01-.07.01-.18.04-.21.06-.04.02-.09.04-.09.12s.02.22-.05.23c-.07.01-.09.05-.14,0-.05-.05-.13-.18-.13-.18,0,0-.15-.04-.19-.01-.03.02-.13.18-.13.18,0,0-.14.08-.22.07-.08-.01-.14.02-.22.01-.08-.01-.27-.04-.34-.02-.07.01-.25.1-.25.1,0,0,.11.15,0,.2-.11.05-.13.08-.19.08Z"/>
      <path class="cls-1" d="M130.07,9.35c.07,0,.09-.04.16,0,.07.04.26.05.26.05,0,0,.11-.11,0-.13-.11-.02-.2,0-.26-.06-.06-.06-.05-.11-.09-.17l-.04-.06c-.04-.06-.05-.16-.05-.16l-.14.13s.06.02.07.07c.01.05,0,.11,0,.11,0,0,.06.02.07.09s-.07.12,0,.12Z"/>
      <path class="cls-1" d="M127.67,8.41c-.05-.1-.06-.16-.12-.16s-.08,0-.1-.04c-.03-.04-.05-.22-.05-.22h-.12v.1s-.09.07-.06.12c.04.05-.02.04.04.05.06.01.14.02.14.07v.16s.05.1.08.13c.04.04.11.19.11.19,0,0-.05-.19,0-.25.05-.06.13-.06.08-.16Z"/>
      <path class="cls-1" d="M127.04,8.78c.09.04-.02.06.09.04.12-.02.11.07.12-.02.01-.1-.04-.16-.04-.16,0,0-.07-.1-.09-.14-.01-.05.01-.02-.01-.08-.02-.06-.13-.12-.13-.12l-.13.12v.11l-.16.16-.13.06-.09.08v.1s-.06-.11-.09,0c-.04.11-.06.19-.06.19l.13.03-.06.11.07.14.14-.07s.02.02.05-.06c.03-.08.04-.14.05-.22.01-.07.04.02.05-.13v-.16s.23-.07.23-.07c.06.1-.04.06.06.1Z"/>
      <path class="cls-1" d="M112.57,16.66c-.06,0-.28.08-.28.08,0,0-.05.05-.11.08-.06.04-.21.19-.25.14-.04-.05-.77-.18-.82-.24-.05-.06-.01-.13-.13-.16-.12-.02-.5,0-.5,0h-.27s-.21-.06-.21-.06l-.11-.13h-.48s-.06-.12-.08-.16c-.02-.04-.08.04-.14,0s-.21-.03-.27-.01c-.06.02-.4-.09-.47-.11-.07-.02-.2-.01-.26-.05s-.15-.05-.15-.05h-.12s-.12-.06-.23,0c-.12.06-.36.1-.4.1s-.36.08-.36.08c0,0-.21.01-.28.01s-.34-.04-.41.01c-.07.05-.14.1-.16.17-.02.07-.05.27-.09.3-.05.04-.12.08-.18.1s-.09.02-.13.02-.18-.02-.26-.02-.16.01-.36.08c-.2.07-.4.14-.4.14l-.11.02s-.07-.05-.15-.02c-.08.02-.9.33-.94.34-.04.01-.22-.04-.26,0-.03.04-.22.17-.27.19-.05.02-.39.17-.57.23-.19.06-.69.27-.76.23-.07-.04-.72.04-.79,0-.07-.04-.42.01-.42.01,0,0-.09-.1-.06,0,.04.1.05.19.08.25.04.06-.01.17-.01.24s-.07.2-.02.28c.05.07.12.22.21.3.09.08.29.27.38.29s.21.11.39.16c.18.05.52.14.61.14s.33-.01.45,0c.12.01.3-.01.34-.07.04-.06.23-.22.3-.23.07-.01.12-.02.15-.05.04-.02.11-.1.15-.11.05-.01.13-.05.27-.05s.38-.01.45-.04c.07-.02.27-.11.35-.12.08-.01.26.05.34.07s.23.11.23.11c0,0,.07-.19.12-.19s.36.04.36.04c0,0,.09.08.09.13s-.09.22-.09.22c0,0,.08.04.15.06.07.02.07.05.18-.01.11-.06.07-.04.16-.11.09-.07.09-.24.11-.28s0-.11-.08-.14-.28-.06-.28-.06c0,0-.11-.13-.01-.16.09-.02.39-.04.39-.04,0,0,.08.1.09.17.01.07.01.08.01.16s-.07.08-.05.14.04.13.13.13.09,0,.18-.04.09-.02.22-.07c.13-.05.14-.13.19-.18.05-.05.03-.06,0-.12s-.18-.13-.18-.13c0,0-.16-.02-.22-.07-.06-.05-.15-.07-.13-.12.02-.05.2-.18.23-.19.04-.01.2-.06.2-.06,0,0,.1.14.1.23,0,.08,0,.22,0,.22l.22.02.03-.12s-.05-.06-.01-.1c.04-.04.15-.1.19-.06.04.04-.01.1.05.1s.16-.12.16-.12l-.07-.17s0-.06.06-.06.11-.01.12.06c.01.07-.05.19.06.2.11.01.11-.06.26-.02.15.04.22.07.22.07,0,0,0-.26.09-.25.09.01.21-.01.27,0,.06.01.14.04.16.07.02.04.18.19.18.19,0,0,.11-.01.07-.08-.04-.07-.12-.07-.12-.18s.09-.5.13-.52c.04-.02.18-.05.21-.04.03.01.08.04.12.12.04.08.07.19.08.12.01-.07.07-.24.04-.29-.04-.05.08-.24.08-.24,0,0,.05.18.13.22.08.04.18.1.34.13.16.04.55.05.48.13-.07.08.01.11-.14.14-.15.04-.2,0-.3.08-.11.08-.18.06-.12.13.06.07.15.08.27.1.12.01.28,0,.32-.1.03-.1.07-.21.12-.31.05-.11.01-.24.11-.28s.35-.02.48-.05c.13-.02.26.05.35.05s.22-.04.22-.04l.02-.12s-.09-.06-.08-.11c.01-.05.07-.17.21-.17s.2.04.21.06c.01.02.12.23.15.25s.05.02.16-.05c.12-.07.32-.21.41-.19.09.01.18.06.3.07.13.01.14.08.22.02s.15-.16.15-.16l-.08-.08-.26.12-.12-.12-.11-.12-.07-.16s-.07-.01-.07-.05v-.12s-.15-.06-.21-.06Z"/>
      <path class="cls-1" d="M104.77,19.21s-.07.14-.07.18-.02.11.03.13c.06.02.14-.01.13-.05-.01-.04,0-.1,0-.1l-.09-.16Z"/>
      <path class="cls-1" d="M105.08,19.53l.06-.25h-.16s-.02.08,0,.14.11.1.11.1Z"/>
      <path class="cls-1" d="M140.72,32.93l.05.11c.08.04.16,0,.16,0l.06-.07s.07-.08.11-.06c.04.02.08,0,.13,0,.05,0,.07-.06.07-.06,0,0-.16-.1-.2-.1s-.19.05-.19.05l-.25-.05s-.13.01-.09.1l.04.08h.12Z"/>
      <path class="cls-1" d="M129.45,37.17c-.08.12-.34.37-.36.46-.02.08-.2.22-.18.29.02.07.09.22.19.17.09-.05.52-.41.66-.46.14-.05.47-.11.65-.11s.47-.11.52-.07c.05.04.46.07.46.07,0,0,.07-.05.15.04.08.08.26.11.34.12.08.01.48-.21.66-.27.18-.06.5-.17.64-.18.14-.01.41,0,.55-.04.14-.04.47-.08.54-.08s.26.05.29.06c.04.01.06.07.15.04.09-.04.16-.1.22-.14.06-.05.56-.27.63-.27s.27.06.32.04c.05-.02.09-.18.19-.17.1.01.44.12.51.14.07.02.16.02.31-.01s.42-.11.63-.16c.21-.05.4-.1.6-.18.2-.08.47-.22.61-.25.14-.04.41-.11.49-.13s.23-.1.34-.13c.11-.04.35-.08.43-.1.08-.01.18-.01.26-.07.08-.06.22-.29.31-.34.09-.05.5-.23.5-.23,0,0,.13-.02.23-.05.11-.02.2-.17.29-.23.09-.06.23-.13.34-.17.11-.04.31-.02.35-.02s.25.01.32.01.21-.13.33-.19c.12-.06.22-.12.25-.17.02-.05.06-.17.06-.17,0,0-.12-.13-.15-.14-.04-.01-.29-.05-.29-.05,0,0-.08.12-.12.1-.03-.02-.06-.02-.14,0-.08.02-.22-.07-.28,0-.06.07-.32.19-.4.19s-1.4-.31-1.47-.29c-.07.02-.27.19-.33.14-.06-.05-.27-.05-.4-.08-.13-.04-.25-.07-.32-.06-.07.01-.36.19-.4.14-.04-.05-.34-.04-.45,0-.11.04-.35.29-.45.34-.09.05-.2.17-.27.18-.07.01-.33-.01-.41,0-.08.01-.32-.07-.35-.1-.04-.02-.53-.39-.59-.43-.06-.05-.32-.29-.43-.31-.12-.02-.68-.18-.68-.18,0,0-.19-.04-.22-.08-.03-.05-.22-.1-.25-.16-.02-.06-.09-.17-.16-.22s-.43-.19-.56-.18c-.13.01-.53.14-.59.18-.06.04-.16.16-.2.16s-.13.01-.23.06c-.11.05-.52.34-.6.39-.08.05-.56.25-.61.27-.05.01-.08.02-.22.01-.14-.01-.54-.07-.67-.07s-.42-.14-.46-.16c-.04-.01-.22-.18-.29-.21-.07-.02-.26-.02-.32.07-.06.1-.36.54-.41.62-.05.07-.15.22-.15.35s.02.38.11.52.16.45.2.58c.04.13.11.29.12.4.01.11.02.3-.05.43-.07.13-.21.43-.29.55Z"/>
    </g>
  </g>
</svg>