<svg xmlns="http://www.w3.org/2000/svg" id="Layer_2" data-name="Layer 2" viewBox="0 0 143.2 38.1"><defs><style>.cls-1{fill:#172d35}</style></defs><g id="_Ñëîé_1" data-name="Ñëîé 1"><path d="m33.6 4.6-1.1.8-.4.3-1 .3-.2.2-.6.1-.3.1-.6.2h-.2l-.3.2v.6l.2.1v.2q.2 0 .2.2l.4.7.1.4.1.1.2.3.3.5.7.1.5.1h.3l.2.2.2.4v.5l.1.3.3.4.2.3v.9l.3.4.3.3.2.1v.7l-.2.2-.2.2-.5.6-.4.3.3.7v.4l-.2.2s-.1-.1-.1 0l.1 1.3-.1.3-.4.3-.2.2v.5l.1.4.2-.1-.1-.2v-.1l.4.6-.2.1H32l-.1.3-.1.1.1.3v.2l-.4.5h.2l1 .3q.3 0 .3.2v.4l-.1.2.3-.1v-.2.3l.1.1q0 .2-.2 0l-.2.1h-.4l.3-.1h-.4l-.5.3-.4.2-.3.6v1.4h.7l.2.4v.3H32l.1.2h.2v-.1l.1.1.1.1.1-.2v-.1l-.3-.2v-.7l.3-.2.3-.1h.3l.5.4.5.1.8.3h1l.3-.2.1-.2v-.3l.1-.1.2.3h.2v-.3l.2-.3.4-.1 1.3.1.7.2.4.3h.2l-.2-.6h.6l.3.3.1.3v.4l1 .5 1.1.6h.4l.2-.2-.1-.1-.5-.2v-.2h.3l.3-.1.3-.1.1-.2-.3-.3-.2-.2h-.4V25l.2-.1h.2l.2.3h.4v.5l.1.2h1l.1.1h.6l.2-.3h.3l.2.1.3.1.7-.2 1.5-.8.2-.4v-.2h-.2l-.2.4h-.6v-.4h.2q0 .2.2.1v-.6l.2.2.5-.3.6-.5.1.2v.2h.3l.1.2v.5h-.3v.2l.2.2.4-.6 1-.1.5.2.1.3 1.5.7.5-.1.5-.5 1-.2q.3 0 .4.3v.2l-.1.2v.3l.5-.2.3-.2h.5l.3.4 1.9-.6 1.2-.6 1-.1h1l.5.3.5.6.4.5h.3l.4.1 1.2.9s.8-.8.8-1l.3-.2.4-.3.3-.3h.8l.3.2.1.2.6.4.4.8.3-.2h.4l.6.3.3.3h.2v-.3h.3l.1.2.1.1h.2v-.2l-.1-.4.1-.1.4-.3.5-.4h.1l.2.1.1.2h.3l.2.2h.4l.2.3-.1.1-.6.2-.6-.2h-.4v.2l.5.5 1.2-.4.1.2.4.2h.2l.2-.2.6-.4.4-.2.4-.1h.3l.4-.3.3-.2.5-.3q.3-.2.5 0l.3.2.7.4.5-.4.1-.3s.3-.4.5-.4l.7-.1h.6l.2.4.4.1 1.7-.2.9-.2.5-.4c.1 0 1-.8 1.2-.8l1-.4h.7l.1-.2V22l-.1-.4.2-.6.4-.4h.2q0 .2.3.2l.4-.2.1-.5v-.5l.4-.3.3-1.5.6-1.2.3-.4.7-.3.1-.4.2-.4.5-.3h.4l.3.2h.3q.1.4.2.3.2 0 .1-.1l-.1-.4q0-.2.2-.3 0-.2.3-.2h.5l.2-.3h.4l.2.2.3.1h.5l.2-.2v-.3l-.3-.5-.1-.3.3-.3h.3q.2.3.4.3l.1.4v.4l.3-.3v-.4l.1-.2.3.3.2-.3-.5-.3v-.4L99 12v-.2l.1-.1v-.1H99v.2h-.4l-.4-.3V11l.1-.2.2.1v-.2l-.1-.2-.1.1H98v-.4l.2-.2.2-.2v-.4l-.1-.1v-1L98 8v-.3l.2-.3.2-.2V7l.2-.1.1-.2v-.1h-.3v.1h-.1l.1-.4V6l-.1.2-.1.3-.2.2h-.1l-.2-.2v-.3l-.3.2-.1.3-.2.2H97l-.4.1-.6-.1-.7-.2-.4-.2h-.2l-.3-.5v-.2H94V6l-.3.2h-.3L92 5v-.4h-.2v.1l-.3.2H91v-.2l.3-.2v-.3h-.1l-.4.3-.3.2h-.4l-.4-.6L89 4l-1.2-.3h-.4l-.3-.3-.3-.2h-.4l-.5.1h-1L83.7 3l-.8-.3h-.2V3l-.3.3-.3.1h-.8l-.4-.2-.2-.3H80l-.7-.1-.4-.4H78l-.5-.2h-.3v.2l.3.2v.2l.1-.1v-.1h.2l.2-.1h.1l.2.2H78v.1l.1.2.5.3h.4v.3h-.3l-.5.4-.2.2-.2-.1v-.7h-.2l-.2.1h-.3l-.2-.1-.2-.3v-.5l.2-.2V2h-.3l.1.3-.3.3-.3.3-.2.1h-.7l-.3-.2-.2-.1V2h.2v-.1h-.3v.3l-.3.1h-1.5l-.6-.1L72 2l-.2-.1-.4-.3h-.6l-.3.3h-.4L69 1.8q-.1-.2-.7-.4h-1.7l-.8-.4-.8.3h-1l-.2.2-.3.5-.3.2h-.9L62 2h-.3l-.7-.2-.7-.3-1-.1h-1.6L56.2 1l-1.7.2-.5.2-1.4.6h-1.3l-1.1-.5-.8-.4H49l-1.3.2H47l-.5-.2h-.7l-1 .3h-1.1l-.5-.1-.7-.2-.5.1-.9-.1-.7-.4-1-.5h-.7l-.4-.2h-2.6l-.7.2-.6.1-.7.6-.5.5-.1.5v.5l.3.3.2.8v.8zm67.2 3.1v-.2h-.4l.2.1v.3z" class="cls-1"/><path d="M99 9.1v.2h.1zm-.4-.8.1-.2V8h-.2v.4m1.5 3.3v.2l-.1-.1h-.4v.4h.2v-.1h.2v.1h.3v-.3zm.3.6.1-.2h-.2zm-1.1 1.6.2-.1v-.1h-.3zM94 16.3h-.4v.1l.2.1v-.1zM19.7 5.9l.1.2.1.2h.2l.2-.1v-.3l-.2-.2h-.2V6zM.3 16H0v.2h.2zm.2 3.1v.2l-.2.2v.1h.3l.3.4.2.1q-.1.1.1.2l.7.2.1.1.2.2h.6l.5-.2.3-.2q0-.3.3-.5l.2-.2.2-.1.2-.1V19l-.2-.7-.1-.1-.2-.1-.1-.3h-.2l-.4.2v.1H2.1L2 18l-.2-.1-.5.2-.5.2H.7v.4zM108.8 8.8h.2l-.1-.2-.3-.1v.1zm1.9.3h-.3v.5h.1l.2.2h.2v-.6zm3.1-.9h.6l-.2-.2h-.1l-.2-.2h-.5V8h.3zm1.2.8v-.2l-.2-.1-.2.1.2.2zv.3h.2l.2-.2-.2-.1v-.1l.1-.2h-.2zm-3.1-.7-.2-.2-.1.2-.2.2-.2-.1-.1-.2-.4-.2-.2-.3v-.1l-.1-.1h-.2v.2l.3.4.4.5v.2l.4.2v.3l.2.2.2.2h.3v.4h.3v.3l.2.2.1.2.2-.1-.1-.1v-.1h.2l-.1-.1V10l-.1.1h-.2l.1-.2-.1-.2h-.3l-.2-.2v-.2h.5l.1.2h.3-.1v.2h.3l-.1.2h.6v.3h.2l.1-.2v-.3l-.1-.3h.1l.3.1h.2l-.2-.4V9l-.4-.1-.3-.3-.4-.2-.3.2-.1-.1-.2-.2h-.1v.1zm9.5-.6h-.2V8h-.1v.2h.2l.1-.1.1-.1.1-.2v-.1zm1.4-.5V7l-.2-.1-.1-.1h-.3V7h.3zm3-1.7h.2v-.3l-.3-.2v.3h.1zm.2.3h-.3l.1.2.2.1v.1h.2L126 6m2.7-1.2-.1-.2h-.2v.3zm.3.7-.2-.3-.2-.2v-.1h-.4V5h.1v.3l.1.2.2.1.1-.1zm2 1.6v-.3h-.3V7h-.5l-.1-.1h-.4l.3.2h.7v.1zm1.7-.2h.4l.1-.2-.1-.1-.2.1h-.3l-.2.1h-.7l-.2.2h1zm.6 1.6v.2l.2.1.1.1h.1l.1.2h.2v-.2h.2v-.2h.5v.2h.3l.2-.3h.4l.1.2.3.1h.5v.3h.7v.4h.1v-.8q.2 0 .2-.2l-.2-.3v-.1L137 8l-.3-.3v-.2h.2l.2.3.1-.1v-.5h.2l.2-.1h.1l-.1.4h.5l.2.1.1.1v.5h.3V8l.2-.1v-.1h.1v-.2h-.3v-.2h-.4s-.1.2-.1 0v-.2h-.2V7l-.3-.2h-.5l-.2-.2h-.8l-.3-.2h-.7l.2.2.2.2h-.2V7l-.2.1h-.7v.1h-.3l-.2.2h-.2v-.1h-.1v.4l-.2.1-.3.1v.5zm-1.7 1 .2-.1h.1l.1-.1V9h.2-.2v-.2l-.2.1h-.2l.2.2v.1h-.2zm.5.2h.2v-.1l-.2-.1h-.2zm-2.7.9h-.4v.1l.1.2v-.2z" class="cls-1"/><path d="M123.1 7.3h-.2l.2.2.2.1.1.1.3.2.1-.2h.4l.2-.1h.3l.1-.2h.3l.4.1.1.1v.2l.2.3h.2l.2.1v.3l.3-.1.1-.2q0-.2.2-.2h.4l.3-.2h.2l.3.1v.7l.1.2h.2l.3.2h.8l.3.2.2.2h.1l-.1-.3V9l-.2-.1v-.1h.3l.2-.1h.7l.2.2.2.2v-.3h.2v-.3h.1v-.2h-.3l-.2.1h-.2l.2-.1v-.4l-.3-.1-.3-.2-.2-.2-.1-.1h-.2l-.2-.2h-.4V7l-.2-.2-.3-.1-.2-.1h-.4l-.2-.1-.2-.3-.3-.2-.4-.2.2.3.2.2q.3 0 .3.2v.2l-.1.2h-.3l-.3-.3-.3-.4h-.1v.1l-.1.2h-.6l-.2-.1h-.8l-.1.1v.3h-.2l-.1-.2h-.2l-.1.1-.3.1h-.5l-.3.1v.2h-.2Z" class="cls-1"/><path d="M130 9.4h.5v-.1h-.3V9h-.1v-.2l-.2.1v.2l.1.1zm-2.3-1-.2-.2q-.2 0 0 0l-.1-.2h-.1v.2l.1.1v.3l.2.2zm-.6.4h.3v-.2l-.2-.1-.1-.2-.1.1v.1l-.2.2h-.1l-.1.1V9h-.1v.5h.2v-.1l.1-.3v-.2zm-14.4 7.9h-.3l-.1.1-.3.2-.8-.3-.1-.1h-.8l-.2-.1-.1-.1h-.5v-.2h-.5l-.4-.1h-.3l-.2-.1h-.7l-.4.2h-.7l-.1.2-.1.3h-.6l-.3.1-.4.2h-.3l-1 .3h-.2l-.3.2-.5.2-.8.3h-1.2v.8l.2.3.4.2.4.2.6.1h.8l.3-.3h.1l.2-.1h.2l.5-.1.3-.1h.4l.2.2.1-.2h.4v.4h.3l.2-.1v-.4h-.3v-.2h.4l.1.2v.3h.3l.2-.1.2-.2v-.1l-.2-.1-.2-.1-.2-.1.3-.2h.2v.4h.3v-.2h.2l.2-.1v-.2h.1v.2h.6v-.2h.3l.2.1.2.2v-.8h.4v.2-.3l.2-.2.1.2.3.1q.5 0 .5.2l-.1.1h-.3l-.1.2.2.1h.3l.2-.4v-.3h1.1v-.2q0-.2.2-.2h.2l.1.3h.2l.4-.3.3.1h.2l.2-.1-.1-.1-.3.1v-.1l-.2-.1v-.2h-.1v-.2h-.2Z" class="cls-1"/><path d="m104.8 19.2-.1.2v.1h.2v-.1zm.2.3.1-.2h-.1zM140.7 33h.5l.1-.2h-.7zm-11.2 4.2-.4.4-.2.3.2.2.7-.5h.6l.5-.1h.6l.4.2.6-.3.7-.2h1.5l.2-.1.7-.3h.3l.2-.1.5.1h.3l.6-.2.6-.1.6-.3.5-.1.4-.2h.4l.2-.1.4-.4.5-.2h.2l.3-.3.3-.1h.7l.3-.2.3-.2v-.2l-.1-.1h-.9l-.4.2-1.4-.3-.4.2-.4-.1h-1.1l-.5.4-.2.2h-.5l-.3-.1-.6-.4-.4-.4-.7-.1-.2-.1-.3-.2-.1-.2-.6-.2-.6.2-.2.2h-.2l-.6.4-.6.3h-.9l-.5-.2-.3-.2h-.3l-.4.7-.1.3v.5l.3.6v.4q.2.2 0 .4z" class="cls-1"/></g></svg>