<svg xmlns="http://www.w3.org/2000/svg" id="Layer_2" data-name="Layer 2" viewBox="0 0 60.4 95.3"><defs><style>.cls-1{fill:#172d35}</style></defs><g id="_Ñëîé_1" data-name="Ñëîé 1"><path d="m4.2 74.2-1.3 1-.2 1h-.1l-.4.6H.4l-.3.3v.5l.3.3.6-.3 1-.2s0 .6.1.5h.3l1-.9 1.4-.5 3.4-.8.6-.2h1.8l1-.2H13l.7-.2 1.1-1 3-1 3-1.4.9-.2h1l.3-.2 1.3-.3.8-.3 1.1-.2h1l1-.2h.5l.1-.6v-.8l.3-.3v-.3l.7-2.3v-.5l.7-.2v1.2l.4.5-.1.6v.7l-1.2 1.3-.1.3v.3l1.3.7.5.7.5.2.2-.3-.2-.8.3-1c0-.2 1.5-2.3 1.5-2.4l.5-.6.2-.8-.2-1v-1.1l.5-.4.5-.3.6-.2.2-.8c0-.1.4-.4.3-.5l-.3-1 .1-.6.2-.2h.6v-1l-.2-.7v-1.8l.5-1.2v-1.6l-.6-2 .2-.3h-.4v-.8l-.1-.3c0-.1-.6-.3-.6-.5l-.1-.7-.5-.2-.3-.6.3-.5.6.2.6-.3L38 47l.5-.6-.2-.8h-.7l-.2-.5 1-.8-.3-.7c0-.1-.8-.3-.7-.4l.2-.2h.6v-.7l-.3-.9v-.7l-.1-1.2.1-.7-1-.5-.3-.3-.5.1-.4.3h-.3l-.3-.2-.1-2.3.9.3 2.2.2v-.5l.2-.2.1.6.5.3.3-.2.3.3-.2.8.2.3.6.6h.4l.2-.8v-1l.7-1c0-.1-.2-1.9-.1-2l1.3-.5v-.3h-1.3l-.5-.2-.6-.7.1-.7v-.8l.4-.5-.1-.2H40l-.2-.4v-.5l-.2-.4v-.5l-.3-2v-.6l.4-.3v-.3l-.3-.6-.3-.1-.3-.3-.7-1.7.2-.2.4.2h.3l.4-1.4.5-1 .1-1.1.4-1 .1.1.4.5v1.4l-1.3 2.8-.2.6q0 .2.2.2l.7.9.3.8.4 1.7-.3 1 .2.3.4.2.2.6c.1.1 0 .7 0 .8h.6l.2.4c0 .2.6 1 .7 1l.1 1 .2.3h1.1l.8.6.4.5v.8l.3.1.2-.2.2-1 .3-.4-.1-1-.6-.7-1-.7-.3-.8.1-1.4h.5l.4.4-.3.7.2.5q0 .3.3.5l.6.3h.3v-.8l.7-.6.1.1.2.7.1.5v.4l-.2 1.5v.4l-1 2v2s-.6.5-.7.8l-.2.4v2l.3.3h.4l.2-.5.6-1.5.6.1.3.6.4.6.2.9.3.4.4-.1.2-.7.2-.4V39l.2-.4 1-.6c0-.1.2-.7.1-.8l-.4-1.2-.7-1-.4-.9v-.7l.3-.2.4 1 .4.7.3.2.6-.3.3-1.4v-.3l-2.6-4-5-3L44 25l-.7-.7v-1.4l-.4-1v-.6l.6-1-.2-.9.5-1.8-.5-2.7v-.5l.2-.7-.1-.5-3.4.7.2-12.3V0L7.5 1 8 33.2v9.6l-.5 15-.3 7.3-.1.5-1.4-.5c-.2.1-1.7 1-1.8 1.2l-.2.4V68l.4.6.2.7-.4 2.2.3 1 .3.8v.4zm48.6-24.3h-.3l.2.6v1l.7.5.3.3-.3 1.1.2.6-.1.4v.4l.5.5-.4 1v.4l1 1.4.2 1.1-.1.9-.5 1.5.3.1.7-.4.8-.3.4-.2v-.4l.5-.7h.2l.3-.4.5-.1.8-.7.1-1 .8-.3.8-.2-1-10.8-.6-1-.1-.7.1-1.2.5-1v-1l.2-1.3-.1-.8-3.4-1V38l-1.5-.5-.2-.3-.1.4-.1.4-.3.6-.2 1.1-.4 1.8v3.2l.6 1v.4l-.3.4-.4 1v.2l.2.2.2 1.8-.2.3zM44 59.4l-.3.3h-.3l-.2-.1c0-.1 0-.9-.1-.8l-.6.9s-1 .7-1.1 1l-.2.4.3.4.1.5.3.3.8-.5.4.2.5-.2.9-.7s1 .9 1.1.7l.3-1c0-.2.5-.5.5-.6v-1l.2-1 1-.1.2.4.5.1.3-.3V58l.5-.2.8.3.4.4.1.3-.2.8h.3s.6-1 .5-1.2l-.5-1 .4-1.5.5-.7c0-.1.6-2 .5-2.1l-.5-.5c-.1 0 0-1.5 0-1.6l-.2-.8.2-2-.8-1.3.4-1.9v-1.2l1.2-.4.3-.2.1-.5v-1l-.2-.5v-1l-.2-.2-.7.9-1.5.6-.5.5-.4.9-.5.1-.3.4-.2 2-.7 1-.6 2.3-.7 1.1-.5.9-.2 1v2c-.1.1-.2.6-.3.5l-.8-.2s-.3.5-.2.6l.3.3v2.6l.4 1.4z" class="cls-1"/><path d="M47.7 41.7h.3l.4-.5v-.5l-.4-.2-.4.2-.2.3v.4zm-5.4-.6v.7l.6.8c.1.1.7 0 .8 0l.2.2.2.8-.2 1-.4.8.1 2 .6.4.6-.4 1-1.2.7-2.2-.2-.7-.3-.5-.6-.5-1.3-.8-.3-.5.1-1.3-.3-.9-.2-.2H43l-.1.5.3 1.2zm-4.1 20.6.2.4.5-.4.3-.4v-.8h.4L40 59l.5.1h.9l.3-.5-.5-1.2v-.6s.6-.8.6-1v-.2l-.5-.3v-3.1l.4-1v-1.8l-.5-.7-.4-.1-.5.2-.6 1.4-.2 1.8-.5 1.9.5 1.6.5.7-.3.9.3.4-.5.1c-.1 0-.9-.3-1-.2l-.2.5.3 1.9v.7zm-15 28.9-.3-.5-.6.7-.7.6-.2 2.8v.4l.3.7.7-.2 1-.5 2.4-.2.8-.4.2-.4-1.3-2.5v-1l.4-1.4-.1-1.8-1.5-1h-.4l.3 1.9v.6l-.5.7.6 1 .2.7-.7.4z" class="cls-1"/></g></svg>