<?xml version="1.0" encoding="UTF-8"?>
<svg id="Layer_2" data-name="Layer 2" xmlns="http://www.w3.org/2000/svg" viewBox="0 0 60.39 95.25">
  <defs>
    <style>
      .cls-1 {
        fill: #172d35;
      }
    </style>
  </defs>
  <g id="_Ñëîé_1" data-name="Ñëîé 1">
    <g>
      <path class="cls-1" d="M4.24,74.2c-.11.08-1.33,1.03-1.33,1.03,0,0-.13.94-.17.95-.04,0-.12-.03-.16.04-.03.06-.33.56-.42.57-.09.02-1.71.05-1.73.08s-.24.15-.3.22c-.06.06-.17.45-.12.53.04.08.32.26.35.26s.55-.28.65-.31c.1-.04.99-.24,1.02-.2.03.04,0,.6.1.57.11-.04.19.02.29-.06s.89-.75,1.04-.83c.15-.08,1.12-.48,1.36-.56.24-.08,2.77-.59,2.87-.61.1-.02.35-.07.51-.14s.39-.13.55-.19c.16-.06.37.03.54.02.17,0,.22-.07.34-.12s.82.12.88.12.84-.17,1.06-.22c.23-.04,1.26-.08,1.46-.12.19-.04.63-.14.71-.17.08-.03.92-.78,1.06-.88.15-.1,2.95-1.13,3.02-1.16.07-.03,2.74-1.26,2.91-1.32.17-.06.67-.15.96-.2.29-.04.89,0,.99,0,.1,0,.17-.06.34-.16.17-.1,1.13-.27,1.26-.31.13-.04.58-.32.78-.35.2-.03,1.04-.22,1.14-.22.1,0,.86.08.94.09.08,0,.89-.28,1.07-.3.18-.03.41-.02.49-.04s.14-.46.11-.56c-.03-.1-.1-.36-.1-.42,0-.06.04-.28.09-.33.04-.05.27-.25.29-.29.02-.04-.03-.16,0-.28.03-.12.72-2.22.74-2.31.02-.09-.1-.49.02-.56s.64-.15.67-.13c.03.02.07,1.07.05,1.16-.02.09.27.41.29.56.02.14-.09.42-.08.53,0,.11.07.29.09.37.02.08.05.22-.02.35-.07.13-1.26,1.25-1.3,1.31s-.1.18-.1.26-.06.22.02.31c.08.09,1.14.67,1.28.74.14.06.44.66.51.71.06.04.45.18.52.18s.15-.16.17-.3c.03-.13-.16-.74-.16-.83s.3-.97.34-1.06c.04-.09,1.46-2.23,1.49-2.29.03-.05.43-.62.44-.66,0-.04.21-.61.19-.74-.02-.13-.18-.89-.18-1.05s0-.63,0-.74c0-.12.04-.27.1-.37.05-.1.29-.34.4-.39.11-.04.42-.25.57-.32.15-.07.48-.13.53-.17.05-.04.16-.69.22-.8.06-.11.36-.42.33-.54-.03-.12-.32-.87-.32-.97s.05-.54.1-.62c.05-.08.1-.17.19-.21.09-.04.56,0,.58-.04.02-.05.08-.89.09-.97s-.26-.56-.26-.67-.08-1.61,0-1.76c.07-.14.48-1.09.51-1.17.03-.07-.04-1.48-.07-1.69-.03-.21-.51-1.95-.51-2s.23-.28.17-.29c-.05,0-.31.11-.36,0-.05-.12-.1-.41-.1-.49,0-.08.15-.16.12-.28-.03-.12-.14-.24-.19-.32-.05-.08-.58-.32-.6-.43-.03-.11-.07-.66-.12-.72-.05-.05-.44-.15-.49-.22-.04-.06-.26-.57-.22-.65.04-.08.13-.49.24-.48.1,0,.5.25.59.26.1,0,.51-.26.64-.31.13-.05,1.47-.44,1.67-.53.19-.09.42-.4.47-.55.05-.14-.09-.88-.14-.89-.05,0-.59.04-.7-.02-.1-.05-.22-.32-.23-.43,0-.11.93-.73.96-.85.03-.13-.18-.6-.25-.68-.07-.08-.76-.28-.71-.33.05-.05.04-.21.2-.26.16-.05.63.03.65-.04.02-.07,0-.48-.03-.6-.03-.13-.31-.79-.28-.9.03-.11.03-.67.03-.78s-.15-1.05-.15-1.17.17-.64.1-.68c-.07-.05-1-.48-1.07-.52-.07-.04-.12-.3-.2-.31-.08,0-.57.13-.57.13,0,0-.35.26-.37.27-.03,0-.27.09-.32.08-.05,0-.24-.14-.31-.24l-.11-2.33c.1.04.78.29.94.31.16.03,2.15.19,2.21.18.06,0,0-.48,0-.51s.13-.19.17-.16c.03.03.12.53.16.59.04.06.41.3.5.28.09-.02.21-.29.29-.23.08.05.24.21.26.3.02.1-.11.7-.18.8-.07.1.15.3.22.39.07.08.5.52.58.56.09.04.31.04.38,0,.08-.05.25-.62.26-.78,0-.16-.1-.47-.1-.54,0-.07,0-.42.1-.5.09-.08.58-.78.64-.94.07-.16-.17-1.94-.1-2.04.07-.11,1.26-.43,1.31-.53,0,0,.05,0,.05-.04s.03-.22-.06-.22-1.11.05-1.24,0c-.13-.04-.44-.14-.53-.22-.09-.07-.63-.65-.64-.73,0-.08.15-.55.17-.64.02-.09-.13-.8-.1-.87.03-.07.38-.39.42-.42.04-.04,0-.17-.07-.21-.06-.04-.31-.04-.39-.09-.09-.05-.17-.28-.17-.36,0-.08,0-.34,0-.43-.02-.09-.25-.39-.28-.49-.03-.1.09-.36.09-.5s-.34-1.93-.33-2c0-.07.02-.42.06-.51.04-.09.25-.25.31-.36.05-.11.09-.21.07-.31-.02-.11-.31-.53-.37-.57-.06-.04-.26-.13-.32-.15-.06-.02-.24-.18-.3-.3-.06-.12-.61-1.56-.62-1.65,0-.09.11-.2.11-.2,0,0,.36.15.44.18.08.03.18,0,.31-.04.12-.04.39-1.26.42-1.34s.38-.8.44-.96c.06-.16.1-1.07.14-1.19s.44-.86.44-.89,0-.03.08.04.38.37.4.48-.03,1.3-.07,1.43c-.04.13-1.18,2.56-1.25,2.74s-.17.51-.16.65c.02.13.03.15.11.23.09.08.65.69.71.82.07.13.32.63.33.82,0,.19.43,1.57.44,1.69,0,.13-.33.89-.31.99.03.1.17.32.21.37.03.04.31.12.38.17.07.05.15.44.23.59.08.15,0,.69,0,.78.02.09-.02.11.1.07.12-.04.37-.12.43-.12s.07.08.07.11.02.25.12.39c.1.14.68.93.71,1,.04.07.12.84.16.94.03.1.08.28.17.32.1.04.99.06,1.12.12s.68.37.81.51c.13.14.32.46.34.53s.06.61.12.73c.06.12.09.15.17.16.08,0,.14-.03.22-.2.08-.17.17-.85.19-.96.03-.11.31-.33.37-.47.05-.13-.07-.73-.17-.93-.1-.21-.46-.65-.58-.74-.11-.08-.86-.61-.92-.74-.05-.13-.39-.65-.4-.8,0-.15.15-1.32.18-1.38.03-.06.02-.08.11-.07.1,0,.24-.04.36.02.12.06.29.3.34.41.05.12-.28.55-.25.7.03.15.11.46.17.58.05.13.26.37.33.46.07.09.52.3.6.3s.16.05.24-.03c.08-.08.07-.66.12-.76.05-.1.56-.61.62-.62.06,0,.06.03.11.14.05.12.17.47.23.62s.15.38.1.57c-.04.19-.1.3-.12.39-.02.1-.06,1.3-.08,1.51-.02.21-.03.16-.1.33-.06.17-.92,1.98-.91,2.11,0,.13.03,1.71.04,1.75,0,.04.03.1-.03.15-.06.05-.65.58-.73.79-.08.21-.18.25-.2.46-.02.21,0,1.87.02,1.95.03.08.16.25.24.31.08.06.32.06.41.04.09-.02.22-.39.24-.49.03-.11.57-1.5.6-1.49.03,0,.54.04.58.11.04.07.23.48.31.6.08.12.43.36.44.52s.05.79.11.89c.06.1.22.45.33.45s.38-.05.46-.13c.09-.07.1-.63.13-.71.03-.08.21-.26.23-.36.02-.1.02-.34,0-.39-.02-.04.13-.3.24-.39.1-.08.85-.56.95-.66s.16-.64.12-.75c-.03-.12-.41-1.07-.44-1.17-.03-.1-.64-.96-.69-1.07-.05-.11-.39-.77-.39-.86s0-.66.05-.71c.04-.04.25-.2.27-.16s.3.87.36.94c.06.07.31.65.44.74s.17.13.24.13.57-.23.62-.27c.05-.04.35-1.35.35-1.35l-.03-.34-2.63-3.9-5.02-3.07s-.31-.94-.39-1.13c-.08-.19-.56-.61-.62-.73-.06-.12-.11-.18-.11-.36s0-.9,0-1.01c0-.12-.29-.82-.29-.91s.02-.53.04-.68c.03-.15.53-.92.54-.99,0-.06-.17-.82-.17-.9,0-.08.5-1.64.46-1.78-.03-.14-.43-2.61-.46-2.72-.03-.11-.08-.45-.05-.53.03-.08.17-.57.2-.69.03-.12-.03-.5-.1-.5s-3.41.67-3.41.67l.19-12.3-.03-1.56L7.61.97l.38,32.25.07,9.54-.52,15.03-.31,7.35s-.1.39-.17.42-1.28-.48-1.4-.42c-.11.06-1.7,1.01-1.77,1.11-.07.1-.23.37-.23.49s-.03,1.17,0,1.23.36.39.44.67c.08.28.17.52.17.66,0,.14-.4,2.04-.38,2.2.02.15.19.82.28.99.09.17.34.7.36.83.02.13.03.33-.02.4-.05.07-.15.38-.26.46Z"/>
      <path class="cls-1" d="M52.78,49.86c-.12,0-.32,0-.29.1.04.1.21.44.22.51,0,.07-.02.98,0,1.03,0,.05.66.41.74.48.08.07.18.29.2.35.02.06-.25,1.02-.28,1.08-.03.05.21.5.21.59s-.08.28-.09.41c0,.13-.03.24.06.35.09.11.44.46.48.54.03.08-.45.78-.48.91s.04.43.07.52c.03.09.91,1.33.93,1.39.03.06.22.98.24,1.09.02.12-.08.74-.1.89-.03.15-.54,1.42-.51,1.45.03.04.24.16.3.16s.56-.39.7-.45c.14-.05.68-.19.8-.22.12-.03.31-.13.38-.22.06-.09.02-.36.03-.45.02-.09.46-.65.51-.68s.14,0,.23-.04c.09-.04.13-.23.25-.3.12-.06.44-.13.54-.16.1-.04.71-.61.74-.65.03-.04.08-.93.17-1,.1-.07.61-.31.75-.38.14-.06.81-.13.81-.13l-.93-10.8s-.65-.81-.67-1c-.02-.2-.17-.55-.14-.74.03-.19.12-1.06.16-1.15.03-.09.5-.91.51-.96,0-.04-.11-1-.1-1.12,0-.12.26-1.2.26-1.28s-.02-.74-.08-.78c-.06-.04-3.38-.99-3.38-.99,0,0,.07-.2,0-.25s-1.45-.42-1.5-.46c-.05-.04-.25-.32-.25-.32,0,0-.05.3-.08.4-.03.11-.07.35-.11.43s-.31.48-.32.59c-.02.12-.13.96-.16,1.11-.03.15-.4,1.61-.41,1.77,0,.15-.08,1.45-.06,1.62.02.17.08,1.5.11,1.61.04.12.42.85.52,1.01.1.16.1.2.03.35-.06.15-.18.25-.26.43-.08.18-.37.89-.41.94-.04.05,0,.12.05.22.05.11.06.06.15.24.09.18.15,1.68.15,1.75s-.08.28-.13.34c-.05.06-.42-.18-.54-.17Z"/>
      <path class="cls-1" d="M44.03,59.35s-.24.26-.33.31c-.09.04-.27.09-.33.06-.06-.03-.16-.07-.16-.16s-.04-.83-.11-.73c-.08.11-.57.77-.62.85-.05.08-1.03.76-1.12.93-.09.17-.18.44-.14.53.04.09.24.23.3.36.06.13.03.44.1.53.06.09.25.31.3.31s.7-.56.76-.55c.06.02.35.23.41.23s.31-.09.46-.19c.15-.1.9-.74.92-.74s1.1.9,1.15.75c.05-.14.29-1.03.32-1.13.03-.1.45-.41.47-.53.02-.12,0-.95,0-1.05s.09-.77.17-.85c.09-.08.85-.21.93-.19.09.02.22.32.28.38s.42.2.5.17c.08-.03.25-.28.3-.37.04-.09,0-.24.02-.32.03-.08.38-.17.44-.16.06,0,.74.31.83.35s.38.36.4.39c.02.04.1.1.12.27.02.17-.25.74-.17.75.08.02.25.15.31.07.05-.08.56-1.06.51-1.25-.04-.19-.56-.93-.56-.97s.37-1.42.41-1.49c.04-.07.5-.67.53-.75.03-.08.56-1.94.44-2.08-.11-.14-.44-.39-.51-.48-.07-.09.02-1.5,0-1.62s-.14-.7-.14-.76.19-1.88.17-1.97c-.02-.09-.76-1.26-.75-1.37,0-.11.32-1.7.34-1.85.02-.15-.06-1.2.04-1.23s1.17-.37,1.22-.39.13-.05.22-.19c.09-.13.15-.35.16-.57,0-.22,0-.79,0-.9,0,0-.21-.47-.2-.56,0-.1.02-1.05,0-1.08-.03-.03-.22-.11-.22-.11,0,0-.5.8-.67.88-.17.08-1.38.54-1.49.61-.11.07-.46.37-.55.51s-.26.81-.37.85c-.1.04-.44.11-.48.15-.04.05-.35.31-.36.39,0,.08-.15,1.8-.19,1.92-.04.12-.64.96-.65,1.09-.02.13-.58,2.17-.64,2.3-.05.13-.64.98-.74,1.14-.1.16-.33.64-.42.83-.09.19-.24.83-.25,1.07,0,.23-.05,1.92-.07,1.99-.02.07-.1.55-.17.5-.07-.04-.87-.31-.88-.25,0,.05-.25.54-.18.62.07.08.33.26.36.3.03.04-.09.36-.07.48.02.12.07.39.08.5,0,.12-.06.5-.06.64s-.04.82,0,1c.05.18.41,1.36.36,1.39-.05.03-.73.41-.75.44Z"/>
      <path class="cls-1" d="M47.67,41.68c.14,0,.19.05.31.04.12-.02.37-.43.4-.5.03-.07.02-.44,0-.5-.02-.06-.4-.22-.4-.22,0,0-.36.11-.43.2-.07.09-.1.18-.13.29-.03.11-.08.41-.06.43.02.02.17.27.31.28Z"/>
      <path class="cls-1" d="M42.3,41.14c-.05.09-.08.56-.07.65,0,.09.57.75.71.81s.63,0,.74.05c.11.06.21.07.27.17.06.1.12.65.12.75s-.15.96-.19,1.08c-.04.12-.34.65-.34.79s-.02,1.93.09,2.03.47.28.55.3c.08.02.56-.27.64-.34s.87-1.09.92-1.18c.04-.09.72-1.99.73-2.2,0-.21-.12-.69-.12-.76s-.31-.43-.38-.5c-.07-.07-.48-.4-.59-.48-.11-.08-1.19-.71-1.28-.8-.1-.09-.27-.46-.28-.54,0-.08.13-1.09.09-1.3-.04-.21-.24-.77-.27-.83-.03-.05-.22-.29-.22-.29,0,0-.44-.03-.47.07-.03.1-.21.41-.18.5.03.09.36,1.1.33,1.21-.04.11-.73.72-.78.81Z"/>
      <path class="cls-1" d="M38.23,61.67c.03.07.13.5.21.45.08-.05.44-.34.48-.39.04-.05.2-.28.25-.41.05-.13-.02-.79.04-.8.06,0,.35.03.38-.02.03-.04.34-1.49.41-1.47.07.02.36.07.5.07s.87-.07.87-.07c0,0,.37-.38.34-.48-.03-.11-.54-1.11-.55-1.19s.06-.53.08-.56.53-.83.54-.91c0-.07.02-.24,0-.28s-.41-.28-.46-.33c-.05-.05-.12-.16-.1-.25.02-.09.14-.18.15-.29,0-.11-.08-2.48-.07-2.53,0-.04.43-.98.44-1.1.02-.13-.08-1.5-.13-1.68-.05-.18-.34-.69-.39-.74s-.44-.1-.44-.1c0,0-.37.13-.43.24-.06.12-.58,1.27-.6,1.37-.02.1-.27,1.73-.26,1.8,0,.07-.49,1.64-.49,1.85s.42,1.47.49,1.61c0,0,.48.72.47.75,0,.04-.3.74-.24.87.07.13.38.45.29.45s-.48.12-.55.11c-.07,0-.85-.31-.9-.25-.05.06-.22.42-.22.47s.3,1.8.31,1.9,0,.57-.05.75c-.05.18-.41,1.09-.38,1.16Z"/>
      <path class="cls-1" d="M23.2,90.61s-.31-.59-.35-.53-.47.71-.55.76-.63.39-.65.51c-.02.12-.2,1.28-.22,1.44-.02.15-.04,1.31-.04,1.42s-.09.31-.07.4c.02.09.35.65.41.64.06,0,.59-.12.68-.14.09-.03.98-.47,1.06-.49.09-.03,2.23-.2,2.34-.25s.71-.33.77-.4c.06-.07.27-.25.27-.36s-1.28-2.44-1.3-2.48c-.02-.04-.04-.88-.03-.96.02-.08.34-1.4.34-1.52s-.06-1.74-.1-1.78c-.04-.04-1.36-.99-1.47-1-.1,0-.34.07-.34.07,0,.03.23,1.69.21,1.81-.02.13-.04.58-.05.67,0,.09-.42.63-.44.69-.02.06.58.92.59.98.02.05.27.59.22.66-.05.07-.63.43-.64.4,0-.03-.63-.51-.65-.55Z"/>
    </g>
  </g>
</svg>