<?xml version="1.0" encoding="UTF-8"?>
<svg id="Layer_2" data-name="Layer 2" xmlns="http://www.w3.org/2000/svg" viewBox="0 0 113.96 95.25">
  <defs>
    <style>
      .cls-1 {
        fill: #172d35;
      }
    </style>
  </defs>
  <g id="_Ñëîé_1" data-name="Ñëîé 1">
    <path class="cls-1" d="M0,14.75s.27.2.27.26,0,.33,0,.33l.83.39s.22.45.34.49c.12.04.86.55.86.58s.18.38.21.39c.03.02.18.22.25.22s.34-.1.44,0c.1.1.33.23.4.23s.32.04.4,0c.08-.04.28-.03.29.02,0,.05.09.13.07.18-.03.05-.15.22-.11.26.04.04.16.09.18.15.02.07.07.17.08.2,0,.03.34.28.34.28,0,0,.02.24.12.3.1.06.29.05.31.11.02.06.45.75.49.77.04.02.45.13.45.16s-.07.23-.04.33c.04.1.22.37.25.37s.44.11.45.13c0,.03.18.37.24.4.07.04.79.42.83.45.05.03.23,0,.25,0,.02,0,.26-.2.33-.21.07,0,.32-.07.43-.03.11.04.29.15.32.15s.21-.11.28-.12c.07,0,.27.06.38.06s.33-.13.4-.11c.07.03.52.22.57.27.05.04.45.64.47.74.02.1.53,2.04.54,2.12s.04.51.07.53c.03.02.79.68.79.72s.37,1.27.41,1.32c.05.05.66.75.68.84.03.09.18.74.18.95s-.03.74-.02.82c0,.08.51,1.82.51,1.82,0,0,1,.72,1.01.77,0,.05.22.64.36.77s.31.19.31.27,0,.64.06.69c.07.06.31.12.36.2.06.09.69.9.7,1.02,0,.12.04.27.07.48.03.21.6,1.63.63,1.67s.17.25.28.3c.11.05.92.32.96.36.05.04.49.77.51.81.02.04,1.49,1.33,1.53,1.35.05.02.75.24.83.31.08.07.67.64.7.64s.23.04.31.09c.07.05.99.93.99.96s.17.61.2.63c.03.02.21.06.3.12.09.06.8.85.83.92.04.08.2.48.2.54s.09.77.11.82c.02.05.76.89.76,1.04s.04.59.04.66.15.53.15.53l.36.38s.42.15.46.2c.04.05.44.61.48.6.04,0,.73-.23.74-.2,0,.03.23.33.23.33,0,0,1.07.66,1.15.72.08.06.82.96.85,1,.03.04.42.65.46.77.04.12.12.57.17.59.05.02,1.45.79,1.45.79,0,0,.29.68.26.7-.03.02-.39.18-.39.29s.13.41.05.45-.35.09-.36.12c-.02.03-.11.04-.07.13.05.1.23.16.24.25,0,.09.06.39.08.41.03.03.14.26.13.29,0,.03-.14.13-.14.13,0,0-.22-.13-.27-.12-.05,0-.08.1-.08.15s.23.23.22.32c-.02.09-.12.27-.05.3.07.03.08.09.11.09s.55-.09.54-.05c0,.04-.19.3-.18.34s.11.16.14.19c.03.03,0,.2.04.21.04,0,.32-.4.3-.38-.02.03-.07.4-.03.38.04-.03.21-.07.22,0,0,.08,0,.19,0,.19,0,0,.16-.05.17,0,0,.05,0,.26.06.24.05-.02.37-.09.37-.09l.1.18s.29-.16.3-.1c0,.07,0,.32,0,.32,0,0-.31-.13-.31-.05s0,.33,0,.33c0,0,.32.1.38.15.07.06.37.59.37.62,0,.03-.1.07-.13.07s-.23-.18-.22-.13c0,.05.05.22.03.27-.02.05-.2.08-.17.13.03.06.05.15.11.2.07.05.43.4.44.43,0,.03.38.2.38.2,0,0,.17.29.2.31.03.02.41.15.45.1.04-.06.12-.31.15-.3.03,0,.22.15.22.15,0,0,.23.49.23.53s-.29.44-.29.6.23.61.27.67c.04.07,1.14,1.06,1.21,1.12.07.06.96.35.99.37.03.02.41.39.44.39h.88l-.02.4s.2-.13.22-.12c.03,0,.1.12.1.12,0,0-.09.17-.05.2.05.03.33.11.36.12.03.02.32.46.35.45.03,0,.13-.14.13-.14,0,0,.11.13.11.14s-.1.19-.08.24c.02.05.1.13.15.13s.3-.15.35-.13c.05.03.74.58.74.58,0,0-.09.13-.08.17,0,.04.17.37.17.37l.2-.1s.21.02.22.1c0,.08-.2.26-.2.26,0,0,.19.22.19.25s-.19.82-.21.85c-.02.03-.27-.05-.27-.05,0,0,0,.38.03.4.02.03.2.23.2.26s0,.27,0,.27c0,0,.39.32.39.39,0,.07.12.6.12.67,0,.08.13.1.13.1,0,0,.13-.1.16-.09.03,0,.12.08.1.13-.02.06-.28.16-.3.24-.02.08-.05.19-.02.21.03.02.27.05.33.09.06.04.23.19.24.24,0,.05-.1.64-.1.64h.32s.03.14.07.17c.05.03.22.05.27.07.05.02.18.14.18.23s-.14.14-.14.18.16.33.13.39c-.03.07-.09.12-.11.19-.02.08,0,.22,0,.28,0,.06.13.15.08.19-.05.04-.21.23-.19.26.02.03.3.12.27.16-.03.05-.21.23-.21.23,0,0,.19.02.22.12.04.1.16.29.16.29,0,0-.21.21-.17.21s.23.04.25.09c.02.05.08.06-.03.16-.11.11-.17.23-.17.26s.08.11.07.24c-.02.13-.05.24-.07.3-.03.06-.26.29-.23.32.03.03.42.22.44.29.02.07.14.46.15.51,0,.05-.08.21-.08.21,0,0,.13.18.13.21s-.16.06-.16.06c0,0,.25.12.18.23-.07.12-.37.3-.41.4-.04.11-.12.2-.08.28.04.08.8,1.14.8,1.14h.36l.11.19s-.02.15,0,.14c.03,0,.24-.04.24-.04,0,0-.08.14.03.23.11.09.45.27.55.29.1.02.22.05.28.04.07,0,.46.01.49,0,.03-.01.08.17.08.17l.13-.13s.03.17.06.17.17-.11.19,0,.21.7.22.73c.02.03.36.33.42.34.07,0,.44.05.44.09s-.04.39,0,.46c.03.07.82.97.86,1,.04.03.36.1.28.16-.07.07-.2.28-.2.28,0,0-.17.07-.18.12,0,.06.09.16.09.16,0,0-.15.16-.16.24,0,.08-.02.21.02.31.04.1.13.25.17.31.04.06.49.64.48.66,0,.03-.03.39-.03.42s.26.38.26.38c0,0-.07.11-.03.16.04.06.27.38.27.38l.03.22.29-.24s.38.36.37.39c0,.03-.17.31-.17.31l.14.19v.39s.15.07.15.12.06.43.06.51-.08.29-.13.34c-.05.05-.47.35-.48.39,0,.04,0,.28-.03.35-.04.07-.26.26-.23.28.03.02.28.32.26.36s-.18.26-.18.26c0,0,.22.13.27.15.05.03.45.59.45.59,0,0,.21.07.19.1s-.17.08-.16.13c0,.05.25.48.25.48,0,0-.26.02-.29.04-.03.02-.19.17-.18.2,0,.03.36.42.35.49,0,.07-.18.26-.18.26,0,0,.07.69.09.69s.56.17.6.2c.04.03.31.42.34.42s.49.27.49.27c0,0,.85-.34.88-.35.03,0,.52.05.55.05s.39.5.44.55c.05.05.63.27.65.32.03.05.52.51.52.51l.37.09-.08-.19s.08-.12.15-.06c.08.06.25.17.29.14.04-.03.35-.39.37-.42.03-.04.14-.15.14-.2s.09-.43.09-.43c0,0,.09.23.12.23s.15-.04.18-.08c.03-.04.51-.66.55-.71.04-.05.3-.76.33-.8.03-.04,0-.25-.06-.28-.05-.03-.1-.07-.15-.06-.05,0-.61.39-.61.39,0,0-.23.02-.18-.04.06-.06.4-.46.46-.48.06-.02.64-.2.64-.2,0,0,.84-.73.85-.78,0-.05.07-.17,0-.22-.07-.05-1.31-.5-1.34-.5s-.39.3-.45.31c-.06,0-.23.04-.29.02-.06-.02-.13-.07-.13-.13s0-.07.04-.14c.04-.08.25-.48.26-.52,0-.04-.16-.11-.16-.11,0,0,.18-.23.25-.23s.28.05.29.08c0,.03.11.09.04.21-.07.13-.25.29-.25.35s.04.11.07.11.62-.21.68-.17c.07.04.38.29.42.29s.64.07.64.03,0-.39,0-.44c.02-.06.27-.96.27-.96,0,0,.12.2.12.23s-.17,1.76-.2,1.82c-.03.06-.6.93-.57.93s.12.02.12.02l.22-.27s0,.13-.05.23c-.05.1-.37.31-.44.44-.07.13-.37.48-.37.61s.04.24.05.27c0,.03.11.16.15.13.04-.03,2.04-1.18,2.1-1.25.06-.07,1.62-2.12,1.61-2.19,0-.08-.08-.31-.16-.42-.07-.12-1.16-1.1-1.16-1.1,0,0-.18,0-.21.02-.03.03-.32.37-.32.37,0,0-.03-.19-.06-.25-.03-.06-.16-.18-.22-.19-.06,0-.32.1-.29.07.03-.03.11-.23.11-.23l-.11-.2.02-.1s-.39-.83-.44-.85c-.05-.02-.2-.05-.22-.02-.02.03-.06.81-.15.85-.09.04-.23.17-.31.18-.07,0-.49,0-.49,0,0,0-.41-.49-.44-.49s-.66-.05-.66-.05c0,0-.32-.36-.32-.39s-.02-.21.03-.24c.05-.03.13.06.15.03.02-.03.03-.3.03-.3,0,0,.03-.1.07-.05.04.05.21.49.24.51.04.02.42.11.47.13.05.02.46.38.49.39.03.02.32.13.36.13.04,0,.19-.17.22-.23.03-.06.02-.29.02-.32s.15-.41.15-.44-.35-.69-.37-.73-.51-.35-.49-.36c.03,0,.36-.04.39,0,.04.04.43.65.43.65,0,0,.34-.36.34-.41s-.23-.83-.23-.83c0,0-.3-.05-.31-.08,0-.03-.07-.23-.1-.26-.03-.03-.33-.29-.33-.29l.28-.24s-.13-.71-.13-.74-.39-.7-.4-.73c0-.03,0-.08,0-.08l.23-.15s0-.26,0-.29-.27-.93-.3-.99c-.03-.06-.59-.46-.59-.49s.02-.27.02-.27c0,0,.63.25.63.3s.02.2.02.2l.38.22-.04.33.2.22s.51.09.52.06c.02-.03.15-.39.15-.39,0,0,.08-.03.08.03s-.06.75-.09.78c-.04.03-.5.31-.5.31l.09.18s.04.64.06.67.85,1.96.88,2.01c.03.05.47.47.5.48.03,0,.46,0,.46,0,0,0-.13.2-.08.28.05.08.95,1.24.96,1.27.02.03.22.16.27.17.05,0,.23.06.23.06,0,0,.1,0,.12-.06.02-.06,0-1.35,0-1.35,0,0-.14-.28-.22-.31-.07-.03-.23-.07-.24-.1,0-.03-.06-.14-.06-.19s.18-.39.19-.45c0-.07,0-.72,0-.75,0-.03-.24-.61-.22-.62.03,0,.44-.33.44-.33l-.17-.23.04-.18-.31-.11s.19-.14.22-.13c.04,0,.38.32.38.32,0,0,.07.3.07.35s-.28.43-.28.46.07.26.07.34-.08.41-.08.44.09.23.1.3c0,.07-.17.57-.11.62.06.05.39.27.42.24.03-.03.22-.38.26-.44.05-.07.18-.1.18-.1,0,0,.09,0,.06.06-.04.06-.22.33-.25.39-.03.07-.06.37-.06.44s.06,1.71.08,1.73c.03.02.2.13.17.13-.03,0-.14.14-.12.17.02.03.1.1.1.12s-.16.11-.16.11c0,0-.08.12-.06.13.03.02.14.1.21.12.07.02.32.08.38.06.07-.02.54-.39.57-.41.03-.03.77-.97.77-.97l.22-.56s.09.24.07.33c-.03.09-.34.52-.38.57-.05.05-.18.26-.21.36-.03.1-.07.22-.07.22l.07.09s.3,0,.41-.04c.11-.04,1.5-1.05,1.5-1.05h.19s.45-.28.57-.31c.12-.03.46-.04.46-.04,0,0,.04-.06.02-.14-.02-.09-.25-.36-.35-.41-.09-.06-.49-.34-.49-.34l.02-.24s.55.45.58.46c.03,0,.21,0,.23-.03.03-.02.35-.88.38-.93.04-.06.15-.67.15-.67l-.13-.48s-.13-.09-.17-.03c-.04.06-.54.87-.59.87s-.33-.11-.37-.02c-.05.09-.11.23-.19.29-.08.06-.22.13-.22.13,0,0,.02.22-.02.23-.04,0-.66.39-.7.39s-.37,0-.37,0c0,0-.07.2-.11.21-.04,0-.1.05-.11.02,0-.03-.06-.24-.08-.27-.02-.03-.1-.1-.1-.13s-.05-.09.02-.13c.07-.05.51-.34.64-.38.13-.04.57-.15.57-.15,0,0-.06-.27-.04-.31.02-.04.07-.19.14-.19s.54.03.57,0c.03-.04.15-.19.15-.19,0,0,.1.1.16.1s.2-.09.21-.13c0-.04.07-.14.07-.2,0-.06-.39-.92-.39-.92,0,0-.24-.19-.3-.2-.06,0-.43,0-.43,0,0,0-.28-.18-.34-.16-.06.02-.34.13-.38.12-.05-.02-.65-.26-.65-.26l-1.07.41.07-.27s.85-.27.92-.31.34-.29.34-.33-.11-.31-.17-.35c-.06-.04-.27-.12-.35-.12s-.63.03-.63.03c0,0-.28-.43-.35-.44-.07,0-.8.08-.84.08s-.36-.12-.41-.09c-.06.03-.49.2-.49.2l-.07-.13s.26-.23.26-.26,0-.16-.04-.18c-.05-.02-.95-.42-.95-.42l-.07-.11s.32-.03.37,0c.06.02,1.25.64,1.25.64,0,0,.66-.14.7-.14s.9.36.93.36.32-.05.32-.05c0,0,.15-.15.13-.24-.02-.09-.24-.43-.24-.43l-.41-.26s.21-.14.22-.17c0-.03,0-.3,0-.3,0,0,.28.1.34.19.06.1.46,1.11.46,1.11l.57.03s.1-.15.08-.18c-.02-.03-.46-.61-.46-.64s-.21-.69-.21-.72.02-.15.07-.14c.05,0,.17,0,.19.08.02.07.23.89.23.89,0,0,.51.28.53.32.03.04.54.7.54.7,0,0,.42.05.49.04.07,0,.53-.13.58-.13s.5.14.5.14c0,0,.14-.13.14-.15s.12-.62.12-.62c0,0,.17.4.18.48s-.04.38-.09.44c-.06.07-.22.29-.23.32,0,.03,0,.22,0,.22,0,0,.16.1.19.1s.51-.08.51-.12-.03-.2.05-.27.23-.06.31-.1c.07-.04.32-.41.32-.44s-.55-.84-.55-.84c0,0-.63-.15-.66-.17-.03-.02-.29-.43-.29-.43,0,0,.25-.53.33-.56.07-.03.26-.1.29-.13.03-.04-.04-.74-.02-.81.02-.07.11-.4.11-.4l-.17-.09-.18.38s-.21.08-.25.05c-.05-.03-.12-.13-.16-.17-.04-.05-.16-.37-.15-.41,0-.05.18-.41.18-.41,0,0,.38.05.39.02,0-.03,0-.18.03-.21.02-.03.19-.19.19-.19l-.33-.26s-.12-.18-.12-.21.13-.15.13-.15c0,0,.07.24.12.27.05.03.46.22.46.26s.05.07,0,.15c-.05.09-.33.48-.33.48l-.44.09-.07.31.21.22s.31-.33.34-.33.2,0,.24.05c.05.05.14.15.15.18,0,.03-.16.64-.14.68.02.04.16.65.16.65,0,0-.55.6-.51.64.05.04.57.26.62.27.05,0,.3.28.37.37.08.09.41.62.42.66,0,.05.05.26.05.26l-.08.06.24.49s.14.02.16-.02c.02-.04,1.39-1.17,1.39-1.17,0,0,.98-.54,1.04-.59.06-.05.85-.73.85-.73l-.09-.26s-.22.06-.24,0c-.03-.05-.03-.13-.06-.14-.03,0-.37-.16-.37-.16l-.33-.66s-.07.13-.08.1c0-.03-.16-.2-.23-.23-.08-.03-.37-.14-.37-.14l-.19-.37-.44.08-.13.14s-.51-.1-.51-.16.08-.5.11-.49c.03,0,.39.18.39.18,0,0,.23-.14.23-.12s0,.17,0,.17c0,0,.1.02.13-.03.03-.05.4-.62.4-.62,0,0,.46-.2.47-.23,0-.03.12-.24.12-.24l-.05-.22-.16.13-.1-.05s.09-.35.13-.37c.04-.02.7-.17.7-.2s-.04-.37,0-.37.19.02.19,0,.13-.28.13-.28l.22.08s.14-.22.18-.21c.04,0,.32.11.32.11l-.07.26-.78.49.18.3s-.08.14-.12.15c-.04,0-.59-.11-.59-.08v.52s-.3.28-.31.31c0,.03-.08.7-.08.7l-.16-.05-.07.11s.15.16.18.19.63.16.66.21c.04.05.14.51.16.54.02.03.2.22.21.19,0-.03.15-.23.15-.23l.19-.02s-.13.19-.12.22c0,.03.64.83.64.83,0,0,.22-.07.26-.09.04-.02.49-.62.52-.65.04-.03,2.3-.79,2.41-.78.11,0,1.1.09,1.14.06.05-.03.14-.29.14-.29l-.23-.33-1.11-.44.55-.1s.47-.71.47-.74-.03-.34-.03-.37.18-.29.18-.26.07.72.07.75c0,.03-.3.27-.31.31s-.07.38-.07.38c0,0,.18.17.22.17s.35-.09.38-.11c.04-.02.67-.45.67-.45l-.27.5.26-.05s1.85-1.24,1.83-1.28-.2-.3-.19-.33c0-.03.28-.2.29-.23,0-.03.37-.97.34-.98s-.12-.09-.14-.06c-.02.03-.22.31-.22.31l-.23-.13s0-.35,0-.38-.11-.31-.11-.31l-.81.03-.51-.24-.56-.9s-.08-.2-.07-.24c.02-.04.14-.62.14-.62l-.25-.23-.81.04-.25-.35.34.09.49-.22.4.18s.28.42.28.45-.06.4-.05.48c0,.08.12.42.14.46s.49.55.49.55c0,0,.23.02.24-.02s.13-.45.1-.52c-.03-.07-.35-.57-.35-.6s.04-.96,0-.99c-.03-.03-.38-.29-.43-.35-.05-.06-.27-.47-.27-.54s-.04-.35-.02-.4c.02-.06.1-.55.12-.58s.6-.27.6-.3.02-.53.02-.53l.25-.2-.16.45s.19.11.19.13.03.13,0,.16c-.03.03-.66.35-.7.44-.04.1-.16.33-.13.4.03.08.22.65.23.67,0,.03.51.34.53.4.02.07.06.5.06.55s.19.13.19.13c0,0,.36-.24.4-.33.05-.09.07-.74.07-.74,0,0,.97-.69,1-.71.03-.02.33-.42.33-.46v-.48s.28-.3.35-.29c.07,0,.14.11.25.07.11-.04.88-.24.88-.21s-.03.18-.03.18l-.82.19-.29-.05-.4,1.32s-.22.23-.24.23-.73.24-.73.24l-.07.13.11.57-.43.88-.07.62.38.06.25-.13s.34.44.36.47c.02.03.35.17.35.17,0,0-.25.1-.27.13-.02.03-.04.14-.04.14l.6.11s1.58-1.06,1.61-1.06,1.18-.37,1.18-.37l.18-.35-.18-.32h.3s.31-.46.31-.46c0,0-.16-.36-.13-.35.03,0,.36.03.39,0,.03-.02.86-.61.86-.61,0,0-.32-.39-.24-.39.07,0,.44.18.47.17.03,0,.41-.33.57-.38.16-.05,1.07-.39,1.1-.44.04-.05.14-.52.14-.52l-.07-.25-.71.22-.35.4-.13-.21.31-.26-.16-.21-.29-.08v-.12l.29-.03s-.04-.21-.04-.24.22-.71.22-.74.5-.5.5-.5l.03-.43.79-.58.37-.12-.14-.16.77-.14.06.33.5.54.14-.11.13-.4s.06.07.06.1-.1.45-.1.45c0,0-.4.18-.4.22s-.03.29-.03.29l.91-.43s1.29-.28,1.32-.28.76.12.76.12c0,0-.02-.11,0-.13.02-.03-.13-.22-.18-.22s-.54-.06-.54-.06c0,0-.22-.24-.24-.23-.03,0-.16.13-.16.13l-.15.28-.13-.06.02-.15-.21.03s-.12-.09-.07-.14c.06-.06.65-.26.72-.26s.14,0,.18.05c.04.04.12.22.12.22,0,0,.33-.14.35-.12.02.03.29.2.29.2,0,0,.11-.3.09-.33s-.79-.44-.79-.44c0,0,.16-.08.22-.08s.33.09.33.09c0,0-.14-.47-.07-.5.07-.03.48-.29.54-.33.07-.04.54-.43.54-.43l.37.05.46-.22.16-.17s-.1-.08-.09-.11c0-.03.37-.43.37-.43,0,0,.06-.13,0-.18-.06-.05-.45-.31-.45-.31,0,0-.76-.12-.79-.14-.03-.03-.49-.31-.49-.31l1.57.1.54.41v.32l-.18.21.55-.19.05-.38-.51-.69h-.53s-.52-.36-.52-.36c0,0,0-.12.03-.12s.31.05.41-.02c.1-.07.6-.32.6-.32,0,0,.19.3.24.34s.46.27.46.27l.09,1.34s.23-.66.26-.77c.03-.11.67-.5.67-.5l.37-.71s-.12-.15-.15-.13c-.03.02-.12.44-.12.44l-.22.22s-.11-.03-.09-.08c.02-.05.22-.47.22-.5s-.27-.4-.27-.4l.11-.58-.09-.37s-.34-.27-.4-.31c-.07-.04-1.01-.31-1.04-.33-.03-.02-.36-.38-.37-.4,0-.03-.26-.46-.26-.5s-.07-.25-.07-.32c0-.07.1-.35.1-.35,0,0-.17-.35-.12-.4.05-.06.25-.63.24-.65,0-.03-.08-.27-.07-.31,0-.04,0-.1.04-.09.03,0,.19.13.19.13,0,0,.19-.33.19-.38s.14-.71.14-.71c0,0,.12,0,.1.06-.02.06-.08.82-.08.82l.15.13.08-.54,1.18-1.61.41-.43s.13.02.13.05-.21.44-.21.44l-.48.41-.07.31s-.63.65-.63.68-.43,1.53-.43,1.53h-.14s-.15-.25-.17-.22c-.02.03-.12.28-.12.28l.17.14s-.17.32-.16.35c0,.03.1.28.1.28,0,0,.4.17.43.16.03,0,.33-.19.33-.19h.87s.1.11.12.16c.02.06.09.25.09.28s-.12.16-.12.21.07.86.07.86l.43,1.38s.18,0,.18-.07-.25-.98-.25-1.01.46-2.39.46-2.39l-.18-.09-.03-.24-.31-.12.18-.12-.06-.55s.13-.13.13-.1.08.64.08.64l.18-.27s.12-.04.12,0-.13.29-.13.32v.13s.2-.2.22-.28c.02-.08.22-1.39.22-1.42,0-.03,1.45-2.86,1.45-2.86l.78-.88.42-.73.09.03s.47-.88.49-.9c.02-.03,1.79-2.43,1.82-2.45.03-.02,1.03-1,1.03-1l.54-.75,1.46-1.37s1.51-1.15,1.52-1.17c0-.03,1.54-.88,1.64-.91.09-.04,2.76-1.03,2.73-1.03s-.5-.12-.5-.12l-.21-.47-.58.28-.35-.09.67-.2.05-.13.3-.19-7.37-7.68-11.25-11.74-7.77-7.88-26.51-.42.37-3.43-3.48-5.16-2.62,1.89-.37-.77.19-.89.41-.23-.11-.62-.3-.35.11-.42L25.5.57l-.79.35s-.65-.32-.79-.22c-.14.1-.34.32-.37.32s-.26-.24-.26-.27.06-.24.06-.29S23.11,0,23.08,0c-.03,0-.68.48-.7.51-.02.03-.17.47-.17.47l-.32.43s-.36,0-.36-.05.04-.35,0-.35-.57.09-.6.1c-.03,0-.22.08-.23.13-.02.06-.04.19-.07.2-.04,0-.5,0-.52,0s-.23.2-.3.2-.47-.25-.55-.2c-.08.05-.38.51-.42.53-.04.02-1.11.17-1.13.2-.02.03-.33.35-.36.35s-.22-.18-.24-.16c-.03.02-.21.23-.28.27-.07.04-.37.08-.37.08,0,0-.12-.1-.14-.12-.02-.03-.07-.12-.09-.11-.03,0-.28.23-.28.23,0,0,.09.44.04.46-.06.02-.84.28-.84.28,0,0-.34.39-.36.39s-.24.04-.24.04c0,0-.07.28-.09.28s-.5.1-.53,0c-.04-.1-.02-.39,0-.43.02-.05-.03-.13-.08-.13s-7.67,2.31-7.67,2.31c0,0,.11.24.1.27,0,.03-.45.68-.45.71s.08.41.06.42c-.03,0-.25.06-.22.09.03.03.21.41.21.41,0,0-.08.05-.14.06-.06,0-.22-.13-.22-.1s0,.15-.05.18c-.05.03-.16.13-.21.13s-.32-.19-.34-.12c-.02.08-.06.37-.11.37s-.15-.04-.2-.04-.39.42-.45.48c-.06.06-.38.28-.38.28l-.08.32s-.19-.16-.22-.15c-.03,0-.11.18-.22.2-.11.02-.44.11-.44.11,0,0,.05.2,0,.23-.05.03-.2.07-.19.1,0,.03.07.12.04.15s-.1.23-.1.23c0,0,.05.18,0,.18s-.2-.13-.27-.1c-.07.04-.09.73-.19.79-.09.06-.24-.02-.35,0s-.18.11-.25.11-.21-.02-.2.03c0,.05.17.28.06.35-.11.07-.51.43-.5.46,0,.03.05.82,0,.92-.05.11-.81.96-.81.96,0,0,.08.54.08.59s-.12.13-.08.18Z"/>
  </g>
</svg>