<?xml version="1.0" encoding="UTF-8"?>
<svg id="Layer_2" data-name="Layer 2" xmlns="http://www.w3.org/2000/svg" viewBox="0 0 103.51 66.67">
  <defs>
    <style>
      .cls-1 {
        fill: #172d35;
      }
    </style>
  </defs>
  <g id="_Ñëîé_1" data-name="Ñëîé 1">
    <path class="cls-1" d="M96.37,5.92s.48-.34.61-.42c.13-.07.59-.6.63-.66.05-.06.79-.46.84-.52.05-.07.38-.83.42-.92.05-.09.48-.59.51-.66.04-.07.19-.56.19-.69s.04-1.61.04-1.61l-21.55.59h-24.73l-26.82-.3L2.37,0l-.63,18.07h-.27L0,56.39l20.82.73,22.45.56h16.32l15.78-.11s.4.82.51.9c.11.08.12.22.23.25.11.03.53.11.61.14.07.03.3.12.38.21.08.09.16.29.26.33.1.04,1.45.48,1.57.56.12.07.6.4.77.44.17.04.48,0,.56.08.08.08.31.4.42.51.12.11.76.5.77.57,0,.07.05.19.09.2.04,0,.53.15.65.12.12-.03.75-.23.85-.3.1-.07.48-.45.49-.51,0-.07.33-.54.35-.63.02-.09.05-.36.06-.39.02-.03.43-.22.51-.22s.33.04.36.08c.04.05.16.33.23.39.06.06.05.12.24.09.19-.03.33-.07.39-.2.06-.14.13-.28.23-.28s.25,0,.29.07.39.47.44.47.16,0,.2-.07c.04-.07.32-.47.36-.5.05-.03.26-.14.33-.11.07.03.14.16.14.23s.02.18.1.19c.08,0,1.2-.42,1.23-.42s.22.27.46.28.23.08.41-.02c.17-.1.19-.33.36-.34.17,0,.92-.11,1-.07.08.04.47.08.55.14.08.06.24.17.3.17s.52-.07.56-.05c.05.03.21.17.23.23.02.07.02.33.02.39s.03.19.13.22c.1.04.86.17.89.24.04.07.16.41.18.44.02.03.76.18.87.18s.99-.09,1.12-.04c.13.06.27.26.28.31,0,.05-.05.3,0,.39.05.09.07.13.18.1.11-.03.23-.27.41-.27s.67.07.71.1c.05.04.79.32.86.46.07.15.05.4.08.49.03.09.13.16.23.16s.76.03.85,0c.09-.03.41,0,.46.06s.14.22.1.26c-.04.04-.27.45-.31.54-.04.09-.08.17-.02.22.06.06,1.2,1.02,1.19,1.08,0,.06.11.73.17.77.06.05.21.08.24.07s.6-.37.71-.35c.11.02.44.26.47.35.03.09.2.43.31.4.11-.03.55-.14.52-.16-.03-.02-.26-.03-.29-.12-.03-.09,0-.25-.06-.29-.06-.04-.24-.04-.24-.12s.12-.18.14-.19c.03,0,.08-.04.09-.15,0-.11-.02-.43-.07-.46-.05-.04-.27-.07-.27-.13s.02-.13.05-.14c.03,0,.15-.07.14-.09,0-.03-.17-.07-.16-.1,0-.04.05-.08.05-.14s-.23-.46-.23-.46l-.23.08s-.13-.04-.04-.1c.09-.07.23-.2.2-.25-.03-.06-.28-.37-.31-.37s-.08-.24-.08-.24c0,0-.22.07-.23.05,0-.03,0-.14-.05-.17s-.23-.09-.23-.12.02-.11,0-.16-.22-.23-.27-.25c-.05-.02-.31-.04-.34-.06,0,0-.12-.1-.12-.18s0-.14,0-.19-.11-.26-.11-.33.05-.24.05-.24l.14-.14s-.21-.14-.19-.2c.02-.06.56-.59.57-.65,0-.06-.03-.12-.02-.19,0-.07.17-.33.17-.33l.05-.2s.17.12.18.07c0-.05.05-.28.08-.3.03-.02.14-.09.15-.13s-.07-.33-.05-.35c.02-.03.11-.09.11-.09,0,0-.05-.13-.05-.16s.15-.16.15-.16c0,0-.12-.08-.15-.14-.04-.06,0-.3.02-.36s.14-.3.14-.3l.11.02s.23-.5.23-.53-.24-.34-.24-.34c0,0,0-.18.03-.22.04-.05.27-.41.26-.45,0-.04-.28-.26-.28-.29s.03-.2.03-.2c0,0-.15,0-.14-.04.02-.05.59-.48.61-.48s.13.02.15-.03c.03-.05.12-.28.13-.34,0-.07-.07-.21-.06-.26,0-.05.16-.22.17-.25,0-.03.06-.33.05-.37-.02-.05-.36-.38-.36-.41s0-.48,0-.51c0-.03-.16-.78-.19-.82-.03-.04-.06-.1-.12-.1s-.37.13-.4.13-.27-.16-.27-.16l-.35.07s-.12-.17-.08-.22c.04-.06.18-.15.19-.21,0-.06,0-.14-.04-.19-.03-.05-.43-.3-.43-.35s-.02-.29.03-.33c.05-.05.61-.13.62-.17.02-.04.15-1.65.12-1.71s-.42-.24-.46-.31c-.05-.07-.17-.19-.19-.25-.02-.07-.06-.18-.09-.21-.03-.04-.36-.17-.34-.22.02-.06.18-.61.18-.66s-.02-.26-.04-.3c-.02-.04-.17-.18-.14-.18s1.89-.08,1.89-.08l-.52-14.13-.44-12.29s-.29-7.97-.29-8.05-.34-.72-.39-.85c-.05-.13-.28-.37-.35-.43-.07-.06-.56-.23-.65-.27-.09-.04-.66-.42-.71-.45-.05-.03-.84,0-.87,0-.03-.02-.22-.16-.33-.31-.12-.15-.43-.52-.49-.64-.05-.12-.43-.96-.44-1.09,0-.13-1.19-1.58-1.19-1.65s.06-.33.05-.48c0-.15.19-.38.23-.43Z"/>
  </g>
</svg>