<svg xmlns="http://www.w3.org/2000/svg" data-name="Layer 2" viewBox="0 0 103.5 66.7"><path d="m96.4 6 .6-.5.6-.7.9-.5.4-.9.5-.7.2-.6V.4L78.1 1H53.3L26.5.7 2.4 0l-.7 18h-.2L0 56.5l20.8.7 22.5.6h16.3l15.8-.1.5.9.2.2.6.2.4.2.3.3 1.5.6.8.4h.6q.1.4.4.6l.7.6.1.2h.7l.8-.2.5-.5.4-.7V60l.5-.2.4.1.2.4h.3l.4-.1q0-.3.2-.3h.3l.4.5h.2l.4-.5.3-.1.2.2v.2l1.3-.4.4.2h.5l.3-.3h1.6l.3.2h.5l.3.2v.4l.1.2.9.3.2.4.8.2h1.2l.2.2v.4q.1.2.2.1l.4-.2h.7l1 .5v.5l.2.2h1.3l.1.3-.3.5v.3l1.2 1 .2.8h.2l.7-.3.5.4.3.4.5-.2-.3-.1v-.3l-.3-.1.2-.2v-.6l-.3-.1v-.2h.2l-.2-.2v-.1l-.1-.5-.3.1s-.1 0 0 0l.2-.3-.3-.4-.1-.3-.2.1v-.2h-.3v-.3l-.3-.2h-.3l-.1-.2v-.2l-.2-.4.1-.2.1-.1-.2-.2.6-.7v-.2l.2-.3v-.2h.2v-.2l.2-.2V59l.2-.1-.2-.2v-.3l.2-.3h.1l.2-.5-.2-.4V57l.3-.5-.3-.2V56h-.1l.6-.6h.2v-.6l.2-.2v-.4l-.3-.4v-.5l-.2-.9h-1.1l-.1-.2.2-.2v-.2l-.5-.4v-.3l.6-.2.2-1.7-.5-.3-.2-.2v-.3l-.4-.2.2-.6v-.3l-.2-.2 1.9-.1-.5-14.1-.5-12.3-.3-8-.4-1-.3-.3-.7-.3-.7-.5h-.8l-.4-.3-.5-.6-.4-1.1-1.2-1.7v-.4q0-.3.3-.5Z" data-name="Ñëîé 1" style="fill:#172d35"/></svg>