<?xml version="1.0" encoding="UTF-8"?>
<svg id="Layer_2" data-name="Layer 2" xmlns="http://www.w3.org/2000/svg" viewBox="0 0 130.95 33.34">
  <defs>
    <style>
      .cls-1 {
        fill: #172d35;
      }
    </style>
  </defs>
  <g id="_Ñëîé_1" data-name="Ñëîé 1">
    <path class="cls-1" d="M130.95,0h-4.07l-.23.53-19.72.8-.42-.17-5.75.17-.32.37h-15.69l-7.91-.43s-3.68.27-3.84.27-14.78-.68-14.78-.68l-.52.28-.19-.1v.2l-.55-.38-9.2.15-9.68.03V.5l-3.26-.33.52,2.72s-.02.46-.13.64c-.11.18-.25.23-.39.23s-9.18-.41-9.18-.41l-9.34-.35-1.74.12s-.24.43-.43.54c-.19.11-.32.2-.4.2s-.34-.19-.34-.27.2-.52.14-.52h-.77s.24.53.23.56c-.01.03-.47.43-.44.53.03.1.46.98.45,1.07-.01.09.08.41-.09.61-.16.2-.01.25-.28.29-.27.03-.52-.17-1-.08-.16.3-.17.43,0,.62.17.19.39.39.65.53.26.14.41.33.25.48-.16.14-.7.35-1.02.33,0,0-.63-.27-.93-.21-.3.06-.52.09-.42.29.1.2,1.39,1.29,1.48,1.58.1.29.09.44-.08.61-.16.17-1.1.53-1.11.68-.01.14-.02.14-.03.22-.01.08-.08.64-.18.81-.11.17-.36.39-.46.68s-.17.48-.11.62c.06.14.88.56.93.82.04.25.15.54.11.65-.04.11-.02.24-.24.17-.22-.08-.61-.41-.88-.42-.27-.01-.47-.02-.57.19-.1.21-.26.33-.11.53.15.2.79.32.86.48.08.15.13.44.03.5-.1.06-.34.21-.44.22-.1.01-.42-.18-.59-.07-.17.11-.44.79-.6.87-.16.08-.43.16-.56.16s-.85-.19-1.03-.07c-.18.12-.61.34-.66.59-.04.24-.01.59.1.81.11.22.26.45.43.5.17.04.39.09.52,0,.13-.09.17-.29.27-.15.1.13.19.24.18.35-.01.11.06.25-.16.35-.23.1-1.14.44-1.23.55-.09.11-.18.18-.13.34s.06.31.16.4c.1.09.45.28.45.37s-.12.38-.18.42c-.06.04-.19.06-.32,0-.13-.06-.32-.42-.4-.51-.08-.09-.13-.28-.4-.24-.27.03-.48.03-.58.17-.1.13-.2.35-.2.56s.05.55.11.66c.05.11.43.3.44.39.01.09.08.59-.02.66-.1.08-.85.62-.87.59-.02-.03-.15-.11-.13-.18.02-.07.06-.1.08-.14.01-.04-.09-.18-.08-.33.01-.15.1-.56.05-.65s-.24-.27-.35-.27-.27.1-.36.24c-.09.14-.13.35-.2.42-.08.07-.58.34-.65.53-.06.19-.19.5-.12.63.08.13.15.22.2.2.05-.02.34-.06.36-.09.01-.03-.05-.53,0-.55.05-.02.15-.06.26-.06s.68.48.63.58c-.04.1-.4.68-.41.77-.01.1.06.55-.03.6-.1.04-.66.12-.72.2s-.15.17-.14.27c.01.1.2.52.2.52,0,0,.39.02.51.1.12.08.14.07.23.22.09.15.43,1.63.43,1.66s-.05.35-.11.43-.32.34-.39.33c-.06-.01-.57-.33-.68-.35-.11-.02-.34.01-.37.12-.03.11-.26.39-.27.45-.01.07.01.64,0,.76-.01.12-.12.37-.23.42-.11.06-.56.17-.65.18-.09.01-.86-.11-.89-.1h-.03s-.14.19-.16.25c-.02.07-.05.55-.05.55l13.13.5,12.32.3,6.81.2-.03-.23,15.75.49,10.8.16,13.53.08,19.3-.35.41-4.57s.73-.71.89-.8c.16-.09.2-.2.32-.02.12.18.11.3.18.35.08.06.13.14.25.08s.44-.12.52-.11c.08.01.23.13.28.09.05-.04.08-.2.18-.21.11-.01.28.07.37.01.09-.06.56-.39.68-.46s.36-.44.36-.48-.16-.25-.18-.37c-.02-.11-.09-.42-.01-.58.08-.16.39-.48.39-.55s-.26-.56-.18-.68c.08-.11.73-.95.81-.98.08-.03.22-.06.28-.07.06-.01.54-.3.59-.38.05-.08.09-.22.11-.35.02-.13.05-.28.27-.35.22-.08.69-.1.84-.2.15-.1.75-.69.89-.74.14-.06,1.86-.09,1.95-.14.09-.06.33-.29.44-.24.11.04.31.25.42.28.11.02,1.01.01,1.18-.03.17-.04.61-.76.77-.84.16-.08.44-.25.73-.34.29-.09.36-.21.53-.35.17-.14.15-.37.28-.4.13-.03.65.12.69.08.04-.04.55-.65.61-.8.06-.14.1-.38.15-.45s.12-.22.24-.22.23.03.33.03.36-.03.38-.08c.02-.04.23-.58.3-.62.08-.04.49-.11.56-.13.06-.02.7-.42.8-.43.1-.01.53-.01.65.02.12.03.44.21.49.21s.1.01.19-.09c.1-.1.8-1.16.8-1.16,0,0,.18-.07.18-.1s-.06-.44-.02-.49c.04-.04.28-.17.29-.23.01-.07-.32-.95-.29-.95s.23.08.23,0-.03-.23.08-.3c.11-.07.29-.14.44-.16.15-.01.45.09.53.17.08.08.15.28.15.28,0,0,.25,0,.28-.07.03-.07.01-.15.04-.23.03-.08.31-.56.31-.62s-.08-.24.01-.4c.09-.16,1.82-1.34,1.94-1.39.12-.06.19-.02.29.03.1.06.13.22.16.25.03.03.37.15.34.22-.02.07-.19.4-.19.55s-.01.54.05.63c.06.09.59.23.68.23s.66-.29.77-.37c.12-.08.47-.31.58-.5.11-.19.7-1.56.82-1.69.12-.13.66-.63.82-.68.16-.04.13.01.31-.02.18-.03.43-.2.59-.28.16-.08.27.07.36.07s.15-.11.18-.12c.03-.01.12.02.2-.03.09-.06.39-.49.45-.48.06.01.37.22.49.2.13-.02.46-.08.51-.02.04.06.17.7.31.72.14.02.48.11.71.02.23-.09.28-.32.38-.35.1-.03.23.1.32.01.1-.09,1.55-3.44,1.73-3.56.18-.12.82-.7.99-.85.17-.16.47-.41.62-.35.15.06.33.29.46.3.13.01.86.11.83.02-.03-.09-.15-.22-.18-.35-.03-.13-.33-.82-.26-.95.08-.13.24-.46.27-.53.03-.07-.03-.4.05-.5.09-.1.22-.18.22-.27s-.19-1.07-.17-1.23c.02-.15.4-.7.43-.77.03-.08-.11-.19,0-.32.11-.13.31-.43.31-.43Z"/>
  </g>
</svg>