<svg xmlns="http://www.w3.org/2000/svg" data-name="Layer 2" viewBox="0 0 130.9 33.3"><path d="M131 0h-4.1l-.3.5-19.7.8-.4-.1-5.7.1-.4.4H84.7l-7.9-.4-3.8.2L58.2 1l-.5.2h-.2v.1L57 1l-9.2.1H38V.5L34.8.2l.5 2.7v.6q-.2.3-.5.3l-9.2-.4-9.3-.4-1.7.1-.5.6-.4.2-.3-.3.1-.5h-.7l.2.5s-.5.5-.4.6l.4 1v.6q-.1.3-.4.3h-1v.6l.7.5q.4.2.2.5l-1 .3q-.2-.2-1-.2-.4 0-.3.3c0 .2 1.4 1.3 1.4 1.6v.6c-.2.2-1.1.5-1.1.7v.2l-.3.8-.4.7q-.2.5-.1.6c0 .1.9.6.9.8l.1.7q0 .2-.2.1c-.2 0-.6-.4-1-.4q-.3 0-.5.2v.5c0 .2.7.4.8.5v.5l-.4.2h-.6c-.2 0-.5.8-.6.8l-.6.2s-.8-.2-1 0q-.4.1-.7.5l.1.8q.2.4.5.5H7q.1-.2.2-.1l.2.3-.1.4-1.3.5-.1.4q0 .3.2.4l.4.3-.2.5H6l-.4-.6-.4-.2q-.4 0-.6.2l-.2.5.1.7.5.4v.6l-1 .6v-1.3l-.3-.2-.4.2-.2.4s-.6.4-.6.6l-.2.6.2.2.4-.1v-.6h.3c.2 0 .6.5.6.6l-.4.7v.6l-.8.2-.1.3.2.5.5.1.2.2.5 1.7-.2.4-.3.4-.7-.4-.4.1-.3.5v.7q0 .3-.2.5l-.6.1h-1l-.1.2v.5l13 .5 12.4.3 6.8.2v-.2l15.7.5 10.8.2h13.5l19.3-.3.4-4.6 1-.8q0-.2.3 0l.1.4h1.1l.2-.2h.3l.7-.4.4-.5-.2-.4v-.6l.4-.5s-.3-.6-.2-.7l.8-1h.3l.6-.4v-.4q0-.2.4-.3l.8-.2.9-.8 2-.1.4-.3.4.3h1.2l.7-.8.8-.4q.3 0 .5-.3l.3-.4h.7l.6-.8.1-.4.3-.2h.7l.3-.7.5-.1.8-.5h.7l.5.3.2-.1.8-1.2h.1v-.6l.3-.2-.3-1h.3V14l.5-.2q.3 0 .5.2l.2.2h.2v-.3l.4-.6v-.4l2-1.4h.2l.2.3.3.2-.2.6v.6l.8.2.7-.3.6-.5.8-1.7.9-.7h.3l.6-.3h.7l.5-.6q.1.2.4.2h.6s.1.7.3.7q.2.2.7 0l.4-.3h.3s1.5-3.4 1.7-3.5l1-.9.6-.3.5.3h.8l-.2-.4c0-.1-.3-.8-.2-1l.2-.4V3l.3-.3-.2-1.2.5-.8V.5z" data-name="Ñëîé 1" style="fill:#172d35"/></svg>