<svg xmlns="http://www.w3.org/2000/svg" id="Layer_2" data-name="Layer 2" viewBox="0 0 97.9 95.3"><defs><style>.cls-1{fill:#172d35}</style></defs><g id="_Ñëîé_1" data-name="Ñëîé 1"><path d="m97.7 47 .2-.1-.2-.2v-.1q-.2 0-.2-.3l.1-.2v-.6l-.3.1q-.3.1-.3-.2v-.2l-.1-.3-.2-.1-.4-.3.2-.5-.1-.1-.1-.3-.1-.2-.1-.2s-.5 0-.4-.2l.3-.2-.3-.3q-.1.2-.2 0L95 42l.1-.2v-.5l.1-.3H95v-.6l-.4-.4-.1-.3-.2-.2v-.1h-.1l-.1-.2h-.3l-.4-.6h-.2l-.7-9.5-.4-4.5h-.2v-.3l-.4.3-.2-.1.1-.1-.2-.1-.3.1v.2h-.2v-.2l-.2.2-.2-.2-.1.3-.3-.1v.2h-.3v-.3h-.2l-.2-.1H89l.1-.4H89l-.1.2h-.2V24l-.2.1q.1-.2 0-.2h-.2v-.2h-.5v.2l-.2-.2h-.4l-.1-.3h-.4V23l-.2.2-.5-.1-.3-.3v-.2h-.2v-.2l-.2-.2h-.6l-.2-.5v.3l-.2-.3-.2.1v-.2l-.8-.2-.1.4v.2H83v.2h-.4v.1l-.6.1h-.3v-.1h-.6l-.2-.3-.3-.1q.2 0 0 .1l-.5.2-.1.2h-.4l-.1.4-.3-.1-.3.2-.7-.3v.2h-.3v-.1l-.2.2H77v.2h-.2l-.2.1-.2.6H76l-.2.4-.3.3-.1-.3-.5-.5h-.6l-.2-.3h-.3l-.4-.3.2-.4h-.3l-.2-.1h-.2v.6l-.5.2-.3-.4h-.2l-.2.2-.5-1-.3.2h-.2l.1.5-.3.4H70l.1.2-.2.2v.6l-.2.2-.4-.2-.2-.7.2-.3-.2-.5-.3.1-.2.3-.4-.2v.3q0-.1-.1 0l-.2.3h-.3l-.3-.1V23l-.4-.2-.5.1-.2-.1v-.4H66l-.3-.2-.2.1-.3.5-.4.2v.1l-.6.4c-.4.2-.8-.3-.8-.4l.2-.2-.1-.2.1-.4-.2-.2-.4.1h-.4l-.1-.3.1-.2-.2-.1.1-.3v-.5l-.6.4-1.3-.2-.3.6-.4.2-1.1-.8h-.4l-.2.2-.4.1-.7-.3h-.4l-.4-.4h-1.2l-.5-.1-.1-.5v-.5l-.4-.5-.5-.2s-.2-.4-.3-.3l-.1.3-.1.4c-.2 0-1.1-.4-1.2-.3l-.3.4-.6-.1-.8-.7-.6-.7-.4-.4H49q0 .3-.3.2l-.1-9.8-.1-7.7H27.4l-.9 40.6S1.1 40 .3 39.7l-.2.2h.2l-.1.2v.3l-.2.2.1.3.2.2v.2l.4.2.5.6h.4l.3.2q.3.2.3.5l.4 1 .2.2.2.6.5.5h.3l.2.2.5.2.4.2.1.4.2.1.1.2h.3l.5.9.1.3h.3l.1.2.5.2.4.4.1.5.1.3.5.3v.2l.7.5v.3l.4.1.3.2h.1l.2.2h.3v.1h.2v.2h.3v.2h.3v.2l.3.3.4.1.2.3v.3l.4.2.2.2.3 1.4v.3l.3.2v.3l.4.4v.3q0-.2.2 0l.3.9v.7l-.2.3.1.1v.6l.1.2q-.2 0 0 .3v.1l.3.4.2.4.2.4.2.6.1.2v.1l.1.4.4.2q.1.3.2.2l.3.2.1.2h.3l.1.2h.2l.5.2v.2h.2v.3l.3.5.2.1.3.2.4.4.5.2.4.1.6.1.3.1h.2v.4h.2l.3.5h.5v.2h.7l.4.3.2.5h.2l.2.2.4.2h.3v.1l.2.1.2.1v.2l.2-.1h1.1l.1-.3v-.3h.2v-.4h.3l.4-.7h.3l.3-.2.3-.2-.2-.2v-.2l.1-.7.4-.1v-.1l.2-.3-.2-.3.2-.4V63l.2-.1.1-.4.2-.2V62l.4-.3v-.3l.2-.3h.3l.5-.2h.4v-.2h.5l.5.2.2-.8.2-.3.5.1.2.2.3.1h.1v.1l.6.4h.4l.2-.2h.4l.4.2h.1l.5-.1h.2l.2.1h.3l.4.2h.3l.1.1.2-.1h.4v-.3h.2v.3l.6-.2.2.3.3-.1-.1.1v.2l.1.2.2.2v.3h.3q.2 0 .2.2v.5l.2-.2.1-.2.2.1v.4l-.1.4h.6l.2.4s.6 0 .6.2l.4.5.2.3.4.2.4.3.1.3.5.2.3.4v.4l.8.7.1.9v.3l.2.2v.1l.2.2.2.4q0 .3.2.2l.2.4v.2l.2.3v.6l.4.2v.2l.4.3v.3l.1.2.4.2-.2.2.2.3v.5l.4.7v.3l.3.3h.2l.1.4.4.2.6.3.3.5.2.2.3.5.3.2v.4l.4.3v.3l.1.3v.3l.2.1.1.2h.3l.1.3.3.1.3.5h.4l.1.3h.6v.3l.3-.1.2.4v.6h.3v.9l-.2.5-.2.2.3.2v.3h.4l.2.8-.1.5v.7l.2.2q.2 0 .3.4v.2l.4.3v.3l.5.3.2.5v.4l.3.1.1.6.1.3.2.3v.5l.4.2.1.5v.4h.6l.3.2h.2l.1.1.2-.1.2.2h.7l.3.3h.2v.2l.4.2q-.1 0 0 .1l.3.1v.1l.3-.2.4.1.4.1.2.2.1.1.2-.1h.2v.2l.4.3q.1-.2.2 0l.1.1.1-.1v.3l.3.2v-.2h.2v.2l.3.2.3.1h.9l.1.2h.3v-.2h1l.3-.1.3.1h.2l.2.1h.1l.2.1h.8l.3.4.2.1.2.1v.1l.2.1.2.4h.5v.3h.6l.1-.2-.1-.4q0-.3.3-.2l.1.1.1-.1h.3q-.2-.2 0-.2h.2l.4-.1h.4v-1l-.6.4h.2l.2-.2v.2l.1.2h-.2v.2q0-.1-.2 0l-.3.1v-.3h-.1l-.3.2-.2.2v-.3l.7-.4v-.2h.3l-.6-.2-.4-.3h.3l-.2-.3V92l-.2-.2v.4l-.2-.1.1-.4.3-.2H71l.2-.1H71V91l.1-.3-.2.2v-.4l-.3.2.1-.3h-.4l.3-.3h-.2v.1h-.2l.1-.3H70l.1-.3v.2h.3v-.1h-.1v-.2H70l-.1-.1h.4l.1-.5.1.6.1-.1v-.6h-.2l-.2-.5v-.2l-.3-1-.2-.3h.1l-.3-.3-.2.1-.1-.3h.1v-.5l.5.5.2-.2-.3-.3v.2l-.3-.2-.2-.6V85h.6v-.2l-.1-.3h.1v-.2l-.1-.2h.2l.2-.3v-.3.2l-.1-.2V83h.1v.2l.1-.7V82l.4-.8.1-1 .6-1.6-.8-.3-.3-.4.1-.4.6-.4h.5l.1.1v.1h-.1l.3.2.2-.1.6-1.3.4-.6h.1v-.8h.7l.2-.3v.2l.3-.3H74l.8-.6-.2-.6.1-.3v-.7l.3-.1.3.1v.5l.2.1.2-.1-.1.2h.2l-.1.1.4-.3 1-.5c.1-.1.7-.4.6-.5l-.8-.6-.2-.3.4-.3 1-.5.2-.2.2-.1.5.3-.2.2q0 .2.2.2l1.2-.7h.3l.2-.1h.1v.4l-1.4.9-.8.5-.3.2-.4.4 1-.7 4-2.4-1.2.6-.2.2-.5.1.2-.5 1-.5h.5l.4-.3h.2l-.3.3 1.9-1.3.3-.2.2.1s-.2-.1 0-.2l.5-.4.5-.6c.2 0 .8-.7.8-.7h-.3l-.3.4-.3.2.4-.7-.1-.1-.3.3-.1-.1H86v-.1h.3l.3-.3.3.3h.1l-.2-.3v-.7h-.2l-.3-.3.7.3h.2v.1h.1l.5-.4.2-.4v-.2h.3V63h.5v-.6l.5.2s-.5-.2-.5-.4V62h-.2v.1q.1 0 0 .1h-.3v-.3H88l.3-.2q0 .1 0 0l.1-.2-.5-.1-.3-.3q.2-.2.2-.5l-.2-.3.3-.6h.1l.3.4.3-.2.1-.4.4-.4.5-.3.2.3q.1-.1.2 0v1l-.2.5-.2.3-.1.1h-.2l.1.1h.4l1.2-.4h.2l.2.2.4-.2v.2h-.2v.2s-.6-.2-.6 0l-.3.3-.5.2-.6.8v.3l.4-.3.2-.3.6-.4 2-1.1 2.1-1.2 1.5-.1V59s-.8-.9-.7-1l.7-.8.2-.9.3-.3.3-.4-.2-.2.2-.5-.1-.1v-.2l-.1-.3v-.6l-.4-.5v-.5l.1-.3.2-.1v-.8l-.2-.2V51l.3-.1v-.3l.4-.6v-.6l.1-.1V49l.2-.1v-.3q-.2-.3 0-.4V48l.2-.2-.1-.3-.3-.1v-.3z" class="cls-1"/><path d="M89.2 63h.2l-.2-.2H89h.2z" class="cls-1"/><path d="M87.2 65q-.3.2-.1.2l2.7-2.4h-.3v.3l-.7.2h.3q-.4.3-.7.3l-.2.3v.1l-.6.5v.1zm-9.7 7-.2.2zm-4.7 5.2.5-.8.5-.7 1.5-1.5 1-.8 1.2-.8V72l-.3.1v.4l-.6.1-.3.2v.1h-.1l-.2.1h-.2c-.1 0 .2.2 0 .2l-.2.1v.2l-.3.1v.2l-.5.2v.3h-.2V74l-.2.1v.6l-.5-.2v.2l-.3.3v.2l-.3.4.1.2-.5.6v.2zM70.4 83l.3-1.4 1.1-2.7.5-1 .3-.4-.1-.3-.3.3.3-.1-.2.3-.6.8-.2.9-.1-.2-.3-.1.2.2v.3l-.7 1.4-.2.8v.3l-.1.8zm-.4 1.8-.2-.2v.3zm-.1.7-.2-.1v.2zm1.8 4.3.1.3.2.1.2 1 .2 1.7.2.2-.4-2.5zl-.8-2.5-.3-1.2-.2-1.3v-1.1 2.8l.3.6-.1.1.1.2.1.5h.2l-.2.2.2.1v-.1.4l.1-.1v.1l.1.6h.2l.1.2z" class="cls-1"/></g></svg>