<svg xmlns="http://www.w3.org/2000/svg" id="Layer_2" data-name="Layer 2" viewBox="0 0 146.7 66.7"><defs><style>.cls-1{fill:#172d35}</style></defs><g id="_Ñëîé_1" data-name="Ñëîé 1"><path d="M9.4 59.8h-1c-.2 0-1.8.4-2.4.7l-1.6.7c-.6.2-1.9-.2-2 0l-.6.4-1.4.4-.4.5 7.3.6 16.4.7 6.6.4.3-.6 4.8.4-.5.5 6.1.5 18.4 1.2 17.6.4h16.5l21.8-.1h3l.1-.2 15.4-.3-.1-.6-.4-.4v-.1l1 .7s-.1.4 0 .4h.4s-.2-.5-.1-.6l.2-.2v-.9l-.1-.3.2-.6v-1.2h.4l.6 1.1.2 1.1.4.5-.1.2v.3h-.1v.3l.2.1-.1.2h.4l-.2-1.3-.7-1.9-.7-1.8-.8-3.5-.5-.2-.6.1-.3.3-.3.1.1.3h.4l.1.4v.4l.1.2h-.4v-.6l-.2-.3-.2.2v.5l-.4.2.2-.5-.2-.2.4-.4-.1-.2-1.2-.3v.1l.2.2h-.3l.4.2.3.5h-.3s-.1-.5-.3-.5l-.5.1-.3-.1.5-.1.1-.5s-.8-.1-.9-.3c-.1 0-.6-.5-.8-.5h-.4v.1l.6.1-.1.2h-.3l-.2-.2-.2.1-.3-.3v1.2l.2.2.3-.2.2.3h.2v.1h.2l-.1.3-.4-.3-.3-.1-.1.7.3.2v.2l1.1.3s-.8.1-.8 0l-.4-.2-.1.1-.1-.2-.6.2-.1.3-.5.2-.1.2h-.2l.4-.7h.3v-.2h.4V59l-.1-.4.1-.3-.2-.6q-.1-.1-.4 0s0 .6-.2.6l-1-.2-.1.4-.6.1-.1.4h-.3v.2h-.1v.2l-.6.4v.8h-.2v-1l.6-.3.3-.8.4-.2v-.5l-.3.3-.2-.2.3-.2-.2-.6h.2l.1.4.2-.2-.2-.5-.6-.3s-.4-.6-.6-.6l-1 .3.1-.4h.5v-.4l-.3-.2h-.7l-.5-.3v-.5s.2-.6.1-.8l-.2-.8v-.9l-.2-.4-.6 1.1h-.4l-.8-.8-.3-.1s.2-.5 0-.5H119l-.6.3-.8-.7q-.2-.2-.6-.2l-.6.5.1-.5q.3 0 .4-.2c.1-.2-.3-1.2-.3-1.2h-.2l-.6.8-.3.2V50s-.4 0-.4-.2l-.1-.8-.2.2-.5.1h-.3l-.6.2h-.3V49l-.4-.1-.1.3-.3.2-.4-.6-.3.1v-.2l.5-.7v.7l1-.1.4.2.7.1v-.2s0 .2.2.2l1-.4-.2.3.1.8h.2l1-.8.3.3.2.6.4.5.7.4.1-.2h.2l.4-.4-.1-.2.1-.7-.1-.3s0-.4.1-.3l.2.3v.2l.2.2-.3.3v.9l1.3.1.8 1 .3-.3-.3-.2h.8l.1-.3 1 .3.7 1-.4 1 .5.3.7.8.2-.1-.4-.6v-.2l.4.7h.4v.4q0 .2.2.3l1 .7.2.4v.4l.5.5.5-.6.7-.3.2-.3h.3l.3-.4q.1 0 0 .2l-.3.6h.3l.6-2-.2-.4-.4.2v.4l-.3-.5-.1.2-.2.6-.4.4v-.5l.4-.4-.2-.2v-.2l-.4.1v-.2l-.2.1v-.3h.4l.3.2v.2l.2-.2.8-.2-.3-.1.1-.2-.3-.2v.2l-.4-.3v-.3l-.1-.3h-.2l-.3.1.3.1-.2.2v.1l-.2.2q-.2 0-.1-.1v-.4l-.2-.1-.1-.2-.2.6-.3.2-.4-.1.1-.1h.3V52l.2.1v-.3l-.1-.2h-.5l.6-.2.3.4.1-.4-.2-.4v.3l-.7-.2h.1l.4-.2-.1-.2-.9.3s-1-.5-1-.7q-.2-.3-.5-.4l-.5-.2v-.2l-.5-.3h-.2v-.3l-.6-.9v-.4h-.3l-.4-.8-.8-.9-.5-1-.6-.3v-.5l-.2-.6h-.2l-.4.6h-.4q-.2 0-.1-.3l.3-.5v-.5l-.2.1v.5q-.2.3-.5.2l-.3-.4-.4.8-.6-.4v-.2l.2-.3v-.3h-.2v.3l-.2.2-.5-.2-.2-.3.2-.3h.1v.4l.3.1v-.3h.5l.2.6-.2.3h.2l.2-.4.6-.3.2.2v.2h.2v-.5l.4-.1.2.5-.3.6.2.1.2-.3.4-.2.2.1.2.5.2-.3.2.6.6.6.4.9.5.4v.2l.3.2h.2l.1.4.8 1 .4.3.3.6v-.3l.1.2h.3l-.2.2v.2l.3.2.2-.4v.5l.4.3.1.5.5-.3h.1v.2l.7-.1v-.3h.7l-.3-.2h.3l.2-.2-.1-.2V49h-.3v-.2l-.1-.1-.1.1h-.5l-.2.3v.2l-.3-.2v-.2h.3v-.2h-.5l-.2-.5h.3l.2.3.2-.2.2.2h.5v-.2l.1-.2h-.4c0-.1-.3-.7-.4-.6l-.1.2h-.6v-.2h.3l.1-.4-.5-.2v-.4l.2.3v-.1l.5.2.2.3h.3l.4.2-.3-.9h-.4l-.1-.2h-.3l.3-.3v-.5l.2.1v.7h.4v-.5l.4.5v.7l.3.2h.2l.1.1.3-.2-.2-.4v-.3l-.3-.3.2-.3v.4l.3.1h.2q-.2 0-.2.3l.3.3-.2.7.3.4.3-.2-.1.5.3.2h.1l.1.2-.1.2.1.1s.3-1.1.2-1.2l-.5-.4.3.1.1-.1.2.2v-.4l-.4-.1h.4l.2.2v-1.7l-.2-.4v.5h-.1v-.4h-.2v.4l-.2-.3-.3.3-.3-.5h.6V45l-.2-.2h-.9v-.1h.4v-.2l-.3-.2h-.3V44l-.5-.2h-.2v.2l-.3.3c-.1 0-.7 0-.8-.2l-.4-.4h-.4l-.2-.3.1-.2.3.3h.5l.4.5h.5l.3-.5v.1l.5-.1.1.1.4-.1.2.4v-.6l.4.1.2-.4h-.6l-.2-.2h-.8l-.7-.3v-.3h-.1V42h-1.7l-.6-.6-.6-.3s.5 0 .4-.1l-.8-.4.1-.2.7.3-.2-.6h-.4l.2-.3v-.2l-.4-.1-.1-.5-1-.3q.2-.2 0-.4s-.5 0-.6-.2l-.4-.3-1-2.1-.5-.3V35h-.4l-.7-.8s.3-.5.1-.5h-.5l-.3-.3.2-.4-.4-1.5-.9-.4-.1-.4v.2l-.6.3-.5-.4v-1l-.2.3h-.2l-.1-.4h-.2l-.2.4h-.2l-.2-.6-.2-.1-.4.2-.5-.7.6.4h.5l.3-.1.1.4s.3-.4.4-.3l.2.3.2-.2.3.1v1l.3.3.7-.3.2.4.9.4.4.6.3 1.4h.3v.3l.3-.2h.1c0 .1-.1.7 0 .8l.2.4h.3l.7.4.3.8h.2v-.2h.3l.3-.5v.4l-.5.5.3.8.7.3.1-.1.3-.2-.2.5.5.5.1-.5v.1h.3l-.1.4v.2h.5s-.4 0-.3.1l.3.2.5-.2-.2.3.2.7.3.6h.2l.2 1 .4.5.4-.1-.2-.2v-.2h.2v-.2l.2-.1-.2-.4h.2l-.2-.4h-.2l-.3-.3v-.6l.4.2v.4l.2.2h.2v.2l.2-.2.3-.1q0-.3.2-.3s.4 0 .3.1l-.6.6h-.2v.4h.2l-.4.4.2.2v.3h.3l.3-.7v.4h.3v.2l-.5.2.6.4h.4c.1 0 .3.5.4.4h.2l-.1-.3.4-.1v.2h.2l.2-.5-.3.2-.5-.1.3-.2V41l-.5-.1.4-.2-.4-.3.7.1-.1-.2-.5-.3.2-.5v.5h.3l.1-.1.2.3v-.3l.1.1v-.2l-.1-.5-.2.1v-.1h-.3l.2-.3h-.4l.2-.3v-.6l.2.6.4.3v-.2l-.3-.5h.3v-.2l.3-.1v-.2h-.5v.1l-.2-.1h-.3v-.1l-.3-.1.1-.2.7.2v-.4h-.3v-.5l-.2-.2-.2.3-.3-.3-.5.1v-.2h.3v-.2l-1-.2v-.3l.6.2h.4l.5.5.1-.1h.6v.3l.3.1.1.4v-.8h.1l.2.3v.4l-.2.2h.3v-.4l.2.1.2-1.4-.2.3-.1-.3-.2.2v.2h-.3l.1-.3-.2.1-.1-.2-.5-.5h.5l.1.3.4.1-.1-.2.4.2v-.2l-1.6-1-.2.3v-.3l-.4-.2.1.6-.3.2v-.4h-.2l.2-.3-.5-.2-.3-.4v.2h-.2v-.4l-.3.1.2.3-.4.2v.5l-.2.1s-.1-.4 0-.4c0-.1.4-.3.4-.5l-.1-.3-.7.3.2-.3h-.1l.5-.2h.2V33c-.1-.2-.7-.5-.9-.5h-.3l.2.3-.2.2v.3l-.3-.4-.4.2.6-.4-.1-.2h-.3l.2-.2-.3-.3h.2v-.3l.4.5.2-.1-.3-.7-1.2-.8h-.3l.3-.2-.2-.6h-.4v.7l-.5-.7-.5-.3-.2.3.5.4-.6-.2.2.5-.3.5q-.1.3 0 .2l.4.4-.7-.3V31l-.2-.2.5-.2-.1-.4h-.3l-.3-.5h-.2v-.3h-1l-.9-.2-.3-.4-.3.5s.3-.6 0-.7l-.5-.1-.3.1h-.6l.4-.3h.2l-.1-.7.2.4v-.6l-.2-.2-.5-.4-.6-.6h-.6s0-.3.2-.4l.5.1q.2 0 .2-.2v-1q-.2-.5-.5-.6l-.7.7h-.9c0 .2-.5.6-.5.6l-1.2.4-.5-.1-.2-.2-.6.1-.9-.2.6-.3.2.3c.2.2.3-.3.3-.3l.1.1h.2l-.6-.8-.6-.5v-.4l-.4-.3.6.3c0 .2.5.7.5.7s-.2-1.2 0-1.6c0-.4.3-1 .4-1q0-.5-.3-1c.3.2.3.6.5.3l.3-.4-.1-.4-.2-.1h.3l.1-.2-.1-.4h.1v-.5l.4-.2-.1-.4h.6v.3l-.3.2.3.4.5-.2.2-.3.4.1v-.3l-.7-.7.2-.1v-.3l.4.5.2-.2v-.6l.5.2.7-.2.2-.2v-2.7l.2-.4-.2-.5-.5-.6-.4-.1-1-1.4h-.7l-.7-.3-.2-.3v-.7l-1-.6-.5-.2-2-.2-.6-1-.5-.2v-1l.7-.5.3-1-.6-.4-.8-.4-.4-.9-.7.1-.7-.2-.4-.3-.5.2-.4-.1-.5.7-1.3 3.6L93.4 0s.2.7 0 .9l-.1.3.1.6-.2.6.3.2s-1.3 2-1.2 2.1q.2 0 .2.3L92 6l.5.8-.5.4-.3.6-.8.5-1.2 1.5.3.4-.9 1.1s-.3-.4-.4-.3l-.8 1.2-.7.5-.1-.6-1.1 1-1.4 2.8s-2.1-2.1-2.2-1.9l-.1.6-.4.2v.4l-.5.2v.4l-.6 1.3v.6l-.1.6-.6.2-.4.9-.2.6-.7 1.3-.1.7-.5.6-.1.3-.6.5v.3l-.6.1-2.8-1-1-2.2-1.7-.9-.2.1-.3.8v1h-.3l-.2.4v1.3l-.6 1.1v.5l-.2.2h-.4l-.8 1 .3.7v.3l-1 .6-1.2 1.3v.6l-.4.5v.3q.2.1.2.4s-.4.3-.4.5l-1 1.9-2.3 2.4-.5.3-.4.8-.7.8v.5l-.2.1-.5.7.1.5-.4.6-.6.3 1.6 1.3-.7.7-1.1.6.2.5-.3.3.4.2.2-.3q.2 0 .2.2l-.3.4q-.3.4-.7.4-.2 0-.3.2t-.3.3l-1.7 1-.4-.4-.2-.8h-.6l-4 2.2-.3-.3-.3-.2s-.3-.6-.6-.7q-.3-.2-.4 0c0 .2-.4.7-.3 1 0 .3.5.7.4.8l-1 .8q-.6.5-1 .4c-.4 0-.1-.3-.4-.2L45 49l-1.7.9-2.3-2.4-.1.3q-.2 0-.5.3l-.5.8h-.4l-.7.5h-.3l-.1.3q-.5.5-1 .6h-2l-.7-.8h-.4s0-.7-.3-.8l-.6-.2H33q-.4 0-.4-.2 0-.5-.4-.9c-.2-.2-.4 0-.7-.5q-.5-.4-.3-.8l.2-.6-.3-.4v-.3c-.1-.1-.7-.3-.8-.5V44c.1-.1.7 0 .7-.2v-.2l.4-.4H31v-.3l-.4-.2-6.2 5.4-.4.2c-.3.2 0 .2-.1.2l-2.7 1q-.5 0-1.1.4l-1.4 1c0 .1-1.4.5-1.5.8l-.1 1.6-.3.1v.4q-.2-.1-.4 0-.1.2-.4.3l-.7.1-.4.4-.4.2v.4l.2.2-.4 1.2-.7.4-1.4.4-.3.2q-.4 0-.5-.2c0-.2-.6 0-.6 0l-.1.3q-.3 0-.4.2v.5c0 .2-.6.4-.6.6v.5q0 .3-.2.4Zm117.2-10v-.1" class="cls-1"/><path d="M135 62.5v.3h.1l.3-.3zm0 .7.2.1V63zm.7.4-.2-.7-.1.6-.1-.1v.5l.3.1-.1-.3zm-.5 1.6-.4.1v.5h.2zm.7.2-.1.2-.4.1-.2.3h.7zm-8.6-14.8-.4.1.4.2.1-.2zm2.2-5.6-.4-.9h-.4v.5l.5.1zm-.3-3.2-.5-.6v.6l.3.1zm4.6-5.5v.2l.1.1-.1.7.2.2.2-.2-.3-.1.1-.7zm2 .7-.2.3.2.4zm-.2-1.4v-.3l-.2-.1h-.1q-.2 0 0 .3zm-2.3-1.1.2-.5-.2-.2zm.5 14.8-.2.4.3.5h.2v-.5l.1.4h.2l-.2.3h-.3v.6l.6.8.2 1 .3.2.4-.5-.2-1 .1-.6h.2l-.2-1 .5-2.5h.2l.3-.3v-.4h.3l.3-.5h.2s-.1.2 0 .2l.3.1.3-.1-.5-.5v-.5h-.1s.1-.5.3-.5l.5-.6.5.1v.4l.2-.3h.2l.3-.1v-.2l-.2.1-.4-.1V44h-.3l.5-1.1.3-.1.4.4h.2v-.4l.1-.1.3.1v-.2h-.8v-.4l.5-.5v-.2l.4-.8.3-.1v-.2h.3l.3-.2-.5-.5.3-.7.3-.3.4-1v.3h.2l.2-1 .3-.4V36h.2v.2l.4-.6-.3-.1v-.2l.3-.8h.4l-.2.2-.2.5.4-.3.2-.4-.1-.5.4-.2v-.2l-.2-.2v-.6h.5v-.1l.2-.3.3-.1-.1-.2-4.2.7-.2.2v.2l-.2.1.2.4-.1.3-.1.1-.6-.1-.3.3-.3-.1-.5.5v.1l-.2.1.2.2.4-.1v-.3l.3.2.3-.2h.3l-.5.4.1.1h.3l.4.2h-.4l-.1.4v.2l.6-.2-.3.4.2.2h-.4v.2l-.3-.6-.2.4.2.1h-.1v.3h-.3v.3h.5v.2h-.2v.3l-.3-.3v.4l-.3-.1v.3l-.2-.5-.3.2v-.2l.1-.2-.2-.1-.4.1-.3.3v.3l.2-.2h.4l.3.3v.3l.2.4-.5-.2v-.2l-.3.4-.2-.2-.3.7.2-.2h.4l.7.5-.3.1v-.2l-.4-.2-.2.4-.1-.4-.1.2h-.4l.4.3h-.5v.5h.4v.2h.3l.3-.2-.1.4h-.3v.2h-.3l-.2-.3h-.4v.3h-.4v.2l.2.2v.4l.2-.3h.7l-.6.2v.2h-.2l.1.3-.5-.2-.1-.5-.4.6v.2s.4-.1.4 0v.2l.3.1-.3.2-.4-.2-.2.5.3-.1 1.3.3h-1.4v.3l-.1-.2-.4.9v.7l.5-.3.6-.8v.6l-.3.2v.1h.4l-.8.2.4.3v.2l-.3-.2h-.4l-.4.4-.1.4v.5-.2l.7-.6.1.1-.2.3h.2v.2h-.4l-.1.3.3.4-.3-.1-.3.1.3.5h-.3l-.4.5-.2.8v.1l.4-.5v-.4l.3.2-.1.2h.2c0 .1-.7.6-.6.7s.4.1.3.2z" class="cls-1"/><path d="M143.8 34.3h-.2l-.1-.2-.2.2.1.4.4-.1zm.6-.5h-.5v.2l.2.2zm.5.5.1-.6.3-.2.2-.5h-.3l-.1.4-.5.3-.8 1.2.5-.2.1-.3z" class="cls-1"/><path d="m144.3 35.4.3.3.6-.5.6-1.7.9-1.6-.5.1v.2l-.2.2v.2h-.4v1.1l-.3.4-.3.4h-.4l-.2.5h.4l.3-.1-.3.5zm-.7-.2-.3-.1-.2.2-.6 1 .1.2zm-1.3 1.3.2.2v-.2zm-.8 1.7-.2 1-.4.5.2.3 1.4-3.1-.3-.2-.3.3.1.3-.1.3v.4z" class="cls-1"/><path d="m141.2 38.6.1.1.1-.5zm-1.1 3.2v-.3h-.2l-.2.5h1l.5-1.8h-.2l-.3.3v.2l-.5.2v.4l.4.1v.4zm.3.8v-.4h-.8.1v.3z" class="cls-1"/><path d="M138.8 43.7h.2v.2h.2l.2-.3.5.1h-.2l-.2.1-.2.3.3.3.1-.1.2-.5v1l.3-.6.6-1.5v-.3h-.2v.2l-.4.1-.2.3v.3l-.3.2v-.2h-.5l-.3-.4v.5h.3zm0 1-.2.1.1.2zm.6-.2-.4.2h.4zm-.2.4-.2.2h.3l.1-.2zM139 47l.8-1.5v-.4l-.5.2.1.3h-.3l.1.2-.3 1.1zm-.4-.1.1-.2-.1-.1zm-1.6-.4-.1-.3-.2.5.2.1.4-.2zm.4.1v.3l.4-.1v-.2zm.3.3-.1.1-.1.9-.2.2.2.2.2-.7zm.1 1-.1.2.2.1zm.3-.2.1.3zm.6-.4v.3l-.3.3-.4.6-.2.2.1.2 1.2-1.6zm-2 .7.1.3v-.5zm-.1-.9-.4.4-.3 1.3h.6l.2-.6-.2-.5.2-.2zm-1 1.5v.3l.2-.3v-.3zm0 .5.1.3V49zm1.4.4v-.3l-.3-.2v.3zm.7.5v-1l-.2.2-.1.4.1.2v.2s.2.1.2 0m-1-.3-.2-.7-.5.2-.5 1v.3h.2l.1.4-.2.8v.4l.3-.8.2.7h.2l-.1-.3.1-.5v-.6l-.2.2-.1-.3.2-.7zm.9 1 .2-.4h-.3l-.1.1h-.5v.3l.1.1zm-.4.3h-.3v.2h-.4l-.1.5h.2zm0 .2.2.2V51zm-.5.7-.1.4.6-.8h-.2zm-.2.6v-.2l-.5.4h-.3l-.2.4h.5zm-1.8.8-.2.1.2.2.2-.1zm3.6-16.2v.4l.1-.2zm-1.1.9v.3l.5-.2-.2-.2zm-1 1.9h-.2l.2.3z" class="cls-1"/></g></svg>