<?xml version="1.0" encoding="UTF-8"?>
<svg id="Layer_2" data-name="Layer 2" xmlns="http://www.w3.org/2000/svg" viewBox="0 0 146.71 66.67">
  <defs>
    <style>
      .cls-1 {
        fill: #172d35;
      }
    </style>
  </defs>
  <g id="_Ñëîé_1" data-name="Ñëîé 1">
    <g>
      <path class="cls-1" d="M9.41,59.76c-.21.03-.9-.08-1.04,0-.14.08-1.78.47-2.34.69-.56.22-1.38.74-1.65.74s-1.86-.14-1.91-.08c-.05.06-.51.37-.72.45-.21.08-1.19.31-1.36.43-.17.13-.38.46-.38.46,0,0,6.89.41,6.93.43.04.03.26.18.32.19.06.01,16.44.78,16.44.78l6.62.31s.26-.51.3-.51,4.78.32,4.78.32c0,0-.57.52-.5.52s6.1.55,6.1.55l18.44,1.19,17.6.37,16.46.08,21.8-.2,3.06-.03.07-.15,15.4-.27s-.01-.52-.17-.64c-.16-.11-.4-.43-.4-.43,0,0,.06-.13.1-.09.04.04.87.78.87.78,0,0-.05.36,0,.38.05.03.5-.03.5-.03,0,0-.2-.52-.16-.59.04-.06.22-.11.24-.25.01-.14.05-.79,0-.85-.05-.06-.17-.29-.15-.34.02-.05.28-.56.28-.61s-.07-1.12,0-1.12.32-.13.32-.13c0,0,.58,1.13.6,1.21.01.08.21,1.06.21,1.12s.4.43.4.5-.09.11-.12.15c-.04.04.07.29.07.29,0,0-.15-.05-.15-.01s-.02.37-.02.37l.22.08-.09.17h.38s-.15-1.21-.17-1.27c-.02-.06-.72-1.91-.72-1.91l-.68-1.77s-.81-3.43-.84-3.51-.41-.19-.48-.22c-.07-.03-.56.1-.56.1l-.3.27s-.28.03-.27.14.05.24.09.24.37.01.4.11c.02.1.12.28.11.38-.01.1-.12.27-.11.31.01.04.19.28.19.28,0,0-.45-.06-.46-.11-.01-.05-.01-.36-.01-.36,0,0,.17-.1.14-.15-.04-.05-.26-.33-.33-.31-.07.03-.17.15-.17.15,0,0,.09.18.07.25-.01.08-.07.31-.12.34-.05.04-.36.18-.35.13.01-.05.28-.45.25-.5-.04-.05-.27-.06-.2-.17.07-.1.37-.34.35-.42-.02-.08-.12-.17-.12-.17l-1.12-.34v.14s.25.18.2.19c-.05.01-.32-.05-.32-.05v.13s.38.06.41.14c.02.08.26.36.24.43-.02.08-.24.14-.3.08-.06-.06-.11-.51-.3-.52-.19-.01-.47.08-.51.08s-.26-.09-.24-.13.53-.08.52-.11c-.01-.04.05-.43.05-.43,0,0-.78-.14-.9-.28-.12-.14-.62-.52-.76-.57-.14-.05-.46-.05-.46-.05,0,0-.07.14.06.18.14.04.55.04.52.09-.02.05.02.11-.1.18-.12.06-.16.17-.25.06-.09-.1-.19-.19-.22-.19s-.2.06-.2.06l-.29-.29v1.21s.11.14.15.13c.04-.01.38-.14.38-.14l.12.23.22-.03-.04.19.26-.03s-.06.34-.14.34-.26-.33-.35-.37c-.09-.04-.35-.17-.33-.06.01.1-.11.74-.11.74,0,0,.26.08.29.14.02.06.02.2.06.23.04.03,1.16.28,1.1.31-.06.03-.82.1-.85.08-.04-.03-.31-.29-.31-.29,0,0-.11.14-.17.11-.06-.03-.12-.25-.12-.25l-.55.19s-.09.29-.12.31c-.04.01-.51.19-.51.19l-.09.27-.16-.06.36-.7s.31.15.32.09c.01-.06.07-.28.07-.28h.3s.09-.03.09-.17-.22-.34-.21-.4c.01-.05.14-.23.15-.29.01-.06-.16-.59-.16-.59,0,0-.32-.17-.4-.09-.07.08-.06.66-.22.66s-1.02-.22-1.05-.18c-.04.04,0,.4-.11.42-.11.03-.53.05-.56.1-.02.05-.14.34-.14.34,0,0-.21-.1-.22-.06-.01.04-.01.27-.01.27l-.17.1.06.14s-.62.31-.62.34-.01.87-.05.88c-.04.01-.15-.01-.16-.06-.01-.05.02-.96.05-1.01.02-.05.51-.22.52-.28.01-.06.25-.73.29-.75.04-.03.43-.17.46-.23.02-.06.01-.55.01-.55l-.35.29-.22-.14s.32-.17.31-.24c-.01-.08-.2-.59-.2-.59l.24.04.14.33s.11-.09.11-.14-.14-.38-.17-.47c-.04-.09-.53-.25-.58-.32-.05-.06-.45-.6-.6-.6s-1.05.31-1.05.24.11-.34.15-.34.5.06.48-.01c-.01-.08.07-.31.02-.37s-.21-.2-.31-.22c-.1-.01-.53.04-.69-.05-.16-.09-.47-.22-.5-.31-.02-.09-.06-.34-.06-.45,0,0,.26-.66.2-.84-.06-.18-.24-.73-.26-.8-.02-.08.1-.84.1-.84,0,0-.3-.47-.33-.42-.04.05-.5,1.12-.53,1.13-.04.01-.47.03-.47.03,0,0-.69-.88-.77-.92-.07-.04-.31-.1-.31-.1,0,0,.2-.42-.02-.42s-.94.04-1.1.06-.47.2-.55.19c-.07-.01-.72-.56-.83-.64-.11-.08-.41-.32-.55-.24-.14.08-.64.56-.64.52s.07-.48.16-.51c.09-.03.35-.06.35-.19s-.25-1.21-.31-1.22c-.06-.01-.17-.09-.22-.04-.05.05-.55.76-.59.83-.05.06-.25.2-.27.17s.06-.14-.01-.17c-.07-.03-.37-.06-.38-.18-.01-.11-.09-.85-.12-.83-.04.03-.07.2-.21.25-.14.05-.35.17-.45.11-.1-.05-.24-.14-.32-.11-.09.03-.55.31-.61.31s-.27-.08-.27-.08c0,0-.04-.28-.1-.32-.06-.04-.3-.17-.3-.17l-.14.31-.35.22s-.27-.59-.33-.6c-.06-.01-.35.11-.35.11l-.05-.2s.55-.75.55-.7.07.73.11.73.9-.2.97-.17c.06.04.3.23.38.28.09.05.64.08.64.08l.02-.22s.05.23.2.19c.15-.04.99-.36.99-.36,0,0-.14.14-.14.22s.06.8.06.8c0,0,.16.01.24-.01.07-.03.98-.78.98-.78,0,0,.31.25.31.29s.14.56.19.62c.05.06.31.47.35.52s.72.37.72.37l.15-.19s.16-.04.2-.06c.04-.03.35-.31.35-.31,0,0-.11-.18-.1-.23.01-.05.11-.65.11-.7s-.17-.24-.15-.31c.02-.06.14-.32.16-.28.02.04.21.36.21.36,0,0-.11.14-.1.18.01.04.35.13.27.19-.07.06-.25.2-.25.24s-.07.94.01.94,1.26.11,1.26.11c0,0,.72,1.03.76,1.02.04-.01.3-.29.3-.29l-.22-.24.78-.05s.05-.23.09-.23,1.04.2,1.07.24c.02.04.58,1.01.58,1.05s-.43.94-.37.97c.06.03.43.28.52.37.09.09.64.75.64.75,0,0,.25-.06.22-.1-.02-.04-.4-.57-.4-.57l.1-.24s.27.6.37.68c.1.08.25.11.25.11l.12-.14s-.1.42-.07.5c.02.08.12.23.2.25.07.03,1.02.65,1.03.7s.24.34.24.45-.07.22-.02.32c.05.1.53.56.53.56,0,0,.43-.52.51-.6.07-.08.63-.23.66-.31.02-.08.15-.31.15-.31,0,0,.26.14.31.06.05-.08.36-.43.36-.43,0,0,.16.05.06.19-.1.14-.37.6-.37.6l.32-.11s.56-1.81.56-1.86-.17-.4-.17-.4c0,0-.47.14-.47.18s.05.4.05.4l-.28-.5s-.09.03-.14.13c-.05.1-.15.57-.21.64-.06.06-.37.38-.37.38,0,0,.01-.42.05-.52.04-.1.31-.38.31-.38l-.19-.15s.01-.19-.02-.19-.31.06-.31.06l-.06-.19-.14.09s-.01-.28.02-.29c.04-.01.29-.1.36-.04.07.06.28.23.28.23l.02.19s.07-.18.17-.2c.1-.03.81-.19.81-.19l-.27-.13s.09-.09.07-.17-.31-.24-.31-.2.06.37-.04.25c-.1-.11-.22-.15-.33-.31s-.1-.18-.11-.31c-.01-.13-.04-.31-.04-.31l-.17-.06-.29.18s.37.03.32.09c-.05.06-.27.13-.28.17-.01.04.12.14.12.14,0,0-.22.14-.3.14s-.15-.01-.12-.09c.02-.08.1-.36.1-.36l-.3-.13s-.01-.23-.05-.15c-.04.08-.14.57-.17.57s-.11-.11-.11-.11c0,0-.14.33-.24.32-.1-.01-.35-.14-.35-.14,0,0,.04-.11.07-.11s.25.04.25-.01-.01-.43-.01-.43c0,0,.21.17.25.1.04-.06.05-.31.05-.31,0,0-.07-.19-.17-.19s-.5.01-.5.01l.67-.23s.26.43.3.36.09-.31.07-.34c-.01-.04-.17-.41-.17-.41,0,0,.06.24-.07.23-.14-.01-.63-.11-.63-.11l.06-.11.38-.09s-.07-.2-.11-.2-.85.25-.85.25c0,0-.94-.52-1.07-.66-.12-.14-.17-.47-.41-.48-.24-.01-.58-.06-.58-.11s.1-.17.04-.22c-.06-.05-.48-.33-.48-.33l-.21-.04s.1-.13.05-.23c-.05-.1-.59-.75-.64-.88-.05-.13-.01-.38-.05-.4-.04-.01-.3-.05-.3-.09s-.37-.73-.38-.76-.81-.83-.82-.87c-.01-.04-.41-.92-.45-.96-.04-.04-.63-.28-.64-.33-.01-.05.05-.48.04-.57-.01-.09-.2-.54-.25-.54s-.15-.01-.19.04-.3.52-.38.55c-.09.03-.4-.08-.45-.09-.05-.01-.14-.1-.1-.19.04-.09.28-.43.3-.5.01-.06,0-.5,0-.5,0,0-.14.03-.14.1s.1.27-.02.45c-.12.18-.33.24-.45.19-.11-.05-.3-.42-.36-.33-.06.09-.31.79-.42.76-.11-.03-.55-.28-.55-.36s-.06-.13-.01-.2c.05-.08.21-.24.21-.36s-.01-.27-.07-.27-.15-.06-.16.01c-.01.08.09.17.02.27-.06.1-.11.24-.19.23-.07-.01-.48-.13-.53-.2-.05-.08-.14-.25-.14-.37s.07-.25.11-.25.22-.08.19.03-.11.32-.07.33c.04.01.33.13.33.13,0,0-.11-.25.05-.28.16-.03.38-.13.42-.09.04.04.24.59.21.65-.02.06-.19.28-.15.29.04.01.15.05.15.05,0,0,.09-.32.19-.37.1-.05.59-.33.66-.31.06.03.19.09.17.18-.01.09.05.2.05.2,0,0,.17.06.16-.01-.01-.08-.12-.47-.06-.51.06-.04.46-.18.48-.13.02.05.25.52.21.55-.04.03-.33.54-.31.59.02.05.12.19.16.14.04-.05.16-.29.2-.33.04-.04.36-.2.42-.2s.22.01.22.09.15.47.15.47c0,0,.17-.32.2-.28s.12.5.19.59c.06.09.59.54.66.65s.31.76.37.82.51.45.51.45c0,0-.01.14.01.18.02.04.31.24.31.24l.19-.06s.06.32.1.4c.04.08.71,1.03.81,1.07.1.04.3.25.33.27.04.01.31.56.31.56l.06-.22s-.04.18.11.18.25.01.25.01c0,0-.2.11-.19.18.01.06-.01.15.07.22.09.06.16.15.2.13.04-.03.19-.34.19-.34,0,0-.06.32.01.45.07.13.41.24.42.34.01.1.15.46.15.46l.46-.32.14.05-.11.2.74-.15.09-.09-.04-.19s-.01-.06-.01-.06c0,0,0,.03.01.06.02.03.05.05.12.06.17.03.57.03.57.03,0,0-.35-.27-.3-.27s.25.06.28.04c.04-.03.17-.15.16-.22-.01-.06-.1-.18-.1-.18l.05-.23s-.32.15-.33.08c-.01-.08-.06-.14-.01-.17.05-.03.12-.11.12-.11l-.22-.15s.02.1-.11.17c-.14.06-.35-.03-.46.04-.11.06-.19.2-.2.27-.01.06.02.2.02.2l-.36-.25.02-.18.37-.09-.04-.15s-.51.11-.53.05c-.02-.06-.26-.51-.16-.51s.31-.01.31.03.11.24.15.25c.04.01.22-.14.22-.14,0,0,.12.09.19.13.06.04.33.08.37.05.04-.03.17-.06.16-.1-.01-.04-.1-.17-.1-.17l.19-.13s-.38-.04-.4-.1c-.01-.06-.32-.64-.37-.51-.05.13-.17.2-.17.2l-.57-.06.1-.18s.17.05.21-.03.14-.36.14-.36c0,0-.53-.15-.53-.23s.02-.4.02-.4l.17.31s.04-.11.09-.08c.05.04.36.14.4.18.04.04.16.33.16.33,0,0,.26-.05.32,0,.06.05.43.25.43.25l-.29-.92-.43-.08-.09-.14s-.3.11-.27.08c.02-.04.3-.33.31-.37.01-.04.02-.54.02-.54,0,0,.15.06.15.14s.06.64.06.64l.36-.03s-.06-.43.01-.4c.07.04.41.46.41.46,0,0-.14.15-.12.28.01.13.01.33.09.41.07.08.25.19.25.19,0,0,.24-.06.24-.03s-.06.1-.02.15c.04.05.14.05.14.05,0,0,.27-.14.24-.25-.04-.11-.19-.33-.19-.37s.12-.27.09-.31c-.04-.04-.36-.31-.36-.31l.22-.29s-.02.32,0,.36c.02.04.21.17.27.18.06.01.19-.1.19-.06s-.24.19-.14.33c.1.14.22.24.22.31s-.19.7-.19.7l.31.36s.36-.22.36-.15-.24.41-.19.43c.05.03.35.25.35.25l.11-.05.11.23s-.17.17-.14.2.16.19.16.15.22-1.15.15-1.24c-.07-.09-.47-.41-.47-.41,0,0,.29.14.31.1s.1-.15.11-.1c.01.05.2.25.2.25,0,0,.02-.34-.04-.4-.06-.05-.37-.17-.37-.17l.4-.06.12.27s.09-.23.09-.34.02-1.31.01-1.35c-.01-.04-.21-.4-.21-.4v.47s-.16.01-.16.01c0,0,0-.41-.04-.41s-.14-.09-.16-.04c-.02.05.04.5.01.46-.02-.04-.15-.34-.21-.27-.06.08-.31.38-.33.28-.02-.1-.26-.51-.26-.51,0,0,.62.08.63.04.01-.04.09-.22.06-.25-.02-.04-.24-.19-.33-.22-.1-.03-.1.13-.16.13s-.69-.1-.69-.1l.06-.13s.35.04.35,0,.04-.18,0-.2c-.04-.03-.32-.14-.32-.14h-.25s-.05-.31-.11-.34c-.06-.04-.4-.13-.43-.13h-.2l.06.18s-.27.27-.4.27-.69-.09-.74-.17c-.05-.08-.46-.43-.46-.43l-.38.09.04-.18s-.26-.14-.25-.18c.01-.04.16-.26.16-.26l.31.38s.31-.05.45.03c.14.08.42.43.42.43,0,0,.15-.1.22-.1s.25.15.25.15l.28-.55s-.01.15.11.14c.12-.01.43-.17.43-.17l.14.17.4-.15.16.36s.06-.32.05-.36c-.01-.04-.1-.2-.1-.2,0,0,.47.19.47.15s.29-.41.19-.42c-.1-.01-.57,0-.64-.06-.07-.06-.06-.19-.22-.18-.16.01-.74.01-.74.01,0,0-.74-.25-.74-.29s.09-.28.05-.28-.17-.01-.17-.01l.1-.25-.11-.09s-.04.06-.22.11c-.19.05-1.38,0-1.45-.04-.07-.04-.43-.5-.58-.61-.15-.11-.56-.36-.56-.36,0,0,.42-.05.35-.08-.07-.03-.77-.38-.77-.38,0,0,.06-.23.1-.2s.68.25.68.25l-.2-.6-.35.06s.15-.23.16-.29c.01-.06.01-.22-.09-.25-.1-.04-.33-.06-.36-.1-.02-.04.12-.4-.05-.46-.17-.06-.88-.22-.92-.28s.07-.43-.02-.46c-.1-.03-.61-.08-.67-.15-.06-.08-.26-.22-.35-.34-.09-.13-.77-1.34-.82-1.44-.05-.1-.21-.7-.21-.7l-.48-.27s.04-.2-.02-.22c-.06-.01-.38-.05-.42-.05s-.68-.68-.68-.73.24-.5.11-.5-.53.09-.55.03c-.01-.06-.31-.34-.31-.34,0,0,.26-.28.27-.38.01-.1-.35-1.48-.41-1.5-.06-.03-.89-.33-.9-.37-.01-.04-.15-.43-.15-.43,0,0-.02.19-.06.24-.04.05-.45.29-.55.24-.1-.05-.45-.38-.45-.38v-1.05s-.22.34-.22.34l-.21.05s-.05-.45-.11-.46c-.06-.01-.15,0-.17.04s-.15.41-.22.42c-.07.01-.2.01-.22-.04-.02-.05-.15-.57-.21-.61-.06-.04-.15-.09-.15-.09l-.4.23-.55-.71s.58.34.67.34.15-.06.22-.05c.07.01.26.06.3.06s.22-.11.22-.08.16.38.16.38c0,0,.31-.33.33-.29.02.04.21.34.25.33.04-.01.22-.17.22-.17,0,0,.32.08.31.11-.01.04-.01.87,0,.94.01.08.29.34.29.34l.64-.36s.22.43.26.45c.04.01.81.33.85.37.05.04.36.54.38.6s.3,1.41.3,1.41c0,0,.37-.01.37.05s.06.22.06.22l.17-.17s.22.03.19.09c-.04.06-.16.66-.12.69s.22.34.29.38c.06.04.21-.05.25-.04.04.01.72.46.74.51.02.05.22.71.26.75.04.04.24.14.22.09-.01-.05.1-.29.1-.29h.22s.3-.47.3-.47c0,0-.05.31-.07.41-.02.1-.4.38-.41.46-.01.08.2.71.25.78.05.06.71.36.71.36l.14-.15-.06-.08.38-.23s-.25.41-.2.5c.05.09.42.55.42.51s.14-.54.15-.5c.01.04.07.18.07.18,0,0,.21-.11.22-.08.01.04-.1.45-.1.45,0,0,.02.15.06.15s.41.03.41.03c0,0-.35.01-.24.11.11.1.15.18.24.19.09.01.57-.2.57-.2,0,0-.2.2-.2.32s.09.59.19.73c.1.14.31.52.31.52l.2.03s.17.97.17,1.01.43.54.43.54l.31-.15-.2-.23.07-.18s.12.13.14.09c.01-.04,0-.2.04-.27.04-.06.17-.08.17-.14s-.17-.33-.17-.33c0,0,.17-.06.15-.1-.02-.04-.17-.32-.17-.32,0,0-.15.04-.19-.01-.04-.05-.27-.2-.27-.28s-.11-.65-.02-.61c.09.04.36.04.37.17.01.13-.1.37-.04.43.06.06.21.19.24.23s.25-.04.25,0,.05.2.05.2c0,0,.09-.28.15-.28s.27-.01.29-.08.05-.34.14-.31c.09.04.47.04.31.15-.16.11-.48.6-.57.62-.09.03-.21.03-.21.03l.04.31s.12.01.14.08c.01.06-.32.28-.32.38s.17.2.17.2c0,0,0,.2.04.22.04.01.14.15.2.03.06-.13.36-.65.36-.65,0,0-.07.32-.04.33.04.01.26-.04.3.04.04.08.06.13.04.17-.02.04-.47.2-.47.2,0,0,.52.43.57.4.05-.04.25-.06.38.01.14.08.35.47.4.45s.17-.09.17-.14-.1-.22-.06-.24c.04-.03.37-.14.37-.1s-.06.25.02.25.19-.01.22-.06.14-.48.14-.48c0,0-.14.17-.25.18-.11.01-.46-.1-.46-.1,0,0,.29-.08.29-.11s.05-.19,0-.2c-.05-.01-.51-.17-.51-.17,0,0,.42-.1.38-.13-.04-.03-.41-.25-.42-.31-.01-.05-.04-.13.1-.1s.57.23.57.19-.06-.18-.1-.2-.5-.19-.5-.28.27-.54.27-.54c0,0-.05.46.01.47.06.01.21.08.26.05.05-.03.14-.14.14-.14l.16.28.05-.29s.02.22.07.13c.05-.09.1-.13.06-.23-.04-.1-.21-.45-.21-.45l-.12.1-.02-.17s-.31-.01-.3-.05c.01-.04.26-.19.22-.2-.04-.01-.43-.1-.43-.1,0,0,.15-.1.15-.19s.01-.61.03-.57c.01.04.14.46.22.55.09.09.4.33.4.33,0,0,.03-.14.03-.18s-.37-.48-.37-.54.09-.11.12-.1c.04.01.17.17.17.17v-.32s.37-.06.37-.06c0,0-.04-.2-.09-.2s-.4-.05-.4-.05l-.09.18s-.11-.18-.15-.17c-.04.01-.3.05-.3.05l-.04-.15-.27-.06s.09-.19.11-.18c.02.01.69.23.73.15s.04-.38,0-.37-.35.03-.35.03c0,0,.15-.18.11-.23-.04-.05-.14-.15-.14-.15,0,0,.07-.15.05-.19-.02-.04-.14-.2-.16-.13-.02.08-.22.29-.22.29,0,0-.27-.32-.31-.33-.04-.01-.48.13-.48.13v-.18l.22-.09s.1-.13,0-.14c-.1-.01-.99-.13-1.02-.19-.02-.06-.07-.29-.02-.28.05.01.63.2.67.2s.3-.15.37-.08c.07.08.52.51.56.51s.12-.09.12-.09l.15.11h.4s-.05.2-.05.2l.35.15.12.33.04-.59-.1-.22s.14-.06.17,0c.04.06.15.27.17.36.02.09.04.34.01.38-.02.04-.2.24-.2.24,0,0,.06.06.1.04.04-.03.22-.08.22-.13v-.31l.21.06.22-1.35-.1-.1s-.06.4-.1.33-.15-.33-.17-.29c-.02.04-.15.1-.15.2s.02.2-.05.23c-.07.03-.24.03-.24-.01s.14-.34.1-.33c-.04.01-.22.2-.26.15-.04-.05-.01-.22-.07-.25-.06-.04-.5-.5-.46-.5s.42-.04.46.06c.04.1.04.29.1.31.06.01.35.09.35.09l-.07-.2s.38.22.4.18c.01-.04.06-.18-.05-.26-.11-.08-1.54-.92-1.54-.92l-.2.23-.06-.28s-.36-.19-.35-.15c.01.04.14.5.12.55-.01.05-.27.27-.27.23s.04-.37,0-.4c-.04-.03-.25-.06-.21-.09.04-.03.29-.22.22-.24-.06-.03-.4-.17-.5-.22-.1-.05-.31-.32-.31-.32v.18s-.21.09-.21.04.06-.44.06-.44l-.37.1.14.27s-.32.2-.32.24.04.37,0,.42c-.04.05-.17.2-.19.17-.01-.04-.14-.38-.07-.46.06-.08.42-.31.38-.42-.04-.11-.02-.32-.1-.31-.07,0-.61.29-.61.29l.14-.29-.1-.06s.45-.23.48-.22c.04.01.19.17.22.1s.07-.08-.01-.2c-.09-.13-.72-.46-.84-.47-.12-.01-.4.04-.38.08.01.04.27.22.22.28-.05.06-.19.09-.19.13v.36l-.25-.4-.43.15s.57-.4.55-.43c-.03-.04-.06-.11-.1-.11h-.22s.24-.25.2-.27c-.04-.01-.32-.27-.32-.27,0,0,.14.01.19-.05.05-.06.09-.29.09-.29l.26.56c.07-.11.25-.05.26-.14.01-.09-.22-.62-.29-.69-.06-.06-1.21-.78-1.21-.78l-.27.06s.3-.2.3-.32-.14-.57-.2-.57-.47-.06-.48-.03c-.01.04.11.76.11.76,0,0-.5-.69-.53-.71-.04-.03-.53-.34-.58-.29-.05.05-.19.29-.15.31.04.01.45.38.45.38l-.56-.24s.2.48.2.56-.33.31-.33.43.01.28.01.28l.46.33s-.71-.22-.71-.25.06-.32.04-.36-.24-.19-.24-.19l.5-.14s-.1-.41-.16-.45c-.06-.04-.27.03-.32-.05-.05-.08-.19-.46-.26-.46s-.19-.06-.19-.06l.06-.23s-.94.15-1.14.1c-.2-.05-.76-.23-.78-.27-.02-.04-.33-.36-.33-.36l-.35.45s.31-.61.09-.66c-.22-.05-.42-.17-.52-.14-.1.03-.26.14-.38.14s-.55-.1-.55-.1l.4-.27.24.11-.14-.76s.2.42.21.37c.01-.05.07-.42.02-.54-.05-.11-.07-.17-.24-.27-.16-.1-.5-.32-.53-.36-.04-.04-.5-.6-.57-.64-.07-.04-.45-.06-.45-.06l-.19.15s-.02-.4.22-.43c.25-.04.45.11.55.06.1-.05.15-.05.17-.22.02-.17.15-.93.05-1.06-.1-.13-.48-.55-.56-.51-.07.04-.62.7-.73.73-.11.03-.76-.08-.83.04-.07.11-.57.52-.57.52,0,0-1.02.36-1.2.36s-.38-.04-.45-.08c-.06-.04-.05-.18-.21-.15-.16.03-.3.08-.61.08s-.93-.23-.88-.24c.05-.01.52-.25.55-.22.02.04.07.29.28.22s.26-.27.26-.27c0,0,.06.18.12.15.06-.03.22,0,.14-.13-.09-.13-.41-.6-.55-.75-.14-.15-.48-.31-.56-.43-.07-.13-.06-.37-.11-.43-.05-.06-.32-.27-.32-.27,0,0,.5.13.57.29.07.17.53.68.53.68,0,0-.2-1.17-.1-1.58.1-.41.38-.99.46-1.12.07-.13-.11-.69-.27-.87.26.15.31.55.48.31.17-.24.31-.34.32-.45,0,0,.09-.28-.1-.36s-.25-.18-.2-.18.33-.01.33-.01c0,0,.11-.09.11-.13s-.16-.38-.16-.38c0,0,.15-.03.16-.06.01-.04.02-.48.02-.48l.32-.23s-.16-.43-.12-.41c.04.03.67.08.67.11s-.02.24-.02.24l-.28.17.25.47.51-.2.16-.34s.47.14.47.1,0-.24-.07-.34c-.07-.1-.68-.66-.68-.66l.2-.13-.02-.28.45.51.24-.18.05-.62.43.2s.67-.11.71-.18c.04-.06.21-.14.21-.18s-.02-2.77-.02-2.77c0,0,.19-.28.19-.34s-.15-.46-.21-.55c-.06-.09-.55-.55-.55-.55,0,0-.19-.09-.31-.17-.12-.08-1.02-1.34-1.05-1.35-.04-.01-.61,0-.71-.01-.1-.01-.66-.27-.69-.29-.04-.03-.22-.24-.22-.32s.02-.61.01-.65c-.01-.04-.95-.68-.95-.68,0,0-.41-.14-.55-.18-.14-.04-1.97-.22-1.97-.22,0,0-.55-.84-.58-.88-.04-.04-.47-.22-.52-.31-.05-.09-.11-.39-.1-.55.01-.15.06-.46.11-.47.05-.01.69-.48.69-.48,0,0,.33-.87.3-.9-.04-.04-.5-.47-.59-.52-.1-.05-.77-.27-.79-.31-.02-.04-.4-.96-.43-.93-.04.03-.62.13-.66.13s-.69-.15-.77-.23c-.07-.08-.35-.29-.38-.29s-.35.19-.45.17c-.1-.03-.4-.13-.4-.13,0,0-.5.62-.55.73-.05.1-1.3,3.58-1.3,3.58l-8.75-7.48s.11.73,0,.89c-.11.17-.17.29-.17.33s.17.48.17.56-.27.64-.27.64c0,0,.37.17.37.23s-1.36,1.95-1.26,2.05c.1.1.3.03.21.31-.09.28-.46.98-.46,1.02s.43.71.43.75-.45.4-.43.47c.01.08-.25.43-.31.52-.06.09-.74.48-.78.54-.04.05-1.28,1.44-1.26,1.5.01.06.29.33.27.37-.01.04-.77,1.15-.81,1.15s-.36-.41-.43-.32c-.07.09-.86,1.21-.86,1.21l-.61.51s.01-.59-.14-.59-1.09.87-1.1.9c-.01.04-1.36,2.89-1.4,2.88-.04-.01-2.13-2.15-2.24-1.92s-.07.54-.11.56-.31.24-.32.29-.02.28-.07.36c-.05.08-.5.19-.5.19,0,0-.01.31,0,.4.01.09-.56,1.27-.56,1.27,0,0-.04.56,0,.65.04.09-.05.51-.12.56-.07.05-.59.15-.59.19s-.41.89-.41.89c0,0-.14.52-.16.62-.02.1-.72,1.36-.72,1.36,0,0-.07.6-.1.64-.02.04-.52.65-.52.65l-.1.31-.59.51v.22s-.58.13-.64.13-2.73-1.01-2.73-1.01c0,0-.98-2.14-1.02-2.14s-1.69-.94-1.73-.94-.21.09-.22.14c-.01.05-.26.51-.27.71-.01.2,0,.96,0,.96l-.25.08s-.21.22-.21.41v1.34s-.61.97-.63,1.06,0,.42,0,.52-.21.2-.21.2h-.35s-.82.98-.82,1.03.28.55.28.62.02.28-.02.31c-.05.03-.88.5-.95.6-.07.1-1.26,1.31-1.26,1.31,0,0,.05.52,0,.62-.05.1-.33.42-.37.5-.04.08-.12.27-.06.33.06.06.33.2.26.31-.07.1-.37.32-.43.52s-.82,1.73-.88,1.89c-.06.15-2.28,2.4-2.42,2.47-.14.08-.45.22-.46.25-.01.04-.36.79-.4.85s-.68.68-.68.76v.55s-.06-.01-.2.1c-.14.11-.48.51-.48.66s.09.51.09.51l-.48.57s-.56.27-.55.31c.01.04,1.6,1.26,1.59,1.3-.01.04-.61.71-.67.74-.06.03-1.14.51-1.13.61.01.1.19.5.19.5,0,0-.32.22-.28.24.04.03.21.25.37.17.16-.09.24-.24.24-.24,0,0,.27.04.21.15-.06.11-.19.27-.31.45-.12.18-.58.37-.72.42-.14.05-.25-.03-.33.13-.09.15-.09.29-.24.37-.15.08-1.75.98-1.75.98,0,0-.41-.34-.4-.43.01-.09-.09-.74-.15-.75-.06-.01-.62-.05-.67.01-.05.06-2.75,1.7-2.9,1.77-.15.08-1.09.48-1.13.42-.04-.06-.11-.32-.22-.38-.11-.06-.19-.06-.27-.14-.09-.08-.33-.59-.59-.69-.26-.1-.31-.24-.41-.05-.1.19-.4.74-.36,1.01.04.27.52.75.46.83-.06.08-.63.55-1.05.82-.42.27-.69.43-1.04.38-.35-.05-.06-.32-.38-.23-.32.09-1.99.42-2.35.56s-1.55.73-1.72.83c-.32-.22-2.29-2.42-2.3-2.38-.01.04-.04.2-.14.28-.1.08-.35.08-.46.28s-.32.85-.45.88c-.12.03-.31-.08-.43.03-.12.1-.58.43-.67.45-.09.01-.29-.19-.35-.03-.06.17.09.22-.12.36-.21.14-.77.56-.92.57-.15.01-1.93,0-1.99,0s-.68-.75-.78-.78c-.1-.03-.4.05-.4-.05s-.04-.68-.25-.79c-.21-.11-.45-.25-.68-.2-.24.05-.32.14-.48.08-.16-.06-.35-.06-.41-.27s-.1-.68-.33-.87c-.24-.19-.42-.13-.71-.51-.28-.38-.47-.46-.36-.8.11-.34.26-.51.2-.66-.06-.15-.24-.29-.23-.38,0-.09.14-.14,0-.28-.14-.14-.77-.32-.81-.46-.04-.14-.12-.34,0-.5.12-.15.66-.14.67-.28.01-.14-.05-.14,0-.19.05-.05.45-.29.4-.33-.05-.04-.26-.06-.26-.14s-.04-.24-.04-.24c0,0-.26-.19-.35-.13-.09.06-6.17,5.29-6.22,5.37-.05.08-.36.08-.42.17s-.05.22-.11.27c-.06.05-2.35.73-2.73.88-.37.15-.66.19-1.07.51-.41.32-1.28.94-1.38,1.01-.1.06-1.46.48-1.52.75-.06.27,0,1.52-.1,1.59-.1.08-.27.05-.31.13-.04.08.07.29-.07.34-.15.05-.12-.15-.32,0s-.14.33-.37.38c-.24.05-.72.03-.76.06-.04.04-.22.36-.36.42-.14.06-.36.1-.37.18-.01.08-.02.28,0,.36.02.08.16.05.12.25-.04.2-.25,1.1-.38,1.2s-.4.32-.66.43c-.26.11-1.39.27-1.42.32-.04.05-.06.2-.29.24s-.36-.2-.47-.2-.61-.01-.64.09c-.04.1.01.15-.12.22-.14.06-.27.08-.35.23-.07.15.06.22-.11.48s-.5.43-.53.61c-.04.18.11.34,0,.51-.11.17,0,.31-.21.33Z"/>
      <path class="cls-1" d="M126.63,49.75v-.06s-.02.03,0,.06Z"/>
      <path class="cls-1" d="M135.08,62.48l-.06.31.1.05s.28-.29.25-.3c-.03,0-.3-.06-.3-.06Z"/>
      <polygon class="cls-1" points="135.03 63.2 135.2 63.31 135.2 63.03 135.03 63.2"/>
      <path class="cls-1" d="M135.72,63.57s-.27-.63-.27-.63l-.07.56-.09-.12-.04.12s.06.38.1.42c.04.04.23.09.23.09,0,0-.13-.26-.08-.29.05-.03.22-.12.22-.15Z"/>
      <path class="cls-1" d="M135.2,65.24s-.36.04-.36.09,0,.37.05.42c.04.05.15.11.14.09s.18-.59.18-.59Z"/>
      <polygon class="cls-1" points="135.89 65.39 135.79 65.39 135.66 65.61 135.26 65.69 135.12 66.02 135.84 65.97 135.89 65.39"/>
      <polygon class="cls-1" points="127.34 50.55 126.94 50.7 127.34 50.91 127.39 50.73 127.34 50.55"/>
      <path class="cls-1" d="M129.54,45.05l-.45-.91-.39-.11-.06.55s.56.11.57.13.33.33.33.33Z"/>
      <path class="cls-1" d="M129.18,41.75s-.47-.57-.47-.57c0,0,0,.58,0,.61,0,.03.23.12.26.12s.22-.13.21-.16Z"/>
      <path class="cls-1" d="M133.78,36.31s-.09.16-.07.17c.03,0,.19.1.19.12s-.15.63-.1.69c.06.06.23.16.23.16l.15-.1-.24-.16.07-.67-.23-.21Z"/>
      <path class="cls-1" d="M135.75,37.07l-.19.23s.19.47.19.43,0-.66,0-.66Z"/>
      <path class="cls-1" d="M135.56,35.57s.05-.15,0-.22c-.05-.06-.2-.19-.2-.19,0,0-.09-.07-.09,0s-.12.23.05.31c.17.08.24.1.24.1Z"/>
      <path class="cls-1" d="M133.33,34.5l.13-.47-.19-.22s.06.23.06.26-.1.32-.1.32l.1.11Z"/>
      <path class="cls-1" d="M133.77,49.31s-.15.37-.15.42.27.45.27.45h.19l.1-.44.06.31s.23.11.19.13c-.05.03-.19.19-.23.21-.05.02-.27.05-.27.05,0,0-.07.41-.03.54.05.13.47.7.55.84.07.14.18,1.02.2,1.05s.3.09.3.09c0,0,.39-.47.4-.51,0-.04-.15-1-.15-1l.11-.59.19.12.06-.16s-.25-.84-.23-.9c.02-.06.51-2.56.51-2.56,0,0,.11.07.16.07s.33-.33.33-.35.02-.35.02-.35l.2-.04.31-.51.27-.06s-.15.26-.05.28c.1.02.28.1.31.1s.32-.12.32-.12c0,0-.56-.37-.56-.45s.12-.49.09-.51c-.03-.02-.17-.1-.17-.1,0,0,.16-.39.28-.46.12-.07.59-.53.59-.53l.46.11v.31s.24-.24.24-.24c0,0,.15.07.18.05.03-.02.29-.17.29-.17v-.17s-.22.11-.26.11-.37-.11-.36-.14c0-.03.08-.19.06-.19s-.32.07-.33.04c0-.03.46-1.14.46-1.14l.36-.11.33.43h.23l-.06-.45s.16-.09.2-.08c.05,0,.28.12.28.12l.04-.25-.82-.05s-.1-.26-.08-.31c.02-.05.57-.55.57-.55,0,0-.12-.14-.12-.17s.45-.83.45-.83c0,0,.32-.04.33-.07,0-.03.07-.23.07-.23,0,0,.21.06.27,0,.06-.05.23-.19.23-.19,0,0-.42-.42-.42-.48s.23-.71.23-.71c0,0,.33-.25.33-.28,0-.03.36-.97.36-.97l.1.32s.14-.07.16-.11c.02-.05.13-.95.13-.95l.37-.41v-.46l.2-.04s-.03.29.02.22c.05-.07.4-.6.4-.6l-.37-.1s-.05-.11-.04-.16c0-.05.37-.86.4-.87.03,0,.33,0,.33,0,0,0-.16.14-.17.25,0,.1-.17.53-.17.53l.42-.32s.13-.37.13-.43-.16-.47-.11-.5c.05-.03.45-.17.45-.17,0,0-.05-.19-.06-.22,0-.03-.18-.23-.18-.23,0,0,.03-.61.1-.61s.46.03.46.03l-.08-.14s.2-.23.22-.25c.03-.02.33-.15.33-.15l-.11-.13-4.2.66s-.19.16-.18.22c0,.06.11.16.05.2-.06.04-.3.12-.3.12,0,0,.19.26.19.36s-.07.28-.07.33-.12.09-.12.09c0,0-.5-.14-.53-.13-.03,0-.27.3-.34.3s-.26-.14-.32-.12c-.06.02-.46.53-.46.53,0,0,.11.1.05.13-.07.03-.31.11-.31.11,0,0,.2.14.25.15.05,0,.38-.08.38-.08,0,0,.03-.34.05-.32.02.03.26.24.26.24,0,0,.22-.18.31-.18s.32.03.29.05c-.03.02-.5.29-.5.29l.15.13s.26-.1.29-.09c.03,0,.32.27.32.27,0,0-.33-.02-.35,0-.03.02-.13.4-.13.4l.06.17.56-.15-.33.35s.3.27.25.27h-.39s-.09.21-.09.17-.23-.61-.24-.58c0,.03-.19.4-.19.4l.19.11-.14.02s.03.14,0,.23c-.03.09-.07.11-.09.1-.03,0-.15-.14-.15-.14l-.02.34h.46v.22s-.13-.04-.13,0,.06.27.06.27l-.37-.27s0,.37-.03.39c-.03.02-.28-.14-.29-.1,0,.05-.07.33-.07.33l-.17-.56-.21.2-.12-.2.2-.16s-.14-.13-.2-.12c-.06,0-.34.06-.4.14-.06.09-.31.26-.32.32,0,.07.08.31.08.31l.12-.26s.3.07.36.1c.07.03.37.15.38.24,0,.09-.1.15-.07.23.03.08.23.42.23.42l-.46-.16s-.03-.23-.04-.2c0,.03-.3.36-.3.36,0,0-.19-.16-.2-.13-.02.03-.28.65-.28.65,0,0,.18-.22.2-.23.03,0,.25-.05.35,0,.1.04.7.45.7.49s-.27.19-.27.19c0,0,0-.22-.04-.24-.03-.02-.38-.24-.38-.21s-.13.42-.18.36c-.05-.06-.15-.43-.14-.4,0,.03-.03.23-.06.25-.03.02-.4-.06-.38-.03.02.03.33.37.33.37,0,0-.43-.11-.43-.08s-.08.53,0,.54c.08,0,.34-.08.37,0,.03.08,0,.14.03.15.03,0,.21-.02.24,0,.03.02.29-.17.29-.14s-.09.36-.09.36c0,0-.3-.09-.29-.06,0,.03.02.25,0,.26-.03,0-.22.05-.23,0,0-.05-.17-.32-.2-.32-.04,0-.48-.04-.49.02,0,.06,0,.33,0,.33l-.36-.08v.23l.17.26s-.05.14-.05.19.06.22.06.22l.24-.3.65-.11-.59.3.06.15s-.23-.04-.23,0,.18.34.14.34-.53-.11-.54-.19c-.02-.08-.1-.51-.1-.51,0,0-.44.54-.44.6s.1.24.13.24.32-.15.31-.11c0,.05,0,.28,0,.28,0,0,.31.12.28.13-.03,0-.16.17-.24.14-.08-.03-.48-.21-.47-.18,0,.03-.21.55-.19.54.03,0,.33-.19.36-.19s1.21.3,1.21.3c0,0-1.22.11-1.25.1-.03-.02-.13-.14-.13-.14,0,0,.08.4.05.4s-.13-.25-.16-.17-.36.8-.36.85-.1.71-.07.7c.04,0,.53-.25.56-.31.03-.06.6-.83.6-.83,0,0-.07.57-.07.6,0,.03-.27.23-.27.23l.06.12s.07-.05.13-.07c.06-.02.25.07.25.07l-.77.18s.4.26.4.31-.02.19-.05.19-.2-.15-.23-.15-.17.05-.21.05-.19-.13-.19-.13c0,0-.38.33-.43.42-.05.09-.15.36-.16.42s.07.53.07.53c0,0,0-.22.04-.27.03-.05.64-.55.67-.55s.1.1.1.1l-.23.32s.16,0,.17.06,0,.11,0,.11c0,0-.43-.03-.42.02,0,.05-.08.2-.08.27s.32.38.32.38c0,0-.23-.11-.26-.1-.03.02-.36.15-.36.15,0,0,.37.52.28.52s-.26-.09-.28-.04c-.02.05-.38.5-.4.55-.02.06-.19.76-.19.76l.07.11s.3-.48.33-.53c.03-.05.08-.37.08-.37l.28.16-.16.18s.26.1.24.12c-.02.03-.68.54-.6.61.07.07.33.16.32.19-.02.03-.39.06-.4.1v.04Z"/>
      <path class="cls-1" d="M143.8,34.29s-.24.08-.23.04-.12-.2-.12-.2l-.11.13s.03.41.11.42c.08,0,.34-.11.34-.11v-.28Z"/>
      <path class="cls-1" d="M144.35,33.83l-.23.05-.23-.05v.18s.14.26.16.23c.02-.03.31-.41.31-.41Z"/>
      <path class="cls-1" d="M144.9,34.33l.14-.64.23-.21.22-.48s-.28-.07-.31,0c-.03.07-.1.32-.12.37-.02.06-.39.25-.41.29-.02.04-.86,1.21-.86,1.21,0,0,.51-.11.55-.15.04-.04.07-.32.1-.32.03,0,.45-.08.45-.08Z"/>
      <path class="cls-1" d="M144.27,35.41s.37.33.37.32.51-.53.51-.53c0,0,.62-1.69.64-1.72.02-.03.91-1.53.91-1.53l-.54.06s.1.17.09.21c0,.04-.28.22-.28.22l.1.13s-.42.09-.43.11c0,.03-.11,1.01-.11,1.04s-.21.33-.23.39-.32.39-.32.39c0,0-.38-.02-.41.06-.03.08-.2.39-.2.39,0,0,.13.09.16.09s.25-.06.3-.1c.05-.04.23-.09.23-.09l-.22.54h-.59Z"/>
      <path class="cls-1" d="M143.57,35.17s-.15-.11-.23-.09c-.07.03-.24.25-.27.26-.03.01-.55.83-.53.91,0,0,.05.3.07.29.03,0,.95-1.2.95-1.2v-.18Z"/>
      <polygon class="cls-1" points="142.27 36.46 142.45 36.74 142.45 36.46 142.27 36.46"/>
      <path class="cls-1" d="M141.49,38.21s-.2.92-.22.98c-.03.07-.35.47-.34.5,0,.03.2.27.2.27l1.34-3.08-.23-.19s-.31.26-.31.29.1.28.1.28l-.17.31s.07.38,0,.45c-.07.07-.34.17-.36.2Z"/>
      <polygon class="cls-1" points="141.19 38.63 141.27 38.74 141.36 38.15 141.19 38.63"/>
      <path class="cls-1" d="M140.12,41.77l-.06-.26-.14-.1-.27.6.6.08s.23-.15.26-.11c.03.04.15.12.18.11.03,0,.5-1.88.5-1.88h-.18l-.35.33s-.04.13-.05.16c0,.03-.42.19-.42.19,0,0-.06.36,0,.38.06.02.45.16.45.16l-.12.33h-.4Z"/>
      <path class="cls-1" d="M140.42,42.6c0-.05-.07-.44-.07-.44l-.25.11-.26-.16-.27.06.13.09-.07.21s.78.2.78.15Z"/>
      <path class="cls-1" d="M138.8,43.73s.2,0,.2,0-.11.19-.05.19h.24l.2-.33.52.11-.2.03s-.16-.02-.2.07c-.04.09-.18.28-.17.32,0,.05.3.3.3.3,0,0,.08-.07.08-.12s.16-.51.16-.51l-.07.94.36-.54s.65-1.49.66-1.52c0-.03,0-.31,0-.31h-.27l-.04.26s-.28.12-.31.13c-.03,0-.24.3-.24.3v.3l-.27.15-.07-.17-.4.04-.33-.43s-.07.13-.07.17v.25l.33.09s-.32.08-.33.11c0,.03-.05.2-.05.2Z"/>
      <polygon class="cls-1" points="138.8 44.68 138.63 44.84 138.72 45 138.85 44.84 138.8 44.68"/>
      <path class="cls-1" d="M139.44,44.49l-.46.18s.43.11.46.08c.03-.03,0-.26,0-.26Z"/>
      <polygon class="cls-1" points="139.22 44.9 138.99 45.06 139.3 45.14 139.4 44.9 139.22 44.9"/>
      <path class="cls-1" d="M139.06,46.93l.69-1.38v-.48l-.43.24.08.25h-.34s.14.16.16.19c.02.03-.37,1.18-.37,1.18h.21Z"/>
      <polygon class="cls-1" points="138.63 46.93 138.74 46.71 138.63 46.57 138.63 46.93"/>
      <polygon class="cls-1" points="136.95 46.46 136.94 46.22 136.66 46.67 136.94 46.84 137.32 46.57 136.95 46.46"/>
      <polygon class="cls-1" points="137.4 46.64 137.4 46.88 137.84 46.84 137.84 46.64 137.4 46.64"/>
      <polygon class="cls-1" points="137.7 46.93 137.62 47.02 137.53 47.86 137.32 48.05 137.51 48.27 137.7 47.6 137.7 46.93"/>
      <polygon class="cls-1" points="137.79 47.88 137.7 48.11 137.91 48.15 137.91 47.83 137.79 47.88"/>
      <polygon class="cls-1" points="138.08 47.69 138.16 48.04 138.24 47.75 138.08 47.69"/>
      <polygon class="cls-1" points="138.69 47.32 138.69 47.6 138.35 47.91 138.02 48.49 137.75 48.66 137.91 48.87 139.06 47.32 138.69 47.32"/>
      <polygon class="cls-1" points="136.66 48.04 136.82 48.27 136.82 47.83 136.66 48.04"/>
      <path class="cls-1" d="M136.56,47.12s-.33.31-.33.37c0,.07-.38,1.28-.38,1.28h.63l.19-.54s-.21-.53-.2-.54c0-.02.2-.14.2-.14l-.1-.42Z"/>
      <polygon class="cls-1" points="135.64 48.56 135.64 48.87 135.84 48.6 135.75 48.34 135.64 48.56"/>
      <polygon class="cls-1" points="135.64 49.1 135.74 49.43 135.74 49.02 135.64 49.1"/>
      <path class="cls-1" d="M136.92,49.5l.11-.34-.29-.2s0,.34,0,.36c0,.02.18.18.18.18Z"/>
      <path class="cls-1" d="M137.7,49.97c0-.13,0-1.01,0-1.01l-.24.26-.06.43.15.17v.19s.14.1.15-.04Z"/>
      <path class="cls-1" d="M136.66,49.65l-.16-.69-.55.26s-.49.87-.49.9.07.35.07.35c0,0,.15-.05.15,0,0,.05.14.37.15.4,0,.03-.21.75-.2.8,0,.06.05.41.05.41l.2-.74.18.68.19-.11s-.09-.15-.09-.19.15-.52.15-.54-.06-.23-.06-.27.12-.31.12-.33-.12-.06-.12-.06l-.13.25s-.16-.23-.14-.25c.02-.02.16-.7.19-.71.03,0,.49-.17.49-.17Z"/>
      <path class="cls-1" d="M137.56,50.66l.19-.34-.24-.07s-.1.12-.11.15c0,.03-.52,0-.52.03,0,.02-.09.19-.07.23.03.04.19.15.21.15s.52-.15.52-.15Z"/>
      <path class="cls-1" d="M137.18,50.93s-.3.09-.3.09l-.07.2-.27-.09-.15.54s.23.11.26,0c.03-.1.52-.75.52-.75Z"/>
      <polygon class="cls-1" points="137.23 51.22 137.41 51.38 137.41 50.98 137.23 51.22"/>
      <polygon class="cls-1" points="136.74 51.85 136.66 51.8 136.59 52.22 137.18 51.44 137.03 51.38 136.74 51.85"/>
      <path class="cls-1" d="M136.49,52.45l-.08-.15-.4.35s-.21-.03-.26,0c-.05.03-.28.49-.28.49,0,0,.51-.06.53-.09.02-.03.49-.6.49-.6Z"/>
      <polygon class="cls-1" points="134.65 53.25 134.5 53.4 134.65 53.59 134.9 53.5 134.65 53.25"/>
      <path class="cls-1" d="M138.34,37.12s-.12.06-.12.1.06.24.06.24l.13-.17-.06-.17Z"/>
      <path class="cls-1" d="M137.19,38.05v.26l.47-.2-.14-.2s-.33.11-.33.14Z"/>
      <path class="cls-1" d="M136.24,39.87s-.24.1-.24.1l.24.25.08-.22-.08-.12Z"/>
    </g>
  </g>
</svg>