<svg xmlns="http://www.w3.org/2000/svg" data-name="Layer 2" viewBox="0 0 56.7 95.2"><path d="M3.5 32c0 .2-.8.8-.9.8l-.3.7-.8.8-.1 1.5-.5.9v1l-1 2.3.2.4.5.5.3.6V45l.3 1.2.5.6v1.5l.1.4-.5.7v.3l1 1.5v.7L2 53.1l-.1.6-.5.5-.4 1-.3 1-.4.8v.3l.2.8-.1.2v.4l-.2.7.2.3.5.3H1l.3-.4V59l.3-.3v-.8l.3-.1h1.8v.5l.3.4v1.1h.3l.8.7.3 1.2-.1.5v.1L5 71.6l-.5 13.5-.2 5.7h-.2v.9L4 92l.4 2.5h.7l12.5.4 10.9.4-.4-.8-.2-.7-.5-.4-.5.2V93l-.6-.6-.3-.6-.4-2.3.1-.6.4-.3.3-.4v-2.3l.5-.2 1.3-.6.2-.3-.1-.5.5-.3v-.6l-.4-.4v-.7l-.2-.5.2-.3.5-.6.2-.3s-.2-.7-.1-.8l.2-.6-.6-1.2.1-1 .2-.4-.1-.6.3-.4V75l.1-.6-.1-.6.1-.3c0-.2.5-.7.6-.8l.6-1.6v-.2l-.4-.5V70l.5-.7-.1-.1h-.2q-.3 0-.3-.3V68l.2-.4.4-2.5v-.5l.3-1v-.3l-.5-.6v-.2l.5-1.1V60l.2-.2 1-.6.3-.4v-.3l-.2-.4.3-.4v-.2l.2-.3.1-.5.4-.9v-.7l.1-.7.7-.8 1.2-.8.3-.6.5-.4v-.5l.6-1v-.7l.1-.6s-.2-.9-.1-1l.5-.3-.1-.6.3-.2.4-.7.8-.7v-.9l.4-.2.2-.3v-.3l.2-.1-.2-.2h-.4V43l-.1-.5.2-.8h.1l.3.1s-.1-.4 0-.4l.2-.1.2-.5v-.4l.4-.2-.2-.3.4-.4.1-.4.5-.1-.3-.4.3-.1v-.4l-.2-.1-.2.1-.1-.3v-.5l.4-.4v-1.1l-.8-1.5.3-1 .1-1-.2-.6v-.6l-.2-.2.2-.6.7-.5.2-.7 1.4-.7.7-.1h.7l.4-.4h.3l.9.3h.3l1.3-.6.2-.3v-.9q0-.2.4-.5l1-.5.5.1.3-.2.9-.3 1.2-1 .2-.8.4-.3-.1-.2q0-.2.2-.3l.2.1h.2l.2-.4h.5l.2-.6h.2v-.3q.1.2.1 0l-.4-.6.4-.2.2-.5-.6-.6V19l.2-.2h.8l.1-.2h.2q-.2-.3 0-.5v.1l.3-.2v-.3h-.1l-.2-.2-.1-.2h-.2l.2-.2v-.6h.2l-.3-.3h.2l-.4-.4.1-.2v-.3h-.5V15l-.2-.2v-.6l-.3-.2v-.8l-1-1.4V11l.3-.3.6-.9.6-.4v-1l.5-.7.1-.4V7l.1-.6.5-.3 1-1.5-.5-.7-.2-.6v-.1l.1-.2v-.7c-.1-.2-.8-.8-.7-1l.2-.2V.8l.2-.2.7-.2.5.1.5-.5L46 .3l-4.9.2-2.8.2h-5L27.8.5h-3.4c-.6 0-5.3-.3-6-.2h-4.3l-3-.2c-.4 0-4.2.3-4.3.2L3.3.4l-.3 1 .4 1V4l-.6.7c-.2 0-.3 1.5-.4 1.6l-.3.5v.6l.9 1c.1 0 .6.7.5 1l-.9 2-.1 1.7.1.2-.3.8v.4l-.2.5v.5l-.2.4v.6l.2.8v.4l.5 1 .6.7s.6.9.5 1v.3l.5 1 .2.6.1 1.6-.1.6L3.3 27l.3 1.7v1l.3.8v1z" data-name="Ñëîé 1" style="fill:#172d35"/></svg>