<?xml version="1.0" encoding="UTF-8"?>
<svg id="Layer_2" data-name="Layer 2" xmlns="http://www.w3.org/2000/svg" viewBox="0 0 56.69 95.24">
  <defs>
    <style>
      .cls-1 {
        fill: #172d35;
      }
    </style>
  </defs>
  <g id="_Ñëîé_1" data-name="Ñëîé 1">
    <path class="cls-1" d="M3.53,32.07c-.07.11-.83.69-.88.75-.05.06-.34.69-.34.69,0,0-.76.69-.81.82-.04.13-.12,1.45-.14,1.51-.03.05-.5.82-.5.82,0,0-.02.92-.04,1.02-.02.09-.85,2.28-.83,2.37.03.09.09.38.09.38,0,0,.48.4.52.46.04.05.3.44.32.57.02.13.03.51.03.63s-.13.77-.13.86.15,1.23.15,1.33-.1.56-.06.68c.04.12.3,1.26.33,1.28.03.02.41.53.41.59s.13.56.13.61-.1.77-.1.82.16.39.14.45c-.02.05-.45.62-.47.71-.02.09-.03.2,0,.27.04.06.85,1.34.9,1.46.04.13.13.66.12.75-.02.09-.51,1.16-.52,1.24,0,.08,0,.57-.05.59-.04.03-.41.37-.48.48-.07.11-.37.9-.44,1.02-.06.12-.25.9-.28.98-.03.08-.45.73-.45.79s-.06.19-.04.32c.02.13.22.75.25.8.03.05-.12.16-.11.21,0,.05.02.27.02.33s-.2.6-.16.7c.04.09.1.25.19.3.09.05.36.35.47.37s.21-.02.28,0c.07.02.33-.34.36-.39.04-.05.03-.63.03-.66s.21-.24.22-.32c0-.08.08-.73.12-.76.04-.03.17-.13.25-.13s1.76-.06,1.77.04c0,.09,0,.47.04.52.05.05.28.33.28.41s.03.38.03.44-.15.59-.11.59.28,0,.35.05c.06.05.77.66.78.69,0,.03.36,1.07.34,1.16-.02.09-.14.5-.15.55,0,.05,0,.09,0,.09l-.34,9.3-.48,13.52s-.19,5.66-.22,5.65c-.04,0-.21-.08-.21,0s0,.74-.04.89c-.04.15-.16.22-.11.36.05.14.44,2.43.44,2.43,0,0,.67.07.71.06.04,0,12.5.41,12.5.41l10.88.35s-.41-.7-.42-.74c0-.04-.14-.7-.2-.79-.06-.09-.43-.33-.43-.33,0,0-.51.28-.5.22,0-.06-.07-.74-.07-.77s-.52-.51-.57-.59c-.05-.08-.28-.59-.29-.62v-.04s-.38-2.1-.39-2.17c0-.06.1-.59.12-.62.02-.04.35-.27.39-.33.04-.06.19-.33.22-.43.04-.1.16-.57.14-.66-.02-.09-.04-.66-.04-.81,0-.16-.14-.48-.14-.52s.05-.24.11-.28c.05-.05.37-.19.45-.24.08-.05,1.29-.53,1.29-.53,0,0,.23-.27.2-.34-.03-.06-.09-.42-.06-.47.03-.05.45-.29.47-.32.02-.03.12-.24.11-.29,0-.05.03-.17-.07-.27-.1-.09-.44-.38-.44-.44,0-.06.05-.62.05-.66s-.2-.48-.19-.55c0-.06.09-.16.14-.25.05-.08.54-.59.56-.61.02-.03.14-.3.14-.35s-.16-.7-.1-.82c.06-.13.21-.58.2-.61,0-.04-.55-1.13-.55-1.18s.11-.95.11-.95c0,0,.19-.37.19-.42s-.16-.48-.12-.56c.04-.07.3-.4.31-.43,0-.03-.08-.46-.06-.59.02-.13.18-.54.18-.64s-.18-.51-.14-.6c.04-.09.04-.19.11-.31.07-.12.52-.65.59-.72.06-.07.57-1.54.57-1.62s0-.07-.05-.23c-.04-.16-.29-.38-.3-.53,0-.15-.02-.21.04-.32.05-.11.5-.66.48-.72-.02-.06-.09-.14-.13-.16-.04-.02-.11,0-.23-.04-.12-.05-.24-.07-.28-.26-.04-.18-.07-.58-.02-.69l.05-.11s.13-.2.18-.35c.04-.15.44-2.46.44-2.51s-.04-.47-.03-.55c.02-.08.28-.81.29-.91,0-.09-.03-.32-.06-.39-.04-.07-.42-.48-.44-.54s-.06-.06,0-.18c.05-.12.52-1.07.52-1.16,0-.09.02-1.19.04-1.24.02-.05,0-.14.13-.21.12-.07,1.06-.62,1.07-.65,0-.03.22-.28.25-.38.03-.1.03-.19,0-.26l-.02-.06s-.19-.27-.14-.35c.04-.07.23-.33.23-.41s-.09-.17-.04-.24c.04-.06.24-.23.28-.3.04-.07.05-.41.1-.52.04-.11.41-.77.41-.83s-.08-.56-.07-.69c0-.14.13-.59.19-.69.05-.09.54-.77.65-.86s1.16-.69,1.21-.76c.04-.07.29-.61.34-.65s.45-.34.47-.38c.02-.05,0-.38.02-.47,0-.09.6-.92.6-1.02s-.13-.68-.12-.7c0-.03.19-.47.19-.6s-.19-.9-.13-.95c.05-.05.49-.32.49-.35s-.11-.65-.11-.65c0,0,.3-.12.36-.18.06-.06.35-.64.41-.7.06-.06.72-.5.76-.63.04-.13,0-.9.04-.94.04-.05.29-.21.37-.25.08-.04.18-.16.19-.27,0-.11-.02-.26,0-.27.03-.02.21-.1.18-.16-.04-.05-.16-.18-.2-.18s-.39.05-.41.02c-.02-.04,0-.47,0-.54,0-.07-.13-.27-.1-.41.04-.14.28-.77.28-.8,0-.03.04-.07.11-.04.06.04.29.16.28.11-.02-.06-.16-.38-.12-.41.04-.04.1-.1.14-.09.04,0,.17,0,.19-.03.02-.03.2-.34.21-.48.02-.15-.14-.32-.09-.37.05-.05.4-.21.4-.27s-.15-.27-.12-.31c.04-.04.33-.27.36-.36.04-.08.08-.32.15-.37.07-.05.42-.13.41-.16,0-.04-.3-.28-.24-.33.06-.05.29-.14.31-.18.02-.05.06-.3.04-.36-.03-.05-.23-.12-.23-.12,0,0-.22.24-.24.15-.02-.09-.13-.27-.12-.38s0-.37.04-.44c.05-.07.42-.29.43-.4,0-.11-.12-.6-.14-.69-.02-.08,0-.38,0-.44s-.76-1.43-.75-1.53c.02-.1.31-.94.33-1.01s.18-.91.15-1.03c-.03-.12-.21-.44-.21-.51s0-.58,0-.58c0,0-.19-.18-.18-.24,0-.05.13-.5.2-.57.06-.06.61-.48.66-.56.04-.07.18-.61.23-.69.05-.07,1.3-.63,1.4-.67.11-.04.56-.14.63-.14s.73,0,.76-.03c.03-.04.26-.28.34-.31.08-.03.27-.06.36-.06s.76.3.83.32c.06.02.12.11.37,0,.26-.11,1.21-.53,1.29-.59.08-.06.21-.24.22-.31,0-.07,0-.75.02-.86.03-.11.04-.36.34-.5.29-.15.99-.52,1.06-.52s.4.19.49.14c.09-.05.23-.27.3-.28.07,0,.7-.14.82-.21.12-.07,1.24-1.02,1.25-1.08.02-.06.11-.71.21-.79s.42-.25.42-.27-.2-.16-.19-.24c0-.08.13-.24.2-.26.06-.02.11-.05.12,0,0,.05.11.13.14.12.04,0,.11,0,.15-.06,0,0,.15-.32.19-.33.04,0,.52-.06.55-.12s.19-.49.19-.49c0,0,.21-.03.21-.05s-.14-.24-.07-.24.22.16.2.04c-.02-.12-.41-.66-.39-.69.02-.03.31-.15.36-.18.05-.04.21-.43.19-.47-.03-.04-.52-.58-.55-.68-.03-.1-.1-.25-.06-.32.04-.07.12-.16.24-.19s.73,0,.75-.02l.02-.03.12-.22s.18,0,.17-.05c0-.06-.15-.42-.07-.41.08,0,.13.12.16.1.03-.02.25-.19.25-.19l-.04-.37-.12.05-.12-.2-.12.07-.04-.23s-.32,0-.22-.07c.1-.08.2-.1.24-.22.04-.12-.02-.57,0-.59.02-.03.18,0,.17-.04,0-.03-.3-.18-.27-.2s.25-.05.22-.1c-.03-.05-.4-.23-.39-.29,0-.06.09-.19.11-.23.02-.04-.13-.34-.13-.34l-.43-.04s.11-.14.06-.17c-.04-.04-.27-.07-.27-.12s.05-.62.03-.64c-.03-.02-.3-.14-.3-.21s-.04-.7-.09-.76c-.04-.06-.85-1.4-.86-1.43s-.15-.8-.15-.8c0,0,.36-.25.39-.29.03-.05.54-.81.64-.89.1-.07.52-.42.53-.46.02-.04.12-.6.12-.63s-.08-.42-.08-.45.51-.57.53-.63c.03-.06.09-.29.08-.41,0-.12-.1-.26-.08-.36.02-.1.05-.49.18-.57.12-.07.44-.26.49-.33.05-.07.95-1.43.96-1.49,0-.06-.38-.64-.43-.73-.04-.09-.21-.46-.21-.51s.03-.13.05-.16c.03-.03.06-.14.06-.23s0-.45-.08-.64c-.09-.19-.78-.84-.69-.94.09-.1.19-.18.2-.23.02-.05,0-.3.03-.38.03-.07.12-.18.22-.21.1-.03.63-.21.67-.2.04,0,.45.23.55.15.1-.08.44-.48.44-.48,0,0-10.17.26-10.78.29-.6.04-4.77.15-4.87.18l-.11.04s-2.38.18-2.74.18-4.3.04-4.91,0l-5.66-.18s-1.03.04-1.49.04-1.28-.17-1.85-.19c-.57-.03-5.26-.25-5.9-.17-.64.07-3.73-.04-4.34,0-.6.04-2.63-.26-3.06-.18s-4.2.22-4.3.18c-.11-.04-3.45.17-3.45.17,0,0-.32.93-.32,1.04s.43.73.43.91-.11,1.68-.11,1.79-.39.55-.53.66c-.14.11-.25,1.5-.36,1.61s-.28.4-.28.55-.25.37,0,.59c.25.22.75.8.85.88.11.07.6.8.5,1.02-.11.22-.85,1.98-.85,1.98l-.18,1.76s.17.19.16.22c0,.03-.29.74-.3.81,0,.07,0,.37,0,.42s-.15.34-.21.46c-.06.12-.06.34-.07.4,0,.06.04.06,0,.16-.04.1-.17.26-.17.32s-.02.51,0,.61c.02.1.26.71.26.8s-.1.29-.06.38c.04.08.44,1.05.5,1.12.05.06.6.58.62.62.02.05.56.87.55.92,0,.05-.04.22,0,.34.05.12.47.96.47,1.03s.15.33.17.57c.02.24.11,1.6.11,1.69s-.11.45-.12.57c-.02.12-1.1,2.51-1.1,2.51,0,0,.3,1.52.33,1.68.03.16.04.86.06.91.03.06.23.78.26.85.03.07-.09,1.09-.09,1.09-.05.11-.14.32-.21.43Z"/>
  </g>
</svg>