<svg xmlns="http://www.w3.org/2000/svg" id="Layer_2" data-name="Layer 2" viewBox="0 0 115.2 76.2"><defs><style>.cls-1{fill:#172d35}</style></defs><g id="_Ñëîé_1" data-name="Ñëîé 1"><path d="m0 17.4.3.6v.3l.2.3v2.5l.3.5-.1.3h.1v.4l.3.3v.6l.3.5v.3l.4-.2.2.3h.2v.5l.3.1v.1h.2l.2.3H3l.2 1v.2h.3l.5.8.8 4 .1 1.4v2l.1.1v.6q0 .3.2.3l.6.3h-.4l.3.8v.2l.3-.1.2.2.7 3 .2 2.8-.1 1.9v.4l.2-.1-.1-.2v-.1l.5-.1v-1l-.3-.6.3-.3.4-.1h.6l.5.4.1.4h.2l-.2.4.3.2h1.3l-.5.3h1.4l.1.2.5-.1-.2.2-.5.1-.2.2-1.3.4h-.5l-.1.4h.2v.3l-.2-.2h-.1l-.1-.1-.5.1-.2.6-.2.1.2.1.3-.2h.3H9l-.1.2.4.4-.2.3-.3-.6h-.1l-.3.4v-.3l.1-.1h-.1v-.2h-.2L8 46l.1-.4-.2-.1v-.2l-.2.2h-.3l.6 1.7v2.2l.8.4.1-.2h-.1.3l.4.2.4.3V50l-.3-.2h.3l-.2-.3h.1v-.2l.6.3h.3v-.4l.4-.1v.3h.1l.1.1.6.3-.1.1.2.2h-.1.2v.1l.1.3.1.3.4-.1h.2l-.6.3s-.1-.6-.3-.6q-.1-.3-.3-.3l-1 .5-.2.3v.4l-.2.1v.2l.4.1h-.3l.3.3v.3h.3v.2h-.3V52q-.4 0-.4-.2l-.4-.5.2.9.3.3.1.5.4.4v.7l-.2.1v.2l-.1-.3-.2.2v.3l-.3.1v.5l.3.2.3.5.7.3.2.6v.2l-.2-.6-.5-.3-.6-.2v-.4l-.1-.1v.5l.1.3-.4.5v.6l-.3-.2h-.4l-.3-.1-.1-2.6.2-.3v-1.4l-.4-1.2.1-.2v.3l.2-.1-.2-.3h-.2l-.1.6v5.8l-.2 1-.2.2.1.1-.3.4v.3l.5-.3.2.3v-.3l-.1-.2v-.3l.4-.3h.1l.7.3v.3l.4.5q.1.4.4.4l.5.2.6-.4v-.2h.3l.2-.3.5.2h.2c.2 0 .1-.4.2-.3h.2l.1-.1.1-.1.1-.2.2.1h.2c.1 0-.2 0 0 .2l.1.3v.2l.2.2 1.2.2 1.2-.3.6.2c.2 0 .5.5.5.6l.2.5 1.3 1.2.8.3.7-.5.8-.3h.8l1 .6.3.5h.4l.8 1h.3l.5.1.3.4v.7c0 .3.4 1.3.6 1.5s.7.6.6.7l-.2.4v.4l.2.9v1.3l.3 1v.8l-.2 1 .1.4.2.3.5.3c.2 0 .6.5.8.6h.7l2.6 1 .8-.3v.2h.5l.4.4h1.6l.7-.3.5-.3 1.1-.2.6-.3.2-.2.7-.1.2-.3h.3l.4-.2.2-.5.4-.3.8-.3 1.6.3.7-.3h.5l1.4-.4.6.1 1.2.7.8-.3h1q.1.3.4.5l.8.2q.2 0 .3.4l.2 1 .3.1s.5 0 .6-.2l.5-.6.5-.3h.8l.4.2.6-.3.5.4h.2c0-.1.5-.6.7-.6l2.4-1 .6-.5.8-.2.5.1.6.7.6.4 2.3-.3.7-.3h1l.3-.2.4-.6.8-.4 1.1-.4 1.1-.7h1l1.2-.5 2.3-.3c.2 0 1-1.2 1-1.2l.5-.2.7.4h.4l.8-.3 1.2-.1 1-.3h.8l1 .2.9-.1 1.2-.6c0-.1.5-.8.7-.8l17.7-.3 13.4-.4-.6-1.5-.3-.2-.2-.2v-.1l.3-.3.5-1.5-.7-.7V60l-.4-.4v-.4l-.4-.4-.2-.5-.3-.2-.2-.3.4-1.2-.1-.3-.7-18.6-.7-22.3L111 0 95 .4 71.7.7H46.5L29.2.1v.4l.3.2V1l-.2.1-.5-.2V.7l.2-.2V.3l-.7.8v.3l.3.3.4-.2.2.2v.4l-.4.4h-.2l1 1.1.1 1.4h.2v-.4h.3l.1.3.3.1-.4 1.1h.2l.1.4.8-1.2h.2l.3-.2.4.1.4.4.3.1V6l-.5.7.2.5V7l.1.1v.7l-.2-.1.5.8.4.3.3.5-.2.5-.4.3.1.1-.4-.2-.1-.3H32l-.3-.3v.3h.1l.7.3v.5l.2.4h.2l-.2.2v.3l.3.5-.1.4h-.2v.1l-.3-.2h-.3l-.2-.4-.2-.4-.4.2.1.6h-.1l-.1-.5v-.5l-.2-.4-1 .4h-.1l-.3.2v.1h.3l.4.5v.4l-.4.2v.4l.2.2h.2v.1h.5l.1-.2.4-.2v-.3h.3l.2-.2-.2.7h-.2l.2.1v.3l.3.3v.3h.4V14h.3v.2l-.2.1-.1.2h.1l.1-.1.7.6.6.3.1.3h.2v.2h.1l-.2.1v.1l.4-.1-.4.5v.3l-.1-.2-.1.5-1-.6-.1.4H32l-.1.4v1.1l.2 1 .4.4.4-.2.3.5.2.1.4.4.2.5.1.2h.3l-.3-.8-.7-.7-.2-.1-.5-1V18l.3-.1.3-.4-.2-.4h.3l.1.1h.5v.1l.2-.2v.2l.2.2v.6l-.1.5v.6l.3.9.2.1.5.7h.3v.2l-.2-.1.7.6h.2l.2-.4.1.3h.4l.1.1H37v.2l-.2-.2h-.2v.5h-.2v.5s0-.2 0 0v.2l-.2.2-1 .4-.1.5-.3.6v1l-1 1v.6l.2.4v1.1s-.4.2-.4.4v.4l-.4.3.3.4.6.4.4.4v.9l.1.5.5.7H35l-.2-.3-.3-.4-.2-.6-.4-.6s-.6.3-.5.5l.2.4v.9l.6.7-.2.3v.2l-.1.2.4.2v.6l.3.3v1.2l-.7.3v.1h-.2l-.2.1-.4.1v.2h-.2v.2l.3.1.4.3h-.3l.3.3-.4-.2v.2q0 .1-.1 0h-.3l-.5-.4-.4-.5v.1l-.5-.4.2.9-.6 1-.3 1-.4.4-.1.4-.2.3h-.3l-.4.8h-.6l-.2.4v-.5l-.3-.2-.1-.2-.4-.2v-.5h-.2v-.2h-.1l-.1-.4v.2l-.2.8.1.8-.3-.7h-.2l.1-.2h.2v-.5h-.3v.2h-.1l-.4.2H26l.1.6-.2.9h.3l-.1.2v.3l-.2-.1v.3l-.2-.7-.2-.1.2-.7v-.7l-.2.5v.2l-.2.3-.4.3-.4.3v.2l.2.1v.6-.4l-.4-.4v-.2l.4-.2.1-.3v-.1h.4v-.6l.3-.3v-.3l.1.2.2-.3v-.2l-.3-.2v.1l-.6.8v-.2h-.3v.3l-.2.4-.4.2h-.3l-.3.3v-.3l.4-.3.5-.1v-.6h-.5l-.3.5-.1-.2.3-.3.6-.1.2.1.2-.3.5-.1.3-.5v-.2l-.8.1-.2-.2-.7.1-.3-.2h-.3l.2-.1.7-.8.3-.1-.4.5.2.3-.2-.1-.4.3h1l.2.2.4-.1h.4v-.9h.1l.1-1 .1.2.8-.3V37l.1.3.2-.2.3-.7V36H27l.1-.5v-.2h.1l.1.3v.8l.4-.1v.3l.3.3h-.3l-.1.6.1-.1-.2.5-.3.3-.2.7.1.3.3.2v.4l.2.4.2-.1v.5l.2-.1.3-.6h-.2v-.6.3l.4-.2v-.6h-.2v-.4l-.2.2v-.3H28l.3-.3.4-1h-.2v-.4l.2.2h.2l.2-.3V36l.1.2.8-.5v-.3l.1-.3v.9l-.6.6.2.1v.3h-.3l.1-.1q0-.1-.1 0l-.3.4.2.3-.1.2h-.1v.2l.2-.2.8.4h.3l-.2-.7.4.5-.1.3.2.3.5-.6-.5-1.2.2.1.3-.7.2-.3-.2-.4.2-.4-.2-.3h.3l.1-1 .5-.8-.7-.1.1-.5V32l.1-.2h-.3l.1-.3-.1-.2-.3.1-.5.8-.6.2h-.2l-.1.1-.4.1.3-.2.2-.3.4-.2.1-.2v-.2h-.3v-.2l-.2.1-.2-.3v.1l.1.5-.3-.3v-.5h-.2v-.7l.3-.2.3.1-.2.4.3.2v.5l.6.6h.1l.3-.7-.2-.2.2-.6-.4-.3v-1l.1-.2h-.3v.1-.3h-.1l-.3-.4s.1-.5.2-.4l.3.7v.1h.2l.1.3.2.2.5-.7.1-.4-.1-.3v-.3l.1.2.1.3h1V27H32l.3-.3v-.3l-.3-.3v-1l-.3-.5v-.3L31 24l-.2-.4h-.1v.3l.2.1.3.4H31l.3.8v1l-.1.1-.2-.2.1-.7h-.3l-.3.5-.9.7v.5q-.4 0-.5.3l-.1.6h-.2l-.2.4v.5l-.1.7h-.3v.3l-.2-.1-.6.4v-.4l-.2.1-.4.4-.7.3v.4l-.3.2h-.4v.4l-1 1v.7l-.9 1-.5 1.1.1.4.8.1.2-.2v.2H24l.3.3.3-.5.6-.3 1-.4v-.2h.3l.6-.5v.4l-1 .9s-1 0-1 .2c-.2 0-.8.5-.8.5h-.7l-.4-.1v.3l-.3.1-.5-.3V36h.1s.4-1.6.7-1.9l.8-1 .1-.6.2-.5.3-.2.6-1.2.6-.3.1-.4h.4v-.3H26l.5-.6-.1-.3h.1l.2-.5v-.3h.2v.2h.1v-.6l-.2-.2v-.9l.1-.3h.1l.1.3.1.7h.3V26l.2-.6-.1-.2.2.2v.3h-.1l.3.7-.1.6-.3.7v.6l-.2.2v.5h.3v.2l.4-.1-.1-.4v-.5l.2-.3h.2l.1-.7v-.5l.2-.3h.2l.6-.4-.2-.8h.9l.1-.2-.1-.2h.1l.2.3v-.3l-.4-.1-.2-.3v-.6l-.3.4v-1l-.1.2v-.2l.2-.2h-.1l-.3-.2-.1-.1-.2-.9h-.1v-.2l.6.5h.2V21l-.2-.8v-.4l-.3.1-.3.1-.1.2.3-.1.3.7h.1v.2h-.2l.2.4-.1.3-.4-1.5-.2.1v1.1h-.2l-.2-.5v-.2l-.4-.5.1-.3.6-.4-.2-.4.1-.2-1.2.1-.7.7.1.3-.1.3.4.3.4.5q.2.4-.1.7l-.2.3-.5.1.3-.4v-.5l-.2-.4-.6-.2-.1-.2.1-.6h-.9l-.8.3h.3l.2.4-.1.1.1.5-.1.2-.5-.8v-.4l-.1-.1V20l-.2-.7-.8-.7v.1h-.9l.6-.5v.3l.2-.3.4-.2-.7.2-.7.8-.8.5-.6-.2-.3.2h-1l-1-.4V19h.2l.5-.1h-.6s-.9.2-1 .1l-.4-.4H17l-.6.3H16l-.2-.2v-.2l-.3-.1-.6-.3-.3.3-.1-.2-.7.2h-.7V18l-.7.1-1-.1v-.2h-.6l-1-.2v-.3L9 17v-.3l.1.2v-.3l-.5-.2-1.3-.8-.2-.1-.3.2h-.4l-.2-.4-.5-.1-.1-.3h-.7l-.2-.3-.3-.1-1-.8-.5-.2-.3-.5h-.4s-.4.1-.4 0l-.2-.5h-1l-.2-.1-.2.2v.3h.2l.1.3.3.4h.3v.3H1l.1.2v.3l-.3.2v.8l-.4.3.2.5-.2.6zM25.3.7l-.1-.5-.8-.1.1.8.5-.2z" class="cls-1"/><path d="M26.7 5.3h.6l-.4-.1zm-1.2 1.2-.1-.3-.5.2-.1.1-.3.1.4.3v.3l.4-.3v-.3zM23 7l-.2.2-.3-.2H22l.3.4.5.2v-.2l-.3-.2.5.3v-.2zm.2.2.3.3-.2-.3zM27 5.8v-.2zh.3l-.2-.2-.5-.1.2.2zm-3.8 1.9.8.3-.2-.2zm-.3.6-.4.6v.3l.2-.3v.3h.2v-.3l.1-.2h-.2l.1-.2z" class="cls-1"/><path d="M23 9.4v.3l.1.4v.2l.3.7.5.3v.2h.4v-.2h.2l-.1.2.1.2.3.3 1.1.2V12l-.1-.1v.2h-.3l-.2-.3v-.2l-.3-.3s.1-.6.2-.5l.5.1.2-.3h-.5l-.2-.2.1-.2v-.3l-.6-.3-.4-.5H24v-.7l-.5.1h-.2v.2l-.2.1V9l.3-.3V9h-.2l.1.3-.2-.1V9q-.2 0-.1.2zh.2v.1zm2-.9-.3-.1v.2h.2v-.1" class="cls-1"/><path d="m25.3 7.7-.3.4v.3q0 .2.2.3l.2-.4v.3q.2 0 0 .2V9h.2v-.2h.2v-.3l-.2-.1V8l.3.2h.1l.2.2-.1.3V9h.3q-.2 0 0 .1h.6l.3-.1v-.3l-.1-.3L27 8l-.4-.3v-.6l.1-.3.1.2v-.2q.1-.1.2.1l.2 1.1.3.4.1.1h.2V9l.2-.2.2.1-.1-.3.2-.3.4-.2.4-.4-2-1.2-.3-.1h-.7V7H26q.2 0 0 .1z" class="cls-1"/><path d="M26.3 9.2h-.4V9l-.5.2h-.2v.1h.3l.3.5q-.1-.1-.2 0l.1.2h.2v.1h.3v-.2H26l.5-.1.2-.5zv.2h-.2v-.2Zm1.8 1.3.6-.6-.2-.4-.3-.2-.3.1v.5l.1.1v.1zm-1.6.1-.3.6v.9h.3l.2.2.2-.1v.1l.4.1v.2l-.2-.1-.2.1.2.1-.2.2h.6l-.2-.2.3.1v-.1h.2l.1.2q.3 0 .2-.1l-.2-.1.2-.3-.1-.2v-.5l-.3.2.1.2-.3.3h-.1l.2-.4-.2.1h-.1l.2-.5-.4-.5.4-.9h-.3V10h-.1v-.4h-.2v.3l-.4.2c-.2.2.1.8.1.8l-.3.2.2-.3z" class="cls-1"/><path d="m28 10.7-.1.2h-.2l.3.3-.1.3.6-.6h-.2l.2-.3zm2.8-3.4-.3-.3-.2-.2-.2-.3-.2-.5-.3-.2-.1.5.1.2h.2l.2.2.2.7.9.8-.1-.7h-.1zm-.3-.7.4.5.3-.2v-.3l-.4-.2.2.2v.2zm1 1.5-.1-.2V8zm-1.2.5-.2-.2-.3.1v.2l.5.2zm-.4.6V9l-.1-.1h-.3l-.3.5v.2l.3.3v.4h.4V10h-.2l.5-.4zm.5 1.4h.3l.5-.2.4.2-.2-.5-.4-.2-.3-.6h-.3l.1.5-.2.4zm-.5.9h-.4v.2h.4zm-.3.4h-.1l.2.3v-.1zm.6 1.5v.6l-1.5 2.6-.1.7.5.5.5.4.2.5s.5-.2.6-.1l.4.3.1.8-.2.8.2.7-.1.3.4.5.4.2v.6l.1.2.3-.1.2-.3c.2-.3.4 0 .4 0s.5.4.5.6v.5l.2.5h.3l.4.2V24l.4-.4v-1l-.2-.4v-.7h-.5L33 21l-.6-1H32l.1.6v1.1l-.4.1v-1.3l-.4-.6.2-.4L31 18q0-.2-.3-.5l-.6-.4-1 .2-.2-.2.4-.2.7-.1.1-.3V16l.1-.2h.2v.2h-.2l.3.3s0-.5.2-.6h.4q.3 0 .3.2v.4l.1-.3h.4q.2 0 .3-.3 0-.6-.2-.7l-.6-.5-.4-.1.2-.5v-.4h-.1l-.2-.4-.3.3h-.2v-.1zm-4.1 5.7-.2.3h.4l.2-.1zm9 2.9-.2-.2h-.1v.3l.4.1zm-4 7.6-.1-.2-.2.2v.3h.3l-.2.3v.9h.2l.2-.1.2.2.2.3h.4l.3-.1-.7-.3h.4v-.4h-.3l-.3-.2h.6v-.2l-.3-.4.3-.2-.2-.2v-.8h-.2l-.1.2-.2.1.2-.3-.2-.3-.3.3v.5l.2.3zm1.2 2.8-.4-.2.1.3zm-.6 4.5h.2q0 .1.1 0l.1-1 .5-.2v-.2h-.2l.3-.1.2.3-.3.3h-.2l-.1.3v.3h.4l.2-.5.8-.4-.2-.2-.6-.2V35l-.1-.5V34l-.2-.4V33h-.3v.6l-.5.5v1l-.3.3.1.4c0 .1-.1.7 0 .8zm-1.3 2.5.1-.5h-.2l-.3-.6h-.3l-.1-.3h-.2v.3l.7 1zm-.7.1h-.3l-.1-.3-.2-.2H29l-.4.6s.7.4.8.3h.3zm-1.4 1.3.3.6h.3l-.2-.6.1.2h.1l.3.1-.1-.3.1-.1v-.4l-.4-.2-.3.2v.4zm1.6-.3-.1.2v.3-.2zM27 38l-.1.4.1.1.2-.3z" class="cls-1"/><path d="m26.2 37.8-.4.1-.1 1 .5.7.1.9.3-.2.3-.7-.2-.7-.2-.2v-.8l.4-.5-.6.4v.1z" class="cls-1"/><path d="M25.7 39.2V39v.7h.1v.2l.3.5v-.2L26 40l.2-.2zM9.3 55.6l.4.4v.5h.2l.2-.2-.2-.4v-.7l-.5-.2v-.2s.2.3.3.1l-.2-.4-.2.3v.7Zm8.9 6.9.5.1.2-.2h-.1q-.1-.3-.5-.6l-.7-.5v.6zm7.5 1.9-.3-.2.3.6zm1 2.8.1.2.1-.2zm5.9 8.5-.1-.1H32l.4.1zm1.8.5-.7-.1z" class="cls-1"/></g></svg>