<?xml version="1.0" encoding="UTF-8"?>
<svg id="Layer_2" data-name="Layer 2" xmlns="http://www.w3.org/2000/svg" viewBox="0 0 115.15 76.2">
  <defs>
    <style>
      .cls-1 {
        fill: #172d35;
      }
    </style>
  </defs>
  <g id="_Ñëîé_1" data-name="Ñëîé 1">
    <g>
      <path class="cls-1" d="M0,17.44s.27.53.25.58c-.02.05-.06.23-.03.28.03.05.27.13.28.34.01.21.07.25.06.35-.01.1-.14.35-.13.45.01.09.15.49.16.74.01.25-.01.85,0,.91.01.06.18.39.16.47-.02.07-.1.31-.1.31,0,0,.16.01.17.12,0,.11.02.32.02.32,0,0,.24.09.25.26.01.17-.04.63-.03.66.01.03.36.45.38.51.02.06.03.24.03.24,0,0,.25-.2.3-.16.05.04.26.24.26.24,0,0,.16-.05.16.03s.08.55.08.55c0,0,.22.04.22.07v.13s.17-.02.2.04c.03.06.14.24.18.26.04.02.22-.01.24.04.02.05.22.9.22.9,0,0-.14.22-.1.24.04.02.3-.03.39.07s.46.63.47.73c0,.09.76,3.72.76,3.89s.15,1.32.16,1.53c.01.22-.01,1.85.01,1.89.02.03.11.11.12.17,0,.05-.01.44-.01.57s.09.32.12.34c.03.02.66.27.66.27v.1l-.39-.1s.23.73.24.79c.01.06.13.19.13.19,0,0,.15-.06.18-.06s.17.16.22.23c.05.07.58,2.35.67,2.98.08.63.25,2.35.21,2.78-.04.42-.09,1.69-.1,1.88-.01.19-.08.49-.05.47.03-.02.28-.1.27-.15-.01-.04-.11-.15-.11-.18s.01-.1.09-.12c.08-.02.39-.1.39-.1,0,0-.02-.97-.05-1.06-.03-.08-.24-.49-.18-.55.06-.06.26-.33.26-.33,0,0,.21-.17.39-.09.18.07.55.1.65.13.1.03.5.25.5.28s.07.4.07.4c0,0,.17.08.17.11s-.21.25-.19.28c.02.03.31.27.31.27,0,0,.65.01.74.03.08.02.52.03.52.03,0,0-.58.19-.49.22.09.03.64-.08.68-.07.04.01.21.12.21.12l.52.02s.14.17.17.15c.03-.02.49-.13.49-.13,0,0-.17.2-.21.23-.04.03-.54.11-.54.11l-.21.19s-1.22.4-1.3.41c-.08.01-.47-.04-.47-.04l-.14.41.19.04.02.21s-.1-.17-.14-.18c-.04-.01-.13-.01-.13-.01,0,0-.04-.08-.11-.08s-.47.1-.48.13c0,.03-.23.52-.24.55-.01.03-.15.18-.15.18l.16.05.32-.23.3.07-.32.02s-.09.11-.08.13c0,.02.41.3.39.4s-.17.31-.17.31c0,0-.25-.58-.28-.59-.03-.01-.17-.05-.17-.01s-.29.37-.29.37l-.05-.25.16-.02.03-.11-.12-.04-.04-.13s-.07.11-.14.02c-.07-.09-.15-.41-.18-.42-.03-.01.03-.03.05-.06.02-.03.05-.38.05-.38,0,0-.24-.04-.25-.08-.01-.04.01-.17.01-.17,0,0-.06-.04-.09-.01-.03.03-.08.23-.13.22h-.05s-.23-.1-.21-.04c.02.06.53,1.54.51,1.72-.02.18,0,2.17.02,2.2.01.03.77.34.77.34l.09-.18-.16-.07h.36s.34.34.34.34l.45.21.07-.1s-.38-.18-.35-.18.23-.01.23-.01c0,0-.26-.24-.2-.23.06.01.18.08.18.03s-.06-.34,0-.3c.06.04.55.31.55.31,0,0,.36.05.36-.02s0-.26.03-.32c.03-.06.34-.19.34-.16s.01.27.01.27l.11-.03s.04.16.11.2c.07.04.56.27.56.27,0,0-.2.09-.15.12.05.03.24.16.21.15-.03-.01-.07,0-.07,0l.18.07s-.09.03-.04.11c.05.08.15.24.17.3.02.06.09.3.12.3s.37-.18.37-.18l.22.06-.64.27s-.12-.56-.31-.63c-.19-.07-.08-.34-.29-.24-.21.1-.99.4-1.04.51-.05.1-.16.12-.13.27.03.15.07.32.06.35,0,.03-.29.12-.29.16s.06.16.09.18c.03.02.29.12.29.12,0,0-.31.02-.28.04l.03.02s.27.18.3.22c.03.04.04.25.07.27.03.02.22.02.22.05s-.08.18-.08.18h-.2s.01-.32-.09-.39c-.1-.07-.32-.07-.36-.16-.04-.08-.34-.57-.32-.5.02.07.06.73.15.84.09.11.3.22.33.33.03.11.03.36.1.46.07.09.37.39.37.45s-.06.48-.05.51c.01.03.13.16.11.21-.02.05-.21.1-.21.1l.04.15s-.17-.35-.22-.29c-.05.06-.13.12-.15.22-.02.09,0,.23-.03.25-.03.02-.3.05-.3.13s.06.41.08.46c.02.04.19.1.29.21.1.1.25.52.25.52,0,0,.65.29.7.35.04.06.21.52.21.52l-.04.23s-.14-.61-.21-.63c-.07-.02-.26-.2-.42-.24-.16-.04-.62-.16-.62-.19s.02-.44.02-.44c0,0-.16-.18-.17-.09,0,.08.04.41.04.51s.1.23.11.26c0,.03-.36.39-.37.48-.01.08-.02.65-.02.65,0,0-.25-.21-.29-.21s-.44.1-.44.1c0,0-.25-.17-.26-.2-.01-.03-.14-2.54-.14-2.57s.18-.26.18-.33.01-1.39.01-1.39l-.37-1.22.08-.19.05.3s.22-.05.18-.13c-.04-.08-.18-.25-.18-.25,0,0-.21-.09-.28.02-.07.11-.1.38-.1.53s.04,3.88.03,4.04c-.01.17-.02,1.55-.06,1.82-.04.27-.1.96-.11,1.01s-.25.19-.25.19c0,0,.15.03.12.11-.03.08-.29.38-.29.41s.07.22.07.22l.4-.29.24.29s.08-.22.07-.25c-.01-.03-.21-.21-.21-.21,0,0-.05-.25.01-.29l.06-.04s.35-.24.4-.24h.05s.65.21.67.3c.01.09-.02.24.02.27.04.03.21.28.37.5.16.22.21.37.41.38.2.01.45.22.57.19s.52-.39.52-.39c0,0,0-.17.05-.18.05-.01.26.01.29,0,.03-.01.2-.34.23-.32.03.02.34.23.43.25.09.02.08.08.2,0s.19-.4.22-.38c.03.02.23.15.26.09.03-.05.03-.16.08-.19s.05-.04.12-.09c.07-.05.04-.21.07-.19.03.02.12.17.17.15.05-.02.25-.13.25-.1s-.18.06-.05.27c.13.21.13.22.13.3s-.02.19,0,.25c.03.06.13.12.19.16.06.03,1.17.21,1.2.21s1.12-.25,1.22-.26c.1-.01.49.05.63.11.14.06.45.51.49.62.04.11.08.36.14.51.06.14,1.22,1.2,1.28,1.24.06.04.7.25.8.23.1-.02.63-.39.74-.44.1-.04.64-.3.77-.32.12-.02.73-.02.8.02.07.04,1.09.56,1.11.59.02.03.16.42.22.47.06.04.27.04.37.1.1.06.74.79.84.84.1.05.3.09.34.09s.41.08.47.13c.06.05.3.23.31.38.01.16.07.34.04.44-.03.09-.08,0-.12.26-.04.26.43,1.27.62,1.49.19.22.73.56.65.65-.07.09-.2.35-.22.46-.02.1-.08.3-.07.42.01.12.3.76.32.82.02.06-.16,1.22-.14,1.36.02.13.36.87.37.92.01.05.07.57.04.9-.03.33-.2.88-.2.93s.04.3.13.46c.09.16.11.15.2.29.09.15.34.21.49.27.15.06.52.49.74.58.21.09.32.13.37.12.05-.01.21-.12.34-.07.13.05,2.62.89,2.62.89l.8-.17s-.16.15-.1.17c.06.02.51.01.62.06.11.05.31.31.39.31s.74.08.82.08.67-.01.79-.06c.11-.05.64-.26.69-.29.04-.03.35-.24.45-.28.1-.04.93-.25,1.16-.27s.44-.2.55-.25c.11-.05.18-.24.24-.26.06-.02.58-.06.64-.08.06-.02.26-.3.26-.3,0,0,.16.02.33-.01.17-.03.39-.2.39-.2,0,0,.08-.46.14-.49s.34-.22.46-.27c.12-.05.64-.35.77-.35s1.51.3,1.63.3.56-.25.64-.25.42-.02.53-.03c.11-.01,1.32-.33,1.44-.36.12-.03.46.07.58.11.12.04,1.07.67,1.22.63.15-.04.75-.25.8-.25s.73.02.86.09c.13.07.36.32.51.41.15.09.74.13.79.21.05.07.28.15.33.4.05.26.12.92.19.98s.14.13.24.11c.1-.02.56-.07.67-.2.11-.12.39-.5.47-.59.08-.09.31-.3.46-.33.15-.03.78-.01.85-.01s.35.22.41.21c.06-.01.5-.31.57-.24.07.07.38.34.46.34s.16-.01.24-.06c.08-.05.51-.5.67-.57.15-.07,2.29-.85,2.45-.95.16-.1.49-.52.62-.55.13-.03.59-.16.72-.13.12.02.42.02.51.09s.59.62.66.68c.07.06.55.39.62.39s2.19-.32,2.23-.32.62-.25.73-.25.96-.08,1.02-.08.23-.05.26-.1c.03-.05.45-.64.46-.67.01-.03.69-.35.73-.38.04-.03,1.03-.34,1.13-.36.1-.02,1.14-.74,1.14-.74,0,0,.87.07.97,0,.1-.07,1.05-.41,1.15-.45.1-.03,2.16-.24,2.35-.29.19-.05.93-1.2.96-1.24.03-.04.45-.21.55-.19.1.02.59.34.71.37.11.03.26.06.36.03.1-.03.75-.3.83-.3s1.08-.13,1.2-.13.94-.31,1.02-.31.63-.01.76,0c.12.01.94.24.97.25.03.01,1.08-.27,1.15-.3.07-.03,1.17-.6,1.21-.66.04-.06.51-.74.63-.79.12-.05,17.7-.29,17.7-.29l13.39-.36s-.54-1.44-.56-1.48c-.02-.04-.29-.19-.32-.22-.03-.03-.14-.1-.17-.18-.03-.07-.05-.15-.03-.19.02-.04.34-.22.37-.3.03-.08.45-1.31.42-1.41-.03-.1-.66-.69-.66-.77s.07-.78.07-.78c0,0-.14-.37-.17-.41-.03-.04-.31-.37-.31-.4s.05-.36.04-.39c-.01-.03-.45-.39-.47-.44-.02-.04-.07-.36-.13-.43-.06-.06-.34-.22-.38-.26-.04-.04-.2-.17-.19-.24.01-.07.39-1.16.39-1.21s-.08-.31-.09-.36c0-.05-.65-18.58-.65-18.58l-.73-22.28-.35-15.51-16.11.44-23.27.28-25.3-.09L29.23.22s.03.23.06.33c.03.1.23.19.23.23s.01.21-.01.25c-.02.04-.19.11-.19.11l-.54-.26-.06-.19.24-.18-.03-.18s-.63.76-.64.8c0,.04-.11.23-.07.28.04.05.34.29.37.29s.38-.27.41-.23c.03.04.21.09.22.23,0,.13.08.39.05.42-.03.03-.39.35-.46.36-.07.01-.27,0-.23.05.04.05,1.1,1.03,1.1,1.07s-.1,1.43.06,1.37c.16-.06.15-.01.16-.06.01-.05-.06-.3-.06-.3,0,0,.32-.03.34,0s.16.3.16.3l.3.13-.43,1.1h.18s.13.35.16.35.77-1.21.77-1.21c0,0,.14.02.21.01.07-.01.23-.19.23-.19,0,0,.34.05.44.12.1.07.38.41.38.41,0,0,.27.02.29.09.02.07.04.23.04.23l-.47.66.13.52.07-.2s.1.03.1.09.05.5.05.5l-.12.19-.14-.13s-.05.05-.04.09c.01.04.55.73.55.73,0,0,.33.23.39.29.06.06.26.51.26.51,0,0-.2.47-.22.5-.02.03-.37.29-.37.29l.1.11s-.37-.11-.38-.15c-.01-.03-.16-.35-.16-.35l-.59-.07-.25-.23s-.03.15-.04.19c-.01.04.02.16.02.16,0,0,.04-.08.14-.05.1.03.64.24.64.29s.07.42.11.55c.04.12.13.32.13.32l.15.06s-.17.15-.19.2c-.02.05,0,.27.02.33.02.06.27.44.25.49-.02.05-.06.33-.06.33h-.16v.18s-.06-.11-.09-.13c-.03-.02-.26-.07-.26-.07l-.08-.08-.21.11s-.18-.45-.23-.51c-.05-.06-.14-.46-.2-.4-.06.05-.32.23-.32.26s.09.54.09.54c0,0-.16-.03-.18-.06-.02-.03-.07-.35-.07-.38s.12-.38.1-.48c-.02-.09-.25-.4-.25-.4,0,0-.96.37-.99.37s-.14-.16-.19-.11c-.05.04-.29.28-.29.28l.08.16.26-.07s.35.48.35.55.03.3-.01.35c-.04.05-.35.19-.35.22s.07.34.07.38.09.2.12.2.18-.06.18-.06l-.04.22.61-.1s0-.15.07-.18c.08-.03.38-.1.38-.13s.02-.33.05-.33.29.02.29.02c0,0,.17-.21.17-.17s-.16.62-.16.62l-.21.07s.22.01.22.07-.04.2,0,.25c.04.05.27.29.27.33s.03.28.03.31.35.09.35.09l.04-.22.23.1-.02.18-.17.05-.09.16h.15l.12-.09s.62.58.65.61c.03.03.58.34.6.37s.11.27.11.27c0,0,.2-.12.19-.06,0,.06-.06.24-.06.24l.16-.05-.15.18-.02.12s.36-.24.33-.17c-.03.07-.35.49-.35.53s-.04.3-.04.3c0,0-.1-.27-.1-.23s-.07.5-.07.5c0,0-.9-.6-.93-.56-.03.04-.15.42-.2.41-.05-.01-.29-.11-.38-.1-.09.01-.35.13-.38.16-.03.02-.11.25-.11.3v.05l-.05.55s.08.24.08.27-.06.21-.06.24.27.95.28,1.02c0,.06.38.41.38.41,0,0,.31-.21.33-.18.02.03.29.42.31.46s.19.05.25.11c.06.06.35.35.36.39.01.04.17.44.19.48.02.04.17.17.17.17h.29s-.29-.68-.31-.72c-.02-.03-.67-.78-.67-.78l-.21-.09s-.53-1.02-.53-1.05-.02-.24,0-.27c.02-.03.24-.11.33-.16.09-.04.23-.34.23-.38s-.15-.34-.13-.37c.02-.03.28-.11.28-.11,0,0,.02.16.1.17.08.01.46-.03.46-.03,0,0,.05.17.07.13s.13-.24.13-.24c0,0-.05.17-.02.21.03.04.19.18.22.25.03.07.09.58.09.61s-.17.42-.18.49c-.01.06-.03.52,0,.62.03.1.34.86.34.86l.22.12.45.64.26.03.07.19-.21-.1s-.05.04-.04.1c.01.06.74.52.77.52s.16-.07.16-.07l.22-.33.07.26.38-.02.17.17-.24-.05.05.22-.23-.23s-.15-.01-.18.08c-.03.09-.08.49-.08.49l-.19.05.11.2-.13.2s.11-.13.11,0,.04.17-.06.24c-.1.07-.17.18-.23.22-.06.04-.98.23-1,.33-.02.1-.07.46-.08.5,0,.04-.28.53-.3.62-.02.09-.08.98-.08.98,0,0-.88,1.03-.91,1.1-.03.07-.01.52-.01.55s.17.29.17.36.11.62.11.71.01.41-.07.44c-.08.02-.37.22-.4.34-.03.12-.06.45-.06.45l-.39.25s.19.33.3.42c.11.09.58.36.6.39.02.03.44.36.45.43.01.06-.06.74-.06.87s.15.47.16.5c.01.03.54.7.54.7h-.18l-.14-.29s-.34-.33-.35-.37c-.01-.04-.16-.64-.16-.64,0,0-.41-.56-.44-.55-.03.01-.53.3-.52.45.01.15.28.4.28.47s.02.8.02.83.51.75.5.78c-.01.03-.17.2-.16.24s.03.09.02.17c-.01.07-.14.23-.14.23,0,0,.38.18.39.24,0,.06.06.57.06.57,0,0,.28.1.29.33.01.23.06,1.14,0,1.19-.06.05-.67.22-.71.25-.03.03-.07.15-.07.15,0,0-.14-.07-.17-.06-.03.01-.14.19-.18.19s-.39-.02-.41.05c-.02.07-.03.19-.06.21-.03.02-.16.06-.16.06l-.03.1.41.13s.37.28.38.34c.01.06-.31-.1-.31-.1l-.05.07.33.33-.35-.22-.09.03.08.15c.02.18-.17.04-.17.04h-.08s0,.03-.04.05c-.03.02-.09-.1-.15-.16-.06-.06-.45-.24-.5-.3-.05-.06-.41-.55-.41-.55l-.06.15-.38-.4s-.12-.01-.12.04.27.69.25.78c-.02.08-.47.85-.52.98-.05.13-.24.92-.31,1.04-.07.11-.38.37-.41.39l-.03.02s-.12.39-.13.44c-.01.04-.05.18-.16.26-.11.08-.27.07-.3.11-.03.04-.38.64-.43.69-.05.05-.17.11-.2.11s-.07-.09-.1-.09-.31.09-.31.09l-.12.29s.05-.45,0-.49c-.04-.04-.34-.18-.34-.18,0,0-.08-.15-.11-.18-.03-.03-.32-.13-.36-.22-.04-.08-.09-.55-.09-.55l-.14.08s-.01-.16,0-.21c0-.05,0-.09,0-.09l-.12.02s-.07-.33-.11-.33-.05-.06-.05.17-.13.78-.11.84c.02.06.13.81.13.81h-.13s-.24-.77-.24-.77l-.17.02.11-.17s-.18-.16-.11-.16.25.09.25.09v-.57s-.27.03-.27.03l.08.17-.08.05s-.1-.11-.13-.1c-.03.01-.32.3-.32.3,0,0-.08-.08-.11-.06-.03.02-.22.06-.17.11.05.05.19.47.19.51s-.2.86-.2.86l.07.11h.15s-.11.11-.09.15c.02.03.08.31.08.31h-.08l-.13-.17s-.03.34-.06.31c-.03-.03-.17-.66-.22-.69-.05-.03-.21-.11-.21-.11,0,0,.27-.67.27-.71s-.03-.69-.03-.69c0,0-.22.54-.24.57-.02.03.06.11.06.19s-.19.31-.19.31l-.44.29s-.36.21-.36.24v.24s.18.06.19.09c0,.03.07.32.07.37s-.16.23-.16.23l.02-.45s-.31-.31-.31-.35-.07-.12,0-.17c.07-.04.31-.19.36-.23.05-.04.15-.29.15-.29l-.07-.16s.43.01.43-.03-.08-.16-.08-.16c0,0,0-.2.07-.34.07-.15.31-.36.31-.36v-.29s.13.21.13.21c0,0,.14-.18.17-.26.03-.08-.01-.23-.03-.27-.02-.04-.3-.2-.3-.2,0,0,.01.14,0,.19,0,.04-.56.78-.56.78l-.07-.18s-.12,0-.23.05l-.11.05s.16.1.15.16c0,.05-.16.34-.25.4s-.42.23-.42.23l-.08-.11s-.17-.02-.23.03c-.06.05-.24.4-.24.4v-.25l-.13.09s0-.17.07-.23c.07-.06.37-.27.43-.3.06-.03.43-.06.47-.08.04-.02.07-.55.04-.55s-.48.04-.48.04l-.38.4-.1-.15s.36-.3.39-.32c.03-.02.58-.12.58-.12l.2.13s.07-.31.16-.34c.09-.03.49-.08.52-.09.03-.01.3-.49.3-.49,0,0,0-.15-.05-.15s-.77.09-.77.09c0,0-.15-.19-.18-.19s-.74.08-.74.08l-.24-.18h-.3l.05-.09.16-.08.67-.8.29-.11.09.05s-.5.39-.5.44.24.33.24.33c0,0-.22-.12-.25-.1-.03.02-.35.31-.35.31,0,0,.05.1.16.1s.82-.1.82-.1l.18.24s.39-.2.42-.18c.03.02.39.09.39.09l-.03-.93.14.03.13-.97s-.01.15.08.11.76-.33.76-.33v-.42s.1.22.13.22.17-.05.21-.11l.04-.06s.24-.64.24-.71.01-.37.01-.37l-.07.02s-.05-.09-.05-.13.15-.49.15-.49l-.04-.16s.09-.09.1-.03c0,.06.1.23.1.28s.03.19-.02.29c-.05.1,0,.5.03.5s.38-.18.38-.11-.04.37-.04.37l.35.21-.32.04s-.06-.15-.06-.08-.05.66-.05.66c0,0,.16-.15.16-.09s-.18.49-.21.55c-.03.06-.23.17-.27.26-.04.09-.27.61-.27.68s.08.25.14.3c.06.05.3.23.3.23,0,0-.1-.01-.11.07-.01.08.04.21.07.29.03.08.23.42.23.42l.23-.09s-.11.11-.12.21c-.01.09.14.34.14.34,0,0,.17-.11.19-.16.02-.04.22-.58.22-.58,0,0-.14.12-.14.07s-.11-.25-.1-.34c0-.09.11-.34.11-.34,0,0-.02.4.04.36.06-.04.34-.25.34-.28s.04-.54.04-.54l-.25-.04.07-.35-.31.18.08-.27h-.21s-.02-.09-.02-.09c0,0,.24-.22.25-.28.01-.06.39-.99.39-.99,0,0-.09-.01-.13-.03-.04-.02-.07-.32-.07-.32,0,0,.17.13.2.15.03.01.15.01.22-.04s.27-.26.27-.26c0,0-.1-.03-.1-.06s.09-.26.09-.26c0,0-.05.17.06.19.11.02.84-.42.84-.42,0,0-.07-.26-.07-.33s.16-.33.16-.3-.05.28-.04.35c.01.07.07.48.07.51s-.68.63-.68.63l.23.13v.23l-.26.11s.14-.16.09-.2-.15-.1-.18-.04c-.03.06-.21.52-.21.52,0,0,.2.09.17.21-.03.11-.1.25-.13.24-.03-.01-.11-.12-.12-.09-.01.03-.06.15-.04.19.02.04.16.15.16.15l.13-.26s.73.41.79.42c.06.01.4.01.34-.1-.06-.11-.25-.6-.22-.59.03.01.38.48.38.52s-.12.27-.12.3.21.23.21.23l.53-.6-.49-1.17.18.11.3-.74s.23-.17.22-.22c-.01-.05-.25-.44-.25-.44,0,0,.18-.38.18-.42s-.14-.28-.14-.28l.24.06.04-.12s.07-.86.09-.9c.02-.04.52-.81.52-.84s-.02-.18-.11-.22c-.09-.04-.63-.11-.63-.11,0,0,.12-.44.12-.47s-.07-.23-.06-.26c0-.03.17-.22.17-.22l-.13-.08-.15.12s.1-.31.09-.36c-.01-.05-.12-.18-.12-.18,0,0-.22.08-.27.12s-.53.78-.53.78l-.6.2s-.19-.13-.23-.06c-.04.07-.05.13-.08.16-.03.02-.43.08-.43.08,0,0,.31-.17.35-.22.04-.05.2-.3.23-.31.03-.01.39-.13.39-.13,0,0,.07-.22.09-.25s-.03-.15-.08-.16c-.05-.01-.25-.06-.25-.06,0,0-.02-.22-.07-.17-.05.05-.13.13-.13.13l-.16-.3s-.07.01-.05.07c.02.06.17.53.17.53l-.14-.06s-.16-.24-.16-.29.05-.45.01-.48l-.04-.03s-.18.08-.2.04c-.02-.04-.08-.09-.08-.13s.12-.54.14-.57.24-.19.24-.19c0,0,.24.06.24.09,0,0-.16.34-.12.4.04.06.24.18.24.23s.05.38.06.41c.01.03.58.6.58.6,0,0,.06.01.12-.05.06-.06.25-.64.25-.64l-.16-.2.15-.58s-.35-.23-.34-.3c.01-.07,0-1.02,0-1.02l-.1-.05.18-.09-.28-.12.02.19s-.14,0-.14-.03.07-.29.07-.29c0,0-.11.15-.12.11-.01-.03-.25-.45-.24-.51,0-.06.12-.45.14-.37.02.07.17.55.17.55,0,0,.16.06.17.1.01.04-.01.19-.01.19,0,0,.16-.16.21-.03.05.12.08.21.12.27.04.06.2.23.21.17.01-.06.49-.6.5-.65.01-.05.13-.32.09-.41-.04-.09-.13-.21-.14-.25-.01-.04.09-.32.09-.32,0,0,.05.13.07.22.02.08.06.23.06.23,0,0,.35.06.47.08.12.02.57-.08.59-.13.02-.05-.02-.61-.09-.7-.07-.09-.39-.19-.36-.26.03-.07.33-.27.33-.31s-.02-.25-.02-.25c0,0-.29-.22-.31-.26-.02-.04-.09-.87-.09-.98s-.21-.49-.21-.54.09-.27.04-.29c-.05-.02-.89-.17-.92-.25-.03-.08-.21-.35-.21-.35,0,0-.13-.04-.14.01-.01.05-.01.29-.01.29,0,0,.2.02.27.09.07.07.22.36.22.36,0,0-.13-.08-.12.01.01.09.23.67.23.76s-.08.33-.05.42c.03.09.14.56.14.59s-.15.18-.18.18-.15-.15-.15-.21.1-.69.07-.69-.29-.09-.34-.02c-.05.07-.15.36-.24.45-.09.08-.87.69-.91.76-.04.06-.05.39-.11.47-.06.07-.39.24-.41.31-.02.07-.11.58-.14.59-.03.01-.1.03-.14.05-.04.02-.17.27-.2.37-.03.1.08.37.06.44-.02.06-.18.7-.18.7,0,0-.27.05-.29.09-.02.04-.09.25-.09.25,0,0-.11-.14-.14-.12-.03.02-.62.42-.62.42l.05-.39s-.15.04-.24.1c-.09.06-.26.31-.33.34-.07.03-.75.22-.75.32s0,.3-.07.39c-.07.09-.13.19-.2.2s-.36-.02-.41.08c-.05.1-.05.36-.07.4-.02.04-.83.89-.89,1.02-.06.12-.07.58-.12.63-.05.05-.7.86-.79,1.03-.09.17-.57,1.05-.57,1.12s.1.34.13.36c.03.02.76.11.76.11l.27-.17.05.13s-.18-.04-.18.08.23.22.26.22.27-.44.37-.52c.1-.08.57-.27.62-.29.05-.02.91-.35.91-.35l.07-.2s.22.05.3,0c.08-.05.58-.5.58-.5,0,0-.03.37-.06.39-.03.02-.96.87-1,.87s-.89.09-1,.19c-.11.09-.74.57-.77.57s-.56.11-.58.05c-.02-.06,0-.13-.11-.16-.11-.02-.37-.05-.37-.05l-.1.35s-.17.1-.21.1-.5-.25-.52-.32c-.02-.07,0-.42,0-.42l.14-.04s.39-1.52.65-1.84c.26-.32.8-.96.82-1.03.02-.06.09-.53.12-.57.03-.04.2-.44.22-.48.02-.04.27-.2.3-.27.03-.07.52-1.12.55-1.14.03-.02.6-.3.6-.3,0,0,.1-.37.13-.37s.35.02.35.02c0,0,.08-.35.05-.36-.03-.01-.21.04-.21.04l.46-.69s-.14-.21-.11-.23c.03-.02.15-.04.16-.11.01-.07.08-.46.08-.46,0,0,.15.05.15.02s-.05-.26-.02-.27c.03-.01.13-.03.13-.03,0,0-.03.19.02.19s.16.01.16-.04.04-.48.01-.52c-.03-.04-.19-.16-.21-.24-.02-.08-.11-.81-.08-.84.03-.03.11-.07.11-.07,0,0,.07-.21.08-.25.01-.04.06-.11.09-.03.03.08.09.22.08.32-.01.1-.06.62-.06.62,0,0,.11.12.14.12s.24-.07.27-.12c.03-.05.09-.51.09-.51,0,0-.12-.25-.12-.3s.23-.58.23-.58l-.07-.23.07-.09s.08.16.12.26c.04.1.02.29.02.29l-.14-.05s.35.65.35.79-.08.47-.15.63c-.07.17-.23.67-.23.7s-.06.53-.07.56c-.01.03-.13.1-.2.26-.07.16-.07.35-.02.41.05.06.21.12.21.12l.11-.05-.09-.2h.12s.06.16.09.16.34-.09.36-.13c.02-.04-.18-.22-.19-.32-.01-.1.07-.46.12-.54.05-.08.16-.26.16-.26,0,0,.09-.05.13-.09.04-.04.17-.61.17-.64s.01-.53.01-.53l.11-.23s.14.07.26-.01c.12-.08.54-.41.54-.46s-.22-.86-.13-.81c.09.05.85.12.85.09s.15-.28.15-.28l-.15-.18h.15l.14.29s.12-.22.08-.26c-.04-.04-.41-.11-.46-.17s-.16-.19-.16-.26.03-.65,0-.6c-.03.05-.27.44-.31.36-.04-.07-.13-.47-.08-.53.05-.06.1-.45.1-.45l-.15.22-.06-.17.24-.21s-.01-.11-.08-.11-.22-.03-.27-.06c-.05-.03-.11-.09-.15-.17-.04-.07-.19-.87-.19-.87h-.11s.04-.23.07-.21c.03.02.5.46.54.46s.2.01.21-.03c.01-.04.09-.36.08-.47-.01-.1-.08-.25-.12-.39-.04-.14-.15-.76-.14-.81s.02-.31.02-.31l-.35.05-.29.13-.1.15s.3-.1.34-.08c.04.02.26.69.26.69,0,0,.1.03.12.08.02.05.01.17.01.17,0,0-.2-.12-.2-.09s.17.35.18.41c0,.06-.12.33-.14.3-.02-.03-.34-1.44-.34-1.44,0,0-.23-.02-.23.09s-.03.45-.01.55c.02.1.09.41.09.41,0,0-.04.12-.07.13-.03.01-.18.08-.21.02-.03-.06-.21-.37-.2-.47.01-.09.08-.07.02-.22-.06-.15-.45-.49-.42-.57.03-.08-.03-.22.12-.29.15-.07.58-.32.58-.37s-.18-.35-.18-.35l.13-.28s-1.09.04-1.19.15c-.1.1-.71.66-.71.69s.05.25.06.28-.22.32-.13.35c.09.03.37.16.43.24.06.08.43.33.43.51s-.05.54-.14.7c-.09.17-.18.28-.23.32-.05.04-.48.13-.48.13,0,0,.3-.42.33-.48.03-.05.01-.32-.02-.42-.03-.1-.02-.32-.16-.39-.14-.07-.57-.22-.62-.28-.05-.06-.15-.02-.11-.17.04-.15.18-.61.14-.61s-.86-.03-.94-.02c-.08.01-.87.32-.8.32s.21-.12.29-.01c.08.11.21.36.2.39-.01.03-.15.02-.1.18.05.16.11.44.14.5.03.06-.08.17-.13.13-.05-.03-.52-.76-.52-.76v-.45s-.08-.1-.08-.1c0,0,.09-.17.09-.21v-.04s-.27-.5-.32-.6c-.05-.1-.73-.68-.73-.68,0,0-.06.11-.12.08-.06-.03-.29-.08-.29-.08l-.48.09.51-.57.05.32s.04-.25.18-.32c.14-.07.39-.1.41-.13s.07-.17.02-.16c-.05.01-.7.2-.74.23-.04.03-.53.76-.68.83-.15.07-.73.48-.78.48s-.47-.2-.58-.16c-.11.04-.13.11-.33.13-.2.02-1.03.01-1.1-.01-.07-.02-.99-.37-.99-.37v-.13s.23-.06.26-.06.48-.03.48-.03c0,0-.49-.08-.57-.07-.08.01-.89.25-.97.2-.08-.05-.32-.36-.39-.38-.07-.02-.09-.13-.25-.05-.16.08-.5.32-.56.32s-.38-.07-.45-.09c-.07-.02-.2-.07-.2-.1s.08-.13,0-.19c-.08-.05-.06-.11-.27-.16-.21-.04-.5-.25-.59-.21s-.31.22-.31.22c0,0,.07-.23-.1-.17-.17.06-.53.14-.65.17-.12.02-.71-.06-.71-.06v-.11l-.72.13s.04-.1-.05-.12-.92-.02-.92-.02c0,0,.02-.21-.07-.18-.09.03-.48.05-.58.04-.1-.01-.94-.29-.94-.29,0,0-.12-.23-.15-.25-.03-.02-.65-.28-.69-.3-.04-.02-.05-.27-.05-.27l.13.12s.08-.21.03-.24c-.05-.03-.48-.18-.53-.19-.05-.01-1.28-.86-1.31-.87-.03-.01-.17-.13-.23-.09-.06.04-.18.17-.21.19-.03.02-.38.02-.44-.04-.06-.06-.09-.26-.18-.3-.09-.04-.44-.06-.49-.12-.05-.06-.16-.26-.16-.26,0,0-.32.05-.36.04h-.04s-.18-.06-.25-.13c-.07-.07-.16-.2-.22-.26-.06-.06-.26-.08-.3-.1-.04-.02-.92-.79-.96-.83-.04-.04-.43-.08-.5-.18-.07-.09-.31-.41-.37-.45-.06-.03-.29-.13-.37-.12-.08.01-.43.19-.45.12,0,0-.12-.51-.2-.52-.08-.01-.81-.07-.81-.07l-.17.08-.14-.12s-.18.12-.2.2c-.02.07.01.22,0,.27,0,.05.19-.01.2.04.01.05-.01.19.06.29.07.1.33.4.33.4,0,0,.23-.07.26-.03.03.04.11.2.09.23s-.04.13-.04.13h-.16s.17.12.15.21c-.02.08-.01.26-.08.3-.07.04-.26.13-.27.17-.01.03.04.16.04.34s-.04.38-.07.41c-.03.03-.33.3-.33.37s.2.39.2.48-.11.54-.18.63-.45.52-.45.52Z"/>
      <path class="cls-1" d="M25.29.68s.1-.09.1-.12-.2-.47-.23-.5c-.03-.03-.77-.06-.77-.06,0,0,.08.78.11.76.03-.02.51-.16.51-.16,0,0,.24.08.27.08Z"/>
      <path class="cls-1" d="M26.66,5.3s.61.08.61.08l-.39-.22s-.25.12-.22.13Z"/>
      <path class="cls-1" d="M25.48,6.52c-.01-.08-.13-.31-.13-.31,0,0-.43.12-.46.18-.03.05-.1.16-.1.16l-.26.1s.45.22.41.25c-.04.03-.1.3-.1.3,0,0,.49-.24.51-.26.02-.02,0-.3,0-.3,0,0,.14-.03.13-.11Z"/>
      <path class="cls-1" d="M22.99,7.02s-.14.18-.14.18c0,0-.32-.1-.33-.15,0-.04-.06-.18-.06-.18h-.35s.18.38.26.45c.08.06.48.22.48.22v-.2l-.24-.19.5.27-.08-.22.08-.07s-.09-.12-.12-.11Z"/>
      <polygon class="cls-1" points="23.2 7.2 23.15 7.33 23.51 7.59 23.33 7.3 23.2 7.2"/>
      <path class="cls-1" d="M26.96,5.76v-.13s.05.08.13.08.22,0,.18-.03c-.04-.03-.21-.19-.21-.19l-.41-.11.17.22-.09.06.22.1Z"/>
      <polygon class="cls-1" points="23.15 7.7 23.11 7.79 23.9 8.12 23.69 7.91 23.15 7.7"/>
      <path class="cls-1" d="M22.88,8.32l-.35.58v.27l.18-.24.06.24h.12v-.25l.11-.18h-.23s.17-.2.18-.23c.01-.03-.06-.2-.06-.2Z"/>
      <path class="cls-1" d="M22.94,9.43c-.04.06-.01.17,0,.26.01.09.21.22.17.38-.04.17-.13.08-.07.25.06.17.3.66.39.73.09.06.47.2.46.22-.01.02.1.19.1.19,0,0,.09-.05.12-.05s.15.05.15.05v-.13s.3-.05.25.01c-.05.06-.16.09-.14.17.02.07.05.12.15.24s.29.26.29.26c0,0-.04-.06.06-.06s1.03.26,1.03.26v-.3l-.11-.13.04.22s-.23.05-.32-.03c-.09-.08-.26-.15-.26-.23s.02-.2-.01-.27c-.03-.07-.2-.17-.2-.24s.08-.59.14-.57c.06.02.49.14.49.14l.23-.33s-.2.12-.26.06c-.06-.06-.09-.11-.09-.11,0,0-.1.15-.17.09-.07-.05-.2-.17-.2-.23s.1-.09.12-.16c.02-.07-.05-.31-.09-.35-.04-.04-.44-.13-.49-.22-.05-.08-.33-.53-.42-.55-.09-.02-.33-.07-.33-.07,0,0-.11-.15-.06-.16.05-.01.19-.11.14-.2-.05-.08-.1-.24-.14-.23-.04.01-.45.07-.45.07,0,0-.11.02-.11-.01s-.07-.06-.07-.06l-.06.2.06.09s-.12.04-.15.08c-.03.04-.12.28-.12.28l.38-.33s.07,0,.06.1c-.01.09-.1.23-.1.23,0,0-.1-.03-.12,0-.02.03.12.28.12.28l-.22-.08v-.11s-.11-.03-.12.01c-.01.04-.06.12-.04.19s.11.15.11.15l.13-.07s.06.1,0,.15c-.06.04-.21-.1-.24-.04Z"/>
      <path class="cls-1" d="M24.91,8.48c-.11-.05-.21-.08-.21-.08,0,0-.09.11-.06.15.03.03.27.13.27.13,0,0,.11-.15,0-.2Z"/>
      <path class="cls-1" d="M25.33,7.7c-.1.07-.34.38-.33.42.01.04-.05.07,0,.27.05.2.12.25.15.28.03.03.29-.42.29-.42,0,0,.01.32.04.37.03.05.05.13,0,.18s-.13.06-.12.11c0,.05.02.12.06.13.04.01.18,0,.18,0,0,0-.03-.25.04-.25s.16,0,.15-.05c-.01-.05-.01-.21-.06-.26-.05-.05-.02-.02-.09-.09-.06-.07-.13-.18-.1-.22.02-.04.03-.29.1-.2.08.09.23.27.26.28.03.01.08-.04.14.01.06.05.14.05.12.19-.02.13-.09.21-.07.29.02.08.1.22.1.22,0,0,.2-.03.2,0s-.15.12,0,.15c.15.02.34,0,.34,0,0,0,.05,0,.12,0s.11.09.2.05c.09-.04.3-.13.3-.18s.04-.24,0-.32c-.04-.08-.17-.21-.19-.28-.02-.07.01-.3-.06-.35-.07-.05-.37-.25-.37-.28s.02-.28.02-.37-.09-.23-.1-.31c-.02-.07.18-.22.18-.22l.08.11s-.01-.15.04-.11.13-.16.15.06.17,1.08.16,1.09c-.01.01.08-.09.11-.01.03.08.19.29.23.38.04.09.07.11.12.14.05.03.16-.05.15,0-.01.05-.04.45,0,.45s.27-.11.27-.11c0,0,.17.11.17.08s-.12-.26-.11-.36c0-.1.1-.25.16-.32.06-.07.47-.15.47-.15,0,0,.37-.37.35-.42-.02-.05-1.93-1.16-1.93-1.16,0,0-.26-.12-.31-.12s-.73.05-.73.05c0,.03.07.12.07.18s-.01.24-.07.23c-.06-.01-.2,0-.2,0,0,0,.15.08.06.17-.09.08-.66.59-.77.66Z"/>
      <path class="cls-1" d="M26.26,9.23c-.05-.02-.29-.03-.32-.06-.03-.03-.04-.18-.04-.18,0,.02-.46.17-.49.19-.03.02-.18-.05-.2-.01-.02.04,0,.13,0,.13,0,0,.26-.06.27,0,0,.06.32.41.33.46.01.04-.21-.12-.21-.05s.11.31.11.31l.19-.09s-.02.21.08.21.23-.03.24-.06.02-.09-.06-.16c-.08-.06-.21-.02-.08-.06.13-.04.44-.07.47-.11.03-.04.23-.41.23-.41,0,0-.37-.09-.37-.06s-.02.25-.05.25-.16-.1-.16-.1c0,0,.11-.16.06-.18Z"/>
      <path class="cls-1" d="M28.1,10.49s.59-.5.58-.55c-.01-.05-.09-.32-.16-.42s-.34-.23-.34-.23c0,0-.31.11-.31.15v.5l.16.1-.07.1.14.35Z"/>
      <path class="cls-1" d="M26.45,10.62s-.28.57-.28.62.06.82.06.82l.24-.05s.06.06.08.18c.02.11.13.16.16.16s.16-.16.16-.16c0,0-.06.17.01.16s.42.09.42.09l-.08.18s-.12-.21-.13-.16c0,.05-.15.16-.15.16l.15.08s-.21.13-.2.17c0,.03.11.09.11.09l.45-.07-.14-.18s.04-.1.08-.04c.04.06.22.15.22.15,0,0-.1-.11,0-.12.1-.01.13-.06.18.04.05.1.05.21.15.17.1-.04.22-.07.21-.11-.01-.04-.05-.09-.05-.09,0,0-.18.02-.16-.02.02-.04.1-.28.13-.29.03-.01.08-.07.08-.07,0,0-.18-.05-.19-.16,0-.1.1-.39.1-.39,0,0-.07-.12-.15-.08s-.21.18-.18.22c.03.04.18.05.12.16-.06.1-.29.36-.32.36s-.2-.05-.16-.12c.04-.07.21-.28.21-.28,0,0-.18.07-.21.07s-.13-.01-.08-.08c.05-.07.22-.36.19-.44-.03-.07-.36-.45-.33-.54.04-.09.35-.81.35-.81,0,0-.29-.02-.29-.07s.05-.18-.01-.19c-.06-.01-.08.07-.12-.01-.03-.08,0-.37,0-.37,0,0-.15.06-.15.09s.04.2,0,.23c-.04.03-.39.07-.39.17s.07.85.07.85l-.33.16.24-.32s-.08-.16-.09-.11Z"/>
      <path class="cls-1" d="M27.91,10.67s-.04.21-.04.21c0,0-.19-.04-.16,0,.03.04.23.3.25.33.02.03-.09.29-.09.29,0,0,.09.11.12.09.03-.02.46-.62.47-.65,0-.03-.22-.02-.19-.07.04-.05.19-.25.19-.25-.04,0-.54.02-.55.05Z"/>
      <path class="cls-1" d="M30.82,7.28c-.11-.1-.2-.23-.31-.28-.11-.06-.11-.12-.22-.18s-.19-.2-.22-.35c-.03-.16-.1-.36-.16-.43-.06-.06-.3-.28-.3-.28-.06.1-.12.52-.11.57.01.05.1.15.11.16.01.01.1.03.15.05.05.02.11.05.19.16.08.11.21.67.26.69.05.03.87.9.87.84s-.09-.75-.12-.75h-.09s.06-.1-.05-.21Z"/>
      <path class="cls-1" d="M30.53,6.64s.4.41.4.41c0,0,.24-.16.24-.19s-.01-.27-.05-.3c-.04-.03-.3-.16-.3-.16,0,0,.18.13.19.2,0,.06.05.17,0,.17s-.51-.17-.48-.13Z"/>
      <path class="cls-1" d="M31.51,8.12s0-.13,0-.21c-.01-.08-.11-.16-.11-.16l-.08.26s.09-.05.12,0c.03.05.07.11.07.11Z"/>
      <path class="cls-1" d="M30.29,8.63c-.01-.08-.17-.24-.17-.24,0,0-.34.05-.34.14s-.1.1,0,.14c.1.04.56.2.56.2,0,0-.04-.16-.06-.24Z"/>
      <path class="cls-1" d="M29.89,9.24s-.02-.25-.02-.25l-.07-.12-.1.12-.05-.12s-.04-.02-.15.08c-.11.1-.28.37-.29.44-.01.06-.03.16,0,.22.03.06.21.19.25.28.04.09-.04.45-.04.45l.5-.08.07-.12s-.33-.06-.26-.1c.07-.04.5-.28.48-.31-.02-.03-.51-.54-.51-.54,0,0,.19.09.19.06Z"/>
      <path class="cls-1" d="M30.43,10.55s.16.11.25.12c.09.01.51-.22.55-.23.04-.01.32.18.32.18,0,0-.06-.42-.14-.49-.09-.06-.34-.17-.41-.25-.07-.08-.29-.54-.33-.54h-.23s.08.42.08.48-.21.33-.18.39c.03.06.06.31.09.33Z"/>
      <path class="cls-1" d="M29.88,11.47l-.38.07v.19s.37.04.38,0c.01-.04,0-.26,0-.26Z"/>
      <path class="cls-1" d="M29.64,11.88s-.13.08-.14.11c0,.03.19.24.19.24,0,0,.11-.15.09-.18-.02-.03-.14-.18-.14-.18Z"/>
      <path class="cls-1" d="M31.59,16.32s0,.06,0,.06c0,0,0-.02,0-.06Z"/>
      <path class="cls-1" d="M30.22,13.35c0,.06-.1.61-.1.68s-1.39,2.52-1.41,2.6c-.02.08-.15.61-.13.66.02.05.37.45.49.49.12.04.48.23.56.41.08.19.13.57.21.55s.44-.19.53-.18.41.24.44.35c.03.11.14.76.14.83s-.26.64-.23.76c.03.11.2.64.23.73.03.08-.26.12-.18.25.08.12.34.5.42.54.08.04.4.13.42.21.02.07-.02.17,0,.22.02.05-.11.23-.07.34.04.11.13.17.16.17s.23.01.29-.06c.06-.07.09-.22.2-.28s.41-.1.44-.09c.03.01.49.52.49.64s-.11.45-.06.54c.05.09.19.42.22.44.03.01.33-.01.36,0,.03.01.39.29.41.25.02-.04-.06-.36,0-.41.06-.05.34-.27.35-.36,0-.09.09-.39.08-.49-.01-.09-.07-.36-.13-.54-.06-.18-.17-.32-.19-.39-.02-.07-.05-.67-.05-.67,0,0-.26-.05-.36-.07-.1-.02-.68-.34-.71-.38-.03-.04-.63-.94-.63-.94,0,0-.44-.07-.44-.04s.16.53.17.57c.01.04-.08.15-.07.23.01.08.12.49.1.55-.02.06-.04.29-.11.33-.07.04-.36.18-.36.15s.08-.62.08-.62c0,0-.17-.22-.17-.28s.05-.36,0-.48c-.05-.11-.3-.53-.3-.56s.16-.35.16-.45-.28-1.31-.33-1.43c-.05-.12-.13-.4-.33-.53-.2-.12-.55-.34-.6-.34s-1.07.19-1.07.19c0,0-.17-.22-.12-.29.05-.07.23-.15.41-.18.18-.03.7-.09.7-.09,0,0,.07-.3.07-.33s-.06-.46-.06-.46c0,0,.17-.18.2-.18s.17-.05.18,0c.01.05.01.16.01.16,0,0-.23-.03-.21.06.02.09.29.25.29.25,0,0,.04-.5.16-.55.12-.05.34-.15.48-.06.14.08.27.11.27.24,0,.09.03.26.04.35-.01-.09-.02-.24.08-.24.14,0,.25,0,.33-.04.08-.04.36-.13.36-.3s-.2-.69-.25-.73c-.05-.03-.55-.38-.62-.41-.07-.03-.4-.08-.37-.17.03-.08.18-.34.23-.45.05-.1-.01-.47-.01-.47,0,0-.13.09-.14.05-.01-.04-.12-.44-.16-.37-.04.06-.3.31-.3.31,0,0-.24.09-.2.02.04-.07.03-.18.03-.18,0,0-.34-.06-.34,0Z"/>
      <path class="cls-1" d="M26.14,19.11s-.3.32-.23.32.25-.07.36-.08c.11-.01.19-.03.19-.08s-.32-.16-.32-.16Z"/>
      <path class="cls-1" d="M35.12,22.02s-.19-.18-.19-.18c0,0-.12-.1-.14,0-.02.1.03.27.07.3.04.03.28.11.34.11s-.05-.19-.08-.23Z"/>
      <path class="cls-1" d="M31.2,29.62s-.1-.31-.12-.25c-.02.06-.2.12-.21.25-.01.12,0,.29,0,.29l.31.08s-.22.12-.21.26c.01.13.07.8.08.83,0,.03.13.11.13.11l.24-.21s.17.07.21.21c.04.13.12.34.15.36s.39,0,.39,0l.3-.17s-.65-.26-.62-.27c.03-.01.39,0,.37-.05-.02-.05-.09-.36-.09-.36,0,0-.16.02-.19,0-.03-.02-.34-.21-.34-.21,0,0,.16.06.26.05.1-.01.24-.07.24-.07,0,0,.13.14.14.11.01-.03.06-.22.03-.28-.03-.06-.42-.36-.38-.4.04-.04.31-.16.29-.22-.02-.06-.17-.07-.16-.15.01-.07.07-.8.07-.8,0,0-.26-.07-.26-.04s-.16.24-.16.24c0,0-.2.1-.19.07,0-.03.18-.25.19-.31.01-.06-.18-.33-.18-.33-.04.05-.24.26-.25.3-.01.04,0,.56,0,.56l.12.24h-.16v.15Z"/>
      <path class="cls-1" d="M32.41,32.36c-.06-.05-.41-.12-.41-.12l.12.27.22.08s.13-.18.07-.23Z"/>
      <path class="cls-1" d="M31.76,36.89c.07.04.17.07.23.07s.12.13.12,0-.08-1.1.09-1.13c.18-.03.54-.13.54-.13v-.15l-.2.04s-.07-.13,0-.16c.07-.02.23-.11.28-.07.05.04.21.3.17.37-.04.07-.29.3-.29.3,0,0-.16-.06-.16-.03s-.16.24-.17.34c-.01.1.1.3.1.3,0,0,.26-.01.28-.04.02-.03.14-.4.25-.46.1-.05.85-.42.84-.46-.01-.03-.09-.18-.24-.2-.15-.02-.61-.17-.61-.17,0,0-.12-.13-.08-.21.04-.07.17-.12.17-.12,0,0-.18-.39-.18-.46s-.05-.22,0-.32c.05-.1.12-.19.08-.26-.04-.07-.19-.38-.25-.46-.06-.07.04-.21,0-.32-.04-.11-.06-.21-.11-.2-.05.01-.2,0-.2,0-.02.08-.07.57-.08.61-.01.04-.45.43-.45.51s-.05.85-.08.98c-.03.13-.22.23-.2.33.02.1.11.29.11.42s-.12.66-.11.75c.01.08.08.25.15.29Z"/>
      <path class="cls-1" d="M30.46,39.44l.17-.49s-.19.05-.22-.01c-.03-.06-.27-.61-.27-.61,0,0-.27.03-.33-.04-.06-.07-.08-.27-.15-.25-.07.02-.2,0-.2,0,0,0-.11.13,0,.22.11.08.71,1.05.78,1.09.07.04.23.1.23.1Z"/>
      <path class="cls-1" d="M29.78,39.5s-.05-.05-.09-.06c-.04,0-.22,0-.22,0,0,0,.01-.13-.07-.23-.08-.09-.07-.17-.18-.17h-.25c-.09.06-.49.53-.4.59.09.06.68.32.78.31.09-.01.37-.07.39-.1.02-.03.05-.35.05-.35Z"/>
      <path class="cls-1" d="M28.36,40.75c.03.05.33.59.38.62.05.03.19.09.21.05.02-.04.09-.06.05-.11-.04-.05-.21-.46-.21-.46l.15.2s.07-.01.07-.04c0-.03-.04-.11-.04-.11,0,0,.34.18.34.12s-.19-.25-.15-.3c.04-.05.12-.03.15-.15.03-.11.09-.28-.05-.37-.14-.09-.39-.2-.39-.2,0,0-.16.05-.22.15-.06.09-.1.35-.1.37s.06.08.05.12c-.01.04-.27.05-.24.1Z"/>
      <path class="cls-1" d="M30.01,40.49s-.12.16-.13.2c-.01.04,0,.27,0,.27,0,0,.06-.12.06-.17,0-.04.07-.3.07-.3Z"/>
      <path class="cls-1" d="M27.04,38.03c-.02.11-.17.36-.17.36l.17.13s.18-.34.15-.36c-.03-.02-.15-.13-.15-.13Z"/>
      <path class="cls-1" d="M26.23,37.82c-.1-.01-.4.07-.41.12-.01.05-.14.99-.12,1.03.02.03.47.57.48.6.01.03.14.91.14.91,0,0,.25-.15.27-.19.02-.04.24-.66.27-.74.03-.07-.08-.63-.16-.69-.08-.06-.23-.15-.23-.2s.16-.47.11-.53c-.05-.06-.15-.1-.1-.2.05-.09.38-.51.38-.51l-.53.35v.16h-.14s.14-.11.04-.12Z"/>
      <path class="cls-1" d="M25.74,39.24l-.13-.2c0,.05.05.67.09.7.04.03.14-.05.14,0s-.16.07-.12.16c.05.08.39.52.39.52v-.19s-.18-.18-.16-.23c.02-.05.12-.06.1-.2-.02-.13-.31-.57-.31-.57Z"/>
      <path class="cls-1" d="M9.28,55.55c.04.11.39.37.39.41s-.04.54-.04.54l.31-.05s.16-.08.12-.19c-.04-.1-.14-.29-.13-.41,0-.12.06-.6.03-.61-.03-.01-.55-.27-.55-.27v-.16s.24.26.26.09c.02-.17-.21-.45-.21-.45-.05.06-.17.36-.17.39s0,.52,0,.56c.01.04-.05.02,0,.13Z"/>
      <path class="cls-1" d="M18.24,62.47c.12.05.39.12.47.13.08.01.16-.22.16-.22,0,0,.03-.03-.09-.07-.12-.04-.16-.4-.45-.56-.29-.16-.71-.42-.71-.42,0,0-.05.37,0,.53.05.16.49.56.61.61Z"/>
      <path class="cls-1" d="M25.67,64.4c-.01-.08-.23-.2-.23-.2.06.19.23.67.23.63s.01-.35,0-.44Z"/>
      <polygon class="cls-1" points="26.7 67.16 26.78 67.44 26.89 67.2 26.7 67.16"/>
      <path class="cls-1" d="M32.63,75.66s-.18-.09-.18-.09l-.4.07s.34.1.4.1.2-.04.18-.09Z"/>
      <path class="cls-1" d="M34.39,76.17l-.74-.11s.23.06.27.11c.04.05.46,0,.46,0Z"/>
    </g>
  </g>
</svg>