<?xml version="1.0" encoding="UTF-8"?>
<svg id="Layer_2" data-name="Layer 2" xmlns="http://www.w3.org/2000/svg" viewBox="0 0 85.89 95.24">
  <defs>
    <style>
      .cls-1 {
        fill: #172d35;
      }
    </style>
  </defs>
  <g id="_Ñëîé_1" data-name="Ñëîé 1">
    <g>
      <path class="cls-1" d="M30.12,7.2h-.46s.29.07.34.12.27.2.27.2l-.16-.32Z"/>
      <path class="cls-1" d="M30.33,6.69c.05-.05.6-.59.65-.6.05,0,.81-.05.81-.05,0,0,.1-.18.05-.22-.04-.04-.21-.02-.22-.05,0-.03-.04-.37-.02-.38.03,0,1.27-.34,1.34-.4.07-.06.13-.11.11-.16-.02-.05-.36-.49-.41-.53-.04-.04-.32,0-.32,0,0,0-.52.57-.57.64-.04.06-.93.59-.94.63,0,.04.07.14,0,.15-.07.02-.87.27-.87.34,0,.06.07.25.07.27s-.07.43-.07.43c0,0,.3,0,.35-.06Z"/>
      <path class="cls-1" d="M30.87,4.29s-.23.03-.26.11c-.03.07-.22.72-.22.72,0,0,.36-.25.39-.29.03-.04.17-.31.17-.34s-.08-.19-.08-.19Z"/>
      <path class="cls-1" d="M31.71,3.82l-.51.13v.15s.26.02.32,0,.19-.27.19-.27Z"/>
      <path class="cls-1" d="M34.71,3.9v-.11s-.6.22-.63.25c-.03.03-.26.26-.26.26l.24.09s.29-.04.32-.09c.03-.05.33-.39.33-.39Z"/>
      <path class="cls-1" d="M33.95,2.59s-.24-.25-.31-.25-1.41.43-1.45.49c-.04.06-.19.31-.22.37-.03.06-.05.25-.05.25l.33.14s.32-.31.34-.29c.03.02.23.13.23.13l.31-.19s.16.09.19.14c.03.05.11.22.11.22,0,0,.11,0,.11-.05,0-.05-.11-.36-.1-.39,0-.03.22,0,.26-.05.04-.06.26-.5.26-.5Z"/>
      <path class="cls-1" d="M31.46,3.31c0-.05-.05-.26-.09-.35-.04-.09-.15-.4-.26-.44-.11-.05-.4-.15-.4-.15-.03,0-.28.24-.28.27s.06.37.1.44c.04.06.24.31.26.33.03.02.67-.05.66-.1Z"/>
      <path class="cls-1" d="M31.64,1.73c.02-.07,0-.17,0-.17l-.33-.08s-.23.46-.19.48c.04.02.23.02.26,0,.03-.02.25-.17.26-.23Z"/>
      <path class="cls-1" d="M32.14,2.38c.03-.09.07-.27.07-.27,0,0-.39.11-.41.14-.02.03-.19.39-.19.39l.15.07s.35-.24.38-.33Z"/>
      <path class="cls-1" d="M32.69,1.73s-.1-.27-.13-.25c-.04.02-.22,0-.22,0,0,0,.04.29.04.32s.06.18.06.18c0,0,.26-.22.25-.25Z"/>
      <path class="cls-1" d="M33.37,1.73s.05-.27.05-.29-.25-.33-.25-.35-.02-.29-.02-.29c0,0-.08.16-.09.25-.01.08.12.69.15.69.03,0,.16,0,.16,0Z"/>
      <path class="cls-1" d="M32.15.93l-.04-.14s-.1.05-.11.08c0,.03,0,.29,0,.29h.14v-.24Z"/>
      <path class="cls-1" d="M32.08.59l-.07-.12s-.22.23-.24.24c-.03,0-.31,0-.31,0l-.07.45.19.1.12-.39.39-.28Z"/>
      <path class="cls-1" d="M30.94,0s-.08.03-.08.05.04.34.04.34l.12-.2-.08-.2Z"/>
      <path class="cls-1" d="M30.72,1.35s-.11-.17-.12-.23c-.01-.05-.17-.23-.17-.23,0,0-.22.13-.22.26s.05.41.05.41l.28.16.18-.37Z"/>
      <path class="cls-1" d="M30.1,1.98l-.26.27s.26,0,.26,0v-.27Z"/>
      <polygon class="cls-1" points="29.13 1.85 28.77 1.8 29.05 2.11 29.17 1.98 29.13 1.85"/>
      <path class="cls-1" d="M28.04,1.48s-.03.15-.1.21c-.07.05-.41.07-.43.11-.03.04-.17.1-.15.16.02.06.22.39.22.39,0,0,.49.08.49.04s.02-.28,0-.32c-.02-.04.13-.18.12-.22,0-.04-.16-.36-.16-.36Z"/>
      <path class="cls-1" d="M35.33,1.31c.05-.13.15-.8.19-.84.04-.05,0-.35,0-.35,0,0-.5-.02-.58.07-.08.09-.14.1-.19.28-.04.18-.31,1.44-.21,1.42.1-.03.36-.1.42-.16.06-.07.32-.28.37-.41Z"/>
      <path class="cls-1" d="M1.72,25.65c-.04.07-.19.57-.2.6-.02.03-.47.5-.47.5,0,0-.72.35-.72.41,0,.06-.28,1.44-.31,1.59-.03.15-.02,1.26,0,1.29.02.03.17.17.17.17,0,0,.79.18.82.18s.56-.14.61-.1c.05.04.29.22.31.25.02.03.31.28.29.35-.02.06-.02.44-.02.54s.52.94.55.96c.03.03.36.25.41.32.04.07.11.2.1.33s-.05.67-.06.74c0,.06-.72.76-.76.84-.04.07-.06.66-.12.73-.06.06-.85.75-.82.83.03.07.09.38.09.41s-.06.22-.07.32c0,.1.07.45.05.6-.02.15-.23.56-.2.62.03.05.18.32.19.44,0,.12.08,1.08.05,1.15-.03.07-.79.68-.79.74,0,.06-.09.25-.06.35.03.1.08.25.12.29.04.05.43.39.4.46-.04.07-.13.92-.13.92,0,0,.17.47.18.54,0,.07-.03.65-.05.74-.03.09-.33.33-.3.44.03.11.07.3.09.46.02.16.06.55.02.76-.04.21-.25.86-.32.95-.07.09-.26.39-.28.49-.02.1-.04.35,0,.44.03.09.94.62.97.65.03.04,1.55,1.69,1.55,1.73s.03.46.03.46l.78.4.22.57.38-.06.26.14.78.05s1.43.3,1.52.38c.09.08.45.35.49.46.04.12.19.85.24.95.05.1.83.88.92.92.09.04,1.82.66,1.9.7.08.04,1.65,1.07,1.77,1.13s.49.54.55.69c.05.15.06.3.05.39s-.16.27-.12.34c.04.06.29.11.37.35.08.24.17.39.16.52s-.07.34-.06.48c0,.15.29.63.34.68.05.05.84.82.87.85.04.04,1.07.45,1.1.57.04.12.12.5.21.55.09.05.51.26.56.36.04.1,1,1.08,1.05,1.12.05.04.23.15.34.16.11,0,.75.13.85.15.1.03,1.07.4,1.14.53.07.13.78,1.01.83,1.11.05.1.1.44.2.55.11.12.48.53.51.64.04.11.18.46.22.54.04.07.3.28.33.41.03.13.15.85.24,1.01.09.15.26.36.24.46-.02.1-.43,1.97-.46,2.13-.03.15.19.34.18.45,0,.12-.12.46-.05.55.07.09.49.64.44.74-.04.11-.14.8-.12.9.02.1.28.47.29.59,0,.12-.04.32-.08.48-.04.16-.12.74-.11.78,0,.04.31.51.34.65.04.15.07.3.07.47s-.24.73-.18.84c.06.11.02.11.11.19.1.08.72.25.83.33.11.08.65.45.67.57.02.12.5,1.14.49,1.18-.02.04-.88,1.09-.94,1.2-.06.11-.36.92-.38.94-.02.03-.28.08-.35.26-.07.18-.09.21-.09.43s.05,1.5.06,1.61c0,.11.23.84.23.96s-.08.23-.04.32.19.32.18.39-.08.92,0,1.04c.08.12.53.55.57.61.04.06.19.6.21.65.02.05.17.22.17.29s-.11.61,0,.76c.1.15.16.87.18.95.02.08.1.26.18.31.08.05.26-.02.27.06,0,.08.07.19.11.25.04.06.96.8,1.03.81.07,0,.34.02.41.05.06.04.4.22.49.25.09.03,2.55.65,2.62.76.07.11.23.24.26.35.03.11.39,1.21.42,1.29.03.08.44.48.42.54-.02.06.04.21.04.3s-.08.25-.08.25l16.17.32,11.6.22,14.2-.15s-.16-.76-.16-.79-.11-1.69-.11-1.78.64-2.12.62-2.2c-.03-.07-.1-.59-.06-.66.04-.07.32-.45.27-.52-.04-.06-.87-.96-.92-1.04-.05-.07-.42-1.23-.42-1.26s.11-.24.11-.31c0-.07-.11-1.18-.11-1.18,0,0-.85-1.06-.85-1.1s.14-.44.2-.54c.06-.1.39-.52.39-.61s-.17-.45-.17-.52-.41-.5-.4-.55c0-.05.31-.87.3-.96,0-.09-.26-.43-.25-.53,0-.1-.26-1.15-.23-1.25.03-.1.34-.89.34-1.02s.17-1.36.19-1.43c.02-.06.59-1.02.61-1.09.02-.07.19-.35.25-.5.06-.15.27-.64.3-.79.03-.15,0-1.56.02-1.63.03-.06,1.17-2.34,1.18-2.4s0-1.48,0-1.48c0,0,.18-.16.14-.24-.04-.07-.47-.82-.48-.92s-.17-1.32-.15-1.37c.02-.05.2-1.21.21-1.24,0-.04.29-.62.31-.67.02-.05,0-.36.03-.43.02-.06.19-.74.22-.82.04-.08.31-.41.34-.47.04-.06.08-1.05.09-1.08,0-.03.36-.35.41-.39.04-.05.85-.43.92-.47.07-.05.54-.74.56-.82.02-.07.12-.76.11-.85,0-.09-.4-1.05-.4-1.17s-.2-.74-.18-.83c.03-.08.31-1.04.36-1.19.05-.15.14-1.63.21-1.77.07-.15.39-1.72.42-1.8.04-.08.38-1.04.44-1.14.06-.1.57-.64.65-.76.08-.13.51-1.21.55-1.31.04-.1.57-1.82.5-1.9-.06-.08-.52-.51-.63-.57-.11-.06-.41-.15-.44-.21-.04-.05-.41-.92-.43-.94-.03-.02-.19-.08-.19-.08l-.21.09s.11-.22.13-.23c.03,0,.22.05.21,0,0-.04-.04-.13-.07-.14-.03,0-.16,0-.19.02-.03.03-.64.78-.66.77-.03,0-.41-.34-.41-.34,0,0,.12.26.11.32-.02.05-.09.14-.14.14s-.22-.12-.22-.12c0,0-.12.44-.15.49-.03.05-.2.19-.2.19l.04-.22s-.13.12-.13.09.05-.28.06-.31c0-.03.15-.14.15-.14,0,0-.34-.07-.39-.05-.05.02-.53.34-.57.4-.04.06-1.43,2.23-1.43,2.27s.02.57-.03.69c-.04.12-.46.86-.54.93-.08.06-.19.17-.26.19-.07.02-.37-.02-.47.05-.1.06-.37.35-.43.35s-.18-.04-.25.02c-.07.05-.41.58-.46.63-.04.05-.31.26-.31.26,0,0,.15-.03.17.1.02.13-.09.25-.16.32-.07.07-.26.54-.34.55-.08,0-.49.03-.57,0-.08-.04-.48-.27-.48-.27l-.18.1s.05-.09.04-.16c-.02-.07-.14-.24-.14-.24,0,0,.11-.05.1-.08-.02-.03-.17-.06-.21-.1-.04-.04-.13-.03-.06-.1.07-.07.09-.11.16-.09.07.02.24.1.24.05s0-1.03,0-1.03c0,0,.06.2.11.27.04.07.3.25.31.27,0,.03.09.28.09.28,0,0,.1-.25.04-.29-.05-.05-.34-.29-.38-.35-.04-.06-.19-.34-.19-.4s.11-.15.11-.24-.02-.45-.02-.45l.2.02s-.22-.15-.13-.15.24.06.25-.02-.1-.64-.1-.64c0,0,.13.07.12,0,0-.07-.08-.15-.03-.23.05-.08.42-.69.47-.73.04-.04.24-.12.24-.12,0,0-.1-.07-.04-.14s.34-.58.35-.61c0-.03.09-.55.13-.6.04-.05.5-.37.53-.42.03-.05.27-.8.3-.74.03.05.13.13.13.08v-.21s.15.02.12-.05c-.03-.06-.25-.59-.25-.66s.04-.28.08-.34c.04-.05.22-.31.31-.36.09-.05.79-.3.82-.3s.92-.16.94-.16.5.05.5.05l.05-.16s.24.02.22,0c-.02-.03-.21-.15-.19-.15s.29.05.29-.02.07-1.31.07-1.39.12-.51.19-.56c.06-.05.42-.1.38-.15-.04-.05-.44-.33-.48-.35-.04-.02-.54-.09-.6-.16-.06-.07-.31-.64-.35-.71-.04-.06-.72-.57-.74-.61-.02-.04-.09-.34-.09-.38s.2-.37.2-.43,0-.43,0-.45c0-.03.15-.1.17-.18.02-.08.04-.35.05-.43,0-.07.09-.31.19-.55.1-.25.53-.81.56-.89.03-.08.08-.39,0-.53-.08-.14-.39-.66-.54-.59-.15.07-.8.81-.9.81s-1.02-.08-1.08-.04c-.06.05-.26.25-.27.19,0-.05-.26-.36-.26-.36,0,0-.21.16-.22.11,0-.05.49-1.04.49-1.1s-.11-.33-.13-.41c-.03-.08,0-.13.07-.25.06-.13.5-.52.56-.62.06-.1.14-.32.14-.32,0,0,.25-.12.25-.2s-.31-.53-.31-.55,0-.41-.02-.47c-.03-.06-.41-.4-.39-.44.02-.04.19-.02.22-.02s.27.06.3.05c.03-.02.1-.05.11-.14,0-.08.11-.78.11-.84s-.6-.83-.62-.86c-.02-.04,0-.15.06-.2.05-.05.57-.23.56-.35-.02-.13-.39-.44-.39-.48s-.04-.14-.07-.17c-.04-.04-.57-.29-.59-.36s-.16-.46-.28-.5-1.11-.09-1.14-.11c-.03-.02-.46-.25-.46-.27s.09-.19.06-.25c-.03-.06-.18-.25-.2-.24-.03,0-.68.29-.75.28-.07,0-.64-.16-.71-.22-.06-.05-.44-.5-.43-.53,0-.03.79-1,.79-1.04s-.37-.3-.39-.42-.04-.27-.02-.33c.03-.05.11-.15.09-.23s-1.1-.64-1.15-.67c-.04-.04-.22-.1-.28-.06-.06.04-.19.11-.23.11s-.24-.05-.32-.09c-.08-.04-.09-.33-.25-.25s-.37.21-.42.19c-.05-.02-.32-.18-.34-.17-.03,0-.19.08-.21.06-.03-.02-.14-.24-.23-.31-.09-.07-.47-.31-.49-.3-.03,0-.15.13-.28.15-.13.02-.28.07-.35.02-.07-.05-.53-.42-.58-.4-.05.02-.34.22-.35.16-.02-.05-.35-.54-.42-.54s-.67.08-.67.08l-.24.14s-.29-.23-.31-.16c-.02.06-.15.58-.18.58s-.64,0-.65-.03c0-.03-.02-.19-.04-.24-.03-.05-.13-.24-.26-.28-.13-.05-.46.02-.46.02,0,0,0-.11-.04-.15-.04-.05-.11-.16-.19-.14-.09.03-.3.16-.33.16s-.18-.05-.18-.05c0,0-.11.14-.13.09s0-.26-.09-.29c-.1-.03-.16-.05-.17-.02,0,.03.06.23-.11.17-.17-.05-.37-.11-.45-.15s-3.42-2.11-3.45-2.13c-.04-.03-14.41-4.25-14.41-4.28s-.04-.36-.05-.42c-.02-.05-.48-1.05-.49-1.11s0-.39-.06-.49c-.06-.1-.23-.24-.23-.33s.04-.14-.03-.26c-.06-.13-.42-.86-.47-.88-.05-.02-.69.05-.72-.04-.03-.08-.1-.3-.14-.3s-.54.08-.53,0,.1-.4.04-.47c-.05-.07-.28-.25-.31-.24-.03,0-.2.26-.26.29s-.47.09-.51.05c-.04-.05-.38-.57-.38-.57,0,0-.25.09-.27.1-.03,0-.3-.04-.35-.08-.05-.05-.51-.49-.6-.49s-.3,0-.36.04c-.06.04-.12.15-.15.15s-.11-.04-.17-.1c-.06-.06-1.3-1.11-1.3-1.11,0,0,.12.15.09.18-.04.04-.12.08-.12.08l-.1-.2h-.12s.1-.16.09-.19c0-.03-1.29-1.26-1.29-1.26,0,0,.19.34.22.39.04.05.51.46.51.46,0,0-.59-.21-.64-.19-.05.02-.33.17-.27.21s.6-.02.65,0c.05,0,.38.17.38.17l-.27-.03-.03.15s-.15-.21-.25-.17c-.1.04-.18.05-.29.14-.11.08-.44.44-.56.45-.12,0-.46.08-.54.13-.08.05-.91.68-1.11.69-.2,0-.5-.12-.53-.14-.03-.02-.08-.17-.03-.25.05-.08.34-.41.38-.48.04-.07.08-.75.14-.82.06-.06.3-.08.38-.15.08-.07.44-.36.45-.44,0-.08-.41-1.05-.41-1.08s0-.17.03-.22c.04-.05.25-.12.26-.17.02-.05.04-.35.13-.38.09-.04.44-.21.44-.21,0,0,.04-.24.08-.29.04-.05.16-.06.23-.15.07-.09.2-.39.23-.45.03-.06.02-.21.05-.28.04-.07.07-.22.11-.27s0-.36,0-.36c0,0,.24.18.26.12.02-.06.11-.03.06-.2s-.05-.23-.14-.3c-.09-.07-.27-.14-.29-.17s-.11-.44-.12-.45c-.02-.01-.14-.07-.14-.07,0,0-.09.13-.15.13s-.21,0-.21-.06.02-.41-.02-.43c-.04-.02-.23-.12-.28-.13s-.2-.06-.2-.06c0,0-.6.64-.72.64s-.69-.34-.76-.2c-.07.14-.22.4-.31.45-.09.05-.55.25-.55.25,0,0-.12.35-.21.42-.09.06-.15.11-.23.12-.08,0-.34-.18-.38-.07-.04.11-.11.43-.18.46-.07.04-.44,0-.44,0,0,0,0-.39-.05-.3-.04.09-.06.31-.12.32-.06,0-.2.06-.2.06l-.11.21s-.13.08-.21,0c-.08-.08-.25-.22-.25-.26s.34-.45.34-.45c0,0-.03-.25-.09-.15s-.2.25-.25.32c-.04.06-.29.05-.36.14-.07.09-.27.39-.35.45-.08.06-.71.2-.83.29-.12.09-.39.25-.51.34-.12.09-.48.57-.54.6-.06.03-.25,0-.25,0,0,0,.23-.16.21-.19-.02-.03-.14-.18-.21-.11-.07.07-.26.25-.32.27-.06.03-1.09.41-1.24.45-.15.05-.62-.14-.81-.05,0,0-2.83,1.24-2.97,1.24s-.85-.03-.88,0c-.04.03-.16.18-.16.18,0,0-.05-.12-.12-.15-.07-.03-.12-.05-.22-.03-.1.03-.88.25-.91.22-.03-.03-.72-.54-.72-.54,0,0-.1-.05-.1-.03s.46.46.46.46c0,0-.31.07-.34.05-.04-.02-1.23-1.56-1.23-1.56,0,0-.56.25-.57.29-.02.05-.11.44-.15.44s-.28-.05-.37-.03c-.09.03-.26.11-.27.15-.02.05-.09.11-.07.16.02.05.22.12.26.18.04.06.05.14-.04.2-.1.06-.22.2-.26.28-.04.08,0,.26-.09.28-.1.02-.78.04-.82,0-.04-.04-.23-.37-.26-.24-.04.14-.48,12.22-.48,12.22,0,0-.6.27-.62.34-.02.06-.04.41-.11.52-.07.11-.18.35-.23.35s-.84-.25-.91-.22c-.07.03-.2.12-.29.22-.09.1-.34.69-.4.69s-.79-.15-.82-.15-.3.25-.31.27c0,.03.02.33-.05.33s-1.19.33-1.21.35c-.02.03,0,.15-.09.18-.08.03-.47.15-.47.15,0,0,.07.14,0,.18-.07.05-.72.46-.74.54-.03.08-.2.63-.23.65-.03.03-.34.32-.34.34,0,.03.08.35.05.42-.03.07-.2.29-.24.36Z"/>
      <path class="cls-1" d="M85.55,34.07v.48s.34,0,.34-.07-.03-.41-.07-.41h-.26Z"/>
      <path class="cls-1" d="M83.74,35.84c.06.05.25.19.25.16s.16-.33.18-.35c.02-.03.16-.11.18-.06.02.05.11.29.18.33.06.04.4.16.45.14.05-.03.18-.18.15-.22-.03-.04-.04-.31-.04-.35,0-.05.04-.14.11-.17.07-.04.25-.38.26-.44,0-.06-.04-.27-.08-.27s-.11.09-.13.05c-.03-.05,0-.22-.09-.25-.09-.03-.29-.14-.42-.08-.12.06-.29.09-.34.12-.04.04-.18.25-.19.19,0-.06-.03-.32-.06-.36-.04-.05-.09-.07-.09-.07,0,.03-.28.75-.27.79s.2.65.2.65c0,0-.13-.13-.16-.1-.03.03-.15.26-.09.31Z"/>
      <path class="cls-1" d="M84.53,36.5c.04.08.11.3.11.3,0,0,.03-.23,0-.34-.03-.11-.23-.41-.29-.46-.06-.05-.21,0-.21,0,.04.1.1.24.17.29.07.05.19.13.23.21Z"/>
      <path class="cls-1" d="M83.79,36.39v.2s.26.13.25.1c-.02-.03-.09-.24-.12-.26-.04-.03-.12-.04-.12-.04Z"/>
      <path class="cls-1" d="M79.32,41.47c-.04.1-.04.52-.04.52,0,0-.12-.04-.15,0-.03.04-.07-.19-.12-.12-.05.07-.27.2-.33.39-.05.19-.04.4-.11.45-.07.05-.11-.03-.15.08-.04.11-.19.38-.23.51-.04.13-.63,1.66-.62,1.69,0,.03.27.25.31.39.04.14-.04,1.04.06,1.11.1.06.41.25.41.25,0,0,.06-.12.09-.06.03.05.44.56.47.56s.45-.31.47-.36c.03-.05.14-.62.16-.64.02-.03.94-.59.94-.64s-.25-.54-.17-.62c.08-.07.62-.54.59-.56-.03-.03-.22-.29-.22-.35s-.04-.45-.02-.48c.02-.03.34-.71.39-.73.05-.02.34-.13.35-.19.02-.06.14-1.08.19-1.14.05-.05.26-.04.29-.02.03.02.12.29.12.29,0,0,.12-.04.14-.08s.02-.25-.02-.3c-.04-.05-.2-.14-.2-.23s-.05-.15.06-.17c.11-.03.19.08.24.13.04.05.08.13.11.12.04,0,.12-.22.12-.22,0,0,.13.07.13.03s0-.54-.05-.58c-.06-.04-.38-.24-.38-.24,0,0-.09-.3-.07-.37.02-.07,0-.22.09-.2.09.02.26.35.34.38.07.04.15-.02.17-.05.02-.03.11-.1.09-.17-.02-.07-.11-.12-.13-.23-.02-.11-.02-.22-.02-.37s0-.63.02-.65c.02-.03.16-.09.11-.15-.04-.05-.28-.55-.28-.55,0,0,.08-.15.11-.1.03.05.14.37.14.37,0,0,.02-.09.11-.05.1.04.34.09.34.15,0,.06,0,.29,0,.29,0,0,.2-.05.25-.08s.05-.21.05-.25-.09-.14-.06-.19c.03-.05.14-.15.13-.2,0-.05-.09-.05-.1-.15,0-.1-.07-.22-.04-.28.04-.06.11-.28.13-.32.03-.04-.12-.24-.18-.28-.06-.05-.43-.11-.43-.11,0,0,0,.23-.12.29-.12.05-.24.08-.26.05-.03-.03-.28-.24-.28-.24l-.08.12s-.03.77-.05.77-.3-.11-.35-.11-.12-.05-.18.11c-.05.16-.19.63-.19.7s.13.58.09.58-.32,0-.38.05c-.06.05-.21.03-.28.18-.07.15-.05.6-.09.61-.04,0-.15.02-.17,0-.02-.02-.11-.27-.14-.27s-.38-.02-.38-.02c0,0,.07-.19.04-.19s-.28.09-.26.21c.03.12.03.67,0,.72-.03.05-.26.04-.28.15-.02.12.06.62,0,.68-.06.06-.23.27-.26.37Z"/>
      <path class="cls-1" d="M78.09,38.8s-.17.09-.18.1c0,0-.04.12,0,.32.04.2.59.41.65.46.06.05-.1-.19-.11-.25s0-.83,0-.83l-.28.29s-.04-.1-.08-.1Z"/>
    </g>
  </g>
</svg>