<svg xmlns="http://www.w3.org/2000/svg" id="Layer_2" data-name="Layer 2" viewBox="0 0 85.9 95.2"><defs><style>.cls-1{fill:#172d35}</style></defs><g id="_Ñëîé_1" data-name="Ñëîé 1"><path d="M30.1 7.2h-.4zl.3.2zm.2-.5L31 6h.8v-.3h-.2v-.4l1.3-.4q.2 0 .1-.2l-.4-.5h-.3l-.5.6-1 .7v.1l-.9.4.1.2v.5zm.6-2.4-.3.1-.2.7.4-.3.2-.3zm.8-.5-.5.2h.3zm3 .1-.6.2-.3.3h.6zM34 2.6l-.4-.3-1.4.5-.2.4v.3h.2l.4-.2.2.1.3-.2.2.2.1.2h.1v-.4h.2zm-2.5.7-.1-.3-.3-.5-.4-.1-.3.2.1.5.3.3zm.1-1.6v-.1l-.3-.1-.2.5h.3zm.5.7.1-.3-.4.1-.2.4.2.1zm.6-.7-.1-.2h-.3v.3l.1.2zm.7 0v-.3l-.2-.3V.8L33 1l.1.7zM32.2 1V.7H32v.4h.1zM32 .6l-.2.2h-.3l-.1.5h.2l.1-.3zM31 0h-.1v.4l.1-.2zm-.3 1.4-.1-.3-.2-.2-.2.3v.4l.3.1zm-.6.6-.3.3h.3zm-1-.1-.3-.1.3.3zM28 1.5v.2l-.5.1-.1.2.2.4h.5v-.6zm7.3-.2.2-.8V0H35l-.2.4-.2 1.4.5-.2.3-.4Z" class="cls-1"/><path d="m1.7 25.7-.2.5-.4.6-.8.4-.3 1.6V30l.2.2.8.2.6-.1.3.2.3.4v.5l.6 1 .4.3v1.1l-.8.8v.8c-.1 0-1 .7-.9.8v1.3l-.1.6.2.5v1.1l-.8.8v.6l.5.5-.1.9.1.5v.8l-.3.4v1.2l-.2 1-.3.5v.4l1 .7L3 49.7v.4l.8.4.2.6h.7l.8.1 1.5.4.5.5.2 1s.8.8 1 .8l1.8.7 1.8 1.2.6.7v.4l-.1.3.4.4.1.5v.5l.3.6.9.9s1 .4 1 .6l.3.5.5.4 1 1 .4.2.9.2 1.1.5.8 1.1.2.6.6.6.2.6q.2 0 .3.4l.2 1 .3.4-.5 2.2.2.4v.6l.4.7c0 .1-.2.8-.1 1l.3.5-.1.5-.1.8.3.6v.5l-.1.8.1.2.8.3.7.6.5 1.2-1 1.2-.3 1-.4.2v2l.2 1v.3l.2.4v1c0 .2.5.6.5.7l.2.6.2.3v.8l.2.9.2.3h.2q0 .3.2.3l1 .8h.4l.5.3 2.6.8.3.3.4 1.3.4.6v.5l16.1.3 11.6.3 14.2-.2-.1-.8-.1-1.8.6-2.2v-.6l.2-.5-1-1-.3-1.3v-1.5l-.9-1.1.2-.6.4-.6-.2-.5-.4-.5.3-1-.2-.5c0-.1-.3-1.2-.2-1.3l.3-1 .2-1.4.6-1.1.2-.5.3-.8v-1.6l1.2-2.4V69l.2-.3-.5-.9-.2-1.4.3-1.2.3-.7v-.4l.2-.8.4-.5v-1l.5-.5.9-.4.5-.9s.2-.7.1-.8L76 58l-.1-.8.3-1.2.2-1.8.5-1.8.4-1.1c0-.1.6-.6.6-.8l.6-1.3s.6-1.8.5-1.9l-.6-.5-.5-.2-.4-1h-.4l.1-.2h.2v-.1h-.2l-.7.7-.4-.3.1.3-.1.2-.2-.2-.2.5-.2.2v-.4l.1-.2h-.4l-.5.4-1.5 2.3v.7l-.5.9-.3.2H72l-.4.4h-.2l-.5.6-.3.3h.2l-.2.4-.3.6h-.6l-.5-.3H69v-.4l-.2-.1V52h.4v-1 .2l.4.3v.3l.1-.3-.4-.4-.2-.4.1-.2V50h.2l-.1-.1h.3l-.1-.7V49l.5-.7.3-.1V48l.3-.6v-.6l.6-.4.3-.8.1.1v-.2h.2l-.3-.7.1-.3.3-.4.8-.3 1-.2h.7l-.2-.2h.3l.1-1.4.2-.6.4-.1-.5-.4-.6-.1-.4-.8-.7-.6v-.3l.1-.5v-.4l.2-.2v-.4l.2-.6.6-.9v-.5c0-.1-.4-.7-.6-.6l-.9.8h-1l-.3.2-.3-.4-.2.1.5-1-.1-.5V34l.6-.7.1-.3.3-.2-.3-.5v-.5l-.4-.4h.5l.1-.2.1-.8-.6-.9v-.2l.6-.3-.4-.5v-.2L71 28l-.3-.5-1.2-.1-.4-.3v-.2l-.2-.3-.7.3-.7-.2s-.5-.5-.4-.6l.7-1-.3-.4V24l-1.1-.6-.3-.1-.2.1h-.4q0-.3-.2-.3l-.4.2-.4-.2h-.2l-.2-.3-.5-.3-.3.2H63l-.6-.4-.4.2-.4-.6-.6.1-.3.1-.3-.1-.2.6h-.6v-.3l-.3-.3h-.5l-.2-.2-.3.2H58v-.2h-.2l-.1.1-.5-.1-3.4-2.2-14.4-4.3V15l-.6-1v-.6l-.3-.3v-.3L38 12h-.7l-.1-.4h-.6V11l-.2-.2-.3.3h-.5l-.4-.5h-.6L34 10h-.4l-.1.2-.2-.1L32 9l.1.2H32l-.1-.2h-.1l-1.2-1.3.7.8-.6-.1s-.4.1-.3.2h.6l.4.1h-.2v.2l-.3-.2-.3.1-.6.5-.5.1-1.1.7-.6-.1v-.3l.4-.5.1-.8.4-.1.5-.5-.4-1v-.3l.2-.2q0-.2.2-.3l.4-.2.1-.3.2-.2.3-.4v-.3l.1-.3V4h.3l-.1-.3-.3-.2-.1-.4-.2-.1-.1.1h-.2v-.5l-.3-.1H29l-.7.6c-.1 0-.7-.4-.8-.2l-.3.4-.6.3-.2.4-.2.1q-.1-.1-.4 0l-.2.4h-.4v-.3l-.2.3v.3h-.3l-.2-.3.3-.4v-.2l-.3.4H24q-.1.4-.3.5l-.9.3-.5.4-.5.6h-.3l.2-.2-.2-.1-.3.2-1.2.5h-.8l-3 1.2h-.9l-.2.2v-.2h-.3l-.9.2-.7-.5H13l.4.4h-.3L12 6.2l-.6.3-.2.4H11l-.3.1v.2l.2.2v.2l-.3.3V8h-1q0-.2-.2-.2L8.8 20l-.6.4v.5q-.3.1-.3.3c0 .2-.9-.2-1-.2l-.2.2-.4.7-.8-.1-.3.2v.4l-1.3.3v.2l-.6.1v.2l-.7.6-.2.6-.4.4v.4l-.2.3ZM85.6 34v.6l.3-.1V34zm-1.9 1.8.3.2.2-.3.1-.1.2.3.5.2.1-.3v-.3l.1-.2.3-.4-.1-.3h-.1l-.1-.2h-.8l-.2.2v-.3H84l-.3.7.2.6h-.2z" class="cls-1"/><path d="m84.5 36.5.1.3zl-.2-.5H84l.2.3zm-.7-.1v.2h.2v-.2zm-4.5 5.1v.5H79v-.1q-.3 0-.4.4l-.1.4h-.2l-.2.6-.6 1.7.3.4v1l.4.3h.1l.5.5.5-.3.1-.7 1-.6s-.3-.5-.2-.6l.6-.6-.2-.3v-.5l.3-.7.4-.2.2-1.2h.3l.1.3h.1v-.4l-.2-.2V41q.3 0 .3.2h.1l.1-.1h.2v-.6l-.5-.2v-.6q.3.1.4.4h.2v-1.6l-.2-.6v-.1l.2.4h.5v.4l.2-.1V38l.1-.2v-.1l-.1-.3.1-.3-.2-.3-.4-.1-.1.3h-.3l-.2-.2-.1.1v.8l-.4-.1h-.2l-.2.8.1.6H81l-.3.2v.6h-.2l-.2-.3H80v-.2l-.3.2v.8l-.2.1v.7zM78 38.8v.4c0 .2.5.4.6.5l-.1-.3v-.8l-.3.3z" class="cls-1"/></g></svg>