<?xml version="1.0" encoding="UTF-8"?>
<svg id="Layer_2" data-name="Layer 2" xmlns="http://www.w3.org/2000/svg" viewBox="0 0 101.99 95.25">
  <defs>
    <style>
      .cls-1 {
        fill: #172d35;
      }
    </style>
  </defs>
  <g id="_Ñëîé_1" data-name="Ñëîé 1">
    <path class="cls-1" d="M.58,67.96s-.58.07-.58.13.05.77.05.77c0,0,.27.12.3.2.03.07.1.26.1.26,0,0,.27.12.34.16s.24.28.26.35c.02.07.02.39.05.43.04.04.7.54.71.57,0,.03.26.98.28,1.02.02.04.34.65.34.68s-.05.22,0,.24c.05.02.56.07.6.15.04.08.1.3.1.3h.32s.13.11.1.18c-.03.07-.11.15-.14.17-.03.02-.33,0-.25.16.08.17.22.26.17.33-.05.07-.5.33-.47.35.03.02.08.17.08.17,0,0-.22.07-.2.13.02.06.4.13.38.18-.02.05-.12.22-.09.24.03.02.23.13.23.13l.05.23s.21-.24.24-.23c.03,0,.54.38.57.44.03.06.25.34.29.39.04.06.02.29.05.34.04.05.11.11.11.11l-.21.2s.12.12.12.18-.04.19-.03.21c0,.03.37.53.37.57s-.04.42-.04.42l.33-.11s.12.35.21.38c.09.04.74.43.74.46s.05.25.05.25c0,0,.24.07.23.11,0,.05-.11.21-.11.21,0,0,.37.06.35.08-.02.03-.37.61-.37.61,0,0,.28.09.28.2s.16.64.19.7c.03.06.21.19.21.21s-.09.15-.06.21c.03.06.08.22.08.25s-.11.23-.11.23c0,0,.16.02.18.08.02.07.06.07.06.07,0,0,.17-.18.23-.13.05.05.41.49.46.49s.44-.08.46-.07c.03.02.24.23.27.29.03.06.14.26.14.31s-.05.22-.03.26c.03.04.14.12.18.13.04,0,.43-.02.43-.07s-.07-.4-.05-.47c.03-.07.12-.17.18-.14.06.03.14,0,.14.08,0,.07.04.47.04.5s-.07.21-.07.21c0,0,.29.03.26.07-.03.04-.07.25-.07.25,0,0,.21.04.23.1.02.07-.03.34.05.38.07.05.32,0,.35,0s.19.2.2.28c0,.08,0,.21-.03.26-.02.06-.31.2-.31.2,0,0,.14.08.16.17.03.08.1.25.1.25h.17s.03-.12.1-.13c.07,0,.26-.03.26-.03,0,0-.03.13.09.16.12.03.48-.07.49-.05,0,.03.25.46.28.48.03.02.37.23.38.17,0-.07.05-.4.08-.35.04.05.09.2.17.2s.27-.07.34,0c.06.06.07.12.11.1.04-.02.23-.16.25-.16s.09.07.2.05c.11-.02.39-.2.44-.2s.12,0,.12.07-.13.16-.06.21c.06.05.42.1.43.16,0,.06.07.38.07.38,0,0,.25-.08.25,0s.04.13,0,.15c-.04.02-.44.28-.44.32s.02.24-.02.22c-.04-.02-.36,0-.36,0,0,0-.35.19-.39.25-.04.06-.21.24-.16.33.05.08.15.41.22.44.06.03,1.02.52,1.02.55s0,.31,0,.35.22.44.22.44c0,0-.06.05-.09.15-.03.1-.12.49-.1.66.02.17.1.46.22.59.12.13.37.57.52.66.15.09.38.05.42.09.04.05.26.31.26.36s.02.3.02.3c0,0,.24.13.24.18s.03.36.05.38c.03.02.52.27.52.27,0,0,.52-.13.61-.14.09,0,.77.26.83.32.05.06.21.34.21.34l.15.57s.35.05.4.08c.05.04.83.94.95.95s2.39-.07,2.48-.08c.09-.02,1.02-.67,1.04-.7.03-.03.34-.58.34-.58,0,0,.19.12.26.1.07-.02.73-.52.82-.54.09-.02.47-.02.52-.06.05-.04.26-.34.26-.34,0,0,.23-.74.28-.76.05-.03.54-.31.54-.31,0,0,.1-.38.17-.34.07.05.93,1.09,1,1.17.06.07,1.83,1.71,1.86,1.68.03-.03,1.31-.8,1.34-.82.04-.02,1.16-.42,1.19-.42s2.49-.64,2.51-.62c.03.02.25.27.25.27,0,0,.31.02.37-.02.06-.04.93-.38,1-.44.07-.06,1.34-1.03,1.29-1.07-.04-.05-.67-.97-.67-1s.39-.62.39-.67-.03-.26-.02-.29c0-.03.07-.33.15-.31.07.02.43.13.46.17.04.04.69.77.73.77s.37.12.39.15c.02.03.19.48.27.48s1.53-.71,1.56-.72c.03,0,1-.55,1-.55,0,0,1.67-1.25,1.73-1.29.06-.04.54-.23.6-.26.06-.03.58-.11.65-.11s.13.09.17.21c.05.11.13.38.15.41.02.03-.07.25-.02.39.05.14.36.44.36.44,0,0,.33-.04.38-.07.05-.03.29-.15.31-.18.02-.03.59-.54.59-.54,0,0,.94-.46.96-.5.02-.05.1-.33.22-.38.12-.06.92-.37,1.01-.4.08-.03.34-.35.37-.39.03-.04.25-.49.25-.51s-.25-.13-.25-.13l-.24.27s-.62-.15-.58-.2c.04-.05.35-.24.39-.27.04-.03-.33-.55-.22-.61.11-.06,1.32-.76,1.4-.8.08-.05.79-.81.76-.87-.03-.06-2.14-1.48-2.01-1.57.13-.08.6-.29.65-.34.05-.05.63-.69.64-.74.02-.05.07-.21.05-.23-.02-.03-.23-.17-.21-.26.02-.09.15-.42.17-.48.03-.06.4-.45.42-.48.02-.03.28-.04.29-.13,0-.09-.09-.35-.1-.41,0-.07-.04-.22,0-.29.05-.07.54-.74.58-.76.04-.03.32-.2.32-.25s-.06-.14,0-.28c.05-.14.26-.58.4-.7.14-.12.29-.22.34-.24s.23-.08.28-.15c.05-.07,1.15-1.35,1.21-1.44.05-.08,1.53-1.5,1.6-1.54.06-.04.12-.34.14-.4.03-.07.27-.46.34-.56.07-.1.55-1.33.56-1.42,0-.08.44-.59.44-.65s-.21-.26-.23-.32c-.02-.06-.06-.35-.05-.37.02-.03.21-.16.24-.19.03-.03.17-.36.21-.44.04-.07.16-.38.14-.45-.03-.07-.16-.38-.11-.43.05-.05.38-.21.45-.27.07-.06,1.03-1.18,1.09-1.28.06-.09,1.11-.68,1.12-.72.02-.04,0-.35,0-.44-.02-.08-.37-.57-.37-.63s-.02-.09.06-.21c.08-.11.63-.61.67-.69.05-.08.21-.5.24-.5s.48-.03.51-.05c.03-.02.14-.07.16-.17.02-.09-.05-.23-.04-.35.02-.12.04-.27.08-.35.05-.07.67-1.16.72-1.27.05-.11.11-.57.07-.67-.04-.1-.18-.36-.19-.42,0-.06.02-.47.05-.54.04-.07.16-.43.3-.49.14-.07.27-.08.28-.14,0-.06,0-.19,0-.25s-.09-.14-.09-.21.05-.59.06-.67c.02-.08.3-.89.34-.92.04-.04.23-.14.23-.14,0,0,2.13,1.04,2.18,1.12.05.08.83,1.56.86,1.6.04.04.34.97.44,1.01.09.04,3.33,1.18,3.33,1.18,0,0,.13,0,.21-.02.08-.02.54-.27.54-.27,0,0,0-.22,0-.25,0-.03.56-.6.56-.6,0,0,.16-.05.18-.07.02-.03.11-.37.11-.37l.29-.22s.31-.47.32-.52c0-.06.05-.75.07-.82.03-.07.83-1.55.85-1.63.03-.08.17-.79.17-.87s.44-.97.49-1.03c.05-.06.16-.17.19-.17s.25.04.31.04.23-.03.24-.07c.02-.05.13-.6.13-.64s-.11-.43-.11-.48.19-.93.22-1c.03-.07.49-.9.52-.97.03-.07,0-.38,0-.44,0-.06.17-.15.21-.17.04-.02.37-.05.37-.07s.05-.57.05-.57c0,0,.33-.25.34-.28,0-.03.2-.37.2-.42s-.11-.34,0-.29,2.74,2.34,2.74,2.34l.91-1.85s.33-.88.33-.9.38-.77.44-.81c.05-.04.47-.38.47-.38,0,0,.32-.49.36-.54.05-.05.3-.25.36-.25s.15,0,.19.09c.04.08-.07.63-.07.63,0,0,.08.05.15,0,.07-.06.73-.59.74-.62,0-.03.48-.95.49-.98,0-.03.54-.55.54-.55,0,0,.44.46.49.41.05-.05,1-1.4.96-1.45-.04-.05-.44-.36-.38-.44.06-.07,1.52-1.89,1.55-1.92.03-.03.49-.25.56-.29.07-.04.3-.25.35-.31.05-.06.3-.69.34-.74.05-.05.54-.45.55-.49,0-.05.05-.17,0-.19-.05-.02-.47-.25-.48-.31,0-.06-.03-.29-.03-.29,0,0-.17-.07-.15-.13.03-.07.6-1.03.62-1.08s.05-.23,0-.31c-.06-.07-.36-.15-.31-.23.05-.08,1.25-1.8,1.25-1.83s.17-.58.17-.58c0,0,.16-.18.13-.21-.04-.03-.53-.25-.49-.3.04-.05.35-.62.33-.72-.03-.1-.24-.56-.24-.6,0-.04.17-.38.16-.43,0-.05-.09-.27-.06-.33.03-.06.1-.28.1-.32s.04-.47.04-.47l6.92,5.66,3.91,3.22s.12,0,.14-.08c.02-.08.65-2.23.65-2.26s.33-.55.34-.61c0-.06.02-.41.04-.46.02-.05.22-.26.22-.31s.2-.79.2-.79c0,0,.23-.52.24-.55,0-.03.32-.31.32-.31,0,0-.56-.16-.61-.21-.05-.05-.2-.17-.19-.21,0-.05.25-.42.25-.49s-.15-.65-.13-.69c.03-.04.27-.21.27-.24s-.27-.86-.33-.88c-.05-.02-.13-.11-.22-.14-.09-.03-.56-.06-.56-.06,0,0-.23-.18-.22-.21,0-.03.27-.15.26-.21,0-.07-.29-.35-.2-.38.09-.03.36,0,.31-.07-.05-.07-.35-.43-.33-.46.03-.03.54-.35.54-.38,0-.03.06-.15.04-.17-.03-.02-.22-.11-.24-.08-.03.03-.37.33-.43.33s-.84-.17-.84-.17c0,0-.12-.19-.09-.21.03-.02.33-.33.32-.35,0-.03.09-.3.05-.33-.04-.03-.14-.15-.2-.07-.06.08-.11.29-.17.32-.06.03-.35.16-.37.1-.02-.06-.1-.57-.1-.57,0,0-.38-.35-.38-.39s0-.23.05-.25c.04-.02.79-.15.83-.2.05-.05.23-.32.22-.39,0-.07-.08-.57-.1-.6-.02-.03-1-.37-1-.37,0,0-.08.06-.06.1.02.05.13.2.11.24-.02.05,0,.13-.1.12s-.59-.13-.62-.14c-.03,0-.49-.39-.49-.36s.11.28.1.35c0,.07,0,.34-.05.38-.05.05-.1.15-.15.14-.05,0-.17-.14-.17-.14l-.08-.43s-.13-.04-.24.04c-.11.07-.26.18-.29.19-.03,0-.53,0-.56-.05-.04-.05-.6-.87-.68-1-.08-.13-.51-.56-.6-.63-.09-.07-.67-.43-.7-.46-.03-.03-1.56-.39-1.56-.39l-.44.45s-.57.16-.57.19.1.35.08.37c-.02.03-.61.64-.62.68,0,.04-.14.53-.22.5-.08-.03-1.8-.61-1.82-.55-.03.06.12.34,0,.33-.12,0-.37-.06-.37-.06,0,0-.11.05-.1.1,0,.06.15.31.16.37,0,.07-.05.14-.11.13-.06,0-.32-.1-.32-.1,0,0-.2-.19-.31-.21-.11-.03-.45-.07-.47,0-.02.06.03.25.09.33.06.07.6.37.62.49.02.11,0,.21-.04.23-.03.03-.12.1-.21.1s-.61-.24-.65-.24-.37.08-.36.13c0,.05.17.39.2.41.03.02.54.32.56.35.02.04.06.2.04.2s-.35-.13-.35-.08.12.29.05.29-.33-.22-.36-.23c-.04,0-.19-.03-.15.04.04.07.15.21.15.28s-.14.09-.15.15c0,.06,0,.19-.05.26-.05.07-.07.23-.15.22-.08,0-.19-.12-.28-.11-.09,0-.24.09-.32.07-.08-.02-.4-.21-.45-.22-.05-.02-.83.22-.86.21-.03,0-.52-.21-.54-.24-.02-.04-.07-.25-.1-.24-.03,0-.19.09-.19.09,0,0-.34-.12-.4-.12s-.54.14-.57.11c-.04-.03-.55-.2-.59-.22-.04-.03-.92-.58-.93-.61,0-.03-.28-.55-.28-.55,0,0-.07.16-.15.14s-.39-.09-.41-.16c-.02-.07-.12-.41-.12-.44s.17-.21.17-.21c0,0,.38.05.44,0,.05-.04.13-.17.12-.21,0-.05-.25-.29-.27-.27-.03.02-.35.24-.37.21-.02-.03-.24-.12-.24-.16,0-.04-.02-.16,0-.2s.16-.34.16-.34c0,0-.59.35-.59.38s.07.5.05.53c-.02.03-.29.2-.29.2l-.34.6s.27.29.29.37c.02.08.02.2,0,.21-.03,0-.64-.03-.65.02s-.08.3-.13.35c-.05.06-.34.4-.34.4,0,0-.08.36-.13.36s-.31-.03-.31.02.08.12,0,.16c-.07.04-.22.11-.24.16-.02.05-.04.28-.06.34-.03.06-.18.32-.22.32s-.16-.07-.24,0-.17.13-.19.22c-.02.09-.05.31-.1.36-.05.06-.29.14-.29.2s0,.57,0,.57c0,0-.13.04-.16.03-.04,0-.97-.63-1.04-.65-.07-.02-.35-.06-.35-.06l-.33-.38-.08.03s-.09.22-.13.21c-.04,0-.07-.27-.2-.21-.13.07-.31.23-.37.21-.06-.03-.33-.15-.34-.07-.02.07.19.23.15.27-.05.04-.21.05-.22.1,0,.06.05.21.05.24s-.19.24-.19.29.14.19.08.25c-.05.07-.37.06-.39.1-.02.05.03.22-.03.26-.05.04-.18,0-.2.08-.02.08-.05.36-.09.28-.04-.08-.09-.32-.17-.28-.08.04-.3.46-.3.46,0,0,.22.41.11.36s-.28-.34-.3-.27c-.02.07.07.21-.04.22-.11.02-.37,0-.38.06,0,.07-.28.62-.35.65-.07.04-.8.21-.8.28s-.03.47-.05.48c-.03,0-.13.05-.25.17-.13.12-.22.2-.3.35-.08.15-.12.55-.21.54s-.29-.18-.51-.1c-.22.07-.43.14-.46.23-.04.09-.06.21-.1.28-.04.07-.68.46-.8.55-.12.09-.75.72-.76.86,0,.14,0,.27-.05.32-.05.05-.43.32-.52.33-.09,0-.22.03-.28.09-.06.07,0,.19-.13.17-.14-.02-.37,0-.37-.09s.07-14.25.07-14.25l-21.3.17-.05-25.49s-.34.05-.55.18c-.22.13-.46.45-.56.42-.1-.03-.41-.35-.55-.3-.15.05-.34-.03-.52.22-.17.25-.72.76-.72.84s-.14.27,0,.39c.14.12.38.35.44.45.06.09.24.35.31.62.06.27.12.58.19.76.07.19.43.82.44.89,0,.07-.31,1.03-.33,1.1s0,.78,0,.82c-.02.04-.38.21-.34.31.05.09.48.3.44.55-.05.25-.06.58-.06.68s.25.69.23.79c-.02.1-.34.85-.37.98-.03.13.07.41-.02.49-.09.08-.66.46-.72.66-.05.21-.34,1.31-.36,1.35-.02.05-.62.94-.63,1.04,0,.09-.09.55-.13.75-.04.2.05.67,0,.75-.05.07-.67.61-.61.76.06.15.11.57.12.68,0,.11-.19.98-.19,1.14s.1.96.07,1.02c-.03.06-.57.74-.54.81.03.07.24.88.21.9-.03.02-.12.15-.21.14-.09,0-.52-.25-.61-.22-.09.03-.25.11-.24.17,0,.06.3,1.08.31,1.11,0,.03-.15.28-.24.36-.09.08-.5.34-.5.36s.1,1.03,0,1.16c-.1.13-.76.82-.81.9-.05.08-.07.22,0,.39.07.17.16.36.26.44.1.07.27.35.31.38.04.04.16.35.15.41-.02.07-.05.26-.15.33-.1.07-.51.2-.5.3.01.1-.12,1.1-.1,1.14.02.04-.18.62-.24.71-.05.09-.18.2-.3.21-.12,0-.76,0-.84.06-.08.05-1,.88-1.1,1.01-.1.13-2,2.07-2.06,2.18-.06.11-.8,1.37-.83,1.39-.03.02-.7.12-.88.24s-.49.47-.56.58c-.07.11-.15.25-.2.35-.05.09-.15.49-.2.53-.05.04-.68-.07-.76-.05-.08.03-.43.2-.53.23s-.65.43-.74.49c-.09.06-.66.44-.72.47-.05.03-.45.16-.53.14s-.32-.17-.35-.26c-.04-.09-.21-.44-.24-.51-.03-.07-.24-.76-.34-.85-.1-.08-.09-.23-.34-.26-.25-.03-.33-.08-.52.07-.19.15-.54.75-.73.88-.2.13-.87.4-1.04.64,0,0-.16.15-.15.3,0,.15-.22,1.95-.29,1.94-.07,0-.79-.22-1.03-.23s-.57-.1-.79-.05c-.22.06-.57.3-.64.4-.07.1-.11.39-.11.49s.03.66,0,.66-.58.04-.61.16c-.03.12-.23.45-.29.55-.06.1-.36.38-.36.43s.18,1.04.24,1.19c.05.15.05.61,0,.76-.05.16-.17.44-.24.55-.07.11-.38.31-.47.31s-.6-.19-.65-.15c-.05.04-.13.06-.1.15.03.09.19.74.21.77s.53.55.57.63.21.3.2.43c0,.13,0,.36-.09.53-.1.17-.22.37-.25.54-.03.17-.06.32-.03.37.04.06.37.55.36.65,0,.1,0,.29-.08.33-.07.04-.37.06-.43,0-.05-.06-.41-.45-.54-.48-.13-.03-.27-.14-.34-.07s-.2.12-.25.36c-.05.24-.12.58-.15.71-.04.13-.14.3-.38.49s-.33.34-.51.34-.4-.1-.5-.17c-.1-.07-.28-.26-.3-.35-.02-.09.05-.35.13-.43s.44-.59.44-.62-.66-1.66-.75-1.72c-.09-.06-.15-.12-.26-.11-.11,0-.42.21-.47.11-.05-.09-.4-.77-.51-.85-.11-.07-.33-.18-.5-.14-.17.04-.25.04-.29.14-.04.1-.16.6-.25.72-.09.12-.82.61-.87.71-.05.1-.64,1.52-.71,1.61-.06.09-.32.26-.36.4-.05.14-.06.35-.06.45s.06.68.05.79c0,.11-.1.45-.18.52-.08.07-.21.22-.33.31-.12.08-.61.36-.69.4-.08.04-.3.22-.36.34-.06.11-.18.42-.08.56s.47.47.47.6.02.42.05.54c.03.12.2.62.18.71-.02.09-.27.66-.18.79s.27,1.04.33,1.21c.05.17.09.51,0,.69-.08.18-.13.33-.23.38-.1.06-.36.18-.54.2s-1.11-.17-1.13-.16c-.03,0-.54.39-.54.47s-.34,2.3-.41,2.44c-.06.14-.34,1.07-.34,1.1,0,.03-.4.24-.43.25-.03,0-.54.14-.57.14s-.86-.05-.94-.04c-.08,0-2.24.86-2.42.87-.18,0-.66.07-.76,0-.1-.07-.51-.45-.53-.38-.02.07-.15,1.8-.12,1.83.03.03.44.74.44.82s-.12.6-.12.72.08,1.04.08,1.04c0,0-.11.25-.19.31-.08.06-.44,0-.49.07-.05.06-.11.11-.11.21s-.02.18.05.27c.06.09.26.31.26.31,0,0,.04.17-.02.27-.05.1-.34.91-.34.91Z"/>
  </g>
</svg>