<svg xmlns="http://www.w3.org/2000/svg" data-name="Layer 2" viewBox="0 0 102 95.3"><path d="M.6 68H0v.9l.4.2v.2l.4.2.3.3v.5l.7.5.3 1 .3.7v.3l.6.1.1.3h.3l.1.2v.2l-.3.1.1.4-.4.3v.2l-.2.1.4.2v.2l.2.2v.2l.2-.2.6.4.3.4v.3l.2.1-.2.2v.4l.4.6v.4H5l.2.3.8.4v.3l.2.1v.2l.3.1-.4.6.3.2.2.7.2.2v.5l-.1.2H7v.2l.3-.2.4.5h.5l.3.2.1.3v.3l.2.1h.4v-.5l.1-.1h.1v.7l.3.1v.3h.1v.4h.4l.2.3v.3l-.3.2.2.2v.2h.2l.1-.1h.3v.1h.6l.2.4.4.2s0-.4.1-.3l.2.2h.4l.3-.1h.2l.4-.2.1.1v.2l.4.2v.4h.3v.1l-.4.3v.3h-.4l-.4.2-.1.3.2.5 1 .5v.4l.2.4v.2l-.2.6.2.6.6.7h.4l.2.4v.3l.3.2v.4l.6.3.6-.2.8.3.2.4.2.5.4.1s.8 1 1 1l2.4-.1 1-.7.4-.6.2.1.9-.5h.5l.2-.4.3-.8.6-.3s0-.4.1-.3l1 1.1 1.9 1.7 1.3-.8 1.2-.4 2.5-.6.3.2h.4l1-.4s1.3-1 1.2-1.1l-.6-1 .4-.7v-.3l.1-.3.5.2.7.8.4.1.2.5 1.6-.7 1-.6 1.7-1.3.6-.2.7-.1.2.2.1.4v.4l.3.4h.4l.3-.2.6-.6 1-.5.2-.4 1-.4.4-.3.2-.6h-.2l-.3.2-.5-.2.4-.3s-.4-.5-.3-.6l1.4-.8.8-.9s-2.1-1.4-2-1.5l.6-.4.7-.7v-.2l-.2-.3.2-.5.4-.5h.3l-.1-.5v-.3l.6-.8.3-.2v-.3l.4-.7.3-.2.3-.2 1.2-1.4 1.6-1.6.2-.4.3-.5.6-1.4.4-.7-.2-.3v-.4l.2-.2.2-.4.1-.5v-.4l.4-.3 1-1.2 1.2-.8v-.4l-.4-.6v-.2l.7-.7.3-.5h.5l.1-.2v-.7l.8-1.3v-.7l-.1-.4v-.5l.3-.5.3-.2v-1.1l.3-1h.3l2.1 1 .9 1.7.4 1 3.4 1.1h.2l.5-.2V61l.6-.6h.2V60l.4-.3.3-.5v-.8l.9-1.6.2-.9.5-1 .1-.2h.6l.1-.7v-.4l.1-1 .5-1v-.5l.3-.1h.3v-.7l.4-.2.2-.5v-.3l2.8 2.4.9-1.9.3-.9.4-.8.5-.4.4-.5.3-.2h.2v.7h.1l.7-.6.5-1 .6-.6s.4.5.5.4l1-1.4-.5-.5 1.6-1.9.5-.3.4-.3.3-.7.6-.5v-.2l-.5-.3v-.3l-.2-.1.6-1.1V38l-.3-.2L89 36l.2-.6v-.2l-.4-.3.3-.7-.2-.6.1-.4v-.7l.1-.4 7 5.6 3.9 3.2h.1l.6-2.3.4-.6v-.5l.2-.3.2-.8.3-.5.3-.3-.6-.2-.2-.2.3-.5-.2-.7.3-.3-.3-.8-.3-.2h-.5l-.2-.3.2-.2-.2-.3.3-.1-.3-.5.5-.4v-.1l-.2-.1-.4.3-.8-.1-.1-.3.3-.3V30l-.1-.1-.2.3-.4.1v-.6l-.5-.3V29l1-.2.1-.4V28l-1-.4-.1.1v.4l-.6-.1-.5-.4v.7l-.1.2-.2-.2v-.4h-.3l-.3.2h-.6l-1.2-1.6-.7-.5-1.6-.4-.4.5-.6.1v.4l-.6.7s0 .5-.2.5l-1.8-.6v.4h-.4l.1.4-.1.1H88l-.3-.3h-.5v.3l.7.5v.3h-.3l-.6-.2-.4.1.2.5.6.3v.2h-.3v.2l-.3-.2h-.2l.2.3-.2.2v.2l-.2.2h-.6l-.4-.2-.9.2-.5-.3-.1-.2-.2.1-.4-.1h-.6l-.6-.1-.9-.6-.3-.6-.1.1-.4-.1-.2-.5.2-.2h.4l.2-.2-.3-.2-.4.2-.2-.2v-.2l.1-.3-.5.3v.6l-.3.2-.3.6.3.3v.3h-.7l-.1.3-.4.4v.4h-.4v.2l-.2.1v.4l-.3.3H77l-.1.2-.1.4-.3.2v.5h-.2l-1-.6h-.4l-.3-.4-.2.2q0-.2-.2-.2l-.4.2h-.3l.1.2-.2.1v.3l-.1.2v.3l-.4.1v.3h-.2v.3l-.2-.3-.3.5q.2.2 0 .4c-.1.2-.2-.4-.2-.3v.2h-.5l-.3.7-.8.3v.5l-.3.1-.3.4-.2.5H69q-.4 0-.5.2v.2l-.9.6c-.1 0-.7.7-.7.9v.3l-.6.3-.3.1-.1.2-.4-.1V25.3l-21.2.2V0l-.6.2-.6.4-.5-.3-.6.2c-.1.3-.7.8-.7.9s-.1.2 0 .4q.3.1.5.4l.3.6.2.8.4.9-.3 1v.9l-.4.3c0 .1.5.3.5.6v.6c0 .1.2.7.1.8l-.3 1v.5l-.8.7-.3 1.3-.7 1v1.5c-.1.1-.8.7-.7.8l.1.7-.2 1.1.1 1c0 .1-.6.8-.5.9l.2.9-.2.1-.6-.2-.3.1.3 1.2-.2.3-.5.4v1l-.8 1v.3l.2.5.3.3.2.5-.2.3-.5.3v1.1l-.3.7-.3.2-.8.1-1.1 1c-.1.1-2 2-2 2.2-.2.1-.9 1.4-1 1.4l-.8.2-.6.6-.2.4-.2.5h-.7l-.6.2-.7.5-.7.4-.5.2-.4-.3-.2-.5-.4-.9-.3-.2H25l-.8 1q-.5 0-1 .6l-.2.3-.2 2-1-.3h-.9l-.6.3-.1.5v.7l-.6.1-.3.6-.4.4.3 1.2v.8l-.3.5-.4.3s-.6-.2-.7-.1v.1l.1.8.6.6.2.5-.1.5-.3.5v.4l.4.7-.1.3h-.4s-.4-.5-.6-.5h-.3l-.3.3-.1.7-.4.5q-.2.3-.5.3l-.5-.1-.3-.4.1-.4.5-.6-.8-1.8h-.7l-.5-.8-.5-.1-.3.1-.3.7-.8.7-.7 1.6-.4.4v1.3l-.2.5-.3.3-.7.4-.4.3v.6c0 .2.4.5.4.6v.5q.3.5.2.8s-.2.6-.1.7l.3 1.3v.6l-.2.4-.6.2-1.1-.1-.5.4-.5 2.5-.3 1-.4.3-.6.2h-1l-2.4.8h-.7l-.5-.4L1 63l.5.9-.1.7v1q0 .2-.2.3l-.4.1-.2.2.1.3.3.3v.3z" data-name="Ñëîé 1" style="fill:#172d35"/></svg>